<?xml version="1.0" encoding="utf-8" standalone="no"?>
<!DOCTYPE svg PUBLIC "-//W3C//DTD SVG 1.1//EN"
  "http://www.w3.org/Graphics/SVG/1.1/DTD/svg11.dtd">
<!-- Created with matplotlib (https://matplotlib.org/) -->
<svg height="246.958125pt" version="1.1" viewBox="0 0 349.2 246.958125" width="349.2pt" xmlns="http://www.w3.org/2000/svg" xmlns:xlink="http://www.w3.org/1999/xlink">
 <metadata>
  <rdf:RDF xmlns:cc="http://creativecommons.org/ns#" xmlns:dc="http://purl.org/dc/elements/1.1/" xmlns:rdf="http://www.w3.org/1999/02/22-rdf-syntax-ns#">
   <cc:Work>
    <dc:type rdf:resource="http://purl.org/dc/dcmitype/StillImage"/>
    <dc:date>2021-05-17T11:50:53.503529</dc:date>
    <dc:format>image/svg+xml</dc:format>
    <dc:creator>
     <cc:Agent>
      <dc:title>Matplotlib v3.3.4, https://matplotlib.org/</dc:title>
     </cc:Agent>
    </dc:creator>
   </cc:Work>
  </rdf:RDF>
 </metadata>
 <defs>
  <style type="text/css">*{stroke-linecap:butt;stroke-linejoin:round;}</style>
 </defs>
 <g id="figure_1">
  <g id="patch_1">
   <path d="M 0 246.958125 
L 349.2 246.958125 
L 349.2 0 
L 0 0 
z
" style="fill:none;"/>
  </g>
  <g id="axes_1">
   <g id="patch_2">
    <path clip-path="url(#p88516fc626)" d="M 239.503802 127.866849 
Q 206.762415 142.97672 175.036175 157.618108 
" style="fill:none;stroke:#808080;stroke-linecap:round;"/>
    <path clip-path="url(#p88516fc626)" d="M 179.506123 157.757967 
L 175.036175 157.618108 
L 177.830031 154.126065 
L 179.506123 157.757967 
z
" style="fill:#808080;stroke:#808080;stroke-linecap:round;"/>
   </g>
   <g id="patch_3">
    <path clip-path="url(#p88516fc626)" d="M 249.207616 132.701203 
Q 256.538196 166.423378 263.631283 199.053035 
" style="fill:none;stroke:#808080;stroke-linecap:round;"/>
    <path clip-path="url(#p88516fc626)" d="M 264.735957 194.719481 
L 263.631283 199.053035 
L 260.827244 195.569163 
L 264.735957 194.719481 
z
" style="fill:#808080;stroke:#808080;stroke-linecap:round;"/>
   </g>
   <g id="patch_4">
    <path clip-path="url(#p88516fc626)" d="M 255.705308 126.590138 
Q 280.159896 133.490088 303.538462 140.086435 
" style="fill:none;stroke:#808080;stroke-linecap:round;"/>
    <path clip-path="url(#p88516fc626)" d="M 300.231869 137.075382 
L 303.538462 140.086435 
L 299.145663 140.925077 
L 300.231869 137.075382 
z
" style="fill:#808080;stroke:#808080;stroke-linecap:round;"/>
   </g>
   <g id="patch_5">
    <path clip-path="url(#p88516fc626)" d="M 252.105098 116.989347 
Q 269.89764 89.765739 287.07852 63.478011 
" style="fill:none;stroke:#808080;stroke-linecap:round;"/>
    <path clip-path="url(#p88516fc626)" d="M 283.216018 65.732137 
L 287.07852 63.478011 
L 286.56432 67.920487 
L 283.216018 65.732137 
z
" style="fill:#808080;stroke:#808080;stroke-linecap:round;"/>
   </g>
   <g id="patch_6">
    <path clip-path="url(#p88516fc626)" d="M 245.20081 115.85099 
Q 236.637485 82.709223 228.353857 50.64994 
" style="fill:none;stroke:#808080;stroke-linecap:round;"/>
    <path clip-path="url(#p88516fc626)" d="M 227.418127 55.023087 
L 228.353857 50.64994 
L 231.290936 54.022412 
L 227.418127 55.023087 
z
" style="fill:#808080;stroke:#808080;stroke-linecap:round;"/>
   </g>
   <g id="patch_7">
    <path clip-path="url(#p88516fc626)" d="M 102.553195 190.830515 
Q 130.415957 178.076294 157.26213 165.787418 
" style="fill:none;stroke:#808080;stroke-linecap:round;"/>
    <path clip-path="url(#p88516fc626)" d="M 152.792635 165.633758 
L 157.26213 165.787418 
L 154.457505 169.270818 
L 152.792635 165.633758 
z
" style="fill:#808080;stroke:#808080;stroke-linecap:round;"/>
   </g>
   <g id="patch_8">
    <path clip-path="url(#p88516fc626)" d="M 86.787116 198.008262 
Q 65.463364 207.663322 45.158107 216.857223 
" style="fill:none;stroke:#808080;stroke-linecap:round;"/>
    <path clip-path="url(#p88516fc626)" d="M 49.626933 217.029272 
L 45.158107 216.857223 
L 47.977041 213.385392 
L 49.626933 217.029272 
z
" style="fill:#808080;stroke:#808080;stroke-linecap:round;"/>
   </g>
   <g id="patch_9">
    <path clip-path="url(#p88516fc626)" d="M 174.019214 158.087427 
Q 206.760602 142.977556 238.486842 128.336168 
" style="fill:none;stroke:#808080;stroke-linecap:round;"/>
    <path clip-path="url(#p88516fc626)" d="M 234.016894 128.196308 
L 238.486842 128.336168 
L 235.692986 131.828211 
L 234.016894 128.196308 
z
" style="fill:#808080;stroke:#808080;stroke-linecap:round;"/>
   </g>
   <g id="patch_10">
    <path clip-path="url(#p88516fc626)" d="M 158.280762 165.321138 
Q 130.418 178.075359 103.571827 190.364235 
" style="fill:none;stroke:#808080;stroke-linecap:round;"/>
    <path clip-path="url(#p88516fc626)" d="M 108.041323 190.517895 
L 103.571827 190.364235 
L 106.376453 186.880835 
L 108.041323 190.517895 
z
" style="fill:#808080;stroke:#808080;stroke-linecap:round;"/>
   </g>
   <g id="patch_11">
    <path clip-path="url(#p88516fc626)" d="M 263.869035 200.146745 
Q 256.538455 166.424569 249.445368 133.794912 
" style="fill:none;stroke:#808080;stroke-linecap:round;"/>
    <path clip-path="url(#p88516fc626)" d="M 248.340694 138.128467 
L 249.445368 133.794912 
L 252.249407 137.278784 
L 248.340694 138.128467 
z
" style="fill:#808080;stroke:#808080;stroke-linecap:round;"/>
   </g>
   <g id="patch_12">
    <path clip-path="url(#p88516fc626)" d="M 304.609602 140.388661 
Q 280.155013 133.488711 256.776448 126.892364 
" style="fill:none;stroke:#808080;stroke-linecap:round;"/>
    <path clip-path="url(#p88516fc626)" d="M 260.083041 129.903417 
L 256.776448 126.892364 
L 261.169246 126.053721 
L 260.083041 129.903417 
z
" style="fill:#808080;stroke:#808080;stroke-linecap:round;"/>
   </g>
   <g id="patch_13">
    <path clip-path="url(#p88516fc626)" d="M 44.144519 217.31616 
Q 65.468271 207.6611 85.773528 198.467199 
" style="fill:none;stroke:#808080;stroke-linecap:round;"/>
    <path clip-path="url(#p88516fc626)" d="M 81.304703 198.295151 
L 85.773528 198.467199 
L 82.954594 201.93903 
L 81.304703 198.295151 
z
" style="fill:#808080;stroke:#808080;stroke-linecap:round;"/>
   </g>
   <g id="patch_14">
    <path clip-path="url(#p88516fc626)" d="M 287.690509 62.541632 
Q 269.897967 89.765239 252.717087 116.052968 
" style="fill:none;stroke:#808080;stroke-linecap:round;"/>
    <path clip-path="url(#p88516fc626)" d="M 256.579589 113.798842 
L 252.717087 116.052968 
L 253.231287 111.610491 
L 256.579589 113.798842 
z
" style="fill:#808080;stroke:#808080;stroke-linecap:round;"/>
   </g>
   <g id="patch_15">
    <path clip-path="url(#p88516fc626)" d="M 228.075741 49.573576 
Q 236.639066 82.715342 244.922694 114.774626 
" style="fill:none;stroke:#808080;stroke-linecap:round;"/>
    <path clip-path="url(#p88516fc626)" d="M 245.858424 110.401479 
L 244.922694 114.774626 
L 241.985615 111.402154 
L 245.858424 110.401479 
z
" style="fill:#808080;stroke:#808080;stroke-linecap:round;"/>
   </g>
   <g id="PathCollection_1">
    <path clip-path="url(#p88516fc626)" d="M 247.367802 135.41802 
C 250.332863 135.41802 253.176882 134.239989 255.273496 132.143375 
C 257.370111 130.04676 258.548142 127.202741 258.548142 124.23768 
C 258.548142 121.27262 257.370111 118.428601 255.273496 116.331986 
C 253.176882 114.235372 250.332863 113.057341 247.367802 113.057341 
C 244.402741 113.057341 241.558723 114.235372 239.462108 116.331986 
C 237.365493 118.428601 236.187462 121.27262 236.187462 124.23768 
C 236.187462 127.202741 237.365493 130.04676 239.462108 132.143375 
C 241.558723 134.239989 244.402741 135.41802 247.367802 135.41802 
z
" style="fill:#ffa500;fill-opacity:0.7;stroke:#ffa500;stroke-opacity:0.7;"/>
    <path clip-path="url(#p88516fc626)" d="M 94.678743 205.615398 
C 97.643804 205.615398 100.487822 204.437367 102.584437 202.340752 
C 104.681052 200.244137 105.859083 197.400119 105.859083 194.435058 
C 105.859083 191.469997 104.681052 188.625978 102.584437 186.529364 
C 100.487822 184.432749 97.643804 183.254718 94.678743 183.254718 
C 91.713682 183.254718 88.869663 184.432749 86.773049 186.529364 
C 84.676434 188.625978 83.498403 191.469997 83.498403 194.435058 
C 83.498403 197.400119 84.676434 200.244137 86.773049 202.340752 
C 88.869663 204.437367 91.713682 205.615398 94.678743 205.615398 
z
" style="fill:#ffa500;fill-opacity:0.7;stroke:#ffa500;stroke-opacity:0.7;"/>
    <path clip-path="url(#p88516fc626)" d="M 166.155215 168.787663 
C 168.030484 168.787663 169.829199 168.042611 171.155215 166.716595 
C 172.48123 165.39058 173.226283 163.591864 173.226283 161.716595 
C 173.226283 159.841326 172.48123 158.042611 171.155215 156.716595 
C 169.829199 155.39058 168.030484 154.645527 166.155215 154.645527 
C 164.279946 154.645527 162.48123 155.39058 161.155215 156.716595 
C 159.829199 158.042611 159.084147 159.841326 159.084147 161.716595 
C 159.084147 163.591864 159.829199 165.39058 161.155215 166.716595 
C 162.48123 168.042611 164.279946 168.787663 166.155215 168.787663 
z
" style="fill:#808080;fill-opacity:0.7;stroke:#808080;stroke-opacity:0.7;"/>
    <path clip-path="url(#p88516fc626)" d="M 265.708849 215.681335 
C 267.584118 215.681335 269.382833 214.936283 270.708849 213.610267 
C 272.034864 212.284252 272.779917 210.485536 272.779917 208.610267 
C 272.779917 206.734998 272.034864 204.936283 270.708849 203.610267 
C 269.382833 202.284252 267.584118 201.539199 265.708849 201.539199 
C 263.83358 201.539199 262.034864 202.284252 260.708849 203.610267 
C 259.382833 204.936283 258.637781 206.734998 258.637781 208.610267 
C 258.637781 210.485536 259.382833 212.284252 260.708849 213.610267 
C 262.034864 214.936283 263.83358 215.681335 265.708849 215.681335 
z
" style="fill:#808080;fill-opacity:0.7;stroke:#808080;stroke-opacity:0.7;"/>
    <path clip-path="url(#p88516fc626)" d="M 312.947107 149.812186 
C 314.822377 149.812186 316.621092 149.067134 317.947107 147.741118 
C 319.273123 146.415103 320.018175 144.616388 320.018175 142.741118 
C 320.018175 140.865849 319.273123 139.067134 317.947107 137.741118 
C 316.621092 136.415103 314.822377 135.670051 312.947107 135.670051 
C 311.071838 135.670051 309.273123 136.415103 307.947107 137.741118 
C 306.621092 139.067134 305.87604 140.865849 305.87604 142.741118 
C 305.87604 144.616388 306.621092 146.415103 307.947107 147.741118 
C 309.273123 149.067134 311.071838 149.812186 312.947107 149.812186 
z
" style="fill:#808080;fill-opacity:0.7;stroke:#808080;stroke-opacity:0.7;"/>
    <path clip-path="url(#p88516fc626)" d="M 36.252893 227.960432 
C 38.128162 227.960432 39.926877 227.21538 41.252893 225.889365 
C 42.578908 224.563349 43.32396 222.764634 43.32396 220.889365 
C 43.32396 219.014096 42.578908 217.21538 41.252893 215.889365 
C 39.926877 214.563349 38.128162 213.818297 36.252893 213.818297 
C 34.377623 213.818297 32.578908 214.563349 31.252893 215.889365 
C 29.926877 217.21538 29.181825 219.014096 29.181825 220.889365 
C 29.181825 222.764634 29.926877 224.563349 31.252893 225.889365 
C 32.578908 227.21538 34.377623 227.960432 36.252893 227.960432 
z
" style="fill:#808080;fill-opacity:0.7;stroke:#808080;stroke-opacity:0.7;"/>
    <path clip-path="url(#p88516fc626)" d="M 292.427805 62.364366 
C 294.303074 62.364366 296.101789 61.619314 297.427805 60.293298 
C 298.75382 58.967283 299.498873 57.168567 299.498873 55.293298 
C 299.498873 53.418029 298.75382 51.619314 297.427805 50.293298 
C 296.101789 48.967283 294.303074 48.22223 292.427805 48.22223 
C 290.552536 48.22223 288.75382 48.967283 287.427805 50.293298 
C 286.101789 51.619314 285.356737 53.418029 285.356737 55.293298 
C 285.356737 57.168567 286.101789 58.967283 287.427805 60.293298 
C 288.75382 61.619314 290.552536 62.364366 292.427805 62.364366 
z
" style="fill:#808080;fill-opacity:0.7;stroke:#808080;stroke-opacity:0.7;"/>
    <path clip-path="url(#p88516fc626)" d="M 225.908749 48.257953 
C 227.784018 48.257953 229.582733 47.512901 230.908749 46.186885 
C 232.234764 44.86087 232.979817 43.062154 232.979817 41.186885 
C 232.979817 39.311616 232.234764 37.512901 230.908749 36.186885 
C 229.582733 34.86087 227.784018 34.115818 225.908749 34.115818 
C 224.03348 34.115818 222.234764 34.86087 220.908749 36.186885 
C 219.582733 37.512901 218.837681 39.311616 218.837681 41.186885 
C 218.837681 43.062154 219.582733 44.86087 220.908749 46.186885 
C 222.234764 47.512901 224.03348 48.257953 225.908749 48.257953 
z
" style="fill:#808080;fill-opacity:0.7;stroke:#808080;stroke-opacity:0.7;"/>
   </g>
   <g id="text_1">
    <g clip-path="url(#p88516fc626)">
     <!-- green sources -->
     <g transform="translate(219.180302 126.44518)scale(0.08 -0.08)">
      <defs>
       <path d="M 45.40625 27.984375 
Q 45.40625 37.75 41.375 43.109375 
Q 37.359375 48.484375 30.078125 48.484375 
Q 22.859375 48.484375 18.828125 43.109375 
Q 14.796875 37.75 14.796875 27.984375 
Q 14.796875 18.265625 18.828125 12.890625 
Q 22.859375 7.515625 30.078125 7.515625 
Q 37.359375 7.515625 41.375 12.890625 
Q 45.40625 18.265625 45.40625 27.984375 
z
M 54.390625 6.78125 
Q 54.390625 -7.171875 48.1875 -13.984375 
Q 42 -20.796875 29.203125 -20.796875 
Q 24.46875 -20.796875 20.265625 -20.09375 
Q 16.0625 -19.390625 12.109375 -17.921875 
L 12.109375 -9.1875 
Q 16.0625 -11.328125 19.921875 -12.34375 
Q 23.78125 -13.375 27.78125 -13.375 
Q 36.625 -13.375 41.015625 -8.765625 
Q 45.40625 -4.15625 45.40625 5.171875 
L 45.40625 9.625 
Q 42.625 4.78125 38.28125 2.390625 
Q 33.9375 0 27.875 0 
Q 17.828125 0 11.671875 7.65625 
Q 5.515625 15.328125 5.515625 27.984375 
Q 5.515625 40.671875 11.671875 48.328125 
Q 17.828125 56 27.875 56 
Q 33.9375 56 38.28125 53.609375 
Q 42.625 51.21875 45.40625 46.390625 
L 45.40625 54.6875 
L 54.390625 54.6875 
z
" id="DejaVuSans-103"/>
       <path d="M 41.109375 46.296875 
Q 39.59375 47.171875 37.8125 47.578125 
Q 36.03125 48 33.890625 48 
Q 26.265625 48 22.1875 43.046875 
Q 18.109375 38.09375 18.109375 28.8125 
L 18.109375 0 
L 9.078125 0 
L 9.078125 54.6875 
L 18.109375 54.6875 
L 18.109375 46.1875 
Q 20.953125 51.171875 25.484375 53.578125 
Q 30.03125 56 36.53125 56 
Q 37.453125 56 38.578125 55.875 
Q 39.703125 55.765625 41.0625 55.515625 
z
" id="DejaVuSans-114"/>
       <path d="M 56.203125 29.59375 
L 56.203125 25.203125 
L 14.890625 25.203125 
Q 15.484375 15.921875 20.484375 11.0625 
Q 25.484375 6.203125 34.421875 6.203125 
Q 39.59375 6.203125 44.453125 7.46875 
Q 49.3125 8.734375 54.109375 11.28125 
L 54.109375 2.78125 
Q 49.265625 0.734375 44.1875 -0.34375 
Q 39.109375 -1.421875 33.890625 -1.421875 
Q 20.796875 -1.421875 13.15625 6.1875 
Q 5.515625 13.8125 5.515625 26.8125 
Q 5.515625 40.234375 12.765625 48.109375 
Q 20.015625 56 32.328125 56 
Q 43.359375 56 49.78125 48.890625 
Q 56.203125 41.796875 56.203125 29.59375 
z
M 47.21875 32.234375 
Q 47.125 39.59375 43.09375 43.984375 
Q 39.0625 48.390625 32.421875 48.390625 
Q 24.90625 48.390625 20.390625 44.140625 
Q 15.875 39.890625 15.1875 32.171875 
z
" id="DejaVuSans-101"/>
       <path d="M 54.890625 33.015625 
L 54.890625 0 
L 45.90625 0 
L 45.90625 32.71875 
Q 45.90625 40.484375 42.875 44.328125 
Q 39.84375 48.1875 33.796875 48.1875 
Q 26.515625 48.1875 22.3125 43.546875 
Q 18.109375 38.921875 18.109375 30.90625 
L 18.109375 0 
L 9.078125 0 
L 9.078125 54.6875 
L 18.109375 54.6875 
L 18.109375 46.1875 
Q 21.34375 51.125 25.703125 53.5625 
Q 30.078125 56 35.796875 56 
Q 45.21875 56 50.046875 50.171875 
Q 54.890625 44.34375 54.890625 33.015625 
z
" id="DejaVuSans-110"/>
       <path id="DejaVuSans-32"/>
       <path d="M 44.28125 53.078125 
L 44.28125 44.578125 
Q 40.484375 46.53125 36.375 47.5 
Q 32.28125 48.484375 27.875 48.484375 
Q 21.1875 48.484375 17.84375 46.4375 
Q 14.5 44.390625 14.5 40.28125 
Q 14.5 37.15625 16.890625 35.375 
Q 19.28125 33.59375 26.515625 31.984375 
L 29.59375 31.296875 
Q 39.15625 29.25 43.1875 25.515625 
Q 47.21875 21.78125 47.21875 15.09375 
Q 47.21875 7.46875 41.1875 3.015625 
Q 35.15625 -1.421875 24.609375 -1.421875 
Q 20.21875 -1.421875 15.453125 -0.5625 
Q 10.6875 0.296875 5.421875 2 
L 5.421875 11.28125 
Q 10.40625 8.6875 15.234375 7.390625 
Q 20.0625 6.109375 24.8125 6.109375 
Q 31.15625 6.109375 34.5625 8.28125 
Q 37.984375 10.453125 37.984375 14.40625 
Q 37.984375 18.0625 35.515625 20.015625 
Q 33.0625 21.96875 24.703125 23.78125 
L 21.578125 24.515625 
Q 13.234375 26.265625 9.515625 29.90625 
Q 5.8125 33.546875 5.8125 39.890625 
Q 5.8125 47.609375 11.28125 51.796875 
Q 16.75 56 26.8125 56 
Q 31.78125 56 36.171875 55.265625 
Q 40.578125 54.546875 44.28125 53.078125 
z
" id="DejaVuSans-115"/>
       <path d="M 30.609375 48.390625 
Q 23.390625 48.390625 19.1875 42.75 
Q 14.984375 37.109375 14.984375 27.296875 
Q 14.984375 17.484375 19.15625 11.84375 
Q 23.34375 6.203125 30.609375 6.203125 
Q 37.796875 6.203125 41.984375 11.859375 
Q 46.1875 17.53125 46.1875 27.296875 
Q 46.1875 37.015625 41.984375 42.703125 
Q 37.796875 48.390625 30.609375 48.390625 
z
M 30.609375 56 
Q 42.328125 56 49.015625 48.375 
Q 55.71875 40.765625 55.71875 27.296875 
Q 55.71875 13.875 49.015625 6.21875 
Q 42.328125 -1.421875 30.609375 -1.421875 
Q 18.84375 -1.421875 12.171875 6.21875 
Q 5.515625 13.875 5.515625 27.296875 
Q 5.515625 40.765625 12.171875 48.375 
Q 18.84375 56 30.609375 56 
z
" id="DejaVuSans-111"/>
       <path d="M 8.5 21.578125 
L 8.5 54.6875 
L 17.484375 54.6875 
L 17.484375 21.921875 
Q 17.484375 14.15625 20.5 10.265625 
Q 23.53125 6.390625 29.59375 6.390625 
Q 36.859375 6.390625 41.078125 11.03125 
Q 45.3125 15.671875 45.3125 23.6875 
L 45.3125 54.6875 
L 54.296875 54.6875 
L 54.296875 0 
L 45.3125 0 
L 45.3125 8.40625 
Q 42.046875 3.421875 37.71875 1 
Q 33.40625 -1.421875 27.6875 -1.421875 
Q 18.265625 -1.421875 13.375 4.4375 
Q 8.5 10.296875 8.5 21.578125 
z
M 31.109375 56 
z
" id="DejaVuSans-117"/>
       <path d="M 48.78125 52.59375 
L 48.78125 44.1875 
Q 44.96875 46.296875 41.140625 47.34375 
Q 37.3125 48.390625 33.40625 48.390625 
Q 24.65625 48.390625 19.8125 42.84375 
Q 14.984375 37.3125 14.984375 27.296875 
Q 14.984375 17.28125 19.8125 11.734375 
Q 24.65625 6.203125 33.40625 6.203125 
Q 37.3125 6.203125 41.140625 7.25 
Q 44.96875 8.296875 48.78125 10.40625 
L 48.78125 2.09375 
Q 45.015625 0.34375 40.984375 -0.53125 
Q 36.96875 -1.421875 32.421875 -1.421875 
Q 20.0625 -1.421875 12.78125 6.34375 
Q 5.515625 14.109375 5.515625 27.296875 
Q 5.515625 40.671875 12.859375 48.328125 
Q 20.21875 56 33.015625 56 
Q 37.15625 56 41.109375 55.140625 
Q 45.0625 54.296875 48.78125 52.59375 
z
" id="DejaVuSans-99"/>
      </defs>
      <use xlink:href="#DejaVuSans-103"/>
      <use x="63.476562" xlink:href="#DejaVuSans-114"/>
      <use x="102.339844" xlink:href="#DejaVuSans-101"/>
      <use x="163.863281" xlink:href="#DejaVuSans-101"/>
      <use x="225.386719" xlink:href="#DejaVuSans-110"/>
      <use x="288.765625" xlink:href="#DejaVuSans-32"/>
      <use x="320.552734" xlink:href="#DejaVuSans-115"/>
      <use x="372.652344" xlink:href="#DejaVuSans-111"/>
      <use x="433.833984" xlink:href="#DejaVuSans-117"/>
      <use x="497.212891" xlink:href="#DejaVuSans-114"/>
      <use x="536.076172" xlink:href="#DejaVuSans-99"/>
      <use x="591.056641" xlink:href="#DejaVuSans-101"/>
      <use x="652.580078" xlink:href="#DejaVuSans-115"/>
     </g>
    </g>
   </g>
   <g id="text_2">
    <g clip-path="url(#p88516fc626)">
     <!-- grey sources -->
     <g transform="translate(69.119993 196.642558)scale(0.08 -0.08)">
      <defs>
       <path d="M 32.171875 -5.078125 
Q 28.375 -14.84375 24.75 -17.8125 
Q 21.140625 -20.796875 15.09375 -20.796875 
L 7.90625 -20.796875 
L 7.90625 -13.28125 
L 13.1875 -13.28125 
Q 16.890625 -13.28125 18.9375 -11.515625 
Q 21 -9.765625 23.484375 -3.21875 
L 25.09375 0.875 
L 2.984375 54.6875 
L 12.5 54.6875 
L 29.59375 11.921875 
L 46.6875 54.6875 
L 56.203125 54.6875 
z
" id="DejaVuSans-121"/>
      </defs>
      <use xlink:href="#DejaVuSans-103"/>
      <use x="63.476562" xlink:href="#DejaVuSans-114"/>
      <use x="102.339844" xlink:href="#DejaVuSans-101"/>
      <use x="163.863281" xlink:href="#DejaVuSans-121"/>
      <use x="223.042969" xlink:href="#DejaVuSans-32"/>
      <use x="254.830078" xlink:href="#DejaVuSans-115"/>
      <use x="306.929688" xlink:href="#DejaVuSans-111"/>
      <use x="368.111328" xlink:href="#DejaVuSans-117"/>
      <use x="431.490234" xlink:href="#DejaVuSans-114"/>
      <use x="470.353516" xlink:href="#DejaVuSans-99"/>
      <use x="525.333984" xlink:href="#DejaVuSans-101"/>
      <use x="586.857422" xlink:href="#DejaVuSans-115"/>
     </g>
    </g>
   </g>
   <g id="text_3">
    <g clip-path="url(#p88516fc626)">
     <!-- downstream -->
     <g transform="translate(141.34709 163.924095)scale(0.08 -0.08)">
      <defs>
       <path d="M 45.40625 46.390625 
L 45.40625 75.984375 
L 54.390625 75.984375 
L 54.390625 0 
L 45.40625 0 
L 45.40625 8.203125 
Q 42.578125 3.328125 38.25 0.953125 
Q 33.9375 -1.421875 27.875 -1.421875 
Q 17.96875 -1.421875 11.734375 6.484375 
Q 5.515625 14.40625 5.515625 27.296875 
Q 5.515625 40.1875 11.734375 48.09375 
Q 17.96875 56 27.875 56 
Q 33.9375 56 38.25 53.625 
Q 42.578125 51.265625 45.40625 46.390625 
z
M 14.796875 27.296875 
Q 14.796875 17.390625 18.875 11.75 
Q 22.953125 6.109375 30.078125 6.109375 
Q 37.203125 6.109375 41.296875 11.75 
Q 45.40625 17.390625 45.40625 27.296875 
Q 45.40625 37.203125 41.296875 42.84375 
Q 37.203125 48.484375 30.078125 48.484375 
Q 22.953125 48.484375 18.875 42.84375 
Q 14.796875 37.203125 14.796875 27.296875 
z
" id="DejaVuSans-100"/>
       <path d="M 4.203125 54.6875 
L 13.1875 54.6875 
L 24.421875 12.015625 
L 35.59375 54.6875 
L 46.1875 54.6875 
L 57.421875 12.015625 
L 68.609375 54.6875 
L 77.59375 54.6875 
L 63.28125 0 
L 52.6875 0 
L 40.921875 44.828125 
L 29.109375 0 
L 18.5 0 
z
" id="DejaVuSans-119"/>
       <path d="M 18.3125 70.21875 
L 18.3125 54.6875 
L 36.8125 54.6875 
L 36.8125 47.703125 
L 18.3125 47.703125 
L 18.3125 18.015625 
Q 18.3125 11.328125 20.140625 9.421875 
Q 21.96875 7.515625 27.59375 7.515625 
L 36.8125 7.515625 
L 36.8125 0 
L 27.59375 0 
Q 17.1875 0 13.234375 3.875 
Q 9.28125 7.765625 9.28125 18.015625 
L 9.28125 47.703125 
L 2.6875 47.703125 
L 2.6875 54.6875 
L 9.28125 54.6875 
L 9.28125 70.21875 
z
" id="DejaVuSans-116"/>
       <path d="M 34.28125 27.484375 
Q 23.390625 27.484375 19.1875 25 
Q 14.984375 22.515625 14.984375 16.5 
Q 14.984375 11.71875 18.140625 8.90625 
Q 21.296875 6.109375 26.703125 6.109375 
Q 34.1875 6.109375 38.703125 11.40625 
Q 43.21875 16.703125 43.21875 25.484375 
L 43.21875 27.484375 
z
M 52.203125 31.203125 
L 52.203125 0 
L 43.21875 0 
L 43.21875 8.296875 
Q 40.140625 3.328125 35.546875 0.953125 
Q 30.953125 -1.421875 24.3125 -1.421875 
Q 15.921875 -1.421875 10.953125 3.296875 
Q 6 8.015625 6 15.921875 
Q 6 25.140625 12.171875 29.828125 
Q 18.359375 34.515625 30.609375 34.515625 
L 43.21875 34.515625 
L 43.21875 35.40625 
Q 43.21875 41.609375 39.140625 45 
Q 35.0625 48.390625 27.6875 48.390625 
Q 23 48.390625 18.546875 47.265625 
Q 14.109375 46.140625 10.015625 43.890625 
L 10.015625 52.203125 
Q 14.9375 54.109375 19.578125 55.046875 
Q 24.21875 56 28.609375 56 
Q 40.484375 56 46.34375 49.84375 
Q 52.203125 43.703125 52.203125 31.203125 
z
" id="DejaVuSans-97"/>
       <path d="M 52 44.1875 
Q 55.375 50.25 60.0625 53.125 
Q 64.75 56 71.09375 56 
Q 79.640625 56 84.28125 50.015625 
Q 88.921875 44.046875 88.921875 33.015625 
L 88.921875 0 
L 79.890625 0 
L 79.890625 32.71875 
Q 79.890625 40.578125 77.09375 44.375 
Q 74.3125 48.1875 68.609375 48.1875 
Q 61.625 48.1875 57.5625 43.546875 
Q 53.515625 38.921875 53.515625 30.90625 
L 53.515625 0 
L 44.484375 0 
L 44.484375 32.71875 
Q 44.484375 40.625 41.703125 44.40625 
Q 38.921875 48.1875 33.109375 48.1875 
Q 26.21875 48.1875 22.15625 43.53125 
Q 18.109375 38.875 18.109375 30.90625 
L 18.109375 0 
L 9.078125 0 
L 9.078125 54.6875 
L 18.109375 54.6875 
L 18.109375 46.1875 
Q 21.1875 51.21875 25.484375 53.609375 
Q 29.78125 56 35.6875 56 
Q 41.65625 56 45.828125 52.96875 
Q 50 49.953125 52 44.1875 
z
" id="DejaVuSans-109"/>
      </defs>
      <use xlink:href="#DejaVuSans-100"/>
      <use x="63.476562" xlink:href="#DejaVuSans-111"/>
      <use x="124.658203" xlink:href="#DejaVuSans-119"/>
      <use x="206.445312" xlink:href="#DejaVuSans-110"/>
      <use x="269.824219" xlink:href="#DejaVuSans-115"/>
      <use x="321.923828" xlink:href="#DejaVuSans-116"/>
      <use x="361.132812" xlink:href="#DejaVuSans-114"/>
      <use x="399.996094" xlink:href="#DejaVuSans-101"/>
      <use x="461.519531" xlink:href="#DejaVuSans-97"/>
      <use x="522.798828" xlink:href="#DejaVuSans-109"/>
     </g>
    </g>
   </g>
   <g id="text_4">
    <g clip-path="url(#p88516fc626)">
     <!-- wind -->
     <g transform="translate(256.251974 210.817767)scale(0.08 -0.08)">
      <defs>
       <path d="M 9.421875 54.6875 
L 18.40625 54.6875 
L 18.40625 0 
L 9.421875 0 
z
M 9.421875 75.984375 
L 18.40625 75.984375 
L 18.40625 64.59375 
L 9.421875 64.59375 
z
" id="DejaVuSans-105"/>
      </defs>
      <use xlink:href="#DejaVuSans-119"/>
      <use x="81.787109" xlink:href="#DejaVuSans-105"/>
      <use x="109.570312" xlink:href="#DejaVuSans-110"/>
      <use x="172.949219" xlink:href="#DejaVuSans-100"/>
     </g>
    </g>
   </g>
   <g id="text_5">
    <g clip-path="url(#p88516fc626)">
     <!-- PV -->
     <g transform="translate(307.798982 144.948618)scale(0.08 -0.08)">
      <defs>
       <path d="M 19.671875 64.796875 
L 19.671875 37.40625 
L 32.078125 37.40625 
Q 38.96875 37.40625 42.71875 40.96875 
Q 46.484375 44.53125 46.484375 51.125 
Q 46.484375 57.671875 42.71875 61.234375 
Q 38.96875 64.796875 32.078125 64.796875 
z
M 9.8125 72.90625 
L 32.078125 72.90625 
Q 44.34375 72.90625 50.609375 67.359375 
Q 56.890625 61.8125 56.890625 51.125 
Q 56.890625 40.328125 50.609375 34.8125 
Q 44.34375 29.296875 32.078125 29.296875 
L 19.671875 29.296875 
L 19.671875 0 
L 9.8125 0 
z
" id="DejaVuSans-80"/>
       <path d="M 28.609375 0 
L 0.78125 72.90625 
L 11.078125 72.90625 
L 34.1875 11.53125 
L 57.328125 72.90625 
L 67.578125 72.90625 
L 39.796875 0 
z
" id="DejaVuSans-86"/>
      </defs>
      <use xlink:href="#DejaVuSans-80"/>
      <use x="60.302734" xlink:href="#DejaVuSans-86"/>
     </g>
    </g>
   </g>
   <g id="text_6">
    <g clip-path="url(#p88516fc626)">
     <!-- spot market -->
     <g transform="translate(12.150393 223.096865)scale(0.08 -0.08)">
      <defs>
       <path d="M 18.109375 8.203125 
L 18.109375 -20.796875 
L 9.078125 -20.796875 
L 9.078125 54.6875 
L 18.109375 54.6875 
L 18.109375 46.390625 
Q 20.953125 51.265625 25.265625 53.625 
Q 29.59375 56 35.59375 56 
Q 45.5625 56 51.78125 48.09375 
Q 58.015625 40.1875 58.015625 27.296875 
Q 58.015625 14.40625 51.78125 6.484375 
Q 45.5625 -1.421875 35.59375 -1.421875 
Q 29.59375 -1.421875 25.265625 0.953125 
Q 20.953125 3.328125 18.109375 8.203125 
z
M 48.6875 27.296875 
Q 48.6875 37.203125 44.609375 42.84375 
Q 40.53125 48.484375 33.40625 48.484375 
Q 26.265625 48.484375 22.1875 42.84375 
Q 18.109375 37.203125 18.109375 27.296875 
Q 18.109375 17.390625 22.1875 11.75 
Q 26.265625 6.109375 33.40625 6.109375 
Q 40.53125 6.109375 44.609375 11.75 
Q 48.6875 17.390625 48.6875 27.296875 
z
" id="DejaVuSans-112"/>
       <path d="M 9.078125 75.984375 
L 18.109375 75.984375 
L 18.109375 31.109375 
L 44.921875 54.6875 
L 56.390625 54.6875 
L 27.390625 29.109375 
L 57.625 0 
L 45.90625 0 
L 18.109375 26.703125 
L 18.109375 0 
L 9.078125 0 
z
" id="DejaVuSans-107"/>
      </defs>
      <use xlink:href="#DejaVuSans-115"/>
      <use x="52.099609" xlink:href="#DejaVuSans-112"/>
      <use x="115.576172" xlink:href="#DejaVuSans-111"/>
      <use x="176.757812" xlink:href="#DejaVuSans-116"/>
      <use x="215.966797" xlink:href="#DejaVuSans-32"/>
      <use x="247.753906" xlink:href="#DejaVuSans-109"/>
      <use x="345.166016" xlink:href="#DejaVuSans-97"/>
      <use x="406.445312" xlink:href="#DejaVuSans-114"/>
      <use x="447.558594" xlink:href="#DejaVuSans-107"/>
      <use x="501.84375" xlink:href="#DejaVuSans-101"/>
      <use x="563.367188" xlink:href="#DejaVuSans-116"/>
     </g>
    </g>
   </g>
   <g id="text_7">
    <g clip-path="url(#p88516fc626)">
     <!-- green sales -->
     <g transform="translate(269.414055 57.500798)scale(0.08 -0.08)">
      <defs>
       <path d="M 9.421875 75.984375 
L 18.40625 75.984375 
L 18.40625 0 
L 9.421875 0 
z
" id="DejaVuSans-108"/>
      </defs>
      <use xlink:href="#DejaVuSans-103"/>
      <use x="63.476562" xlink:href="#DejaVuSans-114"/>
      <use x="102.339844" xlink:href="#DejaVuSans-101"/>
      <use x="163.863281" xlink:href="#DejaVuSans-101"/>
      <use x="225.386719" xlink:href="#DejaVuSans-110"/>
      <use x="288.765625" xlink:href="#DejaVuSans-32"/>
      <use x="320.552734" xlink:href="#DejaVuSans-115"/>
      <use x="372.652344" xlink:href="#DejaVuSans-97"/>
      <use x="433.931641" xlink:href="#DejaVuSans-108"/>
      <use x="461.714844" xlink:href="#DejaVuSans-101"/>
      <use x="523.238281" xlink:href="#DejaVuSans-115"/>
     </g>
    </g>
   </g>
   <g id="text_8">
    <g clip-path="url(#p88516fc626)">
     <!-- battery -->
     <g transform="translate(211.308749 43.394385)scale(0.08 -0.08)">
      <defs>
       <path d="M 48.6875 27.296875 
Q 48.6875 37.203125 44.609375 42.84375 
Q 40.53125 48.484375 33.40625 48.484375 
Q 26.265625 48.484375 22.1875 42.84375 
Q 18.109375 37.203125 18.109375 27.296875 
Q 18.109375 17.390625 22.1875 11.75 
Q 26.265625 6.109375 33.40625 6.109375 
Q 40.53125 6.109375 44.609375 11.75 
Q 48.6875 17.390625 48.6875 27.296875 
z
M 18.109375 46.390625 
Q 20.953125 51.265625 25.265625 53.625 
Q 29.59375 56 35.59375 56 
Q 45.5625 56 51.78125 48.09375 
Q 58.015625 40.1875 58.015625 27.296875 
Q 58.015625 14.40625 51.78125 6.484375 
Q 45.5625 -1.421875 35.59375 -1.421875 
Q 29.59375 -1.421875 25.265625 0.953125 
Q 20.953125 3.328125 18.109375 8.203125 
L 18.109375 0 
L 9.078125 0 
L 9.078125 75.984375 
L 18.109375 75.984375 
z
" id="DejaVuSans-98"/>
      </defs>
      <use xlink:href="#DejaVuSans-98"/>
      <use x="63.476562" xlink:href="#DejaVuSans-97"/>
      <use x="124.755859" xlink:href="#DejaVuSans-116"/>
      <use x="163.964844" xlink:href="#DejaVuSans-116"/>
      <use x="203.173828" xlink:href="#DejaVuSans-101"/>
      <use x="264.697266" xlink:href="#DejaVuSans-114"/>
      <use x="305.810547" xlink:href="#DejaVuSans-121"/>
     </g>
    </g>
   </g>
   <g id="text_9">
    <!-- Complete portfolio with downstream contract -->
    <g transform="translate(38.1075 16.318125)scale(0.12 -0.12)">
     <defs>
      <path d="M 64.40625 67.28125 
L 64.40625 56.890625 
Q 59.421875 61.53125 53.78125 63.8125 
Q 48.140625 66.109375 41.796875 66.109375 
Q 29.296875 66.109375 22.65625 58.46875 
Q 16.015625 50.828125 16.015625 36.375 
Q 16.015625 21.96875 22.65625 14.328125 
Q 29.296875 6.6875 41.796875 6.6875 
Q 48.140625 6.6875 53.78125 8.984375 
Q 59.421875 11.28125 64.40625 15.921875 
L 64.40625 5.609375 
Q 59.234375 2.09375 53.4375 0.328125 
Q 47.65625 -1.421875 41.21875 -1.421875 
Q 24.65625 -1.421875 15.125 8.703125 
Q 5.609375 18.84375 5.609375 36.375 
Q 5.609375 53.953125 15.125 64.078125 
Q 24.65625 74.21875 41.21875 74.21875 
Q 47.75 74.21875 53.53125 72.484375 
Q 59.328125 70.75 64.40625 67.28125 
z
" id="DejaVuSans-67"/>
      <path d="M 37.109375 75.984375 
L 37.109375 68.5 
L 28.515625 68.5 
Q 23.6875 68.5 21.796875 66.546875 
Q 19.921875 64.59375 19.921875 59.515625 
L 19.921875 54.6875 
L 34.71875 54.6875 
L 34.71875 47.703125 
L 19.921875 47.703125 
L 19.921875 0 
L 10.890625 0 
L 10.890625 47.703125 
L 2.296875 47.703125 
L 2.296875 54.6875 
L 10.890625 54.6875 
L 10.890625 58.5 
Q 10.890625 67.625 15.140625 71.796875 
Q 19.390625 75.984375 28.609375 75.984375 
z
" id="DejaVuSans-102"/>
      <path d="M 54.890625 33.015625 
L 54.890625 0 
L 45.90625 0 
L 45.90625 32.71875 
Q 45.90625 40.484375 42.875 44.328125 
Q 39.84375 48.1875 33.796875 48.1875 
Q 26.515625 48.1875 22.3125 43.546875 
Q 18.109375 38.921875 18.109375 30.90625 
L 18.109375 0 
L 9.078125 0 
L 9.078125 75.984375 
L 18.109375 75.984375 
L 18.109375 46.1875 
Q 21.34375 51.125 25.703125 53.5625 
Q 30.078125 56 35.796875 56 
Q 45.21875 56 50.046875 50.171875 
Q 54.890625 44.34375 54.890625 33.015625 
z
" id="DejaVuSans-104"/>
     </defs>
     <use xlink:href="#DejaVuSans-67"/>
     <use x="69.824219" xlink:href="#DejaVuSans-111"/>
     <use x="131.005859" xlink:href="#DejaVuSans-109"/>
     <use x="228.417969" xlink:href="#DejaVuSans-112"/>
     <use x="291.894531" xlink:href="#DejaVuSans-108"/>
     <use x="319.677734" xlink:href="#DejaVuSans-101"/>
     <use x="381.201172" xlink:href="#DejaVuSans-116"/>
     <use x="420.410156" xlink:href="#DejaVuSans-101"/>
     <use x="481.933594" xlink:href="#DejaVuSans-32"/>
     <use x="513.720703" xlink:href="#DejaVuSans-112"/>
     <use x="577.197266" xlink:href="#DejaVuSans-111"/>
     <use x="638.378906" xlink:href="#DejaVuSans-114"/>
     <use x="679.492188" xlink:href="#DejaVuSans-116"/>
     <use x="718.701172" xlink:href="#DejaVuSans-102"/>
     <use x="753.90625" xlink:href="#DejaVuSans-111"/>
     <use x="815.087891" xlink:href="#DejaVuSans-108"/>
     <use x="842.871094" xlink:href="#DejaVuSans-105"/>
     <use x="870.654297" xlink:href="#DejaVuSans-111"/>
     <use x="931.835938" xlink:href="#DejaVuSans-32"/>
     <use x="963.623047" xlink:href="#DejaVuSans-119"/>
     <use x="1045.410156" xlink:href="#DejaVuSans-105"/>
     <use x="1073.193359" xlink:href="#DejaVuSans-116"/>
     <use x="1112.402344" xlink:href="#DejaVuSans-104"/>
     <use x="1175.78125" xlink:href="#DejaVuSans-32"/>
     <use x="1207.568359" xlink:href="#DejaVuSans-100"/>
     <use x="1271.044922" xlink:href="#DejaVuSans-111"/>
     <use x="1332.226562" xlink:href="#DejaVuSans-119"/>
     <use x="1414.013672" xlink:href="#DejaVuSans-110"/>
     <use x="1477.392578" xlink:href="#DejaVuSans-115"/>
     <use x="1529.492188" xlink:href="#DejaVuSans-116"/>
     <use x="1568.701172" xlink:href="#DejaVuSans-114"/>
     <use x="1607.564453" xlink:href="#DejaVuSans-101"/>
     <use x="1669.087891" xlink:href="#DejaVuSans-97"/>
     <use x="1730.367188" xlink:href="#DejaVuSans-109"/>
     <use x="1827.779297" xlink:href="#DejaVuSans-32"/>
     <use x="1859.566406" xlink:href="#DejaVuSans-99"/>
     <use x="1914.546875" xlink:href="#DejaVuSans-111"/>
     <use x="1975.728516" xlink:href="#DejaVuSans-110"/>
     <use x="2039.107422" xlink:href="#DejaVuSans-116"/>
     <use x="2078.316406" xlink:href="#DejaVuSans-114"/>
     <use x="2119.429688" xlink:href="#DejaVuSans-97"/>
     <use x="2180.708984" xlink:href="#DejaVuSans-99"/>
     <use x="2235.689453" xlink:href="#DejaVuSans-116"/>
    </g>
   </g>
  </g>
 </g>
 <defs>
  <clipPath id="p88516fc626">
   <rect height="217.44" width="334.8" x="7.2" y="22.318125"/>
  </clipPath>
 </defs>
</svg>
