<?xml version="1.0" encoding="utf-8" standalone="no"?>
<!DOCTYPE svg PUBLIC "-//W3C//DTD SVG 1.1//EN"
  "http://www.w3.org/Graphics/SVG/1.1/DTD/svg11.dtd">
<!-- Created with matplotlib (https://matplotlib.org/) -->
<svg height="246.958125pt" version="1.1" viewBox="0 0 349.2 246.958125" width="349.2pt" xmlns="http://www.w3.org/2000/svg" xmlns:xlink="http://www.w3.org/1999/xlink">
 <metadata>
  <rdf:RDF xmlns:cc="http://creativecommons.org/ns#" xmlns:dc="http://purl.org/dc/elements/1.1/" xmlns:rdf="http://www.w3.org/1999/02/22-rdf-syntax-ns#">
   <cc:Work>
    <dc:type rdf:resource="http://purl.org/dc/dcmitype/StillImage"/>
    <dc:date>2021-04-26T19:58:12.171860</dc:date>
    <dc:format>image/svg+xml</dc:format>
    <dc:creator>
     <cc:Agent>
      <dc:title>Matplotlib v3.3.4, https://matplotlib.org/</dc:title>
     </cc:Agent>
    </dc:creator>
   </cc:Work>
  </rdf:RDF>
 </metadata>
 <defs>
  <style type="text/css">*{stroke-linecap:butt;stroke-linejoin:round;}</style>
 </defs>
 <g id="figure_1">
  <g id="patch_1">
   <path d="M 0 246.958125 
L 349.2 246.958125 
L 349.2 0 
L 0 0 
z
" style="fill:none;"/>
  </g>
  <g id="axes_1">
   <g id="patch_2">
    <path clip-path="url(#pda81265581)" d="M 233.55823 155.474515 
Q 201.669108 136.835457 170.745232 118.760581 
" style="fill:none;stroke:#808080;stroke-linecap:round;"/>
    <path clip-path="url(#pda81265581)" d="M 173.18936 122.505743 
L 170.745232 118.760581 
L 175.207838 119.052376 
L 173.18936 122.505743 
z
" style="fill:#808080;stroke:#808080;stroke-linecap:round;"/>
   </g>
   <g id="patch_3">
    <path clip-path="url(#pda81265581)" d="M 236.241863 167.057202 
Q 222.387074 187.917472 209.150847 207.84641 
" style="fill:none;stroke:#808080;stroke-linecap:round;"/>
    <path clip-path="url(#pda81265581)" d="M 213.029905 205.620896 
L 209.150847 207.84641 
L 209.697871 203.407856 
L 213.029905 205.620896 
z
" style="fill:#808080;stroke:#808080;stroke-linecap:round;"/>
   </g>
   <g id="patch_4">
    <path clip-path="url(#pda81265581)" d="M 249.69307 160.073978 
Q 276.990291 160.800499 303.169874 161.497273 
" style="fill:none;stroke:#808080;stroke-linecap:round;"/>
    <path clip-path="url(#pda81265581)" d="M 299.224502 159.391558 
L 303.169874 161.497273 
L 299.118079 163.390142 
L 299.224502 159.391558 
z
" style="fill:#808080;stroke:#808080;stroke-linecap:round;"/>
   </g>
   <g id="patch_5">
    <path clip-path="url(#pda81265581)" d="M 245.366393 167.343815 
Q 258.667912 190.366375 271.410116 212.420861 
" style="fill:none;stroke:#808080;stroke-linecap:round;"/>
    <path clip-path="url(#pda81265581)" d="M 271.140794 207.956842 
L 271.410116 212.420861 
L 267.677308 209.957907 
L 271.140794 207.956842 
z
" style="fill:#808080;stroke:#808080;stroke-linecap:round;"/>
   </g>
   <g id="patch_6">
    <path clip-path="url(#pda81265581)" d="M 245.463896 152.405235 
Q 258.179023 131.060023 270.321973 110.675338 
" style="fill:none;stroke:#808080;stroke-linecap:round;"/>
    <path clip-path="url(#pda81265581)" d="M 266.556647 113.088286 
L 270.321973 110.675338 
L 269.993136 115.135368 
L 266.556647 113.088286 
z
" style="fill:#808080;stroke:#808080;stroke-linecap:round;"/>
   </g>
   <g id="patch_7">
    <path clip-path="url(#pda81265581)" d="M 100.488068 78.007561 
Q 127.646562 93.744507 153.83769 108.920914 
" style="fill:none;stroke:#808080;stroke-linecap:round;"/>
    <path clip-path="url(#pda81265581)" d="M 151.379459 105.184994 
L 153.83769 108.920914 
L 149.374015 108.645947 
L 151.379459 105.184994 
z
" style="fill:#808080;stroke:#808080;stroke-linecap:round;"/>
   </g>
   <g id="patch_8">
    <path clip-path="url(#pda81265581)" d="M 85.477705 69.362872 
Q 64.622356 57.425396 44.737329 46.043326 
" style="fill:none;stroke:#808080;stroke-linecap:round;"/>
    <path clip-path="url(#pda81265581)" d="M 47.215316 49.766171 
L 44.737329 46.043326 
L 49.202398 46.294643 
L 47.215316 49.766171 
z
" style="fill:#808080;stroke:#808080;stroke-linecap:round;"/>
   </g>
   <g id="patch_9">
    <path clip-path="url(#pda81265581)" d="M 169.776381 118.194291 
Q 201.665503 136.833349 232.589379 154.908226 
" style="fill:none;stroke:#808080;stroke-linecap:round;"/>
    <path clip-path="url(#pda81265581)" d="M 230.145251 151.163064 
L 232.589379 154.908226 
L 228.126773 154.616431 
L 230.145251 151.163064 
z
" style="fill:#808080;stroke:#808080;stroke-linecap:round;"/>
   </g>
   <g id="patch_10">
    <path clip-path="url(#pda81265581)" d="M 154.810211 109.48444 
Q 127.651717 93.747494 101.460589 78.571086 
" style="fill:none;stroke:#808080;stroke-linecap:round;"/>
    <path clip-path="url(#pda81265581)" d="M 103.91882 82.307007 
L 101.460589 78.571086 
L 105.924264 78.846054 
L 103.91882 82.307007 
z
" style="fill:#808080;stroke:#808080;stroke-linecap:round;"/>
   </g>
   <g id="patch_11">
    <path clip-path="url(#pda81265581)" d="M 208.532914 208.776793 
Q 222.387704 187.916523 235.62393 167.987585 
" style="fill:none;stroke:#808080;stroke-linecap:round;"/>
    <path clip-path="url(#pda81265581)" d="M 231.744872 170.213099 
L 235.62393 167.987585 
L 235.076906 172.426139 
L 231.744872 170.213099 
z
" style="fill:#808080;stroke:#808080;stroke-linecap:round;"/>
   </g>
   <g id="patch_12">
    <path clip-path="url(#pda81265581)" d="M 304.287041 161.527007 
Q 276.98982 160.800486 250.810237 160.103712 
" style="fill:none;stroke:#808080;stroke-linecap:round;"/>
    <path clip-path="url(#pda81265581)" d="M 254.755609 162.209427 
L 250.810237 160.103712 
L 254.862032 158.210843 
L 254.755609 162.209427 
z
" style="fill:#808080;stroke:#808080;stroke-linecap:round;"/>
   </g>
   <g id="patch_13">
    <path clip-path="url(#pda81265581)" d="M 43.771859 45.490696 
Q 64.627208 57.428173 84.512235 68.810243 
" style="fill:none;stroke:#808080;stroke-linecap:round;"/>
    <path clip-path="url(#pda81265581)" d="M 82.034248 65.087397 
L 84.512235 68.810243 
L 80.047166 68.558925 
L 82.034248 65.087397 
z
" style="fill:#808080;stroke:#808080;stroke-linecap:round;"/>
   </g>
   <g id="patch_14">
    <path clip-path="url(#pda81265581)" d="M 271.96949 213.389038 
Q 258.667971 190.366478 245.925768 168.311992 
" style="fill:none;stroke:#808080;stroke-linecap:round;"/>
    <path clip-path="url(#pda81265581)" d="M 246.195089 172.776011 
L 245.925768 168.311992 
L 249.658576 170.774947 
L 246.195089 172.776011 
z
" style="fill:#808080;stroke:#808080;stroke-linecap:round;"/>
   </g>
   <g id="patch_15">
    <path clip-path="url(#pda81265581)" d="M 270.893913 109.715207 
Q 258.178787 131.060419 246.035837 151.445104 
" style="fill:none;stroke:#808080;stroke-linecap:round;"/>
    <path clip-path="url(#pda81265581)" d="M 249.801163 149.032156 
L 246.035837 151.445104 
L 246.364674 146.985074 
L 249.801163 149.032156 
z
" style="fill:#808080;stroke:#808080;stroke-linecap:round;"/>
   </g>
   <g id="PathCollection_1">
    <path clip-path="url(#pda81265581)" d="M 241.033004 171.023829 
C 243.998064 171.023829 246.842083 169.845798 248.938698 167.749183 
C 251.035312 165.652569 252.213343 162.80855 252.213343 159.843489 
C 252.213343 156.878428 251.035312 154.034409 248.938698 151.937795 
C 246.842083 149.84118 243.998064 148.663149 241.033004 148.663149 
C 238.067943 148.663149 235.223924 149.84118 233.127309 151.937795 
C 231.030695 154.034409 229.852664 156.878428 229.852664 159.843489 
C 229.852664 162.80855 231.030695 165.652569 233.127309 167.749183 
C 235.223924 169.845798 238.067943 171.023829 241.033004 171.023829 
z
" style="fill:#ffa500;fill-opacity:0.7;stroke:#ffa500;stroke-opacity:0.7;"/>
    <path clip-path="url(#pda81265581)" d="M 92.996671 84.847023 
C 95.961732 84.847023 98.805751 83.668992 100.902365 81.572377 
C 102.99898 79.475762 104.177011 76.631744 104.177011 73.666683 
C 104.177011 70.701622 102.99898 67.857603 100.902365 65.760989 
C 98.805751 63.664374 95.961732 62.486343 92.996671 62.486343 
C 90.03161 62.486343 87.187592 63.664374 85.090977 65.760989 
C 82.994363 67.857603 81.816331 70.701622 81.816331 73.666683 
C 81.816331 76.631744 82.994363 79.475762 85.090977 81.572377 
C 87.187592 83.668992 90.03161 84.847023 92.996671 84.847023 
z
" style="fill:#ffa500;fill-opacity:0.7;stroke:#ffa500;stroke-opacity:0.7;"/>
    <path clip-path="url(#pda81265581)" d="M 162.301607 120.896385 
C 164.176876 120.896385 165.975592 120.151333 167.301607 118.825317 
C 168.627623 117.499302 169.372675 115.700587 169.372675 113.825317 
C 169.372675 111.950048 168.627623 110.151333 167.301607 108.825317 
C 165.975592 107.499302 164.176876 106.75425 162.301607 106.75425 
C 160.426338 106.75425 158.627623 107.499302 157.301607 108.825317 
C 155.975592 110.151333 155.230539 111.950048 155.230539 113.825317 
C 155.230539 115.700587 155.975592 117.499302 157.301607 118.825317 
C 158.627623 120.151333 160.426338 120.896385 162.301607 120.896385 
z
" style="fill:#808080;fill-opacity:0.7;stroke:#808080;stroke-opacity:0.7;"/>
    <path clip-path="url(#pda81265581)" d="M 203.741774 223.061574 
C 205.617043 223.061574 207.415758 222.316522 208.741774 220.990506 
C 210.067789 219.664491 210.812841 217.865775 210.812841 215.990506 
C 210.812841 214.115237 210.067789 212.316522 208.741774 210.990506 
C 207.415758 209.664491 205.617043 208.919438 203.741774 208.919438 
C 201.866505 208.919438 200.067789 209.664491 198.741774 210.990506 
C 197.415758 212.316522 196.670706 214.115237 196.670706 215.990506 
C 196.670706 217.865775 197.415758 219.664491 198.741774 220.990506 
C 200.067789 222.316522 201.866505 223.061574 203.741774 223.061574 
z
" style="fill:#808080;fill-opacity:0.7;stroke:#808080;stroke-opacity:0.7;"/>
    <path clip-path="url(#pda81265581)" d="M 312.947107 168.828564 
C 314.822377 168.828564 316.621092 168.083511 317.947107 166.757496 
C 319.273123 165.43148 320.018175 163.632765 320.018175 161.757496 
C 320.018175 159.882227 319.273123 158.083511 317.947107 156.757496 
C 316.621092 155.43148 314.822377 154.686428 312.947107 154.686428 
C 311.071838 154.686428 309.273123 155.43148 307.947107 156.757496 
C 306.621092 158.083511 305.87604 159.882227 305.87604 161.757496 
C 305.87604 163.632765 306.621092 165.43148 307.947107 166.757496 
C 309.273123 168.083511 311.071838 168.828564 312.947107 168.828564 
z
" style="fill:#808080;fill-opacity:0.7;stroke:#808080;stroke-opacity:0.7;"/>
    <path clip-path="url(#pda81265581)" d="M 36.252893 48.257953 
C 38.128162 48.257953 39.926877 47.512901 41.252893 46.186885 
C 42.578908 44.86087 43.32396 43.062154 43.32396 41.186885 
C 43.32396 39.311616 42.578908 37.512901 41.252893 36.186885 
C 39.926877 34.86087 38.128162 34.115818 36.252893 34.115818 
C 34.377623 34.115818 32.578908 34.86087 31.252893 36.186885 
C 29.926877 37.512901 29.181825 39.311616 29.181825 41.186885 
C 29.181825 43.062154 29.926877 44.86087 31.252893 46.186885 
C 32.578908 47.512901 34.377623 48.257953 36.252893 48.257953 
z
" style="fill:#808080;fill-opacity:0.7;stroke:#808080;stroke-opacity:0.7;"/>
    <path clip-path="url(#pda81265581)" d="M 276.30288 227.960432 
C 278.178149 227.960432 279.976864 227.21538 281.30288 225.889365 
C 282.628895 224.563349 283.373948 222.764634 283.373948 220.889365 
C 283.373948 219.014096 282.628895 217.21538 281.30288 215.889365 
C 279.976864 214.563349 278.178149 213.818297 276.30288 213.818297 
C 274.427611 213.818297 272.628895 214.563349 271.30288 215.889365 
C 269.976864 217.21538 269.231812 219.014096 269.231812 220.889365 
C 269.231812 222.764634 269.976864 224.563349 271.30288 225.889365 
C 272.628895 227.21538 274.427611 227.960432 276.30288 227.960432 
z
" style="fill:#808080;fill-opacity:0.7;stroke:#808080;stroke-opacity:0.7;"/>
    <path clip-path="url(#pda81265581)" d="M 275.324806 109.348021 
C 277.200075 109.348021 278.998791 108.602969 280.324806 107.276953 
C 281.650822 105.950938 282.395874 104.152222 282.395874 102.276953 
C 282.395874 100.401684 281.650822 98.602969 280.324806 97.276953 
C 278.998791 95.950938 277.200075 95.205885 275.324806 95.205885 
C 273.449537 95.205885 271.650822 95.950938 270.324806 97.276953 
C 268.998791 98.602969 268.253738 100.401684 268.253738 102.276953 
C 268.253738 104.152222 268.998791 105.950938 270.324806 107.276953 
C 271.650822 108.602969 273.449537 109.348021 275.324806 109.348021 
z
" style="fill:#808080;fill-opacity:0.7;stroke:#808080;stroke-opacity:0.7;"/>
   </g>
   <g id="text_1">
    <g clip-path="url(#pda81265581)">
     <!-- green sources -->
     <g transform="translate(212.845504 162.050989)scale(0.08 -0.08)">
      <defs>
       <path d="M 45.40625 27.984375 
Q 45.40625 37.75 41.375 43.109375 
Q 37.359375 48.484375 30.078125 48.484375 
Q 22.859375 48.484375 18.828125 43.109375 
Q 14.796875 37.75 14.796875 27.984375 
Q 14.796875 18.265625 18.828125 12.890625 
Q 22.859375 7.515625 30.078125 7.515625 
Q 37.359375 7.515625 41.375 12.890625 
Q 45.40625 18.265625 45.40625 27.984375 
z
M 54.390625 6.78125 
Q 54.390625 -7.171875 48.1875 -13.984375 
Q 42 -20.796875 29.203125 -20.796875 
Q 24.46875 -20.796875 20.265625 -20.09375 
Q 16.0625 -19.390625 12.109375 -17.921875 
L 12.109375 -9.1875 
Q 16.0625 -11.328125 19.921875 -12.34375 
Q 23.78125 -13.375 27.78125 -13.375 
Q 36.625 -13.375 41.015625 -8.765625 
Q 45.40625 -4.15625 45.40625 5.171875 
L 45.40625 9.625 
Q 42.625 4.78125 38.28125 2.390625 
Q 33.9375 0 27.875 0 
Q 17.828125 0 11.671875 7.65625 
Q 5.515625 15.328125 5.515625 27.984375 
Q 5.515625 40.671875 11.671875 48.328125 
Q 17.828125 56 27.875 56 
Q 33.9375 56 38.28125 53.609375 
Q 42.625 51.21875 45.40625 46.390625 
L 45.40625 54.6875 
L 54.390625 54.6875 
z
" id="DejaVuSans-103"/>
       <path d="M 41.109375 46.296875 
Q 39.59375 47.171875 37.8125 47.578125 
Q 36.03125 48 33.890625 48 
Q 26.265625 48 22.1875 43.046875 
Q 18.109375 38.09375 18.109375 28.8125 
L 18.109375 0 
L 9.078125 0 
L 9.078125 54.6875 
L 18.109375 54.6875 
L 18.109375 46.1875 
Q 20.953125 51.171875 25.484375 53.578125 
Q 30.03125 56 36.53125 56 
Q 37.453125 56 38.578125 55.875 
Q 39.703125 55.765625 41.0625 55.515625 
z
" id="DejaVuSans-114"/>
       <path d="M 56.203125 29.59375 
L 56.203125 25.203125 
L 14.890625 25.203125 
Q 15.484375 15.921875 20.484375 11.0625 
Q 25.484375 6.203125 34.421875 6.203125 
Q 39.59375 6.203125 44.453125 7.46875 
Q 49.3125 8.734375 54.109375 11.28125 
L 54.109375 2.78125 
Q 49.265625 0.734375 44.1875 -0.34375 
Q 39.109375 -1.421875 33.890625 -1.421875 
Q 20.796875 -1.421875 13.15625 6.1875 
Q 5.515625 13.8125 5.515625 26.8125 
Q 5.515625 40.234375 12.765625 48.109375 
Q 20.015625 56 32.328125 56 
Q 43.359375 56 49.78125 48.890625 
Q 56.203125 41.796875 56.203125 29.59375 
z
M 47.21875 32.234375 
Q 47.125 39.59375 43.09375 43.984375 
Q 39.0625 48.390625 32.421875 48.390625 
Q 24.90625 48.390625 20.390625 44.140625 
Q 15.875 39.890625 15.1875 32.171875 
z
" id="DejaVuSans-101"/>
       <path d="M 54.890625 33.015625 
L 54.890625 0 
L 45.90625 0 
L 45.90625 32.71875 
Q 45.90625 40.484375 42.875 44.328125 
Q 39.84375 48.1875 33.796875 48.1875 
Q 26.515625 48.1875 22.3125 43.546875 
Q 18.109375 38.921875 18.109375 30.90625 
L 18.109375 0 
L 9.078125 0 
L 9.078125 54.6875 
L 18.109375 54.6875 
L 18.109375 46.1875 
Q 21.34375 51.125 25.703125 53.5625 
Q 30.078125 56 35.796875 56 
Q 45.21875 56 50.046875 50.171875 
Q 54.890625 44.34375 54.890625 33.015625 
z
" id="DejaVuSans-110"/>
       <path id="DejaVuSans-32"/>
       <path d="M 44.28125 53.078125 
L 44.28125 44.578125 
Q 40.484375 46.53125 36.375 47.5 
Q 32.28125 48.484375 27.875 48.484375 
Q 21.1875 48.484375 17.84375 46.4375 
Q 14.5 44.390625 14.5 40.28125 
Q 14.5 37.15625 16.890625 35.375 
Q 19.28125 33.59375 26.515625 31.984375 
L 29.59375 31.296875 
Q 39.15625 29.25 43.1875 25.515625 
Q 47.21875 21.78125 47.21875 15.09375 
Q 47.21875 7.46875 41.1875 3.015625 
Q 35.15625 -1.421875 24.609375 -1.421875 
Q 20.21875 -1.421875 15.453125 -0.5625 
Q 10.6875 0.296875 5.421875 2 
L 5.421875 11.28125 
Q 10.40625 8.6875 15.234375 7.390625 
Q 20.0625 6.109375 24.8125 6.109375 
Q 31.15625 6.109375 34.5625 8.28125 
Q 37.984375 10.453125 37.984375 14.40625 
Q 37.984375 18.0625 35.515625 20.015625 
Q 33.0625 21.96875 24.703125 23.78125 
L 21.578125 24.515625 
Q 13.234375 26.265625 9.515625 29.90625 
Q 5.8125 33.546875 5.8125 39.890625 
Q 5.8125 47.609375 11.28125 51.796875 
Q 16.75 56 26.8125 56 
Q 31.78125 56 36.171875 55.265625 
Q 40.578125 54.546875 44.28125 53.078125 
z
" id="DejaVuSans-115"/>
       <path d="M 30.609375 48.390625 
Q 23.390625 48.390625 19.1875 42.75 
Q 14.984375 37.109375 14.984375 27.296875 
Q 14.984375 17.484375 19.15625 11.84375 
Q 23.34375 6.203125 30.609375 6.203125 
Q 37.796875 6.203125 41.984375 11.859375 
Q 46.1875 17.53125 46.1875 27.296875 
Q 46.1875 37.015625 41.984375 42.703125 
Q 37.796875 48.390625 30.609375 48.390625 
z
M 30.609375 56 
Q 42.328125 56 49.015625 48.375 
Q 55.71875 40.765625 55.71875 27.296875 
Q 55.71875 13.875 49.015625 6.21875 
Q 42.328125 -1.421875 30.609375 -1.421875 
Q 18.84375 -1.421875 12.171875 6.21875 
Q 5.515625 13.875 5.515625 27.296875 
Q 5.515625 40.765625 12.171875 48.375 
Q 18.84375 56 30.609375 56 
z
" id="DejaVuSans-111"/>
       <path d="M 8.5 21.578125 
L 8.5 54.6875 
L 17.484375 54.6875 
L 17.484375 21.921875 
Q 17.484375 14.15625 20.5 10.265625 
Q 23.53125 6.390625 29.59375 6.390625 
Q 36.859375 6.390625 41.078125 11.03125 
Q 45.3125 15.671875 45.3125 23.6875 
L 45.3125 54.6875 
L 54.296875 54.6875 
L 54.296875 0 
L 45.3125 0 
L 45.3125 8.40625 
Q 42.046875 3.421875 37.71875 1 
Q 33.40625 -1.421875 27.6875 -1.421875 
Q 18.265625 -1.421875 13.375 4.4375 
Q 8.5 10.296875 8.5 21.578125 
z
M 31.109375 56 
z
" id="DejaVuSans-117"/>
       <path d="M 48.78125 52.59375 
L 48.78125 44.1875 
Q 44.96875 46.296875 41.140625 47.34375 
Q 37.3125 48.390625 33.40625 48.390625 
Q 24.65625 48.390625 19.8125 42.84375 
Q 14.984375 37.3125 14.984375 27.296875 
Q 14.984375 17.28125 19.8125 11.734375 
Q 24.65625 6.203125 33.40625 6.203125 
Q 37.3125 6.203125 41.140625 7.25 
Q 44.96875 8.296875 48.78125 10.40625 
L 48.78125 2.09375 
Q 45.015625 0.34375 40.984375 -0.53125 
Q 36.96875 -1.421875 32.421875 -1.421875 
Q 20.0625 -1.421875 12.78125 6.34375 
Q 5.515625 14.109375 5.515625 27.296875 
Q 5.515625 40.671875 12.859375 48.328125 
Q 20.21875 56 33.015625 56 
Q 37.15625 56 41.109375 55.140625 
Q 45.0625 54.296875 48.78125 52.59375 
z
" id="DejaVuSans-99"/>
      </defs>
      <use xlink:href="#DejaVuSans-103"/>
      <use x="63.476562" xlink:href="#DejaVuSans-114"/>
      <use x="102.339844" xlink:href="#DejaVuSans-101"/>
      <use x="163.863281" xlink:href="#DejaVuSans-101"/>
      <use x="225.386719" xlink:href="#DejaVuSans-110"/>
      <use x="288.765625" xlink:href="#DejaVuSans-32"/>
      <use x="320.552734" xlink:href="#DejaVuSans-115"/>
      <use x="372.652344" xlink:href="#DejaVuSans-111"/>
      <use x="433.833984" xlink:href="#DejaVuSans-117"/>
      <use x="497.212891" xlink:href="#DejaVuSans-114"/>
      <use x="536.076172" xlink:href="#DejaVuSans-99"/>
      <use x="591.056641" xlink:href="#DejaVuSans-101"/>
      <use x="652.580078" xlink:href="#DejaVuSans-115"/>
     </g>
    </g>
   </g>
   <g id="text_2">
    <g clip-path="url(#pda81265581)">
     <!-- grey sources -->
     <g transform="translate(67.437921 75.874183)scale(0.08 -0.08)">
      <defs>
       <path d="M 32.171875 -5.078125 
Q 28.375 -14.84375 24.75 -17.8125 
Q 21.140625 -20.796875 15.09375 -20.796875 
L 7.90625 -20.796875 
L 7.90625 -13.28125 
L 13.1875 -13.28125 
Q 16.890625 -13.28125 18.9375 -11.515625 
Q 21 -9.765625 23.484375 -3.21875 
L 25.09375 0.875 
L 2.984375 54.6875 
L 12.5 54.6875 
L 29.59375 11.921875 
L 46.6875 54.6875 
L 56.203125 54.6875 
z
" id="DejaVuSans-121"/>
      </defs>
      <use xlink:href="#DejaVuSans-103"/>
      <use x="63.476562" xlink:href="#DejaVuSans-114"/>
      <use x="102.339844" xlink:href="#DejaVuSans-101"/>
      <use x="163.863281" xlink:href="#DejaVuSans-121"/>
      <use x="223.042969" xlink:href="#DejaVuSans-32"/>
      <use x="254.830078" xlink:href="#DejaVuSans-115"/>
      <use x="306.929688" xlink:href="#DejaVuSans-111"/>
      <use x="368.111328" xlink:href="#DejaVuSans-117"/>
      <use x="431.490234" xlink:href="#DejaVuSans-114"/>
      <use x="470.353516" xlink:href="#DejaVuSans-99"/>
      <use x="525.333984" xlink:href="#DejaVuSans-101"/>
      <use x="586.857422" xlink:href="#DejaVuSans-115"/>
     </g>
    </g>
   </g>
   <g id="text_3">
    <g clip-path="url(#pda81265581)">
     <!-- downstream -->
     <g transform="translate(137.493482 116.032817)scale(0.08 -0.08)">
      <defs>
       <path d="M 45.40625 46.390625 
L 45.40625 75.984375 
L 54.390625 75.984375 
L 54.390625 0 
L 45.40625 0 
L 45.40625 8.203125 
Q 42.578125 3.328125 38.25 0.953125 
Q 33.9375 -1.421875 27.875 -1.421875 
Q 17.96875 -1.421875 11.734375 6.484375 
Q 5.515625 14.40625 5.515625 27.296875 
Q 5.515625 40.1875 11.734375 48.09375 
Q 17.96875 56 27.875 56 
Q 33.9375 56 38.25 53.625 
Q 42.578125 51.265625 45.40625 46.390625 
z
M 14.796875 27.296875 
Q 14.796875 17.390625 18.875 11.75 
Q 22.953125 6.109375 30.078125 6.109375 
Q 37.203125 6.109375 41.296875 11.75 
Q 45.40625 17.390625 45.40625 27.296875 
Q 45.40625 37.203125 41.296875 42.84375 
Q 37.203125 48.484375 30.078125 48.484375 
Q 22.953125 48.484375 18.875 42.84375 
Q 14.796875 37.203125 14.796875 27.296875 
z
" id="DejaVuSans-100"/>
       <path d="M 4.203125 54.6875 
L 13.1875 54.6875 
L 24.421875 12.015625 
L 35.59375 54.6875 
L 46.1875 54.6875 
L 57.421875 12.015625 
L 68.609375 54.6875 
L 77.59375 54.6875 
L 63.28125 0 
L 52.6875 0 
L 40.921875 44.828125 
L 29.109375 0 
L 18.5 0 
z
" id="DejaVuSans-119"/>
       <path d="M 18.3125 70.21875 
L 18.3125 54.6875 
L 36.8125 54.6875 
L 36.8125 47.703125 
L 18.3125 47.703125 
L 18.3125 18.015625 
Q 18.3125 11.328125 20.140625 9.421875 
Q 21.96875 7.515625 27.59375 7.515625 
L 36.8125 7.515625 
L 36.8125 0 
L 27.59375 0 
Q 17.1875 0 13.234375 3.875 
Q 9.28125 7.765625 9.28125 18.015625 
L 9.28125 47.703125 
L 2.6875 47.703125 
L 2.6875 54.6875 
L 9.28125 54.6875 
L 9.28125 70.21875 
z
" id="DejaVuSans-116"/>
       <path d="M 34.28125 27.484375 
Q 23.390625 27.484375 19.1875 25 
Q 14.984375 22.515625 14.984375 16.5 
Q 14.984375 11.71875 18.140625 8.90625 
Q 21.296875 6.109375 26.703125 6.109375 
Q 34.1875 6.109375 38.703125 11.40625 
Q 43.21875 16.703125 43.21875 25.484375 
L 43.21875 27.484375 
z
M 52.203125 31.203125 
L 52.203125 0 
L 43.21875 0 
L 43.21875 8.296875 
Q 40.140625 3.328125 35.546875 0.953125 
Q 30.953125 -1.421875 24.3125 -1.421875 
Q 15.921875 -1.421875 10.953125 3.296875 
Q 6 8.015625 6 15.921875 
Q 6 25.140625 12.171875 29.828125 
Q 18.359375 34.515625 30.609375 34.515625 
L 43.21875 34.515625 
L 43.21875 35.40625 
Q 43.21875 41.609375 39.140625 45 
Q 35.0625 48.390625 27.6875 48.390625 
Q 23 48.390625 18.546875 47.265625 
Q 14.109375 46.140625 10.015625 43.890625 
L 10.015625 52.203125 
Q 14.9375 54.109375 19.578125 55.046875 
Q 24.21875 56 28.609375 56 
Q 40.484375 56 46.34375 49.84375 
Q 52.203125 43.703125 52.203125 31.203125 
z
" id="DejaVuSans-97"/>
       <path d="M 52 44.1875 
Q 55.375 50.25 60.0625 53.125 
Q 64.75 56 71.09375 56 
Q 79.640625 56 84.28125 50.015625 
Q 88.921875 44.046875 88.921875 33.015625 
L 88.921875 0 
L 79.890625 0 
L 79.890625 32.71875 
Q 79.890625 40.578125 77.09375 44.375 
Q 74.3125 48.1875 68.609375 48.1875 
Q 61.625 48.1875 57.5625 43.546875 
Q 53.515625 38.921875 53.515625 30.90625 
L 53.515625 0 
L 44.484375 0 
L 44.484375 32.71875 
Q 44.484375 40.625 41.703125 44.40625 
Q 38.921875 48.1875 33.109375 48.1875 
Q 26.21875 48.1875 22.15625 43.53125 
Q 18.109375 38.875 18.109375 30.90625 
L 18.109375 0 
L 9.078125 0 
L 9.078125 54.6875 
L 18.109375 54.6875 
L 18.109375 46.1875 
Q 21.1875 51.21875 25.484375 53.609375 
Q 29.78125 56 35.6875 56 
Q 41.65625 56 45.828125 52.96875 
Q 50 49.953125 52 44.1875 
z
" id="DejaVuSans-109"/>
      </defs>
      <use xlink:href="#DejaVuSans-100"/>
      <use x="63.476562" xlink:href="#DejaVuSans-111"/>
      <use x="124.658203" xlink:href="#DejaVuSans-119"/>
      <use x="206.445312" xlink:href="#DejaVuSans-110"/>
      <use x="269.824219" xlink:href="#DejaVuSans-115"/>
      <use x="321.923828" xlink:href="#DejaVuSans-116"/>
      <use x="361.132812" xlink:href="#DejaVuSans-114"/>
      <use x="399.996094" xlink:href="#DejaVuSans-101"/>
      <use x="461.519531" xlink:href="#DejaVuSans-97"/>
      <use x="522.798828" xlink:href="#DejaVuSans-109"/>
     </g>
    </g>
   </g>
   <g id="text_4">
    <g clip-path="url(#pda81265581)">
     <!-- wind -->
     <g transform="translate(194.284899 218.198006)scale(0.08 -0.08)">
      <defs>
       <path d="M 9.421875 54.6875 
L 18.40625 54.6875 
L 18.40625 0 
L 9.421875 0 
z
M 9.421875 75.984375 
L 18.40625 75.984375 
L 18.40625 64.59375 
L 9.421875 64.59375 
z
" id="DejaVuSans-105"/>
      </defs>
      <use xlink:href="#DejaVuSans-119"/>
      <use x="81.787109" xlink:href="#DejaVuSans-105"/>
      <use x="109.570312" xlink:href="#DejaVuSans-110"/>
      <use x="172.949219" xlink:href="#DejaVuSans-100"/>
     </g>
    </g>
   </g>
   <g id="text_5">
    <g clip-path="url(#pda81265581)">
     <!-- PV -->
     <g transform="translate(307.798982 163.964996)scale(0.08 -0.08)">
      <defs>
       <path d="M 19.671875 64.796875 
L 19.671875 37.40625 
L 32.078125 37.40625 
Q 38.96875 37.40625 42.71875 40.96875 
Q 46.484375 44.53125 46.484375 51.125 
Q 46.484375 57.671875 42.71875 61.234375 
Q 38.96875 64.796875 32.078125 64.796875 
z
M 9.8125 72.90625 
L 32.078125 72.90625 
Q 44.34375 72.90625 50.609375 67.359375 
Q 56.890625 61.8125 56.890625 51.125 
Q 56.890625 40.328125 50.609375 34.8125 
Q 44.34375 29.296875 32.078125 29.296875 
L 19.671875 29.296875 
L 19.671875 0 
L 9.8125 0 
z
" id="DejaVuSans-80"/>
       <path d="M 28.609375 0 
L 0.78125 72.90625 
L 11.078125 72.90625 
L 34.1875 11.53125 
L 57.328125 72.90625 
L 67.578125 72.90625 
L 39.796875 0 
z
" id="DejaVuSans-86"/>
      </defs>
      <use xlink:href="#DejaVuSans-80"/>
      <use x="60.302734" xlink:href="#DejaVuSans-86"/>
     </g>
    </g>
   </g>
   <g id="text_6">
    <g clip-path="url(#pda81265581)">
     <!-- spot market -->
     <g transform="translate(12.150393 43.394385)scale(0.08 -0.08)">
      <defs>
       <path d="M 18.109375 8.203125 
L 18.109375 -20.796875 
L 9.078125 -20.796875 
L 9.078125 54.6875 
L 18.109375 54.6875 
L 18.109375 46.390625 
Q 20.953125 51.265625 25.265625 53.625 
Q 29.59375 56 35.59375 56 
Q 45.5625 56 51.78125 48.09375 
Q 58.015625 40.1875 58.015625 27.296875 
Q 58.015625 14.40625 51.78125 6.484375 
Q 45.5625 -1.421875 35.59375 -1.421875 
Q 29.59375 -1.421875 25.265625 0.953125 
Q 20.953125 3.328125 18.109375 8.203125 
z
M 48.6875 27.296875 
Q 48.6875 37.203125 44.609375 42.84375 
Q 40.53125 48.484375 33.40625 48.484375 
Q 26.265625 48.484375 22.1875 42.84375 
Q 18.109375 37.203125 18.109375 27.296875 
Q 18.109375 17.390625 22.1875 11.75 
Q 26.265625 6.109375 33.40625 6.109375 
Q 40.53125 6.109375 44.609375 11.75 
Q 48.6875 17.390625 48.6875 27.296875 
z
" id="DejaVuSans-112"/>
       <path d="M 9.078125 75.984375 
L 18.109375 75.984375 
L 18.109375 31.109375 
L 44.921875 54.6875 
L 56.390625 54.6875 
L 27.390625 29.109375 
L 57.625 0 
L 45.90625 0 
L 18.109375 26.703125 
L 18.109375 0 
L 9.078125 0 
z
" id="DejaVuSans-107"/>
      </defs>
      <use xlink:href="#DejaVuSans-115"/>
      <use x="52.099609" xlink:href="#DejaVuSans-112"/>
      <use x="115.576172" xlink:href="#DejaVuSans-111"/>
      <use x="176.757812" xlink:href="#DejaVuSans-116"/>
      <use x="215.966797" xlink:href="#DejaVuSans-32"/>
      <use x="247.753906" xlink:href="#DejaVuSans-109"/>
      <use x="345.166016" xlink:href="#DejaVuSans-97"/>
      <use x="406.445312" xlink:href="#DejaVuSans-114"/>
      <use x="447.558594" xlink:href="#DejaVuSans-107"/>
      <use x="501.84375" xlink:href="#DejaVuSans-101"/>
      <use x="563.367188" xlink:href="#DejaVuSans-116"/>
     </g>
    </g>
   </g>
   <g id="text_7">
    <g clip-path="url(#pda81265581)">
     <!-- green sales -->
     <g transform="translate(253.28913 223.096865)scale(0.08 -0.08)">
      <defs>
       <path d="M 9.421875 75.984375 
L 18.40625 75.984375 
L 18.40625 0 
L 9.421875 0 
z
" id="DejaVuSans-108"/>
      </defs>
      <use xlink:href="#DejaVuSans-103"/>
      <use x="63.476562" xlink:href="#DejaVuSans-114"/>
      <use x="102.339844" xlink:href="#DejaVuSans-101"/>
      <use x="163.863281" xlink:href="#DejaVuSans-101"/>
      <use x="225.386719" xlink:href="#DejaVuSans-110"/>
      <use x="288.765625" xlink:href="#DejaVuSans-32"/>
      <use x="320.552734" xlink:href="#DejaVuSans-115"/>
      <use x="372.652344" xlink:href="#DejaVuSans-97"/>
      <use x="433.931641" xlink:href="#DejaVuSans-108"/>
      <use x="461.714844" xlink:href="#DejaVuSans-101"/>
      <use x="523.238281" xlink:href="#DejaVuSans-115"/>
     </g>
    </g>
   </g>
   <g id="text_8">
    <g clip-path="url(#pda81265581)">
     <!-- battery -->
     <g transform="translate(260.724806 104.484453)scale(0.08 -0.08)">
      <defs>
       <path d="M 48.6875 27.296875 
Q 48.6875 37.203125 44.609375 42.84375 
Q 40.53125 48.484375 33.40625 48.484375 
Q 26.265625 48.484375 22.1875 42.84375 
Q 18.109375 37.203125 18.109375 27.296875 
Q 18.109375 17.390625 22.1875 11.75 
Q 26.265625 6.109375 33.40625 6.109375 
Q 40.53125 6.109375 44.609375 11.75 
Q 48.6875 17.390625 48.6875 27.296875 
z
M 18.109375 46.390625 
Q 20.953125 51.265625 25.265625 53.625 
Q 29.59375 56 35.59375 56 
Q 45.5625 56 51.78125 48.09375 
Q 58.015625 40.1875 58.015625 27.296875 
Q 58.015625 14.40625 51.78125 6.484375 
Q 45.5625 -1.421875 35.59375 -1.421875 
Q 29.59375 -1.421875 25.265625 0.953125 
Q 20.953125 3.328125 18.109375 8.203125 
L 18.109375 0 
L 9.078125 0 
L 9.078125 75.984375 
L 18.109375 75.984375 
z
" id="DejaVuSans-98"/>
      </defs>
      <use xlink:href="#DejaVuSans-98"/>
      <use x="63.476562" xlink:href="#DejaVuSans-97"/>
      <use x="124.755859" xlink:href="#DejaVuSans-116"/>
      <use x="163.964844" xlink:href="#DejaVuSans-116"/>
      <use x="203.173828" xlink:href="#DejaVuSans-101"/>
      <use x="264.697266" xlink:href="#DejaVuSans-114"/>
      <use x="305.810547" xlink:href="#DejaVuSans-121"/>
     </g>
    </g>
   </g>
   <g id="text_9">
    <!-- Complete portfolio with downstream contract -->
    <g transform="translate(38.1075 16.318125)scale(0.12 -0.12)">
     <defs>
      <path d="M 64.40625 67.28125 
L 64.40625 56.890625 
Q 59.421875 61.53125 53.78125 63.8125 
Q 48.140625 66.109375 41.796875 66.109375 
Q 29.296875 66.109375 22.65625 58.46875 
Q 16.015625 50.828125 16.015625 36.375 
Q 16.015625 21.96875 22.65625 14.328125 
Q 29.296875 6.6875 41.796875 6.6875 
Q 48.140625 6.6875 53.78125 8.984375 
Q 59.421875 11.28125 64.40625 15.921875 
L 64.40625 5.609375 
Q 59.234375 2.09375 53.4375 0.328125 
Q 47.65625 -1.421875 41.21875 -1.421875 
Q 24.65625 -1.421875 15.125 8.703125 
Q 5.609375 18.84375 5.609375 36.375 
Q 5.609375 53.953125 15.125 64.078125 
Q 24.65625 74.21875 41.21875 74.21875 
Q 47.75 74.21875 53.53125 72.484375 
Q 59.328125 70.75 64.40625 67.28125 
z
" id="DejaVuSans-67"/>
      <path d="M 37.109375 75.984375 
L 37.109375 68.5 
L 28.515625 68.5 
Q 23.6875 68.5 21.796875 66.546875 
Q 19.921875 64.59375 19.921875 59.515625 
L 19.921875 54.6875 
L 34.71875 54.6875 
L 34.71875 47.703125 
L 19.921875 47.703125 
L 19.921875 0 
L 10.890625 0 
L 10.890625 47.703125 
L 2.296875 47.703125 
L 2.296875 54.6875 
L 10.890625 54.6875 
L 10.890625 58.5 
Q 10.890625 67.625 15.140625 71.796875 
Q 19.390625 75.984375 28.609375 75.984375 
z
" id="DejaVuSans-102"/>
      <path d="M 54.890625 33.015625 
L 54.890625 0 
L 45.90625 0 
L 45.90625 32.71875 
Q 45.90625 40.484375 42.875 44.328125 
Q 39.84375 48.1875 33.796875 48.1875 
Q 26.515625 48.1875 22.3125 43.546875 
Q 18.109375 38.921875 18.109375 30.90625 
L 18.109375 0 
L 9.078125 0 
L 9.078125 75.984375 
L 18.109375 75.984375 
L 18.109375 46.1875 
Q 21.34375 51.125 25.703125 53.5625 
Q 30.078125 56 35.796875 56 
Q 45.21875 56 50.046875 50.171875 
Q 54.890625 44.34375 54.890625 33.015625 
z
" id="DejaVuSans-104"/>
     </defs>
     <use xlink:href="#DejaVuSans-67"/>
     <use x="69.824219" xlink:href="#DejaVuSans-111"/>
     <use x="131.005859" xlink:href="#DejaVuSans-109"/>
     <use x="228.417969" xlink:href="#DejaVuSans-112"/>
     <use x="291.894531" xlink:href="#DejaVuSans-108"/>
     <use x="319.677734" xlink:href="#DejaVuSans-101"/>
     <use x="381.201172" xlink:href="#DejaVuSans-116"/>
     <use x="420.410156" xlink:href="#DejaVuSans-101"/>
     <use x="481.933594" xlink:href="#DejaVuSans-32"/>
     <use x="513.720703" xlink:href="#DejaVuSans-112"/>
     <use x="577.197266" xlink:href="#DejaVuSans-111"/>
     <use x="638.378906" xlink:href="#DejaVuSans-114"/>
     <use x="679.492188" xlink:href="#DejaVuSans-116"/>
     <use x="718.701172" xlink:href="#DejaVuSans-102"/>
     <use x="753.90625" xlink:href="#DejaVuSans-111"/>
     <use x="815.087891" xlink:href="#DejaVuSans-108"/>
     <use x="842.871094" xlink:href="#DejaVuSans-105"/>
     <use x="870.654297" xlink:href="#DejaVuSans-111"/>
     <use x="931.835938" xlink:href="#DejaVuSans-32"/>
     <use x="963.623047" xlink:href="#DejaVuSans-119"/>
     <use x="1045.410156" xlink:href="#DejaVuSans-105"/>
     <use x="1073.193359" xlink:href="#DejaVuSans-116"/>
     <use x="1112.402344" xlink:href="#DejaVuSans-104"/>
     <use x="1175.78125" xlink:href="#DejaVuSans-32"/>
     <use x="1207.568359" xlink:href="#DejaVuSans-100"/>
     <use x="1271.044922" xlink:href="#DejaVuSans-111"/>
     <use x="1332.226562" xlink:href="#DejaVuSans-119"/>
     <use x="1414.013672" xlink:href="#DejaVuSans-110"/>
     <use x="1477.392578" xlink:href="#DejaVuSans-115"/>
     <use x="1529.492188" xlink:href="#DejaVuSans-116"/>
     <use x="1568.701172" xlink:href="#DejaVuSans-114"/>
     <use x="1607.564453" xlink:href="#DejaVuSans-101"/>
     <use x="1669.087891" xlink:href="#DejaVuSans-97"/>
     <use x="1730.367188" xlink:href="#DejaVuSans-109"/>
     <use x="1827.779297" xlink:href="#DejaVuSans-32"/>
     <use x="1859.566406" xlink:href="#DejaVuSans-99"/>
     <use x="1914.546875" xlink:href="#DejaVuSans-111"/>
     <use x="1975.728516" xlink:href="#DejaVuSans-110"/>
     <use x="2039.107422" xlink:href="#DejaVuSans-116"/>
     <use x="2078.316406" xlink:href="#DejaVuSans-114"/>
     <use x="2119.429688" xlink:href="#DejaVuSans-97"/>
     <use x="2180.708984" xlink:href="#DejaVuSans-99"/>
     <use x="2235.689453" xlink:href="#DejaVuSans-116"/>
    </g>
   </g>
  </g>
 </g>
 <defs>
  <clipPath id="pda81265581">
   <rect height="217.44" width="334.8" x="7.2" y="22.318125"/>
  </clipPath>
 </defs>
</svg>
