<?xml version="1.0" encoding="utf-8" standalone="no"?>
<!DOCTYPE svg PUBLIC "-//W3C//DTD SVG 1.1//EN"
  "http://www.w3.org/Graphics/SVG/1.1/DTD/svg11.dtd">
<!-- Created with matplotlib (https://matplotlib.org/) -->
<svg height="246.958125pt" version="1.1" viewBox="0 0 349.2 246.958125" width="349.2pt" xmlns="http://www.w3.org/2000/svg" xmlns:xlink="http://www.w3.org/1999/xlink">
 <metadata>
  <rdf:RDF xmlns:cc="http://creativecommons.org/ns#" xmlns:dc="http://purl.org/dc/elements/1.1/" xmlns:rdf="http://www.w3.org/1999/02/22-rdf-syntax-ns#">
   <cc:Work>
    <dc:type rdf:resource="http://purl.org/dc/dcmitype/StillImage"/>
    <dc:date>2021-04-27T11:29:15.910494</dc:date>
    <dc:format>image/svg+xml</dc:format>
    <dc:creator>
     <cc:Agent>
      <dc:title>Matplotlib v3.3.4, https://matplotlib.org/</dc:title>
     </cc:Agent>
    </dc:creator>
   </cc:Work>
  </rdf:RDF>
 </metadata>
 <defs>
  <style type="text/css">*{stroke-linecap:butt;stroke-linejoin:round;}</style>
 </defs>
 <g id="figure_1">
  <g id="patch_1">
   <path d="M 0 246.958125 
L 349.2 246.958125 
L 349.2 0 
L 0 0 
z
" style="fill:none;"/>
  </g>
  <g id="axes_1">
   <g id="patch_2">
    <path clip-path="url(#p0591d68c8e)" d="M 92.12897 165.730702 
Q 68.332868 172.9767 45.606314 179.897018 
" style="fill:none;stroke:#808080;stroke-linecap:round;"/>
    <path clip-path="url(#p0591d68c8e)" d="M 50.01544 180.645091 
L 45.606314 179.897018 
L 48.850248 176.818561 
L 50.01544 180.645091 
z
" style="fill:#808080;stroke:#808080;stroke-linecap:round;"/>
   </g>
   <g id="patch_3">
    <path clip-path="url(#p0591d68c8e)" d="M 107.969819 103.567403 
Q 104.735086 129.090802 101.640924 153.50504 
" style="fill:none;stroke:#808080;stroke-linecap:round;"/>
    <path clip-path="url(#p0591d68c8e)" d="M 104.127974 149.788242 
L 101.640924 153.50504 
L 100.159716 149.285321 
L 104.127974 149.788242 
z
" style="fill:#808080;stroke:#808080;stroke-linecap:round;"/>
   </g>
   <g id="patch_4">
    <path clip-path="url(#p0591d68c8e)" d="M 108.584534 86.331635 
Q 107.583614 68.083887 106.643927 50.952495 
" style="fill:none;stroke:#808080;stroke-linecap:round;"/>
    <path clip-path="url(#p0591d68c8e)" d="M 104.866007 55.05603 
L 106.643927 50.952495 
L 108.860003 54.836952 
L 104.866007 55.05603 
z
" style="fill:#808080;stroke:#808080;stroke-linecap:round;"/>
   </g>
   <g id="patch_5">
    <path clip-path="url(#p0591d68c8e)" d="M 224.330121 168.641674 
Q 166.695 166.114809 110.17684 163.636913 
" style="fill:none;stroke:#808080;stroke-linecap:round;"/>
    <path clip-path="url(#p0591d68c8e)" d="M 114.085401 165.810195 
L 110.17684 163.636913 
L 114.260602 161.814034 
L 114.085401 165.810195 
z
" style="fill:#808080;stroke:#808080;stroke-linecap:round;"/>
   </g>
   <g id="patch_6">
    <path clip-path="url(#p0591d68c8e)" d="M 239.039622 162.832745 
Q 256.240014 145.255083 272.658459 128.47652 
" style="fill:none;stroke:#808080;stroke-linecap:round;"/>
    <path clip-path="url(#p0591d68c8e)" d="M 268.431408 129.936671 
L 272.658459 128.47652 
L 271.290349 132.734251 
L 268.431408 129.936671 
z
" style="fill:#808080;stroke:#808080;stroke-linecap:round;"/>
   </g>
   <g id="patch_7">
    <path clip-path="url(#p0591d68c8e)" d="M 241.59828 168.163636 
Q 272.963632 165.041547 303.216448 162.030198 
" style="fill:none;stroke:#808080;stroke-linecap:round;"/>
    <path clip-path="url(#p0591d68c8e)" d="M 299.038018 160.436233 
L 303.216448 162.030198 
L 299.434218 164.416563 
L 299.038018 160.436233 
z
" style="fill:#808080;stroke:#808080;stroke-linecap:round;"/>
   </g>
   <g id="patch_8">
    <path clip-path="url(#p0591d68c8e)" d="M 240.32563 173.621085 
Q 263.011543 187.83545 284.750035 201.456188 
" style="fill:none;stroke:#808080;stroke-linecap:round;"/>
    <path clip-path="url(#p0591d68c8e)" d="M 282.422352 197.637563 
L 284.750035 201.456188 
L 280.298525 201.027159 
L 282.422352 197.637563 
z
" style="fill:#808080;stroke:#808080;stroke-linecap:round;"/>
   </g>
   <g id="patch_9">
    <path clip-path="url(#p0591d68c8e)" d="M 231.900297 177.616202 
Q 229.713716 194.956897 227.667006 211.188342 
" style="fill:none;stroke:#808080;stroke-linecap:round;"/>
    <path clip-path="url(#p0591d68c8e)" d="M 230.151712 207.469977 
L 227.667006 211.188342 
L 226.183138 206.969559 
L 230.151712 207.469977 
z
" style="fill:#808080;stroke:#808080;stroke-linecap:round;"/>
   </g>
   <g id="patch_10">
    <path clip-path="url(#p0591d68c8e)" d="M 44.535036 180.223226 
Q 68.331138 172.977227 91.057692 166.05691 
" style="fill:none;stroke:#808080;stroke-linecap:round;"/>
    <path clip-path="url(#p0591d68c8e)" d="M 86.648566 165.308837 
L 91.057692 166.05691 
L 87.813758 169.135367 
L 86.648566 165.308837 
z
" style="fill:#808080;stroke:#808080;stroke-linecap:round;"/>
   </g>
   <g id="patch_11">
    <path clip-path="url(#p0591d68c8e)" d="M 106.582415 49.831066 
Q 107.583335 68.078814 108.523022 85.210206 
" style="fill:none;stroke:#808080;stroke-linecap:round;"/>
    <path clip-path="url(#p0591d68c8e)" d="M 110.300942 81.106671 
L 108.523022 85.210206 
L 106.306946 81.325749 
L 110.300942 81.106671 
z
" style="fill:#808080;stroke:#808080;stroke-linecap:round;"/>
   </g>
   <g id="patch_12">
    <path clip-path="url(#p0591d68c8e)" d="M 273.442248 127.675539 
Q 256.241856 145.253201 239.823411 162.031764 
" style="fill:none;stroke:#808080;stroke-linecap:round;"/>
    <path clip-path="url(#p0591d68c8e)" d="M 244.050462 160.571612 
L 239.823411 162.031764 
L 241.19152 157.774033 
L 244.050462 160.571612 
z
" style="fill:#808080;stroke:#808080;stroke-linecap:round;"/>
   </g>
   <g id="patch_13">
    <path clip-path="url(#p0591d68c8e)" d="M 304.332929 161.919065 
Q 272.967576 165.041154 242.71476 168.052502 
" style="fill:none;stroke:#808080;stroke-linecap:round;"/>
    <path clip-path="url(#p0591d68c8e)" d="M 246.89319 169.646467 
L 242.71476 168.052502 
L 246.49699 165.666137 
L 246.89319 169.646467 
z
" style="fill:#808080;stroke:#808080;stroke-linecap:round;"/>
   </g>
   <g id="patch_14">
    <path clip-path="url(#p0591d68c8e)" d="M 285.694303 202.04784 
Q 263.00839 187.833475 241.269899 174.212738 
" style="fill:none;stroke:#808080;stroke-linecap:round;"/>
    <path clip-path="url(#p0591d68c8e)" d="M 243.597581 178.031363 
L 241.269899 174.212738 
L 245.721408 174.641767 
L 243.597581 178.031363 
z
" style="fill:#808080;stroke:#808080;stroke-linecap:round;"/>
   </g>
   <g id="patch_15">
    <path clip-path="url(#p0591d68c8e)" d="M 227.527557 212.294249 
Q 229.714137 194.953554 231.760847 178.722109 
" style="fill:none;stroke:#808080;stroke-linecap:round;"/>
    <path clip-path="url(#p0591d68c8e)" d="M 229.276141 182.440474 
L 231.760847 178.722109 
L 233.244715 182.940892 
L 229.276141 182.440474 
z
" style="fill:#808080;stroke:#808080;stroke-linecap:round;"/>
   </g>
   <g id="text_1">
    <g id="patch_16">
     <path clip-path="url(#p0591d68c8e)" d="M 108.785335 147.011247 
L 113.12743 112.750301 
Q 113.429182 110.369346 111.048228 110.067593 
L 103.367168 109.094127 
Q 100.986214 108.792374 100.684461 111.173329 
L 96.342366 145.434275 
Q 96.040614 147.81523 98.421568 148.116982 
L 106.102627 149.090449 
Q 108.483582 149.392201 108.785335 147.011247 
z
" style="fill:#ffffff;stroke:#ffffff;stroke-linejoin:miter;"/>
    </g>
    <g clip-path="url(#p0591d68c8e)">
     <!-- grey link -->
     <g transform="translate(104.753833 146.50031)rotate(-82.77707)scale(0.08 -0.08)">
      <defs>
       <path d="M 45.40625 27.984375 
Q 45.40625 37.75 41.375 43.109375 
Q 37.359375 48.484375 30.078125 48.484375 
Q 22.859375 48.484375 18.828125 43.109375 
Q 14.796875 37.75 14.796875 27.984375 
Q 14.796875 18.265625 18.828125 12.890625 
Q 22.859375 7.515625 30.078125 7.515625 
Q 37.359375 7.515625 41.375 12.890625 
Q 45.40625 18.265625 45.40625 27.984375 
z
M 54.390625 6.78125 
Q 54.390625 -7.171875 48.1875 -13.984375 
Q 42 -20.796875 29.203125 -20.796875 
Q 24.46875 -20.796875 20.265625 -20.09375 
Q 16.0625 -19.390625 12.109375 -17.921875 
L 12.109375 -9.1875 
Q 16.0625 -11.328125 19.921875 -12.34375 
Q 23.78125 -13.375 27.78125 -13.375 
Q 36.625 -13.375 41.015625 -8.765625 
Q 45.40625 -4.15625 45.40625 5.171875 
L 45.40625 9.625 
Q 42.625 4.78125 38.28125 2.390625 
Q 33.9375 0 27.875 0 
Q 17.828125 0 11.671875 7.65625 
Q 5.515625 15.328125 5.515625 27.984375 
Q 5.515625 40.671875 11.671875 48.328125 
Q 17.828125 56 27.875 56 
Q 33.9375 56 38.28125 53.609375 
Q 42.625 51.21875 45.40625 46.390625 
L 45.40625 54.6875 
L 54.390625 54.6875 
z
" id="DejaVuSans-103"/>
       <path d="M 41.109375 46.296875 
Q 39.59375 47.171875 37.8125 47.578125 
Q 36.03125 48 33.890625 48 
Q 26.265625 48 22.1875 43.046875 
Q 18.109375 38.09375 18.109375 28.8125 
L 18.109375 0 
L 9.078125 0 
L 9.078125 54.6875 
L 18.109375 54.6875 
L 18.109375 46.1875 
Q 20.953125 51.171875 25.484375 53.578125 
Q 30.03125 56 36.53125 56 
Q 37.453125 56 38.578125 55.875 
Q 39.703125 55.765625 41.0625 55.515625 
z
" id="DejaVuSans-114"/>
       <path d="M 56.203125 29.59375 
L 56.203125 25.203125 
L 14.890625 25.203125 
Q 15.484375 15.921875 20.484375 11.0625 
Q 25.484375 6.203125 34.421875 6.203125 
Q 39.59375 6.203125 44.453125 7.46875 
Q 49.3125 8.734375 54.109375 11.28125 
L 54.109375 2.78125 
Q 49.265625 0.734375 44.1875 -0.34375 
Q 39.109375 -1.421875 33.890625 -1.421875 
Q 20.796875 -1.421875 13.15625 6.1875 
Q 5.515625 13.8125 5.515625 26.8125 
Q 5.515625 40.234375 12.765625 48.109375 
Q 20.015625 56 32.328125 56 
Q 43.359375 56 49.78125 48.890625 
Q 56.203125 41.796875 56.203125 29.59375 
z
M 47.21875 32.234375 
Q 47.125 39.59375 43.09375 43.984375 
Q 39.0625 48.390625 32.421875 48.390625 
Q 24.90625 48.390625 20.390625 44.140625 
Q 15.875 39.890625 15.1875 32.171875 
z
" id="DejaVuSans-101"/>
       <path d="M 32.171875 -5.078125 
Q 28.375 -14.84375 24.75 -17.8125 
Q 21.140625 -20.796875 15.09375 -20.796875 
L 7.90625 -20.796875 
L 7.90625 -13.28125 
L 13.1875 -13.28125 
Q 16.890625 -13.28125 18.9375 -11.515625 
Q 21 -9.765625 23.484375 -3.21875 
L 25.09375 0.875 
L 2.984375 54.6875 
L 12.5 54.6875 
L 29.59375 11.921875 
L 46.6875 54.6875 
L 56.203125 54.6875 
z
" id="DejaVuSans-121"/>
       <path id="DejaVuSans-32"/>
       <path d="M 9.421875 75.984375 
L 18.40625 75.984375 
L 18.40625 0 
L 9.421875 0 
z
" id="DejaVuSans-108"/>
       <path d="M 9.421875 54.6875 
L 18.40625 54.6875 
L 18.40625 0 
L 9.421875 0 
z
M 9.421875 75.984375 
L 18.40625 75.984375 
L 18.40625 64.59375 
L 9.421875 64.59375 
z
" id="DejaVuSans-105"/>
       <path d="M 54.890625 33.015625 
L 54.890625 0 
L 45.90625 0 
L 45.90625 32.71875 
Q 45.90625 40.484375 42.875 44.328125 
Q 39.84375 48.1875 33.796875 48.1875 
Q 26.515625 48.1875 22.3125 43.546875 
Q 18.109375 38.921875 18.109375 30.90625 
L 18.109375 0 
L 9.078125 0 
L 9.078125 54.6875 
L 18.109375 54.6875 
L 18.109375 46.1875 
Q 21.34375 51.125 25.703125 53.5625 
Q 30.078125 56 35.796875 56 
Q 45.21875 56 50.046875 50.171875 
Q 54.890625 44.34375 54.890625 33.015625 
z
" id="DejaVuSans-110"/>
       <path d="M 9.078125 75.984375 
L 18.109375 75.984375 
L 18.109375 31.109375 
L 44.921875 54.6875 
L 56.390625 54.6875 
L 27.390625 29.109375 
L 57.625 0 
L 45.90625 0 
L 18.109375 26.703125 
L 18.109375 0 
L 9.078125 0 
z
" id="DejaVuSans-107"/>
      </defs>
      <use xlink:href="#DejaVuSans-103"/>
      <use x="63.476562" xlink:href="#DejaVuSans-114"/>
      <use x="102.339844" xlink:href="#DejaVuSans-101"/>
      <use x="163.863281" xlink:href="#DejaVuSans-121"/>
      <use x="223.042969" xlink:href="#DejaVuSans-32"/>
      <use x="254.830078" xlink:href="#DejaVuSans-108"/>
      <use x="282.613281" xlink:href="#DejaVuSans-105"/>
      <use x="310.396484" xlink:href="#DejaVuSans-110"/>
      <use x="373.775391" xlink:href="#DejaVuSans-107"/>
     </g>
    </g>
   </g>
   <g id="text_2">
    <g id="patch_17">
     <path clip-path="url(#p0591d68c8e)" d="M 146.545768 171.508691 
L 186.300079 173.251618 
Q 188.697776 173.356739 188.802897 170.959042 
L 189.142022 163.223973 
Q 189.247142 160.826276 186.849446 160.721155 
L 147.095135 158.978228 
Q 144.697438 158.873107 144.592317 161.270804 
L 144.253192 169.005873 
Q 144.148071 171.40357 146.545768 171.508691 
z
" style="fill:#ffffff;stroke:#ffffff;stroke-linejoin:miter;"/>
    </g>
    <g clip-path="url(#p0591d68c8e)">
     <!-- green link -->
     <g transform="translate(146.723762 167.448841)rotate(-357.489619)scale(0.08 -0.08)">
      <use xlink:href="#DejaVuSans-103"/>
      <use x="63.476562" xlink:href="#DejaVuSans-114"/>
      <use x="102.339844" xlink:href="#DejaVuSans-101"/>
      <use x="163.863281" xlink:href="#DejaVuSans-101"/>
      <use x="225.386719" xlink:href="#DejaVuSans-110"/>
      <use x="288.765625" xlink:href="#DejaVuSans-32"/>
      <use x="320.552734" xlink:href="#DejaVuSans-108"/>
      <use x="348.335938" xlink:href="#DejaVuSans-105"/>
      <use x="376.119141" xlink:href="#DejaVuSans-110"/>
      <use x="439.498047" xlink:href="#DejaVuSans-107"/>
     </g>
    </g>
   </g>
   <g id="PathCollection_1">
    <path clip-path="url(#p0591d68c8e)" d="M 100.411113 174.3891 
C 103.376174 174.3891 106.220193 173.211068 108.316807 171.114454 
C 110.413422 169.017839 111.591453 166.173821 111.591453 163.20876 
C 111.591453 160.243699 110.413422 157.39968 108.316807 155.303066 
C 106.220193 153.206451 103.376174 152.02842 100.411113 152.02842 
C 97.446052 152.02842 94.602034 153.206451 92.505419 155.303066 
C 90.408804 157.39968 89.230773 160.243699 89.230773 163.20876 
C 89.230773 166.173821 90.408804 169.017839 92.505419 171.114454 
C 94.602034 173.211068 97.446052 174.3891 100.411113 174.3891 
z
" style="fill:#ffa500;fill-opacity:0.7;stroke:#ffa500;stroke-opacity:0.7;"/>
    <path clip-path="url(#p0591d68c8e)" d="M 109.058683 106.156156 
C 112.023743 106.156156 114.867762 104.978124 116.964377 102.88151 
C 119.060991 100.784895 120.239022 97.940876 120.239022 94.975816 
C 120.239022 92.010755 119.060991 89.166736 116.964377 87.070121 
C 114.867762 84.973507 112.023743 83.795476 109.058683 83.795476 
C 106.093622 83.795476 103.249603 84.973507 101.152988 87.070121 
C 99.056374 89.166736 97.878343 92.010755 97.878343 94.975816 
C 97.878343 97.940876 99.056374 100.784895 101.152988 102.88151 
C 103.249603 104.978124 106.093622 106.156156 109.058683 106.156156 
z
" style="fill:#ffa500;fill-opacity:0.7;stroke:#ffa500;stroke-opacity:0.7;"/>
    <path clip-path="url(#p0591d68c8e)" d="M 232.984101 180.201426 
C 235.949161 180.201426 238.79318 179.023395 240.889795 176.92678 
C 242.986409 174.830166 244.164441 171.986147 244.164441 169.021086 
C 244.164441 166.056025 242.986409 163.212007 240.889795 161.115392 
C 238.79318 159.018778 235.949161 157.840746 232.984101 157.840746 
C 230.01904 157.840746 227.175021 159.018778 225.078407 161.115392 
C 222.981792 163.212007 221.803761 166.056025 221.803761 169.021086 
C 221.803761 171.986147 222.981792 174.830166 225.078407 176.92678 
C 227.175021 179.023395 230.01904 180.201426 232.984101 180.201426 
z
" style="fill:#ffa500;fill-opacity:0.7;stroke:#ffa500;stroke-opacity:0.7;"/>
    <path clip-path="url(#p0591d68c8e)" d="M 36.252893 189.816236 
C 38.128162 189.816236 39.926877 189.071184 41.252893 187.745168 
C 42.578908 186.419153 43.32396 184.620437 43.32396 182.745168 
C 43.32396 180.869899 42.578908 179.071184 41.252893 177.745168 
C 39.926877 176.419153 38.128162 175.6741 36.252893 175.6741 
C 34.377623 175.6741 32.578908 176.419153 31.252893 177.745168 
C 29.926877 179.071184 29.181825 180.869899 29.181825 182.745168 
C 29.181825 184.620437 29.926877 186.419153 31.252893 187.745168 
C 32.578908 189.071184 34.377623 189.816236 36.252893 189.816236 
z
" style="fill:#808080;fill-opacity:0.7;stroke:#808080;stroke-opacity:0.7;"/>
    <path clip-path="url(#p0591d68c8e)" d="M 106.108267 48.257953 
C 107.983536 48.257953 109.782251 47.512901 111.108267 46.186885 
C 112.434282 44.86087 113.179334 43.062154 113.179334 41.186885 
C 113.179334 39.311616 112.434282 37.512901 111.108267 36.186885 
C 109.782251 34.86087 107.983536 34.115818 106.108267 34.115818 
C 104.232997 34.115818 102.434282 34.86087 101.108267 36.186885 
C 99.782251 37.512901 99.037199 39.311616 99.037199 41.186885 
C 99.037199 43.062154 99.782251 44.86087 101.108267 46.186885 
C 102.434282 47.512901 104.232997 48.257953 106.108267 48.257953 
z
" style="fill:#808080;fill-opacity:0.7;stroke:#808080;stroke-opacity:0.7;"/>
    <path clip-path="url(#p0591d68c8e)" d="M 279.497769 128.558265 
C 281.373038 128.558265 283.171753 127.813213 284.497769 126.487198 
C 285.823784 125.161182 286.568837 123.362467 286.568837 121.487198 
C 286.568837 119.611928 285.823784 117.813213 284.497769 116.487198 
C 283.171753 115.161182 281.373038 114.41613 279.497769 114.41613 
C 277.6225 114.41613 275.823784 115.161182 274.497769 116.487198 
C 273.171753 117.813213 272.426701 119.611928 272.426701 121.487198 
C 272.426701 123.362467 273.171753 125.161182 274.497769 126.487198 
C 275.823784 127.813213 277.6225 128.558265 279.497769 128.558265 
z
" style="fill:#808080;fill-opacity:0.7;stroke:#808080;stroke-opacity:0.7;"/>
    <path clip-path="url(#p0591d68c8e)" d="M 312.947107 168.132682 
C 314.822377 168.132682 316.621092 167.38763 317.947107 166.061614 
C 319.273123 164.735599 320.018175 162.936883 320.018175 161.061614 
C 320.018175 159.186345 319.273123 157.38763 317.947107 156.061614 
C 316.621092 154.735599 314.822377 153.990546 312.947107 153.990546 
C 311.071838 153.990546 309.273123 154.735599 307.947107 156.061614 
C 306.621092 157.38763 305.87604 159.186345 305.87604 161.061614 
C 305.87604 162.936883 306.621092 164.735599 307.947107 166.061614 
C 309.273123 167.38763 311.071838 168.132682 312.947107 168.132682 
z
" style="fill:#808080;fill-opacity:0.7;stroke:#808080;stroke-opacity:0.7;"/>
    <path clip-path="url(#p0591d68c8e)" d="M 293.035833 213.718907 
C 294.911102 213.718907 296.709817 212.973855 298.035833 211.647839 
C 299.361848 210.321824 300.1069 208.523108 300.1069 206.647839 
C 300.1069 204.77257 299.361848 202.973855 298.035833 201.647839 
C 296.709817 200.321824 294.911102 199.576771 293.035833 199.576771 
C 291.160563 199.576771 289.361848 200.321824 288.035833 201.647839 
C 286.709817 202.973855 285.964765 204.77257 285.964765 206.647839 
C 285.964765 208.523108 286.709817 210.321824 288.035833 211.647839 
C 289.361848 212.973855 291.160563 213.718907 293.035833 213.718907 
z
" style="fill:#808080;fill-opacity:0.7;stroke:#808080;stroke-opacity:0.7;"/>
    <path clip-path="url(#p0591d68c8e)" d="M 226.443753 227.960432 
C 228.319022 227.960432 230.117737 227.21538 231.443753 225.889365 
C 232.769768 224.563349 233.51482 222.764634 233.51482 220.889365 
C 233.51482 219.014096 232.769768 217.21538 231.443753 215.889365 
C 230.117737 214.563349 228.319022 213.818297 226.443753 213.818297 
C 224.568483 213.818297 222.769768 214.563349 221.443753 215.889365 
C 220.117737 217.21538 219.372685 219.014096 219.372685 220.889365 
C 219.372685 222.764634 220.117737 224.563349 221.443753 225.889365 
C 222.769768 227.21538 224.568483 227.960432 226.443753 227.960432 
z
" style="fill:#808080;fill-opacity:0.7;stroke:#808080;stroke-opacity:0.7;"/>
   </g>
   <g id="text_3">
    <g clip-path="url(#p0591d68c8e)">
     <!-- node load -->
     <g transform="translate(80.607363 165.41626)scale(0.08 -0.08)">
      <defs>
       <path d="M 30.609375 48.390625 
Q 23.390625 48.390625 19.1875 42.75 
Q 14.984375 37.109375 14.984375 27.296875 
Q 14.984375 17.484375 19.15625 11.84375 
Q 23.34375 6.203125 30.609375 6.203125 
Q 37.796875 6.203125 41.984375 11.859375 
Q 46.1875 17.53125 46.1875 27.296875 
Q 46.1875 37.015625 41.984375 42.703125 
Q 37.796875 48.390625 30.609375 48.390625 
z
M 30.609375 56 
Q 42.328125 56 49.015625 48.375 
Q 55.71875 40.765625 55.71875 27.296875 
Q 55.71875 13.875 49.015625 6.21875 
Q 42.328125 -1.421875 30.609375 -1.421875 
Q 18.84375 -1.421875 12.171875 6.21875 
Q 5.515625 13.875 5.515625 27.296875 
Q 5.515625 40.765625 12.171875 48.375 
Q 18.84375 56 30.609375 56 
z
" id="DejaVuSans-111"/>
       <path d="M 45.40625 46.390625 
L 45.40625 75.984375 
L 54.390625 75.984375 
L 54.390625 0 
L 45.40625 0 
L 45.40625 8.203125 
Q 42.578125 3.328125 38.25 0.953125 
Q 33.9375 -1.421875 27.875 -1.421875 
Q 17.96875 -1.421875 11.734375 6.484375 
Q 5.515625 14.40625 5.515625 27.296875 
Q 5.515625 40.1875 11.734375 48.09375 
Q 17.96875 56 27.875 56 
Q 33.9375 56 38.25 53.625 
Q 42.578125 51.265625 45.40625 46.390625 
z
M 14.796875 27.296875 
Q 14.796875 17.390625 18.875 11.75 
Q 22.953125 6.109375 30.078125 6.109375 
Q 37.203125 6.109375 41.296875 11.75 
Q 45.40625 17.390625 45.40625 27.296875 
Q 45.40625 37.203125 41.296875 42.84375 
Q 37.203125 48.484375 30.078125 48.484375 
Q 22.953125 48.484375 18.875 42.84375 
Q 14.796875 37.203125 14.796875 27.296875 
z
" id="DejaVuSans-100"/>
       <path d="M 34.28125 27.484375 
Q 23.390625 27.484375 19.1875 25 
Q 14.984375 22.515625 14.984375 16.5 
Q 14.984375 11.71875 18.140625 8.90625 
Q 21.296875 6.109375 26.703125 6.109375 
Q 34.1875 6.109375 38.703125 11.40625 
Q 43.21875 16.703125 43.21875 25.484375 
L 43.21875 27.484375 
z
M 52.203125 31.203125 
L 52.203125 0 
L 43.21875 0 
L 43.21875 8.296875 
Q 40.140625 3.328125 35.546875 0.953125 
Q 30.953125 -1.421875 24.3125 -1.421875 
Q 15.921875 -1.421875 10.953125 3.296875 
Q 6 8.015625 6 15.921875 
Q 6 25.140625 12.171875 29.828125 
Q 18.359375 34.515625 30.609375 34.515625 
L 43.21875 34.515625 
L 43.21875 35.40625 
Q 43.21875 41.609375 39.140625 45 
Q 35.0625 48.390625 27.6875 48.390625 
Q 23 48.390625 18.546875 47.265625 
Q 14.109375 46.140625 10.015625 43.890625 
L 10.015625 52.203125 
Q 14.9375 54.109375 19.578125 55.046875 
Q 24.21875 56 28.609375 56 
Q 40.484375 56 46.34375 49.84375 
Q 52.203125 43.703125 52.203125 31.203125 
z
" id="DejaVuSans-97"/>
      </defs>
      <use xlink:href="#DejaVuSans-110"/>
      <use x="63.378906" xlink:href="#DejaVuSans-111"/>
      <use x="124.560547" xlink:href="#DejaVuSans-100"/>
      <use x="188.037109" xlink:href="#DejaVuSans-101"/>
      <use x="249.560547" xlink:href="#DejaVuSans-32"/>
      <use x="281.347656" xlink:href="#DejaVuSans-108"/>
      <use x="309.130859" xlink:href="#DejaVuSans-111"/>
      <use x="370.3125" xlink:href="#DejaVuSans-97"/>
      <use x="431.591797" xlink:href="#DejaVuSans-100"/>
     </g>
    </g>
   </g>
   <g id="text_4">
    <g clip-path="url(#p0591d68c8e)">
     <!-- grey sources -->
     <g transform="translate(83.499933 97.183316)scale(0.08 -0.08)">
      <defs>
       <path d="M 44.28125 53.078125 
L 44.28125 44.578125 
Q 40.484375 46.53125 36.375 47.5 
Q 32.28125 48.484375 27.875 48.484375 
Q 21.1875 48.484375 17.84375 46.4375 
Q 14.5 44.390625 14.5 40.28125 
Q 14.5 37.15625 16.890625 35.375 
Q 19.28125 33.59375 26.515625 31.984375 
L 29.59375 31.296875 
Q 39.15625 29.25 43.1875 25.515625 
Q 47.21875 21.78125 47.21875 15.09375 
Q 47.21875 7.46875 41.1875 3.015625 
Q 35.15625 -1.421875 24.609375 -1.421875 
Q 20.21875 -1.421875 15.453125 -0.5625 
Q 10.6875 0.296875 5.421875 2 
L 5.421875 11.28125 
Q 10.40625 8.6875 15.234375 7.390625 
Q 20.0625 6.109375 24.8125 6.109375 
Q 31.15625 6.109375 34.5625 8.28125 
Q 37.984375 10.453125 37.984375 14.40625 
Q 37.984375 18.0625 35.515625 20.015625 
Q 33.0625 21.96875 24.703125 23.78125 
L 21.578125 24.515625 
Q 13.234375 26.265625 9.515625 29.90625 
Q 5.8125 33.546875 5.8125 39.890625 
Q 5.8125 47.609375 11.28125 51.796875 
Q 16.75 56 26.8125 56 
Q 31.78125 56 36.171875 55.265625 
Q 40.578125 54.546875 44.28125 53.078125 
z
" id="DejaVuSans-115"/>
       <path d="M 8.5 21.578125 
L 8.5 54.6875 
L 17.484375 54.6875 
L 17.484375 21.921875 
Q 17.484375 14.15625 20.5 10.265625 
Q 23.53125 6.390625 29.59375 6.390625 
Q 36.859375 6.390625 41.078125 11.03125 
Q 45.3125 15.671875 45.3125 23.6875 
L 45.3125 54.6875 
L 54.296875 54.6875 
L 54.296875 0 
L 45.3125 0 
L 45.3125 8.40625 
Q 42.046875 3.421875 37.71875 1 
Q 33.40625 -1.421875 27.6875 -1.421875 
Q 18.265625 -1.421875 13.375 4.4375 
Q 8.5 10.296875 8.5 21.578125 
z
M 31.109375 56 
z
" id="DejaVuSans-117"/>
       <path d="M 48.78125 52.59375 
L 48.78125 44.1875 
Q 44.96875 46.296875 41.140625 47.34375 
Q 37.3125 48.390625 33.40625 48.390625 
Q 24.65625 48.390625 19.8125 42.84375 
Q 14.984375 37.3125 14.984375 27.296875 
Q 14.984375 17.28125 19.8125 11.734375 
Q 24.65625 6.203125 33.40625 6.203125 
Q 37.3125 6.203125 41.140625 7.25 
Q 44.96875 8.296875 48.78125 10.40625 
L 48.78125 2.09375 
Q 45.015625 0.34375 40.984375 -0.53125 
Q 36.96875 -1.421875 32.421875 -1.421875 
Q 20.0625 -1.421875 12.78125 6.34375 
Q 5.515625 14.109375 5.515625 27.296875 
Q 5.515625 40.671875 12.859375 48.328125 
Q 20.21875 56 33.015625 56 
Q 37.15625 56 41.109375 55.140625 
Q 45.0625 54.296875 48.78125 52.59375 
z
" id="DejaVuSans-99"/>
      </defs>
      <use xlink:href="#DejaVuSans-103"/>
      <use x="63.476562" xlink:href="#DejaVuSans-114"/>
      <use x="102.339844" xlink:href="#DejaVuSans-101"/>
      <use x="163.863281" xlink:href="#DejaVuSans-121"/>
      <use x="223.042969" xlink:href="#DejaVuSans-32"/>
      <use x="254.830078" xlink:href="#DejaVuSans-115"/>
      <use x="306.929688" xlink:href="#DejaVuSans-111"/>
      <use x="368.111328" xlink:href="#DejaVuSans-117"/>
      <use x="431.490234" xlink:href="#DejaVuSans-114"/>
      <use x="470.353516" xlink:href="#DejaVuSans-99"/>
      <use x="525.333984" xlink:href="#DejaVuSans-101"/>
      <use x="586.857422" xlink:href="#DejaVuSans-115"/>
     </g>
    </g>
   </g>
   <g id="text_5">
    <g clip-path="url(#p0591d68c8e)">
     <!-- green sources -->
     <g transform="translate(204.796601 171.228586)scale(0.08 -0.08)">
      <use xlink:href="#DejaVuSans-103"/>
      <use x="63.476562" xlink:href="#DejaVuSans-114"/>
      <use x="102.339844" xlink:href="#DejaVuSans-101"/>
      <use x="163.863281" xlink:href="#DejaVuSans-101"/>
      <use x="225.386719" xlink:href="#DejaVuSans-110"/>
      <use x="288.765625" xlink:href="#DejaVuSans-32"/>
      <use x="320.552734" xlink:href="#DejaVuSans-115"/>
      <use x="372.652344" xlink:href="#DejaVuSans-111"/>
      <use x="433.833984" xlink:href="#DejaVuSans-117"/>
      <use x="497.212891" xlink:href="#DejaVuSans-114"/>
      <use x="536.076172" xlink:href="#DejaVuSans-99"/>
      <use x="591.056641" xlink:href="#DejaVuSans-101"/>
      <use x="652.580078" xlink:href="#DejaVuSans-115"/>
     </g>
    </g>
   </g>
   <g id="text_6">
    <g clip-path="url(#p0591d68c8e)">
     <!-- load -->
     <g transform="translate(27.703518 184.952668)scale(0.08 -0.08)">
      <use xlink:href="#DejaVuSans-108"/>
      <use x="27.783203" xlink:href="#DejaVuSans-111"/>
      <use x="88.964844" xlink:href="#DejaVuSans-97"/>
      <use x="150.244141" xlink:href="#DejaVuSans-100"/>
     </g>
    </g>
   </g>
   <g id="text_7">
    <g clip-path="url(#p0591d68c8e)">
     <!-- spot market -->
     <g transform="translate(82.005767 43.394385)scale(0.08 -0.08)">
      <defs>
       <path d="M 18.109375 8.203125 
L 18.109375 -20.796875 
L 9.078125 -20.796875 
L 9.078125 54.6875 
L 18.109375 54.6875 
L 18.109375 46.390625 
Q 20.953125 51.265625 25.265625 53.625 
Q 29.59375 56 35.59375 56 
Q 45.5625 56 51.78125 48.09375 
Q 58.015625 40.1875 58.015625 27.296875 
Q 58.015625 14.40625 51.78125 6.484375 
Q 45.5625 -1.421875 35.59375 -1.421875 
Q 29.59375 -1.421875 25.265625 0.953125 
Q 20.953125 3.328125 18.109375 8.203125 
z
M 48.6875 27.296875 
Q 48.6875 37.203125 44.609375 42.84375 
Q 40.53125 48.484375 33.40625 48.484375 
Q 26.265625 48.484375 22.1875 42.84375 
Q 18.109375 37.203125 18.109375 27.296875 
Q 18.109375 17.390625 22.1875 11.75 
Q 26.265625 6.109375 33.40625 6.109375 
Q 40.53125 6.109375 44.609375 11.75 
Q 48.6875 17.390625 48.6875 27.296875 
z
" id="DejaVuSans-112"/>
       <path d="M 18.3125 70.21875 
L 18.3125 54.6875 
L 36.8125 54.6875 
L 36.8125 47.703125 
L 18.3125 47.703125 
L 18.3125 18.015625 
Q 18.3125 11.328125 20.140625 9.421875 
Q 21.96875 7.515625 27.59375 7.515625 
L 36.8125 7.515625 
L 36.8125 0 
L 27.59375 0 
Q 17.1875 0 13.234375 3.875 
Q 9.28125 7.765625 9.28125 18.015625 
L 9.28125 47.703125 
L 2.6875 47.703125 
L 2.6875 54.6875 
L 9.28125 54.6875 
L 9.28125 70.21875 
z
" id="DejaVuSans-116"/>
       <path d="M 52 44.1875 
Q 55.375 50.25 60.0625 53.125 
Q 64.75 56 71.09375 56 
Q 79.640625 56 84.28125 50.015625 
Q 88.921875 44.046875 88.921875 33.015625 
L 88.921875 0 
L 79.890625 0 
L 79.890625 32.71875 
Q 79.890625 40.578125 77.09375 44.375 
Q 74.3125 48.1875 68.609375 48.1875 
Q 61.625 48.1875 57.5625 43.546875 
Q 53.515625 38.921875 53.515625 30.90625 
L 53.515625 0 
L 44.484375 0 
L 44.484375 32.71875 
Q 44.484375 40.625 41.703125 44.40625 
Q 38.921875 48.1875 33.109375 48.1875 
Q 26.21875 48.1875 22.15625 43.53125 
Q 18.109375 38.875 18.109375 30.90625 
L 18.109375 0 
L 9.078125 0 
L 9.078125 54.6875 
L 18.109375 54.6875 
L 18.109375 46.1875 
Q 21.1875 51.21875 25.484375 53.609375 
Q 29.78125 56 35.6875 56 
Q 41.65625 56 45.828125 52.96875 
Q 50 49.953125 52 44.1875 
z
" id="DejaVuSans-109"/>
      </defs>
      <use xlink:href="#DejaVuSans-115"/>
      <use x="52.099609" xlink:href="#DejaVuSans-112"/>
      <use x="115.576172" xlink:href="#DejaVuSans-111"/>
      <use x="176.757812" xlink:href="#DejaVuSans-116"/>
      <use x="215.966797" xlink:href="#DejaVuSans-32"/>
      <use x="247.753906" xlink:href="#DejaVuSans-109"/>
      <use x="345.166016" xlink:href="#DejaVuSans-97"/>
      <use x="406.445312" xlink:href="#DejaVuSans-114"/>
      <use x="447.558594" xlink:href="#DejaVuSans-107"/>
      <use x="501.84375" xlink:href="#DejaVuSans-101"/>
      <use x="563.367188" xlink:href="#DejaVuSans-116"/>
     </g>
    </g>
   </g>
   <g id="text_8">
    <g clip-path="url(#p0591d68c8e)">
     <!-- wind -->
     <g transform="translate(270.040894 123.694698)scale(0.08 -0.08)">
      <defs>
       <path d="M 4.203125 54.6875 
L 13.1875 54.6875 
L 24.421875 12.015625 
L 35.59375 54.6875 
L 46.1875 54.6875 
L 57.421875 12.015625 
L 68.609375 54.6875 
L 77.59375 54.6875 
L 63.28125 0 
L 52.6875 0 
L 40.921875 44.828125 
L 29.109375 0 
L 18.5 0 
z
" id="DejaVuSans-119"/>
      </defs>
      <use xlink:href="#DejaVuSans-119"/>
      <use x="81.787109" xlink:href="#DejaVuSans-105"/>
      <use x="109.570312" xlink:href="#DejaVuSans-110"/>
      <use x="172.949219" xlink:href="#DejaVuSans-100"/>
     </g>
    </g>
   </g>
   <g id="text_9">
    <g clip-path="url(#p0591d68c8e)">
     <!-- PV -->
     <g transform="translate(307.798982 163.269114)scale(0.08 -0.08)">
      <defs>
       <path d="M 19.671875 64.796875 
L 19.671875 37.40625 
L 32.078125 37.40625 
Q 38.96875 37.40625 42.71875 40.96875 
Q 46.484375 44.53125 46.484375 51.125 
Q 46.484375 57.671875 42.71875 61.234375 
Q 38.96875 64.796875 32.078125 64.796875 
z
M 9.8125 72.90625 
L 32.078125 72.90625 
Q 44.34375 72.90625 50.609375 67.359375 
Q 56.890625 61.8125 56.890625 51.125 
Q 56.890625 40.328125 50.609375 34.8125 
Q 44.34375 29.296875 32.078125 29.296875 
L 19.671875 29.296875 
L 19.671875 0 
L 9.8125 0 
z
" id="DejaVuSans-80"/>
       <path d="M 28.609375 0 
L 0.78125 72.90625 
L 11.078125 72.90625 
L 34.1875 11.53125 
L 57.328125 72.90625 
L 67.578125 72.90625 
L 39.796875 0 
z
" id="DejaVuSans-86"/>
      </defs>
      <use xlink:href="#DejaVuSans-80"/>
      <use x="60.302734" xlink:href="#DejaVuSans-86"/>
     </g>
    </g>
   </g>
   <g id="text_10">
    <g clip-path="url(#p0591d68c8e)">
     <!-- green sales -->
     <g transform="translate(270.022083 208.855339)scale(0.08 -0.08)">
      <use xlink:href="#DejaVuSans-103"/>
      <use x="63.476562" xlink:href="#DejaVuSans-114"/>
      <use x="102.339844" xlink:href="#DejaVuSans-101"/>
      <use x="163.863281" xlink:href="#DejaVuSans-101"/>
      <use x="225.386719" xlink:href="#DejaVuSans-110"/>
      <use x="288.765625" xlink:href="#DejaVuSans-32"/>
      <use x="320.552734" xlink:href="#DejaVuSans-115"/>
      <use x="372.652344" xlink:href="#DejaVuSans-97"/>
      <use x="433.931641" xlink:href="#DejaVuSans-108"/>
      <use x="461.714844" xlink:href="#DejaVuSans-101"/>
      <use x="523.238281" xlink:href="#DejaVuSans-115"/>
     </g>
    </g>
   </g>
   <g id="text_11">
    <g clip-path="url(#p0591d68c8e)">
     <!-- battery -->
     <g transform="translate(211.843753 223.096865)scale(0.08 -0.08)">
      <defs>
       <path d="M 48.6875 27.296875 
Q 48.6875 37.203125 44.609375 42.84375 
Q 40.53125 48.484375 33.40625 48.484375 
Q 26.265625 48.484375 22.1875 42.84375 
Q 18.109375 37.203125 18.109375 27.296875 
Q 18.109375 17.390625 22.1875 11.75 
Q 26.265625 6.109375 33.40625 6.109375 
Q 40.53125 6.109375 44.609375 11.75 
Q 48.6875 17.390625 48.6875 27.296875 
z
M 18.109375 46.390625 
Q 20.953125 51.265625 25.265625 53.625 
Q 29.59375 56 35.59375 56 
Q 45.5625 56 51.78125 48.09375 
Q 58.015625 40.1875 58.015625 27.296875 
Q 58.015625 14.40625 51.78125 6.484375 
Q 45.5625 -1.421875 35.59375 -1.421875 
Q 29.59375 -1.421875 25.265625 0.953125 
Q 20.953125 3.328125 18.109375 8.203125 
L 18.109375 0 
L 9.078125 0 
L 9.078125 75.984375 
L 18.109375 75.984375 
z
" id="DejaVuSans-98"/>
      </defs>
      <use xlink:href="#DejaVuSans-98"/>
      <use x="63.476562" xlink:href="#DejaVuSans-97"/>
      <use x="124.755859" xlink:href="#DejaVuSans-116"/>
      <use x="163.964844" xlink:href="#DejaVuSans-116"/>
      <use x="203.173828" xlink:href="#DejaVuSans-101"/>
      <use x="264.697266" xlink:href="#DejaVuSans-114"/>
      <use x="305.810547" xlink:href="#DejaVuSans-121"/>
     </g>
    </g>
   </g>
   <g id="text_12">
    <!-- Complete portfolio with separate assets -->
    <g transform="translate(54.650625 16.318125)scale(0.12 -0.12)">
     <defs>
      <path d="M 64.40625 67.28125 
L 64.40625 56.890625 
Q 59.421875 61.53125 53.78125 63.8125 
Q 48.140625 66.109375 41.796875 66.109375 
Q 29.296875 66.109375 22.65625 58.46875 
Q 16.015625 50.828125 16.015625 36.375 
Q 16.015625 21.96875 22.65625 14.328125 
Q 29.296875 6.6875 41.796875 6.6875 
Q 48.140625 6.6875 53.78125 8.984375 
Q 59.421875 11.28125 64.40625 15.921875 
L 64.40625 5.609375 
Q 59.234375 2.09375 53.4375 0.328125 
Q 47.65625 -1.421875 41.21875 -1.421875 
Q 24.65625 -1.421875 15.125 8.703125 
Q 5.609375 18.84375 5.609375 36.375 
Q 5.609375 53.953125 15.125 64.078125 
Q 24.65625 74.21875 41.21875 74.21875 
Q 47.75 74.21875 53.53125 72.484375 
Q 59.328125 70.75 64.40625 67.28125 
z
" id="DejaVuSans-67"/>
      <path d="M 37.109375 75.984375 
L 37.109375 68.5 
L 28.515625 68.5 
Q 23.6875 68.5 21.796875 66.546875 
Q 19.921875 64.59375 19.921875 59.515625 
L 19.921875 54.6875 
L 34.71875 54.6875 
L 34.71875 47.703125 
L 19.921875 47.703125 
L 19.921875 0 
L 10.890625 0 
L 10.890625 47.703125 
L 2.296875 47.703125 
L 2.296875 54.6875 
L 10.890625 54.6875 
L 10.890625 58.5 
Q 10.890625 67.625 15.140625 71.796875 
Q 19.390625 75.984375 28.609375 75.984375 
z
" id="DejaVuSans-102"/>
      <path d="M 54.890625 33.015625 
L 54.890625 0 
L 45.90625 0 
L 45.90625 32.71875 
Q 45.90625 40.484375 42.875 44.328125 
Q 39.84375 48.1875 33.796875 48.1875 
Q 26.515625 48.1875 22.3125 43.546875 
Q 18.109375 38.921875 18.109375 30.90625 
L 18.109375 0 
L 9.078125 0 
L 9.078125 75.984375 
L 18.109375 75.984375 
L 18.109375 46.1875 
Q 21.34375 51.125 25.703125 53.5625 
Q 30.078125 56 35.796875 56 
Q 45.21875 56 50.046875 50.171875 
Q 54.890625 44.34375 54.890625 33.015625 
z
" id="DejaVuSans-104"/>
     </defs>
     <use xlink:href="#DejaVuSans-67"/>
     <use x="69.824219" xlink:href="#DejaVuSans-111"/>
     <use x="131.005859" xlink:href="#DejaVuSans-109"/>
     <use x="228.417969" xlink:href="#DejaVuSans-112"/>
     <use x="291.894531" xlink:href="#DejaVuSans-108"/>
     <use x="319.677734" xlink:href="#DejaVuSans-101"/>
     <use x="381.201172" xlink:href="#DejaVuSans-116"/>
     <use x="420.410156" xlink:href="#DejaVuSans-101"/>
     <use x="481.933594" xlink:href="#DejaVuSans-32"/>
     <use x="513.720703" xlink:href="#DejaVuSans-112"/>
     <use x="577.197266" xlink:href="#DejaVuSans-111"/>
     <use x="638.378906" xlink:href="#DejaVuSans-114"/>
     <use x="679.492188" xlink:href="#DejaVuSans-116"/>
     <use x="718.701172" xlink:href="#DejaVuSans-102"/>
     <use x="753.90625" xlink:href="#DejaVuSans-111"/>
     <use x="815.087891" xlink:href="#DejaVuSans-108"/>
     <use x="842.871094" xlink:href="#DejaVuSans-105"/>
     <use x="870.654297" xlink:href="#DejaVuSans-111"/>
     <use x="931.835938" xlink:href="#DejaVuSans-32"/>
     <use x="963.623047" xlink:href="#DejaVuSans-119"/>
     <use x="1045.410156" xlink:href="#DejaVuSans-105"/>
     <use x="1073.193359" xlink:href="#DejaVuSans-116"/>
     <use x="1112.402344" xlink:href="#DejaVuSans-104"/>
     <use x="1175.78125" xlink:href="#DejaVuSans-32"/>
     <use x="1207.568359" xlink:href="#DejaVuSans-115"/>
     <use x="1259.667969" xlink:href="#DejaVuSans-101"/>
     <use x="1321.191406" xlink:href="#DejaVuSans-112"/>
     <use x="1384.667969" xlink:href="#DejaVuSans-97"/>
     <use x="1445.947266" xlink:href="#DejaVuSans-114"/>
     <use x="1487.060547" xlink:href="#DejaVuSans-97"/>
     <use x="1548.339844" xlink:href="#DejaVuSans-116"/>
     <use x="1587.548828" xlink:href="#DejaVuSans-101"/>
     <use x="1649.072266" xlink:href="#DejaVuSans-32"/>
     <use x="1680.859375" xlink:href="#DejaVuSans-97"/>
     <use x="1742.138672" xlink:href="#DejaVuSans-115"/>
     <use x="1794.238281" xlink:href="#DejaVuSans-115"/>
     <use x="1846.337891" xlink:href="#DejaVuSans-101"/>
     <use x="1907.861328" xlink:href="#DejaVuSans-116"/>
     <use x="1947.070312" xlink:href="#DejaVuSans-115"/>
    </g>
   </g>
  </g>
 </g>
 <defs>
  <clipPath id="p0591d68c8e">
   <rect height="217.44" width="334.8" x="7.2" y="22.318125"/>
  </clipPath>
 </defs>
</svg>
