<?xml version="1.0" encoding="utf-8" standalone="no"?>
<!DOCTYPE svg PUBLIC "-//W3C//DTD SVG 1.1//EN"
  "http://www.w3.org/Graphics/SVG/1.1/DTD/svg11.dtd">
<!-- Created with matplotlib (https://matplotlib.org/) -->
<svg height="231.84pt" version="1.1" viewBox="0 0 349.2 231.84" width="349.2pt" xmlns="http://www.w3.org/2000/svg" xmlns:xlink="http://www.w3.org/1999/xlink">
 <metadata>
  <rdf:RDF xmlns:cc="http://creativecommons.org/ns#" xmlns:dc="http://purl.org/dc/elements/1.1/" xmlns:rdf="http://www.w3.org/1999/02/22-rdf-syntax-ns#">
   <cc:Work>
    <dc:type rdf:resource="http://purl.org/dc/dcmitype/StillImage"/>
    <dc:date>2021-05-27T21:50:59.168460</dc:date>
    <dc:format>image/svg+xml</dc:format>
    <dc:creator>
     <cc:Agent>
      <dc:title>Matplotlib v3.3.4, https://matplotlib.org/</dc:title>
     </cc:Agent>
    </dc:creator>
   </cc:Work>
  </rdf:RDF>
 </metadata>
 <defs>
  <style type="text/css">*{stroke-linecap:butt;stroke-linejoin:round;}</style>
 </defs>
 <g id="figure_1">
  <g id="patch_1">
   <path d="M 0 231.84 
L 349.2 231.84 
L 349.2 0 
L 0 0 
z
" style="fill:none;"/>
  </g>
  <g id="axes_1">
   <g id="line2d_1">
    <path clip-path="url(#p3bb6d19911)" d="M 7.2 95.918532 
L 8.757209 80.870903 
L 10.314419 80.405897 
L 11.871628 78.892807 
L 13.428837 95.894829 
L 14.986047 88.546662 
L 16.543256 71.636806 
L 19.657674 108.667446 
L 21.214884 97.980366 
L 22.772093 81.347695 
L 24.329302 72.689269 
L 25.886512 103.402144 
L 27.443721 74.077646 
L 29.00093 98.498042 
L 30.55814 82.306209 
L 32.115349 108.614934 
L 33.672558 96.841195 
L 35.229767 80.930001 
L 36.786977 94.555192 
L 38.344186 107.064273 
L 39.901395 85.095742 
L 41.458605 92.509502 
L 43.015814 74.474544 
L 44.573023 103.075219 
L 46.130233 109.556226 
L 47.687442 101.891816 
L 49.244651 105.324325 
L 50.80186 75.608249 
L 52.35907 91.468746 
L 55.473488 69.947667 
L 57.030698 80.122508 
L 58.587907 104.444939 
L 60.145116 80.080911 
L 61.702326 87.785236 
L 63.259535 79.20065 
L 64.816744 83.931237 
L 66.373953 81.867592 
L 67.931163 108.768269 
L 69.488372 97.715271 
L 71.045581 110.052827 
L 72.602791 100.804339 
L 74.16 74.221703 
L 75.717209 70.009815 
L 77.274419 98.762543 
L 78.831628 91.469897 
L 80.388837 79.424492 
L 81.946047 98.875545 
L 83.503256 94.632798 
L 85.060465 99.811993 
L 86.617674 71.394205 
L 88.174884 90.882108 
L 89.732093 103.048794 
L 91.289302 76.578813 
L 92.846512 70.589341 
L 94.403721 78.298066 
L 95.96093 104.300192 
L 97.51814 102.975625 
L 99.075349 101.416322 
L 100.632558 101.695182 
L 102.189767 85.190372 
L 103.746977 92.354496 
L 105.304186 88.363823 
L 106.861395 82.00526 
L 108.418605 107.905041 
L 109.975814 92.990067 
L 111.533023 110.032712 
L 113.090233 108.255468 
L 114.647442 108.574084 
L 116.204651 89.496548 
L 117.76186 98.542037 
L 119.31907 78.966096 
L 120.876279 103.881983 
L 122.433488 81.097045 
L 123.990698 89.099513 
L 125.547907 102.079287 
L 127.105116 74.08501 
L 130.219535 86.818098 
L 131.776744 103.849498 
L 133.333953 102.817002 
L 134.891163 85.545331 
L 136.448372 76.721607 
L 139.562791 88.640621 
L 141.12 84.208685 
L 142.677209 75.988956 
L 144.234419 108.343915 
L 145.791628 104.558553 
L 147.348837 103.118436 
L 148.906047 79.695455 
L 150.463256 92.075736 
L 152.020465 108.628276 
L 155.134884 72.830684 
L 156.692093 107.31495 
L 158.249302 82.458713 
L 159.806512 83.732936 
L 161.363721 81.05847 
L 162.92093 105.71856 
L 164.47814 99.604794 
L 166.035349 94.010359 
L 167.592558 91.792052 
L 169.149767 100.357402 
L 170.706977 77.555616 
L 172.264186 108.697694 
L 173.821395 103.483914 
L 175.378605 82.297081 
L 176.935814 83.725367 
L 178.493023 88.578644 
L 180.050233 88.326856 
L 181.607442 90.603459 
L 183.164651 100.562926 
L 184.72186 73.27544 
L 186.27907 81.897014 
L 187.836279 108.698565 
L 189.393488 94.095509 
L 190.950698 74.257645 
L 192.507907 101.715523 
L 194.065116 75.790064 
L 195.622326 73.685166 
L 197.179535 77.164598 
L 198.736744 94.921439 
L 200.293953 101.538188 
L 201.851163 71.896382 
L 204.965581 110.561297 
L 206.522791 97.993427 
L 208.08 109.025234 
L 211.194419 70.101007 
L 212.751628 98.496253 
L 214.308837 94.831408 
L 215.866047 84.566867 
L 217.423256 97.51531 
L 218.980465 89.76497 
L 220.537674 72.956988 
L 222.094884 104.314013 
L 223.652093 74.993313 
L 225.209302 97.636009 
L 226.766512 69.692174 
L 228.323721 88.545431 
L 229.88093 80.079762 
L 231.43814 95.431326 
L 232.995349 97.226368 
L 234.552558 89.096666 
L 236.109767 103.455337 
L 237.666977 85.749194 
L 239.224186 100.626259 
L 240.781395 86.246864 
L 242.338605 85.903827 
L 243.895814 85.342455 
L 245.453023 94.756878 
L 247.010233 76.844199 
L 248.567442 103.184845 
L 250.124651 108.212731 
L 251.68186 97.696527 
L 253.23907 78.183687 
L 254.796279 87.624134 
L 256.353488 76.499883 
L 257.910698 107.775762 
L 259.467907 70.570814 
L 261.025116 70.179919 
L 262.582326 100.870347 
L 264.139535 102.167919 
L 265.696744 99.696966 
L 267.253953 96.550948 
L 268.811163 81.371653 
L 270.368372 102.251656 
L 271.925581 87.418826 
L 273.482791 80.859439 
L 275.04 99.030077 
L 276.597209 83.331076 
L 278.154419 103.06247 
L 279.711628 76.265354 
L 281.268837 78.638874 
L 282.826047 73.098235 
L 284.383256 85.11474 
L 285.940465 102.372996 
L 287.497674 91.485969 
L 289.054884 107.687901 
L 290.612093 99.663531 
L 292.169302 88.016187 
L 293.726512 81.927818 
L 295.283721 72.890709 
L 296.84093 93.809314 
L 298.39814 81.730422 
L 299.955349 83.327453 
L 301.512558 94.717898 
L 303.069767 82.135407 
L 304.626977 99.944692 
L 306.184186 105.711601 
L 307.741395 78.689318 
L 309.298605 84.947784 
L 310.855814 85.951127 
L 312.413023 109.749462 
L 313.970233 90.738568 
L 315.527442 103.466501 
L 317.084651 70.4277 
L 318.64186 104.42297 
L 320.19907 86.481217 
L 321.756279 97.129397 
L 323.313488 83.988661 
L 324.870698 69.631185 
L 326.427907 100.299545 
L 327.985116 70.101789 
L 329.542326 103.82589 
L 331.099535 105.781959 
L 332.656744 85.233706 
L 334.213953 76.448733 
L 335.771163 85.031478 
L 337.328372 91.867034 
L 338.885581 92.065632 
L 340.442791 81.474684 
L 342 95.460568 
L 342 95.460568 
" style="fill:none;stroke:#1f77b4;stroke-linecap:square;stroke-width:1.5;"/>
   </g>
   <g id="line2d_2">
    <path clip-path="url(#p3bb6d19911)" d="M 7.2 110.589586 
L 16.543256 110.589586 
L 19.657674 90.049101 
L 21.214884 81.540953 
L 22.772093 75.012422 
L 24.329302 70.908415 
L 25.886512 69.508615 
L 27.443721 70.908415 
L 29.00093 75.012422 
L 30.55814 81.540953 
L 32.115349 90.049101 
L 33.672558 99.957049 
L 35.229767 110.589586 
L 53.916279 110.589586 
L 57.030698 90.049101 
L 58.587907 81.540953 
L 60.145116 75.012422 
L 61.702326 70.908415 
L 63.259535 69.508615 
L 64.816744 70.908415 
L 66.373953 75.012422 
L 67.931163 81.540953 
L 69.488372 90.049101 
L 71.045581 99.957049 
L 72.602791 110.589586 
L 91.289302 110.589586 
L 94.403721 90.049101 
L 95.96093 81.540953 
L 97.51814 75.012422 
L 99.075349 70.908415 
L 100.632558 69.508615 
L 102.189767 70.908415 
L 103.746977 75.012422 
L 105.304186 81.540953 
L 106.861395 90.049101 
L 108.418605 99.957049 
L 109.975814 110.589586 
L 128.662326 110.589586 
L 131.776744 90.049101 
L 133.333953 81.540953 
L 134.891163 75.012422 
L 136.448372 70.908415 
L 138.005581 69.508615 
L 139.562791 70.908415 
L 141.12 75.012422 
L 142.677209 81.540953 
L 144.234419 90.049101 
L 145.791628 99.957049 
L 147.348837 110.589586 
L 166.035349 110.589586 
L 169.149767 90.049101 
L 170.706977 81.540953 
L 172.264186 75.012422 
L 173.821395 70.908415 
L 175.378605 69.508615 
L 176.935814 70.908415 
L 178.493023 75.012422 
L 180.050233 81.540953 
L 181.607442 90.049101 
L 183.164651 99.957049 
L 184.72186 110.589586 
L 203.408372 110.589586 
L 206.522791 90.049101 
L 208.08 81.540953 
L 209.637209 75.012422 
L 211.194419 70.908415 
L 212.751628 69.508615 
L 214.308837 70.908415 
L 215.866047 75.012422 
L 217.423256 81.540953 
L 218.980465 90.049101 
L 220.537674 99.957049 
L 222.094884 110.589586 
L 240.781395 110.589586 
L 243.895814 90.049101 
L 245.453023 81.540953 
L 247.010233 75.012422 
L 248.567442 70.908415 
L 250.124651 69.508615 
L 251.68186 70.908415 
L 253.23907 75.012422 
L 254.796279 81.540953 
L 256.353488 90.049101 
L 257.910698 99.957049 
L 259.467907 110.589586 
L 278.154419 110.589586 
L 281.268837 90.049101 
L 282.826047 81.540953 
L 284.383256 75.012422 
L 285.940465 70.908415 
L 287.497674 69.508615 
L 289.054884 70.908415 
L 290.612093 75.012422 
L 292.169302 81.540953 
L 293.726512 90.049101 
L 295.283721 99.957049 
L 296.84093 110.589586 
L 315.527442 110.589586 
L 318.64186 90.049101 
L 320.19907 81.540953 
L 321.756279 75.012422 
L 323.313488 70.908415 
L 324.870698 69.508615 
L 326.427907 70.908415 
L 327.985116 75.012422 
L 329.542326 81.540953 
L 331.099535 90.049101 
L 332.656744 99.957049 
L 334.213953 110.589586 
L 342 110.589586 
L 342 110.589586 
" style="fill:none;stroke:#ff7f0e;stroke-linecap:square;stroke-width:1.5;"/>
   </g>
   <g id="line2d_3">
    <path clip-path="url(#p3bb6d19911)" d="M 7.2 110.589586 
L 16.543256 110.589586 
L 18.100465 86.603094 
L 19.657674 44.188249 
L 21.214884 110.589586 
L 22.772093 108.202405 
L 24.329302 110.589586 
L 43.015814 110.589577 
L 44.573023 105.841171 
L 46.130233 50.295939 
L 47.687442 61.82796 
L 49.244651 110.589586 
L 80.388837 110.589586 
L 81.946047 110.040845 
L 83.503256 65.219367 
L 85.060465 51.661967 
L 86.617674 105.401021 
L 88.174884 106.893276 
L 89.732093 81.139552 
L 91.289302 110.589586 
L 105.304186 110.589586 
L 106.861395 73.460597 
L 108.418605 89.363249 
L 109.975814 110.589586 
L 111.533023 63.862828 
L 113.090233 110.589586 
L 123.990698 110.589586 
L 125.547907 95.696097 
L 127.105116 110.103336 
L 128.662326 63.800696 
L 130.219535 40.826836 
L 131.776744 49.006198 
L 133.333953 110.589586 
L 144.234419 110.589586 
L 145.791628 92.709738 
L 147.348837 108.397329 
L 148.906047 94.200084 
L 150.463256 82.641111 
L 152.020465 98.334172 
L 153.577674 110.589586 
L 164.47814 110.589586 
L 166.035349 103.577166 
L 167.592558 35.852882 
L 169.149767 52.498293 
L 170.706977 110.589586 
L 186.27907 110.589586 
L 187.836279 66.018281 
L 189.393488 110.589586 
L 194.065116 110.589583 
L 195.622326 86.166999 
L 197.179535 109.860328 
L 198.736744 110.589586 
L 204.965581 110.589586 
L 206.522791 54.862269 
L 208.08 101.216425 
L 209.637209 110.589586 
L 231.43814 110.589586 
L 232.995349 62.625797 
L 234.552558 62.377294 
L 236.109767 73.33989 
L 237.666977 110.589586 
L 256.353488 110.589586 
L 257.910698 89.492529 
L 259.467907 110.589586 
L 270.368372 110.589586 
L 271.925581 64.055134 
L 273.482791 95.935788 
L 275.04 98.745307 
L 276.597209 100.85727 
L 278.154419 41.300468 
L 279.711628 98.277412 
L 281.268837 110.589586 
L 296.84093 110.589586 
L 298.39814 92.165117 
L 299.955349 91.389394 
L 301.512558 110.589586 
L 313.970233 110.589586 
L 315.527442 40.896437 
L 317.084651 57.217233 
L 318.64186 48.432725 
L 320.19907 110.589586 
L 334.213953 110.589586 
L 335.771163 88.864061 
L 337.328372 82.849813 
L 338.885581 110.589586 
L 342 110.589586 
L 342 110.589586 
" style="fill:none;stroke:#2ca02c;stroke-linecap:square;stroke-width:1.5;"/>
   </g>
   <g id="line2d_4">
    <path clip-path="url(#p3bb6d19911)" d="M 7.2 110.589587 
L 95.96093 110.589587 
L 97.51814 150.63175 
L 99.075349 110.589587 
L 116.204651 110.589587 
L 117.76186 121.483301 
L 119.31907 129.950294 
L 120.876279 110.589587 
L 134.891163 110.589587 
L 136.448372 177.900661 
L 138.005581 157.911277 
L 139.562791 129.333888 
L 141.12 137.04178 
L 142.677209 110.589587 
L 178.493023 110.589587 
L 180.050233 147.423196 
L 181.607442 110.589587 
L 218.980465 110.589587 
L 220.537674 124.311303 
L 222.094884 110.589587 
L 225.209302 110.589587 
L 226.766512 119.96876 
L 228.323721 110.589587 
L 243.895814 110.589587 
L 245.453023 115.484781 
L 247.010233 110.589587 
L 265.696744 110.589587 
L 267.253953 115.848905 
L 268.811163 110.589587 
L 282.826047 110.589587 
L 284.383256 169.254416 
L 285.940465 152.249272 
L 287.497674 149.293959 
L 289.054884 110.589587 
L 323.313488 110.589587 
L 324.870698 160.436642 
L 326.427907 117.674964 
L 327.985116 158.641251 
L 329.542326 131.924162 
L 331.099535 110.589587 
L 340.442791 110.589587 
L 342 124.56477 
L 342 124.56477 
" style="fill:none;stroke:#d62728;stroke-linecap:square;stroke-width:1.5;"/>
   </g>
   <g id="line2d_5">
    <path clip-path="url(#p3bb6d19911)" d="M 7.2 112.997858 
L 8.757209 78.981261 
L 10.314419 71.068064 
L 11.871628 97.90242 
L 13.428837 101.880555 
L 14.986047 95.641684 
L 16.543256 72.726132 
L 18.100465 61.268385 
L 19.657674 110.589586 
L 21.214884 112.261293 
L 22.772093 175.408642 
L 24.329302 181.933 
L 25.886512 137.377785 
L 27.443721 143.896863 
L 29.00093 130.244998 
L 30.55814 153.443843 
L 32.115349 87.595117 
L 33.672558 100.427096 
L 35.229767 130.585765 
L 36.786977 79.340347 
L 38.344186 67.652573 
L 39.901395 121.866707 
L 41.458605 117.065056 
L 43.015814 145.550803 
L 44.573023 110.589587 
L 46.130233 110.589586 
L 47.687442 98.34377 
L 49.244651 71.470902 
L 50.80186 122.167135 
L 53.916279 63.358639 
L 55.473488 57.697267 
L 57.030698 72.733187 
L 58.587907 105.796719 
L 60.145116 174.288245 
L 61.702326 166.837032 
L 63.259535 161.579278 
L 64.816744 134.043272 
L 66.373953 146.875448 
L 67.931163 126.981783 
L 69.488372 98.49478 
L 71.045581 87.215463 
L 72.602791 110.711427 
L 74.16 99.673836 
L 75.717209 104.707031 
L 77.274419 108.199906 
L 78.831628 118.104661 
L 80.388837 140.600846 
L 81.946047 110.589586 
L 89.732093 110.589586 
L 91.289302 67.784124 
L 92.846512 57.055593 
L 94.403721 74.557629 
L 95.96093 105.941466 
L 97.51814 111.351367 
L 99.075349 153.205946 
L 100.632558 139.084747 
L 102.189767 132.784137 
L 103.746977 136.388544 
L 105.304186 147.386229 
L 106.861395 151.33378 
L 108.418605 110.589587 
L 109.975814 118.525699 
L 111.533023 110.589586 
L 113.090233 66.461379 
L 114.647442 98.388364 
L 116.204651 120.07801 
L 117.76186 110.589587 
L 119.31907 110.589587 
L 120.876279 55.970182 
L 122.433488 70.376915 
L 123.990698 87.695714 
L 125.547907 110.589586 
L 131.776744 110.589586 
L 133.333953 107.424657 
L 134.891163 168.823824 
L 136.448372 110.589587 
L 139.562791 110.589587 
L 141.12 118.082162 
L 142.677209 159.761096 
L 144.234419 87.866136 
L 145.791628 110.589586 
L 152.020465 110.589586 
L 153.577674 118.657672 
L 155.134884 147.194655 
L 156.692093 101.60144 
L 158.249302 77.393452 
L 159.806512 67.741025 
L 161.363721 95.736756 
L 162.92093 92.056824 
L 164.47814 84.583552 
L 166.035349 57.364999 
L 167.592558 110.589586 
L 169.149767 110.589587 
L 170.706977 132.686043 
L 172.264186 145.671462 
L 173.821395 151.138355 
L 175.378605 158.482848 
L 176.935814 134.249142 
L 178.493023 140.164395 
L 180.050233 110.589587 
L 181.607442 105.606592 
L 183.164651 96.705364 
L 184.72186 138.240326 
L 186.27907 91.998526 
L 187.836279 110.589586 
L 189.393488 112.866939 
L 190.950698 135.316913 
L 192.507907 118.309815 
L 194.065116 133.126329 
L 195.622326 110.589587 
L 197.179535 75.038622 
L 198.736744 81.873788 
L 200.293953 96.237196 
L 201.851163 112.291964 
L 203.408372 52.565929 
L 204.965581 17.083636 
L 206.522791 110.589586 
L 208.08 110.589586 
L 209.637209 164.150413 
L 211.194419 184.521261 
L 212.751628 142.283676 
L 214.308837 123.143101 
L 215.866047 144.176173 
L 217.423256 138.234742 
L 218.980465 106.445081 
L 220.537674 110.589586 
L 222.094884 107.201752 
L 223.652093 98.902226 
L 225.209302 77.080838 
L 226.766512 127.891101 
L 228.323721 121.029127 
L 229.88093 139.945577 
L 231.43814 113.485064 
L 232.995349 110.589587 
L 236.109767 110.589586 
L 237.666977 112.02619 
L 239.224186 83.562087 
L 240.781395 58.116073 
L 242.338605 41.741107 
L 243.895814 67.513241 
L 245.453023 110.589587 
L 247.010233 177.524957 
L 248.567442 151.437424 
L 250.124651 132.567197 
L 251.68186 120.277982 
L 253.23907 150.559353 
L 254.796279 148.125918 
L 256.353488 119.710168 
L 257.910698 110.589586 
L 259.467907 140.944952 
L 261.025116 103.715621 
L 262.582326 73.846499 
L 264.139535 104.79453 
L 265.696744 109.877592 
L 267.253953 118.215072 
L 268.811163 127.544737 
L 270.368372 57.600509 
L 271.925581 110.589586 
L 278.154419 110.589586 
L 279.711628 63.691754 
L 281.268837 74.216821 
L 282.826047 137.143423 
L 284.383256 110.589587 
L 287.497674 110.589587 
L 289.054884 110.286608 
L 292.169302 147.733865 
L 293.726512 114.282233 
L 295.283721 124.377582 
L 298.39814 110.589587 
L 299.955349 110.589586 
L 301.512558 112.24455 
L 303.069767 127.439151 
L 304.626977 120.080646 
L 306.184186 103.204789 
L 307.741395 81.162847 
L 309.298605 66.526176 
L 310.855814 90.8441 
L 312.413023 88.025922 
L 313.970233 93.449779 
L 315.527442 110.589586 
L 318.64186 110.589586 
L 320.19907 123.760441 
L 321.756279 157.239759 
L 323.313488 170.633607 
L 324.870698 121.301689 
L 326.427907 110.589587 
L 329.542326 110.589587 
L 331.099535 90.428092 
L 334.213953 135.067033 
L 335.771163 110.589586 
L 337.328372 110.589586 
L 338.885581 114.896817 
L 340.442791 128.099874 
L 342 110.589586 
L 342 110.589586 
" style="fill:none;stroke:#9467bd;stroke-linecap:square;stroke-width:1.5;"/>
   </g>
   <g id="line2d_6">
    <path clip-path="url(#p3bb6d19911)" d="M 7.2 122.852369 
L 8.757209 171.916595 
L 10.314419 180.294799 
L 11.871628 154.973533 
L 13.428837 133.993375 
L 14.986047 147.580414 
L 16.543256 187.405822 
L 18.100465 214.756364 
L 19.657674 199.45355 
L 21.214884 150.575734 
L 22.772093 112.976769 
L 24.329302 116.827662 
L 25.886512 132.069802 
L 27.443721 153.475422 
L 29.00093 138.602884 
L 30.55814 125.067341 
L 32.115349 156.099194 
L 33.672558 145.133007 
L 35.229767 120.252994 
L 36.786977 157.87322 
L 38.344186 157.051913 
L 39.901395 124.806311 
L 41.458605 122.194202 
L 43.015814 111.743421 
L 44.573023 122.852369 
L 46.130233 171.916595 
L 47.687442 180.294799 
L 49.244651 154.973533 
L 50.80186 133.993375 
L 52.35907 147.580414 
L 53.916279 187.405822 
L 55.473488 214.756364 
L 57.030698 199.45355 
L 58.587907 150.575734 
L 60.145116 112.976769 
L 61.702326 116.827662 
L 63.259535 132.069802 
L 64.816744 153.475422 
L 66.373953 138.602884 
L 67.931163 125.067341 
L 69.488372 156.099194 
L 71.045581 145.133007 
L 72.602791 120.252994 
L 74.16 157.87322 
L 75.717209 157.051913 
L 77.274419 124.806311 
L 78.831628 122.194202 
L 80.388837 111.743421 
L 81.946047 122.852369 
L 83.503256 171.916595 
L 85.060465 180.294799 
L 86.617674 154.973533 
L 88.174884 133.993375 
L 89.732093 147.580414 
L 91.289302 187.405822 
L 92.846512 214.756364 
L 94.403721 199.45355 
L 95.96093 150.575734 
L 97.51814 112.976769 
L 99.075349 116.827662 
L 100.632558 132.069802 
L 102.189767 153.475422 
L 103.746977 138.602884 
L 105.304186 125.067341 
L 106.861395 156.099194 
L 108.418605 145.133007 
L 109.975814 120.252994 
L 111.533023 157.87322 
L 113.090233 157.051913 
L 114.647442 124.806311 
L 116.204651 122.194202 
L 117.76186 111.743421 
L 119.31907 122.852369 
L 120.876279 171.916595 
L 122.433488 180.294799 
L 123.990698 154.973533 
L 125.547907 133.993375 
L 127.105116 147.580414 
L 128.662326 187.405822 
L 130.219535 214.756364 
L 131.776744 199.45355 
L 133.333953 150.575734 
L 134.891163 112.976769 
L 136.448372 116.827662 
L 138.005581 132.069802 
L 139.562791 153.475422 
L 141.12 138.602884 
L 142.677209 125.067341 
L 144.234419 156.099194 
L 145.791628 145.133007 
L 147.348837 120.252994 
L 148.906047 157.87322 
L 150.463256 157.051913 
L 152.020465 124.806311 
L 153.577674 122.194202 
L 155.134884 111.743421 
L 156.692093 122.852369 
L 158.249302 171.916595 
L 159.806512 180.294799 
L 161.363721 154.973533 
L 162.92093 133.993375 
L 164.47814 147.580414 
L 166.035349 187.405822 
L 167.592558 214.756364 
L 169.149767 199.45355 
L 170.706977 150.575734 
L 172.264186 112.976769 
L 173.821395 116.827662 
L 175.378605 132.069802 
L 176.935814 153.475422 
L 178.493023 138.602884 
L 180.050233 125.067341 
L 181.607442 156.099194 
L 183.164651 145.133007 
L 184.72186 120.252994 
L 186.27907 157.87322 
L 187.836279 157.051913 
L 189.393488 124.806311 
L 190.950698 122.194202 
L 192.507907 111.743421 
L 194.065116 122.852369 
L 195.622326 171.916595 
L 197.179535 180.294799 
L 198.736744 154.973533 
L 200.293953 133.993375 
L 201.851163 147.580414 
L 203.408372 187.405822 
L 204.965581 214.756364 
L 206.522791 199.45355 
L 208.08 150.575734 
L 209.637209 112.976769 
L 211.194419 116.827662 
L 212.751628 132.069802 
L 214.308837 153.475422 
L 215.866047 138.602884 
L 217.423256 125.067341 
L 218.980465 156.099194 
L 220.537674 145.133007 
L 222.094884 120.252994 
L 223.652093 157.87322 
L 225.209302 157.051913 
L 226.766512 124.806311 
L 228.323721 122.194202 
L 229.88093 111.743421 
L 231.43814 122.852369 
L 232.995349 171.916595 
L 234.552558 180.294799 
L 236.109767 154.973533 
L 237.666977 133.993375 
L 239.224186 147.580414 
L 240.781395 187.405822 
L 242.338605 214.756364 
L 243.895814 199.45355 
L 245.453023 150.575734 
L 247.010233 112.976769 
L 248.567442 116.827662 
L 250.124651 132.069802 
L 251.68186 153.475422 
L 253.23907 138.602884 
L 254.796279 125.067341 
L 256.353488 156.099194 
L 257.910698 145.133007 
L 259.467907 120.252994 
L 261.025116 157.87322 
L 262.582326 157.051913 
L 264.139535 124.806311 
L 265.696744 122.194202 
L 267.253953 111.743421 
L 268.811163 122.852369 
L 270.368372 171.916595 
L 271.925581 180.294799 
L 273.482791 154.973533 
L 275.04 133.993375 
L 276.597209 147.580414 
L 278.154419 187.405822 
L 279.711628 214.756364 
L 281.268837 199.45355 
L 282.826047 150.575734 
L 284.383256 112.976769 
L 285.940465 116.827662 
L 287.497674 132.069802 
L 289.054884 153.475422 
L 290.612093 138.602884 
L 292.169302 125.067341 
L 293.726512 156.099194 
L 295.283721 145.133007 
L 296.84093 120.252994 
L 298.39814 157.87322 
L 299.955349 157.051913 
L 301.512558 124.806311 
L 303.069767 122.194202 
L 304.626977 111.743421 
L 306.184186 122.852369 
L 307.741395 171.916595 
L 309.298605 180.294799 
L 310.855814 154.973533 
L 312.413023 133.993375 
L 313.970233 147.580414 
L 315.527442 187.405822 
L 317.084651 214.756364 
L 318.64186 199.45355 
L 320.19907 150.575734 
L 321.756279 112.976769 
L 323.313488 116.827662 
L 324.870698 132.069802 
L 326.427907 153.475422 
L 327.985116 138.602884 
L 329.542326 125.067341 
L 331.099535 156.099194 
L 332.656744 145.133007 
L 334.213953 120.252994 
L 335.771163 157.87322 
L 337.328372 157.051913 
L 338.885581 124.806311 
L 340.442791 122.194202 
L 342 111.743421 
L 342 111.743421 
" style="fill:none;stroke:#8c564b;stroke-linecap:square;stroke-width:1.5;"/>
   </g>
   <g id="legend_1">
    <g id="patch_2">
     <path d="M 164.015625 219.64 
L 335 219.64 
Q 337 219.64 337 217.64 
L 337 130.57125 
Q 337 128.57125 335 128.57125 
L 164.015625 128.57125 
Q 162.015625 128.57125 162.015625 130.57125 
L 162.015625 217.64 
Q 162.015625 219.64 164.015625 219.64 
z
" style="fill:#ffffff;opacity:0.8;stroke:#cccccc;stroke-linejoin:miter;"/>
    </g>
    <g id="line2d_7">
     <path d="M 166.015625 136.669687 
L 186.015625 136.669687 
" style="fill:none;stroke:#1f77b4;stroke-linecap:square;stroke-width:1.5;"/>
    </g>
    <g id="line2d_8"/>
    <g id="text_1">
     <!-- wind (green sources) -->
     <g transform="translate(194.015625 140.169687)scale(0.1 -0.1)">
      <defs>
       <path d="M 4.203125 54.6875 
L 13.1875 54.6875 
L 24.421875 12.015625 
L 35.59375 54.6875 
L 46.1875 54.6875 
L 57.421875 12.015625 
L 68.609375 54.6875 
L 77.59375 54.6875 
L 63.28125 0 
L 52.6875 0 
L 40.921875 44.828125 
L 29.109375 0 
L 18.5 0 
z
" id="DejaVuSans-119"/>
       <path d="M 9.421875 54.6875 
L 18.40625 54.6875 
L 18.40625 0 
L 9.421875 0 
z
M 9.421875 75.984375 
L 18.40625 75.984375 
L 18.40625 64.59375 
L 9.421875 64.59375 
z
" id="DejaVuSans-105"/>
       <path d="M 54.890625 33.015625 
L 54.890625 0 
L 45.90625 0 
L 45.90625 32.71875 
Q 45.90625 40.484375 42.875 44.328125 
Q 39.84375 48.1875 33.796875 48.1875 
Q 26.515625 48.1875 22.3125 43.546875 
Q 18.109375 38.921875 18.109375 30.90625 
L 18.109375 0 
L 9.078125 0 
L 9.078125 54.6875 
L 18.109375 54.6875 
L 18.109375 46.1875 
Q 21.34375 51.125 25.703125 53.5625 
Q 30.078125 56 35.796875 56 
Q 45.21875 56 50.046875 50.171875 
Q 54.890625 44.34375 54.890625 33.015625 
z
" id="DejaVuSans-110"/>
       <path d="M 45.40625 46.390625 
L 45.40625 75.984375 
L 54.390625 75.984375 
L 54.390625 0 
L 45.40625 0 
L 45.40625 8.203125 
Q 42.578125 3.328125 38.25 0.953125 
Q 33.9375 -1.421875 27.875 -1.421875 
Q 17.96875 -1.421875 11.734375 6.484375 
Q 5.515625 14.40625 5.515625 27.296875 
Q 5.515625 40.1875 11.734375 48.09375 
Q 17.96875 56 27.875 56 
Q 33.9375 56 38.25 53.625 
Q 42.578125 51.265625 45.40625 46.390625 
z
M 14.796875 27.296875 
Q 14.796875 17.390625 18.875 11.75 
Q 22.953125 6.109375 30.078125 6.109375 
Q 37.203125 6.109375 41.296875 11.75 
Q 45.40625 17.390625 45.40625 27.296875 
Q 45.40625 37.203125 41.296875 42.84375 
Q 37.203125 48.484375 30.078125 48.484375 
Q 22.953125 48.484375 18.875 42.84375 
Q 14.796875 37.203125 14.796875 27.296875 
z
" id="DejaVuSans-100"/>
       <path id="DejaVuSans-32"/>
       <path d="M 31 75.875 
Q 24.46875 64.65625 21.28125 53.65625 
Q 18.109375 42.671875 18.109375 31.390625 
Q 18.109375 20.125 21.3125 9.0625 
Q 24.515625 -2 31 -13.1875 
L 23.1875 -13.1875 
Q 15.875 -1.703125 12.234375 9.375 
Q 8.59375 20.453125 8.59375 31.390625 
Q 8.59375 42.28125 12.203125 53.3125 
Q 15.828125 64.359375 23.1875 75.875 
z
" id="DejaVuSans-40"/>
       <path d="M 45.40625 27.984375 
Q 45.40625 37.75 41.375 43.109375 
Q 37.359375 48.484375 30.078125 48.484375 
Q 22.859375 48.484375 18.828125 43.109375 
Q 14.796875 37.75 14.796875 27.984375 
Q 14.796875 18.265625 18.828125 12.890625 
Q 22.859375 7.515625 30.078125 7.515625 
Q 37.359375 7.515625 41.375 12.890625 
Q 45.40625 18.265625 45.40625 27.984375 
z
M 54.390625 6.78125 
Q 54.390625 -7.171875 48.1875 -13.984375 
Q 42 -20.796875 29.203125 -20.796875 
Q 24.46875 -20.796875 20.265625 -20.09375 
Q 16.0625 -19.390625 12.109375 -17.921875 
L 12.109375 -9.1875 
Q 16.0625 -11.328125 19.921875 -12.34375 
Q 23.78125 -13.375 27.78125 -13.375 
Q 36.625 -13.375 41.015625 -8.765625 
Q 45.40625 -4.15625 45.40625 5.171875 
L 45.40625 9.625 
Q 42.625 4.78125 38.28125 2.390625 
Q 33.9375 0 27.875 0 
Q 17.828125 0 11.671875 7.65625 
Q 5.515625 15.328125 5.515625 27.984375 
Q 5.515625 40.671875 11.671875 48.328125 
Q 17.828125 56 27.875 56 
Q 33.9375 56 38.28125 53.609375 
Q 42.625 51.21875 45.40625 46.390625 
L 45.40625 54.6875 
L 54.390625 54.6875 
z
" id="DejaVuSans-103"/>
       <path d="M 41.109375 46.296875 
Q 39.59375 47.171875 37.8125 47.578125 
Q 36.03125 48 33.890625 48 
Q 26.265625 48 22.1875 43.046875 
Q 18.109375 38.09375 18.109375 28.8125 
L 18.109375 0 
L 9.078125 0 
L 9.078125 54.6875 
L 18.109375 54.6875 
L 18.109375 46.1875 
Q 20.953125 51.171875 25.484375 53.578125 
Q 30.03125 56 36.53125 56 
Q 37.453125 56 38.578125 55.875 
Q 39.703125 55.765625 41.0625 55.515625 
z
" id="DejaVuSans-114"/>
       <path d="M 56.203125 29.59375 
L 56.203125 25.203125 
L 14.890625 25.203125 
Q 15.484375 15.921875 20.484375 11.0625 
Q 25.484375 6.203125 34.421875 6.203125 
Q 39.59375 6.203125 44.453125 7.46875 
Q 49.3125 8.734375 54.109375 11.28125 
L 54.109375 2.78125 
Q 49.265625 0.734375 44.1875 -0.34375 
Q 39.109375 -1.421875 33.890625 -1.421875 
Q 20.796875 -1.421875 13.15625 6.1875 
Q 5.515625 13.8125 5.515625 26.8125 
Q 5.515625 40.234375 12.765625 48.109375 
Q 20.015625 56 32.328125 56 
Q 43.359375 56 49.78125 48.890625 
Q 56.203125 41.796875 56.203125 29.59375 
z
M 47.21875 32.234375 
Q 47.125 39.59375 43.09375 43.984375 
Q 39.0625 48.390625 32.421875 48.390625 
Q 24.90625 48.390625 20.390625 44.140625 
Q 15.875 39.890625 15.1875 32.171875 
z
" id="DejaVuSans-101"/>
       <path d="M 44.28125 53.078125 
L 44.28125 44.578125 
Q 40.484375 46.53125 36.375 47.5 
Q 32.28125 48.484375 27.875 48.484375 
Q 21.1875 48.484375 17.84375 46.4375 
Q 14.5 44.390625 14.5 40.28125 
Q 14.5 37.15625 16.890625 35.375 
Q 19.28125 33.59375 26.515625 31.984375 
L 29.59375 31.296875 
Q 39.15625 29.25 43.1875 25.515625 
Q 47.21875 21.78125 47.21875 15.09375 
Q 47.21875 7.46875 41.1875 3.015625 
Q 35.15625 -1.421875 24.609375 -1.421875 
Q 20.21875 -1.421875 15.453125 -0.5625 
Q 10.6875 0.296875 5.421875 2 
L 5.421875 11.28125 
Q 10.40625 8.6875 15.234375 7.390625 
Q 20.0625 6.109375 24.8125 6.109375 
Q 31.15625 6.109375 34.5625 8.28125 
Q 37.984375 10.453125 37.984375 14.40625 
Q 37.984375 18.0625 35.515625 20.015625 
Q 33.0625 21.96875 24.703125 23.78125 
L 21.578125 24.515625 
Q 13.234375 26.265625 9.515625 29.90625 
Q 5.8125 33.546875 5.8125 39.890625 
Q 5.8125 47.609375 11.28125 51.796875 
Q 16.75 56 26.8125 56 
Q 31.78125 56 36.171875 55.265625 
Q 40.578125 54.546875 44.28125 53.078125 
z
" id="DejaVuSans-115"/>
       <path d="M 30.609375 48.390625 
Q 23.390625 48.390625 19.1875 42.75 
Q 14.984375 37.109375 14.984375 27.296875 
Q 14.984375 17.484375 19.15625 11.84375 
Q 23.34375 6.203125 30.609375 6.203125 
Q 37.796875 6.203125 41.984375 11.859375 
Q 46.1875 17.53125 46.1875 27.296875 
Q 46.1875 37.015625 41.984375 42.703125 
Q 37.796875 48.390625 30.609375 48.390625 
z
M 30.609375 56 
Q 42.328125 56 49.015625 48.375 
Q 55.71875 40.765625 55.71875 27.296875 
Q 55.71875 13.875 49.015625 6.21875 
Q 42.328125 -1.421875 30.609375 -1.421875 
Q 18.84375 -1.421875 12.171875 6.21875 
Q 5.515625 13.875 5.515625 27.296875 
Q 5.515625 40.765625 12.171875 48.375 
Q 18.84375 56 30.609375 56 
z
" id="DejaVuSans-111"/>
       <path d="M 8.5 21.578125 
L 8.5 54.6875 
L 17.484375 54.6875 
L 17.484375 21.921875 
Q 17.484375 14.15625 20.5 10.265625 
Q 23.53125 6.390625 29.59375 6.390625 
Q 36.859375 6.390625 41.078125 11.03125 
Q 45.3125 15.671875 45.3125 23.6875 
L 45.3125 54.6875 
L 54.296875 54.6875 
L 54.296875 0 
L 45.3125 0 
L 45.3125 8.40625 
Q 42.046875 3.421875 37.71875 1 
Q 33.40625 -1.421875 27.6875 -1.421875 
Q 18.265625 -1.421875 13.375 4.4375 
Q 8.5 10.296875 8.5 21.578125 
z
M 31.109375 56 
z
" id="DejaVuSans-117"/>
       <path d="M 48.78125 52.59375 
L 48.78125 44.1875 
Q 44.96875 46.296875 41.140625 47.34375 
Q 37.3125 48.390625 33.40625 48.390625 
Q 24.65625 48.390625 19.8125 42.84375 
Q 14.984375 37.3125 14.984375 27.296875 
Q 14.984375 17.28125 19.8125 11.734375 
Q 24.65625 6.203125 33.40625 6.203125 
Q 37.3125 6.203125 41.140625 7.25 
Q 44.96875 8.296875 48.78125 10.40625 
L 48.78125 2.09375 
Q 45.015625 0.34375 40.984375 -0.53125 
Q 36.96875 -1.421875 32.421875 -1.421875 
Q 20.0625 -1.421875 12.78125 6.34375 
Q 5.515625 14.109375 5.515625 27.296875 
Q 5.515625 40.671875 12.859375 48.328125 
Q 20.21875 56 33.015625 56 
Q 37.15625 56 41.109375 55.140625 
Q 45.0625 54.296875 48.78125 52.59375 
z
" id="DejaVuSans-99"/>
       <path d="M 8.015625 75.875 
L 15.828125 75.875 
Q 23.140625 64.359375 26.78125 53.3125 
Q 30.421875 42.28125 30.421875 31.390625 
Q 30.421875 20.453125 26.78125 9.375 
Q 23.140625 -1.703125 15.828125 -13.1875 
L 8.015625 -13.1875 
Q 14.5 -2 17.703125 9.0625 
Q 20.90625 20.125 20.90625 31.390625 
Q 20.90625 42.671875 17.703125 53.65625 
Q 14.5 64.65625 8.015625 75.875 
z
" id="DejaVuSans-41"/>
      </defs>
      <use xlink:href="#DejaVuSans-119"/>
      <use x="81.787109" xlink:href="#DejaVuSans-105"/>
      <use x="109.570312" xlink:href="#DejaVuSans-110"/>
      <use x="172.949219" xlink:href="#DejaVuSans-100"/>
      <use x="236.425781" xlink:href="#DejaVuSans-32"/>
      <use x="268.212891" xlink:href="#DejaVuSans-40"/>
      <use x="307.226562" xlink:href="#DejaVuSans-103"/>
      <use x="370.703125" xlink:href="#DejaVuSans-114"/>
      <use x="409.566406" xlink:href="#DejaVuSans-101"/>
      <use x="471.089844" xlink:href="#DejaVuSans-101"/>
      <use x="532.613281" xlink:href="#DejaVuSans-110"/>
      <use x="595.992188" xlink:href="#DejaVuSans-32"/>
      <use x="627.779297" xlink:href="#DejaVuSans-115"/>
      <use x="679.878906" xlink:href="#DejaVuSans-111"/>
      <use x="741.060547" xlink:href="#DejaVuSans-117"/>
      <use x="804.439453" xlink:href="#DejaVuSans-114"/>
      <use x="843.302734" xlink:href="#DejaVuSans-99"/>
      <use x="898.283203" xlink:href="#DejaVuSans-101"/>
      <use x="959.806641" xlink:href="#DejaVuSans-115"/>
      <use x="1011.90625" xlink:href="#DejaVuSans-41"/>
     </g>
    </g>
    <g id="line2d_9">
     <path d="M 166.015625 151.347812 
L 186.015625 151.347812 
" style="fill:none;stroke:#ff7f0e;stroke-linecap:square;stroke-width:1.5;"/>
    </g>
    <g id="line2d_10"/>
    <g id="text_2">
     <!-- PV (green sources) -->
     <g transform="translate(194.015625 154.847812)scale(0.1 -0.1)">
      <defs>
       <path d="M 19.671875 64.796875 
L 19.671875 37.40625 
L 32.078125 37.40625 
Q 38.96875 37.40625 42.71875 40.96875 
Q 46.484375 44.53125 46.484375 51.125 
Q 46.484375 57.671875 42.71875 61.234375 
Q 38.96875 64.796875 32.078125 64.796875 
z
M 9.8125 72.90625 
L 32.078125 72.90625 
Q 44.34375 72.90625 50.609375 67.359375 
Q 56.890625 61.8125 56.890625 51.125 
Q 56.890625 40.328125 50.609375 34.8125 
Q 44.34375 29.296875 32.078125 29.296875 
L 19.671875 29.296875 
L 19.671875 0 
L 9.8125 0 
z
" id="DejaVuSans-80"/>
       <path d="M 28.609375 0 
L 0.78125 72.90625 
L 11.078125 72.90625 
L 34.1875 11.53125 
L 57.328125 72.90625 
L 67.578125 72.90625 
L 39.796875 0 
z
" id="DejaVuSans-86"/>
      </defs>
      <use xlink:href="#DejaVuSans-80"/>
      <use x="60.302734" xlink:href="#DejaVuSans-86"/>
      <use x="128.710938" xlink:href="#DejaVuSans-32"/>
      <use x="160.498047" xlink:href="#DejaVuSans-40"/>
      <use x="199.511719" xlink:href="#DejaVuSans-103"/>
      <use x="262.988281" xlink:href="#DejaVuSans-114"/>
      <use x="301.851562" xlink:href="#DejaVuSans-101"/>
      <use x="363.375" xlink:href="#DejaVuSans-101"/>
      <use x="424.898438" xlink:href="#DejaVuSans-110"/>
      <use x="488.277344" xlink:href="#DejaVuSans-32"/>
      <use x="520.064453" xlink:href="#DejaVuSans-115"/>
      <use x="572.164062" xlink:href="#DejaVuSans-111"/>
      <use x="633.345703" xlink:href="#DejaVuSans-117"/>
      <use x="696.724609" xlink:href="#DejaVuSans-114"/>
      <use x="735.587891" xlink:href="#DejaVuSans-99"/>
      <use x="790.568359" xlink:href="#DejaVuSans-101"/>
      <use x="852.091797" xlink:href="#DejaVuSans-115"/>
      <use x="904.191406" xlink:href="#DejaVuSans-41"/>
     </g>
    </g>
    <g id="line2d_11">
     <path d="M 166.015625 166.025937 
L 186.015625 166.025937 
" style="fill:none;stroke:#2ca02c;stroke-linecap:square;stroke-width:1.5;"/>
    </g>
    <g id="line2d_12"/>
    <g id="text_3">
     <!-- spot market (grey sources) -->
     <g transform="translate(194.015625 169.525937)scale(0.1 -0.1)">
      <defs>
       <path d="M 18.109375 8.203125 
L 18.109375 -20.796875 
L 9.078125 -20.796875 
L 9.078125 54.6875 
L 18.109375 54.6875 
L 18.109375 46.390625 
Q 20.953125 51.265625 25.265625 53.625 
Q 29.59375 56 35.59375 56 
Q 45.5625 56 51.78125 48.09375 
Q 58.015625 40.1875 58.015625 27.296875 
Q 58.015625 14.40625 51.78125 6.484375 
Q 45.5625 -1.421875 35.59375 -1.421875 
Q 29.59375 -1.421875 25.265625 0.953125 
Q 20.953125 3.328125 18.109375 8.203125 
z
M 48.6875 27.296875 
Q 48.6875 37.203125 44.609375 42.84375 
Q 40.53125 48.484375 33.40625 48.484375 
Q 26.265625 48.484375 22.1875 42.84375 
Q 18.109375 37.203125 18.109375 27.296875 
Q 18.109375 17.390625 22.1875 11.75 
Q 26.265625 6.109375 33.40625 6.109375 
Q 40.53125 6.109375 44.609375 11.75 
Q 48.6875 17.390625 48.6875 27.296875 
z
" id="DejaVuSans-112"/>
       <path d="M 18.3125 70.21875 
L 18.3125 54.6875 
L 36.8125 54.6875 
L 36.8125 47.703125 
L 18.3125 47.703125 
L 18.3125 18.015625 
Q 18.3125 11.328125 20.140625 9.421875 
Q 21.96875 7.515625 27.59375 7.515625 
L 36.8125 7.515625 
L 36.8125 0 
L 27.59375 0 
Q 17.1875 0 13.234375 3.875 
Q 9.28125 7.765625 9.28125 18.015625 
L 9.28125 47.703125 
L 2.6875 47.703125 
L 2.6875 54.6875 
L 9.28125 54.6875 
L 9.28125 70.21875 
z
" id="DejaVuSans-116"/>
       <path d="M 52 44.1875 
Q 55.375 50.25 60.0625 53.125 
Q 64.75 56 71.09375 56 
Q 79.640625 56 84.28125 50.015625 
Q 88.921875 44.046875 88.921875 33.015625 
L 88.921875 0 
L 79.890625 0 
L 79.890625 32.71875 
Q 79.890625 40.578125 77.09375 44.375 
Q 74.3125 48.1875 68.609375 48.1875 
Q 61.625 48.1875 57.5625 43.546875 
Q 53.515625 38.921875 53.515625 30.90625 
L 53.515625 0 
L 44.484375 0 
L 44.484375 32.71875 
Q 44.484375 40.625 41.703125 44.40625 
Q 38.921875 48.1875 33.109375 48.1875 
Q 26.21875 48.1875 22.15625 43.53125 
Q 18.109375 38.875 18.109375 30.90625 
L 18.109375 0 
L 9.078125 0 
L 9.078125 54.6875 
L 18.109375 54.6875 
L 18.109375 46.1875 
Q 21.1875 51.21875 25.484375 53.609375 
Q 29.78125 56 35.6875 56 
Q 41.65625 56 45.828125 52.96875 
Q 50 49.953125 52 44.1875 
z
" id="DejaVuSans-109"/>
       <path d="M 34.28125 27.484375 
Q 23.390625 27.484375 19.1875 25 
Q 14.984375 22.515625 14.984375 16.5 
Q 14.984375 11.71875 18.140625 8.90625 
Q 21.296875 6.109375 26.703125 6.109375 
Q 34.1875 6.109375 38.703125 11.40625 
Q 43.21875 16.703125 43.21875 25.484375 
L 43.21875 27.484375 
z
M 52.203125 31.203125 
L 52.203125 0 
L 43.21875 0 
L 43.21875 8.296875 
Q 40.140625 3.328125 35.546875 0.953125 
Q 30.953125 -1.421875 24.3125 -1.421875 
Q 15.921875 -1.421875 10.953125 3.296875 
Q 6 8.015625 6 15.921875 
Q 6 25.140625 12.171875 29.828125 
Q 18.359375 34.515625 30.609375 34.515625 
L 43.21875 34.515625 
L 43.21875 35.40625 
Q 43.21875 41.609375 39.140625 45 
Q 35.0625 48.390625 27.6875 48.390625 
Q 23 48.390625 18.546875 47.265625 
Q 14.109375 46.140625 10.015625 43.890625 
L 10.015625 52.203125 
Q 14.9375 54.109375 19.578125 55.046875 
Q 24.21875 56 28.609375 56 
Q 40.484375 56 46.34375 49.84375 
Q 52.203125 43.703125 52.203125 31.203125 
z
" id="DejaVuSans-97"/>
       <path d="M 9.078125 75.984375 
L 18.109375 75.984375 
L 18.109375 31.109375 
L 44.921875 54.6875 
L 56.390625 54.6875 
L 27.390625 29.109375 
L 57.625 0 
L 45.90625 0 
L 18.109375 26.703125 
L 18.109375 0 
L 9.078125 0 
z
" id="DejaVuSans-107"/>
       <path d="M 32.171875 -5.078125 
Q 28.375 -14.84375 24.75 -17.8125 
Q 21.140625 -20.796875 15.09375 -20.796875 
L 7.90625 -20.796875 
L 7.90625 -13.28125 
L 13.1875 -13.28125 
Q 16.890625 -13.28125 18.9375 -11.515625 
Q 21 -9.765625 23.484375 -3.21875 
L 25.09375 0.875 
L 2.984375 54.6875 
L 12.5 54.6875 
L 29.59375 11.921875 
L 46.6875 54.6875 
L 56.203125 54.6875 
z
" id="DejaVuSans-121"/>
      </defs>
      <use xlink:href="#DejaVuSans-115"/>
      <use x="52.099609" xlink:href="#DejaVuSans-112"/>
      <use x="115.576172" xlink:href="#DejaVuSans-111"/>
      <use x="176.757812" xlink:href="#DejaVuSans-116"/>
      <use x="215.966797" xlink:href="#DejaVuSans-32"/>
      <use x="247.753906" xlink:href="#DejaVuSans-109"/>
      <use x="345.166016" xlink:href="#DejaVuSans-97"/>
      <use x="406.445312" xlink:href="#DejaVuSans-114"/>
      <use x="447.558594" xlink:href="#DejaVuSans-107"/>
      <use x="501.84375" xlink:href="#DejaVuSans-101"/>
      <use x="563.367188" xlink:href="#DejaVuSans-116"/>
      <use x="602.576172" xlink:href="#DejaVuSans-32"/>
      <use x="634.363281" xlink:href="#DejaVuSans-40"/>
      <use x="673.376953" xlink:href="#DejaVuSans-103"/>
      <use x="736.853516" xlink:href="#DejaVuSans-114"/>
      <use x="775.716797" xlink:href="#DejaVuSans-101"/>
      <use x="837.240234" xlink:href="#DejaVuSans-121"/>
      <use x="896.419922" xlink:href="#DejaVuSans-32"/>
      <use x="928.207031" xlink:href="#DejaVuSans-115"/>
      <use x="980.306641" xlink:href="#DejaVuSans-111"/>
      <use x="1041.488281" xlink:href="#DejaVuSans-117"/>
      <use x="1104.867188" xlink:href="#DejaVuSans-114"/>
      <use x="1143.730469" xlink:href="#DejaVuSans-99"/>
      <use x="1198.710938" xlink:href="#DejaVuSans-101"/>
      <use x="1260.234375" xlink:href="#DejaVuSans-115"/>
      <use x="1312.333984" xlink:href="#DejaVuSans-41"/>
     </g>
    </g>
    <g id="line2d_13">
     <path d="M 166.015625 180.704062 
L 186.015625 180.704062 
" style="fill:none;stroke:#d62728;stroke-linecap:square;stroke-width:1.5;"/>
    </g>
    <g id="line2d_14"/>
    <g id="text_4">
     <!-- green sales (green sources) -->
     <g transform="translate(194.015625 184.204062)scale(0.1 -0.1)">
      <defs>
       <path d="M 9.421875 75.984375 
L 18.40625 75.984375 
L 18.40625 0 
L 9.421875 0 
z
" id="DejaVuSans-108"/>
      </defs>
      <use xlink:href="#DejaVuSans-103"/>
      <use x="63.476562" xlink:href="#DejaVuSans-114"/>
      <use x="102.339844" xlink:href="#DejaVuSans-101"/>
      <use x="163.863281" xlink:href="#DejaVuSans-101"/>
      <use x="225.386719" xlink:href="#DejaVuSans-110"/>
      <use x="288.765625" xlink:href="#DejaVuSans-32"/>
      <use x="320.552734" xlink:href="#DejaVuSans-115"/>
      <use x="372.652344" xlink:href="#DejaVuSans-97"/>
      <use x="433.931641" xlink:href="#DejaVuSans-108"/>
      <use x="461.714844" xlink:href="#DejaVuSans-101"/>
      <use x="523.238281" xlink:href="#DejaVuSans-115"/>
      <use x="575.337891" xlink:href="#DejaVuSans-32"/>
      <use x="607.125" xlink:href="#DejaVuSans-40"/>
      <use x="646.138672" xlink:href="#DejaVuSans-103"/>
      <use x="709.615234" xlink:href="#DejaVuSans-114"/>
      <use x="748.478516" xlink:href="#DejaVuSans-101"/>
      <use x="810.001953" xlink:href="#DejaVuSans-101"/>
      <use x="871.525391" xlink:href="#DejaVuSans-110"/>
      <use x="934.904297" xlink:href="#DejaVuSans-32"/>
      <use x="966.691406" xlink:href="#DejaVuSans-115"/>
      <use x="1018.791016" xlink:href="#DejaVuSans-111"/>
      <use x="1079.972656" xlink:href="#DejaVuSans-117"/>
      <use x="1143.351562" xlink:href="#DejaVuSans-114"/>
      <use x="1182.214844" xlink:href="#DejaVuSans-99"/>
      <use x="1237.195312" xlink:href="#DejaVuSans-101"/>
      <use x="1298.71875" xlink:href="#DejaVuSans-115"/>
      <use x="1350.818359" xlink:href="#DejaVuSans-41"/>
     </g>
    </g>
    <g id="line2d_15">
     <path d="M 166.015625 195.382187 
L 186.015625 195.382187 
" style="fill:none;stroke:#9467bd;stroke-linecap:square;stroke-width:1.5;"/>
    </g>
    <g id="line2d_16"/>
    <g id="text_5">
     <!-- battery (green sources) -->
     <g transform="translate(194.015625 198.882187)scale(0.1 -0.1)">
      <defs>
       <path d="M 48.6875 27.296875 
Q 48.6875 37.203125 44.609375 42.84375 
Q 40.53125 48.484375 33.40625 48.484375 
Q 26.265625 48.484375 22.1875 42.84375 
Q 18.109375 37.203125 18.109375 27.296875 
Q 18.109375 17.390625 22.1875 11.75 
Q 26.265625 6.109375 33.40625 6.109375 
Q 40.53125 6.109375 44.609375 11.75 
Q 48.6875 17.390625 48.6875 27.296875 
z
M 18.109375 46.390625 
Q 20.953125 51.265625 25.265625 53.625 
Q 29.59375 56 35.59375 56 
Q 45.5625 56 51.78125 48.09375 
Q 58.015625 40.1875 58.015625 27.296875 
Q 58.015625 14.40625 51.78125 6.484375 
Q 45.5625 -1.421875 35.59375 -1.421875 
Q 29.59375 -1.421875 25.265625 0.953125 
Q 20.953125 3.328125 18.109375 8.203125 
L 18.109375 0 
L 9.078125 0 
L 9.078125 75.984375 
L 18.109375 75.984375 
z
" id="DejaVuSans-98"/>
      </defs>
      <use xlink:href="#DejaVuSans-98"/>
      <use x="63.476562" xlink:href="#DejaVuSans-97"/>
      <use x="124.755859" xlink:href="#DejaVuSans-116"/>
      <use x="163.964844" xlink:href="#DejaVuSans-116"/>
      <use x="203.173828" xlink:href="#DejaVuSans-101"/>
      <use x="264.697266" xlink:href="#DejaVuSans-114"/>
      <use x="305.810547" xlink:href="#DejaVuSans-121"/>
      <use x="364.990234" xlink:href="#DejaVuSans-32"/>
      <use x="396.777344" xlink:href="#DejaVuSans-40"/>
      <use x="435.791016" xlink:href="#DejaVuSans-103"/>
      <use x="499.267578" xlink:href="#DejaVuSans-114"/>
      <use x="538.130859" xlink:href="#DejaVuSans-101"/>
      <use x="599.654297" xlink:href="#DejaVuSans-101"/>
      <use x="661.177734" xlink:href="#DejaVuSans-110"/>
      <use x="724.556641" xlink:href="#DejaVuSans-32"/>
      <use x="756.34375" xlink:href="#DejaVuSans-115"/>
      <use x="808.443359" xlink:href="#DejaVuSans-111"/>
      <use x="869.625" xlink:href="#DejaVuSans-117"/>
      <use x="933.003906" xlink:href="#DejaVuSans-114"/>
      <use x="971.867188" xlink:href="#DejaVuSans-99"/>
      <use x="1026.847656" xlink:href="#DejaVuSans-101"/>
      <use x="1088.371094" xlink:href="#DejaVuSans-115"/>
      <use x="1140.470703" xlink:href="#DejaVuSans-41"/>
     </g>
    </g>
    <g id="line2d_17">
     <path d="M 166.015625 210.060312 
L 186.015625 210.060312 
" style="fill:none;stroke:#8c564b;stroke-linecap:square;stroke-width:1.5;"/>
    </g>
    <g id="line2d_18"/>
    <g id="text_6">
     <!-- downstream -->
     <g transform="translate(194.015625 213.560312)scale(0.1 -0.1)">
      <use xlink:href="#DejaVuSans-100"/>
      <use x="63.476562" xlink:href="#DejaVuSans-111"/>
      <use x="124.658203" xlink:href="#DejaVuSans-119"/>
      <use x="206.445312" xlink:href="#DejaVuSans-110"/>
      <use x="269.824219" xlink:href="#DejaVuSans-115"/>
      <use x="321.923828" xlink:href="#DejaVuSans-116"/>
      <use x="361.132812" xlink:href="#DejaVuSans-114"/>
      <use x="399.996094" xlink:href="#DejaVuSans-101"/>
      <use x="461.519531" xlink:href="#DejaVuSans-97"/>
      <use x="522.798828" xlink:href="#DejaVuSans-109"/>
     </g>
    </g>
   </g>
  </g>
 </g>
 <defs>
  <clipPath id="p3bb6d19911">
   <rect height="217.44" width="334.8" x="7.2" y="7.2"/>
  </clipPath>
 </defs>
</svg>
