<?xml version="1.0" encoding="utf-8" standalone="no"?>
<!DOCTYPE svg PUBLIC "-//W3C//DTD SVG 1.1//EN"
  "http://www.w3.org/Graphics/SVG/1.1/DTD/svg11.dtd">
<!-- Created with matplotlib (https://matplotlib.org/) -->
<svg height="231.84pt" version="1.1" viewBox="0 0 349.2 231.84" width="349.2pt" xmlns="http://www.w3.org/2000/svg" xmlns:xlink="http://www.w3.org/1999/xlink">
 <metadata>
  <rdf:RDF xmlns:cc="http://creativecommons.org/ns#" xmlns:dc="http://purl.org/dc/elements/1.1/" xmlns:rdf="http://www.w3.org/1999/02/22-rdf-syntax-ns#">
   <cc:Work>
    <dc:type rdf:resource="http://purl.org/dc/dcmitype/StillImage"/>
    <dc:date>2021-04-27T11:29:18.946434</dc:date>
    <dc:format>image/svg+xml</dc:format>
    <dc:creator>
     <cc:Agent>
      <dc:title>Matplotlib v3.3.4, https://matplotlib.org/</dc:title>
     </cc:Agent>
    </dc:creator>
   </cc:Work>
  </rdf:RDF>
 </metadata>
 <defs>
  <style type="text/css">*{stroke-linecap:butt;stroke-linejoin:round;}</style>
 </defs>
 <g id="figure_1">
  <g id="patch_1">
   <path d="M 0 231.84 
L 349.2 231.84 
L 349.2 0 
L 0 0 
z
" style="fill:none;"/>
  </g>
  <g id="axes_1">
   <g id="line2d_1">
    <path clip-path="url(#p7b0756f986)" d="M 7.2 101.711718 
L 8.757209 98.758421 
L 10.314419 104.636462 
L 11.871628 82.402583 
L 13.428837 91.27442 
L 14.986047 96.163016 
L 16.543256 72.240916 
L 18.100465 102.834515 
L 19.657674 84.51659 
L 21.214884 96.323961 
L 22.772093 83.073505 
L 24.329302 79.929037 
L 25.886512 82.780092 
L 27.443721 103.414488 
L 29.00093 70.011905 
L 30.55814 95.43043 
L 32.115349 105.630367 
L 33.672558 71.407328 
L 35.229767 81.41657 
L 36.786977 94.47233 
L 38.344186 78.344047 
L 39.901395 95.980424 
L 41.458605 87.724393 
L 43.015814 101.455016 
L 44.573023 105.975125 
L 46.130233 103.375958 
L 47.687442 91.005704 
L 49.244651 96.066793 
L 50.80186 84.412489 
L 52.35907 96.745496 
L 53.916279 102.276074 
L 55.473488 72.107 
L 57.030698 84.698778 
L 58.587907 79.185879 
L 60.145116 100.363947 
L 61.702326 84.474153 
L 63.259535 70.962534 
L 64.816744 101.476481 
L 66.373953 85.085009 
L 67.931163 90.951898 
L 69.488372 98.151995 
L 71.045581 67.402772 
L 72.602791 91.351595 
L 74.16 104.871876 
L 75.717209 79.12534 
L 77.274419 90.592847 
L 78.831628 92.659198 
L 80.388837 103.507934 
L 81.946047 68.810519 
L 83.503256 85.882002 
L 85.060465 81.7109 
L 86.617674 72.969148 
L 88.174884 74.245996 
L 89.732093 92.188831 
L 91.289302 88.326339 
L 92.846512 70.609133 
L 94.403721 84.930837 
L 95.96093 74.448821 
L 97.51814 98.766639 
L 99.075349 74.896218 
L 100.632558 103.933886 
L 102.189767 69.349296 
L 103.746977 104.162103 
L 105.304186 87.735176 
L 106.861395 83.200965 
L 108.418605 102.331857 
L 109.975814 71.215271 
L 111.533023 96.257727 
L 113.090233 90.74789 
L 114.647442 71.222222 
L 117.76186 107.111332 
L 119.31907 76.718992 
L 120.876279 77.177422 
L 122.433488 101.487058 
L 123.990698 92.413353 
L 125.547907 75.815945 
L 127.105116 86.909316 
L 128.662326 69.010036 
L 130.219535 83.017837 
L 131.776744 99.895467 
L 133.333953 71.636753 
L 134.891163 84.724241 
L 136.448372 94.459998 
L 138.005581 71.507048 
L 139.562791 108.578416 
L 141.12 107.912932 
L 142.677209 92.460665 
L 144.234419 96.592953 
L 145.791628 83.174789 
L 147.348837 104.799162 
L 148.906047 75.288664 
L 150.463256 75.48783 
L 152.020465 81.236265 
L 153.577674 88.170684 
L 155.134884 98.558857 
L 156.692093 88.717375 
L 158.249302 81.847908 
L 159.806512 89.597997 
L 161.363721 70.74537 
L 162.92093 78.756205 
L 164.47814 68.314355 
L 166.035349 76.712827 
L 167.592558 94.144568 
L 169.149767 101.104276 
L 170.706977 72.959193 
L 172.264186 71.376899 
L 173.821395 81.388457 
L 175.378605 79.095352 
L 176.935814 104.57083 
L 178.493023 76.374229 
L 180.050233 102.821663 
L 181.607442 76.549457 
L 183.164651 80.096568 
L 184.72186 70.851184 
L 186.27907 73.276912 
L 187.836279 72.521691 
L 189.393488 104.066807 
L 190.950698 91.29192 
L 192.507907 102.831585 
L 194.065116 84.895039 
L 195.622326 85.556704 
L 197.179535 70.118375 
L 200.293953 99.708808 
L 201.851163 94.508843 
L 203.408372 88.33603 
L 204.965581 104.819028 
L 206.522791 77.186657 
L 208.08 88.30135 
L 209.637209 84.903628 
L 211.194419 69.695732 
L 212.751628 96.69166 
L 214.308837 67.556296 
L 215.866047 101.957534 
L 217.423256 87.06825 
L 218.980465 95.704851 
L 220.537674 89.005153 
L 222.094884 90.766603 
L 223.652093 79.479118 
L 225.209302 90.970505 
L 226.766512 96.026096 
L 228.323721 102.214286 
L 229.88093 103.342959 
L 231.43814 73.029042 
L 232.995349 86.941674 
L 234.552558 107.290663 
L 236.109767 84.40458 
L 237.666977 98.585716 
L 239.224186 106.130816 
L 240.781395 89.396711 
L 242.338605 96.7287 
L 243.895814 67.045841 
L 245.453023 67.65721 
L 247.010233 102.214635 
L 248.567442 73.538647 
L 250.124651 100.783903 
L 251.68186 97.950914 
L 253.23907 91.667996 
L 254.796279 67.113207 
L 256.353488 73.947985 
L 257.910698 103.436928 
L 259.467907 102.420971 
L 261.025116 75.871422 
L 262.582326 97.288927 
L 264.139535 75.97564 
L 265.696744 106.375549 
L 267.253953 99.38836 
L 268.811163 98.026515 
L 270.368372 86.365599 
L 271.925581 76.827382 
L 273.482791 87.289228 
L 275.04 87.810431 
L 276.597209 72.944873 
L 278.154419 100.260883 
L 279.711628 86.737169 
L 281.268837 85.250668 
L 282.826047 92.267846 
L 284.383256 66.933241 
L 285.940465 106.786907 
L 287.497674 84.772625 
L 289.054884 95.103002 
L 290.612093 72.004519 
L 292.169302 87.887031 
L 293.726512 81.47049 
L 295.283721 96.070236 
L 296.84093 72.493307 
L 298.39814 105.910072 
L 299.955349 91.429776 
L 301.512558 104.277364 
L 304.626977 74.828261 
L 306.184186 89.154869 
L 307.741395 74.903446 
L 309.298605 93.962332 
L 310.855814 80.487625 
L 312.413023 90.508729 
L 313.970233 78.406802 
L 315.527442 68.036462 
L 317.084651 83.561812 
L 318.64186 70.744872 
L 320.19907 105.12795 
L 321.756279 89.464169 
L 323.313488 107.880482 
L 324.870698 96.685667 
L 326.427907 76.10317 
L 327.985116 91.481398 
L 329.542326 67.344102 
L 331.099535 72.324258 
L 332.656744 105.635265 
L 334.213953 87.904981 
L 335.771163 93.477196 
L 337.328372 81.464732 
L 338.885581 101.106687 
L 340.442791 92.92615 
L 342 89.378043 
L 342 89.378043 
" style="fill:none;stroke:#1f77b4;stroke-linecap:square;stroke-width:1.5;"/>
   </g>
   <g id="line2d_2">
    <path clip-path="url(#p7b0756f986)" d="M 7.2 108.608078 
L 16.543256 108.608078 
L 19.657674 87.676861 
L 21.214884 79.006868 
L 22.772093 72.354148 
L 24.329302 68.172073 
L 25.886512 66.745645 
L 27.443721 68.172073 
L 29.00093 72.354148 
L 30.55814 79.006868 
L 32.115349 87.676861 
L 33.672558 97.773283 
L 35.229767 108.608078 
L 53.916279 108.608078 
L 57.030698 87.676861 
L 58.587907 79.006868 
L 60.145116 72.354148 
L 61.702326 68.172073 
L 63.259535 66.745645 
L 64.816744 68.172073 
L 66.373953 72.354148 
L 67.931163 79.006868 
L 69.488372 87.676861 
L 71.045581 97.773283 
L 72.602791 108.608078 
L 91.289302 108.608078 
L 94.403721 87.676861 
L 95.96093 79.006868 
L 97.51814 72.354148 
L 99.075349 68.172073 
L 100.632558 66.745645 
L 102.189767 68.172073 
L 103.746977 72.354148 
L 105.304186 79.006868 
L 106.861395 87.676861 
L 108.418605 97.773283 
L 109.975814 108.608078 
L 128.662326 108.608078 
L 131.776744 87.676861 
L 133.333953 79.006868 
L 134.891163 72.354148 
L 136.448372 68.172073 
L 138.005581 66.745645 
L 139.562791 68.172073 
L 141.12 72.354148 
L 142.677209 79.006868 
L 144.234419 87.676861 
L 145.791628 97.773283 
L 147.348837 108.608078 
L 166.035349 108.608078 
L 169.149767 87.676861 
L 170.706977 79.006868 
L 172.264186 72.354148 
L 173.821395 68.172073 
L 175.378605 66.745645 
L 176.935814 68.172073 
L 178.493023 72.354148 
L 180.050233 79.006868 
L 181.607442 87.676861 
L 183.164651 97.773283 
L 184.72186 108.608078 
L 203.408372 108.608078 
L 206.522791 87.676861 
L 208.08 79.006868 
L 209.637209 72.354148 
L 211.194419 68.172073 
L 212.751628 66.745645 
L 214.308837 68.172073 
L 215.866047 72.354148 
L 217.423256 79.006868 
L 218.980465 87.676861 
L 220.537674 97.773283 
L 222.094884 108.608078 
L 240.781395 108.608078 
L 243.895814 87.676861 
L 245.453023 79.006868 
L 247.010233 72.354148 
L 248.567442 68.172073 
L 250.124651 66.745645 
L 251.68186 68.172073 
L 253.23907 72.354148 
L 254.796279 79.006868 
L 256.353488 87.676861 
L 257.910698 97.773283 
L 259.467907 108.608078 
L 278.154419 108.608078 
L 281.268837 87.676861 
L 282.826047 79.006868 
L 284.383256 72.354148 
L 285.940465 68.172073 
L 287.497674 66.745645 
L 289.054884 68.172073 
L 290.612093 72.354148 
L 292.169302 79.006868 
L 293.726512 87.676861 
L 295.283721 97.773283 
L 296.84093 108.608078 
L 315.527442 108.608078 
L 318.64186 87.676861 
L 320.19907 79.006868 
L 321.756279 72.354148 
L 323.313488 68.172073 
L 324.870698 66.745645 
L 326.427907 68.172073 
L 327.985116 72.354148 
L 329.542326 79.006868 
L 331.099535 87.676861 
L 332.656744 97.773283 
L 334.213953 108.608078 
L 342 108.608078 
L 342 108.608078 
" style="fill:none;stroke:#ff7f0e;stroke-linecap:square;stroke-width:1.5;"/>
   </g>
   <g id="line2d_3">
    <path clip-path="url(#p7b0756f986)" d="M 7.2 103.008386 
L 8.757209 108.608078 
L 16.543256 108.503343 
L 18.100465 19.06815 
L 19.657674 63.076407 
L 21.214884 91.441798 
L 22.772093 106.175486 
L 24.329302 102.251338 
L 25.886512 108.608078 
L 38.344186 108.608078 
L 39.901395 106.74857 
L 41.458605 108.608078 
L 43.015814 107.432294 
L 44.573023 96.112027 
L 46.130233 51.346599 
L 47.687442 55.179274 
L 49.244651 88.595655 
L 50.80186 108.608078 
L 63.259535 108.608078 
L 64.816744 79.561504 
L 66.373953 108.608078 
L 67.931163 108.608078 
L 69.488372 93.620064 
L 71.045581 108.608078 
L 81.946047 108.608078 
L 83.503256 68.840554 
L 85.060465 64.474078 
L 86.617674 99.018769 
L 88.174884 108.608078 
L 89.732093 87.332841 
L 91.289302 108.608078 
L 106.861395 108.571095 
L 108.418605 90.518572 
L 109.975814 108.608078 
L 122.433488 108.608078 
L 123.990698 107.353027 
L 125.547907 108.608078 
L 127.105116 92.612355 
L 128.662326 69.92865 
L 130.219535 38.884828 
L 131.776744 47.69753 
L 133.333953 108.608078 
L 145.791628 108.608078 
L 147.348837 102.569764 
L 148.906047 93.744407 
L 150.463256 94.382171 
L 152.020465 108.608078 
L 166.035349 108.608078 
L 167.592558 84.391449 
L 169.149767 46.488721 
L 170.706977 108.608078 
L 187.836279 108.608078 
L 189.393488 98.662187 
L 190.950698 108.608078 
L 194.065116 108.608077 
L 195.622326 69.165853 
L 198.736744 108.608078 
L 204.965581 108.608078 
L 206.522791 70.40634 
L 208.08 108.608078 
L 209.637209 108.608078 
L 211.194419 102.251338 
L 212.751628 86.719255 
L 215.866047 108.608078 
L 226.766512 108.608078 
L 228.323721 103.176507 
L 229.88093 108.608078 
L 231.43814 108.608078 
L 232.995349 46.114482 
L 234.552558 38.894315 
L 236.109767 87.583337 
L 237.666977 94.781453 
L 239.224186 108.608078 
L 253.23907 108.608078 
L 254.796279 95.600118 
L 256.353488 108.608078 
L 257.910698 89.413501 
L 259.467907 108.608078 
L 270.368372 108.608078 
L 271.925581 69.357596 
L 273.482791 84.69869 
L 275.04 105.556738 
L 276.597209 106.576798 
L 278.154419 38.677803 
L 279.711628 77.101597 
L 281.268837 108.608078 
L 293.726512 108.608078 
L 295.283721 96.780193 
L 296.84093 108.608078 
L 298.39814 63.122999 
L 299.955349 78.440225 
L 301.512558 108.608078 
L 312.413023 108.608078 
L 313.970233 101.114869 
L 315.527442 70.902224 
L 317.084651 38.340852 
L 318.64186 76.848125 
L 320.19907 100.942633 
L 321.756279 108.608078 
L 334.213953 108.608078 
L 335.771163 75.555875 
L 338.885581 101.622307 
L 340.442791 108.608078 
L 342 108.608078 
L 342 108.608078 
" style="fill:none;stroke:#2ca02c;stroke-linecap:square;stroke-width:1.5;"/>
   </g>
   <g id="line2d_4">
    <path clip-path="url(#p7b0756f986)" d="M 7.2 108.608078 
L 75.717209 108.608078 
L 77.274419 112.136146 
L 78.831628 108.608078 
L 94.403721 108.608078 
L 95.96093 131.621762 
L 97.51814 152.270855 
L 99.075349 121.423832 
L 100.632558 108.608078 
L 114.647442 108.608078 
L 116.204651 116.711368 
L 117.76186 108.929041 
L 119.31907 128.001113 
L 120.876279 108.608078 
L 134.891163 108.608078 
L 136.448372 156.835422 
L 138.005581 165.682718 
L 139.562791 108.608078 
L 141.12 117.010974 
L 142.677209 108.608078 
L 155.134884 108.608078 
L 156.692093 116.00273 
L 158.249302 108.608078 
L 161.363721 108.608078 
L 162.92093 114.610964 
L 164.47814 108.608078 
L 175.378605 108.608078 
L 176.935814 109.379701 
L 178.493023 148.549677 
L 180.050233 129.242545 
L 181.607442 115.222602 
L 183.164651 112.753861 
L 184.72186 108.608078 
L 243.895814 108.608078 
L 245.453023 138.413373 
L 247.010233 108.608078 
L 262.582326 108.608078 
L 264.139535 126.753354 
L 265.696744 108.608078 
L 282.826047 108.608078 
L 284.383256 184.104252 
L 285.940465 144.508514 
L 287.497674 152.417141 
L 289.054884 108.608078 
L 303.069767 108.608078 
L 304.626977 115.620203 
L 306.184186 115.565235 
L 307.741395 108.608078 
L 323.313488 108.608078 
L 324.870698 117.237626 
L 326.427907 137.847361 
L 327.985116 133.442508 
L 329.542326 164.720106 
L 331.099535 119.447802 
L 332.656744 108.608078 
L 342 108.608078 
L 342 108.608078 
" style="fill:none;stroke:#d62728;stroke-linecap:square;stroke-width:1.5;"/>
   </g>
   <g id="line2d_5">
    <path clip-path="url(#p7b0756f986)" d="M 7.2 108.608078 
L 8.757209 55.964135 
L 10.314419 41.548516 
L 11.871628 89.585335 
L 13.428837 102.092748 
L 14.986047 83.358656 
L 16.543256 66.802505 
L 18.100465 108.608078 
L 19.657674 108.608078 
L 21.214884 126.912901 
L 22.772093 170.396581 
L 24.329302 177.723123 
L 25.886512 154.409674 
L 27.443721 110.536043 
L 29.00093 154.912 
L 30.55814 136.633778 
L 32.115349 86.141693 
L 33.672558 121.443101 
L 35.229767 125.952356 
L 36.786977 74.560741 
L 39.901395 108.608078 
L 41.458605 117.666399 
L 43.015814 115.76114 
L 44.573023 111.24103 
L 46.130233 108.608078 
L 47.687442 108.608078 
L 49.244651 95.933547 
L 50.80186 108.95468 
L 52.35907 82.776175 
L 53.916279 36.662612 
L 57.030698 62.894219 
L 58.587907 126.884704 
L 60.145116 150.673546 
L 61.702326 166.821268 
L 63.259535 166.227232 
L 64.816744 141.520624 
L 66.373953 139.838897 
L 67.931163 141.11231 
L 69.488372 108.608078 
L 71.045581 125.447657 
L 72.602791 116.017331 
L 74.16 64.161194 
L 75.717209 90.744661 
L 77.274419 108.608078 
L 78.831628 112.731594 
L 80.388837 112.532439 
L 81.946047 135.909585 
L 83.503256 108.608078 
L 86.617674 108.608078 
L 88.174884 119.121173 
L 89.732093 108.608078 
L 91.289302 50.612347 
L 92.846512 51.293531 
L 94.403721 62.66216 
L 95.96093 108.608078 
L 97.51814 108.608078 
L 99.075349 163.583449 
L 100.632558 133.25588 
L 102.189767 144.601235 
L 103.746977 120.761803 
L 105.304186 144.329032 
L 106.861395 108.608078 
L 108.418605 108.608078 
L 109.975814 136.153655 
L 111.533023 72.775344 
L 113.090233 79.122111 
L 114.647442 131.506772 
L 116.204651 108.608078 
L 119.31907 108.608078 
L 122.433488 44.69792 
L 125.547907 117.551224 
L 127.105116 108.608078 
L 131.776744 108.608078 
L 133.333953 134.43383 
L 134.891163 166.313252 
L 136.448372 108.608078 
L 138.005581 108.608078 
L 139.562791 105.372115 
L 141.12 108.608078 
L 142.677209 139.603543 
L 144.234419 95.179107 
L 145.791628 109.67564 
L 147.348837 108.608078 
L 150.463256 108.608078 
L 152.020465 121.492729 
L 153.577674 117.220108 
L 155.134884 117.481515 
L 156.692093 108.608078 
L 158.249302 72.874649 
L 159.806512 56.586981 
L 161.363721 101.242547 
L 162.92093 108.608078 
L 164.47814 111.207317 
L 166.035349 62.225859 
L 167.592558 51.974726 
L 169.149767 108.608078 
L 170.706977 133.11139 
L 172.264186 179.660594 
L 173.821395 169.906964 
L 175.378605 158.094414 
L 176.935814 108.608078 
L 183.164651 108.608078 
L 184.72186 136.517742 
L 186.27907 95.756159 
L 187.836279 97.34831 
L 189.393488 108.608078 
L 190.950698 114.098872 
L 192.507907 113.208788 
L 194.065116 119.825066 
L 195.622326 108.608078 
L 197.179535 95.496671 
L 198.736744 87.402453 
L 200.293953 93.658361 
L 201.851163 85.012829 
L 204.965581 17.083636 
L 206.522791 108.608078 
L 208.08 117.769233 
L 209.637209 166.133866 
L 211.194419 187.956429 
L 212.751628 162.386928 
L 214.308837 157.37321 
L 215.866047 122.966372 
L 217.423256 144.995958 
L 218.980465 96.067208 
L 220.537674 103.845275 
L 222.094884 116.602324 
L 223.652093 89.553953 
L 225.209302 78.899496 
L 226.766512 106.702898 
L 228.323721 108.608078 
L 229.88093 112.697414 
L 231.43814 131.691063 
L 232.995349 130.274478 
L 234.552558 108.608078 
L 237.666977 108.608078 
L 239.224186 73.390855 
L 242.338605 25.173964 
L 243.895814 80.547156 
L 245.453023 108.608078 
L 247.010233 148.822858 
L 248.567442 177.756774 
L 250.124651 136.405863 
L 251.68186 115.999617 
L 253.23907 133.25591 
L 254.796279 177.958961 
L 256.353488 117.824075 
L 257.910698 108.608078 
L 259.467907 104.947955 
L 261.025116 93.161648 
L 262.582326 72.581074 
L 264.139535 108.608078 
L 265.696744 99.015243 
L 267.253953 116.652013 
L 268.811163 106.69359 
L 270.368372 68.356958 
L 271.925581 108.608078 
L 278.154419 108.608078 
L 279.711628 66.671977 
L 281.268837 62.342329 
L 282.826047 113.802737 
L 284.383256 108.608078 
L 287.497674 108.608078 
L 289.054884 118.847529 
L 290.612093 152.919387 
L 292.169302 144.177177 
L 293.726512 110.301569 
L 295.283721 108.608078 
L 296.84093 134.87562 
L 298.39814 108.608078 
L 299.955349 108.608078 
L 301.512558 98.45163 
L 304.626977 134.199987 
L 306.184186 108.608078 
L 309.298605 52.222646 
L 310.855814 91.500293 
L 312.413023 102.858439 
L 313.970233 108.608078 
L 320.19907 108.608078 
L 321.756279 161.573324 
L 323.313488 143.414939 
L 324.870698 131.87455 
L 326.427907 108.608078 
L 331.099535 108.608078 
L 332.656744 87.215163 
L 334.213953 119.463946 
L 335.771163 108.608078 
L 338.885581 108.608078 
L 340.442791 112.464642 
L 342 126.662329 
L 342 126.662329 
" style="fill:none;stroke:#9467bd;stroke-linecap:square;stroke-width:1.5;"/>
   </g>
   <g id="line2d_6">
    <path clip-path="url(#p7b0756f986)" d="M 7.2 121.104129 
L 8.757209 171.101677 
L 10.314419 179.639255 
L 11.871628 153.836316 
L 13.428837 132.457064 
L 14.986047 146.302562 
L 16.543256 186.885547 
L 18.100465 214.756364 
L 19.657674 199.162453 
L 21.214884 149.354861 
L 22.772093 111.04067 
L 24.329302 114.964817 
L 25.886512 130.4969 
L 27.443721 152.309707 
L 29.00093 137.154258 
L 30.55814 123.361235 
L 32.115349 154.98339 
L 33.672558 143.808599 
L 35.229767 118.455307 
L 36.786977 156.791163 
L 38.344186 155.954232 
L 39.901395 123.095239 
L 41.458605 120.433441 
L 43.015814 109.783861 
L 44.573023 121.104129 
L 46.130233 171.101677 
L 47.687442 179.639255 
L 49.244651 153.836316 
L 50.80186 132.457064 
L 52.35907 146.302562 
L 53.916279 186.885547 
L 55.473488 214.756364 
L 57.030698 199.162453 
L 58.587907 149.354861 
L 60.145116 111.04067 
L 61.702326 114.964817 
L 63.259535 130.4969 
L 64.816744 152.309707 
L 66.373953 137.154258 
L 67.931163 123.361235 
L 69.488372 154.98339 
L 71.045581 143.808599 
L 72.602791 118.455307 
L 74.16 156.791163 
L 75.717209 155.954232 
L 77.274419 123.095239 
L 78.831628 120.433441 
L 80.388837 109.783861 
L 81.946047 121.104129 
L 83.503256 171.101677 
L 85.060465 179.639255 
L 86.617674 153.836316 
L 88.174884 132.457064 
L 89.732093 146.302562 
L 91.289302 186.885547 
L 92.846512 214.756364 
L 94.403721 199.162453 
L 95.96093 149.354861 
L 97.51814 111.04067 
L 99.075349 114.964817 
L 100.632558 130.4969 
L 102.189767 152.309707 
L 103.746977 137.154258 
L 105.304186 123.361235 
L 106.861395 154.98339 
L 108.418605 143.808599 
L 109.975814 118.455307 
L 111.533023 156.791163 
L 113.090233 155.954232 
L 114.647442 123.095239 
L 116.204651 120.433441 
L 117.76186 109.783861 
L 119.31907 121.104129 
L 120.876279 171.101677 
L 122.433488 179.639255 
L 123.990698 153.836316 
L 125.547907 132.457064 
L 127.105116 146.302562 
L 128.662326 186.885547 
L 130.219535 214.756364 
L 131.776744 199.162453 
L 133.333953 149.354861 
L 134.891163 111.04067 
L 136.448372 114.964817 
L 138.005581 130.4969 
L 139.562791 152.309707 
L 141.12 137.154258 
L 142.677209 123.361235 
L 144.234419 154.98339 
L 145.791628 143.808599 
L 147.348837 118.455307 
L 148.906047 156.791163 
L 150.463256 155.954232 
L 152.020465 123.095239 
L 153.577674 120.433441 
L 155.134884 109.783861 
L 156.692093 121.104129 
L 158.249302 171.101677 
L 159.806512 179.639255 
L 161.363721 153.836316 
L 162.92093 132.457064 
L 164.47814 146.302562 
L 166.035349 186.885547 
L 167.592558 214.756364 
L 169.149767 199.162453 
L 170.706977 149.354861 
L 172.264186 111.04067 
L 173.821395 114.964817 
L 175.378605 130.4969 
L 176.935814 152.309707 
L 178.493023 137.154258 
L 180.050233 123.361235 
L 181.607442 154.98339 
L 183.164651 143.808599 
L 184.72186 118.455307 
L 186.27907 156.791163 
L 187.836279 155.954232 
L 189.393488 123.095239 
L 190.950698 120.433441 
L 192.507907 109.783861 
L 194.065116 121.104129 
L 195.622326 171.101677 
L 197.179535 179.639255 
L 198.736744 153.836316 
L 200.293953 132.457064 
L 201.851163 146.302562 
L 203.408372 186.885547 
L 204.965581 214.756364 
L 206.522791 199.162453 
L 208.08 149.354861 
L 209.637209 111.04067 
L 211.194419 114.964817 
L 212.751628 130.4969 
L 214.308837 152.309707 
L 215.866047 137.154258 
L 217.423256 123.361235 
L 218.980465 154.98339 
L 220.537674 143.808599 
L 222.094884 118.455307 
L 223.652093 156.791163 
L 225.209302 155.954232 
L 226.766512 123.095239 
L 228.323721 120.433441 
L 229.88093 109.783861 
L 231.43814 121.104129 
L 232.995349 171.101677 
L 234.552558 179.639255 
L 236.109767 153.836316 
L 237.666977 132.457064 
L 239.224186 146.302562 
L 240.781395 186.885547 
L 242.338605 214.756364 
L 243.895814 199.162453 
L 245.453023 149.354861 
L 247.010233 111.04067 
L 248.567442 114.964817 
L 250.124651 130.4969 
L 251.68186 152.309707 
L 253.23907 137.154258 
L 254.796279 123.361235 
L 256.353488 154.98339 
L 257.910698 143.808599 
L 259.467907 118.455307 
L 261.025116 156.791163 
L 262.582326 155.954232 
L 264.139535 123.095239 
L 265.696744 120.433441 
L 267.253953 109.783861 
L 268.811163 121.104129 
L 270.368372 171.101677 
L 271.925581 179.639255 
L 273.482791 153.836316 
L 275.04 132.457064 
L 276.597209 146.302562 
L 278.154419 186.885547 
L 279.711628 214.756364 
L 281.268837 199.162453 
L 282.826047 149.354861 
L 284.383256 111.04067 
L 285.940465 114.964817 
L 287.497674 130.4969 
L 289.054884 152.309707 
L 290.612093 137.154258 
L 292.169302 123.361235 
L 293.726512 154.98339 
L 295.283721 143.808599 
L 296.84093 118.455307 
L 298.39814 156.791163 
L 299.955349 155.954232 
L 301.512558 123.095239 
L 303.069767 120.433441 
L 304.626977 109.783861 
L 306.184186 121.104129 
L 307.741395 171.101677 
L 309.298605 179.639255 
L 310.855814 153.836316 
L 312.413023 132.457064 
L 313.970233 146.302562 
L 315.527442 186.885547 
L 317.084651 214.756364 
L 318.64186 199.162453 
L 320.19907 149.354861 
L 321.756279 111.04067 
L 323.313488 114.964817 
L 324.870698 130.4969 
L 326.427907 152.309707 
L 327.985116 137.154258 
L 329.542326 123.361235 
L 331.099535 154.98339 
L 332.656744 143.808599 
L 334.213953 118.455307 
L 335.771163 156.791163 
L 337.328372 155.954232 
L 338.885581 123.095239 
L 340.442791 120.433441 
L 342 109.783861 
L 342 109.783861 
" style="fill:none;stroke:#8c564b;stroke-linecap:square;stroke-width:1.5;"/>
   </g>
   <g id="legend_1">
    <g id="patch_2">
     <path d="M 14.2 219.64 
L 185.184375 219.64 
Q 187.184375 219.64 187.184375 217.64 
L 187.184375 130.57125 
Q 187.184375 128.57125 185.184375 128.57125 
L 14.2 128.57125 
Q 12.2 128.57125 12.2 130.57125 
L 12.2 217.64 
Q 12.2 219.64 14.2 219.64 
z
" style="fill:#ffffff;opacity:0.8;stroke:#cccccc;stroke-linejoin:miter;"/>
    </g>
    <g id="line2d_7">
     <path d="M 16.2 136.669687 
L 36.2 136.669687 
" style="fill:none;stroke:#1f77b4;stroke-linecap:square;stroke-width:1.5;"/>
    </g>
    <g id="line2d_8"/>
    <g id="text_1">
     <!-- wind (green sources) -->
     <g transform="translate(44.2 140.169687)scale(0.1 -0.1)">
      <defs>
       <path d="M 4.203125 54.6875 
L 13.1875 54.6875 
L 24.421875 12.015625 
L 35.59375 54.6875 
L 46.1875 54.6875 
L 57.421875 12.015625 
L 68.609375 54.6875 
L 77.59375 54.6875 
L 63.28125 0 
L 52.6875 0 
L 40.921875 44.828125 
L 29.109375 0 
L 18.5 0 
z
" id="DejaVuSans-119"/>
       <path d="M 9.421875 54.6875 
L 18.40625 54.6875 
L 18.40625 0 
L 9.421875 0 
z
M 9.421875 75.984375 
L 18.40625 75.984375 
L 18.40625 64.59375 
L 9.421875 64.59375 
z
" id="DejaVuSans-105"/>
       <path d="M 54.890625 33.015625 
L 54.890625 0 
L 45.90625 0 
L 45.90625 32.71875 
Q 45.90625 40.484375 42.875 44.328125 
Q 39.84375 48.1875 33.796875 48.1875 
Q 26.515625 48.1875 22.3125 43.546875 
Q 18.109375 38.921875 18.109375 30.90625 
L 18.109375 0 
L 9.078125 0 
L 9.078125 54.6875 
L 18.109375 54.6875 
L 18.109375 46.1875 
Q 21.34375 51.125 25.703125 53.5625 
Q 30.078125 56 35.796875 56 
Q 45.21875 56 50.046875 50.171875 
Q 54.890625 44.34375 54.890625 33.015625 
z
" id="DejaVuSans-110"/>
       <path d="M 45.40625 46.390625 
L 45.40625 75.984375 
L 54.390625 75.984375 
L 54.390625 0 
L 45.40625 0 
L 45.40625 8.203125 
Q 42.578125 3.328125 38.25 0.953125 
Q 33.9375 -1.421875 27.875 -1.421875 
Q 17.96875 -1.421875 11.734375 6.484375 
Q 5.515625 14.40625 5.515625 27.296875 
Q 5.515625 40.1875 11.734375 48.09375 
Q 17.96875 56 27.875 56 
Q 33.9375 56 38.25 53.625 
Q 42.578125 51.265625 45.40625 46.390625 
z
M 14.796875 27.296875 
Q 14.796875 17.390625 18.875 11.75 
Q 22.953125 6.109375 30.078125 6.109375 
Q 37.203125 6.109375 41.296875 11.75 
Q 45.40625 17.390625 45.40625 27.296875 
Q 45.40625 37.203125 41.296875 42.84375 
Q 37.203125 48.484375 30.078125 48.484375 
Q 22.953125 48.484375 18.875 42.84375 
Q 14.796875 37.203125 14.796875 27.296875 
z
" id="DejaVuSans-100"/>
       <path id="DejaVuSans-32"/>
       <path d="M 31 75.875 
Q 24.46875 64.65625 21.28125 53.65625 
Q 18.109375 42.671875 18.109375 31.390625 
Q 18.109375 20.125 21.3125 9.0625 
Q 24.515625 -2 31 -13.1875 
L 23.1875 -13.1875 
Q 15.875 -1.703125 12.234375 9.375 
Q 8.59375 20.453125 8.59375 31.390625 
Q 8.59375 42.28125 12.203125 53.3125 
Q 15.828125 64.359375 23.1875 75.875 
z
" id="DejaVuSans-40"/>
       <path d="M 45.40625 27.984375 
Q 45.40625 37.75 41.375 43.109375 
Q 37.359375 48.484375 30.078125 48.484375 
Q 22.859375 48.484375 18.828125 43.109375 
Q 14.796875 37.75 14.796875 27.984375 
Q 14.796875 18.265625 18.828125 12.890625 
Q 22.859375 7.515625 30.078125 7.515625 
Q 37.359375 7.515625 41.375 12.890625 
Q 45.40625 18.265625 45.40625 27.984375 
z
M 54.390625 6.78125 
Q 54.390625 -7.171875 48.1875 -13.984375 
Q 42 -20.796875 29.203125 -20.796875 
Q 24.46875 -20.796875 20.265625 -20.09375 
Q 16.0625 -19.390625 12.109375 -17.921875 
L 12.109375 -9.1875 
Q 16.0625 -11.328125 19.921875 -12.34375 
Q 23.78125 -13.375 27.78125 -13.375 
Q 36.625 -13.375 41.015625 -8.765625 
Q 45.40625 -4.15625 45.40625 5.171875 
L 45.40625 9.625 
Q 42.625 4.78125 38.28125 2.390625 
Q 33.9375 0 27.875 0 
Q 17.828125 0 11.671875 7.65625 
Q 5.515625 15.328125 5.515625 27.984375 
Q 5.515625 40.671875 11.671875 48.328125 
Q 17.828125 56 27.875 56 
Q 33.9375 56 38.28125 53.609375 
Q 42.625 51.21875 45.40625 46.390625 
L 45.40625 54.6875 
L 54.390625 54.6875 
z
" id="DejaVuSans-103"/>
       <path d="M 41.109375 46.296875 
Q 39.59375 47.171875 37.8125 47.578125 
Q 36.03125 48 33.890625 48 
Q 26.265625 48 22.1875 43.046875 
Q 18.109375 38.09375 18.109375 28.8125 
L 18.109375 0 
L 9.078125 0 
L 9.078125 54.6875 
L 18.109375 54.6875 
L 18.109375 46.1875 
Q 20.953125 51.171875 25.484375 53.578125 
Q 30.03125 56 36.53125 56 
Q 37.453125 56 38.578125 55.875 
Q 39.703125 55.765625 41.0625 55.515625 
z
" id="DejaVuSans-114"/>
       <path d="M 56.203125 29.59375 
L 56.203125 25.203125 
L 14.890625 25.203125 
Q 15.484375 15.921875 20.484375 11.0625 
Q 25.484375 6.203125 34.421875 6.203125 
Q 39.59375 6.203125 44.453125 7.46875 
Q 49.3125 8.734375 54.109375 11.28125 
L 54.109375 2.78125 
Q 49.265625 0.734375 44.1875 -0.34375 
Q 39.109375 -1.421875 33.890625 -1.421875 
Q 20.796875 -1.421875 13.15625 6.1875 
Q 5.515625 13.8125 5.515625 26.8125 
Q 5.515625 40.234375 12.765625 48.109375 
Q 20.015625 56 32.328125 56 
Q 43.359375 56 49.78125 48.890625 
Q 56.203125 41.796875 56.203125 29.59375 
z
M 47.21875 32.234375 
Q 47.125 39.59375 43.09375 43.984375 
Q 39.0625 48.390625 32.421875 48.390625 
Q 24.90625 48.390625 20.390625 44.140625 
Q 15.875 39.890625 15.1875 32.171875 
z
" id="DejaVuSans-101"/>
       <path d="M 44.28125 53.078125 
L 44.28125 44.578125 
Q 40.484375 46.53125 36.375 47.5 
Q 32.28125 48.484375 27.875 48.484375 
Q 21.1875 48.484375 17.84375 46.4375 
Q 14.5 44.390625 14.5 40.28125 
Q 14.5 37.15625 16.890625 35.375 
Q 19.28125 33.59375 26.515625 31.984375 
L 29.59375 31.296875 
Q 39.15625 29.25 43.1875 25.515625 
Q 47.21875 21.78125 47.21875 15.09375 
Q 47.21875 7.46875 41.1875 3.015625 
Q 35.15625 -1.421875 24.609375 -1.421875 
Q 20.21875 -1.421875 15.453125 -0.5625 
Q 10.6875 0.296875 5.421875 2 
L 5.421875 11.28125 
Q 10.40625 8.6875 15.234375 7.390625 
Q 20.0625 6.109375 24.8125 6.109375 
Q 31.15625 6.109375 34.5625 8.28125 
Q 37.984375 10.453125 37.984375 14.40625 
Q 37.984375 18.0625 35.515625 20.015625 
Q 33.0625 21.96875 24.703125 23.78125 
L 21.578125 24.515625 
Q 13.234375 26.265625 9.515625 29.90625 
Q 5.8125 33.546875 5.8125 39.890625 
Q 5.8125 47.609375 11.28125 51.796875 
Q 16.75 56 26.8125 56 
Q 31.78125 56 36.171875 55.265625 
Q 40.578125 54.546875 44.28125 53.078125 
z
" id="DejaVuSans-115"/>
       <path d="M 30.609375 48.390625 
Q 23.390625 48.390625 19.1875 42.75 
Q 14.984375 37.109375 14.984375 27.296875 
Q 14.984375 17.484375 19.15625 11.84375 
Q 23.34375 6.203125 30.609375 6.203125 
Q 37.796875 6.203125 41.984375 11.859375 
Q 46.1875 17.53125 46.1875 27.296875 
Q 46.1875 37.015625 41.984375 42.703125 
Q 37.796875 48.390625 30.609375 48.390625 
z
M 30.609375 56 
Q 42.328125 56 49.015625 48.375 
Q 55.71875 40.765625 55.71875 27.296875 
Q 55.71875 13.875 49.015625 6.21875 
Q 42.328125 -1.421875 30.609375 -1.421875 
Q 18.84375 -1.421875 12.171875 6.21875 
Q 5.515625 13.875 5.515625 27.296875 
Q 5.515625 40.765625 12.171875 48.375 
Q 18.84375 56 30.609375 56 
z
" id="DejaVuSans-111"/>
       <path d="M 8.5 21.578125 
L 8.5 54.6875 
L 17.484375 54.6875 
L 17.484375 21.921875 
Q 17.484375 14.15625 20.5 10.265625 
Q 23.53125 6.390625 29.59375 6.390625 
Q 36.859375 6.390625 41.078125 11.03125 
Q 45.3125 15.671875 45.3125 23.6875 
L 45.3125 54.6875 
L 54.296875 54.6875 
L 54.296875 0 
L 45.3125 0 
L 45.3125 8.40625 
Q 42.046875 3.421875 37.71875 1 
Q 33.40625 -1.421875 27.6875 -1.421875 
Q 18.265625 -1.421875 13.375 4.4375 
Q 8.5 10.296875 8.5 21.578125 
z
M 31.109375 56 
z
" id="DejaVuSans-117"/>
       <path d="M 48.78125 52.59375 
L 48.78125 44.1875 
Q 44.96875 46.296875 41.140625 47.34375 
Q 37.3125 48.390625 33.40625 48.390625 
Q 24.65625 48.390625 19.8125 42.84375 
Q 14.984375 37.3125 14.984375 27.296875 
Q 14.984375 17.28125 19.8125 11.734375 
Q 24.65625 6.203125 33.40625 6.203125 
Q 37.3125 6.203125 41.140625 7.25 
Q 44.96875 8.296875 48.78125 10.40625 
L 48.78125 2.09375 
Q 45.015625 0.34375 40.984375 -0.53125 
Q 36.96875 -1.421875 32.421875 -1.421875 
Q 20.0625 -1.421875 12.78125 6.34375 
Q 5.515625 14.109375 5.515625 27.296875 
Q 5.515625 40.671875 12.859375 48.328125 
Q 20.21875 56 33.015625 56 
Q 37.15625 56 41.109375 55.140625 
Q 45.0625 54.296875 48.78125 52.59375 
z
" id="DejaVuSans-99"/>
       <path d="M 8.015625 75.875 
L 15.828125 75.875 
Q 23.140625 64.359375 26.78125 53.3125 
Q 30.421875 42.28125 30.421875 31.390625 
Q 30.421875 20.453125 26.78125 9.375 
Q 23.140625 -1.703125 15.828125 -13.1875 
L 8.015625 -13.1875 
Q 14.5 -2 17.703125 9.0625 
Q 20.90625 20.125 20.90625 31.390625 
Q 20.90625 42.671875 17.703125 53.65625 
Q 14.5 64.65625 8.015625 75.875 
z
" id="DejaVuSans-41"/>
      </defs>
      <use xlink:href="#DejaVuSans-119"/>
      <use x="81.787109" xlink:href="#DejaVuSans-105"/>
      <use x="109.570312" xlink:href="#DejaVuSans-110"/>
      <use x="172.949219" xlink:href="#DejaVuSans-100"/>
      <use x="236.425781" xlink:href="#DejaVuSans-32"/>
      <use x="268.212891" xlink:href="#DejaVuSans-40"/>
      <use x="307.226562" xlink:href="#DejaVuSans-103"/>
      <use x="370.703125" xlink:href="#DejaVuSans-114"/>
      <use x="409.566406" xlink:href="#DejaVuSans-101"/>
      <use x="471.089844" xlink:href="#DejaVuSans-101"/>
      <use x="532.613281" xlink:href="#DejaVuSans-110"/>
      <use x="595.992188" xlink:href="#DejaVuSans-32"/>
      <use x="627.779297" xlink:href="#DejaVuSans-115"/>
      <use x="679.878906" xlink:href="#DejaVuSans-111"/>
      <use x="741.060547" xlink:href="#DejaVuSans-117"/>
      <use x="804.439453" xlink:href="#DejaVuSans-114"/>
      <use x="843.302734" xlink:href="#DejaVuSans-99"/>
      <use x="898.283203" xlink:href="#DejaVuSans-101"/>
      <use x="959.806641" xlink:href="#DejaVuSans-115"/>
      <use x="1011.90625" xlink:href="#DejaVuSans-41"/>
     </g>
    </g>
    <g id="line2d_9">
     <path d="M 16.2 151.347812 
L 36.2 151.347812 
" style="fill:none;stroke:#ff7f0e;stroke-linecap:square;stroke-width:1.5;"/>
    </g>
    <g id="line2d_10"/>
    <g id="text_2">
     <!-- PV (green sources) -->
     <g transform="translate(44.2 154.847812)scale(0.1 -0.1)">
      <defs>
       <path d="M 19.671875 64.796875 
L 19.671875 37.40625 
L 32.078125 37.40625 
Q 38.96875 37.40625 42.71875 40.96875 
Q 46.484375 44.53125 46.484375 51.125 
Q 46.484375 57.671875 42.71875 61.234375 
Q 38.96875 64.796875 32.078125 64.796875 
z
M 9.8125 72.90625 
L 32.078125 72.90625 
Q 44.34375 72.90625 50.609375 67.359375 
Q 56.890625 61.8125 56.890625 51.125 
Q 56.890625 40.328125 50.609375 34.8125 
Q 44.34375 29.296875 32.078125 29.296875 
L 19.671875 29.296875 
L 19.671875 0 
L 9.8125 0 
z
" id="DejaVuSans-80"/>
       <path d="M 28.609375 0 
L 0.78125 72.90625 
L 11.078125 72.90625 
L 34.1875 11.53125 
L 57.328125 72.90625 
L 67.578125 72.90625 
L 39.796875 0 
z
" id="DejaVuSans-86"/>
      </defs>
      <use xlink:href="#DejaVuSans-80"/>
      <use x="60.302734" xlink:href="#DejaVuSans-86"/>
      <use x="128.710938" xlink:href="#DejaVuSans-32"/>
      <use x="160.498047" xlink:href="#DejaVuSans-40"/>
      <use x="199.511719" xlink:href="#DejaVuSans-103"/>
      <use x="262.988281" xlink:href="#DejaVuSans-114"/>
      <use x="301.851562" xlink:href="#DejaVuSans-101"/>
      <use x="363.375" xlink:href="#DejaVuSans-101"/>
      <use x="424.898438" xlink:href="#DejaVuSans-110"/>
      <use x="488.277344" xlink:href="#DejaVuSans-32"/>
      <use x="520.064453" xlink:href="#DejaVuSans-115"/>
      <use x="572.164062" xlink:href="#DejaVuSans-111"/>
      <use x="633.345703" xlink:href="#DejaVuSans-117"/>
      <use x="696.724609" xlink:href="#DejaVuSans-114"/>
      <use x="735.587891" xlink:href="#DejaVuSans-99"/>
      <use x="790.568359" xlink:href="#DejaVuSans-101"/>
      <use x="852.091797" xlink:href="#DejaVuSans-115"/>
      <use x="904.191406" xlink:href="#DejaVuSans-41"/>
     </g>
    </g>
    <g id="line2d_11">
     <path d="M 16.2 166.025937 
L 36.2 166.025937 
" style="fill:none;stroke:#2ca02c;stroke-linecap:square;stroke-width:1.5;"/>
    </g>
    <g id="line2d_12"/>
    <g id="text_3">
     <!-- spot market (grey sources) -->
     <g transform="translate(44.2 169.525937)scale(0.1 -0.1)">
      <defs>
       <path d="M 18.109375 8.203125 
L 18.109375 -20.796875 
L 9.078125 -20.796875 
L 9.078125 54.6875 
L 18.109375 54.6875 
L 18.109375 46.390625 
Q 20.953125 51.265625 25.265625 53.625 
Q 29.59375 56 35.59375 56 
Q 45.5625 56 51.78125 48.09375 
Q 58.015625 40.1875 58.015625 27.296875 
Q 58.015625 14.40625 51.78125 6.484375 
Q 45.5625 -1.421875 35.59375 -1.421875 
Q 29.59375 -1.421875 25.265625 0.953125 
Q 20.953125 3.328125 18.109375 8.203125 
z
M 48.6875 27.296875 
Q 48.6875 37.203125 44.609375 42.84375 
Q 40.53125 48.484375 33.40625 48.484375 
Q 26.265625 48.484375 22.1875 42.84375 
Q 18.109375 37.203125 18.109375 27.296875 
Q 18.109375 17.390625 22.1875 11.75 
Q 26.265625 6.109375 33.40625 6.109375 
Q 40.53125 6.109375 44.609375 11.75 
Q 48.6875 17.390625 48.6875 27.296875 
z
" id="DejaVuSans-112"/>
       <path d="M 18.3125 70.21875 
L 18.3125 54.6875 
L 36.8125 54.6875 
L 36.8125 47.703125 
L 18.3125 47.703125 
L 18.3125 18.015625 
Q 18.3125 11.328125 20.140625 9.421875 
Q 21.96875 7.515625 27.59375 7.515625 
L 36.8125 7.515625 
L 36.8125 0 
L 27.59375 0 
Q 17.1875 0 13.234375 3.875 
Q 9.28125 7.765625 9.28125 18.015625 
L 9.28125 47.703125 
L 2.6875 47.703125 
L 2.6875 54.6875 
L 9.28125 54.6875 
L 9.28125 70.21875 
z
" id="DejaVuSans-116"/>
       <path d="M 52 44.1875 
Q 55.375 50.25 60.0625 53.125 
Q 64.75 56 71.09375 56 
Q 79.640625 56 84.28125 50.015625 
Q 88.921875 44.046875 88.921875 33.015625 
L 88.921875 0 
L 79.890625 0 
L 79.890625 32.71875 
Q 79.890625 40.578125 77.09375 44.375 
Q 74.3125 48.1875 68.609375 48.1875 
Q 61.625 48.1875 57.5625 43.546875 
Q 53.515625 38.921875 53.515625 30.90625 
L 53.515625 0 
L 44.484375 0 
L 44.484375 32.71875 
Q 44.484375 40.625 41.703125 44.40625 
Q 38.921875 48.1875 33.109375 48.1875 
Q 26.21875 48.1875 22.15625 43.53125 
Q 18.109375 38.875 18.109375 30.90625 
L 18.109375 0 
L 9.078125 0 
L 9.078125 54.6875 
L 18.109375 54.6875 
L 18.109375 46.1875 
Q 21.1875 51.21875 25.484375 53.609375 
Q 29.78125 56 35.6875 56 
Q 41.65625 56 45.828125 52.96875 
Q 50 49.953125 52 44.1875 
z
" id="DejaVuSans-109"/>
       <path d="M 34.28125 27.484375 
Q 23.390625 27.484375 19.1875 25 
Q 14.984375 22.515625 14.984375 16.5 
Q 14.984375 11.71875 18.140625 8.90625 
Q 21.296875 6.109375 26.703125 6.109375 
Q 34.1875 6.109375 38.703125 11.40625 
Q 43.21875 16.703125 43.21875 25.484375 
L 43.21875 27.484375 
z
M 52.203125 31.203125 
L 52.203125 0 
L 43.21875 0 
L 43.21875 8.296875 
Q 40.140625 3.328125 35.546875 0.953125 
Q 30.953125 -1.421875 24.3125 -1.421875 
Q 15.921875 -1.421875 10.953125 3.296875 
Q 6 8.015625 6 15.921875 
Q 6 25.140625 12.171875 29.828125 
Q 18.359375 34.515625 30.609375 34.515625 
L 43.21875 34.515625 
L 43.21875 35.40625 
Q 43.21875 41.609375 39.140625 45 
Q 35.0625 48.390625 27.6875 48.390625 
Q 23 48.390625 18.546875 47.265625 
Q 14.109375 46.140625 10.015625 43.890625 
L 10.015625 52.203125 
Q 14.9375 54.109375 19.578125 55.046875 
Q 24.21875 56 28.609375 56 
Q 40.484375 56 46.34375 49.84375 
Q 52.203125 43.703125 52.203125 31.203125 
z
" id="DejaVuSans-97"/>
       <path d="M 9.078125 75.984375 
L 18.109375 75.984375 
L 18.109375 31.109375 
L 44.921875 54.6875 
L 56.390625 54.6875 
L 27.390625 29.109375 
L 57.625 0 
L 45.90625 0 
L 18.109375 26.703125 
L 18.109375 0 
L 9.078125 0 
z
" id="DejaVuSans-107"/>
       <path d="M 32.171875 -5.078125 
Q 28.375 -14.84375 24.75 -17.8125 
Q 21.140625 -20.796875 15.09375 -20.796875 
L 7.90625 -20.796875 
L 7.90625 -13.28125 
L 13.1875 -13.28125 
Q 16.890625 -13.28125 18.9375 -11.515625 
Q 21 -9.765625 23.484375 -3.21875 
L 25.09375 0.875 
L 2.984375 54.6875 
L 12.5 54.6875 
L 29.59375 11.921875 
L 46.6875 54.6875 
L 56.203125 54.6875 
z
" id="DejaVuSans-121"/>
      </defs>
      <use xlink:href="#DejaVuSans-115"/>
      <use x="52.099609" xlink:href="#DejaVuSans-112"/>
      <use x="115.576172" xlink:href="#DejaVuSans-111"/>
      <use x="176.757812" xlink:href="#DejaVuSans-116"/>
      <use x="215.966797" xlink:href="#DejaVuSans-32"/>
      <use x="247.753906" xlink:href="#DejaVuSans-109"/>
      <use x="345.166016" xlink:href="#DejaVuSans-97"/>
      <use x="406.445312" xlink:href="#DejaVuSans-114"/>
      <use x="447.558594" xlink:href="#DejaVuSans-107"/>
      <use x="501.84375" xlink:href="#DejaVuSans-101"/>
      <use x="563.367188" xlink:href="#DejaVuSans-116"/>
      <use x="602.576172" xlink:href="#DejaVuSans-32"/>
      <use x="634.363281" xlink:href="#DejaVuSans-40"/>
      <use x="673.376953" xlink:href="#DejaVuSans-103"/>
      <use x="736.853516" xlink:href="#DejaVuSans-114"/>
      <use x="775.716797" xlink:href="#DejaVuSans-101"/>
      <use x="837.240234" xlink:href="#DejaVuSans-121"/>
      <use x="896.419922" xlink:href="#DejaVuSans-32"/>
      <use x="928.207031" xlink:href="#DejaVuSans-115"/>
      <use x="980.306641" xlink:href="#DejaVuSans-111"/>
      <use x="1041.488281" xlink:href="#DejaVuSans-117"/>
      <use x="1104.867188" xlink:href="#DejaVuSans-114"/>
      <use x="1143.730469" xlink:href="#DejaVuSans-99"/>
      <use x="1198.710938" xlink:href="#DejaVuSans-101"/>
      <use x="1260.234375" xlink:href="#DejaVuSans-115"/>
      <use x="1312.333984" xlink:href="#DejaVuSans-41"/>
     </g>
    </g>
    <g id="line2d_13">
     <path d="M 16.2 180.704062 
L 36.2 180.704062 
" style="fill:none;stroke:#d62728;stroke-linecap:square;stroke-width:1.5;"/>
    </g>
    <g id="line2d_14"/>
    <g id="text_4">
     <!-- green sales (green sources) -->
     <g transform="translate(44.2 184.204062)scale(0.1 -0.1)">
      <defs>
       <path d="M 9.421875 75.984375 
L 18.40625 75.984375 
L 18.40625 0 
L 9.421875 0 
z
" id="DejaVuSans-108"/>
      </defs>
      <use xlink:href="#DejaVuSans-103"/>
      <use x="63.476562" xlink:href="#DejaVuSans-114"/>
      <use x="102.339844" xlink:href="#DejaVuSans-101"/>
      <use x="163.863281" xlink:href="#DejaVuSans-101"/>
      <use x="225.386719" xlink:href="#DejaVuSans-110"/>
      <use x="288.765625" xlink:href="#DejaVuSans-32"/>
      <use x="320.552734" xlink:href="#DejaVuSans-115"/>
      <use x="372.652344" xlink:href="#DejaVuSans-97"/>
      <use x="433.931641" xlink:href="#DejaVuSans-108"/>
      <use x="461.714844" xlink:href="#DejaVuSans-101"/>
      <use x="523.238281" xlink:href="#DejaVuSans-115"/>
      <use x="575.337891" xlink:href="#DejaVuSans-32"/>
      <use x="607.125" xlink:href="#DejaVuSans-40"/>
      <use x="646.138672" xlink:href="#DejaVuSans-103"/>
      <use x="709.615234" xlink:href="#DejaVuSans-114"/>
      <use x="748.478516" xlink:href="#DejaVuSans-101"/>
      <use x="810.001953" xlink:href="#DejaVuSans-101"/>
      <use x="871.525391" xlink:href="#DejaVuSans-110"/>
      <use x="934.904297" xlink:href="#DejaVuSans-32"/>
      <use x="966.691406" xlink:href="#DejaVuSans-115"/>
      <use x="1018.791016" xlink:href="#DejaVuSans-111"/>
      <use x="1079.972656" xlink:href="#DejaVuSans-117"/>
      <use x="1143.351562" xlink:href="#DejaVuSans-114"/>
      <use x="1182.214844" xlink:href="#DejaVuSans-99"/>
      <use x="1237.195312" xlink:href="#DejaVuSans-101"/>
      <use x="1298.71875" xlink:href="#DejaVuSans-115"/>
      <use x="1350.818359" xlink:href="#DejaVuSans-41"/>
     </g>
    </g>
    <g id="line2d_15">
     <path d="M 16.2 195.382187 
L 36.2 195.382187 
" style="fill:none;stroke:#9467bd;stroke-linecap:square;stroke-width:1.5;"/>
    </g>
    <g id="line2d_16"/>
    <g id="text_5">
     <!-- battery (green sources) -->
     <g transform="translate(44.2 198.882187)scale(0.1 -0.1)">
      <defs>
       <path d="M 48.6875 27.296875 
Q 48.6875 37.203125 44.609375 42.84375 
Q 40.53125 48.484375 33.40625 48.484375 
Q 26.265625 48.484375 22.1875 42.84375 
Q 18.109375 37.203125 18.109375 27.296875 
Q 18.109375 17.390625 22.1875 11.75 
Q 26.265625 6.109375 33.40625 6.109375 
Q 40.53125 6.109375 44.609375 11.75 
Q 48.6875 17.390625 48.6875 27.296875 
z
M 18.109375 46.390625 
Q 20.953125 51.265625 25.265625 53.625 
Q 29.59375 56 35.59375 56 
Q 45.5625 56 51.78125 48.09375 
Q 58.015625 40.1875 58.015625 27.296875 
Q 58.015625 14.40625 51.78125 6.484375 
Q 45.5625 -1.421875 35.59375 -1.421875 
Q 29.59375 -1.421875 25.265625 0.953125 
Q 20.953125 3.328125 18.109375 8.203125 
L 18.109375 0 
L 9.078125 0 
L 9.078125 75.984375 
L 18.109375 75.984375 
z
" id="DejaVuSans-98"/>
      </defs>
      <use xlink:href="#DejaVuSans-98"/>
      <use x="63.476562" xlink:href="#DejaVuSans-97"/>
      <use x="124.755859" xlink:href="#DejaVuSans-116"/>
      <use x="163.964844" xlink:href="#DejaVuSans-116"/>
      <use x="203.173828" xlink:href="#DejaVuSans-101"/>
      <use x="264.697266" xlink:href="#DejaVuSans-114"/>
      <use x="305.810547" xlink:href="#DejaVuSans-121"/>
      <use x="364.990234" xlink:href="#DejaVuSans-32"/>
      <use x="396.777344" xlink:href="#DejaVuSans-40"/>
      <use x="435.791016" xlink:href="#DejaVuSans-103"/>
      <use x="499.267578" xlink:href="#DejaVuSans-114"/>
      <use x="538.130859" xlink:href="#DejaVuSans-101"/>
      <use x="599.654297" xlink:href="#DejaVuSans-101"/>
      <use x="661.177734" xlink:href="#DejaVuSans-110"/>
      <use x="724.556641" xlink:href="#DejaVuSans-32"/>
      <use x="756.34375" xlink:href="#DejaVuSans-115"/>
      <use x="808.443359" xlink:href="#DejaVuSans-111"/>
      <use x="869.625" xlink:href="#DejaVuSans-117"/>
      <use x="933.003906" xlink:href="#DejaVuSans-114"/>
      <use x="971.867188" xlink:href="#DejaVuSans-99"/>
      <use x="1026.847656" xlink:href="#DejaVuSans-101"/>
      <use x="1088.371094" xlink:href="#DejaVuSans-115"/>
      <use x="1140.470703" xlink:href="#DejaVuSans-41"/>
     </g>
    </g>
    <g id="line2d_17">
     <path d="M 16.2 210.060312 
L 36.2 210.060312 
" style="fill:none;stroke:#8c564b;stroke-linecap:square;stroke-width:1.5;"/>
    </g>
    <g id="line2d_18"/>
    <g id="text_6">
     <!-- downstream -->
     <g transform="translate(44.2 213.560312)scale(0.1 -0.1)">
      <use xlink:href="#DejaVuSans-100"/>
      <use x="63.476562" xlink:href="#DejaVuSans-111"/>
      <use x="124.658203" xlink:href="#DejaVuSans-119"/>
      <use x="206.445312" xlink:href="#DejaVuSans-110"/>
      <use x="269.824219" xlink:href="#DejaVuSans-115"/>
      <use x="321.923828" xlink:href="#DejaVuSans-116"/>
      <use x="361.132812" xlink:href="#DejaVuSans-114"/>
      <use x="399.996094" xlink:href="#DejaVuSans-101"/>
      <use x="461.519531" xlink:href="#DejaVuSans-97"/>
      <use x="522.798828" xlink:href="#DejaVuSans-109"/>
     </g>
    </g>
   </g>
  </g>
 </g>
 <defs>
  <clipPath id="p7b0756f986">
   <rect height="217.44" width="334.8" x="7.2" y="7.2"/>
  </clipPath>
 </defs>
</svg>
