<?xml version="1.0" encoding="utf-8" standalone="no"?>
<!DOCTYPE svg PUBLIC "-//W3C//DTD SVG 1.1//EN"
  "http://www.w3.org/Graphics/SVG/1.1/DTD/svg11.dtd">
<svg xmlns:xlink="http://www.w3.org/1999/xlink" width="349.2pt" height="246.958125pt" viewBox="0 0 349.2 246.958125" xmlns="http://www.w3.org/2000/svg" version="1.1">
 <metadata>
  <rdf:RDF xmlns:dc="http://purl.org/dc/elements/1.1/" xmlns:cc="http://creativecommons.org/ns#" xmlns:rdf="http://www.w3.org/1999/02/22-rdf-syntax-ns#">
   <cc:Work>
    <dc:type rdf:resource="http://purl.org/dc/dcmitype/StillImage"/>
    <dc:date>2022-07-07T17:23:58.589100</dc:date>
    <dc:format>image/svg+xml</dc:format>
    <dc:creator>
     <cc:Agent>
      <dc:title>Matplotlib v3.5.0, https://matplotlib.org/</dc:title>
     </cc:Agent>
    </dc:creator>
   </cc:Work>
  </rdf:RDF>
 </metadata>
 <defs>
  <style type="text/css">*{stroke-linejoin: round; stroke-linecap: butt}</style>
 </defs>
 <g id="figure_1">
  <g id="patch_1">
   <path d="M 0 246.958125 
L 349.2 246.958125 
L 349.2 0 
L 0 0 
L 0 246.958125 
z
" style="fill: none"/>
  </g>
  <g id="axes_1">
   <g id="patch_2">
    <path d="M 248.167727 184.763302 
Q 221.296191 169.92905 195.403449 155.635134 
" clip-path="url(#pe4869d0e33)" style="fill: none; stroke: #808080; stroke-linecap: round"/>
    <path d="M 197.938704 159.319219 
L 195.403449 155.635134 
L 199.87187 155.817382 
L 197.938704 159.319219 
z
" clip-path="url(#pe4869d0e33)" style="fill: #808080; stroke: #808080; stroke-linecap: round"/>
   </g>
   <g id="patch_3">
    <path d="M 263.308502 193.169903 
Q 284.348254 204.919036 304.41186 216.123065 
" clip-path="url(#pe4869d0e33)" style="fill: none; stroke: #808080; stroke-linecap: round"/>
    <path d="M 301.894607 212.426656 
L 304.41186 216.123065 
L 299.944381 215.919022 
L 301.894607 212.426656 
z
" clip-path="url(#pe4869d0e33)" style="fill: #808080; stroke: #808080; stroke-linecap: round"/>
   </g>
   <g id="patch_4">
    <path d="M 112.530442 170.893193 
Q 145.508183 162.025863 177.406241 153.448847 
" clip-path="url(#pe4869d0e33)" style="fill: none; stroke: #808080; stroke-linecap: round"/>
    <path d="M 173.024115 152.55611 
L 177.406241 153.448847 
L 174.062776 156.418905 
L 173.024115 152.55611 
z
" clip-path="url(#pe4869d0e33)" style="fill: #808080; stroke: #808080; stroke-linecap: round"/>
   </g>
   <g id="patch_5">
    <path d="M 95.822048 175.450223 
Q 70.209565 182.534607 45.674655 189.320935 
" clip-path="url(#pe4869d0e33)" style="fill: none; stroke: #808080; stroke-linecap: round"/>
    <path d="M 50.063075 190.1822 
L 45.674655 189.320935 
L 48.996719 186.326959 
L 50.063075 190.1822 
z
" clip-path="url(#pe4869d0e33)" style="fill: #808080; stroke: #808080; stroke-linecap: round"/>
   </g>
   <g id="patch_6">
    <path d="M 198.588256 99.271379 
Q 193.676907 120.869206 189.013471 141.376832 
" clip-path="url(#pe4869d0e33)" style="fill: none; stroke: #808080; stroke-linecap: round"/>
    <path d="M 191.85064 137.919886 
L 189.013471 141.376832 
L 187.950216 137.032929 
L 191.85064 137.919886 
z
" clip-path="url(#pe4869d0e33)" style="fill: #808080; stroke: #808080; stroke-linecap: round"/>
   </g>
   <g id="patch_7">
    <path d="M 202.417213 82.375721 
Q 206.114271 66.006025 209.565028 50.726895 
" clip-path="url(#pe4869d0e33)" style="fill: none; stroke: #808080; stroke-linecap: round"/>
    <path d="M 206.732966 54.188026 
L 209.565028 50.726895 
L 210.634696 55.069223 
L 206.732966 54.188026 
z
" clip-path="url(#pe4869d0e33)" style="fill: #808080; stroke: #808080; stroke-linecap: round"/>
   </g>
   <g id="patch_8">
    <path d="M 194.428205 155.096757 
Q 221.299741 169.93101 247.192483 184.224925 
" clip-path="url(#pe4869d0e33)" style="fill: none; stroke: #808080; stroke-linecap: round"/>
    <path d="M 244.657228 180.54084 
L 247.192483 184.224925 
L 242.724062 184.042678 
L 244.657228 180.54084 
z
" clip-path="url(#pe4869d0e33)" style="fill: #808080; stroke: #808080; stroke-linecap: round"/>
   </g>
   <g id="patch_9">
    <path d="M 178.481138 153.159819 
Q 145.503397 162.02715 113.605339 170.604165 
" clip-path="url(#pe4869d0e33)" style="fill: none; stroke: #808080; stroke-linecap: round"/>
    <path d="M 117.987464 171.496902 
L 113.605339 170.604165 
L 116.948804 167.634108 
L 117.987464 171.496902 
z
" clip-path="url(#pe4869d0e33)" style="fill: #808080; stroke: #808080; stroke-linecap: round"/>
   </g>
   <g id="patch_10">
    <path d="M 188.766035 142.46494 
Q 193.677383 120.867113 198.34082 100.359487 
" clip-path="url(#pe4869d0e33)" style="fill: none; stroke: #808080; stroke-linecap: round"/>
    <path d="M 195.503651 103.816433 
L 198.34082 100.359487 
L 199.404075 104.70339 
L 195.503651 103.816433 
z
" clip-path="url(#pe4869d0e33)" style="fill: #808080; stroke: #808080; stroke-linecap: round"/>
   </g>
   <g id="patch_11">
    <path d="M 305.389081 216.66877 
Q 284.349329 204.919637 264.285723 193.715608 
" clip-path="url(#pe4869d0e33)" style="fill: none; stroke: #808080; stroke-linecap: round"/>
    <path d="M 266.802976 197.412017 
L 264.285723 193.715608 
L 268.753202 193.919651 
L 266.802976 197.412017 
z
" clip-path="url(#pe4869d0e33)" style="fill: #808080; stroke: #808080; stroke-linecap: round"/>
   </g>
   <g id="patch_12">
    <path d="M 44.596968 189.619022 
Q 70.209451 182.534638 94.74436 175.74831 
" clip-path="url(#pe4869d0e33)" style="fill: none; stroke: #808080; stroke-linecap: round"/>
    <path d="M 90.355941 174.887044 
L 94.74436 175.74831 
L 91.422297 178.742286 
L 90.355941 174.887044 
z
" clip-path="url(#pe4869d0e33)" style="fill: #808080; stroke: #808080; stroke-linecap: round"/>
   </g>
   <g id="patch_13">
    <path d="M 209.811238 49.636732 
Q 206.11418 66.006428 202.663424 81.285558 
" clip-path="url(#pe4869d0e33)" style="fill: none; stroke: #808080; stroke-linecap: round"/>
    <path d="M 205.495485 77.824427 
L 202.663424 81.285558 
L 201.593756 76.94323 
L 205.495485 77.824427 
z
" clip-path="url(#pe4869d0e33)" style="fill: #808080; stroke: #808080; stroke-linecap: round"/>
   </g>
   <g id="PathCollection_1">
    <path d="M 255.750476 200.129648 
C 258.715536 200.129648 261.559555 198.951617 263.65617 196.855002 
C 265.752784 194.758388 266.930816 191.914369 266.930816 188.949308 
C 266.930816 185.984247 265.752784 183.140229 263.65617 181.043614 
C 261.559555 178.946999 258.715536 177.768968 255.750476 177.768968 
C 252.785415 177.768968 249.941396 178.946999 247.844782 181.043614 
C 245.748167 183.140229 244.570136 185.984247 244.570136 188.949308 
C 244.570136 191.914369 245.748167 194.758388 247.844782 196.855002 
C 249.941396 198.951617 252.785415 200.129648 255.750476 200.129648 
z
" clip-path="url(#pe4869d0e33)" style="fill: #ffa500; fill-opacity: 0.7; stroke: #ffa500; stroke-opacity: 0.7"/>
    <path d="M 104.166123 184.322601 
C 107.131184 184.322601 109.975203 183.144569 112.071817 181.047955 
C 114.168432 178.95134 115.346463 176.107321 115.346463 173.142261 
C 115.346463 170.1772 114.168432 167.333181 112.071817 165.236566 
C 109.975203 163.139952 107.131184 161.961921 104.166123 161.961921 
C 101.201062 161.961921 98.357044 163.139952 96.260429 165.236566 
C 94.163814 167.333181 92.985783 170.1772 92.985783 173.142261 
C 92.985783 176.107321 94.163814 178.95134 96.260429 181.047955 
C 98.357044 183.144569 101.201062 184.322601 104.166123 184.322601 
z
" clip-path="url(#pe4869d0e33)" style="fill: #ffa500; fill-opacity: 0.7; stroke: #ffa500; stroke-opacity: 0.7"/>
    <path d="M 200.508834 102.005907 
C 203.473895 102.005907 206.317914 100.827876 208.414528 98.731262 
C 210.511143 96.634647 211.689174 93.790628 211.689174 90.825568 
C 211.689174 87.860507 210.511143 85.016488 208.414528 82.919873 
C 206.317914 80.823259 203.473895 79.645228 200.508834 79.645228 
C 197.543773 79.645228 194.699755 80.823259 192.60314 82.919873 
C 190.506526 85.016488 189.328494 87.860507 189.328494 90.825568 
C 189.328494 93.790628 190.506526 96.634647 192.60314 98.731262 
C 194.699755 100.827876 197.543773 102.005907 200.508834 102.005907 
z
" clip-path="url(#pe4869d0e33)" style="fill: #ffa500; fill-opacity: 0.7; stroke: #ffa500; stroke-opacity: 0.7"/>
    <path d="M 186.845456 157.981819 
C 188.720726 157.981819 190.519441 157.236767 191.845456 155.910752 
C 193.171472 154.584736 193.916524 152.786021 193.916524 150.910752 
C 193.916524 149.035482 193.171472 147.236767 191.845456 145.910752 
C 190.519441 144.584736 188.720726 143.839684 186.845456 143.839684 
C 184.970187 143.839684 183.171472 144.584736 181.845456 145.910752 
C 180.519441 147.236767 179.774389 149.035482 179.774389 150.910752 
C 179.774389 152.786021 180.519441 154.584736 181.845456 155.910752 
C 183.171472 157.236767 184.970187 157.981819 186.845456 157.981819 
z
" clip-path="url(#pe4869d0e33)" style="fill: #808080; fill-opacity: 0.7; stroke: #808080; stroke-opacity: 0.7"/>
    <path d="M 312.947107 227.960432 
C 314.822377 227.960432 316.621092 227.21538 317.947107 225.889365 
C 319.273123 224.563349 320.018175 222.764634 320.018175 220.889365 
C 320.018175 219.014096 319.273123 217.21538 317.947107 215.889365 
C 316.621092 214.563349 314.822377 213.818297 312.947107 213.818297 
C 311.071838 213.818297 309.273123 214.563349 307.947107 215.889365 
C 306.621092 217.21538 305.87604 219.014096 305.87604 220.889365 
C 305.87604 222.764634 306.621092 224.563349 307.947107 225.889365 
C 309.273123 227.21538 311.071838 227.960432 312.947107 227.960432 
z
" clip-path="url(#pe4869d0e33)" style="fill: #808080; fill-opacity: 0.7; stroke: #808080; stroke-opacity: 0.7"/>
    <path d="M 36.252893 198.998052 
C 38.128162 198.998052 39.926877 198.253 41.252893 196.926984 
C 42.578908 195.600969 43.32396 193.802253 43.32396 191.926984 
C 43.32396 190.051715 42.578908 188.253 41.252893 186.926984 
C 39.926877 185.600969 38.128162 184.855916 36.252893 184.855916 
C 34.377623 184.855916 32.578908 185.600969 31.252893 186.926984 
C 29.926877 188.253 29.181825 190.051715 29.181825 191.926984 
C 29.181825 193.802253 29.926877 195.600969 31.252893 196.926984 
C 32.578908 198.253 34.377623 198.998052 36.252893 198.998052 
z
" clip-path="url(#pe4869d0e33)" style="fill: #808080; fill-opacity: 0.7; stroke: #808080; stroke-opacity: 0.7"/>
    <path d="M 211.719617 48.257953 
C 213.594886 48.257953 215.393601 47.512901 216.719617 46.186885 
C 218.045632 44.86087 218.790685 43.062154 218.790685 41.186885 
C 218.790685 39.311616 218.045632 37.512901 216.719617 36.186885 
C 215.393601 34.86087 213.594886 34.115818 211.719617 34.115818 
C 209.844348 34.115818 208.045632 34.86087 206.719617 36.186885 
C 205.393601 37.512901 204.648549 39.311616 204.648549 41.186885 
C 204.648549 43.062154 205.393601 44.86087 206.719617 46.186885 
C 208.045632 47.512901 209.844348 48.257953 211.719617 48.257953 
z
" clip-path="url(#pe4869d0e33)" style="fill: #808080; fill-opacity: 0.7; stroke: #808080; stroke-opacity: 0.7"/>
   </g>
   <g id="text_1">
    <g clip-path="url(#pe4869d0e33)">
     <!-- node_power -->
     <g transform="translate(231.403601 191.045558)scale(0.08 -0.08)">
      <defs>
       <path id="DejaVuSans-6e" d="M 3513 2113 
L 3513 0 
L 2938 0 
L 2938 2094 
Q 2938 2591 2744 2837 
Q 2550 3084 2163 3084 
Q 1697 3084 1428 2787 
Q 1159 2491 1159 1978 
L 1159 0 
L 581 0 
L 581 3500 
L 1159 3500 
L 1159 2956 
Q 1366 3272 1645 3428 
Q 1925 3584 2291 3584 
Q 2894 3584 3203 3211 
Q 3513 2838 3513 2113 
z
" transform="scale(0.015625)"/>
       <path id="DejaVuSans-6f" d="M 1959 3097 
Q 1497 3097 1228 2736 
Q 959 2375 959 1747 
Q 959 1119 1226 758 
Q 1494 397 1959 397 
Q 2419 397 2687 759 
Q 2956 1122 2956 1747 
Q 2956 2369 2687 2733 
Q 2419 3097 1959 3097 
z
M 1959 3584 
Q 2709 3584 3137 3096 
Q 3566 2609 3566 1747 
Q 3566 888 3137 398 
Q 2709 -91 1959 -91 
Q 1206 -91 779 398 
Q 353 888 353 1747 
Q 353 2609 779 3096 
Q 1206 3584 1959 3584 
z
" transform="scale(0.015625)"/>
       <path id="DejaVuSans-64" d="M 2906 2969 
L 2906 4863 
L 3481 4863 
L 3481 0 
L 2906 0 
L 2906 525 
Q 2725 213 2448 61 
Q 2172 -91 1784 -91 
Q 1150 -91 751 415 
Q 353 922 353 1747 
Q 353 2572 751 3078 
Q 1150 3584 1784 3584 
Q 2172 3584 2448 3432 
Q 2725 3281 2906 2969 
z
M 947 1747 
Q 947 1113 1208 752 
Q 1469 391 1925 391 
Q 2381 391 2643 752 
Q 2906 1113 2906 1747 
Q 2906 2381 2643 2742 
Q 2381 3103 1925 3103 
Q 1469 3103 1208 2742 
Q 947 2381 947 1747 
z
" transform="scale(0.015625)"/>
       <path id="DejaVuSans-65" d="M 3597 1894 
L 3597 1613 
L 953 1613 
Q 991 1019 1311 708 
Q 1631 397 2203 397 
Q 2534 397 2845 478 
Q 3156 559 3463 722 
L 3463 178 
Q 3153 47 2828 -22 
Q 2503 -91 2169 -91 
Q 1331 -91 842 396 
Q 353 884 353 1716 
Q 353 2575 817 3079 
Q 1281 3584 2069 3584 
Q 2775 3584 3186 3129 
Q 3597 2675 3597 1894 
z
M 3022 2063 
Q 3016 2534 2758 2815 
Q 2500 3097 2075 3097 
Q 1594 3097 1305 2825 
Q 1016 2553 972 2059 
L 3022 2063 
z
" transform="scale(0.015625)"/>
       <path id="DejaVuSans-5f" d="M 3263 -1063 
L 3263 -1509 
L -63 -1509 
L -63 -1063 
L 3263 -1063 
z
" transform="scale(0.015625)"/>
       <path id="DejaVuSans-70" d="M 1159 525 
L 1159 -1331 
L 581 -1331 
L 581 3500 
L 1159 3500 
L 1159 2969 
Q 1341 3281 1617 3432 
Q 1894 3584 2278 3584 
Q 2916 3584 3314 3078 
Q 3713 2572 3713 1747 
Q 3713 922 3314 415 
Q 2916 -91 2278 -91 
Q 1894 -91 1617 61 
Q 1341 213 1159 525 
z
M 3116 1747 
Q 3116 2381 2855 2742 
Q 2594 3103 2138 3103 
Q 1681 3103 1420 2742 
Q 1159 2381 1159 1747 
Q 1159 1113 1420 752 
Q 1681 391 2138 391 
Q 2594 391 2855 752 
Q 3116 1113 3116 1747 
z
" transform="scale(0.015625)"/>
       <path id="DejaVuSans-77" d="M 269 3500 
L 844 3500 
L 1563 769 
L 2278 3500 
L 2956 3500 
L 3675 769 
L 4391 3500 
L 4966 3500 
L 4050 0 
L 3372 0 
L 2619 2869 
L 1863 0 
L 1184 0 
L 269 3500 
z
" transform="scale(0.015625)"/>
       <path id="DejaVuSans-72" d="M 2631 2963 
Q 2534 3019 2420 3045 
Q 2306 3072 2169 3072 
Q 1681 3072 1420 2755 
Q 1159 2438 1159 1844 
L 1159 0 
L 581 0 
L 581 3500 
L 1159 3500 
L 1159 2956 
Q 1341 3275 1631 3429 
Q 1922 3584 2338 3584 
Q 2397 3584 2469 3576 
Q 2541 3569 2628 3553 
L 2631 2963 
z
" transform="scale(0.015625)"/>
      </defs>
      <use xlink:href="#DejaVuSans-6e"/>
      <use xlink:href="#DejaVuSans-6f" x="63.378906"/>
      <use xlink:href="#DejaVuSans-64" x="124.560547"/>
      <use xlink:href="#DejaVuSans-65" x="188.037109"/>
      <use xlink:href="#DejaVuSans-5f" x="249.560547"/>
      <use xlink:href="#DejaVuSans-70" x="299.560547"/>
      <use xlink:href="#DejaVuSans-6f" x="363.037109"/>
      <use xlink:href="#DejaVuSans-77" x="424.21875"/>
      <use xlink:href="#DejaVuSans-65" x="506.005859"/>
      <use xlink:href="#DejaVuSans-72" x="567.529297"/>
     </g>
    </g>
   </g>
   <g id="text_2">
    <g clip-path="url(#pe4869d0e33)">
     <!-- node_heat -->
     <g transform="translate(83.167373 175.238511)scale(0.08 -0.08)">
      <defs>
       <path id="DejaVuSans-68" d="M 3513 2113 
L 3513 0 
L 2938 0 
L 2938 2094 
Q 2938 2591 2744 2837 
Q 2550 3084 2163 3084 
Q 1697 3084 1428 2787 
Q 1159 2491 1159 1978 
L 1159 0 
L 581 0 
L 581 4863 
L 1159 4863 
L 1159 2956 
Q 1366 3272 1645 3428 
Q 1925 3584 2291 3584 
Q 2894 3584 3203 3211 
Q 3513 2838 3513 2113 
z
" transform="scale(0.015625)"/>
       <path id="DejaVuSans-61" d="M 2194 1759 
Q 1497 1759 1228 1600 
Q 959 1441 959 1056 
Q 959 750 1161 570 
Q 1363 391 1709 391 
Q 2188 391 2477 730 
Q 2766 1069 2766 1631 
L 2766 1759 
L 2194 1759 
z
M 3341 1997 
L 3341 0 
L 2766 0 
L 2766 531 
Q 2569 213 2275 61 
Q 1981 -91 1556 -91 
Q 1019 -91 701 211 
Q 384 513 384 1019 
Q 384 1609 779 1909 
Q 1175 2209 1959 2209 
L 2766 2209 
L 2766 2266 
Q 2766 2663 2505 2880 
Q 2244 3097 1772 3097 
Q 1472 3097 1187 3025 
Q 903 2953 641 2809 
L 641 3341 
Q 956 3463 1253 3523 
Q 1550 3584 1831 3584 
Q 2591 3584 2966 3190 
Q 3341 2797 3341 1997 
z
" transform="scale(0.015625)"/>
       <path id="DejaVuSans-74" d="M 1172 4494 
L 1172 3500 
L 2356 3500 
L 2356 3053 
L 1172 3053 
L 1172 1153 
Q 1172 725 1289 603 
Q 1406 481 1766 481 
L 2356 481 
L 2356 0 
L 1766 0 
Q 1100 0 847 248 
Q 594 497 594 1153 
L 594 3053 
L 172 3053 
L 172 3500 
L 594 3500 
L 594 4494 
L 1172 4494 
z
" transform="scale(0.015625)"/>
      </defs>
      <use xlink:href="#DejaVuSans-6e"/>
      <use xlink:href="#DejaVuSans-6f" x="63.378906"/>
      <use xlink:href="#DejaVuSans-64" x="124.560547"/>
      <use xlink:href="#DejaVuSans-65" x="188.037109"/>
      <use xlink:href="#DejaVuSans-5f" x="249.560547"/>
      <use xlink:href="#DejaVuSans-68" x="299.560547"/>
      <use xlink:href="#DejaVuSans-65" x="362.939453"/>
      <use xlink:href="#DejaVuSans-61" x="424.462891"/>
      <use xlink:href="#DejaVuSans-74" x="485.742188"/>
     </g>
    </g>
   </g>
   <g id="text_3">
    <g clip-path="url(#pe4869d0e33)">
     <!-- node_gas -->
     <g transform="translate(181.451334 92.921818)scale(0.08 -0.08)">
      <defs>
       <path id="DejaVuSans-67" d="M 2906 1791 
Q 2906 2416 2648 2759 
Q 2391 3103 1925 3103 
Q 1463 3103 1205 2759 
Q 947 2416 947 1791 
Q 947 1169 1205 825 
Q 1463 481 1925 481 
Q 2391 481 2648 825 
Q 2906 1169 2906 1791 
z
M 3481 434 
Q 3481 -459 3084 -895 
Q 2688 -1331 1869 -1331 
Q 1566 -1331 1297 -1286 
Q 1028 -1241 775 -1147 
L 775 -588 
Q 1028 -725 1275 -790 
Q 1522 -856 1778 -856 
Q 2344 -856 2625 -561 
Q 2906 -266 2906 331 
L 2906 616 
Q 2728 306 2450 153 
Q 2172 0 1784 0 
Q 1141 0 747 490 
Q 353 981 353 1791 
Q 353 2603 747 3093 
Q 1141 3584 1784 3584 
Q 2172 3584 2450 3431 
Q 2728 3278 2906 2969 
L 2906 3500 
L 3481 3500 
L 3481 434 
z
" transform="scale(0.015625)"/>
       <path id="DejaVuSans-73" d="M 2834 3397 
L 2834 2853 
Q 2591 2978 2328 3040 
Q 2066 3103 1784 3103 
Q 1356 3103 1142 2972 
Q 928 2841 928 2578 
Q 928 2378 1081 2264 
Q 1234 2150 1697 2047 
L 1894 2003 
Q 2506 1872 2764 1633 
Q 3022 1394 3022 966 
Q 3022 478 2636 193 
Q 2250 -91 1575 -91 
Q 1294 -91 989 -36 
Q 684 19 347 128 
L 347 722 
Q 666 556 975 473 
Q 1284 391 1588 391 
Q 1994 391 2212 530 
Q 2431 669 2431 922 
Q 2431 1156 2273 1281 
Q 2116 1406 1581 1522 
L 1381 1569 
Q 847 1681 609 1914 
Q 372 2147 372 2553 
Q 372 3047 722 3315 
Q 1072 3584 1716 3584 
Q 2034 3584 2315 3537 
Q 2597 3491 2834 3397 
z
" transform="scale(0.015625)"/>
      </defs>
      <use xlink:href="#DejaVuSans-6e"/>
      <use xlink:href="#DejaVuSans-6f" x="63.378906"/>
      <use xlink:href="#DejaVuSans-64" x="124.560547"/>
      <use xlink:href="#DejaVuSans-65" x="188.037109"/>
      <use xlink:href="#DejaVuSans-5f" x="249.560547"/>
      <use xlink:href="#DejaVuSans-67" x="299.560547"/>
      <use xlink:href="#DejaVuSans-61" x="363.037109"/>
      <use xlink:href="#DejaVuSans-73" x="424.316406"/>
     </g>
    </g>
   </g>
   <g id="text_4">
    <g clip-path="url(#pe4869d0e33)">
     <!-- linkedAsset -->
     <g transform="translate(163.982956 153.118252)scale(0.08 -0.08)">
      <defs>
       <path id="DejaVuSans-6c" d="M 603 4863 
L 1178 4863 
L 1178 0 
L 603 0 
L 603 4863 
z
" transform="scale(0.015625)"/>
       <path id="DejaVuSans-69" d="M 603 3500 
L 1178 3500 
L 1178 0 
L 603 0 
L 603 3500 
z
M 603 4863 
L 1178 4863 
L 1178 4134 
L 603 4134 
L 603 4863 
z
" transform="scale(0.015625)"/>
       <path id="DejaVuSans-6b" d="M 581 4863 
L 1159 4863 
L 1159 1991 
L 2875 3500 
L 3609 3500 
L 1753 1863 
L 3688 0 
L 2938 0 
L 1159 1709 
L 1159 0 
L 581 0 
L 581 4863 
z
" transform="scale(0.015625)"/>
       <path id="DejaVuSans-41" d="M 2188 4044 
L 1331 1722 
L 3047 1722 
L 2188 4044 
z
M 1831 4666 
L 2547 4666 
L 4325 0 
L 3669 0 
L 3244 1197 
L 1141 1197 
L 716 0 
L 50 0 
L 1831 4666 
z
" transform="scale(0.015625)"/>
      </defs>
      <use xlink:href="#DejaVuSans-6c"/>
      <use xlink:href="#DejaVuSans-69" x="27.783203"/>
      <use xlink:href="#DejaVuSans-6e" x="55.566406"/>
      <use xlink:href="#DejaVuSans-6b" x="118.945312"/>
      <use xlink:href="#DejaVuSans-65" x="173.230469"/>
      <use xlink:href="#DejaVuSans-64" x="234.753906"/>
      <use xlink:href="#DejaVuSans-41" x="298.230469"/>
      <use xlink:href="#DejaVuSans-73" x="366.638672"/>
      <use xlink:href="#DejaVuSans-73" x="418.738281"/>
      <use xlink:href="#DejaVuSans-65" x="470.837891"/>
      <use xlink:href="#DejaVuSans-74" x="532.361328"/>
     </g>
    </g>
   </g>
   <g id="text_5">
    <g clip-path="url(#pe4869d0e33)">
     <!-- SC_power -->
     <g transform="translate(293.250857 222.91499)scale(0.08 -0.08)">
      <defs>
       <path id="DejaVuSans-53" d="M 3425 4513 
L 3425 3897 
Q 3066 4069 2747 4153 
Q 2428 4238 2131 4238 
Q 1616 4238 1336 4038 
Q 1056 3838 1056 3469 
Q 1056 3159 1242 3001 
Q 1428 2844 1947 2747 
L 2328 2669 
Q 3034 2534 3370 2195 
Q 3706 1856 3706 1288 
Q 3706 609 3251 259 
Q 2797 -91 1919 -91 
Q 1588 -91 1214 -16 
Q 841 59 441 206 
L 441 856 
Q 825 641 1194 531 
Q 1563 422 1919 422 
Q 2459 422 2753 634 
Q 3047 847 3047 1241 
Q 3047 1584 2836 1778 
Q 2625 1972 2144 2069 
L 1759 2144 
Q 1053 2284 737 2584 
Q 422 2884 422 3419 
Q 422 4038 858 4394 
Q 1294 4750 2059 4750 
Q 2388 4750 2728 4690 
Q 3069 4631 3425 4513 
z
" transform="scale(0.015625)"/>
       <path id="DejaVuSans-43" d="M 4122 4306 
L 4122 3641 
Q 3803 3938 3442 4084 
Q 3081 4231 2675 4231 
Q 1875 4231 1450 3742 
Q 1025 3253 1025 2328 
Q 1025 1406 1450 917 
Q 1875 428 2675 428 
Q 3081 428 3442 575 
Q 3803 722 4122 1019 
L 4122 359 
Q 3791 134 3420 21 
Q 3050 -91 2638 -91 
Q 1578 -91 968 557 
Q 359 1206 359 2328 
Q 359 3453 968 4101 
Q 1578 4750 2638 4750 
Q 3056 4750 3426 4639 
Q 3797 4528 4122 4306 
z
" transform="scale(0.015625)"/>
      </defs>
      <use xlink:href="#DejaVuSans-53"/>
      <use xlink:href="#DejaVuSans-43" x="63.476562"/>
      <use xlink:href="#DejaVuSans-5f" x="133.300781"/>
      <use xlink:href="#DejaVuSans-70" x="183.300781"/>
      <use xlink:href="#DejaVuSans-6f" x="246.777344"/>
      <use xlink:href="#DejaVuSans-77" x="307.958984"/>
      <use xlink:href="#DejaVuSans-65" x="389.746094"/>
      <use xlink:href="#DejaVuSans-72" x="451.269531"/>
     </g>
    </g>
   </g>
   <g id="text_6">
    <g clip-path="url(#pe4869d0e33)">
     <!-- SC_heat -->
     <g transform="translate(19.904768 194.023234)scale(0.08 -0.08)">
      <use xlink:href="#DejaVuSans-53"/>
      <use xlink:href="#DejaVuSans-43" x="63.476562"/>
      <use xlink:href="#DejaVuSans-5f" x="133.300781"/>
      <use xlink:href="#DejaVuSans-68" x="183.300781"/>
      <use xlink:href="#DejaVuSans-65" x="246.679688"/>
      <use xlink:href="#DejaVuSans-61" x="308.203125"/>
      <use xlink:href="#DejaVuSans-74" x="369.482422"/>
     </g>
    </g>
   </g>
   <g id="text_7">
    <g clip-path="url(#pe4869d0e33)">
     <!-- SC_gas -->
     <g transform="translate(197.312742 43.21251)scale(0.08 -0.08)">
      <use xlink:href="#DejaVuSans-53"/>
      <use xlink:href="#DejaVuSans-43" x="63.476562"/>
      <use xlink:href="#DejaVuSans-5f" x="133.300781"/>
      <use xlink:href="#DejaVuSans-67" x="183.300781"/>
      <use xlink:href="#DejaVuSans-61" x="246.777344"/>
      <use xlink:href="#DejaVuSans-73" x="308.056641"/>
     </g>
    </g>
   </g>
   <g id="text_8">
    <!-- Network graph for portfolio -->
    <g transform="translate(92.925938 16.318125)scale(0.12 -0.12)">
     <defs>
      <path id="DejaVuSans-4e" d="M 628 4666 
L 1478 4666 
L 3547 763 
L 3547 4666 
L 4159 4666 
L 4159 0 
L 3309 0 
L 1241 3903 
L 1241 0 
L 628 0 
L 628 4666 
z
" transform="scale(0.015625)"/>
      <path id="DejaVuSans-20" transform="scale(0.015625)"/>
      <path id="DejaVuSans-66" d="M 2375 4863 
L 2375 4384 
L 1825 4384 
Q 1516 4384 1395 4259 
Q 1275 4134 1275 3809 
L 1275 3500 
L 2222 3500 
L 2222 3053 
L 1275 3053 
L 1275 0 
L 697 0 
L 697 3053 
L 147 3053 
L 147 3500 
L 697 3500 
L 697 3744 
Q 697 4328 969 4595 
Q 1241 4863 1831 4863 
L 2375 4863 
z
" transform="scale(0.015625)"/>
     </defs>
     <use xlink:href="#DejaVuSans-4e"/>
     <use xlink:href="#DejaVuSans-65" x="74.804688"/>
     <use xlink:href="#DejaVuSans-74" x="136.328125"/>
     <use xlink:href="#DejaVuSans-77" x="175.537109"/>
     <use xlink:href="#DejaVuSans-6f" x="257.324219"/>
     <use xlink:href="#DejaVuSans-72" x="318.505859"/>
     <use xlink:href="#DejaVuSans-6b" x="359.619141"/>
     <use xlink:href="#DejaVuSans-20" x="417.529297"/>
     <use xlink:href="#DejaVuSans-67" x="449.316406"/>
     <use xlink:href="#DejaVuSans-72" x="512.792969"/>
     <use xlink:href="#DejaVuSans-61" x="553.90625"/>
     <use xlink:href="#DejaVuSans-70" x="615.185547"/>
     <use xlink:href="#DejaVuSans-68" x="678.662109"/>
     <use xlink:href="#DejaVuSans-20" x="742.041016"/>
     <use xlink:href="#DejaVuSans-66" x="773.828125"/>
     <use xlink:href="#DejaVuSans-6f" x="809.033203"/>
     <use xlink:href="#DejaVuSans-72" x="870.214844"/>
     <use xlink:href="#DejaVuSans-20" x="911.328125"/>
     <use xlink:href="#DejaVuSans-70" x="943.115234"/>
     <use xlink:href="#DejaVuSans-6f" x="1006.591797"/>
     <use xlink:href="#DejaVuSans-72" x="1067.773438"/>
     <use xlink:href="#DejaVuSans-74" x="1108.886719"/>
     <use xlink:href="#DejaVuSans-66" x="1148.095703"/>
     <use xlink:href="#DejaVuSans-6f" x="1183.300781"/>
     <use xlink:href="#DejaVuSans-6c" x="1244.482422"/>
     <use xlink:href="#DejaVuSans-69" x="1272.265625"/>
     <use xlink:href="#DejaVuSans-6f" x="1300.048828"/>
    </g>
   </g>
  </g>
 </g>
 <defs>
  <clipPath id="pe4869d0e33">
   <rect x="7.2" y="22.318125" width="334.8" height="217.44"/>
  </clipPath>
 </defs>
</svg>
