<?xml version="1.0" encoding="utf-8" standalone="no"?>
<!DOCTYPE svg PUBLIC "-//W3C//DTD SVG 1.1//EN"
  "http://www.w3.org/Graphics/SVG/1.1/DTD/svg11.dtd">
<svg xmlns:xlink="http://www.w3.org/1999/xlink" width="349.2pt" height="246.958125pt" viewBox="0 0 349.2 246.958125" xmlns="http://www.w3.org/2000/svg" version="1.1">
 <metadata>
  <rdf:RDF xmlns:dc="http://purl.org/dc/elements/1.1/" xmlns:cc="http://creativecommons.org/ns#" xmlns:rdf="http://www.w3.org/1999/02/22-rdf-syntax-ns#">
   <cc:Work>
    <dc:type rdf:resource="http://purl.org/dc/dcmitype/StillImage"/>
    <dc:date>2022-08-25T14:45:17.890480</dc:date>
    <dc:format>image/svg+xml</dc:format>
    <dc:creator>
     <cc:Agent>
      <dc:title>Matplotlib v3.5.0, https://matplotlib.org/</dc:title>
     </cc:Agent>
    </dc:creator>
   </cc:Work>
  </rdf:RDF>
 </metadata>
 <defs>
  <style type="text/css">*{stroke-linejoin: round; stroke-linecap: butt}</style>
 </defs>
 <g id="figure_1">
  <g id="patch_1">
   <path d="M 0 246.958125 
L 349.2 246.958125 
L 349.2 0 
L 0 0 
L 0 246.958125 
z
" style="fill: none"/>
  </g>
  <g id="axes_1">
   <g id="patch_2">
    <path d="M 232.415988 159.809368 
Q 197.40838 153.336717 163.500171 147.067338 
" clip-path="url(#p22323cf838)" style="fill: none; stroke: #808080; stroke-linecap: round"/>
    <path d="M 167.069883 149.761249 
L 163.500171 147.067338 
L 167.797127 145.827915 
L 167.069883 149.761249 
z
" clip-path="url(#p22323cf838)" style="fill: #808080; stroke: #808080; stroke-linecap: round"/>
   </g>
   <g id="patch_3">
    <path d="M 249.444171 162.96426 
Q 276.937951 168.068664 303.33248 172.968984 
" clip-path="url(#p22323cf838)" style="fill: none; stroke: #808080; stroke-linecap: round"/>
    <path d="M 299.764759 170.272437 
L 303.33248 172.968984 
L 299.034609 174.205232 
L 299.764759 170.272437 
z
" clip-path="url(#p22323cf838)" style="fill: #808080; stroke: #808080; stroke-linecap: round"/>
   </g>
   <g id="patch_4">
    <path d="M 97.137888 181.713334 
Q 121.865227 165.841144 145.651686 150.572893 
" clip-path="url(#p22323cf838)" style="fill: none; stroke: #808080; stroke-linecap: round"/>
    <path d="M 141.205128 151.050517 
L 145.651686 150.572893 
L 143.36585 154.416714 
L 141.205128 151.050517 
z
" clip-path="url(#p22323cf838)" style="fill: #808080; stroke: #808080; stroke-linecap: round"/>
   </g>
   <g id="patch_5">
    <path d="M 82.563783 191.08115 
Q 63.050402 203.641026 44.477146 215.595786 
" clip-path="url(#p22323cf838)" style="fill: none; stroke: #808080; stroke-linecap: round"/>
    <path d="M 48.923104 215.112605 
L 44.477146 215.595786 
L 46.758176 211.749112 
L 48.923104 215.112605 
z
" clip-path="url(#p22323cf838)" style="fill: #808080; stroke: #808080; stroke-linecap: round"/>
   </g>
   <g id="patch_6">
    <path d="M 134.66082 96.141832 
Q 142.694562 116.682404 150.321064 136.181748 
" clip-path="url(#p22323cf838)" style="fill: none; stroke: #808080; stroke-linecap: round"/>
    <path d="M 150.72668 131.728045 
L 150.321064 136.181748 
L 147.001471 133.185033 
L 150.72668 131.728045 
z
" clip-path="url(#p22323cf838)" style="fill: #808080; stroke: #808080; stroke-linecap: round"/>
   </g>
   <g id="patch_7">
    <path d="M 128.310904 80.028183 
Q 122.198071 64.631772 116.497803 50.274489 
" clip-path="url(#p22323cf838)" style="fill: none; stroke: #808080; stroke-linecap: round"/>
    <path d="M 116.11499 54.730211 
L 116.497803 50.274489 
L 119.832693 53.254172 
L 116.11499 54.730211 
z
" clip-path="url(#p22323cf838)" style="fill: #808080; stroke: #808080; stroke-linecap: round"/>
   </g>
   <g id="patch_8">
    <path d="M 162.397085 146.863385 
Q 197.404694 153.336036 231.312903 159.605416 
" clip-path="url(#p22323cf838)" style="fill: none; stroke: #808080; stroke-linecap: round"/>
    <path d="M 227.743191 156.911504 
L 231.312903 159.605416 
L 227.015946 160.844838 
L 227.743191 156.911504 
z
" clip-path="url(#p22323cf838)" style="fill: #808080; stroke: #808080; stroke-linecap: round"/>
   </g>
   <g id="patch_9">
    <path d="M 146.594077 149.967983 
Q 121.866738 165.840174 98.08028 181.108424 
" clip-path="url(#p22323cf838)" style="fill: none; stroke: #808080; stroke-linecap: round"/>
    <path d="M 102.526838 180.6308 
L 98.08028 181.108424 
L 100.366115 177.264604 
L 102.526838 180.6308 
z
" clip-path="url(#p22323cf838)" style="fill: #808080; stroke: #808080; stroke-linecap: round"/>
   </g>
   <g id="patch_10">
    <path d="M 150.729723 137.226603 
Q 142.695981 116.686031 135.069479 97.186687 
" clip-path="url(#p22323cf838)" style="fill: none; stroke: #808080; stroke-linecap: round"/>
    <path d="M 134.663863 101.64039 
L 135.069479 97.186687 
L 138.389072 100.183402 
L 134.663863 101.64039 
z
" clip-path="url(#p22323cf838)" style="fill: #808080; stroke: #808080; stroke-linecap: round"/>
   </g>
   <g id="patch_11">
    <path d="M 304.43287 173.173279 
Q 276.939091 168.068875 250.544562 163.168554 
" clip-path="url(#p22323cf838)" style="fill: none; stroke: #808080; stroke-linecap: round"/>
    <path d="M 254.112282 165.865102 
L 250.544562 163.168554 
L 254.842432 161.932306 
L 254.112282 165.865102 
z
" clip-path="url(#p22323cf838)" style="fill: #808080; stroke: #808080; stroke-linecap: round"/>
   </g>
   <g id="patch_12">
    <path d="M 43.537936 216.200314 
Q 63.051316 203.640437 81.624572 191.685677 
" clip-path="url(#p22323cf838)" style="fill: none; stroke: #808080; stroke-linecap: round"/>
    <path d="M 77.178615 192.168858 
L 81.624572 191.685677 
L 79.343543 195.532351 
L 77.178615 192.168858 
z
" clip-path="url(#p22323cf838)" style="fill: #808080; stroke: #808080; stroke-linecap: round"/>
   </g>
   <g id="patch_13">
    <path d="M 116.086254 49.237918 
Q 122.199087 64.63433 127.899355 78.991612 
" clip-path="url(#p22323cf838)" style="fill: none; stroke: #808080; stroke-linecap: round"/>
    <path d="M 128.282167 74.535891 
L 127.899355 78.991612 
L 124.564465 76.011929 
L 128.282167 74.535891 
z
" clip-path="url(#p22323cf838)" style="fill: #808080; stroke: #808080; stroke-linecap: round"/>
   </g>
   <g id="PathCollection_1">
    <path d="M 240.929934 172.563874 
C 243.894995 172.563874 246.739014 171.385843 248.835628 169.289229 
C 250.932243 167.192614 252.110274 164.348595 252.110274 161.383535 
C 252.110274 158.418474 250.932243 155.574455 248.835628 153.47784 
C 246.739014 151.381226 243.894995 150.203195 240.929934 150.203195 
C 237.964873 150.203195 235.120855 151.381226 233.02424 153.47784 
C 230.927625 155.574455 229.749594 158.418474 229.749594 161.383535 
C 229.749594 164.348595 230.927625 167.192614 233.02424 169.289229 
C 235.120855 171.385843 237.964873 172.563874 240.929934 172.563874 
z
" clip-path="url(#p22323cf838)" style="fill: #ffa500; fill-opacity: 0.7; stroke: #ffa500; stroke-opacity: 0.7"/>
    <path d="M 89.848826 197.572438 
C 92.813887 197.572438 95.657906 196.394407 97.75452 194.297793 
C 99.851135 192.201178 101.029166 189.357159 101.029166 186.392099 
C 101.029166 183.427038 99.851135 180.583019 97.75452 178.486404 
C 95.657906 176.38979 92.813887 175.211759 89.848826 175.211759 
C 86.883765 175.211759 84.039746 176.38979 81.943132 178.486404 
C 79.846517 180.583019 78.668486 183.427038 78.668486 186.392099 
C 78.668486 189.357159 79.846517 192.201178 81.943132 194.297793 
C 84.039746 196.394407 86.883765 197.572438 89.848826 197.572438 
z
" clip-path="url(#p22323cf838)" style="fill: #ffa500; fill-opacity: 0.7; stroke: #ffa500; stroke-opacity: 0.7"/>
    <path d="M 131.507403 99.259556 
C 134.472464 99.259556 137.316483 98.081525 139.413097 95.98491 
C 141.509712 93.888296 142.687743 91.044277 142.687743 88.079216 
C 142.687743 85.114156 141.509712 82.270137 139.413097 80.173522 
C 137.316483 78.076908 134.472464 76.898876 131.507403 76.898876 
C 128.542343 76.898876 125.698324 78.076908 123.601709 80.173522 
C 121.505095 82.270137 120.327063 85.114156 120.327063 88.079216 
C 120.327063 91.044277 121.505095 93.888296 123.601709 95.98491 
C 125.698324 98.081525 128.542343 99.259556 131.507403 99.259556 
z
" clip-path="url(#p22323cf838)" style="fill: #ffa500; fill-opacity: 0.7; stroke: #ffa500; stroke-opacity: 0.7"/>
    <path d="M 153.883139 152.360287 
C 155.758409 152.360287 157.557124 151.615234 158.883139 150.289219 
C 160.209155 148.963203 160.954207 147.164488 160.954207 145.289219 
C 160.954207 143.41395 160.209155 141.615234 158.883139 140.289219 
C 157.557124 138.963203 155.758409 138.218151 153.883139 138.218151 
C 152.00787 138.218151 150.209155 138.963203 148.883139 140.289219 
C 147.557124 141.615234 146.812072 143.41395 146.812072 145.289219 
C 146.812072 147.164488 147.557124 148.963203 148.883139 150.289219 
C 150.209155 151.615234 152.00787 152.360287 153.883139 152.360287 
z
" clip-path="url(#p22323cf838)" style="fill: #808080; fill-opacity: 0.7; stroke: #808080; stroke-opacity: 0.7"/>
    <path d="M 312.947107 181.825072 
C 314.822377 181.825072 316.621092 181.08002 317.947107 179.754004 
C 319.273123 178.427989 320.018175 176.629273 320.018175 174.754004 
C 320.018175 172.878735 319.273123 171.08002 317.947107 169.754004 
C 316.621092 168.427989 314.822377 167.682936 312.947107 167.682936 
C 311.071838 167.682936 309.273123 168.427989 307.947107 169.754004 
C 306.621092 171.08002 305.87604 172.878735 305.87604 174.754004 
C 305.87604 176.629273 306.621092 178.427989 307.947107 179.754004 
C 309.273123 181.08002 311.071838 181.825072 312.947107 181.825072 
z
" clip-path="url(#p22323cf838)" style="fill: #808080; fill-opacity: 0.7; stroke: #808080; stroke-opacity: 0.7"/>
    <path d="M 36.252893 227.960432 
C 38.128162 227.960432 39.926877 227.21538 41.252893 225.889365 
C 42.578908 224.563349 43.32396 222.764634 43.32396 220.889365 
C 43.32396 219.014096 42.578908 217.21538 41.252893 215.889365 
C 39.926877 214.563349 38.128162 213.818297 36.252893 213.818297 
C 34.377623 213.818297 32.578908 214.563349 31.252893 215.889365 
C 29.926877 217.21538 29.181825 219.014096 29.181825 220.889365 
C 29.181825 222.764634 29.926877 224.563349 31.252893 225.889365 
C 32.578908 227.21538 34.377623 227.960432 36.252893 227.960432 
z
" clip-path="url(#p22323cf838)" style="fill: #808080; fill-opacity: 0.7; stroke: #808080; stroke-opacity: 0.7"/>
    <path d="M 112.889754 48.257953 
C 114.765024 48.257953 116.563739 47.512901 117.889754 46.186885 
C 119.21577 44.86087 119.960822 43.062154 119.960822 41.186885 
C 119.960822 39.311616 119.21577 37.512901 117.889754 36.186885 
C 116.563739 34.86087 114.765024 34.115818 112.889754 34.115818 
C 111.014485 34.115818 109.21577 34.86087 107.889754 36.186885 
C 106.563739 37.512901 105.818687 39.311616 105.818687 41.186885 
C 105.818687 43.062154 106.563739 44.86087 107.889754 46.186885 
C 109.21577 47.512901 111.014485 48.257953 112.889754 48.257953 
z
" clip-path="url(#p22323cf838)" style="fill: #808080; fill-opacity: 0.7; stroke: #808080; stroke-opacity: 0.7"/>
   </g>
   <g id="text_1">
    <g clip-path="url(#p22323cf838)">
     <!-- node_power -->
     <g transform="translate(216.583059 163.479785)scale(0.08 -0.08)">
      <defs>
       <path id="DejaVuSans-6e" d="M 3513 2113 
L 3513 0 
L 2938 0 
L 2938 2094 
Q 2938 2591 2744 2837 
Q 2550 3084 2163 3084 
Q 1697 3084 1428 2787 
Q 1159 2491 1159 1978 
L 1159 0 
L 581 0 
L 581 3500 
L 1159 3500 
L 1159 2956 
Q 1366 3272 1645 3428 
Q 1925 3584 2291 3584 
Q 2894 3584 3203 3211 
Q 3513 2838 3513 2113 
z
" transform="scale(0.015625)"/>
       <path id="DejaVuSans-6f" d="M 1959 3097 
Q 1497 3097 1228 2736 
Q 959 2375 959 1747 
Q 959 1119 1226 758 
Q 1494 397 1959 397 
Q 2419 397 2687 759 
Q 2956 1122 2956 1747 
Q 2956 2369 2687 2733 
Q 2419 3097 1959 3097 
z
M 1959 3584 
Q 2709 3584 3137 3096 
Q 3566 2609 3566 1747 
Q 3566 888 3137 398 
Q 2709 -91 1959 -91 
Q 1206 -91 779 398 
Q 353 888 353 1747 
Q 353 2609 779 3096 
Q 1206 3584 1959 3584 
z
" transform="scale(0.015625)"/>
       <path id="DejaVuSans-64" d="M 2906 2969 
L 2906 4863 
L 3481 4863 
L 3481 0 
L 2906 0 
L 2906 525 
Q 2725 213 2448 61 
Q 2172 -91 1784 -91 
Q 1150 -91 751 415 
Q 353 922 353 1747 
Q 353 2572 751 3078 
Q 1150 3584 1784 3584 
Q 2172 3584 2448 3432 
Q 2725 3281 2906 2969 
z
M 947 1747 
Q 947 1113 1208 752 
Q 1469 391 1925 391 
Q 2381 391 2643 752 
Q 2906 1113 2906 1747 
Q 2906 2381 2643 2742 
Q 2381 3103 1925 3103 
Q 1469 3103 1208 2742 
Q 947 2381 947 1747 
z
" transform="scale(0.015625)"/>
       <path id="DejaVuSans-65" d="M 3597 1894 
L 3597 1613 
L 953 1613 
Q 991 1019 1311 708 
Q 1631 397 2203 397 
Q 2534 397 2845 478 
Q 3156 559 3463 722 
L 3463 178 
Q 3153 47 2828 -22 
Q 2503 -91 2169 -91 
Q 1331 -91 842 396 
Q 353 884 353 1716 
Q 353 2575 817 3079 
Q 1281 3584 2069 3584 
Q 2775 3584 3186 3129 
Q 3597 2675 3597 1894 
z
M 3022 2063 
Q 3016 2534 2758 2815 
Q 2500 3097 2075 3097 
Q 1594 3097 1305 2825 
Q 1016 2553 972 2059 
L 3022 2063 
z
" transform="scale(0.015625)"/>
       <path id="DejaVuSans-5f" d="M 3263 -1063 
L 3263 -1509 
L -63 -1509 
L -63 -1063 
L 3263 -1063 
z
" transform="scale(0.015625)"/>
       <path id="DejaVuSans-70" d="M 1159 525 
L 1159 -1331 
L 581 -1331 
L 581 3500 
L 1159 3500 
L 1159 2969 
Q 1341 3281 1617 3432 
Q 1894 3584 2278 3584 
Q 2916 3584 3314 3078 
Q 3713 2572 3713 1747 
Q 3713 922 3314 415 
Q 2916 -91 2278 -91 
Q 1894 -91 1617 61 
Q 1341 213 1159 525 
z
M 3116 1747 
Q 3116 2381 2855 2742 
Q 2594 3103 2138 3103 
Q 1681 3103 1420 2742 
Q 1159 2381 1159 1747 
Q 1159 1113 1420 752 
Q 1681 391 2138 391 
Q 2594 391 2855 752 
Q 3116 1113 3116 1747 
z
" transform="scale(0.015625)"/>
       <path id="DejaVuSans-77" d="M 269 3500 
L 844 3500 
L 1563 769 
L 2278 3500 
L 2956 3500 
L 3675 769 
L 4391 3500 
L 4966 3500 
L 4050 0 
L 3372 0 
L 2619 2869 
L 1863 0 
L 1184 0 
L 269 3500 
z
" transform="scale(0.015625)"/>
       <path id="DejaVuSans-72" d="M 2631 2963 
Q 2534 3019 2420 3045 
Q 2306 3072 2169 3072 
Q 1681 3072 1420 2755 
Q 1159 2438 1159 1844 
L 1159 0 
L 581 0 
L 581 3500 
L 1159 3500 
L 1159 2956 
Q 1341 3275 1631 3429 
Q 1922 3584 2338 3584 
Q 2397 3584 2469 3576 
Q 2541 3569 2628 3553 
L 2631 2963 
z
" transform="scale(0.015625)"/>
      </defs>
      <use xlink:href="#DejaVuSans-6e"/>
      <use xlink:href="#DejaVuSans-6f" x="63.378906"/>
      <use xlink:href="#DejaVuSans-64" x="124.560547"/>
      <use xlink:href="#DejaVuSans-65" x="188.037109"/>
      <use xlink:href="#DejaVuSans-5f" x="249.560547"/>
      <use xlink:href="#DejaVuSans-70" x="299.560547"/>
      <use xlink:href="#DejaVuSans-6f" x="363.037109"/>
      <use xlink:href="#DejaVuSans-77" x="424.21875"/>
      <use xlink:href="#DejaVuSans-65" x="506.005859"/>
      <use xlink:href="#DejaVuSans-72" x="567.529297"/>
     </g>
    </g>
   </g>
   <g id="text_2">
    <g clip-path="url(#p22323cf838)">
     <!-- node_heat -->
     <g transform="translate(68.850076 188.488349)scale(0.08 -0.08)">
      <defs>
       <path id="DejaVuSans-68" d="M 3513 2113 
L 3513 0 
L 2938 0 
L 2938 2094 
Q 2938 2591 2744 2837 
Q 2550 3084 2163 3084 
Q 1697 3084 1428 2787 
Q 1159 2491 1159 1978 
L 1159 0 
L 581 0 
L 581 4863 
L 1159 4863 
L 1159 2956 
Q 1366 3272 1645 3428 
Q 1925 3584 2291 3584 
Q 2894 3584 3203 3211 
Q 3513 2838 3513 2113 
z
" transform="scale(0.015625)"/>
       <path id="DejaVuSans-61" d="M 2194 1759 
Q 1497 1759 1228 1600 
Q 959 1441 959 1056 
Q 959 750 1161 570 
Q 1363 391 1709 391 
Q 2188 391 2477 730 
Q 2766 1069 2766 1631 
L 2766 1759 
L 2194 1759 
z
M 3341 1997 
L 3341 0 
L 2766 0 
L 2766 531 
Q 2569 213 2275 61 
Q 1981 -91 1556 -91 
Q 1019 -91 701 211 
Q 384 513 384 1019 
Q 384 1609 779 1909 
Q 1175 2209 1959 2209 
L 2766 2209 
L 2766 2266 
Q 2766 2663 2505 2880 
Q 2244 3097 1772 3097 
Q 1472 3097 1187 3025 
Q 903 2953 641 2809 
L 641 3341 
Q 956 3463 1253 3523 
Q 1550 3584 1831 3584 
Q 2591 3584 2966 3190 
Q 3341 2797 3341 1997 
z
" transform="scale(0.015625)"/>
       <path id="DejaVuSans-74" d="M 1172 4494 
L 1172 3500 
L 2356 3500 
L 2356 3053 
L 1172 3053 
L 1172 1153 
Q 1172 725 1289 603 
Q 1406 481 1766 481 
L 2356 481 
L 2356 0 
L 1766 0 
Q 1100 0 847 248 
Q 594 497 594 1153 
L 594 3053 
L 172 3053 
L 172 3500 
L 594 3500 
L 594 4494 
L 1172 4494 
z
" transform="scale(0.015625)"/>
      </defs>
      <use xlink:href="#DejaVuSans-6e"/>
      <use xlink:href="#DejaVuSans-6f" x="63.378906"/>
      <use xlink:href="#DejaVuSans-64" x="124.560547"/>
      <use xlink:href="#DejaVuSans-65" x="188.037109"/>
      <use xlink:href="#DejaVuSans-5f" x="249.560547"/>
      <use xlink:href="#DejaVuSans-68" x="299.560547"/>
      <use xlink:href="#DejaVuSans-65" x="362.939453"/>
      <use xlink:href="#DejaVuSans-61" x="424.462891"/>
      <use xlink:href="#DejaVuSans-74" x="485.742188"/>
     </g>
    </g>
   </g>
   <g id="text_3">
    <g clip-path="url(#p22323cf838)">
     <!-- node_gas -->
     <g transform="translate(112.449903 90.175466)scale(0.08 -0.08)">
      <defs>
       <path id="DejaVuSans-67" d="M 2906 1791 
Q 2906 2416 2648 2759 
Q 2391 3103 1925 3103 
Q 1463 3103 1205 2759 
Q 947 2416 947 1791 
Q 947 1169 1205 825 
Q 1463 481 1925 481 
Q 2391 481 2648 825 
Q 2906 1169 2906 1791 
z
M 3481 434 
Q 3481 -459 3084 -895 
Q 2688 -1331 1869 -1331 
Q 1566 -1331 1297 -1286 
Q 1028 -1241 775 -1147 
L 775 -588 
Q 1028 -725 1275 -790 
Q 1522 -856 1778 -856 
Q 2344 -856 2625 -561 
Q 2906 -266 2906 331 
L 2906 616 
Q 2728 306 2450 153 
Q 2172 0 1784 0 
Q 1141 0 747 490 
Q 353 981 353 1791 
Q 353 2603 747 3093 
Q 1141 3584 1784 3584 
Q 2172 3584 2450 3431 
Q 2728 3278 2906 2969 
L 2906 3500 
L 3481 3500 
L 3481 434 
z
" transform="scale(0.015625)"/>
       <path id="DejaVuSans-73" d="M 2834 3397 
L 2834 2853 
Q 2591 2978 2328 3040 
Q 2066 3103 1784 3103 
Q 1356 3103 1142 2972 
Q 928 2841 928 2578 
Q 928 2378 1081 2264 
Q 1234 2150 1697 2047 
L 1894 2003 
Q 2506 1872 2764 1633 
Q 3022 1394 3022 966 
Q 3022 478 2636 193 
Q 2250 -91 1575 -91 
Q 1294 -91 989 -36 
Q 684 19 347 128 
L 347 722 
Q 666 556 975 473 
Q 1284 391 1588 391 
Q 1994 391 2212 530 
Q 2431 669 2431 922 
Q 2431 1156 2273 1281 
Q 2116 1406 1581 1522 
L 1381 1569 
Q 847 1681 609 1914 
Q 372 2147 372 2553 
Q 372 3047 722 3315 
Q 1072 3584 1716 3584 
Q 2034 3584 2315 3537 
Q 2597 3491 2834 3397 
z
" transform="scale(0.015625)"/>
      </defs>
      <use xlink:href="#DejaVuSans-6e"/>
      <use xlink:href="#DejaVuSans-6f" x="63.378906"/>
      <use xlink:href="#DejaVuSans-64" x="124.560547"/>
      <use xlink:href="#DejaVuSans-65" x="188.037109"/>
      <use xlink:href="#DejaVuSans-5f" x="249.560547"/>
      <use xlink:href="#DejaVuSans-67" x="299.560547"/>
      <use xlink:href="#DejaVuSans-61" x="363.037109"/>
      <use xlink:href="#DejaVuSans-73" x="424.316406"/>
     </g>
    </g>
   </g>
   <g id="text_4">
    <g clip-path="url(#p22323cf838)">
     <!-- CHP -->
     <g transform="translate(145.670014 147.496719)scale(0.08 -0.08)">
      <defs>
       <path id="DejaVuSans-43" d="M 4122 4306 
L 4122 3641 
Q 3803 3938 3442 4084 
Q 3081 4231 2675 4231 
Q 1875 4231 1450 3742 
Q 1025 3253 1025 2328 
Q 1025 1406 1450 917 
Q 1875 428 2675 428 
Q 3081 428 3442 575 
Q 3803 722 4122 1019 
L 4122 359 
Q 3791 134 3420 21 
Q 3050 -91 2638 -91 
Q 1578 -91 968 557 
Q 359 1206 359 2328 
Q 359 3453 968 4101 
Q 1578 4750 2638 4750 
Q 3056 4750 3426 4639 
Q 3797 4528 4122 4306 
z
" transform="scale(0.015625)"/>
       <path id="DejaVuSans-48" d="M 628 4666 
L 1259 4666 
L 1259 2753 
L 3553 2753 
L 3553 4666 
L 4184 4666 
L 4184 0 
L 3553 0 
L 3553 2222 
L 1259 2222 
L 1259 0 
L 628 0 
L 628 4666 
z
" transform="scale(0.015625)"/>
       <path id="DejaVuSans-50" d="M 1259 4147 
L 1259 2394 
L 2053 2394 
Q 2494 2394 2734 2622 
Q 2975 2850 2975 3272 
Q 2975 3691 2734 3919 
Q 2494 4147 2053 4147 
L 1259 4147 
z
M 628 4666 
L 2053 4666 
Q 2838 4666 3239 4311 
Q 3641 3956 3641 3272 
Q 3641 2581 3239 2228 
Q 2838 1875 2053 1875 
L 1259 1875 
L 1259 0 
L 628 0 
L 628 4666 
z
" transform="scale(0.015625)"/>
      </defs>
      <use xlink:href="#DejaVuSans-43"/>
      <use xlink:href="#DejaVuSans-48" x="69.824219"/>
      <use xlink:href="#DejaVuSans-50" x="145.019531"/>
     </g>
    </g>
   </g>
   <g id="text_5">
    <g clip-path="url(#p22323cf838)">
     <!-- SC_power -->
     <g transform="translate(293.250857 176.779629)scale(0.08 -0.08)">
      <defs>
       <path id="DejaVuSans-53" d="M 3425 4513 
L 3425 3897 
Q 3066 4069 2747 4153 
Q 2428 4238 2131 4238 
Q 1616 4238 1336 4038 
Q 1056 3838 1056 3469 
Q 1056 3159 1242 3001 
Q 1428 2844 1947 2747 
L 2328 2669 
Q 3034 2534 3370 2195 
Q 3706 1856 3706 1288 
Q 3706 609 3251 259 
Q 2797 -91 1919 -91 
Q 1588 -91 1214 -16 
Q 841 59 441 206 
L 441 856 
Q 825 641 1194 531 
Q 1563 422 1919 422 
Q 2459 422 2753 634 
Q 3047 847 3047 1241 
Q 3047 1584 2836 1778 
Q 2625 1972 2144 2069 
L 1759 2144 
Q 1053 2284 737 2584 
Q 422 2884 422 3419 
Q 422 4038 858 4394 
Q 1294 4750 2059 4750 
Q 2388 4750 2728 4690 
Q 3069 4631 3425 4513 
z
" transform="scale(0.015625)"/>
      </defs>
      <use xlink:href="#DejaVuSans-53"/>
      <use xlink:href="#DejaVuSans-43" x="63.476562"/>
      <use xlink:href="#DejaVuSans-5f" x="133.300781"/>
      <use xlink:href="#DejaVuSans-70" x="183.300781"/>
      <use xlink:href="#DejaVuSans-6f" x="246.777344"/>
      <use xlink:href="#DejaVuSans-77" x="307.958984"/>
      <use xlink:href="#DejaVuSans-65" x="389.746094"/>
      <use xlink:href="#DejaVuSans-72" x="451.269531"/>
     </g>
    </g>
   </g>
   <g id="text_6">
    <g clip-path="url(#p22323cf838)">
     <!-- SC_heat -->
     <g transform="translate(19.904768 222.985615)scale(0.08 -0.08)">
      <use xlink:href="#DejaVuSans-53"/>
      <use xlink:href="#DejaVuSans-43" x="63.476562"/>
      <use xlink:href="#DejaVuSans-5f" x="133.300781"/>
      <use xlink:href="#DejaVuSans-68" x="183.300781"/>
      <use xlink:href="#DejaVuSans-65" x="246.679688"/>
      <use xlink:href="#DejaVuSans-61" x="308.203125"/>
      <use xlink:href="#DejaVuSans-74" x="369.482422"/>
     </g>
    </g>
   </g>
   <g id="text_7">
    <g clip-path="url(#p22323cf838)">
     <!-- SC_gas -->
     <g transform="translate(98.482879 43.21251)scale(0.08 -0.08)">
      <use xlink:href="#DejaVuSans-53"/>
      <use xlink:href="#DejaVuSans-43" x="63.476562"/>
      <use xlink:href="#DejaVuSans-5f" x="133.300781"/>
      <use xlink:href="#DejaVuSans-67" x="183.300781"/>
      <use xlink:href="#DejaVuSans-61" x="246.777344"/>
      <use xlink:href="#DejaVuSans-73" x="308.056641"/>
     </g>
    </g>
   </g>
   <g id="text_8">
    <!-- Network graph for portfolio -->
    <g transform="translate(92.925938 16.318125)scale(0.12 -0.12)">
     <defs>
      <path id="DejaVuSans-4e" d="M 628 4666 
L 1478 4666 
L 3547 763 
L 3547 4666 
L 4159 4666 
L 4159 0 
L 3309 0 
L 1241 3903 
L 1241 0 
L 628 0 
L 628 4666 
z
" transform="scale(0.015625)"/>
      <path id="DejaVuSans-6b" d="M 581 4863 
L 1159 4863 
L 1159 1991 
L 2875 3500 
L 3609 3500 
L 1753 1863 
L 3688 0 
L 2938 0 
L 1159 1709 
L 1159 0 
L 581 0 
L 581 4863 
z
" transform="scale(0.015625)"/>
      <path id="DejaVuSans-20" transform="scale(0.015625)"/>
      <path id="DejaVuSans-66" d="M 2375 4863 
L 2375 4384 
L 1825 4384 
Q 1516 4384 1395 4259 
Q 1275 4134 1275 3809 
L 1275 3500 
L 2222 3500 
L 2222 3053 
L 1275 3053 
L 1275 0 
L 697 0 
L 697 3053 
L 147 3053 
L 147 3500 
L 697 3500 
L 697 3744 
Q 697 4328 969 4595 
Q 1241 4863 1831 4863 
L 2375 4863 
z
" transform="scale(0.015625)"/>
      <path id="DejaVuSans-6c" d="M 603 4863 
L 1178 4863 
L 1178 0 
L 603 0 
L 603 4863 
z
" transform="scale(0.015625)"/>
      <path id="DejaVuSans-69" d="M 603 3500 
L 1178 3500 
L 1178 0 
L 603 0 
L 603 3500 
z
M 603 4863 
L 1178 4863 
L 1178 4134 
L 603 4134 
L 603 4863 
z
" transform="scale(0.015625)"/>
     </defs>
     <use xlink:href="#DejaVuSans-4e"/>
     <use xlink:href="#DejaVuSans-65" x="74.804688"/>
     <use xlink:href="#DejaVuSans-74" x="136.328125"/>
     <use xlink:href="#DejaVuSans-77" x="175.537109"/>
     <use xlink:href="#DejaVuSans-6f" x="257.324219"/>
     <use xlink:href="#DejaVuSans-72" x="318.505859"/>
     <use xlink:href="#DejaVuSans-6b" x="359.619141"/>
     <use xlink:href="#DejaVuSans-20" x="417.529297"/>
     <use xlink:href="#DejaVuSans-67" x="449.316406"/>
     <use xlink:href="#DejaVuSans-72" x="512.792969"/>
     <use xlink:href="#DejaVuSans-61" x="553.90625"/>
     <use xlink:href="#DejaVuSans-70" x="615.185547"/>
     <use xlink:href="#DejaVuSans-68" x="678.662109"/>
     <use xlink:href="#DejaVuSans-20" x="742.041016"/>
     <use xlink:href="#DejaVuSans-66" x="773.828125"/>
     <use xlink:href="#DejaVuSans-6f" x="809.033203"/>
     <use xlink:href="#DejaVuSans-72" x="870.214844"/>
     <use xlink:href="#DejaVuSans-20" x="911.328125"/>
     <use xlink:href="#DejaVuSans-70" x="943.115234"/>
     <use xlink:href="#DejaVuSans-6f" x="1006.591797"/>
     <use xlink:href="#DejaVuSans-72" x="1067.773438"/>
     <use xlink:href="#DejaVuSans-74" x="1108.886719"/>
     <use xlink:href="#DejaVuSans-66" x="1148.095703"/>
     <use xlink:href="#DejaVuSans-6f" x="1183.300781"/>
     <use xlink:href="#DejaVuSans-6c" x="1244.482422"/>
     <use xlink:href="#DejaVuSans-69" x="1272.265625"/>
     <use xlink:href="#DejaVuSans-6f" x="1300.048828"/>
    </g>
   </g>
  </g>
 </g>
 <defs>
  <clipPath id="p22323cf838">
   <rect x="7.2" y="22.318125" width="334.8" height="217.44"/>
  </clipPath>
 </defs>
</svg>
