<?xml version="1.0" encoding="utf-8" standalone="no"?>
<!DOCTYPE svg PUBLIC "-//W3C//DTD SVG 1.1//EN"
  "http://www.w3.org/Graphics/SVG/1.1/DTD/svg11.dtd">
<!-- Created with matplotlib (https://matplotlib.org/) -->
<svg height="231.84pt" version="1.1" viewBox="0 0 349.2 231.84" width="349.2pt" xmlns="http://www.w3.org/2000/svg" xmlns:xlink="http://www.w3.org/1999/xlink">
 <metadata>
  <rdf:RDF xmlns:cc="http://creativecommons.org/ns#" xmlns:dc="http://purl.org/dc/elements/1.1/" xmlns:rdf="http://www.w3.org/1999/02/22-rdf-syntax-ns#">
   <cc:Work>
    <dc:type rdf:resource="http://purl.org/dc/dcmitype/StillImage"/>
    <dc:date>2021-04-26T19:58:13.696729</dc:date>
    <dc:format>image/svg+xml</dc:format>
    <dc:creator>
     <cc:Agent>
      <dc:title>Matplotlib v3.3.4, https://matplotlib.org/</dc:title>
     </cc:Agent>
    </dc:creator>
   </cc:Work>
  </rdf:RDF>
 </metadata>
 <defs>
  <style type="text/css">*{stroke-linecap:butt;stroke-linejoin:round;}</style>
 </defs>
 <g id="figure_1">
  <g id="patch_1">
   <path d="M 0 231.84 
L 349.2 231.84 
L 349.2 0 
L 0 0 
z
" style="fill:none;"/>
  </g>
  <g id="axes_1">
   <g id="line2d_1">
    <path clip-path="url(#pc4ae49d576)" d="M 7.2 83.092786 
L 8.757209 82.477967 
L 10.314419 69.51595 
L 11.871628 88.620231 
L 13.428837 84.45335 
L 14.986047 70.046499 
L 16.543256 74.629416 
L 18.100465 108.15899 
L 19.657674 83.510251 
L 21.214884 87.935904 
L 22.772093 69.277497 
L 24.329302 71.098154 
L 25.886512 68.839061 
L 27.443721 93.551914 
L 29.00093 101.043477 
L 30.55814 69.739506 
L 32.115349 76.528323 
L 33.672558 101.649334 
L 35.229767 94.958527 
L 36.786977 95.976119 
L 38.344186 84.068221 
L 39.901395 109.633332 
L 41.458605 70.325314 
L 43.015814 90.122208 
L 44.573023 98.929523 
L 46.130233 86.830152 
L 47.687442 91.116483 
L 49.244651 89.114501 
L 50.80186 79.402594 
L 52.35907 96.225406 
L 53.916279 72.802201 
L 55.473488 70.968914 
L 57.030698 102.407682 
L 58.587907 86.473777 
L 60.145116 88.537624 
L 61.702326 74.717827 
L 63.259535 101.994637 
L 64.816744 75.429328 
L 66.373953 77.22244 
L 67.931163 71.988192 
L 69.488372 69.950654 
L 71.045581 97.833701 
L 72.602791 69.910271 
L 74.16 104.895588 
L 75.717209 77.673785 
L 77.274419 102.157774 
L 78.831628 81.421233 
L 80.388837 69.827313 
L 81.946047 83.718016 
L 83.503256 91.083615 
L 85.060465 105.424354 
L 86.617674 99.993595 
L 88.174884 87.943391 
L 89.732093 100.864577 
L 91.289302 107.780714 
L 92.846512 103.814472 
L 94.403721 76.451265 
L 95.96093 70.62801 
L 97.51814 109.753001 
L 99.075349 98.694186 
L 100.632558 95.259394 
L 102.189767 103.896611 
L 103.746977 90.262898 
L 105.304186 109.574874 
L 106.861395 73.325687 
L 108.418605 92.041373 
L 109.975814 72.958324 
L 111.533023 106.741741 
L 113.090233 80.39932 
L 114.647442 106.456498 
L 116.204651 73.75354 
L 117.76186 69.100467 
L 119.31907 78.389547 
L 120.876279 69.034741 
L 122.433488 95.356329 
L 123.990698 98.430314 
L 125.547907 73.454775 
L 128.662326 96.409086 
L 130.219535 101.012273 
L 131.776744 68.766676 
L 133.333953 108.416021 
L 134.891163 72.407447 
L 136.448372 94.533599 
L 138.005581 97.192083 
L 139.562791 81.246279 
L 141.12 80.093489 
L 142.677209 79.756842 
L 144.234419 90.89964 
L 145.791628 81.181613 
L 147.348837 74.042851 
L 148.906047 82.371601 
L 150.463256 78.862716 
L 152.020465 103.329802 
L 153.577674 81.690031 
L 155.134884 68.900874 
L 156.692093 84.849972 
L 158.249302 89.499914 
L 159.806512 73.884466 
L 161.363721 101.448231 
L 162.92093 70.467148 
L 164.47814 74.482267 
L 166.035349 92.985166 
L 167.592558 83.392691 
L 169.149767 78.64427 
L 170.706977 104.271599 
L 172.264186 96.123786 
L 173.821395 80.839769 
L 175.378605 72.796171 
L 176.935814 74.0899 
L 178.493023 87.225423 
L 180.050233 92.990954 
L 181.607442 72.469066 
L 183.164651 100.948877 
L 184.72186 85.251543 
L 186.27907 83.557817 
L 187.836279 102.285111 
L 189.393488 80.034937 
L 190.950698 83.678066 
L 192.507907 94.686024 
L 194.065116 73.205881 
L 195.622326 90.004674 
L 197.179535 72.771425 
L 198.736744 74.896362 
L 200.293953 103.897436 
L 201.851163 103.958175 
L 203.408372 76.535635 
L 204.965581 81.349161 
L 206.522791 96.26898 
L 208.08 80.963742 
L 209.637209 68.837917 
L 211.194419 79.985286 
L 212.751628 94.200107 
L 214.308837 77.993707 
L 215.866047 94.606457 
L 217.423256 80.010505 
L 218.980465 108.785235 
L 220.537674 104.287264 
L 222.094884 97.319708 
L 223.652093 94.661684 
L 225.209302 104.011131 
L 226.766512 91.639237 
L 228.323721 94.332767 
L 229.88093 92.212234 
L 231.43814 102.311268 
L 232.995349 81.472396 
L 234.552558 95.961053 
L 237.666977 77.544114 
L 239.224186 69.581836 
L 240.781395 94.667488 
L 242.338605 72.552426 
L 243.895814 96.427403 
L 245.453023 93.828516 
L 247.010233 84.425734 
L 248.567442 109.373015 
L 250.124651 101.568956 
L 253.23907 72.471833 
L 254.796279 107.357853 
L 256.353488 76.131101 
L 257.910698 76.116349 
L 259.467907 83.411289 
L 261.025116 103.057307 
L 262.582326 81.823656 
L 264.139535 102.277391 
L 265.696744 87.649555 
L 267.253953 102.518881 
L 268.811163 106.521047 
L 270.368372 74.579697 
L 271.925581 108.430191 
L 273.482791 90.969424 
L 275.04 87.871944 
L 276.597209 107.116683 
L 278.154419 81.162204 
L 279.711628 90.195991 
L 281.268837 93.956924 
L 282.826047 109.605196 
L 284.383256 85.648421 
L 285.940465 109.350866 
L 287.497674 107.452831 
L 289.054884 103.509765 
L 290.612093 79.383417 
L 292.169302 91.787398 
L 293.726512 76.489583 
L 295.283721 84.123357 
L 296.84093 76.570042 
L 298.39814 100.539499 
L 299.955349 71.959695 
L 301.512558 86.061301 
L 303.069767 109.318098 
L 306.184186 85.719104 
L 307.741395 100.557684 
L 309.298605 104.771262 
L 310.855814 77.430778 
L 312.413023 95.006952 
L 313.970233 104.760762 
L 315.527442 68.717394 
L 317.084651 69.314376 
L 318.64186 104.704942 
L 320.19907 69.96643 
L 321.756279 101.393922 
L 323.313488 89.024256 
L 324.870698 82.592799 
L 326.427907 70.687246 
L 327.985116 74.269623 
L 329.542326 86.559225 
L 331.099535 82.825168 
L 332.656744 80.34875 
L 334.213953 94.650051 
L 335.771163 84.264343 
L 337.328372 86.929773 
L 338.885581 100.031745 
L 340.442791 68.77384 
L 342 91.187653 
L 342 91.187653 
" style="fill:none;stroke:#1f77b4;stroke-linecap:square;stroke-width:1.5;"/>
   </g>
   <g id="line2d_2">
    <path clip-path="url(#pc4ae49d576)" d="M 7.2 109.760612 
L 16.543256 109.760612 
L 19.657674 89.056662 
L 21.214884 80.480805 
L 22.772093 73.900318 
L 24.329302 69.763652 
L 25.886512 68.352712 
L 27.443721 69.763652 
L 29.00093 73.900318 
L 30.55814 80.480805 
L 32.115349 89.056662 
L 33.672558 99.043458 
L 35.229767 109.760612 
L 53.916279 109.760612 
L 57.030698 89.056662 
L 58.587907 80.480805 
L 60.145116 73.900318 
L 61.702326 69.763652 
L 63.259535 68.352712 
L 64.816744 69.763652 
L 66.373953 73.900318 
L 67.931163 80.480805 
L 69.488372 89.056662 
L 71.045581 99.043458 
L 72.602791 109.760612 
L 91.289302 109.760612 
L 94.403721 89.056662 
L 95.96093 80.480805 
L 97.51814 73.900318 
L 99.075349 69.763652 
L 100.632558 68.352712 
L 102.189767 69.763652 
L 103.746977 73.900318 
L 105.304186 80.480805 
L 106.861395 89.056662 
L 108.418605 99.043458 
L 109.975814 109.760612 
L 128.662326 109.760612 
L 131.776744 89.056662 
L 133.333953 80.480805 
L 134.891163 73.900318 
L 136.448372 69.763652 
L 138.005581 68.352712 
L 139.562791 69.763652 
L 141.12 73.900318 
L 142.677209 80.480805 
L 144.234419 89.056662 
L 145.791628 99.043458 
L 147.348837 109.760612 
L 166.035349 109.760612 
L 169.149767 89.056662 
L 170.706977 80.480805 
L 172.264186 73.900318 
L 173.821395 69.763652 
L 175.378605 68.352712 
L 176.935814 69.763652 
L 178.493023 73.900318 
L 180.050233 80.480805 
L 181.607442 89.056662 
L 183.164651 99.043458 
L 184.72186 109.760612 
L 203.408372 109.760612 
L 206.522791 89.056662 
L 208.08 80.480805 
L 209.637209 73.900318 
L 211.194419 69.763652 
L 212.751628 68.352712 
L 214.308837 69.763652 
L 215.866047 73.900318 
L 217.423256 80.480805 
L 218.980465 89.056662 
L 220.537674 99.043458 
L 222.094884 109.760612 
L 240.781395 109.760612 
L 243.895814 89.056662 
L 245.453023 80.480805 
L 247.010233 73.900318 
L 248.567442 69.763652 
L 250.124651 68.352712 
L 251.68186 69.763652 
L 253.23907 73.900318 
L 254.796279 80.480805 
L 256.353488 89.056662 
L 257.910698 99.043458 
L 259.467907 109.760612 
L 278.154419 109.760612 
L 281.268837 89.056662 
L 282.826047 80.480805 
L 284.383256 73.900318 
L 285.940465 69.763652 
L 287.497674 68.352712 
L 289.054884 69.763652 
L 290.612093 73.900318 
L 292.169302 80.480805 
L 293.726512 89.056662 
L 295.283721 99.043458 
L 296.84093 109.760612 
L 315.527442 109.760612 
L 318.64186 89.056662 
L 320.19907 80.480805 
L 321.756279 73.900318 
L 323.313488 69.763652 
L 324.870698 68.352712 
L 326.427907 69.763652 
L 327.985116 73.900318 
L 329.542326 80.480805 
L 331.099535 89.056662 
L 332.656744 99.043458 
L 334.213953 109.760612 
L 342 109.760612 
L 342 109.760612 
" style="fill:none;stroke:#ff7f0e;stroke-linecap:square;stroke-width:1.5;"/>
   </g>
   <g id="line2d_3">
    <path clip-path="url(#pc4ae49d576)" d="M 7.2 109.760612 
L 18.100465 109.76061 
L 19.657674 67.143766 
L 21.214884 109.760611 
L 38.344186 109.760612 
L 39.901395 95.558028 
L 41.458605 109.760612 
L 43.015814 109.760611 
L 44.573023 108.231328 
L 46.130233 70.876013 
L 47.687442 62.824945 
L 49.244651 109.760612 
L 81.946047 109.760612 
L 83.503256 66.62255 
L 85.060465 39.500675 
L 86.617674 65.023452 
L 88.174884 107.987792 
L 89.732093 81.371441 
L 91.289302 109.760611 
L 105.304186 109.760611 
L 106.861395 63.888832 
L 108.418605 85.877381 
L 109.975814 109.760611 
L 111.533023 65.119558 
L 113.090233 109.760612 
L 125.547907 109.760612 
L 127.105116 97.244869 
L 128.662326 45.684586 
L 130.219535 24.230351 
L 131.776744 87.883424 
L 133.333953 109.760612 
L 147.348837 109.760612 
L 148.906047 89.489699 
L 150.463256 93.826426 
L 153.577674 109.760612 
L 166.035349 109.760611 
L 167.592558 41.849934 
L 170.706977 104.225067 
L 172.264186 109.760612 
L 186.27907 109.760612 
L 187.836279 70.404032 
L 189.393488 109.760612 
L 194.065116 109.76061 
L 195.622326 67.701492 
L 197.179535 109.760611 
L 204.965581 109.760611 
L 206.522791 83.728448 
L 208.08 109.760612 
L 209.637209 109.760611 
L 211.194419 103.472892 
L 212.751628 88.109453 
L 214.308837 85.581874 
L 215.866047 109.760612 
L 229.88093 109.760612 
L 231.43814 104.849584 
L 232.995349 56.402947 
L 234.552558 53.300233 
L 236.109767 88.059464 
L 237.666977 109.760612 
L 270.368372 109.760611 
L 271.925581 40.831095 
L 273.482791 83.814639 
L 275.04 100.931293 
L 276.597209 75.119335 
L 278.154419 60.931468 
L 279.711628 35.046634 
L 281.268837 109.760612 
L 296.84093 109.760577 
L 298.39814 71.321801 
L 299.955349 100.729448 
L 301.512558 109.760612 
L 312.413023 109.760612 
L 313.970233 102.523872 
L 315.527442 73.376279 
L 317.084651 55.928248 
L 318.64186 45.949075 
L 320.19907 109.760612 
L 334.213953 109.760612 
L 335.771163 87.596956 
L 337.328372 85.759369 
L 338.885581 105.159615 
L 340.442791 109.760612 
L 342 109.760612 
L 342 109.760612 
" style="fill:none;stroke:#2ca02c;stroke-linecap:square;stroke-width:1.5;"/>
   </g>
   <g id="line2d_4">
    <path clip-path="url(#pc4ae49d576)" d="M 7.2 109.760612 
L 11.871628 109.760612 
L 13.428837 111.477833 
L 14.986047 111.9122 
L 16.543256 109.760612 
L 29.00093 109.760612 
L 30.55814 145.571016 
L 32.115349 117.82507 
L 33.672558 109.760612 
L 35.229767 114.822386 
L 36.786977 109.760612 
L 49.244651 109.760612 
L 50.80186 116.528583 
L 52.35907 109.760612 
L 57.030698 109.760612 
L 58.587907 122.02289 
L 60.145116 109.760612 
L 71.045581 109.760612 
L 72.602791 139.870642 
L 74.16 109.760612 
L 75.717209 118.605839 
L 77.274419 109.760612 
L 78.831628 126.403024 
L 80.388837 109.760612 
L 94.403721 109.760612 
L 95.96093 137.868656 
L 97.51814 143.222336 
L 99.075349 109.760613 
L 114.647442 109.760612 
L 116.204651 134.070717 
L 117.76186 149.257739 
L 119.31907 128.771304 
L 120.876279 109.760612 
L 133.333953 109.760612 
L 134.891163 177.46145 
L 136.448372 158.696865 
L 138.005581 142.085882 
L 139.562791 135.044777 
L 141.12 147.051795 
L 142.677209 109.760612 
L 155.134884 109.760612 
L 156.692093 122.310879 
L 158.249302 109.760612 
L 161.363721 109.760612 
L 162.92093 125.464035 
L 164.47814 109.760612 
L 175.378605 109.760612 
L 176.935814 131.806789 
L 178.493023 139.919862 
L 180.050233 141.217106 
L 181.607442 121.884327 
L 183.164651 109.760612 
L 220.537674 109.760612 
L 222.094884 112.461205 
L 223.652093 109.760612 
L 243.895814 109.760612 
L 245.453023 114.66815 
L 247.010233 109.760612 
L 264.139535 109.760612 
L 265.696744 120.174702 
L 267.253953 115.839325 
L 268.811163 109.760612 
L 282.826047 109.760612 
L 284.383256 167.326915 
L 285.940465 143.879598 
L 287.497674 131.825133 
L 289.054884 109.760612 
L 303.069767 109.760612 
L 304.626977 121.226975 
L 306.184186 121.441747 
L 307.741395 109.760612 
L 323.313488 109.760612 
L 324.870698 156.685165 
L 326.427907 145.60381 
L 327.985116 152.875662 
L 329.542326 147.648834 
L 331.099535 111.528225 
L 332.656744 109.760612 
L 342 109.760612 
L 342 109.760612 
" style="fill:none;stroke:#d62728;stroke-linecap:square;stroke-width:1.5;"/>
   </g>
   <g id="line2d_5">
    <path clip-path="url(#pc4ae49d576)" d="M 7.2 124.068066 
L 8.757209 75.228199 
L 10.314419 79.745336 
L 11.871628 86.163832 
L 13.428837 109.760612 
L 14.986047 110.03793 
L 16.543256 67.464256 
L 18.100465 17.083636 
L 19.657674 109.760612 
L 21.214884 120.560763 
L 22.772093 183.697841 
L 24.329302 182.13231 
L 25.886512 170.438904 
L 27.443721 122.739142 
L 29.00093 126.101807 
L 30.55814 128.658149 
L 32.115349 109.760612 
L 33.672558 93.77072 
L 35.229767 109.760612 
L 36.786977 75.88518 
L 38.344186 88.620922 
L 39.901395 109.760611 
L 41.458605 137.498943 
L 43.015814 128.235998 
L 44.573023 109.760612 
L 46.130233 109.760612 
L 47.687442 105.080469 
L 49.244651 85.669562 
L 50.80186 109.760619 
L 52.35907 86.010611 
L 53.916279 69.291472 
L 55.473488 54.273711 
L 57.030698 48.246334 
L 58.587907 109.760612 
L 60.145116 164.437713 
L 61.702326 178.512637 
L 63.259535 137.283328 
L 64.816744 140.861728 
L 66.373953 149.922844 
L 67.931163 162.219868 
L 69.488372 124.402739 
L 71.045581 97.586353 
L 72.602791 109.760612 
L 74.16 66.965711 
L 75.717209 86.170129 
L 77.274419 103.033586 
L 78.831628 109.760612 
L 80.388837 148.530893 
L 81.946047 123.442836 
L 83.503256 109.760612 
L 85.060465 114.096868 
L 86.617674 119.527628 
L 88.174884 109.760612 
L 89.732093 109.760612 
L 91.289302 34.312959 
L 92.846512 21.428153 
L 94.403721 74.202752 
L 95.96093 109.760612 
L 97.51814 109.760612 
L 99.075349 154.536276 
L 100.632558 144.018571 
L 102.189767 112.394445 
L 103.746977 136.882386 
L 105.304186 124.633186 
L 106.861395 166.899486 
L 108.418605 127.261912 
L 109.975814 136.822589 
L 111.533023 109.760612 
L 113.090233 92.289823 
L 114.647442 98.734862 
L 116.204651 109.760612 
L 119.31907 109.760612 
L 120.876279 88.671425 
L 122.433488 53.904957 
L 123.990698 76.353749 
L 125.547907 122.476409 
L 127.105116 109.760612 
L 130.219535 109.760612 
L 131.776744 103.764528 
L 133.333953 100.080645 
L 134.891163 112.867052 
L 136.448372 109.760612 
L 141.12 109.760612 
L 142.677209 154.451217 
L 144.234419 103.453753 
L 145.791628 114.238441 
L 147.348837 135.738062 
L 148.906047 109.760612 
L 152.020465 109.760612 
L 153.577674 126.134226 
L 155.134884 149.457332 
L 158.249302 68.206251 
L 159.806512 75.37682 
L 161.363721 73.335832 
L 162.92093 109.760612 
L 164.47814 107.753751 
L 166.035349 49.108507 
L 167.592558 109.760612 
L 170.706977 109.760612 
L 172.264186 156.851551 
L 173.821395 172.390694 
L 175.378605 166.481794 
L 176.935814 120.154978 
L 178.493023 109.760612 
L 181.607442 109.760612 
L 183.164651 94.471177 
L 184.72186 124.52937 
L 186.27907 88.303482 
L 187.836279 109.760611 
L 189.393488 125.156423 
L 190.950698 124.146191 
L 192.507907 123.672182 
L 194.065116 133.954972 
L 195.622326 109.760612 
L 197.179535 76.489861 
L 198.736744 99.887701 
L 200.293953 92.033747 
L 201.851163 78.277842 
L 203.408372 65.558037 
L 204.965581 43.893464 
L 206.522791 80.4172 
L 208.08 127.532924 
L 209.637209 184.13742 
L 211.194419 179.532897 
L 212.751628 166.729016 
L 214.308837 162.476086 
L 215.866047 132.538828 
L 217.423256 154.197554 
L 218.980465 85.568159 
L 220.537674 91.13279 
L 222.094884 109.760612 
L 223.652093 77.199615 
L 225.209302 68.678011 
L 226.766512 113.552123 
L 228.323721 113.49149 
L 229.88093 126.145972 
L 231.43814 109.760612 
L 232.995349 129.591433 
L 234.552558 109.760612 
L 236.109767 109.760612 
L 237.666977 118.38707 
L 239.224186 112.654182 
L 240.781395 47.426184 
L 242.338605 52.690198 
L 243.895814 54.226614 
L 247.010233 168.549602 
L 248.567442 143.857448 
L 250.124651 137.709009 
L 251.68186 129.445113 
L 253.23907 154.673452 
L 254.796279 126.850215 
L 256.353488 118.222292 
L 257.910698 119.303705 
L 259.467907 126.369624 
L 261.025116 68.803992 
L 262.582326 90.865486 
L 264.139535 102.913969 
L 265.696744 109.760612 
L 267.253953 109.760612 
L 268.811163 100.639804 
L 270.368372 83.126468 
L 271.925581 109.760612 
L 273.482791 109.760612 
L 275.04 116.888559 
L 276.597209 109.760612 
L 279.711628 109.760611 
L 281.268837 56.697093 
L 282.826047 98.891471 
L 284.383256 109.760612 
L 287.497674 109.760612 
L 289.054884 112.781291 
L 290.612093 147.761868 
L 292.169302 142.420661 
L 293.726512 117.86381 
L 295.283721 111.296698 
L 296.84093 133.210905 
L 298.39814 109.760612 
L 299.955349 109.760612 
L 301.512558 119.130059 
L 303.069767 98.506159 
L 304.626977 109.760612 
L 306.184186 109.760612 
L 307.741395 57.148481 
L 309.298605 44.490024 
L 310.855814 97.353285 
L 312.413023 100.924231 
L 313.970233 84.711995 
L 315.527442 109.760612 
L 318.64186 109.760612 
L 320.19907 138.530236 
L 323.313488 164.206208 
L 324.870698 109.760612 
L 331.099535 109.760612 
L 332.656744 115.071304 
L 334.213953 115.130862 
L 335.771163 109.760612 
L 338.885581 109.760612 
L 340.442791 139.050416 
L 342 127.170553 
L 342 127.170553 
" style="fill:none;stroke:#9467bd;stroke-linecap:square;stroke-width:1.5;"/>
   </g>
   <g id="line2d_6">
    <path clip-path="url(#pc4ae49d576)" d="M 7.2 122.120984 
L 8.757209 171.575669 
L 10.314419 180.020549 
L 11.871628 154.497772 
L 13.428837 133.350651 
L 14.986047 147.045817 
L 16.543256 187.188162 
L 18.100465 214.756364 
L 19.657674 199.331768 
L 21.214884 150.064975 
L 22.772093 112.166791 
L 24.329302 116.048331 
L 25.886512 131.41177 
L 27.443721 152.987739 
L 29.00093 137.996844 
L 30.55814 124.353582 
L 32.115349 155.632392 
L 33.672558 144.578934 
L 35.229767 119.500922 
L 36.786977 157.420535 
L 38.344186 156.592692 
L 39.901395 124.090475 
L 41.458605 121.457578 
L 43.015814 110.923629 
L 44.573023 122.120984 
L 46.130233 171.575669 
L 47.687442 180.020549 
L 49.244651 154.497772 
L 50.80186 133.350651 
L 52.35907 147.045817 
L 53.916279 187.188162 
L 55.473488 214.756364 
L 57.030698 199.331768 
L 58.587907 150.064975 
L 60.145116 112.166791 
L 61.702326 116.048331 
L 63.259535 131.41177 
L 64.816744 152.987739 
L 66.373953 137.996844 
L 67.931163 124.353582 
L 69.488372 155.632392 
L 71.045581 144.578934 
L 72.602791 119.500922 
L 74.16 157.420535 
L 75.717209 156.592692 
L 77.274419 124.090475 
L 78.831628 121.457578 
L 80.388837 110.923629 
L 81.946047 122.120984 
L 83.503256 171.575669 
L 85.060465 180.020549 
L 86.617674 154.497772 
L 88.174884 133.350651 
L 89.732093 147.045817 
L 91.289302 187.188162 
L 92.846512 214.756364 
L 94.403721 199.331768 
L 95.96093 150.064975 
L 97.51814 112.166791 
L 99.075349 116.048331 
L 100.632558 131.41177 
L 102.189767 152.987739 
L 103.746977 137.996844 
L 105.304186 124.353582 
L 106.861395 155.632392 
L 108.418605 144.578934 
L 109.975814 119.500922 
L 111.533023 157.420535 
L 113.090233 156.592692 
L 114.647442 124.090475 
L 116.204651 121.457578 
L 117.76186 110.923629 
L 119.31907 122.120984 
L 120.876279 171.575669 
L 122.433488 180.020549 
L 123.990698 154.497772 
L 125.547907 133.350651 
L 127.105116 147.045817 
L 128.662326 187.188162 
L 130.219535 214.756364 
L 131.776744 199.331768 
L 133.333953 150.064975 
L 134.891163 112.166791 
L 136.448372 116.048331 
L 138.005581 131.41177 
L 139.562791 152.987739 
L 141.12 137.996844 
L 142.677209 124.353582 
L 144.234419 155.632392 
L 145.791628 144.578934 
L 147.348837 119.500922 
L 148.906047 157.420535 
L 150.463256 156.592692 
L 152.020465 124.090475 
L 153.577674 121.457578 
L 155.134884 110.923629 
L 156.692093 122.120984 
L 158.249302 171.575669 
L 159.806512 180.020549 
L 161.363721 154.497772 
L 162.92093 133.350651 
L 164.47814 147.045817 
L 166.035349 187.188162 
L 167.592558 214.756364 
L 169.149767 199.331768 
L 170.706977 150.064975 
L 172.264186 112.166791 
L 173.821395 116.048331 
L 175.378605 131.41177 
L 176.935814 152.987739 
L 178.493023 137.996844 
L 180.050233 124.353582 
L 181.607442 155.632392 
L 183.164651 144.578934 
L 184.72186 119.500922 
L 186.27907 157.420535 
L 187.836279 156.592692 
L 189.393488 124.090475 
L 190.950698 121.457578 
L 192.507907 110.923629 
L 194.065116 122.120984 
L 195.622326 171.575669 
L 197.179535 180.020549 
L 198.736744 154.497772 
L 200.293953 133.350651 
L 201.851163 147.045817 
L 203.408372 187.188162 
L 204.965581 214.756364 
L 206.522791 199.331768 
L 208.08 150.064975 
L 209.637209 112.166791 
L 211.194419 116.048331 
L 212.751628 131.41177 
L 214.308837 152.987739 
L 215.866047 137.996844 
L 217.423256 124.353582 
L 218.980465 155.632392 
L 220.537674 144.578934 
L 222.094884 119.500922 
L 223.652093 157.420535 
L 225.209302 156.592692 
L 226.766512 124.090475 
L 228.323721 121.457578 
L 229.88093 110.923629 
L 231.43814 122.120984 
L 232.995349 171.575669 
L 234.552558 180.020549 
L 236.109767 154.497772 
L 237.666977 133.350651 
L 239.224186 147.045817 
L 240.781395 187.188162 
L 242.338605 214.756364 
L 243.895814 199.331768 
L 245.453023 150.064975 
L 247.010233 112.166791 
L 248.567442 116.048331 
L 250.124651 131.41177 
L 251.68186 152.987739 
L 253.23907 137.996844 
L 254.796279 124.353582 
L 256.353488 155.632392 
L 257.910698 144.578934 
L 259.467907 119.500922 
L 261.025116 157.420535 
L 262.582326 156.592692 
L 264.139535 124.090475 
L 265.696744 121.457578 
L 267.253953 110.923629 
L 268.811163 122.120984 
L 270.368372 171.575669 
L 271.925581 180.020549 
L 273.482791 154.497772 
L 275.04 133.350651 
L 276.597209 147.045817 
L 278.154419 187.188162 
L 279.711628 214.756364 
L 281.268837 199.331768 
L 282.826047 150.064975 
L 284.383256 112.166791 
L 285.940465 116.048331 
L 287.497674 131.41177 
L 289.054884 152.987739 
L 290.612093 137.996844 
L 292.169302 124.353582 
L 293.726512 155.632392 
L 295.283721 144.578934 
L 296.84093 119.500922 
L 298.39814 157.420535 
L 299.955349 156.592692 
L 301.512558 124.090475 
L 303.069767 121.457578 
L 304.626977 110.923629 
L 306.184186 122.120984 
L 307.741395 171.575669 
L 309.298605 180.020549 
L 310.855814 154.497772 
L 312.413023 133.350651 
L 313.970233 147.045817 
L 315.527442 187.188162 
L 317.084651 214.756364 
L 318.64186 199.331768 
L 320.19907 150.064975 
L 321.756279 112.166791 
L 323.313488 116.048331 
L 324.870698 131.41177 
L 326.427907 152.987739 
L 327.985116 137.996844 
L 329.542326 124.353582 
L 331.099535 155.632392 
L 332.656744 144.578934 
L 334.213953 119.500922 
L 335.771163 157.420535 
L 337.328372 156.592692 
L 338.885581 124.090475 
L 340.442791 121.457578 
L 342 110.923629 
L 342 110.923629 
" style="fill:none;stroke:#8c564b;stroke-linecap:square;stroke-width:1.5;"/>
   </g>
   <g id="legend_1">
    <g id="patch_2">
     <path d="M 164.015625 219.64 
L 335 219.64 
Q 337 219.64 337 217.64 
L 337 130.57125 
Q 337 128.57125 335 128.57125 
L 164.015625 128.57125 
Q 162.015625 128.57125 162.015625 130.57125 
L 162.015625 217.64 
Q 162.015625 219.64 164.015625 219.64 
z
" style="fill:#ffffff;opacity:0.8;stroke:#cccccc;stroke-linejoin:miter;"/>
    </g>
    <g id="line2d_7">
     <path d="M 166.015625 136.669687 
L 186.015625 136.669687 
" style="fill:none;stroke:#1f77b4;stroke-linecap:square;stroke-width:1.5;"/>
    </g>
    <g id="line2d_8"/>
    <g id="text_1">
     <!-- wind (green sources) -->
     <g transform="translate(194.015625 140.169687)scale(0.1 -0.1)">
      <defs>
       <path d="M 4.203125 54.6875 
L 13.1875 54.6875 
L 24.421875 12.015625 
L 35.59375 54.6875 
L 46.1875 54.6875 
L 57.421875 12.015625 
L 68.609375 54.6875 
L 77.59375 54.6875 
L 63.28125 0 
L 52.6875 0 
L 40.921875 44.828125 
L 29.109375 0 
L 18.5 0 
z
" id="DejaVuSans-119"/>
       <path d="M 9.421875 54.6875 
L 18.40625 54.6875 
L 18.40625 0 
L 9.421875 0 
z
M 9.421875 75.984375 
L 18.40625 75.984375 
L 18.40625 64.59375 
L 9.421875 64.59375 
z
" id="DejaVuSans-105"/>
       <path d="M 54.890625 33.015625 
L 54.890625 0 
L 45.90625 0 
L 45.90625 32.71875 
Q 45.90625 40.484375 42.875 44.328125 
Q 39.84375 48.1875 33.796875 48.1875 
Q 26.515625 48.1875 22.3125 43.546875 
Q 18.109375 38.921875 18.109375 30.90625 
L 18.109375 0 
L 9.078125 0 
L 9.078125 54.6875 
L 18.109375 54.6875 
L 18.109375 46.1875 
Q 21.34375 51.125 25.703125 53.5625 
Q 30.078125 56 35.796875 56 
Q 45.21875 56 50.046875 50.171875 
Q 54.890625 44.34375 54.890625 33.015625 
z
" id="DejaVuSans-110"/>
       <path d="M 45.40625 46.390625 
L 45.40625 75.984375 
L 54.390625 75.984375 
L 54.390625 0 
L 45.40625 0 
L 45.40625 8.203125 
Q 42.578125 3.328125 38.25 0.953125 
Q 33.9375 -1.421875 27.875 -1.421875 
Q 17.96875 -1.421875 11.734375 6.484375 
Q 5.515625 14.40625 5.515625 27.296875 
Q 5.515625 40.1875 11.734375 48.09375 
Q 17.96875 56 27.875 56 
Q 33.9375 56 38.25 53.625 
Q 42.578125 51.265625 45.40625 46.390625 
z
M 14.796875 27.296875 
Q 14.796875 17.390625 18.875 11.75 
Q 22.953125 6.109375 30.078125 6.109375 
Q 37.203125 6.109375 41.296875 11.75 
Q 45.40625 17.390625 45.40625 27.296875 
Q 45.40625 37.203125 41.296875 42.84375 
Q 37.203125 48.484375 30.078125 48.484375 
Q 22.953125 48.484375 18.875 42.84375 
Q 14.796875 37.203125 14.796875 27.296875 
z
" id="DejaVuSans-100"/>
       <path id="DejaVuSans-32"/>
       <path d="M 31 75.875 
Q 24.46875 64.65625 21.28125 53.65625 
Q 18.109375 42.671875 18.109375 31.390625 
Q 18.109375 20.125 21.3125 9.0625 
Q 24.515625 -2 31 -13.1875 
L 23.1875 -13.1875 
Q 15.875 -1.703125 12.234375 9.375 
Q 8.59375 20.453125 8.59375 31.390625 
Q 8.59375 42.28125 12.203125 53.3125 
Q 15.828125 64.359375 23.1875 75.875 
z
" id="DejaVuSans-40"/>
       <path d="M 45.40625 27.984375 
Q 45.40625 37.75 41.375 43.109375 
Q 37.359375 48.484375 30.078125 48.484375 
Q 22.859375 48.484375 18.828125 43.109375 
Q 14.796875 37.75 14.796875 27.984375 
Q 14.796875 18.265625 18.828125 12.890625 
Q 22.859375 7.515625 30.078125 7.515625 
Q 37.359375 7.515625 41.375 12.890625 
Q 45.40625 18.265625 45.40625 27.984375 
z
M 54.390625 6.78125 
Q 54.390625 -7.171875 48.1875 -13.984375 
Q 42 -20.796875 29.203125 -20.796875 
Q 24.46875 -20.796875 20.265625 -20.09375 
Q 16.0625 -19.390625 12.109375 -17.921875 
L 12.109375 -9.1875 
Q 16.0625 -11.328125 19.921875 -12.34375 
Q 23.78125 -13.375 27.78125 -13.375 
Q 36.625 -13.375 41.015625 -8.765625 
Q 45.40625 -4.15625 45.40625 5.171875 
L 45.40625 9.625 
Q 42.625 4.78125 38.28125 2.390625 
Q 33.9375 0 27.875 0 
Q 17.828125 0 11.671875 7.65625 
Q 5.515625 15.328125 5.515625 27.984375 
Q 5.515625 40.671875 11.671875 48.328125 
Q 17.828125 56 27.875 56 
Q 33.9375 56 38.28125 53.609375 
Q 42.625 51.21875 45.40625 46.390625 
L 45.40625 54.6875 
L 54.390625 54.6875 
z
" id="DejaVuSans-103"/>
       <path d="M 41.109375 46.296875 
Q 39.59375 47.171875 37.8125 47.578125 
Q 36.03125 48 33.890625 48 
Q 26.265625 48 22.1875 43.046875 
Q 18.109375 38.09375 18.109375 28.8125 
L 18.109375 0 
L 9.078125 0 
L 9.078125 54.6875 
L 18.109375 54.6875 
L 18.109375 46.1875 
Q 20.953125 51.171875 25.484375 53.578125 
Q 30.03125 56 36.53125 56 
Q 37.453125 56 38.578125 55.875 
Q 39.703125 55.765625 41.0625 55.515625 
z
" id="DejaVuSans-114"/>
       <path d="M 56.203125 29.59375 
L 56.203125 25.203125 
L 14.890625 25.203125 
Q 15.484375 15.921875 20.484375 11.0625 
Q 25.484375 6.203125 34.421875 6.203125 
Q 39.59375 6.203125 44.453125 7.46875 
Q 49.3125 8.734375 54.109375 11.28125 
L 54.109375 2.78125 
Q 49.265625 0.734375 44.1875 -0.34375 
Q 39.109375 -1.421875 33.890625 -1.421875 
Q 20.796875 -1.421875 13.15625 6.1875 
Q 5.515625 13.8125 5.515625 26.8125 
Q 5.515625 40.234375 12.765625 48.109375 
Q 20.015625 56 32.328125 56 
Q 43.359375 56 49.78125 48.890625 
Q 56.203125 41.796875 56.203125 29.59375 
z
M 47.21875 32.234375 
Q 47.125 39.59375 43.09375 43.984375 
Q 39.0625 48.390625 32.421875 48.390625 
Q 24.90625 48.390625 20.390625 44.140625 
Q 15.875 39.890625 15.1875 32.171875 
z
" id="DejaVuSans-101"/>
       <path d="M 44.28125 53.078125 
L 44.28125 44.578125 
Q 40.484375 46.53125 36.375 47.5 
Q 32.28125 48.484375 27.875 48.484375 
Q 21.1875 48.484375 17.84375 46.4375 
Q 14.5 44.390625 14.5 40.28125 
Q 14.5 37.15625 16.890625 35.375 
Q 19.28125 33.59375 26.515625 31.984375 
L 29.59375 31.296875 
Q 39.15625 29.25 43.1875 25.515625 
Q 47.21875 21.78125 47.21875 15.09375 
Q 47.21875 7.46875 41.1875 3.015625 
Q 35.15625 -1.421875 24.609375 -1.421875 
Q 20.21875 -1.421875 15.453125 -0.5625 
Q 10.6875 0.296875 5.421875 2 
L 5.421875 11.28125 
Q 10.40625 8.6875 15.234375 7.390625 
Q 20.0625 6.109375 24.8125 6.109375 
Q 31.15625 6.109375 34.5625 8.28125 
Q 37.984375 10.453125 37.984375 14.40625 
Q 37.984375 18.0625 35.515625 20.015625 
Q 33.0625 21.96875 24.703125 23.78125 
L 21.578125 24.515625 
Q 13.234375 26.265625 9.515625 29.90625 
Q 5.8125 33.546875 5.8125 39.890625 
Q 5.8125 47.609375 11.28125 51.796875 
Q 16.75 56 26.8125 56 
Q 31.78125 56 36.171875 55.265625 
Q 40.578125 54.546875 44.28125 53.078125 
z
" id="DejaVuSans-115"/>
       <path d="M 30.609375 48.390625 
Q 23.390625 48.390625 19.1875 42.75 
Q 14.984375 37.109375 14.984375 27.296875 
Q 14.984375 17.484375 19.15625 11.84375 
Q 23.34375 6.203125 30.609375 6.203125 
Q 37.796875 6.203125 41.984375 11.859375 
Q 46.1875 17.53125 46.1875 27.296875 
Q 46.1875 37.015625 41.984375 42.703125 
Q 37.796875 48.390625 30.609375 48.390625 
z
M 30.609375 56 
Q 42.328125 56 49.015625 48.375 
Q 55.71875 40.765625 55.71875 27.296875 
Q 55.71875 13.875 49.015625 6.21875 
Q 42.328125 -1.421875 30.609375 -1.421875 
Q 18.84375 -1.421875 12.171875 6.21875 
Q 5.515625 13.875 5.515625 27.296875 
Q 5.515625 40.765625 12.171875 48.375 
Q 18.84375 56 30.609375 56 
z
" id="DejaVuSans-111"/>
       <path d="M 8.5 21.578125 
L 8.5 54.6875 
L 17.484375 54.6875 
L 17.484375 21.921875 
Q 17.484375 14.15625 20.5 10.265625 
Q 23.53125 6.390625 29.59375 6.390625 
Q 36.859375 6.390625 41.078125 11.03125 
Q 45.3125 15.671875 45.3125 23.6875 
L 45.3125 54.6875 
L 54.296875 54.6875 
L 54.296875 0 
L 45.3125 0 
L 45.3125 8.40625 
Q 42.046875 3.421875 37.71875 1 
Q 33.40625 -1.421875 27.6875 -1.421875 
Q 18.265625 -1.421875 13.375 4.4375 
Q 8.5 10.296875 8.5 21.578125 
z
M 31.109375 56 
z
" id="DejaVuSans-117"/>
       <path d="M 48.78125 52.59375 
L 48.78125 44.1875 
Q 44.96875 46.296875 41.140625 47.34375 
Q 37.3125 48.390625 33.40625 48.390625 
Q 24.65625 48.390625 19.8125 42.84375 
Q 14.984375 37.3125 14.984375 27.296875 
Q 14.984375 17.28125 19.8125 11.734375 
Q 24.65625 6.203125 33.40625 6.203125 
Q 37.3125 6.203125 41.140625 7.25 
Q 44.96875 8.296875 48.78125 10.40625 
L 48.78125 2.09375 
Q 45.015625 0.34375 40.984375 -0.53125 
Q 36.96875 -1.421875 32.421875 -1.421875 
Q 20.0625 -1.421875 12.78125 6.34375 
Q 5.515625 14.109375 5.515625 27.296875 
Q 5.515625 40.671875 12.859375 48.328125 
Q 20.21875 56 33.015625 56 
Q 37.15625 56 41.109375 55.140625 
Q 45.0625 54.296875 48.78125 52.59375 
z
" id="DejaVuSans-99"/>
       <path d="M 8.015625 75.875 
L 15.828125 75.875 
Q 23.140625 64.359375 26.78125 53.3125 
Q 30.421875 42.28125 30.421875 31.390625 
Q 30.421875 20.453125 26.78125 9.375 
Q 23.140625 -1.703125 15.828125 -13.1875 
L 8.015625 -13.1875 
Q 14.5 -2 17.703125 9.0625 
Q 20.90625 20.125 20.90625 31.390625 
Q 20.90625 42.671875 17.703125 53.65625 
Q 14.5 64.65625 8.015625 75.875 
z
" id="DejaVuSans-41"/>
      </defs>
      <use xlink:href="#DejaVuSans-119"/>
      <use x="81.787109" xlink:href="#DejaVuSans-105"/>
      <use x="109.570312" xlink:href="#DejaVuSans-110"/>
      <use x="172.949219" xlink:href="#DejaVuSans-100"/>
      <use x="236.425781" xlink:href="#DejaVuSans-32"/>
      <use x="268.212891" xlink:href="#DejaVuSans-40"/>
      <use x="307.226562" xlink:href="#DejaVuSans-103"/>
      <use x="370.703125" xlink:href="#DejaVuSans-114"/>
      <use x="409.566406" xlink:href="#DejaVuSans-101"/>
      <use x="471.089844" xlink:href="#DejaVuSans-101"/>
      <use x="532.613281" xlink:href="#DejaVuSans-110"/>
      <use x="595.992188" xlink:href="#DejaVuSans-32"/>
      <use x="627.779297" xlink:href="#DejaVuSans-115"/>
      <use x="679.878906" xlink:href="#DejaVuSans-111"/>
      <use x="741.060547" xlink:href="#DejaVuSans-117"/>
      <use x="804.439453" xlink:href="#DejaVuSans-114"/>
      <use x="843.302734" xlink:href="#DejaVuSans-99"/>
      <use x="898.283203" xlink:href="#DejaVuSans-101"/>
      <use x="959.806641" xlink:href="#DejaVuSans-115"/>
      <use x="1011.90625" xlink:href="#DejaVuSans-41"/>
     </g>
    </g>
    <g id="line2d_9">
     <path d="M 166.015625 151.347812 
L 186.015625 151.347812 
" style="fill:none;stroke:#ff7f0e;stroke-linecap:square;stroke-width:1.5;"/>
    </g>
    <g id="line2d_10"/>
    <g id="text_2">
     <!-- PV (green sources) -->
     <g transform="translate(194.015625 154.847812)scale(0.1 -0.1)">
      <defs>
       <path d="M 19.671875 64.796875 
L 19.671875 37.40625 
L 32.078125 37.40625 
Q 38.96875 37.40625 42.71875 40.96875 
Q 46.484375 44.53125 46.484375 51.125 
Q 46.484375 57.671875 42.71875 61.234375 
Q 38.96875 64.796875 32.078125 64.796875 
z
M 9.8125 72.90625 
L 32.078125 72.90625 
Q 44.34375 72.90625 50.609375 67.359375 
Q 56.890625 61.8125 56.890625 51.125 
Q 56.890625 40.328125 50.609375 34.8125 
Q 44.34375 29.296875 32.078125 29.296875 
L 19.671875 29.296875 
L 19.671875 0 
L 9.8125 0 
z
" id="DejaVuSans-80"/>
       <path d="M 28.609375 0 
L 0.78125 72.90625 
L 11.078125 72.90625 
L 34.1875 11.53125 
L 57.328125 72.90625 
L 67.578125 72.90625 
L 39.796875 0 
z
" id="DejaVuSans-86"/>
      </defs>
      <use xlink:href="#DejaVuSans-80"/>
      <use x="60.302734" xlink:href="#DejaVuSans-86"/>
      <use x="128.710938" xlink:href="#DejaVuSans-32"/>
      <use x="160.498047" xlink:href="#DejaVuSans-40"/>
      <use x="199.511719" xlink:href="#DejaVuSans-103"/>
      <use x="262.988281" xlink:href="#DejaVuSans-114"/>
      <use x="301.851562" xlink:href="#DejaVuSans-101"/>
      <use x="363.375" xlink:href="#DejaVuSans-101"/>
      <use x="424.898438" xlink:href="#DejaVuSans-110"/>
      <use x="488.277344" xlink:href="#DejaVuSans-32"/>
      <use x="520.064453" xlink:href="#DejaVuSans-115"/>
      <use x="572.164062" xlink:href="#DejaVuSans-111"/>
      <use x="633.345703" xlink:href="#DejaVuSans-117"/>
      <use x="696.724609" xlink:href="#DejaVuSans-114"/>
      <use x="735.587891" xlink:href="#DejaVuSans-99"/>
      <use x="790.568359" xlink:href="#DejaVuSans-101"/>
      <use x="852.091797" xlink:href="#DejaVuSans-115"/>
      <use x="904.191406" xlink:href="#DejaVuSans-41"/>
     </g>
    </g>
    <g id="line2d_11">
     <path d="M 166.015625 166.025937 
L 186.015625 166.025937 
" style="fill:none;stroke:#2ca02c;stroke-linecap:square;stroke-width:1.5;"/>
    </g>
    <g id="line2d_12"/>
    <g id="text_3">
     <!-- spot market (grey sources) -->
     <g transform="translate(194.015625 169.525937)scale(0.1 -0.1)">
      <defs>
       <path d="M 18.109375 8.203125 
L 18.109375 -20.796875 
L 9.078125 -20.796875 
L 9.078125 54.6875 
L 18.109375 54.6875 
L 18.109375 46.390625 
Q 20.953125 51.265625 25.265625 53.625 
Q 29.59375 56 35.59375 56 
Q 45.5625 56 51.78125 48.09375 
Q 58.015625 40.1875 58.015625 27.296875 
Q 58.015625 14.40625 51.78125 6.484375 
Q 45.5625 -1.421875 35.59375 -1.421875 
Q 29.59375 -1.421875 25.265625 0.953125 
Q 20.953125 3.328125 18.109375 8.203125 
z
M 48.6875 27.296875 
Q 48.6875 37.203125 44.609375 42.84375 
Q 40.53125 48.484375 33.40625 48.484375 
Q 26.265625 48.484375 22.1875 42.84375 
Q 18.109375 37.203125 18.109375 27.296875 
Q 18.109375 17.390625 22.1875 11.75 
Q 26.265625 6.109375 33.40625 6.109375 
Q 40.53125 6.109375 44.609375 11.75 
Q 48.6875 17.390625 48.6875 27.296875 
z
" id="DejaVuSans-112"/>
       <path d="M 18.3125 70.21875 
L 18.3125 54.6875 
L 36.8125 54.6875 
L 36.8125 47.703125 
L 18.3125 47.703125 
L 18.3125 18.015625 
Q 18.3125 11.328125 20.140625 9.421875 
Q 21.96875 7.515625 27.59375 7.515625 
L 36.8125 7.515625 
L 36.8125 0 
L 27.59375 0 
Q 17.1875 0 13.234375 3.875 
Q 9.28125 7.765625 9.28125 18.015625 
L 9.28125 47.703125 
L 2.6875 47.703125 
L 2.6875 54.6875 
L 9.28125 54.6875 
L 9.28125 70.21875 
z
" id="DejaVuSans-116"/>
       <path d="M 52 44.1875 
Q 55.375 50.25 60.0625 53.125 
Q 64.75 56 71.09375 56 
Q 79.640625 56 84.28125 50.015625 
Q 88.921875 44.046875 88.921875 33.015625 
L 88.921875 0 
L 79.890625 0 
L 79.890625 32.71875 
Q 79.890625 40.578125 77.09375 44.375 
Q 74.3125 48.1875 68.609375 48.1875 
Q 61.625 48.1875 57.5625 43.546875 
Q 53.515625 38.921875 53.515625 30.90625 
L 53.515625 0 
L 44.484375 0 
L 44.484375 32.71875 
Q 44.484375 40.625 41.703125 44.40625 
Q 38.921875 48.1875 33.109375 48.1875 
Q 26.21875 48.1875 22.15625 43.53125 
Q 18.109375 38.875 18.109375 30.90625 
L 18.109375 0 
L 9.078125 0 
L 9.078125 54.6875 
L 18.109375 54.6875 
L 18.109375 46.1875 
Q 21.1875 51.21875 25.484375 53.609375 
Q 29.78125 56 35.6875 56 
Q 41.65625 56 45.828125 52.96875 
Q 50 49.953125 52 44.1875 
z
" id="DejaVuSans-109"/>
       <path d="M 34.28125 27.484375 
Q 23.390625 27.484375 19.1875 25 
Q 14.984375 22.515625 14.984375 16.5 
Q 14.984375 11.71875 18.140625 8.90625 
Q 21.296875 6.109375 26.703125 6.109375 
Q 34.1875 6.109375 38.703125 11.40625 
Q 43.21875 16.703125 43.21875 25.484375 
L 43.21875 27.484375 
z
M 52.203125 31.203125 
L 52.203125 0 
L 43.21875 0 
L 43.21875 8.296875 
Q 40.140625 3.328125 35.546875 0.953125 
Q 30.953125 -1.421875 24.3125 -1.421875 
Q 15.921875 -1.421875 10.953125 3.296875 
Q 6 8.015625 6 15.921875 
Q 6 25.140625 12.171875 29.828125 
Q 18.359375 34.515625 30.609375 34.515625 
L 43.21875 34.515625 
L 43.21875 35.40625 
Q 43.21875 41.609375 39.140625 45 
Q 35.0625 48.390625 27.6875 48.390625 
Q 23 48.390625 18.546875 47.265625 
Q 14.109375 46.140625 10.015625 43.890625 
L 10.015625 52.203125 
Q 14.9375 54.109375 19.578125 55.046875 
Q 24.21875 56 28.609375 56 
Q 40.484375 56 46.34375 49.84375 
Q 52.203125 43.703125 52.203125 31.203125 
z
" id="DejaVuSans-97"/>
       <path d="M 9.078125 75.984375 
L 18.109375 75.984375 
L 18.109375 31.109375 
L 44.921875 54.6875 
L 56.390625 54.6875 
L 27.390625 29.109375 
L 57.625 0 
L 45.90625 0 
L 18.109375 26.703125 
L 18.109375 0 
L 9.078125 0 
z
" id="DejaVuSans-107"/>
       <path d="M 32.171875 -5.078125 
Q 28.375 -14.84375 24.75 -17.8125 
Q 21.140625 -20.796875 15.09375 -20.796875 
L 7.90625 -20.796875 
L 7.90625 -13.28125 
L 13.1875 -13.28125 
Q 16.890625 -13.28125 18.9375 -11.515625 
Q 21 -9.765625 23.484375 -3.21875 
L 25.09375 0.875 
L 2.984375 54.6875 
L 12.5 54.6875 
L 29.59375 11.921875 
L 46.6875 54.6875 
L 56.203125 54.6875 
z
" id="DejaVuSans-121"/>
      </defs>
      <use xlink:href="#DejaVuSans-115"/>
      <use x="52.099609" xlink:href="#DejaVuSans-112"/>
      <use x="115.576172" xlink:href="#DejaVuSans-111"/>
      <use x="176.757812" xlink:href="#DejaVuSans-116"/>
      <use x="215.966797" xlink:href="#DejaVuSans-32"/>
      <use x="247.753906" xlink:href="#DejaVuSans-109"/>
      <use x="345.166016" xlink:href="#DejaVuSans-97"/>
      <use x="406.445312" xlink:href="#DejaVuSans-114"/>
      <use x="447.558594" xlink:href="#DejaVuSans-107"/>
      <use x="501.84375" xlink:href="#DejaVuSans-101"/>
      <use x="563.367188" xlink:href="#DejaVuSans-116"/>
      <use x="602.576172" xlink:href="#DejaVuSans-32"/>
      <use x="634.363281" xlink:href="#DejaVuSans-40"/>
      <use x="673.376953" xlink:href="#DejaVuSans-103"/>
      <use x="736.853516" xlink:href="#DejaVuSans-114"/>
      <use x="775.716797" xlink:href="#DejaVuSans-101"/>
      <use x="837.240234" xlink:href="#DejaVuSans-121"/>
      <use x="896.419922" xlink:href="#DejaVuSans-32"/>
      <use x="928.207031" xlink:href="#DejaVuSans-115"/>
      <use x="980.306641" xlink:href="#DejaVuSans-111"/>
      <use x="1041.488281" xlink:href="#DejaVuSans-117"/>
      <use x="1104.867188" xlink:href="#DejaVuSans-114"/>
      <use x="1143.730469" xlink:href="#DejaVuSans-99"/>
      <use x="1198.710938" xlink:href="#DejaVuSans-101"/>
      <use x="1260.234375" xlink:href="#DejaVuSans-115"/>
      <use x="1312.333984" xlink:href="#DejaVuSans-41"/>
     </g>
    </g>
    <g id="line2d_13">
     <path d="M 166.015625 180.704062 
L 186.015625 180.704062 
" style="fill:none;stroke:#d62728;stroke-linecap:square;stroke-width:1.5;"/>
    </g>
    <g id="line2d_14"/>
    <g id="text_4">
     <!-- green sales (green sources) -->
     <g transform="translate(194.015625 184.204062)scale(0.1 -0.1)">
      <defs>
       <path d="M 9.421875 75.984375 
L 18.40625 75.984375 
L 18.40625 0 
L 9.421875 0 
z
" id="DejaVuSans-108"/>
      </defs>
      <use xlink:href="#DejaVuSans-103"/>
      <use x="63.476562" xlink:href="#DejaVuSans-114"/>
      <use x="102.339844" xlink:href="#DejaVuSans-101"/>
      <use x="163.863281" xlink:href="#DejaVuSans-101"/>
      <use x="225.386719" xlink:href="#DejaVuSans-110"/>
      <use x="288.765625" xlink:href="#DejaVuSans-32"/>
      <use x="320.552734" xlink:href="#DejaVuSans-115"/>
      <use x="372.652344" xlink:href="#DejaVuSans-97"/>
      <use x="433.931641" xlink:href="#DejaVuSans-108"/>
      <use x="461.714844" xlink:href="#DejaVuSans-101"/>
      <use x="523.238281" xlink:href="#DejaVuSans-115"/>
      <use x="575.337891" xlink:href="#DejaVuSans-32"/>
      <use x="607.125" xlink:href="#DejaVuSans-40"/>
      <use x="646.138672" xlink:href="#DejaVuSans-103"/>
      <use x="709.615234" xlink:href="#DejaVuSans-114"/>
      <use x="748.478516" xlink:href="#DejaVuSans-101"/>
      <use x="810.001953" xlink:href="#DejaVuSans-101"/>
      <use x="871.525391" xlink:href="#DejaVuSans-110"/>
      <use x="934.904297" xlink:href="#DejaVuSans-32"/>
      <use x="966.691406" xlink:href="#DejaVuSans-115"/>
      <use x="1018.791016" xlink:href="#DejaVuSans-111"/>
      <use x="1079.972656" xlink:href="#DejaVuSans-117"/>
      <use x="1143.351562" xlink:href="#DejaVuSans-114"/>
      <use x="1182.214844" xlink:href="#DejaVuSans-99"/>
      <use x="1237.195312" xlink:href="#DejaVuSans-101"/>
      <use x="1298.71875" xlink:href="#DejaVuSans-115"/>
      <use x="1350.818359" xlink:href="#DejaVuSans-41"/>
     </g>
    </g>
    <g id="line2d_15">
     <path d="M 166.015625 195.382187 
L 186.015625 195.382187 
" style="fill:none;stroke:#9467bd;stroke-linecap:square;stroke-width:1.5;"/>
    </g>
    <g id="line2d_16"/>
    <g id="text_5">
     <!-- battery (green sources) -->
     <g transform="translate(194.015625 198.882187)scale(0.1 -0.1)">
      <defs>
       <path d="M 48.6875 27.296875 
Q 48.6875 37.203125 44.609375 42.84375 
Q 40.53125 48.484375 33.40625 48.484375 
Q 26.265625 48.484375 22.1875 42.84375 
Q 18.109375 37.203125 18.109375 27.296875 
Q 18.109375 17.390625 22.1875 11.75 
Q 26.265625 6.109375 33.40625 6.109375 
Q 40.53125 6.109375 44.609375 11.75 
Q 48.6875 17.390625 48.6875 27.296875 
z
M 18.109375 46.390625 
Q 20.953125 51.265625 25.265625 53.625 
Q 29.59375 56 35.59375 56 
Q 45.5625 56 51.78125 48.09375 
Q 58.015625 40.1875 58.015625 27.296875 
Q 58.015625 14.40625 51.78125 6.484375 
Q 45.5625 -1.421875 35.59375 -1.421875 
Q 29.59375 -1.421875 25.265625 0.953125 
Q 20.953125 3.328125 18.109375 8.203125 
L 18.109375 0 
L 9.078125 0 
L 9.078125 75.984375 
L 18.109375 75.984375 
z
" id="DejaVuSans-98"/>
      </defs>
      <use xlink:href="#DejaVuSans-98"/>
      <use x="63.476562" xlink:href="#DejaVuSans-97"/>
      <use x="124.755859" xlink:href="#DejaVuSans-116"/>
      <use x="163.964844" xlink:href="#DejaVuSans-116"/>
      <use x="203.173828" xlink:href="#DejaVuSans-101"/>
      <use x="264.697266" xlink:href="#DejaVuSans-114"/>
      <use x="305.810547" xlink:href="#DejaVuSans-121"/>
      <use x="364.990234" xlink:href="#DejaVuSans-32"/>
      <use x="396.777344" xlink:href="#DejaVuSans-40"/>
      <use x="435.791016" xlink:href="#DejaVuSans-103"/>
      <use x="499.267578" xlink:href="#DejaVuSans-114"/>
      <use x="538.130859" xlink:href="#DejaVuSans-101"/>
      <use x="599.654297" xlink:href="#DejaVuSans-101"/>
      <use x="661.177734" xlink:href="#DejaVuSans-110"/>
      <use x="724.556641" xlink:href="#DejaVuSans-32"/>
      <use x="756.34375" xlink:href="#DejaVuSans-115"/>
      <use x="808.443359" xlink:href="#DejaVuSans-111"/>
      <use x="869.625" xlink:href="#DejaVuSans-117"/>
      <use x="933.003906" xlink:href="#DejaVuSans-114"/>
      <use x="971.867188" xlink:href="#DejaVuSans-99"/>
      <use x="1026.847656" xlink:href="#DejaVuSans-101"/>
      <use x="1088.371094" xlink:href="#DejaVuSans-115"/>
      <use x="1140.470703" xlink:href="#DejaVuSans-41"/>
     </g>
    </g>
    <g id="line2d_17">
     <path d="M 166.015625 210.060312 
L 186.015625 210.060312 
" style="fill:none;stroke:#8c564b;stroke-linecap:square;stroke-width:1.5;"/>
    </g>
    <g id="line2d_18"/>
    <g id="text_6">
     <!-- downstream -->
     <g transform="translate(194.015625 213.560312)scale(0.1 -0.1)">
      <use xlink:href="#DejaVuSans-100"/>
      <use x="63.476562" xlink:href="#DejaVuSans-111"/>
      <use x="124.658203" xlink:href="#DejaVuSans-119"/>
      <use x="206.445312" xlink:href="#DejaVuSans-110"/>
      <use x="269.824219" xlink:href="#DejaVuSans-115"/>
      <use x="321.923828" xlink:href="#DejaVuSans-116"/>
      <use x="361.132812" xlink:href="#DejaVuSans-114"/>
      <use x="399.996094" xlink:href="#DejaVuSans-101"/>
      <use x="461.519531" xlink:href="#DejaVuSans-97"/>
      <use x="522.798828" xlink:href="#DejaVuSans-109"/>
     </g>
    </g>
   </g>
  </g>
 </g>
 <defs>
  <clipPath id="pc4ae49d576">
   <rect height="217.44" width="334.8" x="7.2" y="7.2"/>
  </clipPath>
 </defs>
</svg>
