<?xml version="1.0" encoding="utf-8" standalone="no"?>
<!DOCTYPE svg PUBLIC "-//W3C//DTD SVG 1.1//EN"
  "http://www.w3.org/Graphics/SVG/1.1/DTD/svg11.dtd">
<svg xmlns:xlink="http://www.w3.org/1999/xlink" width="349.2pt" height="246.958125pt" viewBox="0 0 349.2 246.958125" xmlns="http://www.w3.org/2000/svg" version="1.1">
 <metadata>
  <rdf:RDF xmlns:dc="http://purl.org/dc/elements/1.1/" xmlns:cc="http://creativecommons.org/ns#" xmlns:rdf="http://www.w3.org/1999/02/22-rdf-syntax-ns#">
   <cc:Work>
    <dc:type rdf:resource="http://purl.org/dc/dcmitype/StillImage"/>
    <dc:date>2022-08-03T18:37:58.667188</dc:date>
    <dc:format>image/svg+xml</dc:format>
    <dc:creator>
     <cc:Agent>
      <dc:title>Matplotlib v3.5.0, https://matplotlib.org/</dc:title>
     </cc:Agent>
    </dc:creator>
   </cc:Work>
  </rdf:RDF>
 </metadata>
 <defs>
  <style type="text/css">*{stroke-linejoin: round; stroke-linecap: butt}</style>
 </defs>
 <g id="figure_1">
  <g id="patch_1">
   <path d="M 0 246.958125 
L 349.2 246.958125 
L 349.2 0 
L 0 0 
L 0 246.958125 
z
" style="fill: none"/>
  </g>
  <g id="axes_1">
   <g id="patch_2">
    <path d="M 223.047532 136.167161 
Q 182.236708 134.89692 142.543378 133.661462 
" clip-path="url(#p82a8098e4b)" style="fill: none; stroke: #808080; stroke-linecap: round"/>
    <path d="M 146.479221 135.784934 
L 142.543378 133.661462 
L 146.603662 131.78687 
L 146.479221 135.784934 
z
" clip-path="url(#p82a8098e4b)" style="fill: #808080; stroke: #808080; stroke-linecap: round"/>
   </g>
   <g id="patch_3">
    <path d="M 240.356352 136.740625 
Q 272.32526 137.863953 303.176824 138.94802 
" clip-path="url(#p82a8098e4b)" style="fill: none; stroke: #808080; stroke-linecap: round"/>
    <path d="M 299.249525 136.808788 
L 303.176824 138.94802 
L 299.109059 140.806321 
L 299.249525 136.808788 
z
" clip-path="url(#p82a8098e4b)" style="fill: #808080; stroke: #808080; stroke-linecap: round"/>
   </g>
   <g id="patch_4">
    <path d="M 93.6438 89.431759 
Q 110.326759 108.159918 126.266047 126.05324 
" clip-path="url(#p82a8098e4b)" style="fill: none; stroke: #808080; stroke-linecap: round"/>
    <path d="M 125.098816 121.736114 
L 126.266047 126.05324 
L 122.112008 124.396749 
L 125.098816 121.736114 
z
" clip-path="url(#p82a8098e4b)" style="fill: #808080; stroke: #808080; stroke-linecap: round"/>
   </g>
   <g id="patch_5">
    <path d="M 82.065176 76.545411 
Q 68.949865 62.074183 56.585358 48.431383 
" clip-path="url(#p82a8098e4b)" style="fill: none; stroke: #808080; stroke-linecap: round"/>
    <path d="M 57.789586 52.738334 
L 56.585358 48.431383 
L 60.753456 50.052171 
L 57.789586 52.738334 
z
" clip-path="url(#p82a8098e4b)" style="fill: #808080; stroke: #808080; stroke-linecap: round"/>
   </g>
   <g id="patch_6">
    <path d="M 86.536246 175.24743 
Q 106.44431 157.21071 125.523821 139.924658 
" clip-path="url(#p82a8098e4b)" style="fill: none; stroke: #808080; stroke-linecap: round"/>
    <path d="M 121.21667 141.128172 
L 125.523821 139.924658 
L 123.902342 144.092488 
L 121.21667 141.128172 
z
" clip-path="url(#p82a8098e4b)" style="fill: #808080; stroke: #808080; stroke-linecap: round"/>
   </g>
   <g id="patch_7">
    <path d="M 73.70616 186.883949 
Q 58.185593 200.975732 43.492778 214.315964 
" clip-path="url(#p82a8098e4b)" style="fill: none; stroke: #808080; stroke-linecap: round"/>
    <path d="M 47.798645 213.107862 
L 43.492778 214.315964 
L 45.109816 210.146409 
L 47.798645 213.107862 
z
" clip-path="url(#p82a8098e4b)" style="fill: #808080; stroke: #808080; stroke-linecap: round"/>
   </g>
   <g id="patch_8">
    <path d="M 141.428355 133.626757 
Q 182.239179 134.896997 221.93251 136.132456 
" clip-path="url(#p82a8098e4b)" style="fill: none; stroke: #808080; stroke-linecap: round"/>
    <path d="M 217.996666 134.008984 
L 221.93251 136.132456 
L 217.872226 138.007048 
L 217.996666 134.008984 
z
" clip-path="url(#p82a8098e4b)" style="fill: #808080; stroke: #808080; stroke-linecap: round"/>
   </g>
   <g id="patch_9">
    <path d="M 127.01047 126.888923 
Q 110.327511 108.160763 94.388223 90.267442 
" clip-path="url(#p82a8098e4b)" style="fill: none; stroke: #808080; stroke-linecap: round"/>
    <path d="M 95.555454 94.584568 
L 94.388223 90.267442 
L 98.542262 91.923933 
L 95.555454 94.584568 
z
" clip-path="url(#p82a8098e4b)" style="fill: #808080; stroke: #808080; stroke-linecap: round"/>
   </g>
   <g id="patch_10">
    <path d="M 126.354644 139.171932 
Q 106.44658 157.208652 87.367068 174.494704 
" clip-path="url(#p82a8098e4b)" style="fill: none; stroke: #808080; stroke-linecap: round"/>
    <path d="M 91.67422 173.29119 
L 87.367068 174.494704 
L 88.988548 170.326874 
L 91.67422 173.29119 
z
" clip-path="url(#p82a8098e4b)" style="fill: #808080; stroke: #808080; stroke-linecap: round"/>
   </g>
   <g id="patch_11">
    <path d="M 304.294135 138.98728 
Q 272.325226 137.863952 241.473662 136.779885 
" clip-path="url(#p82a8098e4b)" style="fill: none; stroke: #808080; stroke-linecap: round"/>
    <path d="M 245.400962 138.919117 
L 241.473662 136.779885 
L 245.541428 134.921584 
L 245.400962 138.919117 
z
" clip-path="url(#p82a8098e4b)" style="fill: #808080; stroke: #808080; stroke-linecap: round"/>
   </g>
   <g id="patch_12">
    <path d="M 55.836236 47.604813 
Q 68.951548 62.076041 81.316055 75.718842 
" clip-path="url(#p82a8098e4b)" style="fill: none; stroke: #808080; stroke-linecap: round"/>
    <path d="M 80.111826 71.41189 
L 81.316055 75.718842 
L 77.147956 74.098053 
L 80.111826 71.41189 
z
" clip-path="url(#p82a8098e4b)" style="fill: #808080; stroke: #808080; stroke-linecap: round"/>
   </g>
   <g id="patch_13">
    <path d="M 42.665115 215.067435 
Q 58.185681 200.975652 72.878496 187.63542 
" clip-path="url(#p82a8098e4b)" style="fill: none; stroke: #808080; stroke-linecap: round"/>
    <path d="M 68.572629 188.843522 
L 72.878496 187.63542 
L 71.261458 191.804975 
L 68.572629 188.843522 
z
" clip-path="url(#p82a8098e4b)" style="fill: #808080; stroke: #808080; stroke-linecap: round"/>
   </g>
   <g id="PathCollection_1">
    <path d="M 231.703379 147.616915 
C 234.66844 147.616915 237.512459 146.438884 239.609073 144.342269 
C 241.705688 142.245655 242.883719 139.401636 242.883719 136.436575 
C 242.883719 133.471514 241.705688 130.627495 239.609073 128.530881 
C 237.512459 126.434266 234.66844 125.256235 231.703379 125.256235 
C 228.738318 125.256235 225.8943 126.434266 223.797685 128.530881 
C 221.70107 130.627495 220.523039 133.471514 220.523039 136.436575 
C 220.523039 139.401636 221.70107 142.245655 223.797685 144.342269 
C 225.8943 146.438884 228.738318 147.616915 231.703379 147.616915 
z
" clip-path="url(#p82a8098e4b)" style="fill: #ffa500; fill-opacity: 0.7; stroke: #ffa500; stroke-opacity: 0.7"/>
    <path d="M 87.881762 94.143679 
C 90.846823 94.143679 93.690841 92.965648 95.787456 90.869033 
C 97.884071 88.772419 99.062102 85.9284 99.062102 82.963339 
C 99.062102 79.998278 97.884071 77.15426 95.787456 75.057645 
C 93.690841 72.96103 90.846823 71.782999 87.881762 71.782999 
C 84.916701 71.782999 82.072682 72.96103 79.976068 75.057645 
C 77.879453 77.15426 76.701422 79.998278 76.701422 82.963339 
C 76.701422 85.9284 77.879453 88.772419 79.976068 90.869033 
C 82.072682 92.965648 84.916701 94.143679 87.881762 94.143679 
z
" clip-path="url(#p82a8098e4b)" style="fill: #ffa500; fill-opacity: 0.7; stroke: #ffa500; stroke-opacity: 0.7"/>
    <path d="M 80.118382 192.242359 
C 83.083443 192.242359 85.927461 191.064328 88.024076 188.967714 
C 90.120691 186.871099 91.298722 184.02708 91.298722 181.062019 
C 91.298722 178.096959 90.120691 175.25294 88.024076 173.156325 
C 85.927461 171.059711 83.083443 169.88168 80.118382 169.88168 
C 77.153321 169.88168 74.309302 171.059711 72.212688 173.156325 
C 70.116073 175.25294 68.938042 178.096959 68.938042 181.062019 
C 68.938042 184.02708 70.116073 186.871099 72.212688 188.967714 
C 74.309302 191.064328 77.153321 192.242359 80.118382 192.242359 
z
" clip-path="url(#p82a8098e4b)" style="fill: #ffa500; fill-opacity: 0.7; stroke: #ffa500; stroke-opacity: 0.7"/>
    <path d="M 132.772508 140.42841 
C 134.647777 140.42841 136.446493 139.683358 137.772508 138.357343 
C 139.098524 137.031327 139.843576 135.232612 139.843576 133.357343 
C 139.843576 131.482073 139.098524 129.683358 137.772508 128.357343 
C 136.446493 127.031327 134.647777 126.286275 132.772508 126.286275 
C 130.897239 126.286275 129.098524 127.031327 127.772508 128.357343 
C 126.446493 129.683358 125.70144 131.482073 125.70144 133.357343 
C 125.70144 135.232612 126.446493 137.031327 127.772508 138.357343 
C 129.098524 139.683358 130.897239 140.42841 132.772508 140.42841 
z
" clip-path="url(#p82a8098e4b)" style="fill: #808080; fill-opacity: 0.7; stroke: #808080; stroke-opacity: 0.7"/>
    <path d="M 312.947107 146.362398 
C 314.822377 146.362398 316.621092 145.617345 317.947107 144.29133 
C 319.273123 142.965314 320.018175 141.166599 320.018175 139.29133 
C 320.018175 137.416061 319.273123 135.617345 317.947107 134.29133 
C 316.621092 132.965314 314.822377 132.220262 312.947107 132.220262 
C 311.071838 132.220262 309.273123 132.965314 307.947107 134.29133 
C 306.621092 135.617345 305.87604 137.416061 305.87604 139.29133 
C 305.87604 141.166599 306.621092 142.965314 307.947107 144.29133 
C 309.273123 145.617345 311.071838 146.362398 312.947107 146.362398 
z
" clip-path="url(#p82a8098e4b)" style="fill: #808080; fill-opacity: 0.7; stroke: #808080; stroke-opacity: 0.7"/>
    <path d="M 50.019651 48.257953 
C 51.89492 48.257953 53.693635 47.512901 55.019651 46.186885 
C 56.345666 44.86087 57.090719 43.062154 57.090719 41.186885 
C 57.090719 39.311616 56.345666 37.512901 55.019651 36.186885 
C 53.693635 34.86087 51.89492 34.115818 50.019651 34.115818 
C 48.144382 34.115818 46.345666 34.86087 45.019651 36.186885 
C 43.693635 37.512901 42.948583 39.311616 42.948583 41.186885 
C 42.948583 43.062154 43.693635 44.86087 45.019651 46.186885 
C 46.345666 47.512901 48.144382 48.257953 50.019651 48.257953 
z
" clip-path="url(#p82a8098e4b)" style="fill: #808080; fill-opacity: 0.7; stroke: #808080; stroke-opacity: 0.7"/>
    <path d="M 36.252893 227.960432 
C 38.128162 227.960432 39.926877 227.21538 41.252893 225.889365 
C 42.578908 224.563349 43.32396 222.764634 43.32396 220.889365 
C 43.32396 219.014096 42.578908 217.21538 41.252893 215.889365 
C 39.926877 214.563349 38.128162 213.818297 36.252893 213.818297 
C 34.377623 213.818297 32.578908 214.563349 31.252893 215.889365 
C 29.926877 217.21538 29.181825 219.014096 29.181825 220.889365 
C 29.181825 222.764634 29.926877 224.563349 31.252893 225.889365 
C 32.578908 227.21538 34.377623 227.960432 36.252893 227.960432 
z
" clip-path="url(#p82a8098e4b)" style="fill: #808080; fill-opacity: 0.7; stroke: #808080; stroke-opacity: 0.7"/>
   </g>
   <g id="text_1">
    <g clip-path="url(#p82a8098e4b)">
     <!-- node_power -->
     <g transform="translate(207.356504 138.532825)scale(0.08 -0.08)">
      <defs>
       <path id="DejaVuSans-6e" d="M 3513 2113 
L 3513 0 
L 2938 0 
L 2938 2094 
Q 2938 2591 2744 2837 
Q 2550 3084 2163 3084 
Q 1697 3084 1428 2787 
Q 1159 2491 1159 1978 
L 1159 0 
L 581 0 
L 581 3500 
L 1159 3500 
L 1159 2956 
Q 1366 3272 1645 3428 
Q 1925 3584 2291 3584 
Q 2894 3584 3203 3211 
Q 3513 2838 3513 2113 
z
" transform="scale(0.015625)"/>
       <path id="DejaVuSans-6f" d="M 1959 3097 
Q 1497 3097 1228 2736 
Q 959 2375 959 1747 
Q 959 1119 1226 758 
Q 1494 397 1959 397 
Q 2419 397 2687 759 
Q 2956 1122 2956 1747 
Q 2956 2369 2687 2733 
Q 2419 3097 1959 3097 
z
M 1959 3584 
Q 2709 3584 3137 3096 
Q 3566 2609 3566 1747 
Q 3566 888 3137 398 
Q 2709 -91 1959 -91 
Q 1206 -91 779 398 
Q 353 888 353 1747 
Q 353 2609 779 3096 
Q 1206 3584 1959 3584 
z
" transform="scale(0.015625)"/>
       <path id="DejaVuSans-64" d="M 2906 2969 
L 2906 4863 
L 3481 4863 
L 3481 0 
L 2906 0 
L 2906 525 
Q 2725 213 2448 61 
Q 2172 -91 1784 -91 
Q 1150 -91 751 415 
Q 353 922 353 1747 
Q 353 2572 751 3078 
Q 1150 3584 1784 3584 
Q 2172 3584 2448 3432 
Q 2725 3281 2906 2969 
z
M 947 1747 
Q 947 1113 1208 752 
Q 1469 391 1925 391 
Q 2381 391 2643 752 
Q 2906 1113 2906 1747 
Q 2906 2381 2643 2742 
Q 2381 3103 1925 3103 
Q 1469 3103 1208 2742 
Q 947 2381 947 1747 
z
" transform="scale(0.015625)"/>
       <path id="DejaVuSans-65" d="M 3597 1894 
L 3597 1613 
L 953 1613 
Q 991 1019 1311 708 
Q 1631 397 2203 397 
Q 2534 397 2845 478 
Q 3156 559 3463 722 
L 3463 178 
Q 3153 47 2828 -22 
Q 2503 -91 2169 -91 
Q 1331 -91 842 396 
Q 353 884 353 1716 
Q 353 2575 817 3079 
Q 1281 3584 2069 3584 
Q 2775 3584 3186 3129 
Q 3597 2675 3597 1894 
z
M 3022 2063 
Q 3016 2534 2758 2815 
Q 2500 3097 2075 3097 
Q 1594 3097 1305 2825 
Q 1016 2553 972 2059 
L 3022 2063 
z
" transform="scale(0.015625)"/>
       <path id="DejaVuSans-5f" d="M 3263 -1063 
L 3263 -1509 
L -63 -1509 
L -63 -1063 
L 3263 -1063 
z
" transform="scale(0.015625)"/>
       <path id="DejaVuSans-70" d="M 1159 525 
L 1159 -1331 
L 581 -1331 
L 581 3500 
L 1159 3500 
L 1159 2969 
Q 1341 3281 1617 3432 
Q 1894 3584 2278 3584 
Q 2916 3584 3314 3078 
Q 3713 2572 3713 1747 
Q 3713 922 3314 415 
Q 2916 -91 2278 -91 
Q 1894 -91 1617 61 
Q 1341 213 1159 525 
z
M 3116 1747 
Q 3116 2381 2855 2742 
Q 2594 3103 2138 3103 
Q 1681 3103 1420 2742 
Q 1159 2381 1159 1747 
Q 1159 1113 1420 752 
Q 1681 391 2138 391 
Q 2594 391 2855 752 
Q 3116 1113 3116 1747 
z
" transform="scale(0.015625)"/>
       <path id="DejaVuSans-77" d="M 269 3500 
L 844 3500 
L 1563 769 
L 2278 3500 
L 2956 3500 
L 3675 769 
L 4391 3500 
L 4966 3500 
L 4050 0 
L 3372 0 
L 2619 2869 
L 1863 0 
L 1184 0 
L 269 3500 
z
" transform="scale(0.015625)"/>
       <path id="DejaVuSans-72" d="M 2631 2963 
Q 2534 3019 2420 3045 
Q 2306 3072 2169 3072 
Q 1681 3072 1420 2755 
Q 1159 2438 1159 1844 
L 1159 0 
L 581 0 
L 581 3500 
L 1159 3500 
L 1159 2956 
Q 1341 3275 1631 3429 
Q 1922 3584 2338 3584 
Q 2397 3584 2469 3576 
Q 2541 3569 2628 3553 
L 2631 2963 
z
" transform="scale(0.015625)"/>
      </defs>
      <use xlink:href="#DejaVuSans-6e"/>
      <use xlink:href="#DejaVuSans-6f" x="63.378906"/>
      <use xlink:href="#DejaVuSans-64" x="124.560547"/>
      <use xlink:href="#DejaVuSans-65" x="188.037109"/>
      <use xlink:href="#DejaVuSans-5f" x="249.560547"/>
      <use xlink:href="#DejaVuSans-70" x="299.560547"/>
      <use xlink:href="#DejaVuSans-6f" x="363.037109"/>
      <use xlink:href="#DejaVuSans-77" x="424.21875"/>
      <use xlink:href="#DejaVuSans-65" x="506.005859"/>
      <use xlink:href="#DejaVuSans-72" x="567.529297"/>
     </g>
    </g>
   </g>
   <g id="text_2">
    <g clip-path="url(#p82a8098e4b)">
     <!-- node_heat -->
     <g transform="translate(66.883012 85.059589)scale(0.08 -0.08)">
      <defs>
       <path id="DejaVuSans-68" d="M 3513 2113 
L 3513 0 
L 2938 0 
L 2938 2094 
Q 2938 2591 2744 2837 
Q 2550 3084 2163 3084 
Q 1697 3084 1428 2787 
Q 1159 2491 1159 1978 
L 1159 0 
L 581 0 
L 581 4863 
L 1159 4863 
L 1159 2956 
Q 1366 3272 1645 3428 
Q 1925 3584 2291 3584 
Q 2894 3584 3203 3211 
Q 3513 2838 3513 2113 
z
" transform="scale(0.015625)"/>
       <path id="DejaVuSans-61" d="M 2194 1759 
Q 1497 1759 1228 1600 
Q 959 1441 959 1056 
Q 959 750 1161 570 
Q 1363 391 1709 391 
Q 2188 391 2477 730 
Q 2766 1069 2766 1631 
L 2766 1759 
L 2194 1759 
z
M 3341 1997 
L 3341 0 
L 2766 0 
L 2766 531 
Q 2569 213 2275 61 
Q 1981 -91 1556 -91 
Q 1019 -91 701 211 
Q 384 513 384 1019 
Q 384 1609 779 1909 
Q 1175 2209 1959 2209 
L 2766 2209 
L 2766 2266 
Q 2766 2663 2505 2880 
Q 2244 3097 1772 3097 
Q 1472 3097 1187 3025 
Q 903 2953 641 2809 
L 641 3341 
Q 956 3463 1253 3523 
Q 1550 3584 1831 3584 
Q 2591 3584 2966 3190 
Q 3341 2797 3341 1997 
z
" transform="scale(0.015625)"/>
       <path id="DejaVuSans-74" d="M 1172 4494 
L 1172 3500 
L 2356 3500 
L 2356 3053 
L 1172 3053 
L 1172 1153 
Q 1172 725 1289 603 
Q 1406 481 1766 481 
L 2356 481 
L 2356 0 
L 1766 0 
Q 1100 0 847 248 
Q 594 497 594 1153 
L 594 3053 
L 172 3053 
L 172 3500 
L 594 3500 
L 594 4494 
L 1172 4494 
z
" transform="scale(0.015625)"/>
      </defs>
      <use xlink:href="#DejaVuSans-6e"/>
      <use xlink:href="#DejaVuSans-6f" x="63.378906"/>
      <use xlink:href="#DejaVuSans-64" x="124.560547"/>
      <use xlink:href="#DejaVuSans-65" x="188.037109"/>
      <use xlink:href="#DejaVuSans-5f" x="249.560547"/>
      <use xlink:href="#DejaVuSans-68" x="299.560547"/>
      <use xlink:href="#DejaVuSans-65" x="362.939453"/>
      <use xlink:href="#DejaVuSans-61" x="424.462891"/>
      <use xlink:href="#DejaVuSans-74" x="485.742188"/>
     </g>
    </g>
   </g>
   <g id="text_3">
    <g clip-path="url(#p82a8098e4b)">
     <!-- node_gas -->
     <g transform="translate(61.060882 183.158269)scale(0.08 -0.08)">
      <defs>
       <path id="DejaVuSans-67" d="M 2906 1791 
Q 2906 2416 2648 2759 
Q 2391 3103 1925 3103 
Q 1463 3103 1205 2759 
Q 947 2416 947 1791 
Q 947 1169 1205 825 
Q 1463 481 1925 481 
Q 2391 481 2648 825 
Q 2906 1169 2906 1791 
z
M 3481 434 
Q 3481 -459 3084 -895 
Q 2688 -1331 1869 -1331 
Q 1566 -1331 1297 -1286 
Q 1028 -1241 775 -1147 
L 775 -588 
Q 1028 -725 1275 -790 
Q 1522 -856 1778 -856 
Q 2344 -856 2625 -561 
Q 2906 -266 2906 331 
L 2906 616 
Q 2728 306 2450 153 
Q 2172 0 1784 0 
Q 1141 0 747 490 
Q 353 981 353 1791 
Q 353 2603 747 3093 
Q 1141 3584 1784 3584 
Q 2172 3584 2450 3431 
Q 2728 3278 2906 2969 
L 2906 3500 
L 3481 3500 
L 3481 434 
z
" transform="scale(0.015625)"/>
       <path id="DejaVuSans-73" d="M 2834 3397 
L 2834 2853 
Q 2591 2978 2328 3040 
Q 2066 3103 1784 3103 
Q 1356 3103 1142 2972 
Q 928 2841 928 2578 
Q 928 2378 1081 2264 
Q 1234 2150 1697 2047 
L 1894 2003 
Q 2506 1872 2764 1633 
Q 3022 1394 3022 966 
Q 3022 478 2636 193 
Q 2250 -91 1575 -91 
Q 1294 -91 989 -36 
Q 684 19 347 128 
L 347 722 
Q 666 556 975 473 
Q 1284 391 1588 391 
Q 1994 391 2212 530 
Q 2431 669 2431 922 
Q 2431 1156 2273 1281 
Q 2116 1406 1581 1522 
L 1381 1569 
Q 847 1681 609 1914 
Q 372 2147 372 2553 
Q 372 3047 722 3315 
Q 1072 3584 1716 3584 
Q 2034 3584 2315 3537 
Q 2597 3491 2834 3397 
z
" transform="scale(0.015625)"/>
      </defs>
      <use xlink:href="#DejaVuSans-6e"/>
      <use xlink:href="#DejaVuSans-6f" x="63.378906"/>
      <use xlink:href="#DejaVuSans-64" x="124.560547"/>
      <use xlink:href="#DejaVuSans-65" x="188.037109"/>
      <use xlink:href="#DejaVuSans-5f" x="249.560547"/>
      <use xlink:href="#DejaVuSans-67" x="299.560547"/>
      <use xlink:href="#DejaVuSans-61" x="363.037109"/>
      <use xlink:href="#DejaVuSans-73" x="424.316406"/>
     </g>
    </g>
   </g>
   <g id="text_4">
    <g clip-path="url(#p82a8098e4b)">
     <!-- CHP -->
     <g transform="translate(124.559383 135.564843)scale(0.08 -0.08)">
      <defs>
       <path id="DejaVuSans-43" d="M 4122 4306 
L 4122 3641 
Q 3803 3938 3442 4084 
Q 3081 4231 2675 4231 
Q 1875 4231 1450 3742 
Q 1025 3253 1025 2328 
Q 1025 1406 1450 917 
Q 1875 428 2675 428 
Q 3081 428 3442 575 
Q 3803 722 4122 1019 
L 4122 359 
Q 3791 134 3420 21 
Q 3050 -91 2638 -91 
Q 1578 -91 968 557 
Q 359 1206 359 2328 
Q 359 3453 968 4101 
Q 1578 4750 2638 4750 
Q 3056 4750 3426 4639 
Q 3797 4528 4122 4306 
z
" transform="scale(0.015625)"/>
       <path id="DejaVuSans-48" d="M 628 4666 
L 1259 4666 
L 1259 2753 
L 3553 2753 
L 3553 4666 
L 4184 4666 
L 4184 0 
L 3553 0 
L 3553 2222 
L 1259 2222 
L 1259 0 
L 628 0 
L 628 4666 
z
" transform="scale(0.015625)"/>
       <path id="DejaVuSans-50" d="M 1259 4147 
L 1259 2394 
L 2053 2394 
Q 2494 2394 2734 2622 
Q 2975 2850 2975 3272 
Q 2975 3691 2734 3919 
Q 2494 4147 2053 4147 
L 1259 4147 
z
M 628 4666 
L 2053 4666 
Q 2838 4666 3239 4311 
Q 3641 3956 3641 3272 
Q 3641 2581 3239 2228 
Q 2838 1875 2053 1875 
L 1259 1875 
L 1259 0 
L 628 0 
L 628 4666 
z
" transform="scale(0.015625)"/>
      </defs>
      <use xlink:href="#DejaVuSans-43"/>
      <use xlink:href="#DejaVuSans-48" x="69.824219"/>
      <use xlink:href="#DejaVuSans-50" x="145.019531"/>
     </g>
    </g>
   </g>
   <g id="text_5">
    <g clip-path="url(#p82a8098e4b)">
     <!-- SC_power -->
     <g transform="translate(293.250857 141.316955)scale(0.08 -0.08)">
      <defs>
       <path id="DejaVuSans-53" d="M 3425 4513 
L 3425 3897 
Q 3066 4069 2747 4153 
Q 2428 4238 2131 4238 
Q 1616 4238 1336 4038 
Q 1056 3838 1056 3469 
Q 1056 3159 1242 3001 
Q 1428 2844 1947 2747 
L 2328 2669 
Q 3034 2534 3370 2195 
Q 3706 1856 3706 1288 
Q 3706 609 3251 259 
Q 2797 -91 1919 -91 
Q 1588 -91 1214 -16 
Q 841 59 441 206 
L 441 856 
Q 825 641 1194 531 
Q 1563 422 1919 422 
Q 2459 422 2753 634 
Q 3047 847 3047 1241 
Q 3047 1584 2836 1778 
Q 2625 1972 2144 2069 
L 1759 2144 
Q 1053 2284 737 2584 
Q 422 2884 422 3419 
Q 422 4038 858 4394 
Q 1294 4750 2059 4750 
Q 2388 4750 2728 4690 
Q 3069 4631 3425 4513 
z
" transform="scale(0.015625)"/>
      </defs>
      <use xlink:href="#DejaVuSans-53"/>
      <use xlink:href="#DejaVuSans-43" x="63.476562"/>
      <use xlink:href="#DejaVuSans-5f" x="133.300781"/>
      <use xlink:href="#DejaVuSans-70" x="183.300781"/>
      <use xlink:href="#DejaVuSans-6f" x="246.777344"/>
      <use xlink:href="#DejaVuSans-77" x="307.958984"/>
      <use xlink:href="#DejaVuSans-65" x="389.746094"/>
      <use xlink:href="#DejaVuSans-72" x="451.269531"/>
     </g>
    </g>
   </g>
   <g id="text_6">
    <g clip-path="url(#p82a8098e4b)">
     <!-- SC_heat -->
     <g transform="translate(33.671526 43.283135)scale(0.08 -0.08)">
      <use xlink:href="#DejaVuSans-53"/>
      <use xlink:href="#DejaVuSans-43" x="63.476562"/>
      <use xlink:href="#DejaVuSans-5f" x="133.300781"/>
      <use xlink:href="#DejaVuSans-68" x="183.300781"/>
      <use xlink:href="#DejaVuSans-65" x="246.679688"/>
      <use xlink:href="#DejaVuSans-61" x="308.203125"/>
      <use xlink:href="#DejaVuSans-74" x="369.482422"/>
     </g>
    </g>
   </g>
   <g id="text_7">
    <g clip-path="url(#p82a8098e4b)">
     <!-- SC_gas -->
     <g transform="translate(21.846018 222.91499)scale(0.08 -0.08)">
      <use xlink:href="#DejaVuSans-53"/>
      <use xlink:href="#DejaVuSans-43" x="63.476562"/>
      <use xlink:href="#DejaVuSans-5f" x="133.300781"/>
      <use xlink:href="#DejaVuSans-67" x="183.300781"/>
      <use xlink:href="#DejaVuSans-61" x="246.777344"/>
      <use xlink:href="#DejaVuSans-73" x="308.056641"/>
     </g>
    </g>
   </g>
   <g id="text_8">
    <!-- Network graph for portfolio -->
    <g transform="translate(92.925938 16.318125)scale(0.12 -0.12)">
     <defs>
      <path id="DejaVuSans-4e" d="M 628 4666 
L 1478 4666 
L 3547 763 
L 3547 4666 
L 4159 4666 
L 4159 0 
L 3309 0 
L 1241 3903 
L 1241 0 
L 628 0 
L 628 4666 
z
" transform="scale(0.015625)"/>
      <path id="DejaVuSans-6b" d="M 581 4863 
L 1159 4863 
L 1159 1991 
L 2875 3500 
L 3609 3500 
L 1753 1863 
L 3688 0 
L 2938 0 
L 1159 1709 
L 1159 0 
L 581 0 
L 581 4863 
z
" transform="scale(0.015625)"/>
      <path id="DejaVuSans-20" transform="scale(0.015625)"/>
      <path id="DejaVuSans-66" d="M 2375 4863 
L 2375 4384 
L 1825 4384 
Q 1516 4384 1395 4259 
Q 1275 4134 1275 3809 
L 1275 3500 
L 2222 3500 
L 2222 3053 
L 1275 3053 
L 1275 0 
L 697 0 
L 697 3053 
L 147 3053 
L 147 3500 
L 697 3500 
L 697 3744 
Q 697 4328 969 4595 
Q 1241 4863 1831 4863 
L 2375 4863 
z
" transform="scale(0.015625)"/>
      <path id="DejaVuSans-6c" d="M 603 4863 
L 1178 4863 
L 1178 0 
L 603 0 
L 603 4863 
z
" transform="scale(0.015625)"/>
      <path id="DejaVuSans-69" d="M 603 3500 
L 1178 3500 
L 1178 0 
L 603 0 
L 603 3500 
z
M 603 4863 
L 1178 4863 
L 1178 4134 
L 603 4134 
L 603 4863 
z
" transform="scale(0.015625)"/>
     </defs>
     <use xlink:href="#DejaVuSans-4e"/>
     <use xlink:href="#DejaVuSans-65" x="74.804688"/>
     <use xlink:href="#DejaVuSans-74" x="136.328125"/>
     <use xlink:href="#DejaVuSans-77" x="175.537109"/>
     <use xlink:href="#DejaVuSans-6f" x="257.324219"/>
     <use xlink:href="#DejaVuSans-72" x="318.505859"/>
     <use xlink:href="#DejaVuSans-6b" x="359.619141"/>
     <use xlink:href="#DejaVuSans-20" x="417.529297"/>
     <use xlink:href="#DejaVuSans-67" x="449.316406"/>
     <use xlink:href="#DejaVuSans-72" x="512.792969"/>
     <use xlink:href="#DejaVuSans-61" x="553.90625"/>
     <use xlink:href="#DejaVuSans-70" x="615.185547"/>
     <use xlink:href="#DejaVuSans-68" x="678.662109"/>
     <use xlink:href="#DejaVuSans-20" x="742.041016"/>
     <use xlink:href="#DejaVuSans-66" x="773.828125"/>
     <use xlink:href="#DejaVuSans-6f" x="809.033203"/>
     <use xlink:href="#DejaVuSans-72" x="870.214844"/>
     <use xlink:href="#DejaVuSans-20" x="911.328125"/>
     <use xlink:href="#DejaVuSans-70" x="943.115234"/>
     <use xlink:href="#DejaVuSans-6f" x="1006.591797"/>
     <use xlink:href="#DejaVuSans-72" x="1067.773438"/>
     <use xlink:href="#DejaVuSans-74" x="1108.886719"/>
     <use xlink:href="#DejaVuSans-66" x="1148.095703"/>
     <use xlink:href="#DejaVuSans-6f" x="1183.300781"/>
     <use xlink:href="#DejaVuSans-6c" x="1244.482422"/>
     <use xlink:href="#DejaVuSans-69" x="1272.265625"/>
     <use xlink:href="#DejaVuSans-6f" x="1300.048828"/>
    </g>
   </g>
  </g>
 </g>
 <defs>
  <clipPath id="p82a8098e4b">
   <rect x="7.2" y="22.318125" width="334.8" height="217.44"/>
  </clipPath>
 </defs>
</svg>
