<?xml version="1.0" encoding="utf-8" standalone="no"?>
<!DOCTYPE svg PUBLIC "-//W3C//DTD SVG 1.1//EN"
  "http://www.w3.org/Graphics/SVG/1.1/DTD/svg11.dtd">
<!-- Created with matplotlib (https://matplotlib.org/) -->
<svg height="231.84pt" version="1.1" viewBox="0 0 349.2 231.84" width="349.2pt" xmlns="http://www.w3.org/2000/svg" xmlns:xlink="http://www.w3.org/1999/xlink">
 <metadata>
  <rdf:RDF xmlns:cc="http://creativecommons.org/ns#" xmlns:dc="http://purl.org/dc/elements/1.1/" xmlns:rdf="http://www.w3.org/1999/02/22-rdf-syntax-ns#">
   <cc:Work>
    <dc:type rdf:resource="http://purl.org/dc/dcmitype/StillImage"/>
    <dc:date>2021-05-17T11:50:55.109281</dc:date>
    <dc:format>image/svg+xml</dc:format>
    <dc:creator>
     <cc:Agent>
      <dc:title>Matplotlib v3.3.4, https://matplotlib.org/</dc:title>
     </cc:Agent>
    </dc:creator>
   </cc:Work>
  </rdf:RDF>
 </metadata>
 <defs>
  <style type="text/css">*{stroke-linecap:butt;stroke-linejoin:round;}</style>
 </defs>
 <g id="figure_1">
  <g id="patch_1">
   <path d="M 0 231.84 
L 349.2 231.84 
L 349.2 0 
L 0 0 
z
" style="fill:none;"/>
  </g>
  <g id="axes_1">
   <g id="line2d_1">
    <path clip-path="url(#p8faadb451a)" d="M 7.2 94.724209 
L 8.757209 93.249089 
L 10.314419 93.194216 
L 11.871628 73.986529 
L 13.428837 73.556414 
L 14.986047 101.785138 
L 16.543256 88.672253 
L 18.100465 70.997634 
L 19.657674 88.67834 
L 21.214884 76.433472 
L 22.772093 99.203943 
L 24.329302 76.38092 
L 25.886512 92.439727 
L 27.443721 99.620829 
L 29.00093 102.411981 
L 30.55814 74.049037 
L 32.115349 102.399755 
L 33.672558 83.738865 
L 35.229767 101.884658 
L 36.786977 105.026465 
L 38.344186 75.90281 
L 39.901395 76.301844 
L 41.458605 102.198478 
L 43.015814 86.947095 
L 44.573023 78.481528 
L 46.130233 79.272634 
L 47.687442 101.908212 
L 49.244651 89.51732 
L 50.80186 105.890322 
L 53.916279 91.523655 
L 55.473488 99.258415 
L 57.030698 83.853249 
L 58.587907 93.325241 
L 60.145116 74.956099 
L 63.259535 92.710816 
L 64.816744 82.499528 
L 66.373953 92.261074 
L 67.931163 108.930199 
L 69.488372 80.244852 
L 71.045581 78.820934 
L 72.602791 92.332473 
L 74.16 82.168801 
L 75.717209 98.033227 
L 77.274419 74.068406 
L 78.831628 83.194953 
L 80.388837 85.569843 
L 81.946047 70.165516 
L 83.503256 96.544254 
L 85.060465 78.127986 
L 86.617674 94.960931 
L 88.174884 108.378576 
L 89.732093 96.960345 
L 91.289302 97.133735 
L 92.846512 76.029464 
L 94.403721 93.064846 
L 95.96093 104.526807 
L 97.51814 90.126051 
L 99.075349 69.789289 
L 100.632558 95.399491 
L 102.189767 106.860112 
L 103.746977 84.012989 
L 105.304186 89.864643 
L 106.861395 106.798761 
L 108.418605 91.907281 
L 109.975814 72.11817 
L 111.533023 79.507852 
L 113.090233 82.818685 
L 114.647442 69.089168 
L 116.204651 80.578922 
L 117.76186 101.794278 
L 119.31907 89.843028 
L 120.876279 105.541776 
L 122.433488 75.655137 
L 123.990698 75.060254 
L 125.547907 92.580115 
L 127.105116 99.042212 
L 128.662326 80.80704 
L 130.219535 106.343047 
L 131.776744 72.707386 
L 133.333953 99.191662 
L 134.891163 101.456055 
L 136.448372 83.516894 
L 138.005581 73.34757 
L 139.562791 78.676644 
L 141.12 78.197077 
L 142.677209 96.816058 
L 144.234419 87.362726 
L 145.791628 82.659376 
L 147.348837 108.436536 
L 148.906047 87.614049 
L 150.463256 99.748176 
L 152.020465 88.830936 
L 153.577674 92.055071 
L 155.134884 86.705792 
L 156.692093 96.739853 
L 158.249302 82.119811 
L 159.806512 91.369258 
L 161.363721 72.370873 
L 162.92093 80.941855 
L 164.47814 96.135191 
L 166.035349 102.174242 
L 167.592558 93.387966 
L 169.149767 78.724038 
L 170.706977 90.785073 
L 172.264186 88.652833 
L 173.821395 81.477416 
L 175.378605 95.218976 
L 176.935814 101.9405 
L 178.493023 100.983267 
L 180.050233 104.758784 
L 181.607442 83.030099 
L 183.164651 67.550355 
L 184.72186 100.400097 
L 186.27907 108.574485 
L 187.836279 104.517054 
L 189.393488 92.09184 
L 190.950698 100.974697 
L 192.507907 72.436429 
L 194.065116 95.741859 
L 195.622326 103.814705 
L 197.179535 84.125191 
L 198.736744 107.211684 
L 200.293953 69.060841 
L 201.851163 87.045153 
L 203.408372 78.141287 
L 204.965581 76.130673 
L 206.522791 68.707107 
L 208.08 104.52034 
L 209.637209 79.82532 
L 211.194419 75.571916 
L 212.751628 77.975881 
L 214.308837 100.3207 
L 215.866047 71.321356 
L 217.423256 83.169503 
L 218.980465 83.501515 
L 220.537674 78.182409 
L 222.094884 86.557166 
L 223.652093 93.273058 
L 225.209302 106.149455 
L 226.766512 98.374315 
L 228.323721 99.117338 
L 229.88093 70.725965 
L 231.43814 102.586067 
L 232.995349 99.008586 
L 234.552558 107.483591 
L 236.109767 99.256911 
L 237.666977 107.84556 
L 239.224186 79.600011 
L 240.781395 81.280376 
L 243.895814 108.179585 
L 245.453023 72.125861 
L 247.010233 86.499816 
L 248.567442 69.305599 
L 250.124651 86.10504 
L 251.68186 73.070277 
L 253.23907 87.348524 
L 254.796279 87.465338 
L 256.353488 75.082262 
L 257.910698 82.681661 
L 259.467907 77.129838 
L 261.025116 82.218933 
L 262.582326 108.148439 
L 265.696744 86.265964 
L 267.253953 69.335382 
L 268.811163 78.761343 
L 270.368372 97.365431 
L 271.925581 85.347415 
L 273.482791 79.917729 
L 275.04 88.646385 
L 276.597209 75.307673 
L 278.154419 103.98471 
L 279.711628 76.738591 
L 281.268837 91.383743 
L 282.826047 100.38942 
L 284.383256 102.378396 
L 285.940465 91.284969 
L 287.497674 103.158236 
L 289.054884 107.704655 
L 290.612093 80.142127 
L 292.169302 92.264722 
L 293.726512 77.780788 
L 295.283721 85.744721 
L 296.84093 101.451321 
L 298.39814 88.864591 
L 299.955349 77.275809 
L 301.512558 102.129608 
L 303.069767 101.956242 
L 304.626977 85.62392 
L 306.184186 70.573702 
L 307.741395 80.36096 
L 309.298605 75.112568 
L 310.855814 96.791703 
L 312.413023 95.325 
L 313.970233 91.912771 
L 315.527442 87.535178 
L 317.084651 88.13113 
L 318.64186 92.50403 
L 320.19907 90.485544 
L 321.756279 76.519221 
L 323.313488 102.668477 
L 324.870698 88.962416 
L 326.427907 96.095852 
L 327.985116 73.784349 
L 329.542326 78.681067 
L 331.099535 92.03147 
L 332.656744 70.350148 
L 334.213953 92.782446 
L 335.771163 92.211529 
L 337.328372 104.348418 
L 338.885581 100.603601 
L 340.442791 67.551842 
L 342 102.058755 
L 342 102.058755 
" style="fill:none;stroke:#1f77b4;stroke-linecap:square;stroke-width:1.5;"/>
   </g>
   <g id="line2d_2">
    <path clip-path="url(#p8faadb451a)" d="M 7.2 109.133977 
L 16.543256 109.133977 
L 19.657674 88.306462 
L 21.214884 79.679423 
L 22.772093 73.059663 
L 24.329302 68.898308 
L 25.886512 67.478947 
L 27.443721 68.898308 
L 29.00093 73.059663 
L 30.55814 79.679423 
L 32.115349 88.306462 
L 33.672558 98.352862 
L 35.229767 109.133977 
L 53.916279 109.133977 
L 57.030698 88.306462 
L 58.587907 79.679423 
L 60.145116 73.059663 
L 61.702326 68.898308 
L 63.259535 67.478947 
L 64.816744 68.898308 
L 66.373953 73.059663 
L 67.931163 79.679423 
L 69.488372 88.306462 
L 71.045581 98.352862 
L 72.602791 109.133977 
L 91.289302 109.133977 
L 94.403721 88.306462 
L 95.96093 79.679423 
L 97.51814 73.059663 
L 99.075349 68.898308 
L 100.632558 67.478947 
L 102.189767 68.898308 
L 103.746977 73.059663 
L 105.304186 79.679423 
L 106.861395 88.306462 
L 108.418605 98.352862 
L 109.975814 109.133977 
L 128.662326 109.133977 
L 131.776744 88.306462 
L 133.333953 79.679423 
L 134.891163 73.059663 
L 136.448372 68.898308 
L 138.005581 67.478947 
L 139.562791 68.898308 
L 141.12 73.059663 
L 142.677209 79.679423 
L 144.234419 88.306462 
L 145.791628 98.352862 
L 147.348837 109.133977 
L 166.035349 109.133977 
L 169.149767 88.306462 
L 170.706977 79.679423 
L 172.264186 73.059663 
L 173.821395 68.898308 
L 175.378605 67.478947 
L 176.935814 68.898308 
L 178.493023 73.059663 
L 180.050233 79.679423 
L 181.607442 88.306462 
L 183.164651 98.352862 
L 184.72186 109.133977 
L 203.408372 109.133977 
L 206.522791 88.306462 
L 208.08 79.679423 
L 209.637209 73.059663 
L 211.194419 68.898308 
L 212.751628 67.478947 
L 214.308837 68.898308 
L 215.866047 73.059663 
L 217.423256 79.679423 
L 218.980465 88.306462 
L 220.537674 98.352862 
L 222.094884 109.133977 
L 240.781395 109.133977 
L 243.895814 88.306462 
L 245.453023 79.679423 
L 247.010233 73.059663 
L 248.567442 68.898308 
L 250.124651 67.478947 
L 251.68186 68.898308 
L 253.23907 73.059663 
L 254.796279 79.679423 
L 256.353488 88.306462 
L 257.910698 98.352862 
L 259.467907 109.133977 
L 278.154419 109.133977 
L 281.268837 88.306462 
L 282.826047 79.679423 
L 284.383256 73.059663 
L 285.940465 68.898308 
L 287.497674 67.478947 
L 289.054884 68.898308 
L 290.612093 73.059663 
L 292.169302 79.679423 
L 293.726512 88.306462 
L 295.283721 98.352862 
L 296.84093 109.133977 
L 315.527442 109.133977 
L 318.64186 88.306462 
L 320.19907 79.679423 
L 321.756279 73.059663 
L 323.313488 68.898308 
L 324.870698 67.478947 
L 326.427907 68.898308 
L 327.985116 73.059663 
L 329.542326 79.679423 
L 331.099535 88.306462 
L 332.656744 98.352862 
L 334.213953 109.133977 
L 342 109.133977 
L 342 109.133977 
" style="fill:none;stroke:#ff7f0e;stroke-linecap:square;stroke-width:1.5;"/>
   </g>
   <g id="line2d_3">
    <path clip-path="url(#p8faadb451a)" d="M 7.2 109.133977 
L 16.543256 109.133977 
L 18.100465 52.42905 
L 19.657674 60.311397 
L 21.214884 104.249861 
L 22.772093 106.713437 
L 24.329302 102.808732 
L 25.886512 109.133977 
L 39.901395 109.133977 
L 41.458605 104.302701 
L 43.015814 107.964019 
L 44.573023 96.699837 
L 46.130233 76.811339 
L 47.687442 45.680481 
L 49.244651 85.948605 
L 50.80186 109.133977 
L 81.946047 109.133977 
L 83.503256 59.539719 
L 85.060465 69.460707 
L 86.617674 78.302864 
L 88.174884 86.158549 
L 89.732093 84.163092 
L 91.289302 109.133977 
L 105.304186 109.133977 
L 106.861395 86.151158 
L 108.418605 102.115665 
L 109.975814 109.133977 
L 123.990698 109.133977 
L 125.547907 101.95701 
L 127.105116 81.718012 
L 128.662326 59.571263 
L 130.219535 17.083636 
L 131.776744 92.411247 
L 133.333953 109.133977 
L 145.791628 109.133977 
L 147.348837 100.032976 
L 148.906047 82.709539 
L 150.463256 71.408196 
L 152.020465 109.133977 
L 164.47814 109.133977 
L 166.035349 81.702045 
L 167.592558 30.038718 
L 170.706977 109.133977 
L 186.27907 109.133977 
L 187.836279 66.639318 
L 189.393488 109.133977 
L 190.950698 105.526482 
L 192.507907 109.133977 
L 194.065116 109.133977 
L 195.622326 52.269268 
L 197.179535 109.133977 
L 204.965581 109.133977 
L 206.522791 94.191482 
L 208.08 102.657262 
L 209.637209 109.133977 
L 229.88093 109.133977 
L 231.43814 103.247747 
L 232.995349 57.075387 
L 234.552558 40.105102 
L 236.109767 74.006884 
L 237.666977 90.94627 
L 239.224186 109.133977 
L 270.368372 109.133977 
L 271.925581 62.241278 
L 273.482791 93.346066 
L 275.04 105.89074 
L 276.597209 105.452552 
L 278.154419 36.393592 
L 279.711628 91.369485 
L 281.268837 109.133977 
L 293.726512 109.133977 
L 295.283721 108.278224 
L 296.84093 107.018192 
L 298.39814 81.458997 
L 299.955349 93.880562 
L 301.512558 109.133977 
L 313.970233 109.133977 
L 315.527442 52.843124 
L 317.084651 35.295554 
L 318.64186 56.485706 
L 320.19907 109.133977 
L 334.213953 109.133977 
L 335.771163 103.864293 
L 337.328372 66.807953 
L 338.885581 103.248967 
L 340.442791 109.133977 
L 342 109.133977 
L 342 109.133977 
" style="fill:none;stroke:#2ca02c;stroke-linecap:square;stroke-width:1.5;"/>
   </g>
   <g id="line2d_4">
    <path clip-path="url(#p8faadb451a)" d="M 7.2 109.133977 
L 75.717209 109.133977 
L 77.274419 116.207219 
L 78.831628 109.133977 
L 95.96093 109.133977 
L 97.51814 161.795678 
L 99.075349 109.133977 
L 114.647442 109.133977 
L 116.204651 125.922256 
L 117.76186 115.303719 
L 119.31907 115.990786 
L 120.876279 109.133977 
L 134.891163 109.133977 
L 136.448372 168.661484 
L 138.005581 164.795038 
L 141.12 109.133977 
L 178.493023 109.133977 
L 180.050233 128.283661 
L 181.607442 109.91982 
L 183.164651 109.133977 
L 220.537674 109.133977 
L 222.094884 114.022767 
L 223.652093 109.133977 
L 243.895814 109.133977 
L 245.453023 135.05174 
L 247.010233 109.133977 
L 264.139535 109.133977 
L 265.696744 120.235215 
L 267.253953 140.12207 
L 268.811163 109.133977 
L 284.383256 109.133977 
L 285.940465 160.893409 
L 287.497674 109.133977 
L 304.626977 109.133977 
L 306.184186 135.260112 
L 307.741395 109.133977 
L 323.313488 109.133977 
L 324.870698 134.743215 
L 326.427907 118.922657 
L 327.985116 152.153169 
L 329.542326 154.361378 
L 331.099535 109.133977 
L 342 109.133977 
L 342 109.133977 
" style="fill:none;stroke:#d62728;stroke-linecap:square;stroke-width:1.5;"/>
   </g>
   <g id="line2d_5">
    <path clip-path="url(#p8faadb451a)" d="M 7.2 111.109605 
L 8.757209 62.834884 
L 10.314419 54.394478 
L 11.871628 99.277266 
L 13.428837 120.980711 
L 14.986047 78.975086 
L 16.543256 51.706049 
L 18.100465 109.133977 
L 19.657674 109.133977 
L 21.214884 135.628246 
L 22.772093 155.138327 
L 24.329302 182.122704 
L 25.886512 145.702881 
L 27.443721 115.397681 
L 29.00093 123.525537 
L 30.55814 158.993408 
L 32.115349 90.550163 
L 33.672558 110.28408 
L 35.229767 106.584855 
L 36.786977 65.297122 
L 38.344186 95.253561 
L 39.901395 127.550724 
L 41.458605 109.133977 
L 43.015814 131.32086 
L 44.573023 139.786426 
L 46.130233 109.133977 
L 47.687442 109.133977 
L 49.244651 106.931847 
L 50.80186 88.646803 
L 52.35907 82.233834 
L 53.916279 48.854648 
L 55.473488 24.168269 
L 57.030698 65.136488 
L 58.587907 113.85236 
L 60.145116 176.965629 
L 61.702326 168.633495 
L 63.259535 145.431793 
L 64.816744 132.518981 
L 66.373953 133.676444 
L 67.931163 124.112246 
L 69.488372 112.705066 
L 71.045581 115.202012 
L 72.602791 116.13704 
L 74.16 88.154787 
L 75.717209 73.123145 
L 77.274419 122.710921 
L 78.831628 123.306226 
L 80.388837 131.528154 
L 81.946047 135.668298 
L 83.503256 109.133977 
L 88.174884 109.133977 
L 89.732093 108.770765 
L 91.289302 43.244568 
L 92.846512 47.39722 
L 94.403721 55.92489 
L 95.96093 102.650794 
L 97.51814 109.133977 
L 99.075349 182.389089 
L 100.632558 142.743117 
L 102.189767 108.158397 
L 103.746977 141.924529 
L 105.304186 143.177802 
L 106.861395 109.133977 
L 108.418605 109.133977 
L 109.975814 136.351343 
L 111.533023 90.815736 
L 113.090233 88.337686 
L 114.647442 134.763401 
L 116.204651 109.133977 
L 119.31907 109.133977 
L 120.876279 50.542197 
L 122.433488 71.933556 
L 123.990698 98.203541 
L 125.547907 109.133977 
L 130.219535 109.133977 
L 131.776744 93.005081 
L 133.333953 107.985939 
L 134.891163 150.465674 
L 136.448372 109.133978 
L 139.562791 109.133977 
L 141.12 147.740441 
L 142.677209 136.226386 
L 144.234419 105.587193 
L 145.791628 111.363569 
L 147.348837 109.133977 
L 150.463256 109.133977 
L 152.020465 115.021633 
L 153.577674 114.446108 
L 155.134884 130.392205 
L 156.692093 109.093961 
L 158.249302 73.964162 
L 159.806512 56.219435 
L 161.363721 100.892922 
L 162.92093 113.59527 
L 164.47814 84.625033 
L 166.035349 65.635992 
L 167.592558 109.133977 
L 169.149767 109.133977 
L 170.706977 116.392528 
L 172.264186 163.268895 
L 173.821395 170.700962 
L 175.378605 142.923632 
L 176.935814 113.078009 
L 178.493023 124.954252 
L 180.050233 109.133977 
L 181.607442 109.133977 
L 183.164651 126.47259 
L 184.72186 108.069416 
L 186.27907 61.749103 
L 187.836279 109.133977 
L 189.393488 111.760729 
L 190.950698 109.133977 
L 192.507907 144.661568 
L 194.065116 110.091955 
L 195.622326 109.133977 
L 197.179535 63.463502 
L 198.736744 66.052111 
L 200.293953 125.476284 
L 203.408372 62.237016 
L 204.965581 47.296011 
L 206.522791 95.225125 
L 208.08 109.133977 
L 209.637209 172.096409 
L 211.194419 176.606463 
L 212.751628 160.166727 
L 214.308837 114.69781 
L 215.866047 154.616162 
L 217.423256 149.872942 
L 218.980465 109.448404 
L 220.537674 115.840537 
L 222.094884 117.023557 
L 223.652093 77.05053 
L 225.209302 65.006917 
L 226.766512 105.478253 
L 228.323721 107.383841 
L 229.88093 146.372032 
L 231.43814 109.133977 
L 236.109767 109.133977 
L 237.666977 104.879273 
L 239.224186 101.160213 
L 240.781395 59.097926 
L 242.338605 28.477551 
L 243.895814 40.810151 
L 245.453023 109.133977 
L 247.010233 165.421913 
L 248.567442 182.87278 
L 250.124651 152.037568 
L 251.68186 141.948233 
L 253.23907 138.588994 
L 254.796279 145.577107 
L 256.353488 117.867656 
L 257.910698 111.341285 
L 259.467907 131.339675 
L 261.025116 88.104655 
L 262.582326 63.007932 
L 264.139535 106.347155 
L 265.696744 109.133977 
L 267.253953 116.774522 
L 268.811163 127.072471 
L 270.368372 58.718543 
L 271.925581 109.133977 
L 278.154419 109.133977 
L 279.711628 64.452585 
L 281.268837 57.605994 
L 282.826047 106.788182 
L 284.383256 149.543333 
L 285.940465 109.133978 
L 287.497674 134.984372 
L 289.054884 107.313854 
L 290.612093 145.795391 
L 292.169302 140.777723 
L 293.726512 115.16913 
L 295.283721 109.133977 
L 299.955349 109.133977 
L 301.512558 101.72296 
L 303.069767 104.544937 
L 304.626977 131.474076 
L 306.184186 109.133977 
L 307.741395 75.723014 
L 309.298605 72.476126 
L 310.855814 76.472092 
L 312.413023 99.212125 
L 313.970233 88.847453 
L 315.527442 109.133977 
L 318.64186 109.133977 
L 320.19907 116.692058 
L 321.756279 175.402508 
L 324.870698 123.570955 
L 326.427907 109.133977 
L 329.542326 109.133977 
L 331.099535 100.918449 
L 332.656744 123.672797 
L 334.213953 115.687067 
L 335.771163 83.381743 
L 337.328372 109.133977 
L 338.885581 109.133977 
L 340.442791 138.949337 
L 342 115.039242 
L 342 115.039242 
" style="fill:none;stroke:#9467bd;stroke-linecap:square;stroke-width:1.5;"/>
   </g>
   <g id="line2d_6">
    <path clip-path="url(#p8faadb451a)" d="M 7.2 121.568118 
L 8.757209 171.317959 
L 10.314419 179.813239 
L 11.871628 154.138137 
L 13.428837 132.864807 
L 14.986047 146.641708 
L 16.543256 187.02363 
L 18.100465 214.756364 
L 19.657674 199.239711 
L 21.214884 149.678885 
L 22.772093 111.554518 
L 24.329302 115.459223 
L 25.886512 130.914354 
L 27.443721 152.619092 
L 29.00093 137.538728 
L 30.55814 123.814042 
L 32.115349 155.279529 
L 33.672558 144.160102 
L 35.229767 118.93242 
L 36.786977 157.078345 
L 38.344186 156.245561 
L 39.901395 123.549364 
L 41.458605 120.900753 
L 43.015814 110.303936 
L 44.573023 121.568118 
L 46.130233 171.317959 
L 47.687442 179.813239 
L 49.244651 154.138137 
L 50.80186 132.864807 
L 52.35907 146.641708 
L 53.916279 187.02363 
L 55.473488 214.756364 
L 57.030698 199.239711 
L 58.587907 149.678885 
L 60.145116 111.554518 
L 61.702326 115.459223 
L 63.259535 130.914354 
L 64.816744 152.619092 
L 66.373953 137.538728 
L 67.931163 123.814042 
L 69.488372 155.279529 
L 71.045581 144.160102 
L 72.602791 118.93242 
L 74.16 157.078345 
L 75.717209 156.245561 
L 77.274419 123.549364 
L 78.831628 120.900753 
L 80.388837 110.303936 
L 81.946047 121.568118 
L 83.503256 171.317959 
L 85.060465 179.813239 
L 86.617674 154.138137 
L 88.174884 132.864807 
L 89.732093 146.641708 
L 91.289302 187.02363 
L 92.846512 214.756364 
L 94.403721 199.239711 
L 95.96093 149.678885 
L 97.51814 111.554518 
L 99.075349 115.459223 
L 100.632558 130.914354 
L 102.189767 152.619092 
L 103.746977 137.538728 
L 105.304186 123.814042 
L 106.861395 155.279529 
L 108.418605 144.160102 
L 109.975814 118.93242 
L 111.533023 157.078345 
L 113.090233 156.245561 
L 114.647442 123.549364 
L 116.204651 120.900753 
L 117.76186 110.303936 
L 119.31907 121.568118 
L 120.876279 171.317959 
L 122.433488 179.813239 
L 123.990698 154.138137 
L 125.547907 132.864807 
L 127.105116 146.641708 
L 128.662326 187.02363 
L 130.219535 214.756364 
L 131.776744 199.239711 
L 133.333953 149.678885 
L 134.891163 111.554518 
L 136.448372 115.459223 
L 138.005581 130.914354 
L 139.562791 152.619092 
L 141.12 137.538728 
L 142.677209 123.814042 
L 144.234419 155.279529 
L 145.791628 144.160102 
L 147.348837 118.93242 
L 148.906047 157.078345 
L 150.463256 156.245561 
L 152.020465 123.549364 
L 153.577674 120.900753 
L 155.134884 110.303936 
L 156.692093 121.568118 
L 158.249302 171.317959 
L 159.806512 179.813239 
L 161.363721 154.138137 
L 162.92093 132.864807 
L 164.47814 146.641708 
L 166.035349 187.02363 
L 167.592558 214.756364 
L 169.149767 199.239711 
L 170.706977 149.678885 
L 172.264186 111.554518 
L 173.821395 115.459223 
L 175.378605 130.914354 
L 176.935814 152.619092 
L 178.493023 137.538728 
L 180.050233 123.814042 
L 181.607442 155.279529 
L 183.164651 144.160102 
L 184.72186 118.93242 
L 186.27907 157.078345 
L 187.836279 156.245561 
L 189.393488 123.549364 
L 190.950698 120.900753 
L 192.507907 110.303936 
L 194.065116 121.568118 
L 195.622326 171.317959 
L 197.179535 179.813239 
L 198.736744 154.138137 
L 200.293953 132.864807 
L 201.851163 146.641708 
L 203.408372 187.02363 
L 204.965581 214.756364 
L 206.522791 199.239711 
L 208.08 149.678885 
L 209.637209 111.554518 
L 211.194419 115.459223 
L 212.751628 130.914354 
L 214.308837 152.619092 
L 215.866047 137.538728 
L 217.423256 123.814042 
L 218.980465 155.279529 
L 220.537674 144.160102 
L 222.094884 118.93242 
L 223.652093 157.078345 
L 225.209302 156.245561 
L 226.766512 123.549364 
L 228.323721 120.900753 
L 229.88093 110.303936 
L 231.43814 121.568118 
L 232.995349 171.317959 
L 234.552558 179.813239 
L 236.109767 154.138137 
L 237.666977 132.864807 
L 239.224186 146.641708 
L 240.781395 187.02363 
L 242.338605 214.756364 
L 243.895814 199.239711 
L 245.453023 149.678885 
L 247.010233 111.554518 
L 248.567442 115.459223 
L 250.124651 130.914354 
L 251.68186 152.619092 
L 253.23907 137.538728 
L 254.796279 123.814042 
L 256.353488 155.279529 
L 257.910698 144.160102 
L 259.467907 118.93242 
L 261.025116 157.078345 
L 262.582326 156.245561 
L 264.139535 123.549364 
L 265.696744 120.900753 
L 267.253953 110.303936 
L 268.811163 121.568118 
L 270.368372 171.317959 
L 271.925581 179.813239 
L 273.482791 154.138137 
L 275.04 132.864807 
L 276.597209 146.641708 
L 278.154419 187.02363 
L 279.711628 214.756364 
L 281.268837 199.239711 
L 282.826047 149.678885 
L 284.383256 111.554518 
L 285.940465 115.459223 
L 287.497674 130.914354 
L 289.054884 152.619092 
L 290.612093 137.538728 
L 292.169302 123.814042 
L 293.726512 155.279529 
L 295.283721 144.160102 
L 296.84093 118.93242 
L 298.39814 157.078345 
L 299.955349 156.245561 
L 301.512558 123.549364 
L 303.069767 120.900753 
L 304.626977 110.303936 
L 306.184186 121.568118 
L 307.741395 171.317959 
L 309.298605 179.813239 
L 310.855814 154.138137 
L 312.413023 132.864807 
L 313.970233 146.641708 
L 315.527442 187.02363 
L 317.084651 214.756364 
L 318.64186 199.239711 
L 320.19907 149.678885 
L 321.756279 111.554518 
L 323.313488 115.459223 
L 324.870698 130.914354 
L 326.427907 152.619092 
L 327.985116 137.538728 
L 329.542326 123.814042 
L 331.099535 155.279529 
L 332.656744 144.160102 
L 334.213953 118.93242 
L 335.771163 157.078345 
L 337.328372 156.245561 
L 338.885581 123.549364 
L 340.442791 120.900753 
L 342 110.303936 
L 342 110.303936 
" style="fill:none;stroke:#8c564b;stroke-linecap:square;stroke-width:1.5;"/>
   </g>
   <g id="legend_1">
    <g id="patch_2">
     <path d="M 14.2 219.64 
L 185.184375 219.64 
Q 187.184375 219.64 187.184375 217.64 
L 187.184375 130.57125 
Q 187.184375 128.57125 185.184375 128.57125 
L 14.2 128.57125 
Q 12.2 128.57125 12.2 130.57125 
L 12.2 217.64 
Q 12.2 219.64 14.2 219.64 
z
" style="fill:#ffffff;opacity:0.8;stroke:#cccccc;stroke-linejoin:miter;"/>
    </g>
    <g id="line2d_7">
     <path d="M 16.2 136.669687 
L 36.2 136.669687 
" style="fill:none;stroke:#1f77b4;stroke-linecap:square;stroke-width:1.5;"/>
    </g>
    <g id="line2d_8"/>
    <g id="text_1">
     <!-- wind (green sources) -->
     <g transform="translate(44.2 140.169687)scale(0.1 -0.1)">
      <defs>
       <path d="M 4.203125 54.6875 
L 13.1875 54.6875 
L 24.421875 12.015625 
L 35.59375 54.6875 
L 46.1875 54.6875 
L 57.421875 12.015625 
L 68.609375 54.6875 
L 77.59375 54.6875 
L 63.28125 0 
L 52.6875 0 
L 40.921875 44.828125 
L 29.109375 0 
L 18.5 0 
z
" id="DejaVuSans-119"/>
       <path d="M 9.421875 54.6875 
L 18.40625 54.6875 
L 18.40625 0 
L 9.421875 0 
z
M 9.421875 75.984375 
L 18.40625 75.984375 
L 18.40625 64.59375 
L 9.421875 64.59375 
z
" id="DejaVuSans-105"/>
       <path d="M 54.890625 33.015625 
L 54.890625 0 
L 45.90625 0 
L 45.90625 32.71875 
Q 45.90625 40.484375 42.875 44.328125 
Q 39.84375 48.1875 33.796875 48.1875 
Q 26.515625 48.1875 22.3125 43.546875 
Q 18.109375 38.921875 18.109375 30.90625 
L 18.109375 0 
L 9.078125 0 
L 9.078125 54.6875 
L 18.109375 54.6875 
L 18.109375 46.1875 
Q 21.34375 51.125 25.703125 53.5625 
Q 30.078125 56 35.796875 56 
Q 45.21875 56 50.046875 50.171875 
Q 54.890625 44.34375 54.890625 33.015625 
z
" id="DejaVuSans-110"/>
       <path d="M 45.40625 46.390625 
L 45.40625 75.984375 
L 54.390625 75.984375 
L 54.390625 0 
L 45.40625 0 
L 45.40625 8.203125 
Q 42.578125 3.328125 38.25 0.953125 
Q 33.9375 -1.421875 27.875 -1.421875 
Q 17.96875 -1.421875 11.734375 6.484375 
Q 5.515625 14.40625 5.515625 27.296875 
Q 5.515625 40.1875 11.734375 48.09375 
Q 17.96875 56 27.875 56 
Q 33.9375 56 38.25 53.625 
Q 42.578125 51.265625 45.40625 46.390625 
z
M 14.796875 27.296875 
Q 14.796875 17.390625 18.875 11.75 
Q 22.953125 6.109375 30.078125 6.109375 
Q 37.203125 6.109375 41.296875 11.75 
Q 45.40625 17.390625 45.40625 27.296875 
Q 45.40625 37.203125 41.296875 42.84375 
Q 37.203125 48.484375 30.078125 48.484375 
Q 22.953125 48.484375 18.875 42.84375 
Q 14.796875 37.203125 14.796875 27.296875 
z
" id="DejaVuSans-100"/>
       <path id="DejaVuSans-32"/>
       <path d="M 31 75.875 
Q 24.46875 64.65625 21.28125 53.65625 
Q 18.109375 42.671875 18.109375 31.390625 
Q 18.109375 20.125 21.3125 9.0625 
Q 24.515625 -2 31 -13.1875 
L 23.1875 -13.1875 
Q 15.875 -1.703125 12.234375 9.375 
Q 8.59375 20.453125 8.59375 31.390625 
Q 8.59375 42.28125 12.203125 53.3125 
Q 15.828125 64.359375 23.1875 75.875 
z
" id="DejaVuSans-40"/>
       <path d="M 45.40625 27.984375 
Q 45.40625 37.75 41.375 43.109375 
Q 37.359375 48.484375 30.078125 48.484375 
Q 22.859375 48.484375 18.828125 43.109375 
Q 14.796875 37.75 14.796875 27.984375 
Q 14.796875 18.265625 18.828125 12.890625 
Q 22.859375 7.515625 30.078125 7.515625 
Q 37.359375 7.515625 41.375 12.890625 
Q 45.40625 18.265625 45.40625 27.984375 
z
M 54.390625 6.78125 
Q 54.390625 -7.171875 48.1875 -13.984375 
Q 42 -20.796875 29.203125 -20.796875 
Q 24.46875 -20.796875 20.265625 -20.09375 
Q 16.0625 -19.390625 12.109375 -17.921875 
L 12.109375 -9.1875 
Q 16.0625 -11.328125 19.921875 -12.34375 
Q 23.78125 -13.375 27.78125 -13.375 
Q 36.625 -13.375 41.015625 -8.765625 
Q 45.40625 -4.15625 45.40625 5.171875 
L 45.40625 9.625 
Q 42.625 4.78125 38.28125 2.390625 
Q 33.9375 0 27.875 0 
Q 17.828125 0 11.671875 7.65625 
Q 5.515625 15.328125 5.515625 27.984375 
Q 5.515625 40.671875 11.671875 48.328125 
Q 17.828125 56 27.875 56 
Q 33.9375 56 38.28125 53.609375 
Q 42.625 51.21875 45.40625 46.390625 
L 45.40625 54.6875 
L 54.390625 54.6875 
z
" id="DejaVuSans-103"/>
       <path d="M 41.109375 46.296875 
Q 39.59375 47.171875 37.8125 47.578125 
Q 36.03125 48 33.890625 48 
Q 26.265625 48 22.1875 43.046875 
Q 18.109375 38.09375 18.109375 28.8125 
L 18.109375 0 
L 9.078125 0 
L 9.078125 54.6875 
L 18.109375 54.6875 
L 18.109375 46.1875 
Q 20.953125 51.171875 25.484375 53.578125 
Q 30.03125 56 36.53125 56 
Q 37.453125 56 38.578125 55.875 
Q 39.703125 55.765625 41.0625 55.515625 
z
" id="DejaVuSans-114"/>
       <path d="M 56.203125 29.59375 
L 56.203125 25.203125 
L 14.890625 25.203125 
Q 15.484375 15.921875 20.484375 11.0625 
Q 25.484375 6.203125 34.421875 6.203125 
Q 39.59375 6.203125 44.453125 7.46875 
Q 49.3125 8.734375 54.109375 11.28125 
L 54.109375 2.78125 
Q 49.265625 0.734375 44.1875 -0.34375 
Q 39.109375 -1.421875 33.890625 -1.421875 
Q 20.796875 -1.421875 13.15625 6.1875 
Q 5.515625 13.8125 5.515625 26.8125 
Q 5.515625 40.234375 12.765625 48.109375 
Q 20.015625 56 32.328125 56 
Q 43.359375 56 49.78125 48.890625 
Q 56.203125 41.796875 56.203125 29.59375 
z
M 47.21875 32.234375 
Q 47.125 39.59375 43.09375 43.984375 
Q 39.0625 48.390625 32.421875 48.390625 
Q 24.90625 48.390625 20.390625 44.140625 
Q 15.875 39.890625 15.1875 32.171875 
z
" id="DejaVuSans-101"/>
       <path d="M 44.28125 53.078125 
L 44.28125 44.578125 
Q 40.484375 46.53125 36.375 47.5 
Q 32.28125 48.484375 27.875 48.484375 
Q 21.1875 48.484375 17.84375 46.4375 
Q 14.5 44.390625 14.5 40.28125 
Q 14.5 37.15625 16.890625 35.375 
Q 19.28125 33.59375 26.515625 31.984375 
L 29.59375 31.296875 
Q 39.15625 29.25 43.1875 25.515625 
Q 47.21875 21.78125 47.21875 15.09375 
Q 47.21875 7.46875 41.1875 3.015625 
Q 35.15625 -1.421875 24.609375 -1.421875 
Q 20.21875 -1.421875 15.453125 -0.5625 
Q 10.6875 0.296875 5.421875 2 
L 5.421875 11.28125 
Q 10.40625 8.6875 15.234375 7.390625 
Q 20.0625 6.109375 24.8125 6.109375 
Q 31.15625 6.109375 34.5625 8.28125 
Q 37.984375 10.453125 37.984375 14.40625 
Q 37.984375 18.0625 35.515625 20.015625 
Q 33.0625 21.96875 24.703125 23.78125 
L 21.578125 24.515625 
Q 13.234375 26.265625 9.515625 29.90625 
Q 5.8125 33.546875 5.8125 39.890625 
Q 5.8125 47.609375 11.28125 51.796875 
Q 16.75 56 26.8125 56 
Q 31.78125 56 36.171875 55.265625 
Q 40.578125 54.546875 44.28125 53.078125 
z
" id="DejaVuSans-115"/>
       <path d="M 30.609375 48.390625 
Q 23.390625 48.390625 19.1875 42.75 
Q 14.984375 37.109375 14.984375 27.296875 
Q 14.984375 17.484375 19.15625 11.84375 
Q 23.34375 6.203125 30.609375 6.203125 
Q 37.796875 6.203125 41.984375 11.859375 
Q 46.1875 17.53125 46.1875 27.296875 
Q 46.1875 37.015625 41.984375 42.703125 
Q 37.796875 48.390625 30.609375 48.390625 
z
M 30.609375 56 
Q 42.328125 56 49.015625 48.375 
Q 55.71875 40.765625 55.71875 27.296875 
Q 55.71875 13.875 49.015625 6.21875 
Q 42.328125 -1.421875 30.609375 -1.421875 
Q 18.84375 -1.421875 12.171875 6.21875 
Q 5.515625 13.875 5.515625 27.296875 
Q 5.515625 40.765625 12.171875 48.375 
Q 18.84375 56 30.609375 56 
z
" id="DejaVuSans-111"/>
       <path d="M 8.5 21.578125 
L 8.5 54.6875 
L 17.484375 54.6875 
L 17.484375 21.921875 
Q 17.484375 14.15625 20.5 10.265625 
Q 23.53125 6.390625 29.59375 6.390625 
Q 36.859375 6.390625 41.078125 11.03125 
Q 45.3125 15.671875 45.3125 23.6875 
L 45.3125 54.6875 
L 54.296875 54.6875 
L 54.296875 0 
L 45.3125 0 
L 45.3125 8.40625 
Q 42.046875 3.421875 37.71875 1 
Q 33.40625 -1.421875 27.6875 -1.421875 
Q 18.265625 -1.421875 13.375 4.4375 
Q 8.5 10.296875 8.5 21.578125 
z
M 31.109375 56 
z
" id="DejaVuSans-117"/>
       <path d="M 48.78125 52.59375 
L 48.78125 44.1875 
Q 44.96875 46.296875 41.140625 47.34375 
Q 37.3125 48.390625 33.40625 48.390625 
Q 24.65625 48.390625 19.8125 42.84375 
Q 14.984375 37.3125 14.984375 27.296875 
Q 14.984375 17.28125 19.8125 11.734375 
Q 24.65625 6.203125 33.40625 6.203125 
Q 37.3125 6.203125 41.140625 7.25 
Q 44.96875 8.296875 48.78125 10.40625 
L 48.78125 2.09375 
Q 45.015625 0.34375 40.984375 -0.53125 
Q 36.96875 -1.421875 32.421875 -1.421875 
Q 20.0625 -1.421875 12.78125 6.34375 
Q 5.515625 14.109375 5.515625 27.296875 
Q 5.515625 40.671875 12.859375 48.328125 
Q 20.21875 56 33.015625 56 
Q 37.15625 56 41.109375 55.140625 
Q 45.0625 54.296875 48.78125 52.59375 
z
" id="DejaVuSans-99"/>
       <path d="M 8.015625 75.875 
L 15.828125 75.875 
Q 23.140625 64.359375 26.78125 53.3125 
Q 30.421875 42.28125 30.421875 31.390625 
Q 30.421875 20.453125 26.78125 9.375 
Q 23.140625 -1.703125 15.828125 -13.1875 
L 8.015625 -13.1875 
Q 14.5 -2 17.703125 9.0625 
Q 20.90625 20.125 20.90625 31.390625 
Q 20.90625 42.671875 17.703125 53.65625 
Q 14.5 64.65625 8.015625 75.875 
z
" id="DejaVuSans-41"/>
      </defs>
      <use xlink:href="#DejaVuSans-119"/>
      <use x="81.787109" xlink:href="#DejaVuSans-105"/>
      <use x="109.570312" xlink:href="#DejaVuSans-110"/>
      <use x="172.949219" xlink:href="#DejaVuSans-100"/>
      <use x="236.425781" xlink:href="#DejaVuSans-32"/>
      <use x="268.212891" xlink:href="#DejaVuSans-40"/>
      <use x="307.226562" xlink:href="#DejaVuSans-103"/>
      <use x="370.703125" xlink:href="#DejaVuSans-114"/>
      <use x="409.566406" xlink:href="#DejaVuSans-101"/>
      <use x="471.089844" xlink:href="#DejaVuSans-101"/>
      <use x="532.613281" xlink:href="#DejaVuSans-110"/>
      <use x="595.992188" xlink:href="#DejaVuSans-32"/>
      <use x="627.779297" xlink:href="#DejaVuSans-115"/>
      <use x="679.878906" xlink:href="#DejaVuSans-111"/>
      <use x="741.060547" xlink:href="#DejaVuSans-117"/>
      <use x="804.439453" xlink:href="#DejaVuSans-114"/>
      <use x="843.302734" xlink:href="#DejaVuSans-99"/>
      <use x="898.283203" xlink:href="#DejaVuSans-101"/>
      <use x="959.806641" xlink:href="#DejaVuSans-115"/>
      <use x="1011.90625" xlink:href="#DejaVuSans-41"/>
     </g>
    </g>
    <g id="line2d_9">
     <path d="M 16.2 151.347812 
L 36.2 151.347812 
" style="fill:none;stroke:#ff7f0e;stroke-linecap:square;stroke-width:1.5;"/>
    </g>
    <g id="line2d_10"/>
    <g id="text_2">
     <!-- PV (green sources) -->
     <g transform="translate(44.2 154.847812)scale(0.1 -0.1)">
      <defs>
       <path d="M 19.671875 64.796875 
L 19.671875 37.40625 
L 32.078125 37.40625 
Q 38.96875 37.40625 42.71875 40.96875 
Q 46.484375 44.53125 46.484375 51.125 
Q 46.484375 57.671875 42.71875 61.234375 
Q 38.96875 64.796875 32.078125 64.796875 
z
M 9.8125 72.90625 
L 32.078125 72.90625 
Q 44.34375 72.90625 50.609375 67.359375 
Q 56.890625 61.8125 56.890625 51.125 
Q 56.890625 40.328125 50.609375 34.8125 
Q 44.34375 29.296875 32.078125 29.296875 
L 19.671875 29.296875 
L 19.671875 0 
L 9.8125 0 
z
" id="DejaVuSans-80"/>
       <path d="M 28.609375 0 
L 0.78125 72.90625 
L 11.078125 72.90625 
L 34.1875 11.53125 
L 57.328125 72.90625 
L 67.578125 72.90625 
L 39.796875 0 
z
" id="DejaVuSans-86"/>
      </defs>
      <use xlink:href="#DejaVuSans-80"/>
      <use x="60.302734" xlink:href="#DejaVuSans-86"/>
      <use x="128.710938" xlink:href="#DejaVuSans-32"/>
      <use x="160.498047" xlink:href="#DejaVuSans-40"/>
      <use x="199.511719" xlink:href="#DejaVuSans-103"/>
      <use x="262.988281" xlink:href="#DejaVuSans-114"/>
      <use x="301.851562" xlink:href="#DejaVuSans-101"/>
      <use x="363.375" xlink:href="#DejaVuSans-101"/>
      <use x="424.898438" xlink:href="#DejaVuSans-110"/>
      <use x="488.277344" xlink:href="#DejaVuSans-32"/>
      <use x="520.064453" xlink:href="#DejaVuSans-115"/>
      <use x="572.164062" xlink:href="#DejaVuSans-111"/>
      <use x="633.345703" xlink:href="#DejaVuSans-117"/>
      <use x="696.724609" xlink:href="#DejaVuSans-114"/>
      <use x="735.587891" xlink:href="#DejaVuSans-99"/>
      <use x="790.568359" xlink:href="#DejaVuSans-101"/>
      <use x="852.091797" xlink:href="#DejaVuSans-115"/>
      <use x="904.191406" xlink:href="#DejaVuSans-41"/>
     </g>
    </g>
    <g id="line2d_11">
     <path d="M 16.2 166.025937 
L 36.2 166.025937 
" style="fill:none;stroke:#2ca02c;stroke-linecap:square;stroke-width:1.5;"/>
    </g>
    <g id="line2d_12"/>
    <g id="text_3">
     <!-- spot market (grey sources) -->
     <g transform="translate(44.2 169.525937)scale(0.1 -0.1)">
      <defs>
       <path d="M 18.109375 8.203125 
L 18.109375 -20.796875 
L 9.078125 -20.796875 
L 9.078125 54.6875 
L 18.109375 54.6875 
L 18.109375 46.390625 
Q 20.953125 51.265625 25.265625 53.625 
Q 29.59375 56 35.59375 56 
Q 45.5625 56 51.78125 48.09375 
Q 58.015625 40.1875 58.015625 27.296875 
Q 58.015625 14.40625 51.78125 6.484375 
Q 45.5625 -1.421875 35.59375 -1.421875 
Q 29.59375 -1.421875 25.265625 0.953125 
Q 20.953125 3.328125 18.109375 8.203125 
z
M 48.6875 27.296875 
Q 48.6875 37.203125 44.609375 42.84375 
Q 40.53125 48.484375 33.40625 48.484375 
Q 26.265625 48.484375 22.1875 42.84375 
Q 18.109375 37.203125 18.109375 27.296875 
Q 18.109375 17.390625 22.1875 11.75 
Q 26.265625 6.109375 33.40625 6.109375 
Q 40.53125 6.109375 44.609375 11.75 
Q 48.6875 17.390625 48.6875 27.296875 
z
" id="DejaVuSans-112"/>
       <path d="M 18.3125 70.21875 
L 18.3125 54.6875 
L 36.8125 54.6875 
L 36.8125 47.703125 
L 18.3125 47.703125 
L 18.3125 18.015625 
Q 18.3125 11.328125 20.140625 9.421875 
Q 21.96875 7.515625 27.59375 7.515625 
L 36.8125 7.515625 
L 36.8125 0 
L 27.59375 0 
Q 17.1875 0 13.234375 3.875 
Q 9.28125 7.765625 9.28125 18.015625 
L 9.28125 47.703125 
L 2.6875 47.703125 
L 2.6875 54.6875 
L 9.28125 54.6875 
L 9.28125 70.21875 
z
" id="DejaVuSans-116"/>
       <path d="M 52 44.1875 
Q 55.375 50.25 60.0625 53.125 
Q 64.75 56 71.09375 56 
Q 79.640625 56 84.28125 50.015625 
Q 88.921875 44.046875 88.921875 33.015625 
L 88.921875 0 
L 79.890625 0 
L 79.890625 32.71875 
Q 79.890625 40.578125 77.09375 44.375 
Q 74.3125 48.1875 68.609375 48.1875 
Q 61.625 48.1875 57.5625 43.546875 
Q 53.515625 38.921875 53.515625 30.90625 
L 53.515625 0 
L 44.484375 0 
L 44.484375 32.71875 
Q 44.484375 40.625 41.703125 44.40625 
Q 38.921875 48.1875 33.109375 48.1875 
Q 26.21875 48.1875 22.15625 43.53125 
Q 18.109375 38.875 18.109375 30.90625 
L 18.109375 0 
L 9.078125 0 
L 9.078125 54.6875 
L 18.109375 54.6875 
L 18.109375 46.1875 
Q 21.1875 51.21875 25.484375 53.609375 
Q 29.78125 56 35.6875 56 
Q 41.65625 56 45.828125 52.96875 
Q 50 49.953125 52 44.1875 
z
" id="DejaVuSans-109"/>
       <path d="M 34.28125 27.484375 
Q 23.390625 27.484375 19.1875 25 
Q 14.984375 22.515625 14.984375 16.5 
Q 14.984375 11.71875 18.140625 8.90625 
Q 21.296875 6.109375 26.703125 6.109375 
Q 34.1875 6.109375 38.703125 11.40625 
Q 43.21875 16.703125 43.21875 25.484375 
L 43.21875 27.484375 
z
M 52.203125 31.203125 
L 52.203125 0 
L 43.21875 0 
L 43.21875 8.296875 
Q 40.140625 3.328125 35.546875 0.953125 
Q 30.953125 -1.421875 24.3125 -1.421875 
Q 15.921875 -1.421875 10.953125 3.296875 
Q 6 8.015625 6 15.921875 
Q 6 25.140625 12.171875 29.828125 
Q 18.359375 34.515625 30.609375 34.515625 
L 43.21875 34.515625 
L 43.21875 35.40625 
Q 43.21875 41.609375 39.140625 45 
Q 35.0625 48.390625 27.6875 48.390625 
Q 23 48.390625 18.546875 47.265625 
Q 14.109375 46.140625 10.015625 43.890625 
L 10.015625 52.203125 
Q 14.9375 54.109375 19.578125 55.046875 
Q 24.21875 56 28.609375 56 
Q 40.484375 56 46.34375 49.84375 
Q 52.203125 43.703125 52.203125 31.203125 
z
" id="DejaVuSans-97"/>
       <path d="M 9.078125 75.984375 
L 18.109375 75.984375 
L 18.109375 31.109375 
L 44.921875 54.6875 
L 56.390625 54.6875 
L 27.390625 29.109375 
L 57.625 0 
L 45.90625 0 
L 18.109375 26.703125 
L 18.109375 0 
L 9.078125 0 
z
" id="DejaVuSans-107"/>
       <path d="M 32.171875 -5.078125 
Q 28.375 -14.84375 24.75 -17.8125 
Q 21.140625 -20.796875 15.09375 -20.796875 
L 7.90625 -20.796875 
L 7.90625 -13.28125 
L 13.1875 -13.28125 
Q 16.890625 -13.28125 18.9375 -11.515625 
Q 21 -9.765625 23.484375 -3.21875 
L 25.09375 0.875 
L 2.984375 54.6875 
L 12.5 54.6875 
L 29.59375 11.921875 
L 46.6875 54.6875 
L 56.203125 54.6875 
z
" id="DejaVuSans-121"/>
      </defs>
      <use xlink:href="#DejaVuSans-115"/>
      <use x="52.099609" xlink:href="#DejaVuSans-112"/>
      <use x="115.576172" xlink:href="#DejaVuSans-111"/>
      <use x="176.757812" xlink:href="#DejaVuSans-116"/>
      <use x="215.966797" xlink:href="#DejaVuSans-32"/>
      <use x="247.753906" xlink:href="#DejaVuSans-109"/>
      <use x="345.166016" xlink:href="#DejaVuSans-97"/>
      <use x="406.445312" xlink:href="#DejaVuSans-114"/>
      <use x="447.558594" xlink:href="#DejaVuSans-107"/>
      <use x="501.84375" xlink:href="#DejaVuSans-101"/>
      <use x="563.367188" xlink:href="#DejaVuSans-116"/>
      <use x="602.576172" xlink:href="#DejaVuSans-32"/>
      <use x="634.363281" xlink:href="#DejaVuSans-40"/>
      <use x="673.376953" xlink:href="#DejaVuSans-103"/>
      <use x="736.853516" xlink:href="#DejaVuSans-114"/>
      <use x="775.716797" xlink:href="#DejaVuSans-101"/>
      <use x="837.240234" xlink:href="#DejaVuSans-121"/>
      <use x="896.419922" xlink:href="#DejaVuSans-32"/>
      <use x="928.207031" xlink:href="#DejaVuSans-115"/>
      <use x="980.306641" xlink:href="#DejaVuSans-111"/>
      <use x="1041.488281" xlink:href="#DejaVuSans-117"/>
      <use x="1104.867188" xlink:href="#DejaVuSans-114"/>
      <use x="1143.730469" xlink:href="#DejaVuSans-99"/>
      <use x="1198.710938" xlink:href="#DejaVuSans-101"/>
      <use x="1260.234375" xlink:href="#DejaVuSans-115"/>
      <use x="1312.333984" xlink:href="#DejaVuSans-41"/>
     </g>
    </g>
    <g id="line2d_13">
     <path d="M 16.2 180.704062 
L 36.2 180.704062 
" style="fill:none;stroke:#d62728;stroke-linecap:square;stroke-width:1.5;"/>
    </g>
    <g id="line2d_14"/>
    <g id="text_4">
     <!-- green sales (green sources) -->
     <g transform="translate(44.2 184.204062)scale(0.1 -0.1)">
      <defs>
       <path d="M 9.421875 75.984375 
L 18.40625 75.984375 
L 18.40625 0 
L 9.421875 0 
z
" id="DejaVuSans-108"/>
      </defs>
      <use xlink:href="#DejaVuSans-103"/>
      <use x="63.476562" xlink:href="#DejaVuSans-114"/>
      <use x="102.339844" xlink:href="#DejaVuSans-101"/>
      <use x="163.863281" xlink:href="#DejaVuSans-101"/>
      <use x="225.386719" xlink:href="#DejaVuSans-110"/>
      <use x="288.765625" xlink:href="#DejaVuSans-32"/>
      <use x="320.552734" xlink:href="#DejaVuSans-115"/>
      <use x="372.652344" xlink:href="#DejaVuSans-97"/>
      <use x="433.931641" xlink:href="#DejaVuSans-108"/>
      <use x="461.714844" xlink:href="#DejaVuSans-101"/>
      <use x="523.238281" xlink:href="#DejaVuSans-115"/>
      <use x="575.337891" xlink:href="#DejaVuSans-32"/>
      <use x="607.125" xlink:href="#DejaVuSans-40"/>
      <use x="646.138672" xlink:href="#DejaVuSans-103"/>
      <use x="709.615234" xlink:href="#DejaVuSans-114"/>
      <use x="748.478516" xlink:href="#DejaVuSans-101"/>
      <use x="810.001953" xlink:href="#DejaVuSans-101"/>
      <use x="871.525391" xlink:href="#DejaVuSans-110"/>
      <use x="934.904297" xlink:href="#DejaVuSans-32"/>
      <use x="966.691406" xlink:href="#DejaVuSans-115"/>
      <use x="1018.791016" xlink:href="#DejaVuSans-111"/>
      <use x="1079.972656" xlink:href="#DejaVuSans-117"/>
      <use x="1143.351562" xlink:href="#DejaVuSans-114"/>
      <use x="1182.214844" xlink:href="#DejaVuSans-99"/>
      <use x="1237.195312" xlink:href="#DejaVuSans-101"/>
      <use x="1298.71875" xlink:href="#DejaVuSans-115"/>
      <use x="1350.818359" xlink:href="#DejaVuSans-41"/>
     </g>
    </g>
    <g id="line2d_15">
     <path d="M 16.2 195.382187 
L 36.2 195.382187 
" style="fill:none;stroke:#9467bd;stroke-linecap:square;stroke-width:1.5;"/>
    </g>
    <g id="line2d_16"/>
    <g id="text_5">
     <!-- battery (green sources) -->
     <g transform="translate(44.2 198.882187)scale(0.1 -0.1)">
      <defs>
       <path d="M 48.6875 27.296875 
Q 48.6875 37.203125 44.609375 42.84375 
Q 40.53125 48.484375 33.40625 48.484375 
Q 26.265625 48.484375 22.1875 42.84375 
Q 18.109375 37.203125 18.109375 27.296875 
Q 18.109375 17.390625 22.1875 11.75 
Q 26.265625 6.109375 33.40625 6.109375 
Q 40.53125 6.109375 44.609375 11.75 
Q 48.6875 17.390625 48.6875 27.296875 
z
M 18.109375 46.390625 
Q 20.953125 51.265625 25.265625 53.625 
Q 29.59375 56 35.59375 56 
Q 45.5625 56 51.78125 48.09375 
Q 58.015625 40.1875 58.015625 27.296875 
Q 58.015625 14.40625 51.78125 6.484375 
Q 45.5625 -1.421875 35.59375 -1.421875 
Q 29.59375 -1.421875 25.265625 0.953125 
Q 20.953125 3.328125 18.109375 8.203125 
L 18.109375 0 
L 9.078125 0 
L 9.078125 75.984375 
L 18.109375 75.984375 
z
" id="DejaVuSans-98"/>
      </defs>
      <use xlink:href="#DejaVuSans-98"/>
      <use x="63.476562" xlink:href="#DejaVuSans-97"/>
      <use x="124.755859" xlink:href="#DejaVuSans-116"/>
      <use x="163.964844" xlink:href="#DejaVuSans-116"/>
      <use x="203.173828" xlink:href="#DejaVuSans-101"/>
      <use x="264.697266" xlink:href="#DejaVuSans-114"/>
      <use x="305.810547" xlink:href="#DejaVuSans-121"/>
      <use x="364.990234" xlink:href="#DejaVuSans-32"/>
      <use x="396.777344" xlink:href="#DejaVuSans-40"/>
      <use x="435.791016" xlink:href="#DejaVuSans-103"/>
      <use x="499.267578" xlink:href="#DejaVuSans-114"/>
      <use x="538.130859" xlink:href="#DejaVuSans-101"/>
      <use x="599.654297" xlink:href="#DejaVuSans-101"/>
      <use x="661.177734" xlink:href="#DejaVuSans-110"/>
      <use x="724.556641" xlink:href="#DejaVuSans-32"/>
      <use x="756.34375" xlink:href="#DejaVuSans-115"/>
      <use x="808.443359" xlink:href="#DejaVuSans-111"/>
      <use x="869.625" xlink:href="#DejaVuSans-117"/>
      <use x="933.003906" xlink:href="#DejaVuSans-114"/>
      <use x="971.867188" xlink:href="#DejaVuSans-99"/>
      <use x="1026.847656" xlink:href="#DejaVuSans-101"/>
      <use x="1088.371094" xlink:href="#DejaVuSans-115"/>
      <use x="1140.470703" xlink:href="#DejaVuSans-41"/>
     </g>
    </g>
    <g id="line2d_17">
     <path d="M 16.2 210.060312 
L 36.2 210.060312 
" style="fill:none;stroke:#8c564b;stroke-linecap:square;stroke-width:1.5;"/>
    </g>
    <g id="line2d_18"/>
    <g id="text_6">
     <!-- downstream -->
     <g transform="translate(44.2 213.560312)scale(0.1 -0.1)">
      <use xlink:href="#DejaVuSans-100"/>
      <use x="63.476562" xlink:href="#DejaVuSans-111"/>
      <use x="124.658203" xlink:href="#DejaVuSans-119"/>
      <use x="206.445312" xlink:href="#DejaVuSans-110"/>
      <use x="269.824219" xlink:href="#DejaVuSans-115"/>
      <use x="321.923828" xlink:href="#DejaVuSans-116"/>
      <use x="361.132812" xlink:href="#DejaVuSans-114"/>
      <use x="399.996094" xlink:href="#DejaVuSans-101"/>
      <use x="461.519531" xlink:href="#DejaVuSans-97"/>
      <use x="522.798828" xlink:href="#DejaVuSans-109"/>
     </g>
    </g>
   </g>
  </g>
 </g>
 <defs>
  <clipPath id="p8faadb451a">
   <rect height="217.44" width="334.8" x="7.2" y="7.2"/>
  </clipPath>
 </defs>
</svg>
