<?xml version="1.0" encoding="utf-8" standalone="no"?>
<!DOCTYPE svg PUBLIC "-//W3C//DTD SVG 1.1//EN"
  "http://www.w3.org/Graphics/SVG/1.1/DTD/svg11.dtd">
<!-- Created with matplotlib (https://matplotlib.org/) -->
<svg height="280.8pt" version="1.1" viewBox="0 0 568.8 280.8" width="568.8pt" xmlns="http://www.w3.org/2000/svg" xmlns:xlink="http://www.w3.org/1999/xlink">
 <metadata>
  <rdf:RDF xmlns:cc="http://creativecommons.org/ns#" xmlns:dc="http://purl.org/dc/elements/1.1/" xmlns:rdf="http://www.w3.org/1999/02/22-rdf-syntax-ns#">
   <cc:Work>
    <dc:type rdf:resource="http://purl.org/dc/dcmitype/StillImage"/>
    <dc:date>2021-04-09T14:46:12.064084</dc:date>
    <dc:format>image/svg+xml</dc:format>
    <dc:creator>
     <cc:Agent>
      <dc:title>Matplotlib v3.3.2, https://matplotlib.org/</dc:title>
     </cc:Agent>
    </dc:creator>
   </cc:Work>
  </rdf:RDF>
 </metadata>
 <defs>
  <style type="text/css">*{stroke-linecap:butt;stroke-linejoin:round;}</style>
 </defs>
 <g id="figure_1">
  <g id="patch_1">
   <path d="M 0 280.8 
L 568.8 280.8 
L 568.8 0 
L 0 0 
z
" style="fill:none;"/>
  </g>
  <g id="axes_1">
   <g id="patch_2">
    <path d="M 44.845313 234.52625 
L 291.141406 234.52625 
L 291.141406 7.2 
L 44.845313 7.2 
z
" style="fill:#ffffff;"/>
   </g>
   <g id="matplotlib.axis_1">
    <g id="xtick_1">
     <g id="line2d_1">
      <defs>
       <path d="M 0 0 
L 0 3.5 
" id="m1f85ad7bc8" style="stroke:#000000;stroke-width:0.8;"/>
      </defs>
      <g>
       <use style="stroke:#000000;stroke-width:0.8;" x="44.845312" xlink:href="#m1f85ad7bc8" y="234.52625"/>
      </g>
     </g>
     <g id="text_1">
      <!-- 01 -->
      <g transform="translate(38.482812 249.124688)scale(0.1 -0.1)">
       <defs>
        <path d="M 31.78125 66.40625 
Q 24.171875 66.40625 20.328125 58.90625 
Q 16.5 51.421875 16.5 36.375 
Q 16.5 21.390625 20.328125 13.890625 
Q 24.171875 6.390625 31.78125 6.390625 
Q 39.453125 6.390625 43.28125 13.890625 
Q 47.125 21.390625 47.125 36.375 
Q 47.125 51.421875 43.28125 58.90625 
Q 39.453125 66.40625 31.78125 66.40625 
z
M 31.78125 74.21875 
Q 44.046875 74.21875 50.515625 64.515625 
Q 56.984375 54.828125 56.984375 36.375 
Q 56.984375 17.96875 50.515625 8.265625 
Q 44.046875 -1.421875 31.78125 -1.421875 
Q 19.53125 -1.421875 13.0625 8.265625 
Q 6.59375 17.96875 6.59375 36.375 
Q 6.59375 54.828125 13.0625 64.515625 
Q 19.53125 74.21875 31.78125 74.21875 
z
" id="DejaVuSans-48"/>
        <path d="M 12.40625 8.296875 
L 28.515625 8.296875 
L 28.515625 63.921875 
L 10.984375 60.40625 
L 10.984375 69.390625 
L 28.421875 72.90625 
L 38.28125 72.90625 
L 38.28125 8.296875 
L 54.390625 8.296875 
L 54.390625 0 
L 12.40625 0 
z
" id="DejaVuSans-49"/>
       </defs>
       <use xlink:href="#DejaVuSans-48"/>
       <use x="63.623047" xlink:href="#DejaVuSans-49"/>
      </g>
      <!-- Jan -->
      <g transform="translate(37.1375 260.3225)scale(0.1 -0.1)">
       <defs>
        <path d="M 9.8125 72.90625 
L 19.671875 72.90625 
L 19.671875 5.078125 
Q 19.671875 -8.109375 14.671875 -14.0625 
Q 9.671875 -20.015625 -1.421875 -20.015625 
L -5.171875 -20.015625 
L -5.171875 -11.71875 
L -2.09375 -11.71875 
Q 4.4375 -11.71875 7.125 -8.046875 
Q 9.8125 -4.390625 9.8125 5.078125 
z
" id="DejaVuSans-74"/>
        <path d="M 34.28125 27.484375 
Q 23.390625 27.484375 19.1875 25 
Q 14.984375 22.515625 14.984375 16.5 
Q 14.984375 11.71875 18.140625 8.90625 
Q 21.296875 6.109375 26.703125 6.109375 
Q 34.1875 6.109375 38.703125 11.40625 
Q 43.21875 16.703125 43.21875 25.484375 
L 43.21875 27.484375 
z
M 52.203125 31.203125 
L 52.203125 0 
L 43.21875 0 
L 43.21875 8.296875 
Q 40.140625 3.328125 35.546875 0.953125 
Q 30.953125 -1.421875 24.3125 -1.421875 
Q 15.921875 -1.421875 10.953125 3.296875 
Q 6 8.015625 6 15.921875 
Q 6 25.140625 12.171875 29.828125 
Q 18.359375 34.515625 30.609375 34.515625 
L 43.21875 34.515625 
L 43.21875 35.40625 
Q 43.21875 41.609375 39.140625 45 
Q 35.0625 48.390625 27.6875 48.390625 
Q 23 48.390625 18.546875 47.265625 
Q 14.109375 46.140625 10.015625 43.890625 
L 10.015625 52.203125 
Q 14.9375 54.109375 19.578125 55.046875 
Q 24.21875 56 28.609375 56 
Q 40.484375 56 46.34375 49.84375 
Q 52.203125 43.703125 52.203125 31.203125 
z
" id="DejaVuSans-97"/>
        <path d="M 54.890625 33.015625 
L 54.890625 0 
L 45.90625 0 
L 45.90625 32.71875 
Q 45.90625 40.484375 42.875 44.328125 
Q 39.84375 48.1875 33.796875 48.1875 
Q 26.515625 48.1875 22.3125 43.546875 
Q 18.109375 38.921875 18.109375 30.90625 
L 18.109375 0 
L 9.078125 0 
L 9.078125 54.6875 
L 18.109375 54.6875 
L 18.109375 46.1875 
Q 21.34375 51.125 25.703125 53.5625 
Q 30.078125 56 35.796875 56 
Q 45.21875 56 50.046875 50.171875 
Q 54.890625 44.34375 54.890625 33.015625 
z
" id="DejaVuSans-110"/>
       </defs>
       <use xlink:href="#DejaVuSans-74"/>
       <use x="29.492188" xlink:href="#DejaVuSans-97"/>
       <use x="90.771484" xlink:href="#DejaVuSans-110"/>
      </g>
      <!-- 2021 -->
      <g transform="translate(32.120312 271.520313)scale(0.1 -0.1)">
       <defs>
        <path d="M 19.1875 8.296875 
L 53.609375 8.296875 
L 53.609375 0 
L 7.328125 0 
L 7.328125 8.296875 
Q 12.9375 14.109375 22.625 23.890625 
Q 32.328125 33.6875 34.8125 36.53125 
Q 39.546875 41.84375 41.421875 45.53125 
Q 43.3125 49.21875 43.3125 52.78125 
Q 43.3125 58.59375 39.234375 62.25 
Q 35.15625 65.921875 28.609375 65.921875 
Q 23.96875 65.921875 18.8125 64.3125 
Q 13.671875 62.703125 7.8125 59.421875 
L 7.8125 69.390625 
Q 13.765625 71.78125 18.9375 73 
Q 24.125 74.21875 28.421875 74.21875 
Q 39.75 74.21875 46.484375 68.546875 
Q 53.21875 62.890625 53.21875 53.421875 
Q 53.21875 48.921875 51.53125 44.890625 
Q 49.859375 40.875 45.40625 35.40625 
Q 44.1875 33.984375 37.640625 27.21875 
Q 31.109375 20.453125 19.1875 8.296875 
z
" id="DejaVuSans-50"/>
       </defs>
       <use xlink:href="#DejaVuSans-50"/>
       <use x="63.623047" xlink:href="#DejaVuSans-48"/>
       <use x="127.246094" xlink:href="#DejaVuSans-50"/>
       <use x="190.869141" xlink:href="#DejaVuSans-49"/>
      </g>
     </g>
    </g>
    <g id="xtick_2">
     <g id="line2d_2">
      <g>
       <use style="stroke:#000000;stroke-width:0.8;" x="291.141406" xlink:href="#m1f85ad7bc8" y="234.52625"/>
      </g>
     </g>
    </g>
    <g id="xtick_3">
     <g id="line2d_3">
      <defs>
       <path d="M 0 0 
L 0 2 
" id="md2410af102" style="stroke:#000000;stroke-width:0.6;"/>
      </defs>
      <g>
       <use style="stroke:#000000;stroke-width:0.6;" x="107.067484" xlink:href="#md2410af102" y="234.52625"/>
      </g>
     </g>
     <g id="text_2">
      <!-- 02 -->
      <g transform="translate(100.704984 247.524688)scale(0.1 -0.1)">
       <use xlink:href="#DejaVuSans-48"/>
       <use x="63.623047" xlink:href="#DejaVuSans-50"/>
      </g>
     </g>
    </g>
    <g id="xtick_4">
     <g id="line2d_4">
      <g>
       <use style="stroke:#000000;stroke-width:0.6;" x="169.289655" xlink:href="#md2410af102" y="234.52625"/>
      </g>
     </g>
     <g id="text_3">
      <!-- 03 -->
      <g transform="translate(162.927155 247.524688)scale(0.1 -0.1)">
       <defs>
        <path d="M 40.578125 39.3125 
Q 47.65625 37.796875 51.625 33 
Q 55.609375 28.21875 55.609375 21.1875 
Q 55.609375 10.40625 48.1875 4.484375 
Q 40.765625 -1.421875 27.09375 -1.421875 
Q 22.515625 -1.421875 17.65625 -0.515625 
Q 12.796875 0.390625 7.625 2.203125 
L 7.625 11.71875 
Q 11.71875 9.328125 16.59375 8.109375 
Q 21.484375 6.890625 26.8125 6.890625 
Q 36.078125 6.890625 40.9375 10.546875 
Q 45.796875 14.203125 45.796875 21.1875 
Q 45.796875 27.640625 41.28125 31.265625 
Q 36.765625 34.90625 28.71875 34.90625 
L 20.21875 34.90625 
L 20.21875 43.015625 
L 29.109375 43.015625 
Q 36.375 43.015625 40.234375 45.921875 
Q 44.09375 48.828125 44.09375 54.296875 
Q 44.09375 59.90625 40.109375 62.90625 
Q 36.140625 65.921875 28.71875 65.921875 
Q 24.65625 65.921875 20.015625 65.03125 
Q 15.375 64.15625 9.8125 62.3125 
L 9.8125 71.09375 
Q 15.4375 72.65625 20.34375 73.4375 
Q 25.25 74.21875 29.59375 74.21875 
Q 40.828125 74.21875 47.359375 69.109375 
Q 53.90625 64.015625 53.90625 55.328125 
Q 53.90625 49.265625 50.4375 45.09375 
Q 46.96875 40.921875 40.578125 39.3125 
z
" id="DejaVuSans-51"/>
       </defs>
       <use xlink:href="#DejaVuSans-48"/>
       <use x="63.623047" xlink:href="#DejaVuSans-51"/>
      </g>
     </g>
    </g>
    <g id="xtick_5">
     <g id="line2d_5">
      <g>
       <use style="stroke:#000000;stroke-width:0.6;" x="231.511826" xlink:href="#md2410af102" y="234.52625"/>
      </g>
     </g>
     <g id="text_4">
      <!-- 04 -->
      <g transform="translate(225.149326 247.524688)scale(0.1 -0.1)">
       <defs>
        <path d="M 37.796875 64.3125 
L 12.890625 25.390625 
L 37.796875 25.390625 
z
M 35.203125 72.90625 
L 47.609375 72.90625 
L 47.609375 25.390625 
L 58.015625 25.390625 
L 58.015625 17.1875 
L 47.609375 17.1875 
L 47.609375 0 
L 37.796875 0 
L 37.796875 17.1875 
L 4.890625 17.1875 
L 4.890625 26.703125 
z
" id="DejaVuSans-52"/>
       </defs>
       <use xlink:href="#DejaVuSans-48"/>
       <use x="63.623047" xlink:href="#DejaVuSans-52"/>
      </g>
     </g>
    </g>
   </g>
   <g id="matplotlib.axis_2">
    <g id="ytick_1">
     <g id="line2d_6">
      <defs>
       <path d="M 0 0 
L -3.5 0 
" id="m992ae67eaf" style="stroke:#000000;stroke-width:0.8;"/>
      </defs>
      <g>
       <use style="stroke:#000000;stroke-width:0.8;" x="44.845313" xlink:href="#m992ae67eaf" y="224.193239"/>
      </g>
     </g>
     <g id="text_5">
      <!-- −1.00 -->
      <g transform="translate(7.2 227.992457)scale(0.1 -0.1)">
       <defs>
        <path d="M 10.59375 35.5 
L 73.1875 35.5 
L 73.1875 27.203125 
L 10.59375 27.203125 
z
" id="DejaVuSans-8722"/>
        <path d="M 10.6875 12.40625 
L 21 12.40625 
L 21 0 
L 10.6875 0 
z
" id="DejaVuSans-46"/>
       </defs>
       <use xlink:href="#DejaVuSans-8722"/>
       <use x="83.789062" xlink:href="#DejaVuSans-49"/>
       <use x="147.412109" xlink:href="#DejaVuSans-46"/>
       <use x="179.199219" xlink:href="#DejaVuSans-48"/>
       <use x="242.822266" xlink:href="#DejaVuSans-48"/>
      </g>
     </g>
    </g>
    <g id="ytick_2">
     <g id="line2d_7">
      <g>
       <use style="stroke:#000000;stroke-width:0.8;" x="44.845313" xlink:href="#m992ae67eaf" y="198.36071"/>
      </g>
     </g>
     <g id="text_6">
      <!-- −0.75 -->
      <g transform="translate(7.2 202.159929)scale(0.1 -0.1)">
       <defs>
        <path d="M 8.203125 72.90625 
L 55.078125 72.90625 
L 55.078125 68.703125 
L 28.609375 0 
L 18.3125 0 
L 43.21875 64.59375 
L 8.203125 64.59375 
z
" id="DejaVuSans-55"/>
        <path d="M 10.796875 72.90625 
L 49.515625 72.90625 
L 49.515625 64.59375 
L 19.828125 64.59375 
L 19.828125 46.734375 
Q 21.96875 47.46875 24.109375 47.828125 
Q 26.265625 48.1875 28.421875 48.1875 
Q 40.625 48.1875 47.75 41.5 
Q 54.890625 34.8125 54.890625 23.390625 
Q 54.890625 11.625 47.5625 5.09375 
Q 40.234375 -1.421875 26.90625 -1.421875 
Q 22.3125 -1.421875 17.546875 -0.640625 
Q 12.796875 0.140625 7.71875 1.703125 
L 7.71875 11.625 
Q 12.109375 9.234375 16.796875 8.0625 
Q 21.484375 6.890625 26.703125 6.890625 
Q 35.15625 6.890625 40.078125 11.328125 
Q 45.015625 15.765625 45.015625 23.390625 
Q 45.015625 31 40.078125 35.4375 
Q 35.15625 39.890625 26.703125 39.890625 
Q 22.75 39.890625 18.8125 39.015625 
Q 14.890625 38.140625 10.796875 36.28125 
z
" id="DejaVuSans-53"/>
       </defs>
       <use xlink:href="#DejaVuSans-8722"/>
       <use x="83.789062" xlink:href="#DejaVuSans-48"/>
       <use x="147.412109" xlink:href="#DejaVuSans-46"/>
       <use x="179.199219" xlink:href="#DejaVuSans-55"/>
       <use x="242.822266" xlink:href="#DejaVuSans-53"/>
      </g>
     </g>
    </g>
    <g id="ytick_3">
     <g id="line2d_8">
      <g>
       <use style="stroke:#000000;stroke-width:0.8;" x="44.845313" xlink:href="#m992ae67eaf" y="172.528182"/>
      </g>
     </g>
     <g id="text_7">
      <!-- −0.50 -->
      <g transform="translate(7.2 176.327401)scale(0.1 -0.1)">
       <use xlink:href="#DejaVuSans-8722"/>
       <use x="83.789062" xlink:href="#DejaVuSans-48"/>
       <use x="147.412109" xlink:href="#DejaVuSans-46"/>
       <use x="179.199219" xlink:href="#DejaVuSans-53"/>
       <use x="242.822266" xlink:href="#DejaVuSans-48"/>
      </g>
     </g>
    </g>
    <g id="ytick_4">
     <g id="line2d_9">
      <g>
       <use style="stroke:#000000;stroke-width:0.8;" x="44.845313" xlink:href="#m992ae67eaf" y="146.695653"/>
      </g>
     </g>
     <g id="text_8">
      <!-- −0.25 -->
      <g transform="translate(7.2 150.494872)scale(0.1 -0.1)">
       <use xlink:href="#DejaVuSans-8722"/>
       <use x="83.789062" xlink:href="#DejaVuSans-48"/>
       <use x="147.412109" xlink:href="#DejaVuSans-46"/>
       <use x="179.199219" xlink:href="#DejaVuSans-50"/>
       <use x="242.822266" xlink:href="#DejaVuSans-53"/>
      </g>
     </g>
    </g>
    <g id="ytick_5">
     <g id="line2d_10">
      <g>
       <use style="stroke:#000000;stroke-width:0.8;" x="44.845313" xlink:href="#m992ae67eaf" y="120.863125"/>
      </g>
     </g>
     <g id="text_9">
      <!-- 0.00 -->
      <g transform="translate(15.579688 124.662344)scale(0.1 -0.1)">
       <use xlink:href="#DejaVuSans-48"/>
       <use x="63.623047" xlink:href="#DejaVuSans-46"/>
       <use x="95.410156" xlink:href="#DejaVuSans-48"/>
       <use x="159.033203" xlink:href="#DejaVuSans-48"/>
      </g>
     </g>
    </g>
    <g id="ytick_6">
     <g id="line2d_11">
      <g>
       <use style="stroke:#000000;stroke-width:0.8;" x="44.845313" xlink:href="#m992ae67eaf" y="95.030597"/>
      </g>
     </g>
     <g id="text_10">
      <!-- 0.25 -->
      <g transform="translate(15.579688 98.829815)scale(0.1 -0.1)">
       <use xlink:href="#DejaVuSans-48"/>
       <use x="63.623047" xlink:href="#DejaVuSans-46"/>
       <use x="95.410156" xlink:href="#DejaVuSans-50"/>
       <use x="159.033203" xlink:href="#DejaVuSans-53"/>
      </g>
     </g>
    </g>
    <g id="ytick_7">
     <g id="line2d_12">
      <g>
       <use style="stroke:#000000;stroke-width:0.8;" x="44.845313" xlink:href="#m992ae67eaf" y="69.198068"/>
      </g>
     </g>
     <g id="text_11">
      <!-- 0.50 -->
      <g transform="translate(15.579688 72.997287)scale(0.1 -0.1)">
       <use xlink:href="#DejaVuSans-48"/>
       <use x="63.623047" xlink:href="#DejaVuSans-46"/>
       <use x="95.410156" xlink:href="#DejaVuSans-53"/>
       <use x="159.033203" xlink:href="#DejaVuSans-48"/>
      </g>
     </g>
    </g>
    <g id="ytick_8">
     <g id="line2d_13">
      <g>
       <use style="stroke:#000000;stroke-width:0.8;" x="44.845313" xlink:href="#m992ae67eaf" y="43.36554"/>
      </g>
     </g>
     <g id="text_12">
      <!-- 0.75 -->
      <g transform="translate(15.579688 47.164759)scale(0.1 -0.1)">
       <use xlink:href="#DejaVuSans-48"/>
       <use x="63.623047" xlink:href="#DejaVuSans-46"/>
       <use x="95.410156" xlink:href="#DejaVuSans-55"/>
       <use x="159.033203" xlink:href="#DejaVuSans-53"/>
      </g>
     </g>
    </g>
    <g id="ytick_9">
     <g id="line2d_14">
      <g>
       <use style="stroke:#000000;stroke-width:0.8;" x="44.845313" xlink:href="#m992ae67eaf" y="17.533011"/>
      </g>
     </g>
     <g id="text_13">
      <!-- 1.00 -->
      <g transform="translate(15.579688 21.33223)scale(0.1 -0.1)">
       <use xlink:href="#DejaVuSans-49"/>
       <use x="63.623047" xlink:href="#DejaVuSans-46"/>
       <use x="95.410156" xlink:href="#DejaVuSans-48"/>
       <use x="159.033203" xlink:href="#DejaVuSans-48"/>
      </g>
     </g>
    </g>
   </g>
   <g id="line2d_15">
    <path clip-path="url(#p8905e8a822)" d="M 44.845312 224.193239 
L 47.437903 224.193239 
L 50.030493 224.193239 
L 52.623084 224.193239 
L 55.215674 224.193239 
L 57.808265 224.193239 
L 60.400855 224.193239 
L 62.993446 224.193239 
L 65.586036 224.193239 
L 68.178627 224.193239 
L 70.771217 224.193239 
L 73.363808 224.193239 
L 75.956398 224.193239 
L 78.548988 224.193239 
L 81.141579 224.193239 
L 83.734169 224.193239 
L 86.32676 224.193239 
L 88.91935 224.193239 
L 91.511941 224.193239 
L 94.104531 224.193239 
L 96.697122 224.193239 
L 99.289712 224.193239 
L 101.882303 224.193239 
L 104.474893 224.193239 
L 107.067484 224.193239 
L 109.660074 224.193239 
L 112.252664 224.193239 
L 114.845255 224.193239 
L 117.437845 224.193239 
L 120.030436 224.193239 
L 122.623026 224.193239 
L 125.215617 224.193239 
L 127.808207 224.193239 
L 130.400798 224.193239 
L 132.993388 224.193239 
L 135.585979 224.193239 
L 138.178569 224.193239 
L 140.77116 224.193239 
L 143.36375 224.193239 
L 145.95634 224.193239 
L 148.548931 224.193239 
L 151.141521 224.193239 
L 153.734112 224.193239 
L 156.326702 224.193239 
L 158.919293 224.193239 
L 161.511883 224.193239 
L 164.104474 224.193239 
L 166.697064 224.193239 
L 169.289655 17.533011 
L 171.882245 17.533011 
L 174.474836 17.533011 
L 177.067426 17.533011 
L 179.660016 17.533011 
L 182.252607 17.533011 
L 184.845197 17.533011 
L 187.437788 17.533011 
L 190.030378 17.533011 
L 192.622969 17.533011 
L 195.215559 17.533011 
L 197.80815 17.533011 
L 200.40074 17.533011 
L 202.993331 17.533011 
L 205.585921 17.533011 
L 208.178512 17.533011 
L 210.771102 17.533011 
L 213.363692 17.533011 
L 215.956283 17.533011 
L 218.548873 17.533011 
L 221.141464 17.533011 
L 223.734054 17.533011 
L 226.326645 17.533011 
L 228.919235 17.533011 
L 231.511826 17.533011 
L 234.104416 17.533011 
L 236.697007 17.533011 
L 239.289597 17.533011 
L 241.882187 17.533011 
L 244.474778 17.533011 
L 247.067368 17.533011 
L 249.659959 17.533011 
L 252.252549 17.533011 
L 254.84514 17.533011 
L 257.43773 17.533011 
L 260.030321 17.533011 
L 262.622911 17.533011 
L 265.215502 17.533011 
L 267.808092 17.533011 
L 270.400683 17.533011 
L 272.993273 17.533011 
L 275.585863 17.533011 
L 278.178454 17.533011 
L 280.771044 17.533011 
L 283.363635 17.533011 
L 285.956225 17.533011 
L 288.548816 17.533011 
L 291.141406 17.533011 
" style="fill:none;stroke:#1f77b4;stroke-linecap:square;stroke-width:1.5;"/>
   </g>
   <g id="line2d_16">
    <path clip-path="url(#p8905e8a822)" d="M 44.845312 224.193239 
L 47.437903 224.193239 
L 50.030493 224.193239 
L 52.623084 224.193239 
L 55.215674 224.193239 
L 57.808265 224.193239 
L 60.400855 224.193239 
L 62.993446 224.193239 
L 65.586036 224.193239 
L 68.178627 224.193239 
L 70.771217 224.193239 
L 73.363808 224.193239 
L 75.956398 224.193239 
L 78.548988 224.193239 
L 81.141579 224.193239 
L 83.734169 224.193239 
L 86.32676 224.193239 
L 88.91935 224.193239 
L 91.511941 224.193239 
L 94.104531 224.193239 
L 96.697122 224.193239 
L 99.289712 224.193239 
L 101.882303 224.193239 
L 104.474893 224.193239 
L 107.067484 224.193239 
L 109.660074 224.193239 
L 112.252664 224.193239 
L 114.845255 224.193239 
L 117.437845 224.193239 
L 120.030436 224.193239 
L 122.623026 224.193239 
L 125.215617 224.193239 
L 127.808207 224.193239 
L 130.400798 224.193239 
L 132.993388 224.193239 
L 135.585979 224.193239 
L 138.178569 224.193239 
L 140.77116 224.193239 
L 143.36375 224.193239 
L 145.95634 224.193237 
L 148.548931 17.533011 
L 151.141521 17.533011 
L 153.734112 17.533011 
L 156.326702 17.533011 
L 158.919293 17.533011 
L 161.511883 17.533011 
L 164.104474 17.533011 
L 166.697064 17.533011 
L 169.289655 120.863125 
L 171.882245 86.419754 
L 174.474836 155.306496 
L 177.067426 86.419754 
L 179.660016 120.863125 
L 182.252607 86.419754 
L 184.845197 120.863125 
L 187.437788 120.863125 
L 190.030378 51.976383 
L 192.622969 17.533011 
L 195.215559 51.976383 
L 197.80815 86.419754 
L 200.40074 86.419754 
L 202.993331 51.976383 
L 205.585921 86.419754 
L 208.178512 51.976383 
L 210.771102 17.533012 
L 213.363692 17.533012 
L 215.956283 17.533011 
L 218.548873 17.533011 
L 221.141464 17.533011 
L 223.734054 17.533011 
L 226.326645 17.533011 
L 228.919235 17.533011 
L 231.511826 17.533011 
L 234.104416 17.533011 
L 236.697007 51.976383 
L 239.289597 51.976383 
L 241.882187 17.533011 
L 244.474778 17.533011 
L 247.067368 17.533011 
L 249.659959 17.533011 
L 252.252549 17.533011 
L 254.84514 17.533011 
L 257.43773 17.533011 
L 260.030321 17.533011 
L 262.622911 17.533011 
L 265.215502 51.976383 
L 267.808092 17.533011 
L 270.400683 51.976383 
L 272.993273 51.976383 
L 275.585863 51.976383 
L 278.178454 86.419754 
L 280.771044 86.419754 
L 283.363635 86.419754 
L 285.956225 86.419754 
L 288.548816 86.419754 
L 291.141406 17.533011 
" style="fill:none;stroke:#ff7f0e;stroke-linecap:square;stroke-width:1.5;"/>
   </g>
   <g id="line2d_17">
    <path clip-path="url(#p8905e8a822)" d="M 169.289655 234.52625 
L 169.289655 7.2 
" style="fill:none;stroke:#ff0000;stroke-linecap:square;stroke-width:1.5;"/>
   </g>
   <g id="patch_3">
    <path d="M 44.845313 234.52625 
L 44.845313 7.2 
" style="fill:none;stroke:#000000;stroke-linecap:square;stroke-linejoin:miter;stroke-width:0.8;"/>
   </g>
   <g id="patch_4">
    <path d="M 291.141406 234.52625 
L 291.141406 7.2 
" style="fill:none;stroke:#000000;stroke-linecap:square;stroke-linejoin:miter;stroke-width:0.8;"/>
   </g>
   <g id="patch_5">
    <path d="M 44.845312 234.52625 
L 291.141406 234.52625 
" style="fill:none;stroke:#000000;stroke-linecap:square;stroke-linejoin:miter;stroke-width:0.8;"/>
   </g>
   <g id="patch_6">
    <path d="M 44.845312 7.2 
L 291.141406 7.2 
" style="fill:none;stroke:#000000;stroke-linecap:square;stroke-linejoin:miter;stroke-width:0.8;"/>
   </g>
   <g id="legend_1">
    <g id="patch_7">
     <path d="M 51.845313 44.55625 
L 174.223438 44.55625 
Q 176.223438 44.55625 176.223438 42.55625 
L 176.223438 14.2 
Q 176.223438 12.2 174.223438 12.2 
L 51.845313 12.2 
Q 49.845313 12.2 49.845313 14.2 
L 49.845313 42.55625 
Q 49.845313 44.55625 51.845313 44.55625 
z
" style="fill:#ffffff;opacity:0.8;stroke:#cccccc;stroke-linejoin:miter;"/>
    </g>
    <g id="line2d_18">
     <path d="M 53.845313 20.298438 
L 73.845313 20.298438 
" style="fill:none;stroke:#1f77b4;stroke-linecap:square;stroke-width:1.5;"/>
    </g>
    <g id="line2d_19"/>
    <g id="text_14">
     <!-- deterministic -->
     <g transform="translate(81.845313 23.798438)scale(0.1 -0.1)">
      <defs>
       <path d="M 45.40625 46.390625 
L 45.40625 75.984375 
L 54.390625 75.984375 
L 54.390625 0 
L 45.40625 0 
L 45.40625 8.203125 
Q 42.578125 3.328125 38.25 0.953125 
Q 33.9375 -1.421875 27.875 -1.421875 
Q 17.96875 -1.421875 11.734375 6.484375 
Q 5.515625 14.40625 5.515625 27.296875 
Q 5.515625 40.1875 11.734375 48.09375 
Q 17.96875 56 27.875 56 
Q 33.9375 56 38.25 53.625 
Q 42.578125 51.265625 45.40625 46.390625 
z
M 14.796875 27.296875 
Q 14.796875 17.390625 18.875 11.75 
Q 22.953125 6.109375 30.078125 6.109375 
Q 37.203125 6.109375 41.296875 11.75 
Q 45.40625 17.390625 45.40625 27.296875 
Q 45.40625 37.203125 41.296875 42.84375 
Q 37.203125 48.484375 30.078125 48.484375 
Q 22.953125 48.484375 18.875 42.84375 
Q 14.796875 37.203125 14.796875 27.296875 
z
" id="DejaVuSans-100"/>
       <path d="M 56.203125 29.59375 
L 56.203125 25.203125 
L 14.890625 25.203125 
Q 15.484375 15.921875 20.484375 11.0625 
Q 25.484375 6.203125 34.421875 6.203125 
Q 39.59375 6.203125 44.453125 7.46875 
Q 49.3125 8.734375 54.109375 11.28125 
L 54.109375 2.78125 
Q 49.265625 0.734375 44.1875 -0.34375 
Q 39.109375 -1.421875 33.890625 -1.421875 
Q 20.796875 -1.421875 13.15625 6.1875 
Q 5.515625 13.8125 5.515625 26.8125 
Q 5.515625 40.234375 12.765625 48.109375 
Q 20.015625 56 32.328125 56 
Q 43.359375 56 49.78125 48.890625 
Q 56.203125 41.796875 56.203125 29.59375 
z
M 47.21875 32.234375 
Q 47.125 39.59375 43.09375 43.984375 
Q 39.0625 48.390625 32.421875 48.390625 
Q 24.90625 48.390625 20.390625 44.140625 
Q 15.875 39.890625 15.1875 32.171875 
z
" id="DejaVuSans-101"/>
       <path d="M 18.3125 70.21875 
L 18.3125 54.6875 
L 36.8125 54.6875 
L 36.8125 47.703125 
L 18.3125 47.703125 
L 18.3125 18.015625 
Q 18.3125 11.328125 20.140625 9.421875 
Q 21.96875 7.515625 27.59375 7.515625 
L 36.8125 7.515625 
L 36.8125 0 
L 27.59375 0 
Q 17.1875 0 13.234375 3.875 
Q 9.28125 7.765625 9.28125 18.015625 
L 9.28125 47.703125 
L 2.6875 47.703125 
L 2.6875 54.6875 
L 9.28125 54.6875 
L 9.28125 70.21875 
z
" id="DejaVuSans-116"/>
       <path d="M 41.109375 46.296875 
Q 39.59375 47.171875 37.8125 47.578125 
Q 36.03125 48 33.890625 48 
Q 26.265625 48 22.1875 43.046875 
Q 18.109375 38.09375 18.109375 28.8125 
L 18.109375 0 
L 9.078125 0 
L 9.078125 54.6875 
L 18.109375 54.6875 
L 18.109375 46.1875 
Q 20.953125 51.171875 25.484375 53.578125 
Q 30.03125 56 36.53125 56 
Q 37.453125 56 38.578125 55.875 
Q 39.703125 55.765625 41.0625 55.515625 
z
" id="DejaVuSans-114"/>
       <path d="M 52 44.1875 
Q 55.375 50.25 60.0625 53.125 
Q 64.75 56 71.09375 56 
Q 79.640625 56 84.28125 50.015625 
Q 88.921875 44.046875 88.921875 33.015625 
L 88.921875 0 
L 79.890625 0 
L 79.890625 32.71875 
Q 79.890625 40.578125 77.09375 44.375 
Q 74.3125 48.1875 68.609375 48.1875 
Q 61.625 48.1875 57.5625 43.546875 
Q 53.515625 38.921875 53.515625 30.90625 
L 53.515625 0 
L 44.484375 0 
L 44.484375 32.71875 
Q 44.484375 40.625 41.703125 44.40625 
Q 38.921875 48.1875 33.109375 48.1875 
Q 26.21875 48.1875 22.15625 43.53125 
Q 18.109375 38.875 18.109375 30.90625 
L 18.109375 0 
L 9.078125 0 
L 9.078125 54.6875 
L 18.109375 54.6875 
L 18.109375 46.1875 
Q 21.1875 51.21875 25.484375 53.609375 
Q 29.78125 56 35.6875 56 
Q 41.65625 56 45.828125 52.96875 
Q 50 49.953125 52 44.1875 
z
" id="DejaVuSans-109"/>
       <path d="M 9.421875 54.6875 
L 18.40625 54.6875 
L 18.40625 0 
L 9.421875 0 
z
M 9.421875 75.984375 
L 18.40625 75.984375 
L 18.40625 64.59375 
L 9.421875 64.59375 
z
" id="DejaVuSans-105"/>
       <path d="M 44.28125 53.078125 
L 44.28125 44.578125 
Q 40.484375 46.53125 36.375 47.5 
Q 32.28125 48.484375 27.875 48.484375 
Q 21.1875 48.484375 17.84375 46.4375 
Q 14.5 44.390625 14.5 40.28125 
Q 14.5 37.15625 16.890625 35.375 
Q 19.28125 33.59375 26.515625 31.984375 
L 29.59375 31.296875 
Q 39.15625 29.25 43.1875 25.515625 
Q 47.21875 21.78125 47.21875 15.09375 
Q 47.21875 7.46875 41.1875 3.015625 
Q 35.15625 -1.421875 24.609375 -1.421875 
Q 20.21875 -1.421875 15.453125 -0.5625 
Q 10.6875 0.296875 5.421875 2 
L 5.421875 11.28125 
Q 10.40625 8.6875 15.234375 7.390625 
Q 20.0625 6.109375 24.8125 6.109375 
Q 31.15625 6.109375 34.5625 8.28125 
Q 37.984375 10.453125 37.984375 14.40625 
Q 37.984375 18.0625 35.515625 20.015625 
Q 33.0625 21.96875 24.703125 23.78125 
L 21.578125 24.515625 
Q 13.234375 26.265625 9.515625 29.90625 
Q 5.8125 33.546875 5.8125 39.890625 
Q 5.8125 47.609375 11.28125 51.796875 
Q 16.75 56 26.8125 56 
Q 31.78125 56 36.171875 55.265625 
Q 40.578125 54.546875 44.28125 53.078125 
z
" id="DejaVuSans-115"/>
       <path d="M 48.78125 52.59375 
L 48.78125 44.1875 
Q 44.96875 46.296875 41.140625 47.34375 
Q 37.3125 48.390625 33.40625 48.390625 
Q 24.65625 48.390625 19.8125 42.84375 
Q 14.984375 37.3125 14.984375 27.296875 
Q 14.984375 17.28125 19.8125 11.734375 
Q 24.65625 6.203125 33.40625 6.203125 
Q 37.3125 6.203125 41.140625 7.25 
Q 44.96875 8.296875 48.78125 10.40625 
L 48.78125 2.09375 
Q 45.015625 0.34375 40.984375 -0.53125 
Q 36.96875 -1.421875 32.421875 -1.421875 
Q 20.0625 -1.421875 12.78125 6.34375 
Q 5.515625 14.109375 5.515625 27.296875 
Q 5.515625 40.671875 12.859375 48.328125 
Q 20.21875 56 33.015625 56 
Q 37.15625 56 41.109375 55.140625 
Q 45.0625 54.296875 48.78125 52.59375 
z
" id="DejaVuSans-99"/>
      </defs>
      <use xlink:href="#DejaVuSans-100"/>
      <use x="63.476562" xlink:href="#DejaVuSans-101"/>
      <use x="125" xlink:href="#DejaVuSans-116"/>
      <use x="164.208984" xlink:href="#DejaVuSans-101"/>
      <use x="225.732422" xlink:href="#DejaVuSans-114"/>
      <use x="265.095703" xlink:href="#DejaVuSans-109"/>
      <use x="362.507812" xlink:href="#DejaVuSans-105"/>
      <use x="390.291016" xlink:href="#DejaVuSans-110"/>
      <use x="453.669922" xlink:href="#DejaVuSans-105"/>
      <use x="481.453125" xlink:href="#DejaVuSans-115"/>
      <use x="533.552734" xlink:href="#DejaVuSans-116"/>
      <use x="572.761719" xlink:href="#DejaVuSans-105"/>
      <use x="600.544922" xlink:href="#DejaVuSans-99"/>
     </g>
    </g>
    <g id="line2d_20">
     <path d="M 53.845313 34.976563 
L 73.845313 34.976563 
" style="fill:none;stroke:#ff7f0e;stroke-linecap:square;stroke-width:1.5;"/>
    </g>
    <g id="line2d_21"/>
    <g id="text_15">
     <!-- slp (future: mean) -->
     <g transform="translate(81.845313 38.476563)scale(0.1 -0.1)">
      <defs>
       <path d="M 9.421875 75.984375 
L 18.40625 75.984375 
L 18.40625 0 
L 9.421875 0 
z
" id="DejaVuSans-108"/>
       <path d="M 18.109375 8.203125 
L 18.109375 -20.796875 
L 9.078125 -20.796875 
L 9.078125 54.6875 
L 18.109375 54.6875 
L 18.109375 46.390625 
Q 20.953125 51.265625 25.265625 53.625 
Q 29.59375 56 35.59375 56 
Q 45.5625 56 51.78125 48.09375 
Q 58.015625 40.1875 58.015625 27.296875 
Q 58.015625 14.40625 51.78125 6.484375 
Q 45.5625 -1.421875 35.59375 -1.421875 
Q 29.59375 -1.421875 25.265625 0.953125 
Q 20.953125 3.328125 18.109375 8.203125 
z
M 48.6875 27.296875 
Q 48.6875 37.203125 44.609375 42.84375 
Q 40.53125 48.484375 33.40625 48.484375 
Q 26.265625 48.484375 22.1875 42.84375 
Q 18.109375 37.203125 18.109375 27.296875 
Q 18.109375 17.390625 22.1875 11.75 
Q 26.265625 6.109375 33.40625 6.109375 
Q 40.53125 6.109375 44.609375 11.75 
Q 48.6875 17.390625 48.6875 27.296875 
z
" id="DejaVuSans-112"/>
       <path id="DejaVuSans-32"/>
       <path d="M 31 75.875 
Q 24.46875 64.65625 21.28125 53.65625 
Q 18.109375 42.671875 18.109375 31.390625 
Q 18.109375 20.125 21.3125 9.0625 
Q 24.515625 -2 31 -13.1875 
L 23.1875 -13.1875 
Q 15.875 -1.703125 12.234375 9.375 
Q 8.59375 20.453125 8.59375 31.390625 
Q 8.59375 42.28125 12.203125 53.3125 
Q 15.828125 64.359375 23.1875 75.875 
z
" id="DejaVuSans-40"/>
       <path d="M 37.109375 75.984375 
L 37.109375 68.5 
L 28.515625 68.5 
Q 23.6875 68.5 21.796875 66.546875 
Q 19.921875 64.59375 19.921875 59.515625 
L 19.921875 54.6875 
L 34.71875 54.6875 
L 34.71875 47.703125 
L 19.921875 47.703125 
L 19.921875 0 
L 10.890625 0 
L 10.890625 47.703125 
L 2.296875 47.703125 
L 2.296875 54.6875 
L 10.890625 54.6875 
L 10.890625 58.5 
Q 10.890625 67.625 15.140625 71.796875 
Q 19.390625 75.984375 28.609375 75.984375 
z
" id="DejaVuSans-102"/>
       <path d="M 8.5 21.578125 
L 8.5 54.6875 
L 17.484375 54.6875 
L 17.484375 21.921875 
Q 17.484375 14.15625 20.5 10.265625 
Q 23.53125 6.390625 29.59375 6.390625 
Q 36.859375 6.390625 41.078125 11.03125 
Q 45.3125 15.671875 45.3125 23.6875 
L 45.3125 54.6875 
L 54.296875 54.6875 
L 54.296875 0 
L 45.3125 0 
L 45.3125 8.40625 
Q 42.046875 3.421875 37.71875 1 
Q 33.40625 -1.421875 27.6875 -1.421875 
Q 18.265625 -1.421875 13.375 4.4375 
Q 8.5 10.296875 8.5 21.578125 
z
M 31.109375 56 
z
" id="DejaVuSans-117"/>
       <path d="M 11.71875 12.40625 
L 22.015625 12.40625 
L 22.015625 0 
L 11.71875 0 
z
M 11.71875 51.703125 
L 22.015625 51.703125 
L 22.015625 39.3125 
L 11.71875 39.3125 
z
" id="DejaVuSans-58"/>
       <path d="M 8.015625 75.875 
L 15.828125 75.875 
Q 23.140625 64.359375 26.78125 53.3125 
Q 30.421875 42.28125 30.421875 31.390625 
Q 30.421875 20.453125 26.78125 9.375 
Q 23.140625 -1.703125 15.828125 -13.1875 
L 8.015625 -13.1875 
Q 14.5 -2 17.703125 9.0625 
Q 20.90625 20.125 20.90625 31.390625 
Q 20.90625 42.671875 17.703125 53.65625 
Q 14.5 64.65625 8.015625 75.875 
z
" id="DejaVuSans-41"/>
      </defs>
      <use xlink:href="#DejaVuSans-115"/>
      <use x="52.099609" xlink:href="#DejaVuSans-108"/>
      <use x="79.882812" xlink:href="#DejaVuSans-112"/>
      <use x="143.359375" xlink:href="#DejaVuSans-32"/>
      <use x="175.146484" xlink:href="#DejaVuSans-40"/>
      <use x="214.160156" xlink:href="#DejaVuSans-102"/>
      <use x="249.365234" xlink:href="#DejaVuSans-117"/>
      <use x="312.744141" xlink:href="#DejaVuSans-116"/>
      <use x="351.953125" xlink:href="#DejaVuSans-117"/>
      <use x="415.332031" xlink:href="#DejaVuSans-114"/>
      <use x="454.195312" xlink:href="#DejaVuSans-101"/>
      <use x="515.71875" xlink:href="#DejaVuSans-58"/>
      <use x="549.410156" xlink:href="#DejaVuSans-32"/>
      <use x="581.197266" xlink:href="#DejaVuSans-109"/>
      <use x="678.609375" xlink:href="#DejaVuSans-101"/>
      <use x="740.132812" xlink:href="#DejaVuSans-97"/>
      <use x="801.412109" xlink:href="#DejaVuSans-110"/>
      <use x="864.791016" xlink:href="#DejaVuSans-41"/>
     </g>
    </g>
   </g>
  </g>
  <g id="axes_2">
   <g id="patch_8">
    <path d="M 315.303906 234.52625 
L 561.6 234.52625 
L 561.6 7.2 
L 315.303906 7.2 
z
" style="fill:#ffffff;"/>
   </g>
   <g id="matplotlib.axis_3">
    <g id="xtick_6">
     <g id="line2d_22">
      <g>
       <use style="stroke:#000000;stroke-width:0.8;" x="315.303906" xlink:href="#m1f85ad7bc8" y="234.52625"/>
      </g>
     </g>
     <g id="text_16">
      <!-- 01 -->
      <g transform="translate(308.941406 249.124688)scale(0.1 -0.1)">
       <use xlink:href="#DejaVuSans-48"/>
       <use x="63.623047" xlink:href="#DejaVuSans-49"/>
      </g>
      <!-- Jan -->
      <g transform="translate(307.596094 260.3225)scale(0.1 -0.1)">
       <use xlink:href="#DejaVuSans-74"/>
       <use x="29.492188" xlink:href="#DejaVuSans-97"/>
       <use x="90.771484" xlink:href="#DejaVuSans-110"/>
      </g>
      <!-- 2021 -->
      <g transform="translate(302.578906 271.520313)scale(0.1 -0.1)">
       <use xlink:href="#DejaVuSans-50"/>
       <use x="63.623047" xlink:href="#DejaVuSans-48"/>
       <use x="127.246094" xlink:href="#DejaVuSans-50"/>
       <use x="190.869141" xlink:href="#DejaVuSans-49"/>
      </g>
     </g>
    </g>
    <g id="xtick_7">
     <g id="line2d_23">
      <g>
       <use style="stroke:#000000;stroke-width:0.8;" x="561.6" xlink:href="#m1f85ad7bc8" y="234.52625"/>
      </g>
     </g>
    </g>
    <g id="xtick_8">
     <g id="line2d_24">
      <g>
       <use style="stroke:#000000;stroke-width:0.6;" x="377.526077" xlink:href="#md2410af102" y="234.52625"/>
      </g>
     </g>
     <g id="text_17">
      <!-- 02 -->
      <g transform="translate(371.163577 247.524688)scale(0.1 -0.1)">
       <use xlink:href="#DejaVuSans-48"/>
       <use x="63.623047" xlink:href="#DejaVuSans-50"/>
      </g>
     </g>
    </g>
    <g id="xtick_9">
     <g id="line2d_25">
      <g>
       <use style="stroke:#000000;stroke-width:0.6;" x="439.748248" xlink:href="#md2410af102" y="234.52625"/>
      </g>
     </g>
     <g id="text_18">
      <!-- 03 -->
      <g transform="translate(433.385748 247.524688)scale(0.1 -0.1)">
       <use xlink:href="#DejaVuSans-48"/>
       <use x="63.623047" xlink:href="#DejaVuSans-51"/>
      </g>
     </g>
    </g>
    <g id="xtick_10">
     <g id="line2d_26">
      <g>
       <use style="stroke:#000000;stroke-width:0.6;" x="501.970419" xlink:href="#md2410af102" y="234.52625"/>
      </g>
     </g>
     <g id="text_19">
      <!-- 04 -->
      <g transform="translate(495.607919 247.524688)scale(0.1 -0.1)">
       <use xlink:href="#DejaVuSans-48"/>
       <use x="63.623047" xlink:href="#DejaVuSans-52"/>
      </g>
     </g>
    </g>
   </g>
   <g id="matplotlib.axis_4">
    <g id="ytick_10">
     <g id="line2d_27">
      <g>
       <use style="stroke:#000000;stroke-width:0.8;" x="315.303906" xlink:href="#m992ae67eaf" y="189.534291"/>
      </g>
     </g>
     <g id="text_20">
      <!-- 0 -->
      <g transform="translate(301.941406 193.33351)scale(0.1 -0.1)">
       <use xlink:href="#DejaVuSans-48"/>
      </g>
     </g>
    </g>
    <g id="ytick_11">
     <g id="line2d_28">
      <g>
       <use style="stroke:#000000;stroke-width:0.8;" x="315.303906" xlink:href="#m992ae67eaf" y="141.733494"/>
      </g>
     </g>
     <g id="text_21">
      <!-- 2 -->
      <g transform="translate(301.941406 145.532713)scale(0.1 -0.1)">
       <use xlink:href="#DejaVuSans-50"/>
      </g>
     </g>
    </g>
    <g id="ytick_12">
     <g id="line2d_29">
      <g>
       <use style="stroke:#000000;stroke-width:0.8;" x="315.303906" xlink:href="#m992ae67eaf" y="93.932698"/>
      </g>
     </g>
     <g id="text_22">
      <!-- 4 -->
      <g transform="translate(301.941406 97.731916)scale(0.1 -0.1)">
       <use xlink:href="#DejaVuSans-52"/>
      </g>
     </g>
    </g>
    <g id="ytick_13">
     <g id="line2d_30">
      <g>
       <use style="stroke:#000000;stroke-width:0.8;" x="315.303906" xlink:href="#m992ae67eaf" y="46.131901"/>
      </g>
     </g>
     <g id="text_23">
      <!-- 6 -->
      <g transform="translate(301.941406 49.93112)scale(0.1 -0.1)">
       <defs>
        <path d="M 33.015625 40.375 
Q 26.375 40.375 22.484375 35.828125 
Q 18.609375 31.296875 18.609375 23.390625 
Q 18.609375 15.53125 22.484375 10.953125 
Q 26.375 6.390625 33.015625 6.390625 
Q 39.65625 6.390625 43.53125 10.953125 
Q 47.40625 15.53125 47.40625 23.390625 
Q 47.40625 31.296875 43.53125 35.828125 
Q 39.65625 40.375 33.015625 40.375 
z
M 52.59375 71.296875 
L 52.59375 62.3125 
Q 48.875 64.0625 45.09375 64.984375 
Q 41.3125 65.921875 37.59375 65.921875 
Q 27.828125 65.921875 22.671875 59.328125 
Q 17.53125 52.734375 16.796875 39.40625 
Q 19.671875 43.65625 24.015625 45.921875 
Q 28.375 48.1875 33.59375 48.1875 
Q 44.578125 48.1875 50.953125 41.515625 
Q 57.328125 34.859375 57.328125 23.390625 
Q 57.328125 12.15625 50.6875 5.359375 
Q 44.046875 -1.421875 33.015625 -1.421875 
Q 20.359375 -1.421875 13.671875 8.265625 
Q 6.984375 17.96875 6.984375 36.375 
Q 6.984375 53.65625 15.1875 63.9375 
Q 23.390625 74.21875 37.203125 74.21875 
Q 40.921875 74.21875 44.703125 73.484375 
Q 48.484375 72.75 52.59375 71.296875 
z
" id="DejaVuSans-54"/>
       </defs>
       <use xlink:href="#DejaVuSans-54"/>
      </g>
     </g>
    </g>
   </g>
   <g id="line2d_31">
    <path clip-path="url(#p1fcb9c9282)" d="M 315.303906 159.821375 
L 317.896497 160.456419 
L 320.489087 161.058962 
L 323.081678 161.627959 
L 325.674268 162.162422 
L 328.266859 162.661423 
L 330.859449 163.124096 
L 333.452039 163.549638 
L 336.04463 163.937311 
L 338.63722 164.28644 
L 341.229811 164.596421 
L 343.822401 164.866715 
L 346.414992 165.096853 
L 349.007582 165.286436 
L 351.600173 165.435134 
L 354.192763 165.542689 
L 356.785354 165.608915 
L 359.377944 165.633696 
L 361.970535 165.61699 
L 364.563125 165.558825 
L 367.155715 165.459304 
L 369.748306 165.318597 
L 372.340896 165.13695 
L 374.933487 164.914678 
L 377.526077 164.652166 
L 380.118668 164.349871 
L 382.711258 164.008317 
L 385.303849 163.628098 
L 387.896439 163.209872 
L 390.48903 162.754366 
L 393.08162 162.262371 
L 395.674211 161.73474 
L 398.266801 161.172391 
L 400.859391 160.576298 
L 403.451982 159.947496 
L 406.044572 159.287078 
L 408.637163 158.596189 
L 411.229753 157.876029 
L 413.822344 157.127847 
L 416.414934 156.352944 
L 419.007525 155.552662 
L 421.600115 154.728393 
L 424.192706 153.881567 
L 426.785296 153.013653 
L 429.377887 152.126158 
L 431.970477 151.220623 
L 434.563067 150.29862 
L 437.155658 149.361749 
L 439.748248 148.411636 
L 442.340839 147.449931 
L 444.933429 146.478303 
L 447.52602 145.498439 
L 450.11861 144.512039 
L 452.711201 143.520816 
L 455.303791 142.526491 
L 457.896382 141.530789 
L 460.488972 140.535439 
L 463.081562 139.542168 
L 465.674153 138.552702 
L 468.266743 137.568757 
L 470.859334 136.592041 
L 473.451924 135.62425 
L 476.044515 134.667064 
L 478.637105 133.722144 
L 481.229696 132.791131 
L 483.822286 131.87564 
L 486.414877 130.977262 
L 489.007467 130.097554 
L 491.600058 129.238045 
L 494.192648 128.400227 
L 496.785238 127.585553 
L 499.377829 126.795438 
L 501.970419 126.031253 
L 504.56301 125.294325 
L 507.1556 124.585933 
L 509.748191 123.907307 
L 512.340781 123.259625 
L 514.933372 122.644011 
L 517.525962 122.061533 
L 520.118553 121.513204 
L 522.711143 120.999973 
L 525.303734 120.522734 
L 527.896324 120.082313 
L 530.488914 119.679476 
L 533.081505 119.314921 
L 535.674095 118.989282 
L 538.266686 118.703124 
L 540.859276 118.456943 
L 543.451867 118.251167 
L 546.044457 118.086153 
L 548.637048 117.962187 
L 551.229638 117.879485 
L 553.822229 117.838191 
L 556.414819 117.838375 
L 559.00741 117.880038 
L 561.6 117.963107 
" style="fill:none;stroke:#1f77b4;stroke-dasharray:1.5,2.475;stroke-dashoffset:0;stroke-width:1.5;"/>
   </g>
   <g id="line2d_32">
    <path clip-path="url(#p1fcb9c9282)" d="M 315.303906 159.821375 
L 317.896497 160.456419 
L 320.489087 161.058962 
L 323.081678 161.627959 
L 325.674268 162.162422 
L 328.266859 162.661423 
L 330.859449 163.124096 
L 333.452039 163.549638 
L 336.04463 163.937311 
L 338.63722 164.28644 
L 341.229811 164.596421 
L 343.822401 164.866715 
L 346.414992 165.096853 
L 349.007582 165.286436 
L 351.600173 165.435134 
L 354.192763 165.542689 
L 356.785354 165.608915 
L 359.377944 165.633696 
L 361.970535 165.61699 
L 364.563125 165.558825 
L 367.155715 165.459304 
L 369.748306 165.318597 
L 372.340896 165.13695 
L 374.933487 164.914678 
L 377.526077 164.652166 
L 380.118668 164.349871 
L 382.711258 164.008317 
L 385.303849 163.628098 
L 387.896439 163.209872 
L 390.48903 162.754366 
L 393.08162 162.262371 
L 395.674211 161.73474 
L 398.266801 161.172391 
L 400.859391 160.576298 
L 403.451982 159.947496 
L 406.044572 159.287078 
L 408.637163 158.596189 
L 411.229753 157.876029 
L 413.822344 157.127847 
L 416.414934 156.352944 
L 419.007525 155.552662 
L 421.600115 154.728393 
L 424.192706 153.881567 
L 426.785296 153.013653 
L 429.377887 152.126158 
L 431.970477 151.220623 
L 434.563067 150.29862 
L 437.155658 149.361749 
L 439.748248 148.411636 
L 442.340839 135.753841 
L 444.933429 108.035954 
L 447.52602 122.520667 
L 450.11861 133.947993 
L 452.711201 112.119062 
L 455.303791 120.661745 
L 457.896382 119.311323 
L 460.488972 105.537434 
L 463.081562 93.900045 
L 465.674153 71.939339 
L 468.266743 53.082149 
L 470.859334 39.325977 
L 473.451924 47.59221 
L 476.044515 37.136256 
L 478.637105 32.435723 
L 481.229696 47.353847 
L 483.822286 29.50135 
L 486.414877 18.956334 
L 489.007467 17.533011 
L 491.600058 19.458999 
L 494.192648 32.941118 
L 496.785238 29.742091 
L 499.377829 23.354035 
L 501.970419 32.522318 
L 504.56301 17.896821 
L 507.1556 30.300224 
L 509.748191 54.99307 
L 512.340781 41.920442 
L 514.933372 46.125132 
L 517.525962 47.048733 
L 520.118553 56.508895 
L 522.711143 75.18724 
L 525.303734 59.709664 
L 527.896324 67.501364 
L 530.488914 47.249814 
L 533.081505 37.237766 
L 535.674095 40.673549 
L 538.266686 53.364141 
L 540.859276 61.871027 
L 543.451867 76.155143 
L 546.044457 51.048709 
L 548.637048 48.959638 
L 551.229638 35.131751 
L 553.822229 50.235566 
L 556.414819 48.072344 
L 559.00741 34.038322 
L 561.6 38.124837 
" style="fill:none;stroke:#ff7f0e;stroke-dasharray:1.5,2.475;stroke-dashoffset:0;stroke-width:1.5;"/>
   </g>
   <g id="line2d_33">
    <path clip-path="url(#p1fcb9c9282)" d="M 315.303906 159.821375 
L 317.896497 160.456419 
L 320.489087 161.058962 
L 323.081678 161.627959 
L 325.674268 162.162422 
L 328.266859 162.661423 
L 330.859449 163.124096 
L 333.452039 163.549638 
L 336.04463 163.937311 
L 338.63722 164.28644 
L 341.229811 164.596421 
L 343.822401 164.866715 
L 346.414992 165.096853 
L 349.007582 165.286436 
L 351.600173 165.435134 
L 354.192763 165.542689 
L 356.785354 165.608915 
L 359.377944 165.633696 
L 361.970535 165.61699 
L 364.563125 165.558825 
L 367.155715 165.459304 
L 369.748306 165.318597 
L 372.340896 165.13695 
L 374.933487 164.914678 
L 377.526077 164.652166 
L 380.118668 164.349871 
L 382.711258 164.008317 
L 385.303849 163.628098 
L 387.896439 163.209872 
L 390.48903 162.754366 
L 393.08162 162.262371 
L 395.674211 161.73474 
L 398.266801 161.172391 
L 400.859391 160.576298 
L 403.451982 159.947496 
L 406.044572 159.287078 
L 408.637163 158.596189 
L 411.229753 157.876029 
L 413.822344 157.127847 
L 416.414934 156.352944 
L 419.007525 155.552662 
L 421.600115 154.728393 
L 424.192706 153.881567 
L 426.785296 153.013653 
L 429.377887 152.126158 
L 431.970477 151.220623 
L 434.563067 150.29862 
L 437.155658 149.361749 
L 439.748248 148.411636 
L 442.340839 160.410733 
L 444.933429 175.732862 
L 447.52602 170.219085 
L 450.11861 173.763919 
L 452.711201 165.100015 
L 455.303791 187.741844 
L 457.896382 178.234438 
L 460.488972 146.188838 
L 463.081562 145.489853 
L 465.674153 144.092382 
L 468.266743 140.962784 
L 470.859334 162.237049 
L 473.451924 156.176721 
L 476.044515 174.404501 
L 478.637105 178.570438 
L 481.229696 162.786886 
L 483.822286 170.657384 
L 486.414877 163.76898 
L 489.007467 150.78684 
L 491.600058 146.596322 
L 494.192648 162.141611 
L 496.785238 165.300082 
L 499.377829 141.094611 
L 501.970419 164.530127 
L 504.56301 167.088897 
L 507.1556 172.978307 
L 509.748191 170.856725 
L 512.340781 161.267718 
L 514.933372 141.427926 
L 517.525962 144.074779 
L 520.118553 133.818809 
L 522.711143 127.333585 
L 525.303734 121.1878 
L 527.896324 127.486383 
L 530.488914 139.001736 
L 533.081505 151.782915 
L 535.674095 160.496852 
L 538.266686 156.366475 
L 540.859276 147.026797 
L 543.451867 142.955504 
L 546.044457 149.350612 
L 548.637048 127.644944 
L 551.229638 109.411496 
L 553.822229 113.600573 
L 556.414819 123.440927 
L 559.00741 121.926495 
L 561.6 106.865093 
" style="fill:none;stroke:#2ca02c;stroke-dasharray:1.5,2.475;stroke-dashoffset:0;stroke-width:1.5;"/>
   </g>
   <g id="line2d_34">
    <path clip-path="url(#p1fcb9c9282)" d="M 315.303906 159.821375 
L 317.896497 160.456419 
L 320.489087 161.058962 
L 323.081678 161.627959 
L 325.674268 162.162422 
L 328.266859 162.661423 
L 330.859449 163.124096 
L 333.452039 163.549638 
L 336.04463 163.937311 
L 338.63722 164.28644 
L 341.229811 164.596421 
L 343.822401 164.866715 
L 346.414992 165.096853 
L 349.007582 165.286436 
L 351.600173 165.435134 
L 354.192763 165.542689 
L 356.785354 165.608915 
L 359.377944 165.633696 
L 361.970535 165.61699 
L 364.563125 165.558825 
L 367.155715 165.459304 
L 369.748306 165.318597 
L 372.340896 165.13695 
L 374.933487 164.914678 
L 377.526077 164.652166 
L 380.118668 164.349871 
L 382.711258 164.008317 
L 385.303849 163.628098 
L 387.896439 163.209872 
L 390.48903 162.754366 
L 393.08162 162.262371 
L 395.674211 161.73474 
L 398.266801 161.172391 
L 400.859391 160.576298 
L 403.451982 159.947496 
L 406.044572 159.287078 
L 408.637163 158.596189 
L 411.229753 157.876029 
L 413.822344 157.127847 
L 416.414934 156.352944 
L 419.007525 155.552662 
L 421.600115 154.728393 
L 424.192706 153.881567 
L 426.785296 153.013653 
L 429.377887 152.126158 
L 431.970477 151.220623 
L 434.563067 150.29862 
L 437.155658 149.361749 
L 439.748248 148.411636 
L 442.340839 140.799063 
L 444.933429 142.361835 
L 447.52602 135.929442 
L 450.11861 116.485429 
L 452.711201 118.358296 
L 455.303791 115.651414 
L 457.896382 111.622555 
L 460.488972 107.23663 
L 463.081562 123.115713 
L 465.674153 144.555201 
L 468.266743 155.756337 
L 470.859334 152.772677 
L 473.451924 145.186195 
L 476.044515 150.570675 
L 478.637105 133.167254 
L 481.229696 133.947223 
L 483.822286 132.788952 
L 486.414877 134.20848 
L 489.007467 131.727126 
L 491.600058 122.449011 
L 494.192648 113.656502 
L 496.785238 123.578161 
L 499.377829 104.57996 
L 501.970419 116.90156 
L 504.56301 115.217853 
L 507.1556 117.788555 
L 509.748191 129.645589 
L 512.340781 129.895612 
L 514.933372 138.13287 
L 517.525962 136.679137 
L 520.118553 131.313849 
L 522.711143 113.21077 
L 525.303734 109.060228 
L 527.896324 115.924072 
L 530.488914 120.201169 
L 533.081505 118.163848 
L 535.674095 116.721334 
L 538.266686 98.992793 
L 540.859276 82.071867 
L 543.451867 86.155446 
L 546.044457 92.546815 
L 548.637048 122.980161 
L 551.229638 129.457168 
L 553.822229 141.103857 
L 556.414819 145.344265 
L 559.00741 140.706418 
L 561.6 138.672003 
" style="fill:none;stroke:#d62728;stroke-dasharray:1.5,2.475;stroke-dashoffset:0;stroke-width:1.5;"/>
   </g>
   <g id="line2d_35">
    <path clip-path="url(#p1fcb9c9282)" d="M 315.303906 159.821375 
L 317.896497 160.456419 
L 320.489087 161.058962 
L 323.081678 161.627959 
L 325.674268 162.162422 
L 328.266859 162.661423 
L 330.859449 163.124096 
L 333.452039 163.549638 
L 336.04463 163.937311 
L 338.63722 164.28644 
L 341.229811 164.596421 
L 343.822401 164.866715 
L 346.414992 165.096853 
L 349.007582 165.286436 
L 351.600173 165.435134 
L 354.192763 165.542689 
L 356.785354 165.608915 
L 359.377944 165.633696 
L 361.970535 165.61699 
L 364.563125 165.558825 
L 367.155715 165.459304 
L 369.748306 165.318597 
L 372.340896 165.13695 
L 374.933487 164.914678 
L 377.526077 164.652166 
L 380.118668 164.349871 
L 382.711258 164.008317 
L 385.303849 163.628098 
L 387.896439 163.209872 
L 390.48903 162.754366 
L 393.08162 162.262371 
L 395.674211 161.73474 
L 398.266801 161.172391 
L 400.859391 160.576298 
L 403.451982 159.947496 
L 406.044572 159.287078 
L 408.637163 158.596189 
L 411.229753 157.876029 
L 413.822344 157.127847 
L 416.414934 156.352944 
L 419.007525 155.552662 
L 421.600115 154.728393 
L 424.192706 153.881567 
L 426.785296 153.013653 
L 429.377887 152.126158 
L 431.970477 151.220623 
L 434.563067 150.29862 
L 437.155658 149.361749 
L 439.748248 148.411636 
L 442.340839 145.064885 
L 444.933429 145.600389 
L 447.52602 142.26611 
L 450.11861 179.891461 
L 452.711201 182.118349 
L 455.303791 182.448712 
L 457.896382 185.531155 
L 460.488972 187.140306 
L 463.081562 177.74234 
L 465.674153 183.900351 
L 468.266743 156.617578 
L 470.859334 147.415577 
L 473.451924 146.523158 
L 476.044515 148.035628 
L 478.637105 148.124667 
L 481.229696 158.131755 
L 483.822286 158.353954 
L 486.414877 154.125252 
L 489.007467 146.319907 
L 491.600058 138.53299 
L 494.192648 140.980012 
L 496.785238 157.087803 
L 499.377829 164.293598 
L 501.970419 144.263385 
L 504.56301 132.818382 
L 507.1556 127.692963 
L 509.748191 136.111955 
L 512.340781 135.420712 
L 514.933372 149.810589 
L 517.525962 155.823867 
L 520.118553 158.205766 
L 522.711143 162.014205 
L 525.303734 150.105382 
L 527.896324 166.619018 
L 530.488914 176.558269 
L 533.081505 192.621509 
L 535.674095 207.082487 
L 538.266686 205.313836 
L 540.859276 224.193239 
L 543.451867 214.978581 
L 546.044457 217.763064 
L 548.637048 216.817064 
L 551.229638 212.879506 
L 553.822229 218.026588 
L 556.414819 205.688434 
L 559.00741 208.052531 
L 561.6 201.036342 
" style="fill:none;stroke:#9467bd;stroke-dasharray:1.5,2.475;stroke-dashoffset:0;stroke-width:1.5;"/>
   </g>
   <g id="line2d_36">
    <path clip-path="url(#p1fcb9c9282)" d="M 439.748248 234.52625 
L 439.748248 7.2 
" style="fill:none;stroke:#ff0000;stroke-linecap:square;stroke-width:1.5;"/>
   </g>
   <g id="patch_9">
    <path d="M 315.303906 234.52625 
L 315.303906 7.2 
" style="fill:none;stroke:#000000;stroke-linecap:square;stroke-linejoin:miter;stroke-width:0.8;"/>
   </g>
   <g id="patch_10">
    <path d="M 561.6 234.52625 
L 561.6 7.2 
" style="fill:none;stroke:#000000;stroke-linecap:square;stroke-linejoin:miter;stroke-width:0.8;"/>
   </g>
   <g id="patch_11">
    <path d="M 315.303906 234.52625 
L 561.6 234.52625 
" style="fill:none;stroke:#000000;stroke-linecap:square;stroke-linejoin:miter;stroke-width:0.8;"/>
   </g>
   <g id="patch_12">
    <path d="M 315.303906 7.2 
L 561.6 7.2 
" style="fill:none;stroke:#000000;stroke-linecap:square;stroke-linejoin:miter;stroke-width:0.8;"/>
   </g>
   <g id="legend_2">
    <g id="patch_13">
     <path d="M 322.303906 88.590625 
L 405.660156 88.590625 
Q 407.660156 88.590625 407.660156 86.590625 
L 407.660156 14.2 
Q 407.660156 12.2 405.660156 12.2 
L 322.303906 12.2 
Q 320.303906 12.2 320.303906 14.2 
L 320.303906 86.590625 
Q 320.303906 88.590625 322.303906 88.590625 
z
" style="fill:#ffffff;opacity:0.8;stroke:#cccccc;stroke-linejoin:miter;"/>
    </g>
    <g id="line2d_37">
     <path d="M 324.303906 20.298438 
L 344.303906 20.298438 
" style="fill:none;stroke:#1f77b4;stroke-dasharray:1.5,2.475;stroke-dashoffset:0;stroke-width:1.5;"/>
    </g>
    <g id="line2d_38"/>
    <g id="text_24">
     <!-- start price -->
     <g transform="translate(352.303906 23.798438)scale(0.1 -0.1)">
      <use xlink:href="#DejaVuSans-115"/>
      <use x="52.099609" xlink:href="#DejaVuSans-116"/>
      <use x="91.308594" xlink:href="#DejaVuSans-97"/>
      <use x="152.587891" xlink:href="#DejaVuSans-114"/>
      <use x="193.701172" xlink:href="#DejaVuSans-116"/>
      <use x="232.910156" xlink:href="#DejaVuSans-32"/>
      <use x="264.697266" xlink:href="#DejaVuSans-112"/>
      <use x="328.173828" xlink:href="#DejaVuSans-114"/>
      <use x="369.287109" xlink:href="#DejaVuSans-105"/>
      <use x="397.070312" xlink:href="#DejaVuSans-99"/>
      <use x="452.050781" xlink:href="#DejaVuSans-101"/>
     </g>
    </g>
    <g id="line2d_39">
     <path d="M 324.303906 34.976563 
L 344.303906 34.976563 
" style="fill:none;stroke:#ff7f0e;stroke-dasharray:1.5,2.475;stroke-dashoffset:0;stroke-width:1.5;"/>
    </g>
    <g id="line2d_40"/>
    <g id="text_25">
     <!-- sample 1 -->
     <g transform="translate(352.303906 38.476563)scale(0.1 -0.1)">
      <use xlink:href="#DejaVuSans-115"/>
      <use x="52.099609" xlink:href="#DejaVuSans-97"/>
      <use x="113.378906" xlink:href="#DejaVuSans-109"/>
      <use x="210.791016" xlink:href="#DejaVuSans-112"/>
      <use x="274.267578" xlink:href="#DejaVuSans-108"/>
      <use x="302.050781" xlink:href="#DejaVuSans-101"/>
      <use x="363.574219" xlink:href="#DejaVuSans-32"/>
      <use x="395.361328" xlink:href="#DejaVuSans-49"/>
     </g>
    </g>
    <g id="line2d_41">
     <path d="M 324.303906 49.654688 
L 344.303906 49.654688 
" style="fill:none;stroke:#2ca02c;stroke-dasharray:1.5,2.475;stroke-dashoffset:0;stroke-width:1.5;"/>
    </g>
    <g id="line2d_42"/>
    <g id="text_26">
     <!-- sample 2 -->
     <g transform="translate(352.303906 53.154688)scale(0.1 -0.1)">
      <use xlink:href="#DejaVuSans-115"/>
      <use x="52.099609" xlink:href="#DejaVuSans-97"/>
      <use x="113.378906" xlink:href="#DejaVuSans-109"/>
      <use x="210.791016" xlink:href="#DejaVuSans-112"/>
      <use x="274.267578" xlink:href="#DejaVuSans-108"/>
      <use x="302.050781" xlink:href="#DejaVuSans-101"/>
      <use x="363.574219" xlink:href="#DejaVuSans-32"/>
      <use x="395.361328" xlink:href="#DejaVuSans-50"/>
     </g>
    </g>
    <g id="line2d_43">
     <path d="M 324.303906 64.332813 
L 344.303906 64.332813 
" style="fill:none;stroke:#d62728;stroke-dasharray:1.5,2.475;stroke-dashoffset:0;stroke-width:1.5;"/>
    </g>
    <g id="line2d_44"/>
    <g id="text_27">
     <!-- sample 3 -->
     <g transform="translate(352.303906 67.832813)scale(0.1 -0.1)">
      <use xlink:href="#DejaVuSans-115"/>
      <use x="52.099609" xlink:href="#DejaVuSans-97"/>
      <use x="113.378906" xlink:href="#DejaVuSans-109"/>
      <use x="210.791016" xlink:href="#DejaVuSans-112"/>
      <use x="274.267578" xlink:href="#DejaVuSans-108"/>
      <use x="302.050781" xlink:href="#DejaVuSans-101"/>
      <use x="363.574219" xlink:href="#DejaVuSans-32"/>
      <use x="395.361328" xlink:href="#DejaVuSans-51"/>
     </g>
    </g>
    <g id="line2d_45">
     <path d="M 324.303906 79.010938 
L 344.303906 79.010938 
" style="fill:none;stroke:#9467bd;stroke-dasharray:1.5,2.475;stroke-dashoffset:0;stroke-width:1.5;"/>
    </g>
    <g id="line2d_46"/>
    <g id="text_28">
     <!-- sample 4 -->
     <g transform="translate(352.303906 82.510938)scale(0.1 -0.1)">
      <use xlink:href="#DejaVuSans-115"/>
      <use x="52.099609" xlink:href="#DejaVuSans-97"/>
      <use x="113.378906" xlink:href="#DejaVuSans-109"/>
      <use x="210.791016" xlink:href="#DejaVuSans-112"/>
      <use x="274.267578" xlink:href="#DejaVuSans-108"/>
      <use x="302.050781" xlink:href="#DejaVuSans-101"/>
      <use x="363.574219" xlink:href="#DejaVuSans-32"/>
      <use x="395.361328" xlink:href="#DejaVuSans-52"/>
     </g>
    </g>
   </g>
  </g>
 </g>
 <defs>
  <clipPath id="p8905e8a822">
   <rect height="227.32625" width="246.296094" x="44.845313" y="7.2"/>
  </clipPath>
  <clipPath id="p1fcb9c9282">
   <rect height="227.32625" width="246.296094" x="315.303906" y="7.2"/>
  </clipPath>
 </defs>
</svg>
