<?xml version="1.0" encoding="utf-8" standalone="no"?>
<!DOCTYPE svg PUBLIC "-//W3C//DTD SVG 1.1//EN"
  "http://www.w3.org/Graphics/SVG/1.1/DTD/svg11.dtd">
<!-- Created with matplotlib (https://matplotlib.org/) -->
<svg height="231.84pt" version="1.1" viewBox="0 0 349.2 231.84" width="349.2pt" xmlns="http://www.w3.org/2000/svg" xmlns:xlink="http://www.w3.org/1999/xlink">
 <metadata>
  <rdf:RDF xmlns:cc="http://creativecommons.org/ns#" xmlns:dc="http://purl.org/dc/elements/1.1/" xmlns:rdf="http://www.w3.org/1999/02/22-rdf-syntax-ns#">
   <cc:Work>
    <dc:type rdf:resource="http://purl.org/dc/dcmitype/StillImage"/>
    <dc:date>2021-04-09T14:44:50.964170</dc:date>
    <dc:format>image/svg+xml</dc:format>
    <dc:creator>
     <cc:Agent>
      <dc:title>Matplotlib v3.3.2, https://matplotlib.org/</dc:title>
     </cc:Agent>
    </dc:creator>
   </cc:Work>
  </rdf:RDF>
 </metadata>
 <defs>
  <style type="text/css">*{stroke-linecap:butt;stroke-linejoin:round;}</style>
 </defs>
 <g id="figure_1">
  <g id="patch_1">
   <path d="M 0 231.84 
L 349.2 231.84 
L 349.2 0 
L 0 0 
z
" style="fill:none;"/>
  </g>
  <g id="axes_1">
   <g id="line2d_1">
    <path clip-path="url(#pe2b628ac1a)" d="M 7.2 83.349575 
L 8.757209 86.622585 
L 10.314419 102.407423 
L 11.871628 105.51397 
L 13.428837 69.985039 
L 14.986047 81.545316 
L 16.543256 76.534359 
L 18.100465 105.784398 
L 19.657674 101.963422 
L 21.214884 80.33486 
L 22.772093 87.274848 
L 24.329302 72.794022 
L 25.886512 86.54431 
L 27.443721 66.631932 
L 29.00093 99.200965 
L 30.55814 87.645019 
L 32.115349 77.790958 
L 33.672558 70.376462 
L 35.229767 75.659622 
L 36.786977 69.195969 
L 38.344186 68.017837 
L 39.901395 104.652351 
L 41.458605 100.904587 
L 43.015814 89.984574 
L 44.573023 67.697007 
L 46.130233 76.802001 
L 47.687442 74.779578 
L 49.244651 69.213812 
L 50.80186 102.421001 
L 52.35907 80.533513 
L 53.916279 96.846818 
L 55.473488 87.31762 
L 57.030698 92.331577 
L 58.587907 96.144596 
L 60.145116 92.728157 
L 61.702326 72.860448 
L 63.259535 95.888211 
L 64.816744 76.586695 
L 66.373953 82.466373 
L 67.931163 98.153231 
L 69.488372 76.528922 
L 71.045581 79.262562 
L 72.602791 71.583322 
L 74.16 94.368492 
L 75.717209 66.335203 
L 77.274419 104.861146 
L 78.831628 80.659505 
L 80.388837 72.473669 
L 81.946047 87.868149 
L 83.503256 85.297474 
L 85.060465 78.761549 
L 86.617674 74.508132 
L 88.174884 91.373624 
L 89.732093 101.967588 
L 91.289302 81.943896 
L 92.846512 70.991784 
L 94.403721 103.198186 
L 95.96093 98.385557 
L 97.51814 67.166916 
L 99.075349 106.303919 
L 100.632558 80.313868 
L 102.189767 76.793509 
L 103.746977 76.302729 
L 105.304186 92.168792 
L 106.861395 77.114976 
L 108.418605 82.375884 
L 109.975814 100.479901 
L 111.533023 71.18282 
L 113.090233 91.098382 
L 114.647442 96.010318 
L 116.204651 73.770102 
L 117.76186 77.679498 
L 119.31907 81.079914 
L 120.876279 107.033969 
L 122.433488 98.081635 
L 123.990698 104.641443 
L 125.547907 90.274702 
L 127.105116 67.041725 
L 128.662326 92.340804 
L 130.219535 98.5156 
L 131.776744 80.277799 
L 133.333953 101.68892 
L 134.891163 73.861357 
L 136.448372 88.280001 
L 138.005581 83.656513 
L 139.562791 77.425548 
L 141.12 100.727522 
L 142.677209 80.150541 
L 144.234419 95.63481 
L 145.791628 85.563517 
L 147.348837 100.573881 
L 148.906047 87.490205 
L 150.463256 77.875103 
L 152.020465 108.036938 
L 153.577674 83.204842 
L 155.134884 106.197438 
L 156.692093 76.631172 
L 158.249302 70.708409 
L 159.806512 101.726632 
L 161.363721 77.325845 
L 162.92093 96.276612 
L 164.47814 93.915971 
L 166.035349 68.81846 
L 167.592558 103.495486 
L 169.149767 87.150301 
L 170.706977 97.889128 
L 172.264186 86.327511 
L 173.821395 68.779335 
L 175.378605 95.232135 
L 176.935814 71.259821 
L 178.493023 94.049565 
L 180.050233 96.669476 
L 181.607442 99.758085 
L 183.164651 107.818299 
L 184.72186 106.990622 
L 186.27907 92.38982 
L 187.836279 90.019212 
L 189.393488 91.636436 
L 190.950698 80.304465 
L 192.507907 74.141514 
L 194.065116 79.322183 
L 195.622326 76.599286 
L 197.179535 90.942893 
L 198.736744 107.184313 
L 200.293953 86.332867 
L 201.851163 72.553301 
L 203.408372 87.557169 
L 204.965581 71.44531 
L 206.522791 89.593923 
L 208.08 71.518437 
L 209.637209 67.57786 
L 211.194419 78.468555 
L 212.751628 79.78183 
L 214.308837 78.200658 
L 215.866047 73.603048 
L 217.423256 88.219387 
L 218.980465 95.737214 
L 220.537674 75.059556 
L 222.094884 100.392992 
L 223.652093 76.495139 
L 225.209302 104.288086 
L 226.766512 96.933993 
L 228.323721 66.311764 
L 229.88093 107.426745 
L 231.43814 68.207782 
L 232.995349 90.470213 
L 234.552558 106.841812 
L 236.109767 92.463938 
L 237.666977 68.239671 
L 239.224186 75.88735 
L 240.781395 95.959888 
L 242.338605 94.108584 
L 243.895814 67.06278 
L 245.453023 68.569429 
L 247.010233 79.718709 
L 248.567442 84.396077 
L 250.124651 82.011965 
L 251.68186 88.767182 
L 253.23907 78.446234 
L 254.796279 99.919672 
L 256.353488 75.357029 
L 257.910698 80.559039 
L 259.467907 66.759843 
L 261.025116 93.732923 
L 262.582326 69.264593 
L 264.139535 81.56188 
L 265.696744 76.934079 
L 267.253953 78.272314 
L 268.811163 69.198964 
L 270.368372 73.485727 
L 271.925581 99.502595 
L 273.482791 88.503053 
L 275.04 95.084125 
L 276.597209 67.442578 
L 278.154419 98.944063 
L 279.711628 97.266724 
L 281.268837 74.189322 
L 282.826047 76.487923 
L 284.383256 80.098899 
L 285.940465 80.419028 
L 287.497674 83.722836 
L 289.054884 67.472635 
L 290.612093 80.893114 
L 292.169302 74.43329 
L 293.726512 97.910482 
L 295.283721 97.097309 
L 296.84093 83.86095 
L 298.39814 74.151571 
L 299.955349 76.954254 
L 301.512558 73.720261 
L 303.069767 75.801704 
L 304.626977 86.892039 
L 306.184186 87.838993 
L 307.741395 83.204426 
L 309.298605 97.096716 
L 310.855814 88.959711 
L 312.413023 89.064821 
L 313.970233 106.947625 
L 315.527442 81.033705 
L 317.084651 70.940828 
L 318.64186 77.994771 
L 320.19907 100.585348 
L 321.756279 91.98454 
L 323.313488 101.957043 
L 324.870698 100.600965 
L 326.427907 78.90027 
L 327.985116 94.808968 
L 329.542326 93.594632 
L 331.099535 83.202522 
L 332.656744 85.741446 
L 334.213953 77.280544 
L 335.771163 93.921984 
L 337.328372 97.025051 
L 338.885581 81.729499 
L 340.442791 74.565877 
L 342 84.770723 
L 342 84.770723 
" style="fill:none;stroke:#1f77b4;stroke-linecap:square;stroke-width:1.5;"/>
   </g>
   <g id="line2d_2">
    <path clip-path="url(#pe2b628ac1a)" d="M 7.2 108.151357 
L 16.543256 108.151357 
L 19.657674 87.130081 
L 21.214884 78.422783 
L 22.772093 71.741439 
L 24.329302 67.54137 
L 25.886512 66.108805 
L 27.443721 67.54137 
L 29.00093 71.741439 
L 30.55814 78.422783 
L 32.115349 87.130081 
L 33.672558 97.269944 
L 35.229767 108.151357 
L 53.916279 108.151357 
L 57.030698 87.130081 
L 58.587907 78.422783 
L 60.145116 71.741439 
L 61.702326 67.54137 
L 63.259535 66.108805 
L 64.816744 67.54137 
L 66.373953 71.741439 
L 67.931163 78.422783 
L 69.488372 87.130081 
L 71.045581 97.269944 
L 72.602791 108.151357 
L 91.289302 108.151357 
L 94.403721 87.130081 
L 95.96093 78.422783 
L 97.51814 71.741439 
L 99.075349 67.54137 
L 100.632558 66.108805 
L 102.189767 67.54137 
L 103.746977 71.741439 
L 105.304186 78.422783 
L 106.861395 87.130081 
L 108.418605 97.269944 
L 109.975814 108.151357 
L 128.662326 108.151357 
L 131.776744 87.130081 
L 133.333953 78.422783 
L 134.891163 71.741439 
L 136.448372 67.54137 
L 138.005581 66.108805 
L 139.562791 67.54137 
L 141.12 71.741439 
L 142.677209 78.422783 
L 144.234419 87.130081 
L 145.791628 97.269944 
L 147.348837 108.151357 
L 166.035349 108.151357 
L 169.149767 87.130081 
L 170.706977 78.422783 
L 172.264186 71.741439 
L 173.821395 67.54137 
L 175.378605 66.108805 
L 176.935814 67.54137 
L 178.493023 71.741439 
L 180.050233 78.422783 
L 181.607442 87.130081 
L 183.164651 97.269944 
L 184.72186 108.151357 
L 203.408372 108.151357 
L 206.522791 87.130081 
L 208.08 78.422783 
L 209.637209 71.741439 
L 211.194419 67.54137 
L 212.751628 66.108805 
L 214.308837 67.54137 
L 215.866047 71.741439 
L 217.423256 78.422783 
L 218.980465 87.130081 
L 220.537674 97.269944 
L 222.094884 108.151357 
L 240.781395 108.151357 
L 243.895814 87.130081 
L 245.453023 78.422783 
L 247.010233 71.741439 
L 248.567442 67.54137 
L 250.124651 66.108805 
L 251.68186 67.54137 
L 253.23907 71.741439 
L 254.796279 78.422783 
L 256.353488 87.130081 
L 257.910698 97.269944 
L 259.467907 108.151357 
L 278.154419 108.151357 
L 281.268837 87.130081 
L 282.826047 78.422783 
L 284.383256 71.741439 
L 285.940465 67.54137 
L 287.497674 66.108805 
L 289.054884 67.54137 
L 290.612093 71.741439 
L 292.169302 78.422783 
L 293.726512 87.130081 
L 295.283721 97.269944 
L 296.84093 108.151357 
L 315.527442 108.151357 
L 318.64186 87.130081 
L 320.19907 78.422783 
L 321.756279 71.741439 
L 323.313488 67.54137 
L 324.870698 66.108805 
L 326.427907 67.54137 
L 327.985116 71.741439 
L 329.542326 78.422783 
L 331.099535 87.130081 
L 332.656744 97.269944 
L 334.213953 108.151357 
L 342 108.151357 
L 342 108.151357 
" style="fill:none;stroke:#ff7f0e;stroke-linecap:square;stroke-width:1.5;"/>
   </g>
   <g id="line2d_3">
    <path clip-path="url(#pe2b628ac1a)" d="M 7.2 108.151357 
L 16.543256 108.151357 
L 18.100465 31.171568 
L 19.657674 44.416569 
L 21.214884 108.151357 
L 38.344186 108.151357 
L 39.901395 97.10087 
L 41.458605 103.521884 
L 43.015814 108.151357 
L 44.573023 108.151357 
L 46.130233 76.738226 
L 47.687442 70.186336 
L 49.244651 108.151357 
L 81.946047 108.151357 
L 83.503256 68.242753 
L 85.060465 66.204365 
L 86.617674 96.371742 
L 88.174884 100.97749 
L 89.732093 76.478457 
L 91.289302 108.151357 
L 105.304186 108.151357 
L 106.861395 61.57651 
L 108.418605 108.151357 
L 109.975814 105.933215 
L 111.533023 96.729495 
L 113.090233 108.151357 
L 122.433488 108.151357 
L 123.990698 66.238432 
L 125.547907 102.076412 
L 127.105116 108.151357 
L 128.662326 41.950368 
L 130.219535 22.063522 
L 133.333953 108.151357 
L 144.234419 108.151357 
L 145.791628 106.268634 
L 147.348837 105.839235 
L 148.906047 59.76096 
L 150.463256 90.877742 
L 152.020465 93.716282 
L 153.577674 108.151357 
L 164.47814 108.151357 
L 166.035349 68.869985 
L 167.592558 17.083636 
L 169.149767 59.229691 
L 170.706977 107.220058 
L 172.264186 108.151357 
L 186.27907 108.151357 
L 187.836279 78.733634 
L 189.393488 108.151357 
L 194.065116 108.151357 
L 195.622326 76.940941 
L 197.179535 108.151357 
L 204.965581 108.151357 
L 206.522791 64.634019 
L 208.08 108.151357 
L 231.43814 108.151357 
L 232.995349 63.070014 
L 234.552558 38.124102 
L 236.109767 92.73373 
L 237.666977 108.151357 
L 270.368372 108.151357 
L 271.925581 45.463321 
L 273.482791 82.376822 
L 275.04 97.266989 
L 276.597209 108.151357 
L 278.154419 38.744381 
L 279.711628 108.151357 
L 292.169302 108.151357 
L 293.726512 92.83866 
L 295.283721 94.734841 
L 296.84093 108.151357 
L 298.39814 93.760744 
L 299.955349 93.777787 
L 301.512558 108.151357 
L 312.413023 108.151357 
L 313.970233 90.223901 
L 315.527442 56.654739 
L 317.084651 49.638294 
L 318.64186 68.385221 
L 320.19907 104.523839 
L 321.756279 108.151357 
L 334.213953 108.151357 
L 335.771163 73.990331 
L 337.328372 71.727795 
L 338.885581 108.151357 
L 342 108.151357 
L 342 108.151357 
" style="fill:none;stroke:#2ca02c;stroke-linecap:square;stroke-width:1.5;"/>
   </g>
   <g id="line2d_4">
    <path clip-path="url(#pe2b628ac1a)" d="M 7.2 108.151357 
L 11.871628 108.151357 
L 13.428837 122.366075 
L 14.986047 108.151357 
L 29.00093 108.151357 
L 30.55814 142.579055 
L 32.115349 112.958184 
L 33.672558 121.455689 
L 35.229767 130.753495 
L 36.786977 108.151357 
L 71.045581 108.151357 
L 72.602791 134.829795 
L 74.16 108.151357 
L 77.274419 108.151357 
L 78.831628 121.043154 
L 80.388837 108.151357 
L 95.96093 108.151357 
L 97.51814 183.102659 
L 99.075349 118.142733 
L 100.632558 108.151357 
L 114.647442 108.151357 
L 116.204651 130.656369 
L 117.76186 137.442374 
L 120.876279 108.151357 
L 134.891163 108.151357 
L 136.448372 162.248611 
L 138.005581 152.705752 
L 141.12 119.329018 
L 142.677209 108.151357 
L 155.134884 108.151357 
L 156.692093 125.885377 
L 158.249302 108.151357 
L 176.935814 108.151358 
L 178.493023 129.994064 
L 180.050233 134.545178 
L 181.607442 108.151357 
L 218.980465 108.151357 
L 220.537674 116.772594 
L 222.094884 126.93807 
L 223.652093 108.151359 
L 243.895814 108.151358 
L 245.453023 136.539757 
L 247.010233 170.550866 
L 248.567442 108.151358 
L 262.582326 108.151357 
L 264.139535 120.19134 
L 265.696744 127.492392 
L 267.253953 136.849559 
L 268.811163 108.151358 
L 281.268837 108.151357 
L 282.826047 128.621263 
L 284.383256 170.170676 
L 285.940465 170.109584 
L 287.497674 152.639429 
L 289.054884 145.550405 
L 290.612093 108.151357 
L 303.069767 108.151358 
L 304.626977 128.229833 
L 306.184186 115.913904 
L 307.741395 108.151357 
L 323.313488 108.151357 
L 324.870698 135.7613 
L 326.427907 134.12277 
L 327.985116 129.234661 
L 329.542326 137.620022 
L 331.099535 108.151357 
L 342 108.151357 
L 342 108.151357 
" style="fill:none;stroke:#d62728;stroke-linecap:square;stroke-width:1.5;"/>
   </g>
   <g id="line2d_5">
    <path clip-path="url(#pe2b628ac1a)" d="M 7.2 120.403323 
L 8.757209 66.917642 
L 10.314419 42.558491 
L 11.871628 65.365905 
L 13.428837 108.151358 
L 14.986047 96.900728 
L 16.543256 61.154084 
L 18.100465 91.774514 
L 21.214884 124.774326 
L 22.772093 162.994727 
L 24.329302 177.73459 
L 25.886512 149.817955 
L 27.443721 146.391107 
L 29.00093 124.842664 
L 30.55814 109.141938 
L 32.115349 108.151357 
L 35.229767 108.151357 
L 36.786977 98.716345 
L 38.344186 100.735009 
L 39.901395 108.151357 
L 41.458605 108.151357 
L 43.015814 125.137299 
L 44.573023 136.05589 
L 46.130233 108.151357 
L 47.687442 108.151357 
L 49.244651 101.666063 
L 50.80186 89.930113 
L 52.35907 97.912532 
L 53.916279 40.841625 
L 55.473488 33.261502 
L 57.030698 54.048414 
L 58.587907 108.96459 
L 60.145116 157.541417 
L 61.702326 177.668164 
L 63.259535 140.474054 
L 64.816744 136.436345 
L 66.373953 141.577257 
L 67.931163 133.061423 
L 69.488372 114.220219 
L 71.045581 112.569588 
L 72.602791 108.151358 
L 74.16 73.543823 
L 75.717209 102.417643 
L 77.274419 96.892074 
L 78.831628 110.87517 
L 80.388837 142.648204 
L 81.946047 115.884748 
L 83.503256 108.151357 
L 89.732093 108.151357 
L 91.289302 55.744548 
L 94.403721 43.181805 
L 95.96093 106.723629 
L 97.51814 108.151357 
L 99.075349 134.233317 
L 100.632558 156.048397 
L 102.189767 136.229531 
L 103.746977 147.7409 
L 105.304186 139.045862 
L 106.861395 160.209013 
L 108.418605 109.456267 
L 109.975814 108.151357 
L 111.533023 108.151357 
L 113.090233 77.654464 
L 114.647442 105.742902 
L 116.204651 108.151358 
L 119.31907 108.151358 
L 120.876279 46.506258 
L 122.433488 46.884279 
L 123.990698 108.151357 
L 125.547907 108.151357 
L 127.105116 111.40432 
L 128.662326 111.54863 
L 130.219535 108.151357 
L 131.776744 108.151357 
L 133.333953 103.420266 
L 134.891163 176.408218 
L 136.448372 108.151358 
L 139.562791 108.151357 
L 141.12 112.138447 
L 142.677209 151.064113 
L 144.234419 95.114331 
L 145.791628 108.151357 
L 147.348837 108.151358 
L 148.906047 128.812507 
L 150.463256 108.151358 
L 152.020465 108.151357 
L 153.577674 121.221629 
L 155.134884 108.924435 
L 156.692093 109.387706 
L 158.249302 82.831818 
L 159.806512 43.239282 
L 161.363721 93.55403 
L 162.92093 96.074502 
L 164.47814 84.530074 
L 166.035349 108.151357 
L 170.706977 108.151358 
L 172.264186 163.942064 
L 173.821395 181.749277 
L 175.378605 141.13013 
L 176.935814 141.763218 
L 178.493023 108.151358 
L 180.050233 108.151357 
L 181.607442 90.991056 
L 183.164651 84.013852 
L 184.72186 99.422494 
L 186.27907 75.522494 
L 187.836279 108.151357 
L 189.393488 110.116784 
L 190.950698 124.122007 
L 192.507907 140.980359 
L 195.622326 108.151357 
L 197.179535 54.023022 
L 198.736744 63.695562 
L 200.293953 106.018247 
L 201.851163 105.892743 
L 203.408372 50.131275 
L 204.965581 49.133812 
L 206.522791 100.303407 
L 208.08 133.590749 
L 209.637209 182.691715 
L 211.194419 172.060057 
L 212.751628 156.580435 
L 214.308837 134.822381 
L 215.866047 150.440581 
L 217.423256 142.995267 
L 218.980465 95.011927 
L 220.537674 108.151357 
L 222.094884 87.233412 
L 223.652093 91.417174 
L 225.209302 64.46476 
L 226.766512 104.819226 
L 228.323721 138.114707 
L 229.88093 107.695127 
L 231.43814 135.545116 
L 232.995349 108.151357 
L 234.552558 108.151357 
L 236.109767 93.833565 
L 237.666977 124.111443 
L 239.224186 102.558694 
L 240.781395 41.728556 
L 242.338605 26.470538 
L 243.895814 79.317211 
L 245.453023 108.151357 
L 247.010233 108.151357 
L 248.567442 166.132534 
L 250.124651 154.3503 
L 251.68186 124.255857 
L 253.23907 145.597395 
L 254.796279 131.294982 
L 256.353488 115.392113 
L 257.910698 111.273111 
L 259.467907 139.653273 
L 261.025116 74.179392 
L 262.582326 99.488253 
L 264.139535 108.151357 
L 267.253953 108.151357 
L 268.811163 134.553933 
L 270.368372 80.0545 
L 271.925581 108.151355 
L 275.04 108.151357 
L 276.597209 111.003466 
L 278.154419 108.151357 
L 279.711628 23.312399 
L 281.268837 72.190669 
L 282.826047 108.151358 
L 289.054884 108.151358 
L 290.612093 143.150515 
L 292.169302 156.781364 
L 293.726512 108.151357 
L 295.283721 108.151357 
L 296.84093 122.552167 
L 298.39814 108.151357 
L 299.955349 106.172163 
L 301.512558 128.032959 
L 303.069767 128.624767 
L 304.626977 108.151357 
L 306.184186 108.151357 
L 307.741395 70.335801 
L 309.298605 47.869199 
L 310.855814 81.920164 
L 312.413023 103.286293 
L 313.970233 89.425875 
L 315.527442 108.151357 
L 320.19907 108.151357 
L 321.756279 158.285035 
L 323.313488 148.571569 
L 324.870698 108.151358 
L 329.542326 108.151357 
L 331.099535 107.54662 
L 332.656744 106.090705 
L 334.213953 129.132572 
L 335.771163 108.151357 
L 337.328372 108.151357 
L 338.885581 120.023721 
L 340.442791 129.860594 
L 342 130.351149 
L 342 130.351149 
" style="fill:none;stroke:#9467bd;stroke-linecap:square;stroke-width:1.5;"/>
   </g>
   <g id="line2d_6">
    <path clip-path="url(#pe2b628ac1a)" d="M 7.2 120.701175 
L 8.757209 170.913845 
L 10.314419 179.488158 
L 11.871628 153.574197 
L 13.428837 132.102958 
L 14.986047 146.008028 
L 16.543256 186.765628 
L 18.100465 214.756364 
L 19.657674 199.095357 
L 21.214884 149.07346 
L 22.772093 110.594416 
L 24.329302 114.535448 
L 25.886512 130.13436 
L 27.443721 152.04102 
L 29.00093 136.820362 
L 30.55814 122.967992 
L 32.115349 154.726207 
L 33.672558 143.503335 
L 35.229767 118.040956 
L 36.786977 156.541758 
L 38.344186 155.701226 
L 39.901395 122.700852 
L 41.458605 120.027601 
L 43.015814 109.3322 
L 44.573023 120.701175 
L 46.130233 170.913845 
L 47.687442 179.488158 
L 49.244651 153.574197 
L 50.80186 132.102958 
L 52.35907 146.008028 
L 53.916279 186.765628 
L 55.473488 214.756364 
L 57.030698 199.095357 
L 58.587907 149.07346 
L 60.145116 110.594416 
L 61.702326 114.535448 
L 63.259535 130.13436 
L 64.816744 152.04102 
L 66.373953 136.820362 
L 67.931163 122.967992 
L 69.488372 154.726207 
L 71.045581 143.503335 
L 72.602791 118.040956 
L 74.16 156.541758 
L 75.717209 155.701226 
L 77.274419 122.700852 
L 78.831628 120.027601 
L 80.388837 109.3322 
L 81.946047 120.701175 
L 83.503256 170.913845 
L 85.060465 179.488158 
L 86.617674 153.574197 
L 88.174884 132.102958 
L 89.732093 146.008028 
L 91.289302 186.765628 
L 92.846512 214.756364 
L 94.403721 199.095357 
L 95.96093 149.07346 
L 97.51814 110.594416 
L 99.075349 114.535448 
L 100.632558 130.13436 
L 102.189767 152.04102 
L 103.746977 136.820362 
L 105.304186 122.967992 
L 106.861395 154.726207 
L 108.418605 143.503335 
L 109.975814 118.040956 
L 111.533023 156.541758 
L 113.090233 155.701226 
L 114.647442 122.700852 
L 116.204651 120.027601 
L 117.76186 109.3322 
L 119.31907 120.701175 
L 120.876279 170.913845 
L 122.433488 179.488158 
L 123.990698 153.574197 
L 125.547907 132.102958 
L 127.105116 146.008028 
L 128.662326 186.765628 
L 130.219535 214.756364 
L 131.776744 199.095357 
L 133.333953 149.07346 
L 134.891163 110.594416 
L 136.448372 114.535448 
L 138.005581 130.13436 
L 139.562791 152.04102 
L 141.12 136.820362 
L 142.677209 122.967992 
L 144.234419 154.726207 
L 145.791628 143.503335 
L 147.348837 118.040956 
L 148.906047 156.541758 
L 150.463256 155.701226 
L 152.020465 122.700852 
L 153.577674 120.027601 
L 155.134884 109.3322 
L 156.692093 120.701175 
L 158.249302 170.913845 
L 159.806512 179.488158 
L 161.363721 153.574197 
L 162.92093 132.102958 
L 164.47814 146.008028 
L 166.035349 186.765628 
L 167.592558 214.756364 
L 169.149767 199.095357 
L 170.706977 149.07346 
L 172.264186 110.594416 
L 173.821395 114.535448 
L 175.378605 130.13436 
L 176.935814 152.04102 
L 178.493023 136.820362 
L 180.050233 122.967992 
L 181.607442 154.726207 
L 183.164651 143.503335 
L 184.72186 118.040956 
L 186.27907 156.541758 
L 187.836279 155.701226 
L 189.393488 122.700852 
L 190.950698 120.027601 
L 192.507907 109.3322 
L 194.065116 120.701175 
L 195.622326 170.913845 
L 197.179535 179.488158 
L 198.736744 153.574197 
L 200.293953 132.102958 
L 201.851163 146.008028 
L 203.408372 186.765628 
L 204.965581 214.756364 
L 206.522791 199.095357 
L 208.08 149.07346 
L 209.637209 110.594416 
L 211.194419 114.535448 
L 212.751628 130.13436 
L 214.308837 152.04102 
L 215.866047 136.820362 
L 217.423256 122.967992 
L 218.980465 154.726207 
L 220.537674 143.503335 
L 222.094884 118.040956 
L 223.652093 156.541758 
L 225.209302 155.701226 
L 226.766512 122.700852 
L 228.323721 120.027601 
L 229.88093 109.3322 
L 231.43814 120.701175 
L 232.995349 170.913845 
L 234.552558 179.488158 
L 236.109767 153.574197 
L 237.666977 132.102958 
L 239.224186 146.008028 
L 240.781395 186.765628 
L 242.338605 214.756364 
L 243.895814 199.095357 
L 245.453023 149.07346 
L 247.010233 110.594416 
L 248.567442 114.535448 
L 250.124651 130.13436 
L 251.68186 152.04102 
L 253.23907 136.820362 
L 254.796279 122.967992 
L 256.353488 154.726207 
L 257.910698 143.503335 
L 259.467907 118.040956 
L 261.025116 156.541758 
L 262.582326 155.701226 
L 264.139535 122.700852 
L 265.696744 120.027601 
L 267.253953 109.3322 
L 268.811163 120.701175 
L 270.368372 170.913845 
L 271.925581 179.488158 
L 273.482791 153.574197 
L 275.04 132.102958 
L 276.597209 146.008028 
L 278.154419 186.765628 
L 279.711628 214.756364 
L 281.268837 199.095357 
L 282.826047 149.07346 
L 284.383256 110.594416 
L 285.940465 114.535448 
L 287.497674 130.13436 
L 289.054884 152.04102 
L 290.612093 136.820362 
L 292.169302 122.967992 
L 293.726512 154.726207 
L 295.283721 143.503335 
L 296.84093 118.040956 
L 298.39814 156.541758 
L 299.955349 155.701226 
L 301.512558 122.700852 
L 303.069767 120.027601 
L 304.626977 109.3322 
L 306.184186 120.701175 
L 307.741395 170.913845 
L 309.298605 179.488158 
L 310.855814 153.574197 
L 312.413023 132.102958 
L 313.970233 146.008028 
L 315.527442 186.765628 
L 317.084651 214.756364 
L 318.64186 199.095357 
L 320.19907 149.07346 
L 321.756279 110.594416 
L 323.313488 114.535448 
L 324.870698 130.13436 
L 326.427907 152.04102 
L 327.985116 136.820362 
L 329.542326 122.967992 
L 331.099535 154.726207 
L 332.656744 143.503335 
L 334.213953 118.040956 
L 335.771163 156.541758 
L 337.328372 155.701226 
L 338.885581 122.700852 
L 340.442791 120.027601 
L 342 109.3322 
L 342 109.3322 
" style="fill:none;stroke:#8c564b;stroke-linecap:square;stroke-width:1.5;"/>
   </g>
   <g id="legend_1">
    <g id="patch_2">
     <path d="M 14.2 219.64 
L 185.184375 219.64 
Q 187.184375 219.64 187.184375 217.64 
L 187.184375 130.57125 
Q 187.184375 128.57125 185.184375 128.57125 
L 14.2 128.57125 
Q 12.2 128.57125 12.2 130.57125 
L 12.2 217.64 
Q 12.2 219.64 14.2 219.64 
z
" style="fill:#ffffff;opacity:0.8;stroke:#cccccc;stroke-linejoin:miter;"/>
    </g>
    <g id="line2d_7">
     <path d="M 16.2 136.669687 
L 36.2 136.669687 
" style="fill:none;stroke:#1f77b4;stroke-linecap:square;stroke-width:1.5;"/>
    </g>
    <g id="line2d_8"/>
    <g id="text_1">
     <!-- wind (green sources) -->
     <g transform="translate(44.2 140.169687)scale(0.1 -0.1)">
      <defs>
       <path d="M 4.203125 54.6875 
L 13.1875 54.6875 
L 24.421875 12.015625 
L 35.59375 54.6875 
L 46.1875 54.6875 
L 57.421875 12.015625 
L 68.609375 54.6875 
L 77.59375 54.6875 
L 63.28125 0 
L 52.6875 0 
L 40.921875 44.828125 
L 29.109375 0 
L 18.5 0 
z
" id="DejaVuSans-119"/>
       <path d="M 9.421875 54.6875 
L 18.40625 54.6875 
L 18.40625 0 
L 9.421875 0 
z
M 9.421875 75.984375 
L 18.40625 75.984375 
L 18.40625 64.59375 
L 9.421875 64.59375 
z
" id="DejaVuSans-105"/>
       <path d="M 54.890625 33.015625 
L 54.890625 0 
L 45.90625 0 
L 45.90625 32.71875 
Q 45.90625 40.484375 42.875 44.328125 
Q 39.84375 48.1875 33.796875 48.1875 
Q 26.515625 48.1875 22.3125 43.546875 
Q 18.109375 38.921875 18.109375 30.90625 
L 18.109375 0 
L 9.078125 0 
L 9.078125 54.6875 
L 18.109375 54.6875 
L 18.109375 46.1875 
Q 21.34375 51.125 25.703125 53.5625 
Q 30.078125 56 35.796875 56 
Q 45.21875 56 50.046875 50.171875 
Q 54.890625 44.34375 54.890625 33.015625 
z
" id="DejaVuSans-110"/>
       <path d="M 45.40625 46.390625 
L 45.40625 75.984375 
L 54.390625 75.984375 
L 54.390625 0 
L 45.40625 0 
L 45.40625 8.203125 
Q 42.578125 3.328125 38.25 0.953125 
Q 33.9375 -1.421875 27.875 -1.421875 
Q 17.96875 -1.421875 11.734375 6.484375 
Q 5.515625 14.40625 5.515625 27.296875 
Q 5.515625 40.1875 11.734375 48.09375 
Q 17.96875 56 27.875 56 
Q 33.9375 56 38.25 53.625 
Q 42.578125 51.265625 45.40625 46.390625 
z
M 14.796875 27.296875 
Q 14.796875 17.390625 18.875 11.75 
Q 22.953125 6.109375 30.078125 6.109375 
Q 37.203125 6.109375 41.296875 11.75 
Q 45.40625 17.390625 45.40625 27.296875 
Q 45.40625 37.203125 41.296875 42.84375 
Q 37.203125 48.484375 30.078125 48.484375 
Q 22.953125 48.484375 18.875 42.84375 
Q 14.796875 37.203125 14.796875 27.296875 
z
" id="DejaVuSans-100"/>
       <path id="DejaVuSans-32"/>
       <path d="M 31 75.875 
Q 24.46875 64.65625 21.28125 53.65625 
Q 18.109375 42.671875 18.109375 31.390625 
Q 18.109375 20.125 21.3125 9.0625 
Q 24.515625 -2 31 -13.1875 
L 23.1875 -13.1875 
Q 15.875 -1.703125 12.234375 9.375 
Q 8.59375 20.453125 8.59375 31.390625 
Q 8.59375 42.28125 12.203125 53.3125 
Q 15.828125 64.359375 23.1875 75.875 
z
" id="DejaVuSans-40"/>
       <path d="M 45.40625 27.984375 
Q 45.40625 37.75 41.375 43.109375 
Q 37.359375 48.484375 30.078125 48.484375 
Q 22.859375 48.484375 18.828125 43.109375 
Q 14.796875 37.75 14.796875 27.984375 
Q 14.796875 18.265625 18.828125 12.890625 
Q 22.859375 7.515625 30.078125 7.515625 
Q 37.359375 7.515625 41.375 12.890625 
Q 45.40625 18.265625 45.40625 27.984375 
z
M 54.390625 6.78125 
Q 54.390625 -7.171875 48.1875 -13.984375 
Q 42 -20.796875 29.203125 -20.796875 
Q 24.46875 -20.796875 20.265625 -20.09375 
Q 16.0625 -19.390625 12.109375 -17.921875 
L 12.109375 -9.1875 
Q 16.0625 -11.328125 19.921875 -12.34375 
Q 23.78125 -13.375 27.78125 -13.375 
Q 36.625 -13.375 41.015625 -8.765625 
Q 45.40625 -4.15625 45.40625 5.171875 
L 45.40625 9.625 
Q 42.625 4.78125 38.28125 2.390625 
Q 33.9375 0 27.875 0 
Q 17.828125 0 11.671875 7.65625 
Q 5.515625 15.328125 5.515625 27.984375 
Q 5.515625 40.671875 11.671875 48.328125 
Q 17.828125 56 27.875 56 
Q 33.9375 56 38.28125 53.609375 
Q 42.625 51.21875 45.40625 46.390625 
L 45.40625 54.6875 
L 54.390625 54.6875 
z
" id="DejaVuSans-103"/>
       <path d="M 41.109375 46.296875 
Q 39.59375 47.171875 37.8125 47.578125 
Q 36.03125 48 33.890625 48 
Q 26.265625 48 22.1875 43.046875 
Q 18.109375 38.09375 18.109375 28.8125 
L 18.109375 0 
L 9.078125 0 
L 9.078125 54.6875 
L 18.109375 54.6875 
L 18.109375 46.1875 
Q 20.953125 51.171875 25.484375 53.578125 
Q 30.03125 56 36.53125 56 
Q 37.453125 56 38.578125 55.875 
Q 39.703125 55.765625 41.0625 55.515625 
z
" id="DejaVuSans-114"/>
       <path d="M 56.203125 29.59375 
L 56.203125 25.203125 
L 14.890625 25.203125 
Q 15.484375 15.921875 20.484375 11.0625 
Q 25.484375 6.203125 34.421875 6.203125 
Q 39.59375 6.203125 44.453125 7.46875 
Q 49.3125 8.734375 54.109375 11.28125 
L 54.109375 2.78125 
Q 49.265625 0.734375 44.1875 -0.34375 
Q 39.109375 -1.421875 33.890625 -1.421875 
Q 20.796875 -1.421875 13.15625 6.1875 
Q 5.515625 13.8125 5.515625 26.8125 
Q 5.515625 40.234375 12.765625 48.109375 
Q 20.015625 56 32.328125 56 
Q 43.359375 56 49.78125 48.890625 
Q 56.203125 41.796875 56.203125 29.59375 
z
M 47.21875 32.234375 
Q 47.125 39.59375 43.09375 43.984375 
Q 39.0625 48.390625 32.421875 48.390625 
Q 24.90625 48.390625 20.390625 44.140625 
Q 15.875 39.890625 15.1875 32.171875 
z
" id="DejaVuSans-101"/>
       <path d="M 44.28125 53.078125 
L 44.28125 44.578125 
Q 40.484375 46.53125 36.375 47.5 
Q 32.28125 48.484375 27.875 48.484375 
Q 21.1875 48.484375 17.84375 46.4375 
Q 14.5 44.390625 14.5 40.28125 
Q 14.5 37.15625 16.890625 35.375 
Q 19.28125 33.59375 26.515625 31.984375 
L 29.59375 31.296875 
Q 39.15625 29.25 43.1875 25.515625 
Q 47.21875 21.78125 47.21875 15.09375 
Q 47.21875 7.46875 41.1875 3.015625 
Q 35.15625 -1.421875 24.609375 -1.421875 
Q 20.21875 -1.421875 15.453125 -0.5625 
Q 10.6875 0.296875 5.421875 2 
L 5.421875 11.28125 
Q 10.40625 8.6875 15.234375 7.390625 
Q 20.0625 6.109375 24.8125 6.109375 
Q 31.15625 6.109375 34.5625 8.28125 
Q 37.984375 10.453125 37.984375 14.40625 
Q 37.984375 18.0625 35.515625 20.015625 
Q 33.0625 21.96875 24.703125 23.78125 
L 21.578125 24.515625 
Q 13.234375 26.265625 9.515625 29.90625 
Q 5.8125 33.546875 5.8125 39.890625 
Q 5.8125 47.609375 11.28125 51.796875 
Q 16.75 56 26.8125 56 
Q 31.78125 56 36.171875 55.265625 
Q 40.578125 54.546875 44.28125 53.078125 
z
" id="DejaVuSans-115"/>
       <path d="M 30.609375 48.390625 
Q 23.390625 48.390625 19.1875 42.75 
Q 14.984375 37.109375 14.984375 27.296875 
Q 14.984375 17.484375 19.15625 11.84375 
Q 23.34375 6.203125 30.609375 6.203125 
Q 37.796875 6.203125 41.984375 11.859375 
Q 46.1875 17.53125 46.1875 27.296875 
Q 46.1875 37.015625 41.984375 42.703125 
Q 37.796875 48.390625 30.609375 48.390625 
z
M 30.609375 56 
Q 42.328125 56 49.015625 48.375 
Q 55.71875 40.765625 55.71875 27.296875 
Q 55.71875 13.875 49.015625 6.21875 
Q 42.328125 -1.421875 30.609375 -1.421875 
Q 18.84375 -1.421875 12.171875 6.21875 
Q 5.515625 13.875 5.515625 27.296875 
Q 5.515625 40.765625 12.171875 48.375 
Q 18.84375 56 30.609375 56 
z
" id="DejaVuSans-111"/>
       <path d="M 8.5 21.578125 
L 8.5 54.6875 
L 17.484375 54.6875 
L 17.484375 21.921875 
Q 17.484375 14.15625 20.5 10.265625 
Q 23.53125 6.390625 29.59375 6.390625 
Q 36.859375 6.390625 41.078125 11.03125 
Q 45.3125 15.671875 45.3125 23.6875 
L 45.3125 54.6875 
L 54.296875 54.6875 
L 54.296875 0 
L 45.3125 0 
L 45.3125 8.40625 
Q 42.046875 3.421875 37.71875 1 
Q 33.40625 -1.421875 27.6875 -1.421875 
Q 18.265625 -1.421875 13.375 4.4375 
Q 8.5 10.296875 8.5 21.578125 
z
M 31.109375 56 
z
" id="DejaVuSans-117"/>
       <path d="M 48.78125 52.59375 
L 48.78125 44.1875 
Q 44.96875 46.296875 41.140625 47.34375 
Q 37.3125 48.390625 33.40625 48.390625 
Q 24.65625 48.390625 19.8125 42.84375 
Q 14.984375 37.3125 14.984375 27.296875 
Q 14.984375 17.28125 19.8125 11.734375 
Q 24.65625 6.203125 33.40625 6.203125 
Q 37.3125 6.203125 41.140625 7.25 
Q 44.96875 8.296875 48.78125 10.40625 
L 48.78125 2.09375 
Q 45.015625 0.34375 40.984375 -0.53125 
Q 36.96875 -1.421875 32.421875 -1.421875 
Q 20.0625 -1.421875 12.78125 6.34375 
Q 5.515625 14.109375 5.515625 27.296875 
Q 5.515625 40.671875 12.859375 48.328125 
Q 20.21875 56 33.015625 56 
Q 37.15625 56 41.109375 55.140625 
Q 45.0625 54.296875 48.78125 52.59375 
z
" id="DejaVuSans-99"/>
       <path d="M 8.015625 75.875 
L 15.828125 75.875 
Q 23.140625 64.359375 26.78125 53.3125 
Q 30.421875 42.28125 30.421875 31.390625 
Q 30.421875 20.453125 26.78125 9.375 
Q 23.140625 -1.703125 15.828125 -13.1875 
L 8.015625 -13.1875 
Q 14.5 -2 17.703125 9.0625 
Q 20.90625 20.125 20.90625 31.390625 
Q 20.90625 42.671875 17.703125 53.65625 
Q 14.5 64.65625 8.015625 75.875 
z
" id="DejaVuSans-41"/>
      </defs>
      <use xlink:href="#DejaVuSans-119"/>
      <use x="81.787109" xlink:href="#DejaVuSans-105"/>
      <use x="109.570312" xlink:href="#DejaVuSans-110"/>
      <use x="172.949219" xlink:href="#DejaVuSans-100"/>
      <use x="236.425781" xlink:href="#DejaVuSans-32"/>
      <use x="268.212891" xlink:href="#DejaVuSans-40"/>
      <use x="307.226562" xlink:href="#DejaVuSans-103"/>
      <use x="370.703125" xlink:href="#DejaVuSans-114"/>
      <use x="409.566406" xlink:href="#DejaVuSans-101"/>
      <use x="471.089844" xlink:href="#DejaVuSans-101"/>
      <use x="532.613281" xlink:href="#DejaVuSans-110"/>
      <use x="595.992188" xlink:href="#DejaVuSans-32"/>
      <use x="627.779297" xlink:href="#DejaVuSans-115"/>
      <use x="679.878906" xlink:href="#DejaVuSans-111"/>
      <use x="741.060547" xlink:href="#DejaVuSans-117"/>
      <use x="804.439453" xlink:href="#DejaVuSans-114"/>
      <use x="843.302734" xlink:href="#DejaVuSans-99"/>
      <use x="898.283203" xlink:href="#DejaVuSans-101"/>
      <use x="959.806641" xlink:href="#DejaVuSans-115"/>
      <use x="1011.90625" xlink:href="#DejaVuSans-41"/>
     </g>
    </g>
    <g id="line2d_9">
     <path d="M 16.2 151.347812 
L 36.2 151.347812 
" style="fill:none;stroke:#ff7f0e;stroke-linecap:square;stroke-width:1.5;"/>
    </g>
    <g id="line2d_10"/>
    <g id="text_2">
     <!-- PV (green sources) -->
     <g transform="translate(44.2 154.847812)scale(0.1 -0.1)">
      <defs>
       <path d="M 19.671875 64.796875 
L 19.671875 37.40625 
L 32.078125 37.40625 
Q 38.96875 37.40625 42.71875 40.96875 
Q 46.484375 44.53125 46.484375 51.125 
Q 46.484375 57.671875 42.71875 61.234375 
Q 38.96875 64.796875 32.078125 64.796875 
z
M 9.8125 72.90625 
L 32.078125 72.90625 
Q 44.34375 72.90625 50.609375 67.359375 
Q 56.890625 61.8125 56.890625 51.125 
Q 56.890625 40.328125 50.609375 34.8125 
Q 44.34375 29.296875 32.078125 29.296875 
L 19.671875 29.296875 
L 19.671875 0 
L 9.8125 0 
z
" id="DejaVuSans-80"/>
       <path d="M 28.609375 0 
L 0.78125 72.90625 
L 11.078125 72.90625 
L 34.1875 11.53125 
L 57.328125 72.90625 
L 67.578125 72.90625 
L 39.796875 0 
z
" id="DejaVuSans-86"/>
      </defs>
      <use xlink:href="#DejaVuSans-80"/>
      <use x="60.302734" xlink:href="#DejaVuSans-86"/>
      <use x="128.710938" xlink:href="#DejaVuSans-32"/>
      <use x="160.498047" xlink:href="#DejaVuSans-40"/>
      <use x="199.511719" xlink:href="#DejaVuSans-103"/>
      <use x="262.988281" xlink:href="#DejaVuSans-114"/>
      <use x="301.851562" xlink:href="#DejaVuSans-101"/>
      <use x="363.375" xlink:href="#DejaVuSans-101"/>
      <use x="424.898438" xlink:href="#DejaVuSans-110"/>
      <use x="488.277344" xlink:href="#DejaVuSans-32"/>
      <use x="520.064453" xlink:href="#DejaVuSans-115"/>
      <use x="572.164062" xlink:href="#DejaVuSans-111"/>
      <use x="633.345703" xlink:href="#DejaVuSans-117"/>
      <use x="696.724609" xlink:href="#DejaVuSans-114"/>
      <use x="735.587891" xlink:href="#DejaVuSans-99"/>
      <use x="790.568359" xlink:href="#DejaVuSans-101"/>
      <use x="852.091797" xlink:href="#DejaVuSans-115"/>
      <use x="904.191406" xlink:href="#DejaVuSans-41"/>
     </g>
    </g>
    <g id="line2d_11">
     <path d="M 16.2 166.025937 
L 36.2 166.025937 
" style="fill:none;stroke:#2ca02c;stroke-linecap:square;stroke-width:1.5;"/>
    </g>
    <g id="line2d_12"/>
    <g id="text_3">
     <!-- spot market (grey sources) -->
     <g transform="translate(44.2 169.525937)scale(0.1 -0.1)">
      <defs>
       <path d="M 18.109375 8.203125 
L 18.109375 -20.796875 
L 9.078125 -20.796875 
L 9.078125 54.6875 
L 18.109375 54.6875 
L 18.109375 46.390625 
Q 20.953125 51.265625 25.265625 53.625 
Q 29.59375 56 35.59375 56 
Q 45.5625 56 51.78125 48.09375 
Q 58.015625 40.1875 58.015625 27.296875 
Q 58.015625 14.40625 51.78125 6.484375 
Q 45.5625 -1.421875 35.59375 -1.421875 
Q 29.59375 -1.421875 25.265625 0.953125 
Q 20.953125 3.328125 18.109375 8.203125 
z
M 48.6875 27.296875 
Q 48.6875 37.203125 44.609375 42.84375 
Q 40.53125 48.484375 33.40625 48.484375 
Q 26.265625 48.484375 22.1875 42.84375 
Q 18.109375 37.203125 18.109375 27.296875 
Q 18.109375 17.390625 22.1875 11.75 
Q 26.265625 6.109375 33.40625 6.109375 
Q 40.53125 6.109375 44.609375 11.75 
Q 48.6875 17.390625 48.6875 27.296875 
z
" id="DejaVuSans-112"/>
       <path d="M 18.3125 70.21875 
L 18.3125 54.6875 
L 36.8125 54.6875 
L 36.8125 47.703125 
L 18.3125 47.703125 
L 18.3125 18.015625 
Q 18.3125 11.328125 20.140625 9.421875 
Q 21.96875 7.515625 27.59375 7.515625 
L 36.8125 7.515625 
L 36.8125 0 
L 27.59375 0 
Q 17.1875 0 13.234375 3.875 
Q 9.28125 7.765625 9.28125 18.015625 
L 9.28125 47.703125 
L 2.6875 47.703125 
L 2.6875 54.6875 
L 9.28125 54.6875 
L 9.28125 70.21875 
z
" id="DejaVuSans-116"/>
       <path d="M 52 44.1875 
Q 55.375 50.25 60.0625 53.125 
Q 64.75 56 71.09375 56 
Q 79.640625 56 84.28125 50.015625 
Q 88.921875 44.046875 88.921875 33.015625 
L 88.921875 0 
L 79.890625 0 
L 79.890625 32.71875 
Q 79.890625 40.578125 77.09375 44.375 
Q 74.3125 48.1875 68.609375 48.1875 
Q 61.625 48.1875 57.5625 43.546875 
Q 53.515625 38.921875 53.515625 30.90625 
L 53.515625 0 
L 44.484375 0 
L 44.484375 32.71875 
Q 44.484375 40.625 41.703125 44.40625 
Q 38.921875 48.1875 33.109375 48.1875 
Q 26.21875 48.1875 22.15625 43.53125 
Q 18.109375 38.875 18.109375 30.90625 
L 18.109375 0 
L 9.078125 0 
L 9.078125 54.6875 
L 18.109375 54.6875 
L 18.109375 46.1875 
Q 21.1875 51.21875 25.484375 53.609375 
Q 29.78125 56 35.6875 56 
Q 41.65625 56 45.828125 52.96875 
Q 50 49.953125 52 44.1875 
z
" id="DejaVuSans-109"/>
       <path d="M 34.28125 27.484375 
Q 23.390625 27.484375 19.1875 25 
Q 14.984375 22.515625 14.984375 16.5 
Q 14.984375 11.71875 18.140625 8.90625 
Q 21.296875 6.109375 26.703125 6.109375 
Q 34.1875 6.109375 38.703125 11.40625 
Q 43.21875 16.703125 43.21875 25.484375 
L 43.21875 27.484375 
z
M 52.203125 31.203125 
L 52.203125 0 
L 43.21875 0 
L 43.21875 8.296875 
Q 40.140625 3.328125 35.546875 0.953125 
Q 30.953125 -1.421875 24.3125 -1.421875 
Q 15.921875 -1.421875 10.953125 3.296875 
Q 6 8.015625 6 15.921875 
Q 6 25.140625 12.171875 29.828125 
Q 18.359375 34.515625 30.609375 34.515625 
L 43.21875 34.515625 
L 43.21875 35.40625 
Q 43.21875 41.609375 39.140625 45 
Q 35.0625 48.390625 27.6875 48.390625 
Q 23 48.390625 18.546875 47.265625 
Q 14.109375 46.140625 10.015625 43.890625 
L 10.015625 52.203125 
Q 14.9375 54.109375 19.578125 55.046875 
Q 24.21875 56 28.609375 56 
Q 40.484375 56 46.34375 49.84375 
Q 52.203125 43.703125 52.203125 31.203125 
z
" id="DejaVuSans-97"/>
       <path d="M 9.078125 75.984375 
L 18.109375 75.984375 
L 18.109375 31.109375 
L 44.921875 54.6875 
L 56.390625 54.6875 
L 27.390625 29.109375 
L 57.625 0 
L 45.90625 0 
L 18.109375 26.703125 
L 18.109375 0 
L 9.078125 0 
z
" id="DejaVuSans-107"/>
       <path d="M 32.171875 -5.078125 
Q 28.375 -14.84375 24.75 -17.8125 
Q 21.140625 -20.796875 15.09375 -20.796875 
L 7.90625 -20.796875 
L 7.90625 -13.28125 
L 13.1875 -13.28125 
Q 16.890625 -13.28125 18.9375 -11.515625 
Q 21 -9.765625 23.484375 -3.21875 
L 25.09375 0.875 
L 2.984375 54.6875 
L 12.5 54.6875 
L 29.59375 11.921875 
L 46.6875 54.6875 
L 56.203125 54.6875 
z
" id="DejaVuSans-121"/>
      </defs>
      <use xlink:href="#DejaVuSans-115"/>
      <use x="52.099609" xlink:href="#DejaVuSans-112"/>
      <use x="115.576172" xlink:href="#DejaVuSans-111"/>
      <use x="176.757812" xlink:href="#DejaVuSans-116"/>
      <use x="215.966797" xlink:href="#DejaVuSans-32"/>
      <use x="247.753906" xlink:href="#DejaVuSans-109"/>
      <use x="345.166016" xlink:href="#DejaVuSans-97"/>
      <use x="406.445312" xlink:href="#DejaVuSans-114"/>
      <use x="447.558594" xlink:href="#DejaVuSans-107"/>
      <use x="501.84375" xlink:href="#DejaVuSans-101"/>
      <use x="563.367188" xlink:href="#DejaVuSans-116"/>
      <use x="602.576172" xlink:href="#DejaVuSans-32"/>
      <use x="634.363281" xlink:href="#DejaVuSans-40"/>
      <use x="673.376953" xlink:href="#DejaVuSans-103"/>
      <use x="736.853516" xlink:href="#DejaVuSans-114"/>
      <use x="775.716797" xlink:href="#DejaVuSans-101"/>
      <use x="837.240234" xlink:href="#DejaVuSans-121"/>
      <use x="896.419922" xlink:href="#DejaVuSans-32"/>
      <use x="928.207031" xlink:href="#DejaVuSans-115"/>
      <use x="980.306641" xlink:href="#DejaVuSans-111"/>
      <use x="1041.488281" xlink:href="#DejaVuSans-117"/>
      <use x="1104.867188" xlink:href="#DejaVuSans-114"/>
      <use x="1143.730469" xlink:href="#DejaVuSans-99"/>
      <use x="1198.710938" xlink:href="#DejaVuSans-101"/>
      <use x="1260.234375" xlink:href="#DejaVuSans-115"/>
      <use x="1312.333984" xlink:href="#DejaVuSans-41"/>
     </g>
    </g>
    <g id="line2d_13">
     <path d="M 16.2 180.704062 
L 36.2 180.704062 
" style="fill:none;stroke:#d62728;stroke-linecap:square;stroke-width:1.5;"/>
    </g>
    <g id="line2d_14"/>
    <g id="text_4">
     <!-- green sales (green sources) -->
     <g transform="translate(44.2 184.204062)scale(0.1 -0.1)">
      <defs>
       <path d="M 9.421875 75.984375 
L 18.40625 75.984375 
L 18.40625 0 
L 9.421875 0 
z
" id="DejaVuSans-108"/>
      </defs>
      <use xlink:href="#DejaVuSans-103"/>
      <use x="63.476562" xlink:href="#DejaVuSans-114"/>
      <use x="102.339844" xlink:href="#DejaVuSans-101"/>
      <use x="163.863281" xlink:href="#DejaVuSans-101"/>
      <use x="225.386719" xlink:href="#DejaVuSans-110"/>
      <use x="288.765625" xlink:href="#DejaVuSans-32"/>
      <use x="320.552734" xlink:href="#DejaVuSans-115"/>
      <use x="372.652344" xlink:href="#DejaVuSans-97"/>
      <use x="433.931641" xlink:href="#DejaVuSans-108"/>
      <use x="461.714844" xlink:href="#DejaVuSans-101"/>
      <use x="523.238281" xlink:href="#DejaVuSans-115"/>
      <use x="575.337891" xlink:href="#DejaVuSans-32"/>
      <use x="607.125" xlink:href="#DejaVuSans-40"/>
      <use x="646.138672" xlink:href="#DejaVuSans-103"/>
      <use x="709.615234" xlink:href="#DejaVuSans-114"/>
      <use x="748.478516" xlink:href="#DejaVuSans-101"/>
      <use x="810.001953" xlink:href="#DejaVuSans-101"/>
      <use x="871.525391" xlink:href="#DejaVuSans-110"/>
      <use x="934.904297" xlink:href="#DejaVuSans-32"/>
      <use x="966.691406" xlink:href="#DejaVuSans-115"/>
      <use x="1018.791016" xlink:href="#DejaVuSans-111"/>
      <use x="1079.972656" xlink:href="#DejaVuSans-117"/>
      <use x="1143.351562" xlink:href="#DejaVuSans-114"/>
      <use x="1182.214844" xlink:href="#DejaVuSans-99"/>
      <use x="1237.195312" xlink:href="#DejaVuSans-101"/>
      <use x="1298.71875" xlink:href="#DejaVuSans-115"/>
      <use x="1350.818359" xlink:href="#DejaVuSans-41"/>
     </g>
    </g>
    <g id="line2d_15">
     <path d="M 16.2 195.382187 
L 36.2 195.382187 
" style="fill:none;stroke:#9467bd;stroke-linecap:square;stroke-width:1.5;"/>
    </g>
    <g id="line2d_16"/>
    <g id="text_5">
     <!-- battery (green sources) -->
     <g transform="translate(44.2 198.882187)scale(0.1 -0.1)">
      <defs>
       <path d="M 48.6875 27.296875 
Q 48.6875 37.203125 44.609375 42.84375 
Q 40.53125 48.484375 33.40625 48.484375 
Q 26.265625 48.484375 22.1875 42.84375 
Q 18.109375 37.203125 18.109375 27.296875 
Q 18.109375 17.390625 22.1875 11.75 
Q 26.265625 6.109375 33.40625 6.109375 
Q 40.53125 6.109375 44.609375 11.75 
Q 48.6875 17.390625 48.6875 27.296875 
z
M 18.109375 46.390625 
Q 20.953125 51.265625 25.265625 53.625 
Q 29.59375 56 35.59375 56 
Q 45.5625 56 51.78125 48.09375 
Q 58.015625 40.1875 58.015625 27.296875 
Q 58.015625 14.40625 51.78125 6.484375 
Q 45.5625 -1.421875 35.59375 -1.421875 
Q 29.59375 -1.421875 25.265625 0.953125 
Q 20.953125 3.328125 18.109375 8.203125 
L 18.109375 0 
L 9.078125 0 
L 9.078125 75.984375 
L 18.109375 75.984375 
z
" id="DejaVuSans-98"/>
      </defs>
      <use xlink:href="#DejaVuSans-98"/>
      <use x="63.476562" xlink:href="#DejaVuSans-97"/>
      <use x="124.755859" xlink:href="#DejaVuSans-116"/>
      <use x="163.964844" xlink:href="#DejaVuSans-116"/>
      <use x="203.173828" xlink:href="#DejaVuSans-101"/>
      <use x="264.697266" xlink:href="#DejaVuSans-114"/>
      <use x="305.810547" xlink:href="#DejaVuSans-121"/>
      <use x="364.990234" xlink:href="#DejaVuSans-32"/>
      <use x="396.777344" xlink:href="#DejaVuSans-40"/>
      <use x="435.791016" xlink:href="#DejaVuSans-103"/>
      <use x="499.267578" xlink:href="#DejaVuSans-114"/>
      <use x="538.130859" xlink:href="#DejaVuSans-101"/>
      <use x="599.654297" xlink:href="#DejaVuSans-101"/>
      <use x="661.177734" xlink:href="#DejaVuSans-110"/>
      <use x="724.556641" xlink:href="#DejaVuSans-32"/>
      <use x="756.34375" xlink:href="#DejaVuSans-115"/>
      <use x="808.443359" xlink:href="#DejaVuSans-111"/>
      <use x="869.625" xlink:href="#DejaVuSans-117"/>
      <use x="933.003906" xlink:href="#DejaVuSans-114"/>
      <use x="971.867188" xlink:href="#DejaVuSans-99"/>
      <use x="1026.847656" xlink:href="#DejaVuSans-101"/>
      <use x="1088.371094" xlink:href="#DejaVuSans-115"/>
      <use x="1140.470703" xlink:href="#DejaVuSans-41"/>
     </g>
    </g>
    <g id="line2d_17">
     <path d="M 16.2 210.060312 
L 36.2 210.060312 
" style="fill:none;stroke:#8c564b;stroke-linecap:square;stroke-width:1.5;"/>
    </g>
    <g id="line2d_18"/>
    <g id="text_6">
     <!-- downstream -->
     <g transform="translate(44.2 213.560312)scale(0.1 -0.1)">
      <use xlink:href="#DejaVuSans-100"/>
      <use x="63.476562" xlink:href="#DejaVuSans-111"/>
      <use x="124.658203" xlink:href="#DejaVuSans-119"/>
      <use x="206.445312" xlink:href="#DejaVuSans-110"/>
      <use x="269.824219" xlink:href="#DejaVuSans-115"/>
      <use x="321.923828" xlink:href="#DejaVuSans-116"/>
      <use x="361.132812" xlink:href="#DejaVuSans-114"/>
      <use x="399.996094" xlink:href="#DejaVuSans-101"/>
      <use x="461.519531" xlink:href="#DejaVuSans-97"/>
      <use x="522.798828" xlink:href="#DejaVuSans-109"/>
     </g>
    </g>
   </g>
  </g>
 </g>
 <defs>
  <clipPath id="pe2b628ac1a">
   <rect height="217.44" width="334.8" x="7.2" y="7.2"/>
  </clipPath>
 </defs>
</svg>
