<?xml version="1.0" encoding="utf-8" standalone="no"?>
<!DOCTYPE svg PUBLIC "-//W3C//DTD SVG 1.1//EN"
  "http://www.w3.org/Graphics/SVG/1.1/DTD/svg11.dtd">
<!-- Created with matplotlib (https://matplotlib.org/) -->
<svg height="246.958125pt" version="1.1" viewBox="0 0 349.2 246.958125" width="349.2pt" xmlns="http://www.w3.org/2000/svg" xmlns:xlink="http://www.w3.org/1999/xlink">
 <metadata>
  <rdf:RDF xmlns:cc="http://creativecommons.org/ns#" xmlns:dc="http://purl.org/dc/elements/1.1/" xmlns:rdf="http://www.w3.org/1999/02/22-rdf-syntax-ns#">
   <cc:Work>
    <dc:type rdf:resource="http://purl.org/dc/dcmitype/StillImage"/>
    <dc:date>2021-04-09T14:44:45.920146</dc:date>
    <dc:format>image/svg+xml</dc:format>
    <dc:creator>
     <cc:Agent>
      <dc:title>Matplotlib v3.3.2, https://matplotlib.org/</dc:title>
     </cc:Agent>
    </dc:creator>
   </cc:Work>
  </rdf:RDF>
 </metadata>
 <defs>
  <style type="text/css">*{stroke-linecap:butt;stroke-linejoin:round;}</style>
 </defs>
 <g id="figure_1">
  <g id="patch_1">
   <path d="M 0 246.958125 
L 349.2 246.958125 
L 349.2 0 
L 0 0 
z
" style="fill:none;"/>
  </g>
  <g id="axes_1">
   <g id="patch_2">
    <path clip-path="url(#pb5cda57129)" d="M 89.921246 53.097769 
Q 67.314304 48.080498 45.798838 43.305464 
" style="fill:none;stroke:#808080;stroke-linecap:round;"/>
    <path clip-path="url(#pb5cda57129)" d="M 49.270497 46.12461 
L 45.798838 43.305464 
L 50.13715 42.219624 
L 49.270497 46.12461 
z
" style="fill:#808080;stroke:#808080;stroke-linecap:round;"/>
   </g>
   <g id="patch_3">
    <path clip-path="url(#pb5cda57129)" d="M 224.859222 69.906628 
Q 165.917882 62.947914 108.086866 56.120287 
" style="fill:none;stroke:#808080;stroke-linecap:round;"/>
    <path clip-path="url(#pb5cda57129)" d="M 111.824782 58.575482 
L 108.086866 56.120287 
L 112.293772 54.603071 
L 111.824782 58.575482 
z
" style="fill:#808080;stroke:#808080;stroke-linecap:round;"/>
   </g>
   <g id="patch_4">
    <path clip-path="url(#pb5cda57129)" d="M 241.596403 67.948467 
Q 273.206455 56.390081 303.766468 45.215648 
" style="fill:none;stroke:#808080;stroke-linecap:round;"/>
    <path clip-path="url(#pb5cda57129)" d="M 299.322902 44.710951 
L 303.766468 45.215648 
L 300.696571 48.467683 
L 299.322902 44.710951 
z
" style="fill:#808080;stroke:#808080;stroke-linecap:round;"/>
   </g>
   <g id="patch_5">
    <path clip-path="url(#pb5cda57129)" d="M 143.183912 151.920813 
Q 122.594953 107.3776 102.475089 63.849252 
" style="fill:none;stroke:#808080;stroke-linecap:round;"/>
    <path clip-path="url(#pb5cda57129)" d="M 102.33793 68.319285 
L 102.475089 63.849252 
L 105.968819 66.640999 
L 102.33793 68.319285 
z
" style="fill:#808080;stroke:#808080;stroke-linecap:round;"/>
   </g>
   <g id="patch_6">
    <path clip-path="url(#pb5cda57129)" d="M 143.287352 167.690373 
Q 133.185278 190.336636 123.538676 211.961847 
" style="fill:none;stroke:#808080;stroke-linecap:round;"/>
    <path clip-path="url(#pb5cda57129)" d="M 126.994733 209.123596 
L 123.538676 211.961847 
L 123.341709 207.494051 
L 126.994733 209.123596 
z
" style="fill:#808080;stroke:#808080;stroke-linecap:round;"/>
   </g>
   <g id="patch_7">
    <path clip-path="url(#pb5cda57129)" d="M 138.431138 161.940202 
Q 104.452051 170.696619 71.555626 179.174034 
" style="fill:none;stroke:#808080;stroke-linecap:round;"/>
    <path clip-path="url(#pb5cda57129)" d="M 75.928171 180.112571 
L 71.555626 179.174034 
L 74.929982 176.23912 
L 75.928171 180.112571 
z
" style="fill:#808080;stroke:#808080;stroke-linecap:round;"/>
   </g>
   <g id="patch_8">
    <path clip-path="url(#pb5cda57129)" d="M 155.351421 161.249052 
Q 194.886742 168.056876 233.320244 174.674971 
" style="fill:none;stroke:#808080;stroke-linecap:round;"/>
    <path clip-path="url(#pb5cda57129)" d="M 229.717657 172.025185 
L 233.320244 174.674971 
L 229.038863 175.967169 
L 229.717657 172.025185 
z
" style="fill:#808080;stroke:#808080;stroke-linecap:round;"/>
   </g>
   <g id="patch_9">
    <path clip-path="url(#pb5cda57129)" d="M 152.660699 166.17024 
Q 172.187916 187.523475 190.960629 208.051649 
" style="fill:none;stroke:#808080;stroke-linecap:round;"/>
    <path clip-path="url(#pb5cda57129)" d="M 189.737142 203.750129 
L 190.960629 208.051649 
L 186.78532 206.449526 
L 189.737142 203.750129 
z
" style="fill:#808080;stroke:#808080;stroke-linecap:round;"/>
   </g>
   <g id="patch_10">
    <path clip-path="url(#pb5cda57129)" d="M 44.704094 43.062502 
Q 67.311036 48.079773 88.826502 52.854807 
" style="fill:none;stroke:#808080;stroke-linecap:round;"/>
    <path clip-path="url(#pb5cda57129)" d="M 85.354842 50.035661 
L 88.826502 52.854807 
L 84.48819 53.940647 
L 85.354842 50.035661 
z
" style="fill:#808080;stroke:#808080;stroke-linecap:round;"/>
   </g>
   <g id="patch_11">
    <path clip-path="url(#pb5cda57129)" d="M 304.813879 44.832656 
Q 273.203828 56.391042 242.643814 67.565475 
" style="fill:none;stroke:#808080;stroke-linecap:round;"/>
    <path clip-path="url(#pb5cda57129)" d="M 247.087381 68.070172 
L 242.643814 67.565475 
L 245.713712 64.31344 
L 247.087381 68.070172 
z
" style="fill:#808080;stroke:#808080;stroke-linecap:round;"/>
   </g>
   <g id="patch_12">
    <path clip-path="url(#pb5cda57129)" d="M 123.085241 212.978332 
Q 133.187315 190.332069 142.833917 168.706858 
" style="fill:none;stroke:#808080;stroke-linecap:round;"/>
    <path clip-path="url(#pb5cda57129)" d="M 139.37786 171.545109 
L 142.833917 168.706858 
L 143.030883 173.174654 
L 139.37786 171.545109 
z
" style="fill:#808080;stroke:#808080;stroke-linecap:round;"/>
   </g>
   <g id="patch_13">
    <path clip-path="url(#pb5cda57129)" d="M 70.475779 179.452311 
Q 104.454866 170.695894 137.351291 162.218479 
" style="fill:none;stroke:#808080;stroke-linecap:round;"/>
    <path clip-path="url(#pb5cda57129)" d="M 132.978746 161.279943 
L 137.351291 162.218479 
L 133.976935 165.153393 
L 132.978746 161.279943 
z
" style="fill:#808080;stroke:#808080;stroke-linecap:round;"/>
   </g>
   <g id="patch_14">
    <path clip-path="url(#pb5cda57129)" d="M 234.423645 174.864972 
Q 194.888324 168.057148 156.454822 161.439053 
" style="fill:none;stroke:#808080;stroke-linecap:round;"/>
    <path clip-path="url(#pb5cda57129)" d="M 160.057409 164.088839 
L 156.454822 161.439053 
L 160.736203 160.146855 
L 160.057409 164.088839 
z
" style="fill:#808080;stroke:#808080;stroke-linecap:round;"/>
   </g>
   <g id="patch_15">
    <path clip-path="url(#pb5cda57129)" d="M 191.716172 208.877844 
Q 172.188954 187.52461 153.416242 166.996435 
" style="fill:none;stroke:#808080;stroke-linecap:round;"/>
    <path clip-path="url(#pb5cda57129)" d="M 154.639729 171.297956 
L 153.416242 166.996435 
L 157.59155 168.598558 
L 154.639729 171.297956 
z
" style="fill:#808080;stroke:#808080;stroke-linecap:round;"/>
   </g>
   <g id="text_1">
    <g id="patch_16">
     <path clip-path="url(#pb5cda57129)" d="M 148.034122 67.151332 
L 182.330925 71.20047 
Q 184.714372 71.481864 184.995765 69.098418 
L 185.903553 61.40932 
Q 186.184947 59.025873 183.8015 58.744479 
L 149.504697 54.695341 
Q 147.121251 54.413947 146.839857 56.797394 
L 145.932069 64.486492 
Q 145.650675 66.869938 148.034122 67.151332 
z
" style="fill:#ffffff;stroke:#ffffff;stroke-linejoin:miter;"/>
    </g>
    <g clip-path="url(#pb5cda57129)">
     <!-- grey link -->
     <g transform="translate(148.510586 63.115611)rotate(-353.266732)scale(0.08 -0.08)">
      <defs>
       <path d="M 45.40625 27.984375 
Q 45.40625 37.75 41.375 43.109375 
Q 37.359375 48.484375 30.078125 48.484375 
Q 22.859375 48.484375 18.828125 43.109375 
Q 14.796875 37.75 14.796875 27.984375 
Q 14.796875 18.265625 18.828125 12.890625 
Q 22.859375 7.515625 30.078125 7.515625 
Q 37.359375 7.515625 41.375 12.890625 
Q 45.40625 18.265625 45.40625 27.984375 
z
M 54.390625 6.78125 
Q 54.390625 -7.171875 48.1875 -13.984375 
Q 42 -20.796875 29.203125 -20.796875 
Q 24.46875 -20.796875 20.265625 -20.09375 
Q 16.0625 -19.390625 12.109375 -17.921875 
L 12.109375 -9.1875 
Q 16.0625 -11.328125 19.921875 -12.34375 
Q 23.78125 -13.375 27.78125 -13.375 
Q 36.625 -13.375 41.015625 -8.765625 
Q 45.40625 -4.15625 45.40625 5.171875 
L 45.40625 9.625 
Q 42.625 4.78125 38.28125 2.390625 
Q 33.9375 0 27.875 0 
Q 17.828125 0 11.671875 7.65625 
Q 5.515625 15.328125 5.515625 27.984375 
Q 5.515625 40.671875 11.671875 48.328125 
Q 17.828125 56 27.875 56 
Q 33.9375 56 38.28125 53.609375 
Q 42.625 51.21875 45.40625 46.390625 
L 45.40625 54.6875 
L 54.390625 54.6875 
z
" id="DejaVuSans-103"/>
       <path d="M 41.109375 46.296875 
Q 39.59375 47.171875 37.8125 47.578125 
Q 36.03125 48 33.890625 48 
Q 26.265625 48 22.1875 43.046875 
Q 18.109375 38.09375 18.109375 28.8125 
L 18.109375 0 
L 9.078125 0 
L 9.078125 54.6875 
L 18.109375 54.6875 
L 18.109375 46.1875 
Q 20.953125 51.171875 25.484375 53.578125 
Q 30.03125 56 36.53125 56 
Q 37.453125 56 38.578125 55.875 
Q 39.703125 55.765625 41.0625 55.515625 
z
" id="DejaVuSans-114"/>
       <path d="M 56.203125 29.59375 
L 56.203125 25.203125 
L 14.890625 25.203125 
Q 15.484375 15.921875 20.484375 11.0625 
Q 25.484375 6.203125 34.421875 6.203125 
Q 39.59375 6.203125 44.453125 7.46875 
Q 49.3125 8.734375 54.109375 11.28125 
L 54.109375 2.78125 
Q 49.265625 0.734375 44.1875 -0.34375 
Q 39.109375 -1.421875 33.890625 -1.421875 
Q 20.796875 -1.421875 13.15625 6.1875 
Q 5.515625 13.8125 5.515625 26.8125 
Q 5.515625 40.234375 12.765625 48.109375 
Q 20.015625 56 32.328125 56 
Q 43.359375 56 49.78125 48.890625 
Q 56.203125 41.796875 56.203125 29.59375 
z
M 47.21875 32.234375 
Q 47.125 39.59375 43.09375 43.984375 
Q 39.0625 48.390625 32.421875 48.390625 
Q 24.90625 48.390625 20.390625 44.140625 
Q 15.875 39.890625 15.1875 32.171875 
z
" id="DejaVuSans-101"/>
       <path d="M 32.171875 -5.078125 
Q 28.375 -14.84375 24.75 -17.8125 
Q 21.140625 -20.796875 15.09375 -20.796875 
L 7.90625 -20.796875 
L 7.90625 -13.28125 
L 13.1875 -13.28125 
Q 16.890625 -13.28125 18.9375 -11.515625 
Q 21 -9.765625 23.484375 -3.21875 
L 25.09375 0.875 
L 2.984375 54.6875 
L 12.5 54.6875 
L 29.59375 11.921875 
L 46.6875 54.6875 
L 56.203125 54.6875 
z
" id="DejaVuSans-121"/>
       <path id="DejaVuSans-32"/>
       <path d="M 9.421875 75.984375 
L 18.40625 75.984375 
L 18.40625 0 
L 9.421875 0 
z
" id="DejaVuSans-108"/>
       <path d="M 9.421875 54.6875 
L 18.40625 54.6875 
L 18.40625 0 
L 9.421875 0 
z
M 9.421875 75.984375 
L 18.40625 75.984375 
L 18.40625 64.59375 
L 9.421875 64.59375 
z
" id="DejaVuSans-105"/>
       <path d="M 54.890625 33.015625 
L 54.890625 0 
L 45.90625 0 
L 45.90625 32.71875 
Q 45.90625 40.484375 42.875 44.328125 
Q 39.84375 48.1875 33.796875 48.1875 
Q 26.515625 48.1875 22.3125 43.546875 
Q 18.109375 38.921875 18.109375 30.90625 
L 18.109375 0 
L 9.078125 0 
L 9.078125 54.6875 
L 18.109375 54.6875 
L 18.109375 46.1875 
Q 21.34375 51.125 25.703125 53.5625 
Q 30.078125 56 35.796875 56 
Q 45.21875 56 50.046875 50.171875 
Q 54.890625 44.34375 54.890625 33.015625 
z
" id="DejaVuSans-110"/>
       <path d="M 9.078125 75.984375 
L 18.109375 75.984375 
L 18.109375 31.109375 
L 44.921875 54.6875 
L 56.390625 54.6875 
L 27.390625 29.109375 
L 57.625 0 
L 45.90625 0 
L 18.109375 26.703125 
L 18.109375 0 
L 9.078125 0 
z
" id="DejaVuSans-107"/>
      </defs>
      <use xlink:href="#DejaVuSans-103"/>
      <use x="63.476562" xlink:href="#DejaVuSans-114"/>
      <use x="102.339844" xlink:href="#DejaVuSans-101"/>
      <use x="163.863281" xlink:href="#DejaVuSans-121"/>
      <use x="223.042969" xlink:href="#DejaVuSans-32"/>
      <use x="254.830078" xlink:href="#DejaVuSans-108"/>
      <use x="282.613281" xlink:href="#DejaVuSans-105"/>
      <use x="310.396484" xlink:href="#DejaVuSans-110"/>
      <use x="373.775391" xlink:href="#DejaVuSans-107"/>
     </g>
    </g>
   </g>
   <g id="text_2">
    <g id="patch_17">
     <path clip-path="url(#pb5cda57129)" d="M 108.55393 91.94733 
L 125.249725 128.067871 
Q 126.256697 130.246405 128.43523 129.239433 
L 135.46327 125.990902 
Q 137.641804 124.98393 136.634833 122.805397 
L 119.939038 86.684856 
Q 118.932066 84.506322 116.753533 85.513293 
L 109.725492 88.761825 
Q 107.546959 89.768796 108.55393 91.94733 
z
" style="fill:#ffffff;stroke:#ffffff;stroke-linejoin:miter;"/>
    </g>
    <g clip-path="url(#pb5cda57129)">
     <!-- green link -->
     <g transform="translate(112.242687 90.242297)rotate(-294.807531)scale(0.08 -0.08)">
      <use xlink:href="#DejaVuSans-103"/>
      <use x="63.476562" xlink:href="#DejaVuSans-114"/>
      <use x="102.339844" xlink:href="#DejaVuSans-101"/>
      <use x="163.863281" xlink:href="#DejaVuSans-101"/>
      <use x="225.386719" xlink:href="#DejaVuSans-110"/>
      <use x="288.765625" xlink:href="#DejaVuSans-32"/>
      <use x="320.552734" xlink:href="#DejaVuSans-108"/>
      <use x="348.335938" xlink:href="#DejaVuSans-105"/>
      <use x="376.119141" xlink:href="#DejaVuSans-110"/>
      <use x="439.498047" xlink:href="#DejaVuSans-107"/>
     </g>
    </g>
   </g>
   <g id="PathCollection_1">
    <path clip-path="url(#pb5cda57129)" d="M 98.372447 66.153726 
C 101.337508 66.153726 104.181527 64.975695 106.278141 62.87908 
C 108.374756 60.782466 109.552787 57.938447 109.552787 54.973386 
C 109.552787 52.008325 108.374756 49.164306 106.278141 47.067692 
C 104.181527 44.971077 101.337508 43.793046 98.372447 43.793046 
C 95.407386 43.793046 92.563368 44.971077 90.466753 47.067692 
C 88.370139 49.164306 87.192107 52.008325 87.192107 54.973386 
C 87.192107 57.938447 88.370139 60.782466 90.466753 62.87908 
C 92.563368 64.975695 95.407386 66.153726 98.372447 66.153726 
z
" style="fill:#ffa500;fill-opacity:0.7;stroke:#ffa500;stroke-opacity:0.7;"/>
    <path clip-path="url(#pb5cda57129)" d="M 233.463175 82.102765 
C 236.428236 82.102765 239.272255 80.924734 241.368869 78.828119 
C 243.465484 76.731505 244.643515 73.887486 244.643515 70.922425 
C 244.643515 67.957364 243.465484 65.113346 241.368869 63.016731 
C 239.272255 60.920117 236.428236 59.742085 233.463175 59.742085 
C 230.498114 59.742085 227.654096 60.920117 225.557481 63.016731 
C 223.460866 65.113346 222.282835 67.957364 222.282835 70.922425 
C 222.282835 73.887486 223.460866 76.731505 225.557481 78.828119 
C 227.654096 80.924734 230.498114 82.102765 233.463175 82.102765 
z
" style="fill:#ffa500;fill-opacity:0.7;stroke:#ffa500;stroke-opacity:0.7;"/>
    <path clip-path="url(#pb5cda57129)" d="M 146.816315 170.95968 
C 149.781376 170.95968 152.625395 169.781649 154.72201 167.685035 
C 156.818624 165.58842 157.996655 162.744401 157.996655 159.77934 
C 157.996655 156.81428 156.818624 153.970261 154.72201 151.873646 
C 152.625395 149.777032 149.781376 148.599001 146.816315 148.599001 
C 143.851255 148.599001 141.007236 149.777032 138.910621 151.873646 
C 136.814007 153.970261 135.635976 156.81428 135.635976 159.77934 
C 135.635976 162.744401 136.814007 165.58842 138.910621 167.685035 
C 141.007236 169.781649 143.851255 170.95968 146.816315 170.95968 
z
" style="fill:#ffa500;fill-opacity:0.7;stroke:#ffa500;stroke-opacity:0.7;"/>
    <path clip-path="url(#pb5cda57129)" d="M 36.252893 48.257953 
C 38.128162 48.257953 39.926877 47.512901 41.252893 46.186885 
C 42.578908 44.86087 43.32396 43.062154 43.32396 41.186885 
C 43.32396 39.311616 42.578908 37.512901 41.252893 36.186885 
C 39.926877 34.86087 38.128162 34.115818 36.252893 34.115818 
C 34.377623 34.115818 32.578908 34.86087 31.252893 36.186885 
C 29.926877 37.512901 29.181825 39.311616 29.181825 41.186885 
C 29.181825 43.062154 29.926877 44.86087 31.252893 46.186885 
C 32.578908 47.512901 34.377623 48.257953 36.252893 48.257953 
z
" style="fill:#808080;fill-opacity:0.7;stroke:#808080;stroke-opacity:0.7;"/>
    <path clip-path="url(#pb5cda57129)" d="M 312.947107 48.929765 
C 314.822377 48.929765 316.621092 48.184713 317.947107 46.858698 
C 319.273123 45.532682 320.018175 43.733967 320.018175 41.858698 
C 320.018175 39.983428 319.273123 38.184713 317.947107 36.858698 
C 316.621092 35.532682 314.822377 34.78763 312.947107 34.78763 
C 311.071838 34.78763 309.273123 35.532682 307.947107 36.858698 
C 306.621092 38.184713 305.87604 39.983428 305.87604 41.858698 
C 305.87604 43.733967 306.621092 45.532682 307.947107 46.858698 
C 309.273123 48.184713 311.071838 48.929765 312.947107 48.929765 
z
" style="fill:#808080;fill-opacity:0.7;stroke:#808080;stroke-opacity:0.7;"/>
    <path clip-path="url(#pb5cda57129)" d="M 119.556277 227.960432 
C 121.431546 227.960432 123.230262 227.21538 124.556277 225.889365 
C 125.882293 224.563349 126.627345 222.764634 126.627345 220.889365 
C 126.627345 219.014096 125.882293 217.21538 124.556277 215.889365 
C 123.230262 214.563349 121.431546 213.818297 119.556277 213.818297 
C 117.681008 213.818297 115.882293 214.563349 114.556277 215.889365 
C 113.230262 217.21538 112.485209 219.014096 112.485209 220.889365 
C 112.485209 222.764634 113.230262 224.563349 114.556277 225.889365 
C 115.882293 227.21538 117.681008 227.960432 119.556277 227.960432 
z
" style="fill:#808080;fill-opacity:0.7;stroke:#808080;stroke-opacity:0.7;"/>
    <path clip-path="url(#pb5cda57129)" d="M 62.090601 188.684241 
C 63.96587 188.684241 65.764586 187.939189 67.090601 186.613173 
C 68.416617 185.287158 69.161669 183.488442 69.161669 181.613173 
C 69.161669 179.737904 68.416617 177.939189 67.090601 176.613173 
C 65.764586 175.287158 63.96587 174.542105 62.090601 174.542105 
C 60.215332 174.542105 58.416617 175.287158 57.090601 176.613173 
C 55.764586 177.939189 55.019533 179.737904 55.019533 181.613173 
C 55.019533 183.488442 55.764586 185.287158 57.090601 186.613173 
C 58.416617 187.939189 60.215332 188.684241 62.090601 188.684241 
z
" style="fill:#808080;fill-opacity:0.7;stroke:#808080;stroke-opacity:0.7;"/>
    <path clip-path="url(#pb5cda57129)" d="M 242.95875 183.405751 
C 244.83402 183.405751 246.632735 182.660699 247.95875 181.334683 
C 249.284766 180.008668 250.029818 178.209952 250.029818 176.334683 
C 250.029818 174.459414 249.284766 172.660699 247.95875 171.334683 
C 246.632735 170.008668 244.83402 169.263615 242.95875 169.263615 
C 241.083481 169.263615 239.284766 170.008668 237.95875 171.334683 
C 236.632735 172.660699 235.887683 174.459414 235.887683 176.334683 
C 235.887683 178.209952 236.632735 180.008668 237.95875 181.334683 
C 239.284766 182.660699 241.083481 183.405751 242.95875 183.405751 
z
" style="fill:#808080;fill-opacity:0.7;stroke:#808080;stroke-opacity:0.7;"/>
    <path clip-path="url(#pb5cda57129)" d="M 197.560555 222.339812 
C 199.435824 222.339812 201.23454 221.59476 202.560555 220.268744 
C 203.886571 218.942729 204.631623 217.144013 204.631623 215.268744 
C 204.631623 213.393475 203.886571 211.59476 202.560555 210.268744 
C 201.23454 208.942729 199.435824 208.197676 197.560555 208.197676 
C 195.685286 208.197676 193.886571 208.942729 192.560555 210.268744 
C 191.23454 211.59476 190.489487 213.393475 190.489487 215.268744 
C 190.489487 217.144013 191.23454 218.942729 192.560555 220.268744 
C 193.886571 221.59476 195.685286 222.339812 197.560555 222.339812 
z
" style="fill:#808080;fill-opacity:0.7;stroke:#808080;stroke-opacity:0.7;"/>
   </g>
   <g id="text_3">
    <g clip-path="url(#pb5cda57129)">
     <!-- node load -->
     <g transform="translate(78.568697 57.180886)scale(0.08 -0.08)">
      <defs>
       <path d="M 30.609375 48.390625 
Q 23.390625 48.390625 19.1875 42.75 
Q 14.984375 37.109375 14.984375 27.296875 
Q 14.984375 17.484375 19.15625 11.84375 
Q 23.34375 6.203125 30.609375 6.203125 
Q 37.796875 6.203125 41.984375 11.859375 
Q 46.1875 17.53125 46.1875 27.296875 
Q 46.1875 37.015625 41.984375 42.703125 
Q 37.796875 48.390625 30.609375 48.390625 
z
M 30.609375 56 
Q 42.328125 56 49.015625 48.375 
Q 55.71875 40.765625 55.71875 27.296875 
Q 55.71875 13.875 49.015625 6.21875 
Q 42.328125 -1.421875 30.609375 -1.421875 
Q 18.84375 -1.421875 12.171875 6.21875 
Q 5.515625 13.875 5.515625 27.296875 
Q 5.515625 40.765625 12.171875 48.375 
Q 18.84375 56 30.609375 56 
z
" id="DejaVuSans-111"/>
       <path d="M 45.40625 46.390625 
L 45.40625 75.984375 
L 54.390625 75.984375 
L 54.390625 0 
L 45.40625 0 
L 45.40625 8.203125 
Q 42.578125 3.328125 38.25 0.953125 
Q 33.9375 -1.421875 27.875 -1.421875 
Q 17.96875 -1.421875 11.734375 6.484375 
Q 5.515625 14.40625 5.515625 27.296875 
Q 5.515625 40.1875 11.734375 48.09375 
Q 17.96875 56 27.875 56 
Q 33.9375 56 38.25 53.625 
Q 42.578125 51.265625 45.40625 46.390625 
z
M 14.796875 27.296875 
Q 14.796875 17.390625 18.875 11.75 
Q 22.953125 6.109375 30.078125 6.109375 
Q 37.203125 6.109375 41.296875 11.75 
Q 45.40625 17.390625 45.40625 27.296875 
Q 45.40625 37.203125 41.296875 42.84375 
Q 37.203125 48.484375 30.078125 48.484375 
Q 22.953125 48.484375 18.875 42.84375 
Q 14.796875 37.203125 14.796875 27.296875 
z
" id="DejaVuSans-100"/>
       <path d="M 34.28125 27.484375 
Q 23.390625 27.484375 19.1875 25 
Q 14.984375 22.515625 14.984375 16.5 
Q 14.984375 11.71875 18.140625 8.90625 
Q 21.296875 6.109375 26.703125 6.109375 
Q 34.1875 6.109375 38.703125 11.40625 
Q 43.21875 16.703125 43.21875 25.484375 
L 43.21875 27.484375 
z
M 52.203125 31.203125 
L 52.203125 0 
L 43.21875 0 
L 43.21875 8.296875 
Q 40.140625 3.328125 35.546875 0.953125 
Q 30.953125 -1.421875 24.3125 -1.421875 
Q 15.921875 -1.421875 10.953125 3.296875 
Q 6 8.015625 6 15.921875 
Q 6 25.140625 12.171875 29.828125 
Q 18.359375 34.515625 30.609375 34.515625 
L 43.21875 34.515625 
L 43.21875 35.40625 
Q 43.21875 41.609375 39.140625 45 
Q 35.0625 48.390625 27.6875 48.390625 
Q 23 48.390625 18.546875 47.265625 
Q 14.109375 46.140625 10.015625 43.890625 
L 10.015625 52.203125 
Q 14.9375 54.109375 19.578125 55.046875 
Q 24.21875 56 28.609375 56 
Q 40.484375 56 46.34375 49.84375 
Q 52.203125 43.703125 52.203125 31.203125 
z
" id="DejaVuSans-97"/>
      </defs>
      <use xlink:href="#DejaVuSans-110"/>
      <use x="63.378906" xlink:href="#DejaVuSans-111"/>
      <use x="124.560547" xlink:href="#DejaVuSans-100"/>
      <use x="188.037109" xlink:href="#DejaVuSans-101"/>
      <use x="249.560547" xlink:href="#DejaVuSans-32"/>
      <use x="281.347656" xlink:href="#DejaVuSans-108"/>
      <use x="309.130859" xlink:href="#DejaVuSans-111"/>
      <use x="370.3125" xlink:href="#DejaVuSans-97"/>
      <use x="431.591797" xlink:href="#DejaVuSans-100"/>
     </g>
    </g>
   </g>
   <g id="text_4">
    <g clip-path="url(#pb5cda57129)">
     <!-- grey sources -->
     <g transform="translate(207.904425 73.129925)scale(0.08 -0.08)">
      <defs>
       <path d="M 44.28125 53.078125 
L 44.28125 44.578125 
Q 40.484375 46.53125 36.375 47.5 
Q 32.28125 48.484375 27.875 48.484375 
Q 21.1875 48.484375 17.84375 46.4375 
Q 14.5 44.390625 14.5 40.28125 
Q 14.5 37.15625 16.890625 35.375 
Q 19.28125 33.59375 26.515625 31.984375 
L 29.59375 31.296875 
Q 39.15625 29.25 43.1875 25.515625 
Q 47.21875 21.78125 47.21875 15.09375 
Q 47.21875 7.46875 41.1875 3.015625 
Q 35.15625 -1.421875 24.609375 -1.421875 
Q 20.21875 -1.421875 15.453125 -0.5625 
Q 10.6875 0.296875 5.421875 2 
L 5.421875 11.28125 
Q 10.40625 8.6875 15.234375 7.390625 
Q 20.0625 6.109375 24.8125 6.109375 
Q 31.15625 6.109375 34.5625 8.28125 
Q 37.984375 10.453125 37.984375 14.40625 
Q 37.984375 18.0625 35.515625 20.015625 
Q 33.0625 21.96875 24.703125 23.78125 
L 21.578125 24.515625 
Q 13.234375 26.265625 9.515625 29.90625 
Q 5.8125 33.546875 5.8125 39.890625 
Q 5.8125 47.609375 11.28125 51.796875 
Q 16.75 56 26.8125 56 
Q 31.78125 56 36.171875 55.265625 
Q 40.578125 54.546875 44.28125 53.078125 
z
" id="DejaVuSans-115"/>
       <path d="M 8.5 21.578125 
L 8.5 54.6875 
L 17.484375 54.6875 
L 17.484375 21.921875 
Q 17.484375 14.15625 20.5 10.265625 
Q 23.53125 6.390625 29.59375 6.390625 
Q 36.859375 6.390625 41.078125 11.03125 
Q 45.3125 15.671875 45.3125 23.6875 
L 45.3125 54.6875 
L 54.296875 54.6875 
L 54.296875 0 
L 45.3125 0 
L 45.3125 8.40625 
Q 42.046875 3.421875 37.71875 1 
Q 33.40625 -1.421875 27.6875 -1.421875 
Q 18.265625 -1.421875 13.375 4.4375 
Q 8.5 10.296875 8.5 21.578125 
z
M 31.109375 56 
z
" id="DejaVuSans-117"/>
       <path d="M 48.78125 52.59375 
L 48.78125 44.1875 
Q 44.96875 46.296875 41.140625 47.34375 
Q 37.3125 48.390625 33.40625 48.390625 
Q 24.65625 48.390625 19.8125 42.84375 
Q 14.984375 37.3125 14.984375 27.296875 
Q 14.984375 17.28125 19.8125 11.734375 
Q 24.65625 6.203125 33.40625 6.203125 
Q 37.3125 6.203125 41.140625 7.25 
Q 44.96875 8.296875 48.78125 10.40625 
L 48.78125 2.09375 
Q 45.015625 0.34375 40.984375 -0.53125 
Q 36.96875 -1.421875 32.421875 -1.421875 
Q 20.0625 -1.421875 12.78125 6.34375 
Q 5.515625 14.109375 5.515625 27.296875 
Q 5.515625 40.671875 12.859375 48.328125 
Q 20.21875 56 33.015625 56 
Q 37.15625 56 41.109375 55.140625 
Q 45.0625 54.296875 48.78125 52.59375 
z
" id="DejaVuSans-99"/>
      </defs>
      <use xlink:href="#DejaVuSans-103"/>
      <use x="63.476562" xlink:href="#DejaVuSans-114"/>
      <use x="102.339844" xlink:href="#DejaVuSans-101"/>
      <use x="163.863281" xlink:href="#DejaVuSans-121"/>
      <use x="223.042969" xlink:href="#DejaVuSans-32"/>
      <use x="254.830078" xlink:href="#DejaVuSans-115"/>
      <use x="306.929688" xlink:href="#DejaVuSans-111"/>
      <use x="368.111328" xlink:href="#DejaVuSans-117"/>
      <use x="431.490234" xlink:href="#DejaVuSans-114"/>
      <use x="470.353516" xlink:href="#DejaVuSans-99"/>
      <use x="525.333984" xlink:href="#DejaVuSans-101"/>
      <use x="586.857422" xlink:href="#DejaVuSans-115"/>
     </g>
    </g>
   </g>
   <g id="text_5">
    <g clip-path="url(#pb5cda57129)">
     <!-- green sources -->
     <g transform="translate(118.628815 161.98684)scale(0.08 -0.08)">
      <use xlink:href="#DejaVuSans-103"/>
      <use x="63.476562" xlink:href="#DejaVuSans-114"/>
      <use x="102.339844" xlink:href="#DejaVuSans-101"/>
      <use x="163.863281" xlink:href="#DejaVuSans-101"/>
      <use x="225.386719" xlink:href="#DejaVuSans-110"/>
      <use x="288.765625" xlink:href="#DejaVuSans-32"/>
      <use x="320.552734" xlink:href="#DejaVuSans-115"/>
      <use x="372.652344" xlink:href="#DejaVuSans-111"/>
      <use x="433.833984" xlink:href="#DejaVuSans-117"/>
      <use x="497.212891" xlink:href="#DejaVuSans-114"/>
      <use x="536.076172" xlink:href="#DejaVuSans-99"/>
      <use x="591.056641" xlink:href="#DejaVuSans-101"/>
      <use x="652.580078" xlink:href="#DejaVuSans-115"/>
     </g>
    </g>
   </g>
   <g id="text_6">
    <g clip-path="url(#pb5cda57129)">
     <!-- load -->
     <g transform="translate(27.703518 43.394385)scale(0.08 -0.08)">
      <use xlink:href="#DejaVuSans-108"/>
      <use x="27.783203" xlink:href="#DejaVuSans-111"/>
      <use x="88.964844" xlink:href="#DejaVuSans-97"/>
      <use x="150.244141" xlink:href="#DejaVuSans-100"/>
     </g>
    </g>
   </g>
   <g id="text_7">
    <g clip-path="url(#pb5cda57129)">
     <!-- spot market -->
     <g transform="translate(288.844607 44.066198)scale(0.08 -0.08)">
      <defs>
       <path d="M 18.109375 8.203125 
L 18.109375 -20.796875 
L 9.078125 -20.796875 
L 9.078125 54.6875 
L 18.109375 54.6875 
L 18.109375 46.390625 
Q 20.953125 51.265625 25.265625 53.625 
Q 29.59375 56 35.59375 56 
Q 45.5625 56 51.78125 48.09375 
Q 58.015625 40.1875 58.015625 27.296875 
Q 58.015625 14.40625 51.78125 6.484375 
Q 45.5625 -1.421875 35.59375 -1.421875 
Q 29.59375 -1.421875 25.265625 0.953125 
Q 20.953125 3.328125 18.109375 8.203125 
z
M 48.6875 27.296875 
Q 48.6875 37.203125 44.609375 42.84375 
Q 40.53125 48.484375 33.40625 48.484375 
Q 26.265625 48.484375 22.1875 42.84375 
Q 18.109375 37.203125 18.109375 27.296875 
Q 18.109375 17.390625 22.1875 11.75 
Q 26.265625 6.109375 33.40625 6.109375 
Q 40.53125 6.109375 44.609375 11.75 
Q 48.6875 17.390625 48.6875 27.296875 
z
" id="DejaVuSans-112"/>
       <path d="M 18.3125 70.21875 
L 18.3125 54.6875 
L 36.8125 54.6875 
L 36.8125 47.703125 
L 18.3125 47.703125 
L 18.3125 18.015625 
Q 18.3125 11.328125 20.140625 9.421875 
Q 21.96875 7.515625 27.59375 7.515625 
L 36.8125 7.515625 
L 36.8125 0 
L 27.59375 0 
Q 17.1875 0 13.234375 3.875 
Q 9.28125 7.765625 9.28125 18.015625 
L 9.28125 47.703125 
L 2.6875 47.703125 
L 2.6875 54.6875 
L 9.28125 54.6875 
L 9.28125 70.21875 
z
" id="DejaVuSans-116"/>
       <path d="M 52 44.1875 
Q 55.375 50.25 60.0625 53.125 
Q 64.75 56 71.09375 56 
Q 79.640625 56 84.28125 50.015625 
Q 88.921875 44.046875 88.921875 33.015625 
L 88.921875 0 
L 79.890625 0 
L 79.890625 32.71875 
Q 79.890625 40.578125 77.09375 44.375 
Q 74.3125 48.1875 68.609375 48.1875 
Q 61.625 48.1875 57.5625 43.546875 
Q 53.515625 38.921875 53.515625 30.90625 
L 53.515625 0 
L 44.484375 0 
L 44.484375 32.71875 
Q 44.484375 40.625 41.703125 44.40625 
Q 38.921875 48.1875 33.109375 48.1875 
Q 26.21875 48.1875 22.15625 43.53125 
Q 18.109375 38.875 18.109375 30.90625 
L 18.109375 0 
L 9.078125 0 
L 9.078125 54.6875 
L 18.109375 54.6875 
L 18.109375 46.1875 
Q 21.1875 51.21875 25.484375 53.609375 
Q 29.78125 56 35.6875 56 
Q 41.65625 56 45.828125 52.96875 
Q 50 49.953125 52 44.1875 
z
" id="DejaVuSans-109"/>
      </defs>
      <use xlink:href="#DejaVuSans-115"/>
      <use x="52.099609" xlink:href="#DejaVuSans-112"/>
      <use x="115.576172" xlink:href="#DejaVuSans-111"/>
      <use x="176.757812" xlink:href="#DejaVuSans-116"/>
      <use x="215.966797" xlink:href="#DejaVuSans-32"/>
      <use x="247.753906" xlink:href="#DejaVuSans-109"/>
      <use x="345.166016" xlink:href="#DejaVuSans-97"/>
      <use x="406.445312" xlink:href="#DejaVuSans-114"/>
      <use x="447.558594" xlink:href="#DejaVuSans-107"/>
      <use x="501.84375" xlink:href="#DejaVuSans-101"/>
      <use x="563.367188" xlink:href="#DejaVuSans-116"/>
     </g>
    </g>
   </g>
   <g id="text_8">
    <g clip-path="url(#pb5cda57129)">
     <!-- wind -->
     <g transform="translate(110.099402 223.096865)scale(0.08 -0.08)">
      <defs>
       <path d="M 4.203125 54.6875 
L 13.1875 54.6875 
L 24.421875 12.015625 
L 35.59375 54.6875 
L 46.1875 54.6875 
L 57.421875 12.015625 
L 68.609375 54.6875 
L 77.59375 54.6875 
L 63.28125 0 
L 52.6875 0 
L 40.921875 44.828125 
L 29.109375 0 
L 18.5 0 
z
" id="DejaVuSans-119"/>
      </defs>
      <use xlink:href="#DejaVuSans-119"/>
      <use x="81.787109" xlink:href="#DejaVuSans-105"/>
      <use x="109.570312" xlink:href="#DejaVuSans-110"/>
      <use x="172.949219" xlink:href="#DejaVuSans-100"/>
     </g>
    </g>
   </g>
   <g id="text_9">
    <g clip-path="url(#pb5cda57129)">
     <!-- PV -->
     <g transform="translate(56.942476 183.820673)scale(0.08 -0.08)">
      <defs>
       <path d="M 19.671875 64.796875 
L 19.671875 37.40625 
L 32.078125 37.40625 
Q 38.96875 37.40625 42.71875 40.96875 
Q 46.484375 44.53125 46.484375 51.125 
Q 46.484375 57.671875 42.71875 61.234375 
Q 38.96875 64.796875 32.078125 64.796875 
z
M 9.8125 72.90625 
L 32.078125 72.90625 
Q 44.34375 72.90625 50.609375 67.359375 
Q 56.890625 61.8125 56.890625 51.125 
Q 56.890625 40.328125 50.609375 34.8125 
Q 44.34375 29.296875 32.078125 29.296875 
L 19.671875 29.296875 
L 19.671875 0 
L 9.8125 0 
z
" id="DejaVuSans-80"/>
       <path d="M 28.609375 0 
L 0.78125 72.90625 
L 11.078125 72.90625 
L 34.1875 11.53125 
L 57.328125 72.90625 
L 67.578125 72.90625 
L 39.796875 0 
z
" id="DejaVuSans-86"/>
      </defs>
      <use xlink:href="#DejaVuSans-80"/>
      <use x="60.302734" xlink:href="#DejaVuSans-86"/>
     </g>
    </g>
   </g>
   <g id="text_10">
    <g clip-path="url(#pb5cda57129)">
     <!-- green sales -->
     <g transform="translate(219.945 178.542183)scale(0.08 -0.08)">
      <use xlink:href="#DejaVuSans-103"/>
      <use x="63.476562" xlink:href="#DejaVuSans-114"/>
      <use x="102.339844" xlink:href="#DejaVuSans-101"/>
      <use x="163.863281" xlink:href="#DejaVuSans-101"/>
      <use x="225.386719" xlink:href="#DejaVuSans-110"/>
      <use x="288.765625" xlink:href="#DejaVuSans-32"/>
      <use x="320.552734" xlink:href="#DejaVuSans-115"/>
      <use x="372.652344" xlink:href="#DejaVuSans-97"/>
      <use x="433.931641" xlink:href="#DejaVuSans-108"/>
      <use x="461.714844" xlink:href="#DejaVuSans-101"/>
      <use x="523.238281" xlink:href="#DejaVuSans-115"/>
     </g>
    </g>
   </g>
   <g id="text_11">
    <g clip-path="url(#pb5cda57129)">
     <!-- battery -->
     <g transform="translate(182.960555 217.476244)scale(0.08 -0.08)">
      <defs>
       <path d="M 48.6875 27.296875 
Q 48.6875 37.203125 44.609375 42.84375 
Q 40.53125 48.484375 33.40625 48.484375 
Q 26.265625 48.484375 22.1875 42.84375 
Q 18.109375 37.203125 18.109375 27.296875 
Q 18.109375 17.390625 22.1875 11.75 
Q 26.265625 6.109375 33.40625 6.109375 
Q 40.53125 6.109375 44.609375 11.75 
Q 48.6875 17.390625 48.6875 27.296875 
z
M 18.109375 46.390625 
Q 20.953125 51.265625 25.265625 53.625 
Q 29.59375 56 35.59375 56 
Q 45.5625 56 51.78125 48.09375 
Q 58.015625 40.1875 58.015625 27.296875 
Q 58.015625 14.40625 51.78125 6.484375 
Q 45.5625 -1.421875 35.59375 -1.421875 
Q 29.59375 -1.421875 25.265625 0.953125 
Q 20.953125 3.328125 18.109375 8.203125 
L 18.109375 0 
L 9.078125 0 
L 9.078125 75.984375 
L 18.109375 75.984375 
z
" id="DejaVuSans-98"/>
      </defs>
      <use xlink:href="#DejaVuSans-98"/>
      <use x="63.476562" xlink:href="#DejaVuSans-97"/>
      <use x="124.755859" xlink:href="#DejaVuSans-116"/>
      <use x="163.964844" xlink:href="#DejaVuSans-116"/>
      <use x="203.173828" xlink:href="#DejaVuSans-101"/>
      <use x="264.697266" xlink:href="#DejaVuSans-114"/>
      <use x="305.810547" xlink:href="#DejaVuSans-121"/>
     </g>
    </g>
   </g>
   <g id="text_12">
    <!-- Complete portfolio with separate assets -->
    <g transform="translate(54.650625 16.318125)scale(0.12 -0.12)">
     <defs>
      <path d="M 64.40625 67.28125 
L 64.40625 56.890625 
Q 59.421875 61.53125 53.78125 63.8125 
Q 48.140625 66.109375 41.796875 66.109375 
Q 29.296875 66.109375 22.65625 58.46875 
Q 16.015625 50.828125 16.015625 36.375 
Q 16.015625 21.96875 22.65625 14.328125 
Q 29.296875 6.6875 41.796875 6.6875 
Q 48.140625 6.6875 53.78125 8.984375 
Q 59.421875 11.28125 64.40625 15.921875 
L 64.40625 5.609375 
Q 59.234375 2.09375 53.4375 0.328125 
Q 47.65625 -1.421875 41.21875 -1.421875 
Q 24.65625 -1.421875 15.125 8.703125 
Q 5.609375 18.84375 5.609375 36.375 
Q 5.609375 53.953125 15.125 64.078125 
Q 24.65625 74.21875 41.21875 74.21875 
Q 47.75 74.21875 53.53125 72.484375 
Q 59.328125 70.75 64.40625 67.28125 
z
" id="DejaVuSans-67"/>
      <path d="M 37.109375 75.984375 
L 37.109375 68.5 
L 28.515625 68.5 
Q 23.6875 68.5 21.796875 66.546875 
Q 19.921875 64.59375 19.921875 59.515625 
L 19.921875 54.6875 
L 34.71875 54.6875 
L 34.71875 47.703125 
L 19.921875 47.703125 
L 19.921875 0 
L 10.890625 0 
L 10.890625 47.703125 
L 2.296875 47.703125 
L 2.296875 54.6875 
L 10.890625 54.6875 
L 10.890625 58.5 
Q 10.890625 67.625 15.140625 71.796875 
Q 19.390625 75.984375 28.609375 75.984375 
z
" id="DejaVuSans-102"/>
      <path d="M 54.890625 33.015625 
L 54.890625 0 
L 45.90625 0 
L 45.90625 32.71875 
Q 45.90625 40.484375 42.875 44.328125 
Q 39.84375 48.1875 33.796875 48.1875 
Q 26.515625 48.1875 22.3125 43.546875 
Q 18.109375 38.921875 18.109375 30.90625 
L 18.109375 0 
L 9.078125 0 
L 9.078125 75.984375 
L 18.109375 75.984375 
L 18.109375 46.1875 
Q 21.34375 51.125 25.703125 53.5625 
Q 30.078125 56 35.796875 56 
Q 45.21875 56 50.046875 50.171875 
Q 54.890625 44.34375 54.890625 33.015625 
z
" id="DejaVuSans-104"/>
     </defs>
     <use xlink:href="#DejaVuSans-67"/>
     <use x="69.824219" xlink:href="#DejaVuSans-111"/>
     <use x="131.005859" xlink:href="#DejaVuSans-109"/>
     <use x="228.417969" xlink:href="#DejaVuSans-112"/>
     <use x="291.894531" xlink:href="#DejaVuSans-108"/>
     <use x="319.677734" xlink:href="#DejaVuSans-101"/>
     <use x="381.201172" xlink:href="#DejaVuSans-116"/>
     <use x="420.410156" xlink:href="#DejaVuSans-101"/>
     <use x="481.933594" xlink:href="#DejaVuSans-32"/>
     <use x="513.720703" xlink:href="#DejaVuSans-112"/>
     <use x="577.197266" xlink:href="#DejaVuSans-111"/>
     <use x="638.378906" xlink:href="#DejaVuSans-114"/>
     <use x="679.492188" xlink:href="#DejaVuSans-116"/>
     <use x="718.701172" xlink:href="#DejaVuSans-102"/>
     <use x="753.90625" xlink:href="#DejaVuSans-111"/>
     <use x="815.087891" xlink:href="#DejaVuSans-108"/>
     <use x="842.871094" xlink:href="#DejaVuSans-105"/>
     <use x="870.654297" xlink:href="#DejaVuSans-111"/>
     <use x="931.835938" xlink:href="#DejaVuSans-32"/>
     <use x="963.623047" xlink:href="#DejaVuSans-119"/>
     <use x="1045.410156" xlink:href="#DejaVuSans-105"/>
     <use x="1073.193359" xlink:href="#DejaVuSans-116"/>
     <use x="1112.402344" xlink:href="#DejaVuSans-104"/>
     <use x="1175.78125" xlink:href="#DejaVuSans-32"/>
     <use x="1207.568359" xlink:href="#DejaVuSans-115"/>
     <use x="1259.667969" xlink:href="#DejaVuSans-101"/>
     <use x="1321.191406" xlink:href="#DejaVuSans-112"/>
     <use x="1384.667969" xlink:href="#DejaVuSans-97"/>
     <use x="1445.947266" xlink:href="#DejaVuSans-114"/>
     <use x="1487.060547" xlink:href="#DejaVuSans-97"/>
     <use x="1548.339844" xlink:href="#DejaVuSans-116"/>
     <use x="1587.548828" xlink:href="#DejaVuSans-101"/>
     <use x="1649.072266" xlink:href="#DejaVuSans-32"/>
     <use x="1680.859375" xlink:href="#DejaVuSans-97"/>
     <use x="1742.138672" xlink:href="#DejaVuSans-115"/>
     <use x="1794.238281" xlink:href="#DejaVuSans-115"/>
     <use x="1846.337891" xlink:href="#DejaVuSans-101"/>
     <use x="1907.861328" xlink:href="#DejaVuSans-116"/>
     <use x="1947.070312" xlink:href="#DejaVuSans-115"/>
    </g>
   </g>
  </g>
 </g>
 <defs>
  <clipPath id="pb5cda57129">
   <rect height="217.44" width="334.8" x="7.2" y="22.318125"/>
  </clipPath>
 </defs>
</svg>
