<?xml version="1.0" encoding="utf-8" standalone="no"?>
<!DOCTYPE svg PUBLIC "-//W3C//DTD SVG 1.1//EN"
  "http://www.w3.org/Graphics/SVG/1.1/DTD/svg11.dtd">
<!-- Created with matplotlib (https://matplotlib.org/) -->
<svg height="246.958125pt" version="1.1" viewBox="0 0 349.2 246.958125" width="349.2pt" xmlns="http://www.w3.org/2000/svg" xmlns:xlink="http://www.w3.org/1999/xlink">
 <metadata>
  <rdf:RDF xmlns:cc="http://creativecommons.org/ns#" xmlns:dc="http://purl.org/dc/elements/1.1/" xmlns:rdf="http://www.w3.org/1999/02/22-rdf-syntax-ns#">
   <cc:Work>
    <dc:type rdf:resource="http://purl.org/dc/dcmitype/StillImage"/>
    <dc:date>2021-04-09T14:44:48.654147</dc:date>
    <dc:format>image/svg+xml</dc:format>
    <dc:creator>
     <cc:Agent>
      <dc:title>Matplotlib v3.3.2, https://matplotlib.org/</dc:title>
     </cc:Agent>
    </dc:creator>
   </cc:Work>
  </rdf:RDF>
 </metadata>
 <defs>
  <style type="text/css">*{stroke-linecap:butt;stroke-linejoin:round;}</style>
 </defs>
 <g id="figure_1">
  <g id="patch_1">
   <path d="M 0 246.958125 
L 349.2 246.958125 
L 349.2 0 
L 0 0 
z
" style="fill:none;"/>
  </g>
  <g id="axes_1">
   <g id="patch_2">
    <path clip-path="url(#p2256c73097)" d="M 157.400459 90.637476 
Q 182.024952 111.257769 205.792261 131.160266 
" style="fill:none;stroke:#808080;stroke-linecap:round;"/>
    <path clip-path="url(#p2256c73097)" d="M 204.009538 127.058815 
L 205.792261 131.160266 
L 201.441466 130.125573 
L 204.009538 127.058815 
z
" style="fill:#808080;stroke:#808080;stroke-linecap:round;"/>
   </g>
   <g id="patch_3">
    <path clip-path="url(#p2256c73097)" d="M 153.831252 76.981308 
Q 159.076686 63.13238 163.926106 50.329 
" style="fill:none;stroke:#808080;stroke-linecap:round;"/>
    <path clip-path="url(#p2256c73097)" d="M 160.63895 53.361261 
L 163.926106 50.329 
L 164.379621 54.778082 
L 160.63895 53.361261 
z
" style="fill:#808080;stroke:#808080;stroke-linecap:round;"/>
   </g>
   <g id="patch_4">
    <path clip-path="url(#p2256c73097)" d="M 159.353558 83.993568 
Q 209.475329 77.654215 258.487903 71.455152 
" style="fill:none;stroke:#808080;stroke-linecap:round;"/>
    <path clip-path="url(#p2256c73097)" d="M 254.268559 69.972877 
L 258.487903 71.455152 
L 254.770476 73.941262 
L 254.268559 69.972877 
z
" style="fill:#808080;stroke:#808080;stroke-linecap:round;"/>
   </g>
   <g id="patch_5">
    <path clip-path="url(#p2256c73097)" d="M 142.381668 82.893936 
Q 98.880529 71.548833 56.461236 60.485875 
" style="fill:none;stroke:#808080;stroke-linecap:round;"/>
    <path clip-path="url(#p2256c73097)" d="M 59.827053 63.430579 
L 56.461236 60.485875 
L 60.836489 59.560044 
L 59.827053 63.430579 
z
" style="fill:#808080;stroke:#808080;stroke-linecap:round;"/>
   </g>
   <g id="patch_6">
    <path clip-path="url(#p2256c73097)" d="M 142.198533 86.347714 
Q 93.508092 93.554255 45.923637 100.597101 
" style="fill:none;stroke:#808080;stroke-linecap:round;"/>
    <path clip-path="url(#p2256c73097)" d="M 50.173356 101.989899 
L 45.923637 100.597101 
L 49.587706 98.033005 
L 50.173356 101.989899 
z
" style="fill:#808080;stroke:#808080;stroke-linecap:round;"/>
   </g>
   <g id="patch_7">
    <path clip-path="url(#p2256c73097)" d="M 261.312551 177.878562 
Q 240.615384 160.449485 220.773415 143.74057 
" style="fill:none;stroke:#808080;stroke-linecap:round;"/>
    <path clip-path="url(#p2256c73097)" d="M 222.544802 147.846929 
L 220.773415 143.74057 
L 225.121335 144.787276 
L 222.544802 147.846929 
z
" style="fill:#808080;stroke:#808080;stroke-linecap:round;"/>
   </g>
   <g id="patch_8">
    <path clip-path="url(#p2256c73097)" d="M 274.596193 188.995111 
Q 290.441928 202.173099 305.42805 214.636197 
" style="fill:none;stroke:#808080;stroke-linecap:round;"/>
    <path clip-path="url(#p2256c73097)" d="M 303.631443 210.540808 
L 305.42805 214.636197 
L 301.073776 213.616249 
L 303.631443 210.540808 
z
" style="fill:#808080;stroke:#808080;stroke-linecap:round;"/>
   </g>
   <g id="patch_9">
    <path clip-path="url(#p2256c73097)" d="M 206.654579 131.882362 
Q 182.030086 111.262068 158.262778 91.359572 
" style="fill:none;stroke:#808080;stroke-linecap:round;"/>
    <path clip-path="url(#p2256c73097)" d="M 160.045501 95.461023 
L 158.262778 91.359572 
L 162.613572 92.394265 
L 160.045501 95.461023 
z
" style="fill:#808080;stroke:#808080;stroke-linecap:round;"/>
   </g>
   <g id="patch_10">
    <path clip-path="url(#p2256c73097)" d="M 219.918906 143.020988 
Q 240.616074 160.450066 260.458043 177.158981 
" style="fill:none;stroke:#808080;stroke-linecap:round;"/>
    <path clip-path="url(#p2256c73097)" d="M 258.686656 173.052621 
L 260.458043 177.158981 
L 256.110123 176.112275 
L 258.686656 173.052621 
z
" style="fill:#808080;stroke:#808080;stroke-linecap:round;"/>
   </g>
   <g id="patch_11">
    <path clip-path="url(#p2256c73097)" d="M 164.321317 49.285571 
Q 159.075883 63.1345 154.226462 75.937879 
" style="fill:none;stroke:#808080;stroke-linecap:round;"/>
    <path clip-path="url(#p2256c73097)" d="M 157.513618 72.905618 
L 154.226462 75.937879 
L 153.772947 71.488798 
L 157.513618 72.905618 
z
" style="fill:#808080;stroke:#808080;stroke-linecap:round;"/>
   </g>
   <g id="patch_12">
    <path clip-path="url(#p2256c73097)" d="M 259.599821 71.314518 
Q 209.47805 77.653871 160.465476 83.852933 
" style="fill:none;stroke:#808080;stroke-linecap:round;"/>
    <path clip-path="url(#p2256c73097)" d="M 164.68482 85.335208 
L 160.465476 83.852933 
L 164.182902 81.366824 
L 164.68482 85.335208 
z
" style="fill:#808080;stroke:#808080;stroke-linecap:round;"/>
   </g>
   <g id="patch_13">
    <path clip-path="url(#p2256c73097)" d="M 306.291118 215.353961 
Q 290.445384 202.175973 275.459261 189.712875 
" style="fill:none;stroke:#808080;stroke-linecap:round;"/>
    <path clip-path="url(#p2256c73097)" d="M 277.255868 193.808263 
L 275.459261 189.712875 
L 279.813536 190.732822 
L 277.255868 193.808263 
z
" style="fill:#808080;stroke:#808080;stroke-linecap:round;"/>
   </g>
   <g id="patch_14">
    <path clip-path="url(#p2256c73097)" d="M 55.38118 60.204197 
Q 98.88232 71.5493 141.301612 82.612258 
" style="fill:none;stroke:#808080;stroke-linecap:round;"/>
    <path clip-path="url(#p2256c73097)" d="M 137.935795 79.667554 
L 141.301612 82.612258 
L 136.926359 83.538089 
L 137.935795 79.667554 
z
" style="fill:#808080;stroke:#808080;stroke-linecap:round;"/>
   </g>
   <g id="patch_15">
    <path clip-path="url(#p2256c73097)" d="M 44.818145 100.760722 
Q 93.508586 93.554181 141.093041 86.511335 
" style="fill:none;stroke:#808080;stroke-linecap:round;"/>
    <path clip-path="url(#p2256c73097)" d="M 136.843322 85.118537 
L 141.093041 86.511335 
L 137.428971 89.075431 
L 136.843322 85.118537 
z
" style="fill:#808080;stroke:#808080;stroke-linecap:round;"/>
   </g>
   <g id="PathCollection_1">
    <path clip-path="url(#p2256c73097)" d="M 150.763785 96.260334 
C 153.728846 96.260334 156.572865 95.082303 158.669479 92.985688 
C 160.766094 90.889073 161.944125 88.045055 161.944125 85.079994 
C 161.944125 82.114933 160.766094 79.270914 158.669479 77.1743 
C 156.572865 75.077685 153.728846 73.899654 150.763785 73.899654 
C 147.798724 73.899654 144.954706 75.077685 142.858091 77.1743 
C 140.761476 79.270914 139.583445 82.114933 139.583445 85.079994 
C 139.583445 88.045055 140.761476 90.889073 142.858091 92.985688 
C 144.954706 95.082303 147.798724 96.260334 150.763785 96.260334 
z
" style="fill:#ffa500;fill-opacity:0.7;stroke:#ffa500;stroke-opacity:0.7;"/>
    <path clip-path="url(#p2256c73097)" d="M 267.940204 194.640047 
C 270.905265 194.640047 273.749284 193.462015 275.845898 191.365401 
C 277.942513 189.268786 279.120544 186.424767 279.120544 183.459707 
C 279.120544 180.494646 277.942513 177.650627 275.845898 175.554013 
C 273.749284 173.457398 270.905265 172.279367 267.940204 172.279367 
C 264.975143 172.279367 262.131125 173.457398 260.03451 175.554013 
C 257.937895 177.650627 256.759864 180.494646 256.759864 183.459707 
C 256.759864 186.424767 257.937895 189.268786 260.03451 191.365401 
C 262.131125 193.462015 264.975143 194.640047 267.940204 194.640047 
z
" style="fill:#ffa500;fill-opacity:0.7;stroke:#ffa500;stroke-opacity:0.7;"/>
    <path clip-path="url(#p2256c73097)" d="M 213.291253 144.510912 
C 215.166523 144.510912 216.965238 143.765859 218.291253 142.439844 
C 219.617269 141.113828 220.362321 139.315113 220.362321 137.439844 
C 220.362321 135.564575 219.617269 133.765859 218.291253 132.439844 
C 216.965238 131.113828 215.166523 130.368776 213.291253 130.368776 
C 211.415984 130.368776 209.617269 131.113828 208.291253 132.439844 
C 206.965238 133.765859 206.220186 135.564575 206.220186 137.439844 
C 206.220186 139.315113 206.965238 141.113828 208.291253 142.439844 
C 209.617269 143.765859 211.415984 144.510912 213.291253 144.510912 
z
" style="fill:#808080;fill-opacity:0.7;stroke:#808080;stroke-opacity:0.7;"/>
    <path clip-path="url(#p2256c73097)" d="M 167.388783 48.257953 
C 169.264052 48.257953 171.062767 47.512901 172.388783 46.186885 
C 173.714798 44.86087 174.459851 43.062154 174.459851 41.186885 
C 174.459851 39.311616 173.714798 37.512901 172.388783 36.186885 
C 171.062767 34.86087 169.264052 34.115818 167.388783 34.115818 
C 165.513514 34.115818 163.714798 34.86087 162.388783 36.186885 
C 161.062767 37.512901 160.317715 39.311616 160.317715 41.186885 
C 160.317715 43.062154 161.062767 44.86087 162.388783 46.186885 
C 163.714798 47.512901 165.513514 48.257953 167.388783 48.257953 
z
" style="fill:#808080;fill-opacity:0.7;stroke:#808080;stroke-opacity:0.7;"/>
    <path clip-path="url(#p2256c73097)" d="M 268.189593 77.299159 
C 270.064862 77.299159 271.863578 76.554107 273.189593 75.228092 
C 274.515609 73.902076 275.260661 72.103361 275.260661 70.228092 
C 275.260661 68.352822 274.515609 66.554107 273.189593 65.228092 
C 271.863578 63.902076 270.064862 63.157024 268.189593 63.157024 
C 266.314324 63.157024 264.515609 63.902076 263.189593 65.228092 
C 261.863578 66.554107 261.118525 68.352822 261.118525 70.228092 
C 261.118525 72.103361 261.863578 73.902076 263.189593 75.228092 
C 264.515609 76.554107 266.314324 77.299159 268.189593 77.299159 
z
" style="fill:#808080;fill-opacity:0.7;stroke:#808080;stroke-opacity:0.7;"/>
    <path clip-path="url(#p2256c73097)" d="M 312.947107 227.960432 
C 314.822377 227.960432 316.621092 227.21538 317.947107 225.889365 
C 319.273123 224.563349 320.018175 222.764634 320.018175 220.889365 
C 320.018175 219.014096 319.273123 217.21538 317.947107 215.889365 
C 316.621092 214.563349 314.822377 213.818297 312.947107 213.818297 
C 311.071838 213.818297 309.273123 214.563349 307.947107 215.889365 
C 306.621092 217.21538 305.87604 219.014096 305.87604 220.889365 
C 305.87604 222.764634 306.621092 224.563349 307.947107 225.889365 
C 309.273123 227.21538 311.071838 227.960432 312.947107 227.960432 
z
" style="fill:#808080;fill-opacity:0.7;stroke:#808080;stroke-opacity:0.7;"/>
    <path clip-path="url(#p2256c73097)" d="M 46.999063 65.089207 
C 48.874332 65.089207 50.673048 64.344155 51.999063 63.018139 
C 53.325079 61.692124 54.070131 59.893408 54.070131 58.018139 
C 54.070131 56.14287 53.325079 54.344155 51.999063 53.018139 
C 50.673048 51.692124 48.874332 50.947071 46.999063 50.947071 
C 45.123794 50.947071 43.325079 51.692124 41.999063 53.018139 
C 40.673048 54.344155 39.927995 56.14287 39.927995 58.018139 
C 39.927995 59.893408 40.673048 61.692124 41.999063 63.018139 
C 43.325079 64.344155 45.123794 65.089207 46.999063 65.089207 
z
" style="fill:#808080;fill-opacity:0.7;stroke:#808080;stroke-opacity:0.7;"/>
    <path clip-path="url(#p2256c73097)" d="M 36.252893 109.09951 
C 38.128162 109.09951 39.926877 108.354458 41.252893 107.028442 
C 42.578908 105.702427 43.32396 103.903711 43.32396 102.028442 
C 43.32396 100.153173 42.578908 98.354458 41.252893 97.028442 
C 39.926877 95.702427 38.128162 94.957374 36.252893 94.957374 
C 34.377623 94.957374 32.578908 95.702427 31.252893 97.028442 
C 29.926877 98.354458 29.181825 100.153173 29.181825 102.028442 
C 29.181825 103.903711 29.926877 105.702427 31.252893 107.028442 
C 32.578908 108.354458 34.377623 109.09951 36.252893 109.09951 
z
" style="fill:#808080;fill-opacity:0.7;stroke:#808080;stroke-opacity:0.7;"/>
   </g>
   <g id="text_1">
    <g clip-path="url(#p2256c73097)">
     <!-- green sources -->
     <g transform="translate(122.576285 87.287494)scale(0.08 -0.08)">
      <defs>
       <path d="M 45.40625 27.984375 
Q 45.40625 37.75 41.375 43.109375 
Q 37.359375 48.484375 30.078125 48.484375 
Q 22.859375 48.484375 18.828125 43.109375 
Q 14.796875 37.75 14.796875 27.984375 
Q 14.796875 18.265625 18.828125 12.890625 
Q 22.859375 7.515625 30.078125 7.515625 
Q 37.359375 7.515625 41.375 12.890625 
Q 45.40625 18.265625 45.40625 27.984375 
z
M 54.390625 6.78125 
Q 54.390625 -7.171875 48.1875 -13.984375 
Q 42 -20.796875 29.203125 -20.796875 
Q 24.46875 -20.796875 20.265625 -20.09375 
Q 16.0625 -19.390625 12.109375 -17.921875 
L 12.109375 -9.1875 
Q 16.0625 -11.328125 19.921875 -12.34375 
Q 23.78125 -13.375 27.78125 -13.375 
Q 36.625 -13.375 41.015625 -8.765625 
Q 45.40625 -4.15625 45.40625 5.171875 
L 45.40625 9.625 
Q 42.625 4.78125 38.28125 2.390625 
Q 33.9375 0 27.875 0 
Q 17.828125 0 11.671875 7.65625 
Q 5.515625 15.328125 5.515625 27.984375 
Q 5.515625 40.671875 11.671875 48.328125 
Q 17.828125 56 27.875 56 
Q 33.9375 56 38.28125 53.609375 
Q 42.625 51.21875 45.40625 46.390625 
L 45.40625 54.6875 
L 54.390625 54.6875 
z
" id="DejaVuSans-103"/>
       <path d="M 41.109375 46.296875 
Q 39.59375 47.171875 37.8125 47.578125 
Q 36.03125 48 33.890625 48 
Q 26.265625 48 22.1875 43.046875 
Q 18.109375 38.09375 18.109375 28.8125 
L 18.109375 0 
L 9.078125 0 
L 9.078125 54.6875 
L 18.109375 54.6875 
L 18.109375 46.1875 
Q 20.953125 51.171875 25.484375 53.578125 
Q 30.03125 56 36.53125 56 
Q 37.453125 56 38.578125 55.875 
Q 39.703125 55.765625 41.0625 55.515625 
z
" id="DejaVuSans-114"/>
       <path d="M 56.203125 29.59375 
L 56.203125 25.203125 
L 14.890625 25.203125 
Q 15.484375 15.921875 20.484375 11.0625 
Q 25.484375 6.203125 34.421875 6.203125 
Q 39.59375 6.203125 44.453125 7.46875 
Q 49.3125 8.734375 54.109375 11.28125 
L 54.109375 2.78125 
Q 49.265625 0.734375 44.1875 -0.34375 
Q 39.109375 -1.421875 33.890625 -1.421875 
Q 20.796875 -1.421875 13.15625 6.1875 
Q 5.515625 13.8125 5.515625 26.8125 
Q 5.515625 40.234375 12.765625 48.109375 
Q 20.015625 56 32.328125 56 
Q 43.359375 56 49.78125 48.890625 
Q 56.203125 41.796875 56.203125 29.59375 
z
M 47.21875 32.234375 
Q 47.125 39.59375 43.09375 43.984375 
Q 39.0625 48.390625 32.421875 48.390625 
Q 24.90625 48.390625 20.390625 44.140625 
Q 15.875 39.890625 15.1875 32.171875 
z
" id="DejaVuSans-101"/>
       <path d="M 54.890625 33.015625 
L 54.890625 0 
L 45.90625 0 
L 45.90625 32.71875 
Q 45.90625 40.484375 42.875 44.328125 
Q 39.84375 48.1875 33.796875 48.1875 
Q 26.515625 48.1875 22.3125 43.546875 
Q 18.109375 38.921875 18.109375 30.90625 
L 18.109375 0 
L 9.078125 0 
L 9.078125 54.6875 
L 18.109375 54.6875 
L 18.109375 46.1875 
Q 21.34375 51.125 25.703125 53.5625 
Q 30.078125 56 35.796875 56 
Q 45.21875 56 50.046875 50.171875 
Q 54.890625 44.34375 54.890625 33.015625 
z
" id="DejaVuSans-110"/>
       <path id="DejaVuSans-32"/>
       <path d="M 44.28125 53.078125 
L 44.28125 44.578125 
Q 40.484375 46.53125 36.375 47.5 
Q 32.28125 48.484375 27.875 48.484375 
Q 21.1875 48.484375 17.84375 46.4375 
Q 14.5 44.390625 14.5 40.28125 
Q 14.5 37.15625 16.890625 35.375 
Q 19.28125 33.59375 26.515625 31.984375 
L 29.59375 31.296875 
Q 39.15625 29.25 43.1875 25.515625 
Q 47.21875 21.78125 47.21875 15.09375 
Q 47.21875 7.46875 41.1875 3.015625 
Q 35.15625 -1.421875 24.609375 -1.421875 
Q 20.21875 -1.421875 15.453125 -0.5625 
Q 10.6875 0.296875 5.421875 2 
L 5.421875 11.28125 
Q 10.40625 8.6875 15.234375 7.390625 
Q 20.0625 6.109375 24.8125 6.109375 
Q 31.15625 6.109375 34.5625 8.28125 
Q 37.984375 10.453125 37.984375 14.40625 
Q 37.984375 18.0625 35.515625 20.015625 
Q 33.0625 21.96875 24.703125 23.78125 
L 21.578125 24.515625 
Q 13.234375 26.265625 9.515625 29.90625 
Q 5.8125 33.546875 5.8125 39.890625 
Q 5.8125 47.609375 11.28125 51.796875 
Q 16.75 56 26.8125 56 
Q 31.78125 56 36.171875 55.265625 
Q 40.578125 54.546875 44.28125 53.078125 
z
" id="DejaVuSans-115"/>
       <path d="M 30.609375 48.390625 
Q 23.390625 48.390625 19.1875 42.75 
Q 14.984375 37.109375 14.984375 27.296875 
Q 14.984375 17.484375 19.15625 11.84375 
Q 23.34375 6.203125 30.609375 6.203125 
Q 37.796875 6.203125 41.984375 11.859375 
Q 46.1875 17.53125 46.1875 27.296875 
Q 46.1875 37.015625 41.984375 42.703125 
Q 37.796875 48.390625 30.609375 48.390625 
z
M 30.609375 56 
Q 42.328125 56 49.015625 48.375 
Q 55.71875 40.765625 55.71875 27.296875 
Q 55.71875 13.875 49.015625 6.21875 
Q 42.328125 -1.421875 30.609375 -1.421875 
Q 18.84375 -1.421875 12.171875 6.21875 
Q 5.515625 13.875 5.515625 27.296875 
Q 5.515625 40.765625 12.171875 48.375 
Q 18.84375 56 30.609375 56 
z
" id="DejaVuSans-111"/>
       <path d="M 8.5 21.578125 
L 8.5 54.6875 
L 17.484375 54.6875 
L 17.484375 21.921875 
Q 17.484375 14.15625 20.5 10.265625 
Q 23.53125 6.390625 29.59375 6.390625 
Q 36.859375 6.390625 41.078125 11.03125 
Q 45.3125 15.671875 45.3125 23.6875 
L 45.3125 54.6875 
L 54.296875 54.6875 
L 54.296875 0 
L 45.3125 0 
L 45.3125 8.40625 
Q 42.046875 3.421875 37.71875 1 
Q 33.40625 -1.421875 27.6875 -1.421875 
Q 18.265625 -1.421875 13.375 4.4375 
Q 8.5 10.296875 8.5 21.578125 
z
M 31.109375 56 
z
" id="DejaVuSans-117"/>
       <path d="M 48.78125 52.59375 
L 48.78125 44.1875 
Q 44.96875 46.296875 41.140625 47.34375 
Q 37.3125 48.390625 33.40625 48.390625 
Q 24.65625 48.390625 19.8125 42.84375 
Q 14.984375 37.3125 14.984375 27.296875 
Q 14.984375 17.28125 19.8125 11.734375 
Q 24.65625 6.203125 33.40625 6.203125 
Q 37.3125 6.203125 41.140625 7.25 
Q 44.96875 8.296875 48.78125 10.40625 
L 48.78125 2.09375 
Q 45.015625 0.34375 40.984375 -0.53125 
Q 36.96875 -1.421875 32.421875 -1.421875 
Q 20.0625 -1.421875 12.78125 6.34375 
Q 5.515625 14.109375 5.515625 27.296875 
Q 5.515625 40.671875 12.859375 48.328125 
Q 20.21875 56 33.015625 56 
Q 37.15625 56 41.109375 55.140625 
Q 45.0625 54.296875 48.78125 52.59375 
z
" id="DejaVuSans-99"/>
      </defs>
      <use xlink:href="#DejaVuSans-103"/>
      <use x="63.476562" xlink:href="#DejaVuSans-114"/>
      <use x="102.339844" xlink:href="#DejaVuSans-101"/>
      <use x="163.863281" xlink:href="#DejaVuSans-101"/>
      <use x="225.386719" xlink:href="#DejaVuSans-110"/>
      <use x="288.765625" xlink:href="#DejaVuSans-32"/>
      <use x="320.552734" xlink:href="#DejaVuSans-115"/>
      <use x="372.652344" xlink:href="#DejaVuSans-111"/>
      <use x="433.833984" xlink:href="#DejaVuSans-117"/>
      <use x="497.212891" xlink:href="#DejaVuSans-114"/>
      <use x="536.076172" xlink:href="#DejaVuSans-99"/>
      <use x="591.056641" xlink:href="#DejaVuSans-101"/>
      <use x="652.580078" xlink:href="#DejaVuSans-115"/>
     </g>
    </g>
   </g>
   <g id="text_2">
    <g clip-path="url(#p2256c73097)">
     <!-- grey sources -->
     <g transform="translate(242.381454 185.667207)scale(0.08 -0.08)">
      <defs>
       <path d="M 32.171875 -5.078125 
Q 28.375 -14.84375 24.75 -17.8125 
Q 21.140625 -20.796875 15.09375 -20.796875 
L 7.90625 -20.796875 
L 7.90625 -13.28125 
L 13.1875 -13.28125 
Q 16.890625 -13.28125 18.9375 -11.515625 
Q 21 -9.765625 23.484375 -3.21875 
L 25.09375 0.875 
L 2.984375 54.6875 
L 12.5 54.6875 
L 29.59375 11.921875 
L 46.6875 54.6875 
L 56.203125 54.6875 
z
" id="DejaVuSans-121"/>
      </defs>
      <use xlink:href="#DejaVuSans-103"/>
      <use x="63.476562" xlink:href="#DejaVuSans-114"/>
      <use x="102.339844" xlink:href="#DejaVuSans-101"/>
      <use x="163.863281" xlink:href="#DejaVuSans-121"/>
      <use x="223.042969" xlink:href="#DejaVuSans-32"/>
      <use x="254.830078" xlink:href="#DejaVuSans-115"/>
      <use x="306.929688" xlink:href="#DejaVuSans-111"/>
      <use x="368.111328" xlink:href="#DejaVuSans-117"/>
      <use x="431.490234" xlink:href="#DejaVuSans-114"/>
      <use x="470.353516" xlink:href="#DejaVuSans-99"/>
      <use x="525.333984" xlink:href="#DejaVuSans-101"/>
      <use x="586.857422" xlink:href="#DejaVuSans-115"/>
     </g>
    </g>
   </g>
   <g id="text_3">
    <g clip-path="url(#p2256c73097)">
     <!-- downstream -->
     <g transform="translate(188.483128 139.647344)scale(0.08 -0.08)">
      <defs>
       <path d="M 45.40625 46.390625 
L 45.40625 75.984375 
L 54.390625 75.984375 
L 54.390625 0 
L 45.40625 0 
L 45.40625 8.203125 
Q 42.578125 3.328125 38.25 0.953125 
Q 33.9375 -1.421875 27.875 -1.421875 
Q 17.96875 -1.421875 11.734375 6.484375 
Q 5.515625 14.40625 5.515625 27.296875 
Q 5.515625 40.1875 11.734375 48.09375 
Q 17.96875 56 27.875 56 
Q 33.9375 56 38.25 53.625 
Q 42.578125 51.265625 45.40625 46.390625 
z
M 14.796875 27.296875 
Q 14.796875 17.390625 18.875 11.75 
Q 22.953125 6.109375 30.078125 6.109375 
Q 37.203125 6.109375 41.296875 11.75 
Q 45.40625 17.390625 45.40625 27.296875 
Q 45.40625 37.203125 41.296875 42.84375 
Q 37.203125 48.484375 30.078125 48.484375 
Q 22.953125 48.484375 18.875 42.84375 
Q 14.796875 37.203125 14.796875 27.296875 
z
" id="DejaVuSans-100"/>
       <path d="M 4.203125 54.6875 
L 13.1875 54.6875 
L 24.421875 12.015625 
L 35.59375 54.6875 
L 46.1875 54.6875 
L 57.421875 12.015625 
L 68.609375 54.6875 
L 77.59375 54.6875 
L 63.28125 0 
L 52.6875 0 
L 40.921875 44.828125 
L 29.109375 0 
L 18.5 0 
z
" id="DejaVuSans-119"/>
       <path d="M 18.3125 70.21875 
L 18.3125 54.6875 
L 36.8125 54.6875 
L 36.8125 47.703125 
L 18.3125 47.703125 
L 18.3125 18.015625 
Q 18.3125 11.328125 20.140625 9.421875 
Q 21.96875 7.515625 27.59375 7.515625 
L 36.8125 7.515625 
L 36.8125 0 
L 27.59375 0 
Q 17.1875 0 13.234375 3.875 
Q 9.28125 7.765625 9.28125 18.015625 
L 9.28125 47.703125 
L 2.6875 47.703125 
L 2.6875 54.6875 
L 9.28125 54.6875 
L 9.28125 70.21875 
z
" id="DejaVuSans-116"/>
       <path d="M 34.28125 27.484375 
Q 23.390625 27.484375 19.1875 25 
Q 14.984375 22.515625 14.984375 16.5 
Q 14.984375 11.71875 18.140625 8.90625 
Q 21.296875 6.109375 26.703125 6.109375 
Q 34.1875 6.109375 38.703125 11.40625 
Q 43.21875 16.703125 43.21875 25.484375 
L 43.21875 27.484375 
z
M 52.203125 31.203125 
L 52.203125 0 
L 43.21875 0 
L 43.21875 8.296875 
Q 40.140625 3.328125 35.546875 0.953125 
Q 30.953125 -1.421875 24.3125 -1.421875 
Q 15.921875 -1.421875 10.953125 3.296875 
Q 6 8.015625 6 15.921875 
Q 6 25.140625 12.171875 29.828125 
Q 18.359375 34.515625 30.609375 34.515625 
L 43.21875 34.515625 
L 43.21875 35.40625 
Q 43.21875 41.609375 39.140625 45 
Q 35.0625 48.390625 27.6875 48.390625 
Q 23 48.390625 18.546875 47.265625 
Q 14.109375 46.140625 10.015625 43.890625 
L 10.015625 52.203125 
Q 14.9375 54.109375 19.578125 55.046875 
Q 24.21875 56 28.609375 56 
Q 40.484375 56 46.34375 49.84375 
Q 52.203125 43.703125 52.203125 31.203125 
z
" id="DejaVuSans-97"/>
       <path d="M 52 44.1875 
Q 55.375 50.25 60.0625 53.125 
Q 64.75 56 71.09375 56 
Q 79.640625 56 84.28125 50.015625 
Q 88.921875 44.046875 88.921875 33.015625 
L 88.921875 0 
L 79.890625 0 
L 79.890625 32.71875 
Q 79.890625 40.578125 77.09375 44.375 
Q 74.3125 48.1875 68.609375 48.1875 
Q 61.625 48.1875 57.5625 43.546875 
Q 53.515625 38.921875 53.515625 30.90625 
L 53.515625 0 
L 44.484375 0 
L 44.484375 32.71875 
Q 44.484375 40.625 41.703125 44.40625 
Q 38.921875 48.1875 33.109375 48.1875 
Q 26.21875 48.1875 22.15625 43.53125 
Q 18.109375 38.875 18.109375 30.90625 
L 18.109375 0 
L 9.078125 0 
L 9.078125 54.6875 
L 18.109375 54.6875 
L 18.109375 46.1875 
Q 21.1875 51.21875 25.484375 53.609375 
Q 29.78125 56 35.6875 56 
Q 41.65625 56 45.828125 52.96875 
Q 50 49.953125 52 44.1875 
z
" id="DejaVuSans-109"/>
      </defs>
      <use xlink:href="#DejaVuSans-100"/>
      <use x="63.476562" xlink:href="#DejaVuSans-111"/>
      <use x="124.658203" xlink:href="#DejaVuSans-119"/>
      <use x="206.445312" xlink:href="#DejaVuSans-110"/>
      <use x="269.824219" xlink:href="#DejaVuSans-115"/>
      <use x="321.923828" xlink:href="#DejaVuSans-116"/>
      <use x="361.132812" xlink:href="#DejaVuSans-114"/>
      <use x="399.996094" xlink:href="#DejaVuSans-101"/>
      <use x="461.519531" xlink:href="#DejaVuSans-97"/>
      <use x="522.798828" xlink:href="#DejaVuSans-109"/>
     </g>
    </g>
   </g>
   <g id="text_4">
    <g clip-path="url(#p2256c73097)">
     <!-- wind -->
     <g transform="translate(157.931908 43.394385)scale(0.08 -0.08)">
      <defs>
       <path d="M 9.421875 54.6875 
L 18.40625 54.6875 
L 18.40625 0 
L 9.421875 0 
z
M 9.421875 75.984375 
L 18.40625 75.984375 
L 18.40625 64.59375 
L 9.421875 64.59375 
z
" id="DejaVuSans-105"/>
      </defs>
      <use xlink:href="#DejaVuSans-119"/>
      <use x="81.787109" xlink:href="#DejaVuSans-105"/>
      <use x="109.570312" xlink:href="#DejaVuSans-110"/>
      <use x="172.949219" xlink:href="#DejaVuSans-100"/>
     </g>
    </g>
   </g>
   <g id="text_5">
    <g clip-path="url(#p2256c73097)">
     <!-- PV -->
     <g transform="translate(263.041468 72.435592)scale(0.08 -0.08)">
      <defs>
       <path d="M 19.671875 64.796875 
L 19.671875 37.40625 
L 32.078125 37.40625 
Q 38.96875 37.40625 42.71875 40.96875 
Q 46.484375 44.53125 46.484375 51.125 
Q 46.484375 57.671875 42.71875 61.234375 
Q 38.96875 64.796875 32.078125 64.796875 
z
M 9.8125 72.90625 
L 32.078125 72.90625 
Q 44.34375 72.90625 50.609375 67.359375 
Q 56.890625 61.8125 56.890625 51.125 
Q 56.890625 40.328125 50.609375 34.8125 
Q 44.34375 29.296875 32.078125 29.296875 
L 19.671875 29.296875 
L 19.671875 0 
L 9.8125 0 
z
" id="DejaVuSans-80"/>
       <path d="M 28.609375 0 
L 0.78125 72.90625 
L 11.078125 72.90625 
L 34.1875 11.53125 
L 57.328125 72.90625 
L 67.578125 72.90625 
L 39.796875 0 
z
" id="DejaVuSans-86"/>
      </defs>
      <use xlink:href="#DejaVuSans-80"/>
      <use x="60.302734" xlink:href="#DejaVuSans-86"/>
     </g>
    </g>
   </g>
   <g id="text_6">
    <g clip-path="url(#p2256c73097)">
     <!-- spot market -->
     <g transform="translate(288.844607 223.096865)scale(0.08 -0.08)">
      <defs>
       <path d="M 18.109375 8.203125 
L 18.109375 -20.796875 
L 9.078125 -20.796875 
L 9.078125 54.6875 
L 18.109375 54.6875 
L 18.109375 46.390625 
Q 20.953125 51.265625 25.265625 53.625 
Q 29.59375 56 35.59375 56 
Q 45.5625 56 51.78125 48.09375 
Q 58.015625 40.1875 58.015625 27.296875 
Q 58.015625 14.40625 51.78125 6.484375 
Q 45.5625 -1.421875 35.59375 -1.421875 
Q 29.59375 -1.421875 25.265625 0.953125 
Q 20.953125 3.328125 18.109375 8.203125 
z
M 48.6875 27.296875 
Q 48.6875 37.203125 44.609375 42.84375 
Q 40.53125 48.484375 33.40625 48.484375 
Q 26.265625 48.484375 22.1875 42.84375 
Q 18.109375 37.203125 18.109375 27.296875 
Q 18.109375 17.390625 22.1875 11.75 
Q 26.265625 6.109375 33.40625 6.109375 
Q 40.53125 6.109375 44.609375 11.75 
Q 48.6875 17.390625 48.6875 27.296875 
z
" id="DejaVuSans-112"/>
       <path d="M 9.078125 75.984375 
L 18.109375 75.984375 
L 18.109375 31.109375 
L 44.921875 54.6875 
L 56.390625 54.6875 
L 27.390625 29.109375 
L 57.625 0 
L 45.90625 0 
L 18.109375 26.703125 
L 18.109375 0 
L 9.078125 0 
z
" id="DejaVuSans-107"/>
      </defs>
      <use xlink:href="#DejaVuSans-115"/>
      <use x="52.099609" xlink:href="#DejaVuSans-112"/>
      <use x="115.576172" xlink:href="#DejaVuSans-111"/>
      <use x="176.757812" xlink:href="#DejaVuSans-116"/>
      <use x="215.966797" xlink:href="#DejaVuSans-32"/>
      <use x="247.753906" xlink:href="#DejaVuSans-109"/>
      <use x="345.166016" xlink:href="#DejaVuSans-97"/>
      <use x="406.445312" xlink:href="#DejaVuSans-114"/>
      <use x="447.558594" xlink:href="#DejaVuSans-107"/>
      <use x="501.84375" xlink:href="#DejaVuSans-101"/>
      <use x="563.367188" xlink:href="#DejaVuSans-116"/>
     </g>
    </g>
   </g>
   <g id="text_7">
    <g clip-path="url(#p2256c73097)">
     <!-- green sales -->
     <g transform="translate(23.985313 60.225639)scale(0.08 -0.08)">
      <defs>
       <path d="M 9.421875 75.984375 
L 18.40625 75.984375 
L 18.40625 0 
L 9.421875 0 
z
" id="DejaVuSans-108"/>
      </defs>
      <use xlink:href="#DejaVuSans-103"/>
      <use x="63.476562" xlink:href="#DejaVuSans-114"/>
      <use x="102.339844" xlink:href="#DejaVuSans-101"/>
      <use x="163.863281" xlink:href="#DejaVuSans-101"/>
      <use x="225.386719" xlink:href="#DejaVuSans-110"/>
      <use x="288.765625" xlink:href="#DejaVuSans-32"/>
      <use x="320.552734" xlink:href="#DejaVuSans-115"/>
      <use x="372.652344" xlink:href="#DejaVuSans-97"/>
      <use x="433.931641" xlink:href="#DejaVuSans-108"/>
      <use x="461.714844" xlink:href="#DejaVuSans-101"/>
      <use x="523.238281" xlink:href="#DejaVuSans-115"/>
     </g>
    </g>
   </g>
   <g id="text_8">
    <g clip-path="url(#p2256c73097)">
     <!-- battery -->
     <g transform="translate(21.652893 104.235942)scale(0.08 -0.08)">
      <defs>
       <path d="M 48.6875 27.296875 
Q 48.6875 37.203125 44.609375 42.84375 
Q 40.53125 48.484375 33.40625 48.484375 
Q 26.265625 48.484375 22.1875 42.84375 
Q 18.109375 37.203125 18.109375 27.296875 
Q 18.109375 17.390625 22.1875 11.75 
Q 26.265625 6.109375 33.40625 6.109375 
Q 40.53125 6.109375 44.609375 11.75 
Q 48.6875 17.390625 48.6875 27.296875 
z
M 18.109375 46.390625 
Q 20.953125 51.265625 25.265625 53.625 
Q 29.59375 56 35.59375 56 
Q 45.5625 56 51.78125 48.09375 
Q 58.015625 40.1875 58.015625 27.296875 
Q 58.015625 14.40625 51.78125 6.484375 
Q 45.5625 -1.421875 35.59375 -1.421875 
Q 29.59375 -1.421875 25.265625 0.953125 
Q 20.953125 3.328125 18.109375 8.203125 
L 18.109375 0 
L 9.078125 0 
L 9.078125 75.984375 
L 18.109375 75.984375 
z
" id="DejaVuSans-98"/>
      </defs>
      <use xlink:href="#DejaVuSans-98"/>
      <use x="63.476562" xlink:href="#DejaVuSans-97"/>
      <use x="124.755859" xlink:href="#DejaVuSans-116"/>
      <use x="163.964844" xlink:href="#DejaVuSans-116"/>
      <use x="203.173828" xlink:href="#DejaVuSans-101"/>
      <use x="264.697266" xlink:href="#DejaVuSans-114"/>
      <use x="305.810547" xlink:href="#DejaVuSans-121"/>
     </g>
    </g>
   </g>
   <g id="text_9">
    <!-- Complete portfolio with downstream contract -->
    <g transform="translate(38.1075 16.318125)scale(0.12 -0.12)">
     <defs>
      <path d="M 64.40625 67.28125 
L 64.40625 56.890625 
Q 59.421875 61.53125 53.78125 63.8125 
Q 48.140625 66.109375 41.796875 66.109375 
Q 29.296875 66.109375 22.65625 58.46875 
Q 16.015625 50.828125 16.015625 36.375 
Q 16.015625 21.96875 22.65625 14.328125 
Q 29.296875 6.6875 41.796875 6.6875 
Q 48.140625 6.6875 53.78125 8.984375 
Q 59.421875 11.28125 64.40625 15.921875 
L 64.40625 5.609375 
Q 59.234375 2.09375 53.4375 0.328125 
Q 47.65625 -1.421875 41.21875 -1.421875 
Q 24.65625 -1.421875 15.125 8.703125 
Q 5.609375 18.84375 5.609375 36.375 
Q 5.609375 53.953125 15.125 64.078125 
Q 24.65625 74.21875 41.21875 74.21875 
Q 47.75 74.21875 53.53125 72.484375 
Q 59.328125 70.75 64.40625 67.28125 
z
" id="DejaVuSans-67"/>
      <path d="M 37.109375 75.984375 
L 37.109375 68.5 
L 28.515625 68.5 
Q 23.6875 68.5 21.796875 66.546875 
Q 19.921875 64.59375 19.921875 59.515625 
L 19.921875 54.6875 
L 34.71875 54.6875 
L 34.71875 47.703125 
L 19.921875 47.703125 
L 19.921875 0 
L 10.890625 0 
L 10.890625 47.703125 
L 2.296875 47.703125 
L 2.296875 54.6875 
L 10.890625 54.6875 
L 10.890625 58.5 
Q 10.890625 67.625 15.140625 71.796875 
Q 19.390625 75.984375 28.609375 75.984375 
z
" id="DejaVuSans-102"/>
      <path d="M 54.890625 33.015625 
L 54.890625 0 
L 45.90625 0 
L 45.90625 32.71875 
Q 45.90625 40.484375 42.875 44.328125 
Q 39.84375 48.1875 33.796875 48.1875 
Q 26.515625 48.1875 22.3125 43.546875 
Q 18.109375 38.921875 18.109375 30.90625 
L 18.109375 0 
L 9.078125 0 
L 9.078125 75.984375 
L 18.109375 75.984375 
L 18.109375 46.1875 
Q 21.34375 51.125 25.703125 53.5625 
Q 30.078125 56 35.796875 56 
Q 45.21875 56 50.046875 50.171875 
Q 54.890625 44.34375 54.890625 33.015625 
z
" id="DejaVuSans-104"/>
     </defs>
     <use xlink:href="#DejaVuSans-67"/>
     <use x="69.824219" xlink:href="#DejaVuSans-111"/>
     <use x="131.005859" xlink:href="#DejaVuSans-109"/>
     <use x="228.417969" xlink:href="#DejaVuSans-112"/>
     <use x="291.894531" xlink:href="#DejaVuSans-108"/>
     <use x="319.677734" xlink:href="#DejaVuSans-101"/>
     <use x="381.201172" xlink:href="#DejaVuSans-116"/>
     <use x="420.410156" xlink:href="#DejaVuSans-101"/>
     <use x="481.933594" xlink:href="#DejaVuSans-32"/>
     <use x="513.720703" xlink:href="#DejaVuSans-112"/>
     <use x="577.197266" xlink:href="#DejaVuSans-111"/>
     <use x="638.378906" xlink:href="#DejaVuSans-114"/>
     <use x="679.492188" xlink:href="#DejaVuSans-116"/>
     <use x="718.701172" xlink:href="#DejaVuSans-102"/>
     <use x="753.90625" xlink:href="#DejaVuSans-111"/>
     <use x="815.087891" xlink:href="#DejaVuSans-108"/>
     <use x="842.871094" xlink:href="#DejaVuSans-105"/>
     <use x="870.654297" xlink:href="#DejaVuSans-111"/>
     <use x="931.835938" xlink:href="#DejaVuSans-32"/>
     <use x="963.623047" xlink:href="#DejaVuSans-119"/>
     <use x="1045.410156" xlink:href="#DejaVuSans-105"/>
     <use x="1073.193359" xlink:href="#DejaVuSans-116"/>
     <use x="1112.402344" xlink:href="#DejaVuSans-104"/>
     <use x="1175.78125" xlink:href="#DejaVuSans-32"/>
     <use x="1207.568359" xlink:href="#DejaVuSans-100"/>
     <use x="1271.044922" xlink:href="#DejaVuSans-111"/>
     <use x="1332.226562" xlink:href="#DejaVuSans-119"/>
     <use x="1414.013672" xlink:href="#DejaVuSans-110"/>
     <use x="1477.392578" xlink:href="#DejaVuSans-115"/>
     <use x="1529.492188" xlink:href="#DejaVuSans-116"/>
     <use x="1568.701172" xlink:href="#DejaVuSans-114"/>
     <use x="1607.564453" xlink:href="#DejaVuSans-101"/>
     <use x="1669.087891" xlink:href="#DejaVuSans-97"/>
     <use x="1730.367188" xlink:href="#DejaVuSans-109"/>
     <use x="1827.779297" xlink:href="#DejaVuSans-32"/>
     <use x="1859.566406" xlink:href="#DejaVuSans-99"/>
     <use x="1914.546875" xlink:href="#DejaVuSans-111"/>
     <use x="1975.728516" xlink:href="#DejaVuSans-110"/>
     <use x="2039.107422" xlink:href="#DejaVuSans-116"/>
     <use x="2078.316406" xlink:href="#DejaVuSans-114"/>
     <use x="2119.429688" xlink:href="#DejaVuSans-97"/>
     <use x="2180.708984" xlink:href="#DejaVuSans-99"/>
     <use x="2235.689453" xlink:href="#DejaVuSans-116"/>
    </g>
   </g>
  </g>
 </g>
 <defs>
  <clipPath id="p2256c73097">
   <rect height="217.44" width="334.8" x="7.2" y="22.318125"/>
  </clipPath>
 </defs>
</svg>
