<?xml version="1.0" encoding="utf-8" standalone="no"?>
<!DOCTYPE svg PUBLIC "-//W3C//DTD SVG 1.1//EN"
  "http://www.w3.org/Graphics/SVG/1.1/DTD/svg11.dtd">
<!-- Created with matplotlib (https://matplotlib.org/) -->
<svg height="246.958125pt" version="1.1" viewBox="0 0 349.2 246.958125" width="349.2pt" xmlns="http://www.w3.org/2000/svg" xmlns:xlink="http://www.w3.org/1999/xlink">
 <metadata>
  <rdf:RDF xmlns:cc="http://creativecommons.org/ns#" xmlns:dc="http://purl.org/dc/elements/1.1/" xmlns:rdf="http://www.w3.org/1999/02/22-rdf-syntax-ns#">
   <cc:Work>
    <dc:type rdf:resource="http://purl.org/dc/dcmitype/StillImage"/>
    <dc:date>2021-05-27T21:50:54.013515</dc:date>
    <dc:format>image/svg+xml</dc:format>
    <dc:creator>
     <cc:Agent>
      <dc:title>Matplotlib v3.3.4, https://matplotlib.org/</dc:title>
     </cc:Agent>
    </dc:creator>
   </cc:Work>
  </rdf:RDF>
 </metadata>
 <defs>
  <style type="text/css">*{stroke-linecap:butt;stroke-linejoin:round;}</style>
 </defs>
 <g id="figure_1">
  <g id="patch_1">
   <path d="M 0 246.958125 
L 349.2 246.958125 
L 349.2 0 
L 0 0 
z
" style="fill:none;"/>
  </g>
  <g id="axes_1">
   <g id="patch_2">
    <path clip-path="url(#pad1eef3344)" d="M 239.789047 170.303237 
Q 154.044339 194.423424 69.375892 218.240857 
" style="fill:none;stroke:#808080;stroke-linecap:round;"/>
    <path clip-path="url(#pad1eef3344)" d="M 73.768028 219.082964 
L 69.375892 218.240857 
L 72.684859 215.232412 
L 73.768028 219.082964 
z
" style="fill:#808080;stroke:#808080;stroke-linecap:round;"/>
   </g>
   <g id="patch_3">
    <path clip-path="url(#pad1eef3344)" d="M 44.603463 112.275657 
Q 142.188406 138.974769 238.694949 165.378833 
" style="fill:none;stroke:#808080;stroke-linecap:round;"/>
    <path clip-path="url(#pad1eef3344)" d="M 235.364548 162.394134 
L 238.694949 165.378833 
L 234.30895 166.252334 
L 235.364548 162.394134 
z
" style="fill:#808080;stroke:#808080;stroke-linecap:round;"/>
   </g>
   <g id="patch_4">
    <path clip-path="url(#pad1eef3344)" d="M 309.004465 48.897335 
Q 280.536408 104.571049 252.577359 159.249318 
" style="fill:none;stroke:#808080;stroke-linecap:round;"/>
    <path clip-path="url(#pad1eef3344)" d="M 256.179149 156.598448 
L 252.577359 159.249318 
L 252.617737 154.777364 
L 256.179149 156.598448 
z
" style="fill:#808080;stroke:#808080;stroke-linecap:round;"/>
   </g>
   <g id="patch_5">
    <path clip-path="url(#pad1eef3344)" d="M 68.295658 218.54473 
Q 154.040366 194.424542 238.708812 170.607109 
" style="fill:none;stroke:#808080;stroke-linecap:round;"/>
    <path clip-path="url(#pad1eef3344)" d="M 234.316677 169.765003 
L 238.708812 170.607109 
L 235.399846 173.615554 
L 234.316677 169.765003 
z
" style="fill:#808080;stroke:#808080;stroke-linecap:round;"/>
   </g>
   <g id="text_1">
    <g id="patch_6">
     <path clip-path="url(#pad1eef3344)" d="M 121.342523 139.773099 
L 159.724384 150.274325 
Q 162.039305 150.907685 162.672664 148.592764 
L 164.715907 141.124735 
Q 165.349266 138.809814 163.034346 138.176455 
L 124.652484 127.675228 
Q 122.337564 127.041869 121.704205 129.35679 
L 119.660962 136.824819 
Q 119.027602 139.139739 121.342523 139.773099 
z
" style="fill:#ffffff;stroke:#ffffff;stroke-linejoin:miter;"/>
    </g>
    <g clip-path="url(#pad1eef3344)">
     <!-- green link -->
     <g transform="translate(122.414945 135.853408)rotate(-344.69842)scale(0.08 -0.08)">
      <defs>
       <path d="M 45.40625 27.984375 
Q 45.40625 37.75 41.375 43.109375 
Q 37.359375 48.484375 30.078125 48.484375 
Q 22.859375 48.484375 18.828125 43.109375 
Q 14.796875 37.75 14.796875 27.984375 
Q 14.796875 18.265625 18.828125 12.890625 
Q 22.859375 7.515625 30.078125 7.515625 
Q 37.359375 7.515625 41.375 12.890625 
Q 45.40625 18.265625 45.40625 27.984375 
z
M 54.390625 6.78125 
Q 54.390625 -7.171875 48.1875 -13.984375 
Q 42 -20.796875 29.203125 -20.796875 
Q 24.46875 -20.796875 20.265625 -20.09375 
Q 16.0625 -19.390625 12.109375 -17.921875 
L 12.109375 -9.1875 
Q 16.0625 -11.328125 19.921875 -12.34375 
Q 23.78125 -13.375 27.78125 -13.375 
Q 36.625 -13.375 41.015625 -8.765625 
Q 45.40625 -4.15625 45.40625 5.171875 
L 45.40625 9.625 
Q 42.625 4.78125 38.28125 2.390625 
Q 33.9375 0 27.875 0 
Q 17.828125 0 11.671875 7.65625 
Q 5.515625 15.328125 5.515625 27.984375 
Q 5.515625 40.671875 11.671875 48.328125 
Q 17.828125 56 27.875 56 
Q 33.9375 56 38.28125 53.609375 
Q 42.625 51.21875 45.40625 46.390625 
L 45.40625 54.6875 
L 54.390625 54.6875 
z
" id="DejaVuSans-103"/>
       <path d="M 41.109375 46.296875 
Q 39.59375 47.171875 37.8125 47.578125 
Q 36.03125 48 33.890625 48 
Q 26.265625 48 22.1875 43.046875 
Q 18.109375 38.09375 18.109375 28.8125 
L 18.109375 0 
L 9.078125 0 
L 9.078125 54.6875 
L 18.109375 54.6875 
L 18.109375 46.1875 
Q 20.953125 51.171875 25.484375 53.578125 
Q 30.03125 56 36.53125 56 
Q 37.453125 56 38.578125 55.875 
Q 39.703125 55.765625 41.0625 55.515625 
z
" id="DejaVuSans-114"/>
       <path d="M 56.203125 29.59375 
L 56.203125 25.203125 
L 14.890625 25.203125 
Q 15.484375 15.921875 20.484375 11.0625 
Q 25.484375 6.203125 34.421875 6.203125 
Q 39.59375 6.203125 44.453125 7.46875 
Q 49.3125 8.734375 54.109375 11.28125 
L 54.109375 2.78125 
Q 49.265625 0.734375 44.1875 -0.34375 
Q 39.109375 -1.421875 33.890625 -1.421875 
Q 20.796875 -1.421875 13.15625 6.1875 
Q 5.515625 13.8125 5.515625 26.8125 
Q 5.515625 40.234375 12.765625 48.109375 
Q 20.015625 56 32.328125 56 
Q 43.359375 56 49.78125 48.890625 
Q 56.203125 41.796875 56.203125 29.59375 
z
M 47.21875 32.234375 
Q 47.125 39.59375 43.09375 43.984375 
Q 39.0625 48.390625 32.421875 48.390625 
Q 24.90625 48.390625 20.390625 44.140625 
Q 15.875 39.890625 15.1875 32.171875 
z
" id="DejaVuSans-101"/>
       <path d="M 54.890625 33.015625 
L 54.890625 0 
L 45.90625 0 
L 45.90625 32.71875 
Q 45.90625 40.484375 42.875 44.328125 
Q 39.84375 48.1875 33.796875 48.1875 
Q 26.515625 48.1875 22.3125 43.546875 
Q 18.109375 38.921875 18.109375 30.90625 
L 18.109375 0 
L 9.078125 0 
L 9.078125 54.6875 
L 18.109375 54.6875 
L 18.109375 46.1875 
Q 21.34375 51.125 25.703125 53.5625 
Q 30.078125 56 35.796875 56 
Q 45.21875 56 50.046875 50.171875 
Q 54.890625 44.34375 54.890625 33.015625 
z
" id="DejaVuSans-110"/>
       <path id="DejaVuSans-32"/>
       <path d="M 9.421875 75.984375 
L 18.40625 75.984375 
L 18.40625 0 
L 9.421875 0 
z
" id="DejaVuSans-108"/>
       <path d="M 9.421875 54.6875 
L 18.40625 54.6875 
L 18.40625 0 
L 9.421875 0 
z
M 9.421875 75.984375 
L 18.40625 75.984375 
L 18.40625 64.59375 
L 9.421875 64.59375 
z
" id="DejaVuSans-105"/>
       <path d="M 9.078125 75.984375 
L 18.109375 75.984375 
L 18.109375 31.109375 
L 44.921875 54.6875 
L 56.390625 54.6875 
L 27.390625 29.109375 
L 57.625 0 
L 45.90625 0 
L 18.109375 26.703125 
L 18.109375 0 
L 9.078125 0 
z
" id="DejaVuSans-107"/>
      </defs>
      <use xlink:href="#DejaVuSans-103"/>
      <use x="63.476562" xlink:href="#DejaVuSans-114"/>
      <use x="102.339844" xlink:href="#DejaVuSans-101"/>
      <use x="163.863281" xlink:href="#DejaVuSans-101"/>
      <use x="225.386719" xlink:href="#DejaVuSans-110"/>
      <use x="288.765625" xlink:href="#DejaVuSans-32"/>
      <use x="320.552734" xlink:href="#DejaVuSans-108"/>
      <use x="348.335938" xlink:href="#DejaVuSans-105"/>
      <use x="376.119141" xlink:href="#DejaVuSans-110"/>
      <use x="439.498047" xlink:href="#DejaVuSans-107"/>
     </g>
    </g>
   </g>
   <g id="text_2">
    <g id="patch_7">
     <path clip-path="url(#pad1eef3344)" d="M 278.257778 122.802031 
L 293.980557 92.053691 
Q 295.073208 89.916844 292.93636 88.824193 
L 286.042802 85.299259 
Q 283.905955 84.206609 282.813305 86.343456 
L 267.090526 117.091796 
Q 265.997876 119.228643 268.134723 120.321294 
L 275.028281 123.846228 
Q 277.165128 124.938878 278.257778 122.802031 
z
" style="fill:#ffffff;stroke:#ffffff;stroke-linejoin:miter;"/>
    </g>
    <g clip-path="url(#pad1eef3344)">
     <!-- grey link -->
     <g transform="translate(274.639606 120.951924)rotate(-62.917637)scale(0.08 -0.08)">
      <defs>
       <path d="M 32.171875 -5.078125 
Q 28.375 -14.84375 24.75 -17.8125 
Q 21.140625 -20.796875 15.09375 -20.796875 
L 7.90625 -20.796875 
L 7.90625 -13.28125 
L 13.1875 -13.28125 
Q 16.890625 -13.28125 18.9375 -11.515625 
Q 21 -9.765625 23.484375 -3.21875 
L 25.09375 0.875 
L 2.984375 54.6875 
L 12.5 54.6875 
L 29.59375 11.921875 
L 46.6875 54.6875 
L 56.203125 54.6875 
z
" id="DejaVuSans-121"/>
      </defs>
      <use xlink:href="#DejaVuSans-103"/>
      <use x="63.476562" xlink:href="#DejaVuSans-114"/>
      <use x="102.339844" xlink:href="#DejaVuSans-101"/>
      <use x="163.863281" xlink:href="#DejaVuSans-121"/>
      <use x="223.042969" xlink:href="#DejaVuSans-32"/>
      <use x="254.830078" xlink:href="#DejaVuSans-108"/>
      <use x="282.613281" xlink:href="#DejaVuSans-105"/>
      <use x="310.396484" xlink:href="#DejaVuSans-110"/>
      <use x="373.775391" xlink:href="#DejaVuSans-107"/>
     </g>
    </g>
   </g>
   <g id="PathCollection_1">
    <path clip-path="url(#pad1eef3344)" d="M 248.123976 179.138942 
C 251.089037 179.138942 253.933055 177.96091 256.02967 175.864296 
C 258.126285 173.767681 259.304316 170.923663 259.304316 167.958602 
C 259.304316 164.993541 258.126285 162.149522 256.02967 160.052908 
C 253.933055 157.956293 251.089037 156.778262 248.123976 156.778262 
C 245.158915 156.778262 242.314896 157.956293 240.218282 160.052908 
C 238.121667 162.149522 236.943636 164.993541 236.943636 167.958602 
C 236.943636 170.923663 238.121667 173.767681 240.218282 175.864296 
C 242.314896 177.96091 245.158915 179.138942 248.123976 179.138942 
z
" style="fill:#ffa500;fill-opacity:0.7;stroke:#ffa500;stroke-opacity:0.7;"/>
    <path clip-path="url(#pad1eef3344)" d="M 36.252893 121.171292 
C 39.217953 121.171292 42.061972 119.993261 44.158587 117.896646 
C 46.255201 115.800032 47.433232 112.956013 47.433232 109.990952 
C 47.433232 107.025891 46.255201 104.181872 44.158587 102.085258 
C 42.061972 99.988643 39.217953 98.810612 36.252893 98.810612 
C 33.287832 98.810612 30.443813 99.988643 28.347198 102.085258 
C 26.250584 104.181872 25.072553 107.025891 25.072553 109.990952 
C 25.072553 112.956013 26.250584 115.800032 28.347198 117.896646 
C 30.443813 119.993261 33.287832 121.171292 36.252893 121.171292 
z
" style="fill:#ffa500;fill-opacity:0.7;stroke:#ffa500;stroke-opacity:0.7;"/>
    <path clip-path="url(#pad1eef3344)" d="M 312.947107 52.367225 
C 315.912168 52.367225 318.756187 51.189194 320.852802 49.092579 
C 322.949416 46.995965 324.127447 44.151946 324.127447 41.186885 
C 324.127447 38.221825 322.949416 35.377806 320.852802 33.281191 
C 318.756187 31.184577 315.912168 30.006545 312.947107 30.006545 
C 309.982047 30.006545 307.138028 31.184577 305.041413 33.281191 
C 302.944799 35.377806 301.766768 38.221825 301.766768 41.186885 
C 301.766768 44.151946 302.944799 46.995965 305.041413 49.092579 
C 307.138028 51.189194 309.982047 52.367225 312.947107 52.367225 
z
" style="fill:#ffa500;fill-opacity:0.7;stroke:#ffa500;stroke-opacity:0.7;"/>
    <path clip-path="url(#pad1eef3344)" d="M 59.960729 227.960432 
C 61.835998 227.960432 63.634713 227.21538 64.960729 225.889365 
C 66.286744 224.563349 67.031796 222.764634 67.031796 220.889365 
C 67.031796 219.014096 66.286744 217.21538 64.960729 215.889365 
C 63.634713 214.563349 61.835998 213.818297 59.960729 213.818297 
C 58.085459 213.818297 56.286744 214.563349 54.960729 215.889365 
C 53.634713 217.21538 52.889661 219.014096 52.889661 220.889365 
C 52.889661 222.764634 53.634713 224.563349 54.960729 225.889365 
C 56.286744 227.21538 58.085459 227.960432 59.960729 227.960432 
z
" style="fill:#808080;fill-opacity:0.7;stroke:#808080;stroke-opacity:0.7;"/>
   </g>
   <g id="text_3">
    <g clip-path="url(#pad1eef3344)">
     <!-- node load -->
     <g transform="translate(228.320226 170.166102)scale(0.08 -0.08)">
      <defs>
       <path d="M 30.609375 48.390625 
Q 23.390625 48.390625 19.1875 42.75 
Q 14.984375 37.109375 14.984375 27.296875 
Q 14.984375 17.484375 19.15625 11.84375 
Q 23.34375 6.203125 30.609375 6.203125 
Q 37.796875 6.203125 41.984375 11.859375 
Q 46.1875 17.53125 46.1875 27.296875 
Q 46.1875 37.015625 41.984375 42.703125 
Q 37.796875 48.390625 30.609375 48.390625 
z
M 30.609375 56 
Q 42.328125 56 49.015625 48.375 
Q 55.71875 40.765625 55.71875 27.296875 
Q 55.71875 13.875 49.015625 6.21875 
Q 42.328125 -1.421875 30.609375 -1.421875 
Q 18.84375 -1.421875 12.171875 6.21875 
Q 5.515625 13.875 5.515625 27.296875 
Q 5.515625 40.765625 12.171875 48.375 
Q 18.84375 56 30.609375 56 
z
" id="DejaVuSans-111"/>
       <path d="M 45.40625 46.390625 
L 45.40625 75.984375 
L 54.390625 75.984375 
L 54.390625 0 
L 45.40625 0 
L 45.40625 8.203125 
Q 42.578125 3.328125 38.25 0.953125 
Q 33.9375 -1.421875 27.875 -1.421875 
Q 17.96875 -1.421875 11.734375 6.484375 
Q 5.515625 14.40625 5.515625 27.296875 
Q 5.515625 40.1875 11.734375 48.09375 
Q 17.96875 56 27.875 56 
Q 33.9375 56 38.25 53.625 
Q 42.578125 51.265625 45.40625 46.390625 
z
M 14.796875 27.296875 
Q 14.796875 17.390625 18.875 11.75 
Q 22.953125 6.109375 30.078125 6.109375 
Q 37.203125 6.109375 41.296875 11.75 
Q 45.40625 17.390625 45.40625 27.296875 
Q 45.40625 37.203125 41.296875 42.84375 
Q 37.203125 48.484375 30.078125 48.484375 
Q 22.953125 48.484375 18.875 42.84375 
Q 14.796875 37.203125 14.796875 27.296875 
z
" id="DejaVuSans-100"/>
       <path d="M 34.28125 27.484375 
Q 23.390625 27.484375 19.1875 25 
Q 14.984375 22.515625 14.984375 16.5 
Q 14.984375 11.71875 18.140625 8.90625 
Q 21.296875 6.109375 26.703125 6.109375 
Q 34.1875 6.109375 38.703125 11.40625 
Q 43.21875 16.703125 43.21875 25.484375 
L 43.21875 27.484375 
z
M 52.203125 31.203125 
L 52.203125 0 
L 43.21875 0 
L 43.21875 8.296875 
Q 40.140625 3.328125 35.546875 0.953125 
Q 30.953125 -1.421875 24.3125 -1.421875 
Q 15.921875 -1.421875 10.953125 3.296875 
Q 6 8.015625 6 15.921875 
Q 6 25.140625 12.171875 29.828125 
Q 18.359375 34.515625 30.609375 34.515625 
L 43.21875 34.515625 
L 43.21875 35.40625 
Q 43.21875 41.609375 39.140625 45 
Q 35.0625 48.390625 27.6875 48.390625 
Q 23 48.390625 18.546875 47.265625 
Q 14.109375 46.140625 10.015625 43.890625 
L 10.015625 52.203125 
Q 14.9375 54.109375 19.578125 55.046875 
Q 24.21875 56 28.609375 56 
Q 40.484375 56 46.34375 49.84375 
Q 52.203125 43.703125 52.203125 31.203125 
z
" id="DejaVuSans-97"/>
      </defs>
      <use xlink:href="#DejaVuSans-110"/>
      <use x="63.378906" xlink:href="#DejaVuSans-111"/>
      <use x="124.560547" xlink:href="#DejaVuSans-100"/>
      <use x="188.037109" xlink:href="#DejaVuSans-101"/>
      <use x="249.560547" xlink:href="#DejaVuSans-32"/>
      <use x="281.347656" xlink:href="#DejaVuSans-108"/>
      <use x="309.130859" xlink:href="#DejaVuSans-111"/>
      <use x="370.3125" xlink:href="#DejaVuSans-97"/>
      <use x="431.591797" xlink:href="#DejaVuSans-100"/>
     </g>
    </g>
   </g>
   <g id="text_4">
    <g clip-path="url(#pad1eef3344)">
     <!-- green sources -->
     <g transform="translate(8.065393 112.198452)scale(0.08 -0.08)">
      <defs>
       <path d="M 44.28125 53.078125 
L 44.28125 44.578125 
Q 40.484375 46.53125 36.375 47.5 
Q 32.28125 48.484375 27.875 48.484375 
Q 21.1875 48.484375 17.84375 46.4375 
Q 14.5 44.390625 14.5 40.28125 
Q 14.5 37.15625 16.890625 35.375 
Q 19.28125 33.59375 26.515625 31.984375 
L 29.59375 31.296875 
Q 39.15625 29.25 43.1875 25.515625 
Q 47.21875 21.78125 47.21875 15.09375 
Q 47.21875 7.46875 41.1875 3.015625 
Q 35.15625 -1.421875 24.609375 -1.421875 
Q 20.21875 -1.421875 15.453125 -0.5625 
Q 10.6875 0.296875 5.421875 2 
L 5.421875 11.28125 
Q 10.40625 8.6875 15.234375 7.390625 
Q 20.0625 6.109375 24.8125 6.109375 
Q 31.15625 6.109375 34.5625 8.28125 
Q 37.984375 10.453125 37.984375 14.40625 
Q 37.984375 18.0625 35.515625 20.015625 
Q 33.0625 21.96875 24.703125 23.78125 
L 21.578125 24.515625 
Q 13.234375 26.265625 9.515625 29.90625 
Q 5.8125 33.546875 5.8125 39.890625 
Q 5.8125 47.609375 11.28125 51.796875 
Q 16.75 56 26.8125 56 
Q 31.78125 56 36.171875 55.265625 
Q 40.578125 54.546875 44.28125 53.078125 
z
" id="DejaVuSans-115"/>
       <path d="M 8.5 21.578125 
L 8.5 54.6875 
L 17.484375 54.6875 
L 17.484375 21.921875 
Q 17.484375 14.15625 20.5 10.265625 
Q 23.53125 6.390625 29.59375 6.390625 
Q 36.859375 6.390625 41.078125 11.03125 
Q 45.3125 15.671875 45.3125 23.6875 
L 45.3125 54.6875 
L 54.296875 54.6875 
L 54.296875 0 
L 45.3125 0 
L 45.3125 8.40625 
Q 42.046875 3.421875 37.71875 1 
Q 33.40625 -1.421875 27.6875 -1.421875 
Q 18.265625 -1.421875 13.375 4.4375 
Q 8.5 10.296875 8.5 21.578125 
z
M 31.109375 56 
z
" id="DejaVuSans-117"/>
       <path d="M 48.78125 52.59375 
L 48.78125 44.1875 
Q 44.96875 46.296875 41.140625 47.34375 
Q 37.3125 48.390625 33.40625 48.390625 
Q 24.65625 48.390625 19.8125 42.84375 
Q 14.984375 37.3125 14.984375 27.296875 
Q 14.984375 17.28125 19.8125 11.734375 
Q 24.65625 6.203125 33.40625 6.203125 
Q 37.3125 6.203125 41.140625 7.25 
Q 44.96875 8.296875 48.78125 10.40625 
L 48.78125 2.09375 
Q 45.015625 0.34375 40.984375 -0.53125 
Q 36.96875 -1.421875 32.421875 -1.421875 
Q 20.0625 -1.421875 12.78125 6.34375 
Q 5.515625 14.109375 5.515625 27.296875 
Q 5.515625 40.671875 12.859375 48.328125 
Q 20.21875 56 33.015625 56 
Q 37.15625 56 41.109375 55.140625 
Q 45.0625 54.296875 48.78125 52.59375 
z
" id="DejaVuSans-99"/>
      </defs>
      <use xlink:href="#DejaVuSans-103"/>
      <use x="63.476562" xlink:href="#DejaVuSans-114"/>
      <use x="102.339844" xlink:href="#DejaVuSans-101"/>
      <use x="163.863281" xlink:href="#DejaVuSans-101"/>
      <use x="225.386719" xlink:href="#DejaVuSans-110"/>
      <use x="288.765625" xlink:href="#DejaVuSans-32"/>
      <use x="320.552734" xlink:href="#DejaVuSans-115"/>
      <use x="372.652344" xlink:href="#DejaVuSans-111"/>
      <use x="433.833984" xlink:href="#DejaVuSans-117"/>
      <use x="497.212891" xlink:href="#DejaVuSans-114"/>
      <use x="536.076172" xlink:href="#DejaVuSans-99"/>
      <use x="591.056641" xlink:href="#DejaVuSans-101"/>
      <use x="652.580078" xlink:href="#DejaVuSans-115"/>
     </g>
    </g>
   </g>
   <g id="text_5">
    <g clip-path="url(#pad1eef3344)">
     <!-- grey sources -->
     <g transform="translate(287.388357 43.394385)scale(0.08 -0.08)">
      <use xlink:href="#DejaVuSans-103"/>
      <use x="63.476562" xlink:href="#DejaVuSans-114"/>
      <use x="102.339844" xlink:href="#DejaVuSans-101"/>
      <use x="163.863281" xlink:href="#DejaVuSans-121"/>
      <use x="223.042969" xlink:href="#DejaVuSans-32"/>
      <use x="254.830078" xlink:href="#DejaVuSans-115"/>
      <use x="306.929688" xlink:href="#DejaVuSans-111"/>
      <use x="368.111328" xlink:href="#DejaVuSans-117"/>
      <use x="431.490234" xlink:href="#DejaVuSans-114"/>
      <use x="470.353516" xlink:href="#DejaVuSans-99"/>
      <use x="525.333984" xlink:href="#DejaVuSans-101"/>
      <use x="586.857422" xlink:href="#DejaVuSans-115"/>
     </g>
    </g>
   </g>
   <g id="text_6">
    <g clip-path="url(#pad1eef3344)">
     <!-- load -->
     <g transform="translate(51.411354 223.096865)scale(0.08 -0.08)">
      <use xlink:href="#DejaVuSans-108"/>
      <use x="27.783203" xlink:href="#DejaVuSans-111"/>
      <use x="88.964844" xlink:href="#DejaVuSans-97"/>
      <use x="150.244141" xlink:href="#DejaVuSans-100"/>
     </g>
    </g>
   </g>
   <g id="text_7">
    <!-- Downstream contract structure -->
    <g transform="translate(80.619375 16.318125)scale(0.12 -0.12)">
     <defs>
      <path d="M 19.671875 64.796875 
L 19.671875 8.109375 
L 31.59375 8.109375 
Q 46.6875 8.109375 53.6875 14.9375 
Q 60.6875 21.78125 60.6875 36.53125 
Q 60.6875 51.171875 53.6875 57.984375 
Q 46.6875 64.796875 31.59375 64.796875 
z
M 9.8125 72.90625 
L 30.078125 72.90625 
Q 51.265625 72.90625 61.171875 64.09375 
Q 71.09375 55.28125 71.09375 36.53125 
Q 71.09375 17.671875 61.125 8.828125 
Q 51.171875 0 30.078125 0 
L 9.8125 0 
z
" id="DejaVuSans-68"/>
      <path d="M 4.203125 54.6875 
L 13.1875 54.6875 
L 24.421875 12.015625 
L 35.59375 54.6875 
L 46.1875 54.6875 
L 57.421875 12.015625 
L 68.609375 54.6875 
L 77.59375 54.6875 
L 63.28125 0 
L 52.6875 0 
L 40.921875 44.828125 
L 29.109375 0 
L 18.5 0 
z
" id="DejaVuSans-119"/>
      <path d="M 18.3125 70.21875 
L 18.3125 54.6875 
L 36.8125 54.6875 
L 36.8125 47.703125 
L 18.3125 47.703125 
L 18.3125 18.015625 
Q 18.3125 11.328125 20.140625 9.421875 
Q 21.96875 7.515625 27.59375 7.515625 
L 36.8125 7.515625 
L 36.8125 0 
L 27.59375 0 
Q 17.1875 0 13.234375 3.875 
Q 9.28125 7.765625 9.28125 18.015625 
L 9.28125 47.703125 
L 2.6875 47.703125 
L 2.6875 54.6875 
L 9.28125 54.6875 
L 9.28125 70.21875 
z
" id="DejaVuSans-116"/>
      <path d="M 52 44.1875 
Q 55.375 50.25 60.0625 53.125 
Q 64.75 56 71.09375 56 
Q 79.640625 56 84.28125 50.015625 
Q 88.921875 44.046875 88.921875 33.015625 
L 88.921875 0 
L 79.890625 0 
L 79.890625 32.71875 
Q 79.890625 40.578125 77.09375 44.375 
Q 74.3125 48.1875 68.609375 48.1875 
Q 61.625 48.1875 57.5625 43.546875 
Q 53.515625 38.921875 53.515625 30.90625 
L 53.515625 0 
L 44.484375 0 
L 44.484375 32.71875 
Q 44.484375 40.625 41.703125 44.40625 
Q 38.921875 48.1875 33.109375 48.1875 
Q 26.21875 48.1875 22.15625 43.53125 
Q 18.109375 38.875 18.109375 30.90625 
L 18.109375 0 
L 9.078125 0 
L 9.078125 54.6875 
L 18.109375 54.6875 
L 18.109375 46.1875 
Q 21.1875 51.21875 25.484375 53.609375 
Q 29.78125 56 35.6875 56 
Q 41.65625 56 45.828125 52.96875 
Q 50 49.953125 52 44.1875 
z
" id="DejaVuSans-109"/>
     </defs>
     <use xlink:href="#DejaVuSans-68"/>
     <use x="77.001953" xlink:href="#DejaVuSans-111"/>
     <use x="138.183594" xlink:href="#DejaVuSans-119"/>
     <use x="219.970703" xlink:href="#DejaVuSans-110"/>
     <use x="283.349609" xlink:href="#DejaVuSans-115"/>
     <use x="335.449219" xlink:href="#DejaVuSans-116"/>
     <use x="374.658203" xlink:href="#DejaVuSans-114"/>
     <use x="413.521484" xlink:href="#DejaVuSans-101"/>
     <use x="475.044922" xlink:href="#DejaVuSans-97"/>
     <use x="536.324219" xlink:href="#DejaVuSans-109"/>
     <use x="633.736328" xlink:href="#DejaVuSans-32"/>
     <use x="665.523438" xlink:href="#DejaVuSans-99"/>
     <use x="720.503906" xlink:href="#DejaVuSans-111"/>
     <use x="781.685547" xlink:href="#DejaVuSans-110"/>
     <use x="845.064453" xlink:href="#DejaVuSans-116"/>
     <use x="884.273438" xlink:href="#DejaVuSans-114"/>
     <use x="925.386719" xlink:href="#DejaVuSans-97"/>
     <use x="986.666016" xlink:href="#DejaVuSans-99"/>
     <use x="1041.646484" xlink:href="#DejaVuSans-116"/>
     <use x="1080.855469" xlink:href="#DejaVuSans-32"/>
     <use x="1112.642578" xlink:href="#DejaVuSans-115"/>
     <use x="1164.742188" xlink:href="#DejaVuSans-116"/>
     <use x="1203.951172" xlink:href="#DejaVuSans-114"/>
     <use x="1245.064453" xlink:href="#DejaVuSans-117"/>
     <use x="1308.443359" xlink:href="#DejaVuSans-99"/>
     <use x="1363.423828" xlink:href="#DejaVuSans-116"/>
     <use x="1402.632812" xlink:href="#DejaVuSans-117"/>
     <use x="1466.011719" xlink:href="#DejaVuSans-114"/>
     <use x="1504.875" xlink:href="#DejaVuSans-101"/>
    </g>
   </g>
  </g>
 </g>
 <defs>
  <clipPath id="pad1eef3344">
   <rect height="217.44" width="334.8" x="7.2" y="22.318125"/>
  </clipPath>
 </defs>
</svg>
