<?xml version="1.0" encoding="utf-8" standalone="no"?>
<!DOCTYPE svg PUBLIC "-//W3C//DTD SVG 1.1//EN"
  "http://www.w3.org/Graphics/SVG/1.1/DTD/svg11.dtd">
<!-- Created with matplotlib (https://matplotlib.org/) -->
<svg height="285.84pt" version="1.1" viewBox="0 0 424.8 285.84" width="424.8pt" xmlns="http://www.w3.org/2000/svg" xmlns:xlink="http://www.w3.org/1999/xlink">
 <metadata>
  <rdf:RDF xmlns:cc="http://creativecommons.org/ns#" xmlns:dc="http://purl.org/dc/elements/1.1/" xmlns:rdf="http://www.w3.org/1999/02/22-rdf-syntax-ns#">
   <cc:Work>
    <dc:type rdf:resource="http://purl.org/dc/dcmitype/StillImage"/>
    <dc:date>2021-05-27T21:57:29.674682</dc:date>
    <dc:format>image/svg+xml</dc:format>
    <dc:creator>
     <cc:Agent>
      <dc:title>Matplotlib v3.3.4, https://matplotlib.org/</dc:title>
     </cc:Agent>
    </dc:creator>
   </cc:Work>
  </rdf:RDF>
 </metadata>
 <defs>
  <style type="text/css">*{stroke-linecap:butt;stroke-linejoin:round;}</style>
 </defs>
 <g id="figure_1">
  <g id="patch_1">
   <path d="M -0 285.84 
L 424.8 285.84 
L 424.8 0 
L -0 0 
z
" style="fill:none;"/>
  </g>
  <g id="axes_1">
   <g id="patch_2">
    <path d="M 44.845313 239.56625 
L 219.460156 239.56625 
L 219.460156 49.771875 
L 44.845313 49.771875 
z
" style="fill:#ffffff;"/>
   </g>
   <g id="matplotlib.axis_1">
    <g id="xtick_1">
     <g id="line2d_1">
      <defs>
       <path d="M 0 0 
L 0 3.5 
" id="m139950d77f" style="stroke:#000000;stroke-width:0.8;"/>
      </defs>
      <g>
       <use style="stroke:#000000;stroke-width:0.8;" x="44.845313" xlink:href="#m139950d77f" y="239.56625"/>
      </g>
     </g>
     <g id="text_1">
      <!-- 01 -->
      <g transform="translate(38.482813 254.164687)scale(0.1 -0.1)">
       <defs>
        <path d="M 31.78125 66.40625 
Q 24.171875 66.40625 20.328125 58.90625 
Q 16.5 51.421875 16.5 36.375 
Q 16.5 21.390625 20.328125 13.890625 
Q 24.171875 6.390625 31.78125 6.390625 
Q 39.453125 6.390625 43.28125 13.890625 
Q 47.125 21.390625 47.125 36.375 
Q 47.125 51.421875 43.28125 58.90625 
Q 39.453125 66.40625 31.78125 66.40625 
z
M 31.78125 74.21875 
Q 44.046875 74.21875 50.515625 64.515625 
Q 56.984375 54.828125 56.984375 36.375 
Q 56.984375 17.96875 50.515625 8.265625 
Q 44.046875 -1.421875 31.78125 -1.421875 
Q 19.53125 -1.421875 13.0625 8.265625 
Q 6.59375 17.96875 6.59375 36.375 
Q 6.59375 54.828125 13.0625 64.515625 
Q 19.53125 74.21875 31.78125 74.21875 
z
" id="DejaVuSans-48"/>
        <path d="M 12.40625 8.296875 
L 28.515625 8.296875 
L 28.515625 63.921875 
L 10.984375 60.40625 
L 10.984375 69.390625 
L 28.421875 72.90625 
L 38.28125 72.90625 
L 38.28125 8.296875 
L 54.390625 8.296875 
L 54.390625 0 
L 12.40625 0 
z
" id="DejaVuSans-49"/>
       </defs>
       <use xlink:href="#DejaVuSans-48"/>
       <use x="63.623047" xlink:href="#DejaVuSans-49"/>
      </g>
      <!-- Jan -->
      <g transform="translate(37.1375 265.3625)scale(0.1 -0.1)">
       <defs>
        <path d="M 9.8125 72.90625 
L 19.671875 72.90625 
L 19.671875 5.078125 
Q 19.671875 -8.109375 14.671875 -14.0625 
Q 9.671875 -20.015625 -1.421875 -20.015625 
L -5.171875 -20.015625 
L -5.171875 -11.71875 
L -2.09375 -11.71875 
Q 4.4375 -11.71875 7.125 -8.046875 
Q 9.8125 -4.390625 9.8125 5.078125 
z
" id="DejaVuSans-74"/>
        <path d="M 34.28125 27.484375 
Q 23.390625 27.484375 19.1875 25 
Q 14.984375 22.515625 14.984375 16.5 
Q 14.984375 11.71875 18.140625 8.90625 
Q 21.296875 6.109375 26.703125 6.109375 
Q 34.1875 6.109375 38.703125 11.40625 
Q 43.21875 16.703125 43.21875 25.484375 
L 43.21875 27.484375 
z
M 52.203125 31.203125 
L 52.203125 0 
L 43.21875 0 
L 43.21875 8.296875 
Q 40.140625 3.328125 35.546875 0.953125 
Q 30.953125 -1.421875 24.3125 -1.421875 
Q 15.921875 -1.421875 10.953125 3.296875 
Q 6 8.015625 6 15.921875 
Q 6 25.140625 12.171875 29.828125 
Q 18.359375 34.515625 30.609375 34.515625 
L 43.21875 34.515625 
L 43.21875 35.40625 
Q 43.21875 41.609375 39.140625 45 
Q 35.0625 48.390625 27.6875 48.390625 
Q 23 48.390625 18.546875 47.265625 
Q 14.109375 46.140625 10.015625 43.890625 
L 10.015625 52.203125 
Q 14.9375 54.109375 19.578125 55.046875 
Q 24.21875 56 28.609375 56 
Q 40.484375 56 46.34375 49.84375 
Q 52.203125 43.703125 52.203125 31.203125 
z
" id="DejaVuSans-97"/>
        <path d="M 54.890625 33.015625 
L 54.890625 0 
L 45.90625 0 
L 45.90625 32.71875 
Q 45.90625 40.484375 42.875 44.328125 
Q 39.84375 48.1875 33.796875 48.1875 
Q 26.515625 48.1875 22.3125 43.546875 
Q 18.109375 38.921875 18.109375 30.90625 
L 18.109375 0 
L 9.078125 0 
L 9.078125 54.6875 
L 18.109375 54.6875 
L 18.109375 46.1875 
Q 21.34375 51.125 25.703125 53.5625 
Q 30.078125 56 35.796875 56 
Q 45.21875 56 50.046875 50.171875 
Q 54.890625 44.34375 54.890625 33.015625 
z
" id="DejaVuSans-110"/>
       </defs>
       <use xlink:href="#DejaVuSans-74"/>
       <use x="29.492188" xlink:href="#DejaVuSans-97"/>
       <use x="90.771484" xlink:href="#DejaVuSans-110"/>
      </g>
      <!-- 2021 -->
      <g transform="translate(32.120313 276.560312)scale(0.1 -0.1)">
       <defs>
        <path d="M 19.1875 8.296875 
L 53.609375 8.296875 
L 53.609375 0 
L 7.328125 0 
L 7.328125 8.296875 
Q 12.9375 14.109375 22.625 23.890625 
Q 32.328125 33.6875 34.8125 36.53125 
Q 39.546875 41.84375 41.421875 45.53125 
Q 43.3125 49.21875 43.3125 52.78125 
Q 43.3125 58.59375 39.234375 62.25 
Q 35.15625 65.921875 28.609375 65.921875 
Q 23.96875 65.921875 18.8125 64.3125 
Q 13.671875 62.703125 7.8125 59.421875 
L 7.8125 69.390625 
Q 13.765625 71.78125 18.9375 73 
Q 24.125 74.21875 28.421875 74.21875 
Q 39.75 74.21875 46.484375 68.546875 
Q 53.21875 62.890625 53.21875 53.421875 
Q 53.21875 48.921875 51.53125 44.890625 
Q 49.859375 40.875 45.40625 35.40625 
Q 44.1875 33.984375 37.640625 27.21875 
Q 31.109375 20.453125 19.1875 8.296875 
z
" id="DejaVuSans-50"/>
       </defs>
       <use xlink:href="#DejaVuSans-50"/>
       <use x="63.623047" xlink:href="#DejaVuSans-48"/>
       <use x="127.246094" xlink:href="#DejaVuSans-50"/>
       <use x="190.869141" xlink:href="#DejaVuSans-49"/>
      </g>
     </g>
    </g>
    <g id="xtick_2">
     <g id="line2d_2">
      <g>
       <use style="stroke:#000000;stroke-width:0.8;" x="219.460156" xlink:href="#m139950d77f" y="239.56625"/>
      </g>
     </g>
    </g>
    <g id="xtick_3">
     <g id="line2d_3">
      <defs>
       <path d="M 0 0 
L 0 2 
" id="mc84c8edf93" style="stroke:#000000;stroke-width:0.6;"/>
      </defs>
      <g>
       <use style="stroke:#000000;stroke-width:0.6;" x="64.337202" xlink:href="#mc84c8edf93" y="239.56625"/>
      </g>
     </g>
     <g id="text_2">
      <!-- 02 -->
      <g transform="translate(57.974702 252.564687)scale(0.1 -0.1)">
       <use xlink:href="#DejaVuSans-48"/>
       <use x="63.623047" xlink:href="#DejaVuSans-50"/>
      </g>
     </g>
    </g>
    <g id="xtick_4">
     <g id="line2d_4">
      <g>
       <use style="stroke:#000000;stroke-width:0.6;" x="83.829092" xlink:href="#mc84c8edf93" y="239.56625"/>
      </g>
     </g>
     <g id="text_3">
      <!-- 03 -->
      <g transform="translate(77.466592 252.564687)scale(0.1 -0.1)">
       <defs>
        <path d="M 40.578125 39.3125 
Q 47.65625 37.796875 51.625 33 
Q 55.609375 28.21875 55.609375 21.1875 
Q 55.609375 10.40625 48.1875 4.484375 
Q 40.765625 -1.421875 27.09375 -1.421875 
Q 22.515625 -1.421875 17.65625 -0.515625 
Q 12.796875 0.390625 7.625 2.203125 
L 7.625 11.71875 
Q 11.71875 9.328125 16.59375 8.109375 
Q 21.484375 6.890625 26.8125 6.890625 
Q 36.078125 6.890625 40.9375 10.546875 
Q 45.796875 14.203125 45.796875 21.1875 
Q 45.796875 27.640625 41.28125 31.265625 
Q 36.765625 34.90625 28.71875 34.90625 
L 20.21875 34.90625 
L 20.21875 43.015625 
L 29.109375 43.015625 
Q 36.375 43.015625 40.234375 45.921875 
Q 44.09375 48.828125 44.09375 54.296875 
Q 44.09375 59.90625 40.109375 62.90625 
Q 36.140625 65.921875 28.71875 65.921875 
Q 24.65625 65.921875 20.015625 65.03125 
Q 15.375 64.15625 9.8125 62.3125 
L 9.8125 71.09375 
Q 15.4375 72.65625 20.34375 73.4375 
Q 25.25 74.21875 29.59375 74.21875 
Q 40.828125 74.21875 47.359375 69.109375 
Q 53.90625 64.015625 53.90625 55.328125 
Q 53.90625 49.265625 50.4375 45.09375 
Q 46.96875 40.921875 40.578125 39.3125 
z
" id="DejaVuSans-51"/>
       </defs>
       <use xlink:href="#DejaVuSans-48"/>
       <use x="63.623047" xlink:href="#DejaVuSans-51"/>
      </g>
     </g>
    </g>
    <g id="xtick_5">
     <g id="line2d_5">
      <g>
       <use style="stroke:#000000;stroke-width:0.6;" x="103.320981" xlink:href="#mc84c8edf93" y="239.56625"/>
      </g>
     </g>
     <g id="text_4">
      <!-- 04 -->
      <g transform="translate(96.958481 252.564687)scale(0.1 -0.1)">
       <defs>
        <path d="M 37.796875 64.3125 
L 12.890625 25.390625 
L 37.796875 25.390625 
z
M 35.203125 72.90625 
L 47.609375 72.90625 
L 47.609375 25.390625 
L 58.015625 25.390625 
L 58.015625 17.1875 
L 47.609375 17.1875 
L 47.609375 0 
L 37.796875 0 
L 37.796875 17.1875 
L 4.890625 17.1875 
L 4.890625 26.703125 
z
" id="DejaVuSans-52"/>
       </defs>
       <use xlink:href="#DejaVuSans-48"/>
       <use x="63.623047" xlink:href="#DejaVuSans-52"/>
      </g>
     </g>
    </g>
    <g id="xtick_6">
     <g id="line2d_6">
      <g>
       <use style="stroke:#000000;stroke-width:0.6;" x="122.812871" xlink:href="#mc84c8edf93" y="239.56625"/>
      </g>
     </g>
     <g id="text_5">
      <!-- 05 -->
      <g transform="translate(116.450371 252.564687)scale(0.1 -0.1)">
       <defs>
        <path d="M 10.796875 72.90625 
L 49.515625 72.90625 
L 49.515625 64.59375 
L 19.828125 64.59375 
L 19.828125 46.734375 
Q 21.96875 47.46875 24.109375 47.828125 
Q 26.265625 48.1875 28.421875 48.1875 
Q 40.625 48.1875 47.75 41.5 
Q 54.890625 34.8125 54.890625 23.390625 
Q 54.890625 11.625 47.5625 5.09375 
Q 40.234375 -1.421875 26.90625 -1.421875 
Q 22.3125 -1.421875 17.546875 -0.640625 
Q 12.796875 0.140625 7.71875 1.703125 
L 7.71875 11.625 
Q 12.109375 9.234375 16.796875 8.0625 
Q 21.484375 6.890625 26.703125 6.890625 
Q 35.15625 6.890625 40.078125 11.328125 
Q 45.015625 15.765625 45.015625 23.390625 
Q 45.015625 31 40.078125 35.4375 
Q 35.15625 39.890625 26.703125 39.890625 
Q 22.75 39.890625 18.8125 39.015625 
Q 14.890625 38.140625 10.796875 36.28125 
z
" id="DejaVuSans-53"/>
       </defs>
       <use xlink:href="#DejaVuSans-48"/>
       <use x="63.623047" xlink:href="#DejaVuSans-53"/>
      </g>
     </g>
    </g>
    <g id="xtick_7">
     <g id="line2d_7">
      <g>
       <use style="stroke:#000000;stroke-width:0.6;" x="142.30476" xlink:href="#mc84c8edf93" y="239.56625"/>
      </g>
     </g>
     <g id="text_6">
      <!-- 06 -->
      <g transform="translate(135.94226 252.564687)scale(0.1 -0.1)">
       <defs>
        <path d="M 33.015625 40.375 
Q 26.375 40.375 22.484375 35.828125 
Q 18.609375 31.296875 18.609375 23.390625 
Q 18.609375 15.53125 22.484375 10.953125 
Q 26.375 6.390625 33.015625 6.390625 
Q 39.65625 6.390625 43.53125 10.953125 
Q 47.40625 15.53125 47.40625 23.390625 
Q 47.40625 31.296875 43.53125 35.828125 
Q 39.65625 40.375 33.015625 40.375 
z
M 52.59375 71.296875 
L 52.59375 62.3125 
Q 48.875 64.0625 45.09375 64.984375 
Q 41.3125 65.921875 37.59375 65.921875 
Q 27.828125 65.921875 22.671875 59.328125 
Q 17.53125 52.734375 16.796875 39.40625 
Q 19.671875 43.65625 24.015625 45.921875 
Q 28.375 48.1875 33.59375 48.1875 
Q 44.578125 48.1875 50.953125 41.515625 
Q 57.328125 34.859375 57.328125 23.390625 
Q 57.328125 12.15625 50.6875 5.359375 
Q 44.046875 -1.421875 33.015625 -1.421875 
Q 20.359375 -1.421875 13.671875 8.265625 
Q 6.984375 17.96875 6.984375 36.375 
Q 6.984375 53.65625 15.1875 63.9375 
Q 23.390625 74.21875 37.203125 74.21875 
Q 40.921875 74.21875 44.703125 73.484375 
Q 48.484375 72.75 52.59375 71.296875 
z
" id="DejaVuSans-54"/>
       </defs>
       <use xlink:href="#DejaVuSans-48"/>
       <use x="63.623047" xlink:href="#DejaVuSans-54"/>
      </g>
     </g>
    </g>
    <g id="xtick_8">
     <g id="line2d_8">
      <g>
       <use style="stroke:#000000;stroke-width:0.6;" x="161.79665" xlink:href="#mc84c8edf93" y="239.56625"/>
      </g>
     </g>
     <g id="text_7">
      <!-- 07 -->
      <g transform="translate(155.43415 252.564687)scale(0.1 -0.1)">
       <defs>
        <path d="M 8.203125 72.90625 
L 55.078125 72.90625 
L 55.078125 68.703125 
L 28.609375 0 
L 18.3125 0 
L 43.21875 64.59375 
L 8.203125 64.59375 
z
" id="DejaVuSans-55"/>
       </defs>
       <use xlink:href="#DejaVuSans-48"/>
       <use x="63.623047" xlink:href="#DejaVuSans-55"/>
      </g>
     </g>
    </g>
    <g id="xtick_9">
     <g id="line2d_9">
      <g>
       <use style="stroke:#000000;stroke-width:0.6;" x="181.288539" xlink:href="#mc84c8edf93" y="239.56625"/>
      </g>
     </g>
     <g id="text_8">
      <!-- 08 -->
      <g transform="translate(174.926039 252.564687)scale(0.1 -0.1)">
       <defs>
        <path d="M 31.78125 34.625 
Q 24.75 34.625 20.71875 30.859375 
Q 16.703125 27.09375 16.703125 20.515625 
Q 16.703125 13.921875 20.71875 10.15625 
Q 24.75 6.390625 31.78125 6.390625 
Q 38.8125 6.390625 42.859375 10.171875 
Q 46.921875 13.96875 46.921875 20.515625 
Q 46.921875 27.09375 42.890625 30.859375 
Q 38.875 34.625 31.78125 34.625 
z
M 21.921875 38.8125 
Q 15.578125 40.375 12.03125 44.71875 
Q 8.5 49.078125 8.5 55.328125 
Q 8.5 64.0625 14.71875 69.140625 
Q 20.953125 74.21875 31.78125 74.21875 
Q 42.671875 74.21875 48.875 69.140625 
Q 55.078125 64.0625 55.078125 55.328125 
Q 55.078125 49.078125 51.53125 44.71875 
Q 48 40.375 41.703125 38.8125 
Q 48.828125 37.15625 52.796875 32.3125 
Q 56.78125 27.484375 56.78125 20.515625 
Q 56.78125 9.90625 50.3125 4.234375 
Q 43.84375 -1.421875 31.78125 -1.421875 
Q 19.734375 -1.421875 13.25 4.234375 
Q 6.78125 9.90625 6.78125 20.515625 
Q 6.78125 27.484375 10.78125 32.3125 
Q 14.796875 37.15625 21.921875 38.8125 
z
M 18.3125 54.390625 
Q 18.3125 48.734375 21.84375 45.5625 
Q 25.390625 42.390625 31.78125 42.390625 
Q 38.140625 42.390625 41.71875 45.5625 
Q 45.3125 48.734375 45.3125 54.390625 
Q 45.3125 60.0625 41.71875 63.234375 
Q 38.140625 66.40625 31.78125 66.40625 
Q 25.390625 66.40625 21.84375 63.234375 
Q 18.3125 60.0625 18.3125 54.390625 
z
" id="DejaVuSans-56"/>
       </defs>
       <use xlink:href="#DejaVuSans-48"/>
       <use x="63.623047" xlink:href="#DejaVuSans-56"/>
      </g>
     </g>
    </g>
    <g id="xtick_10">
     <g id="line2d_10">
      <g>
       <use style="stroke:#000000;stroke-width:0.6;" x="200.780429" xlink:href="#mc84c8edf93" y="239.56625"/>
      </g>
     </g>
     <g id="text_9">
      <!-- 09 -->
      <g transform="translate(194.417929 252.564687)scale(0.1 -0.1)">
       <defs>
        <path d="M 10.984375 1.515625 
L 10.984375 10.5 
Q 14.703125 8.734375 18.5 7.8125 
Q 22.3125 6.890625 25.984375 6.890625 
Q 35.75 6.890625 40.890625 13.453125 
Q 46.046875 20.015625 46.78125 33.40625 
Q 43.953125 29.203125 39.59375 26.953125 
Q 35.25 24.703125 29.984375 24.703125 
Q 19.046875 24.703125 12.671875 31.3125 
Q 6.296875 37.9375 6.296875 49.421875 
Q 6.296875 60.640625 12.9375 67.421875 
Q 19.578125 74.21875 30.609375 74.21875 
Q 43.265625 74.21875 49.921875 64.515625 
Q 56.59375 54.828125 56.59375 36.375 
Q 56.59375 19.140625 48.40625 8.859375 
Q 40.234375 -1.421875 26.421875 -1.421875 
Q 22.703125 -1.421875 18.890625 -0.6875 
Q 15.09375 0.046875 10.984375 1.515625 
z
M 30.609375 32.421875 
Q 37.25 32.421875 41.125 36.953125 
Q 45.015625 41.5 45.015625 49.421875 
Q 45.015625 57.28125 41.125 61.84375 
Q 37.25 66.40625 30.609375 66.40625 
Q 23.96875 66.40625 20.09375 61.84375 
Q 16.21875 57.28125 16.21875 49.421875 
Q 16.21875 41.5 20.09375 36.953125 
Q 23.96875 32.421875 30.609375 32.421875 
z
" id="DejaVuSans-57"/>
       </defs>
       <use xlink:href="#DejaVuSans-48"/>
       <use x="63.623047" xlink:href="#DejaVuSans-57"/>
      </g>
     </g>
    </g>
   </g>
   <g id="matplotlib.axis_2">
    <g id="ytick_1">
     <g id="line2d_11">
      <defs>
       <path d="M 0 0 
L -3.5 0 
" id="mfcf5ad3663" style="stroke:#000000;stroke-width:0.8;"/>
      </defs>
      <g>
       <use style="stroke:#000000;stroke-width:0.8;" x="44.845313" xlink:href="#mfcf5ad3663" y="230.939233"/>
      </g>
     </g>
     <g id="text_10">
      <!-- −10.0 -->
      <g transform="translate(7.2 234.738452)scale(0.1 -0.1)">
       <defs>
        <path d="M 10.59375 35.5 
L 73.1875 35.5 
L 73.1875 27.203125 
L 10.59375 27.203125 
z
" id="DejaVuSans-8722"/>
        <path d="M 10.6875 12.40625 
L 21 12.40625 
L 21 0 
L 10.6875 0 
z
" id="DejaVuSans-46"/>
       </defs>
       <use xlink:href="#DejaVuSans-8722"/>
       <use x="83.789062" xlink:href="#DejaVuSans-49"/>
       <use x="147.412109" xlink:href="#DejaVuSans-48"/>
       <use x="211.035156" xlink:href="#DejaVuSans-46"/>
       <use x="242.822266" xlink:href="#DejaVuSans-48"/>
      </g>
     </g>
    </g>
    <g id="ytick_2">
     <g id="line2d_12">
      <g>
       <use style="stroke:#000000;stroke-width:0.8;" x="44.845313" xlink:href="#mfcf5ad3663" y="209.37169"/>
      </g>
     </g>
     <g id="text_11">
      <!-- −7.5 -->
      <g transform="translate(13.5625 213.170909)scale(0.1 -0.1)">
       <use xlink:href="#DejaVuSans-8722"/>
       <use x="83.789062" xlink:href="#DejaVuSans-55"/>
       <use x="147.412109" xlink:href="#DejaVuSans-46"/>
       <use x="179.199219" xlink:href="#DejaVuSans-53"/>
      </g>
     </g>
    </g>
    <g id="ytick_3">
     <g id="line2d_13">
      <g>
       <use style="stroke:#000000;stroke-width:0.8;" x="44.845313" xlink:href="#mfcf5ad3663" y="187.804148"/>
      </g>
     </g>
     <g id="text_12">
      <!-- −5.0 -->
      <g transform="translate(13.5625 191.603366)scale(0.1 -0.1)">
       <use xlink:href="#DejaVuSans-8722"/>
       <use x="83.789062" xlink:href="#DejaVuSans-53"/>
       <use x="147.412109" xlink:href="#DejaVuSans-46"/>
       <use x="179.199219" xlink:href="#DejaVuSans-48"/>
      </g>
     </g>
    </g>
    <g id="ytick_4">
     <g id="line2d_14">
      <g>
       <use style="stroke:#000000;stroke-width:0.8;" x="44.845313" xlink:href="#mfcf5ad3663" y="166.236605"/>
      </g>
     </g>
     <g id="text_13">
      <!-- −2.5 -->
      <g transform="translate(13.5625 170.035824)scale(0.1 -0.1)">
       <use xlink:href="#DejaVuSans-8722"/>
       <use x="83.789062" xlink:href="#DejaVuSans-50"/>
       <use x="147.412109" xlink:href="#DejaVuSans-46"/>
       <use x="179.199219" xlink:href="#DejaVuSans-53"/>
      </g>
     </g>
    </g>
    <g id="ytick_5">
     <g id="line2d_15">
      <g>
       <use style="stroke:#000000;stroke-width:0.8;" x="44.845313" xlink:href="#mfcf5ad3663" y="144.669062"/>
      </g>
     </g>
     <g id="text_14">
      <!-- 0.0 -->
      <g transform="translate(21.942188 148.468281)scale(0.1 -0.1)">
       <use xlink:href="#DejaVuSans-48"/>
       <use x="63.623047" xlink:href="#DejaVuSans-46"/>
       <use x="95.410156" xlink:href="#DejaVuSans-48"/>
      </g>
     </g>
    </g>
    <g id="ytick_6">
     <g id="line2d_16">
      <g>
       <use style="stroke:#000000;stroke-width:0.8;" x="44.845313" xlink:href="#mfcf5ad3663" y="123.10152"/>
      </g>
     </g>
     <g id="text_15">
      <!-- 2.5 -->
      <g transform="translate(21.942188 126.900739)scale(0.1 -0.1)">
       <use xlink:href="#DejaVuSans-50"/>
       <use x="63.623047" xlink:href="#DejaVuSans-46"/>
       <use x="95.410156" xlink:href="#DejaVuSans-53"/>
      </g>
     </g>
    </g>
    <g id="ytick_7">
     <g id="line2d_17">
      <g>
       <use style="stroke:#000000;stroke-width:0.8;" x="44.845313" xlink:href="#mfcf5ad3663" y="101.533977"/>
      </g>
     </g>
     <g id="text_16">
      <!-- 5.0 -->
      <g transform="translate(21.942188 105.333196)scale(0.1 -0.1)">
       <use xlink:href="#DejaVuSans-53"/>
       <use x="63.623047" xlink:href="#DejaVuSans-46"/>
       <use x="95.410156" xlink:href="#DejaVuSans-48"/>
      </g>
     </g>
    </g>
    <g id="ytick_8">
     <g id="line2d_18">
      <g>
       <use style="stroke:#000000;stroke-width:0.8;" x="44.845313" xlink:href="#mfcf5ad3663" y="79.966435"/>
      </g>
     </g>
     <g id="text_17">
      <!-- 7.5 -->
      <g transform="translate(21.942188 83.765653)scale(0.1 -0.1)">
       <use xlink:href="#DejaVuSans-55"/>
       <use x="63.623047" xlink:href="#DejaVuSans-46"/>
       <use x="95.410156" xlink:href="#DejaVuSans-53"/>
      </g>
     </g>
    </g>
    <g id="ytick_9">
     <g id="line2d_19">
      <g>
       <use style="stroke:#000000;stroke-width:0.8;" x="44.845313" xlink:href="#mfcf5ad3663" y="58.398892"/>
      </g>
     </g>
     <g id="text_18">
      <!-- 10.0 -->
      <g transform="translate(15.579688 62.198111)scale(0.1 -0.1)">
       <use xlink:href="#DejaVuSans-49"/>
       <use x="63.623047" xlink:href="#DejaVuSans-48"/>
       <use x="127.246094" xlink:href="#DejaVuSans-46"/>
       <use x="159.033203" xlink:href="#DejaVuSans-48"/>
      </g>
     </g>
    </g>
   </g>
   <g id="line2d_20">
    <path clip-path="url(#p1cfbdb8577)" d="M 44.845313 144.669062 
L 45.657475 144.669062 
L 46.469637 101.533978 
L 47.281799 144.669062 
L 82.204767 144.669063 
L 83.01693 230.939233 
L 101.696657 230.939233 
L 102.508819 144.669063 
L 135.807464 144.669062 
L 136.619626 58.398892 
L 155.299353 58.398892 
L 156.111515 144.669062 
L 191.034484 144.669063 
L 191.846646 230.939233 
L 204.029077 230.939233 
L 204.841239 144.669063 
L 206.465563 144.669062 
L 208.089887 58.398892 
L 219.460156 58.398892 
L 219.460156 58.398892 
" style="fill:none;stroke:#1f77b4;stroke-linecap:square;stroke-width:1.5;"/>
   </g>
   <g id="line2d_21">
    <path clip-path="url(#p1cfbdb8577)" d="M 44.845313 92.245518 
L 47.281799 92.182093 
L 49.718285 92.402469 
L 52.154771 92.889919 
L 54.591257 93.61974 
L 57.027743 94.560421 
L 60.276392 96.078204 
L 64.337202 98.259988 
L 74.083147 103.644959 
L 77.331795 105.162108 
L 80.580443 106.420266 
L 83.01693 107.16603 
L 85.453416 107.728618 
L 87.889902 108.102573 
L 90.326388 108.288386 
L 92.762874 108.292 
L 96.011523 108.032572 
L 99.260171 107.50503 
L 102.508819 106.754693 
L 106.569629 105.580897 
L 112.254764 103.67966 
L 122.000709 100.382324 
L 126.873681 98.965676 
L 130.934491 97.981031 
L 134.995302 97.204471 
L 139.056112 96.655505 
L 143.116922 96.348971 
L 147.177733 96.297215 
L 151.238543 96.510508 
L 155.299353 96.995492 
L 159.360164 97.751884 
L 163.420974 98.768006 
L 167.481784 100.016049 
L 172.354757 101.750816 
L 185.34935 106.582318 
L 188.597998 107.531679 
L 191.846646 108.254649 
L 194.283132 108.614475 
L 196.719618 108.795441 
L 199.156105 108.781727 
L 201.592591 108.562585 
L 204.029077 108.133135 
L 206.465563 107.494978 
L 208.902049 106.656602 
L 212.150698 105.255207 
L 215.399346 103.582306 
L 219.460156 101.227096 
L 219.460156 101.227096 
" style="fill:none;stroke:#ff7f0e;stroke-linecap:square;stroke-width:1.5;"/>
   </g>
   <g id="line2d_22">
    <path clip-path="url(#p1cfbdb8577)" d="M 44.845313 101.533977 
L 48.906123 89.738937 
L 51.342609 83.258194 
L 52.966933 79.364709 
L 54.591257 75.902159 
L 56.215581 72.937852 
L 57.839906 70.529407 
L 59.46423 68.723643 
L 60.276392 68.058212 
L 61.088554 67.555659 
L 61.900716 67.218428 
L 62.712878 67.048159 
L 63.52504 67.045683 
L 64.337202 67.21101 
L 65.149364 67.543336 
L 65.961526 68.041044 
L 66.773688 68.701713 
L 68.398012 70.498298 
L 70.022336 72.898166 
L 71.646661 75.85467 
L 73.270985 79.310339 
L 74.895309 83.197999 
L 77.331795 89.67223 
L 80.580443 99.057559 
L 85.453416 113.26226 
L 87.889902 119.749488 
L 89.514226 123.648781 
L 91.13855 127.118197 
L 92.762874 130.090297 
L 94.387198 132.507306 
L 96.011523 134.322244 
L 96.823685 134.992433 
L 97.635847 135.499829 
L 98.448009 135.841964 
L 99.260171 136.017172 
L 100.072333 136.024602 
L 100.884495 135.864217 
L 101.696657 135.536797 
L 102.508819 135.043936 
L 103.320981 134.388032 
L 104.945305 132.600635 
L 106.569629 130.209352 
L 108.193953 127.260665 
L 109.818278 123.811892 
L 111.442602 119.930072 
L 113.879088 113.462383 
L 117.127736 104.081217 
L 122.000709 89.872502 
L 124.437195 83.378815 
L 126.061519 79.473731 
L 127.685843 75.997464 
L 129.310167 73.017585 
L 130.934491 70.59202 
L 132.558815 68.767918 
L 133.370977 68.092973 
L 134.18314 67.580736 
L 134.995302 67.233699 
L 135.807464 67.053551 
L 136.619626 67.041168 
L 137.431788 67.196611 
L 138.24395 67.519122 
L 139.056112 68.007134 
L 139.868274 68.658272 
L 141.492598 70.436473 
L 143.116922 72.81916 
L 144.741246 75.760018 
L 146.36557 79.20188 
L 147.989895 83.077843 
L 150.426381 89.538965 
L 153.675029 98.915927 
L 158.548001 113.128595 
L 160.984488 119.628713 
L 162.608812 123.539572 
L 164.233136 127.022677 
L 165.85746 130.010321 
L 167.481784 132.444431 
L 169.106108 134.277691 
L 169.91827 134.957389 
L 170.730432 135.474465 
L 171.542594 135.826402 
L 172.354757 136.011489 
L 173.166919 136.028825 
L 173.979081 135.878326 
L 174.791243 135.560723 
L 175.603405 135.077562 
L 176.415567 134.431195 
L 178.039891 132.662197 
L 179.664215 130.288115 
L 181.288539 127.355099 
L 182.912863 123.920162 
L 184.537187 120.050072 
L 186.973674 113.595546 
L 190.222322 104.222827 
L 195.095294 90.006265 
L 197.531781 83.499744 
L 199.156105 79.583127 
L 200.780429 76.0932 
L 202.404753 73.097802 
L 204.029077 70.655157 
L 205.653401 68.812748 
L 206.465563 68.1283 
L 207.277725 67.606388 
L 208.089887 67.249551 
L 208.902049 67.059526 
L 209.714211 67.037237 
L 210.526374 67.182793 
L 211.338536 67.495485 
L 212.150698 67.973792 
L 212.96286 68.615387 
L 213.775022 69.417148 
L 215.399346 71.484805 
L 217.02367 74.13657 
L 218.647994 77.320896 
L 219.460156 79.0938 
L 219.460156 79.0938 
" style="fill:none;stroke:#2ca02c;stroke-linecap:square;stroke-width:1.5;"/>
   </g>
   <g id="line2d_23">
    <path clip-path="url(#p1cfbdb8577)" d="M 44.845313 95.446754 
L 51.342609 118.986649 
L 53.779095 126.801895 
L 55.403419 131.418569 
L 57.027743 135.454334 
L 58.652068 138.830742 
L 60.276392 141.482159 
L 61.088554 142.51931 
L 61.900716 143.357047 
L 62.712878 143.991292 
L 63.52504 144.418961 
L 64.337202 144.637971 
L 65.149364 144.647258 
L 65.961526 144.446777 
L 66.773688 144.037502 
L 67.58585 143.421426 
L 68.398012 142.601545 
L 69.210174 141.581849 
L 70.834499 138.963805 
L 72.458823 135.618185 
L 74.083147 131.610022 
L 75.707471 127.017228 
L 78.143957 119.229832 
L 81.392605 107.709062 
L 87.889902 84.162514 
L 90.326388 76.338052 
L 91.950712 71.713456 
L 93.575036 67.668525 
L 95.19936 64.281884 
L 96.823685 61.619364 
L 97.635847 60.576403 
L 98.448009 59.732722 
L 99.260171 59.092425 
L 100.072333 58.658629 
L 100.884495 58.433444 
L 101.696657 58.417966 
L 102.508819 58.612269 
L 103.320981 59.015409 
L 104.133143 59.625424 
L 104.945305 60.439345 
L 105.757467 61.453214 
L 107.381791 64.060111 
L 109.006116 67.395441 
L 110.63044 71.394369 
L 112.254764 75.979164 
L 114.69125 83.757211 
L 117.939898 95.271058 
L 124.437195 118.824158 
L 126.873681 126.657804 
L 128.498005 131.290301 
L 130.122329 135.344382 
L 131.746653 138.741242 
L 133.370977 141.414853 
L 134.18314 142.463619 
L 134.995302 143.313242 
L 135.807464 143.959587 
L 136.619626 144.399508 
L 137.431788 144.630867 
L 138.24395 144.652537 
L 139.056112 144.464413 
L 139.868274 144.067409 
L 140.680436 143.463459 
L 141.492598 142.655499 
L 142.30476 141.647462 
L 143.929084 139.051722 
L 145.553408 135.726698 
L 147.177733 131.737021 
L 148.802057 127.160244 
L 151.238543 119.391579 
L 154.487191 107.884705 
L 160.984488 84.325153 
L 163.420974 76.482356 
L 165.045298 71.841977 
L 166.669622 67.778764 
L 168.293946 64.371698 
L 169.91827 61.687008 
L 170.730432 60.632441 
L 171.542594 59.776881 
L 172.354757 59.12449 
L 173.166919 58.678444 
L 173.979081 58.440913 
L 174.791243 58.413052 
L 175.603405 58.594997 
L 176.415567 58.985862 
L 177.227729 59.583746 
L 178.039891 60.38574 
L 178.852053 61.387941 
L 180.476377 63.972512 
L 182.100701 67.287218 
L 183.725025 71.267626 
L 185.34935 75.836365 
L 187.785836 83.595615 
L 191.034484 95.095469 
L 197.531781 118.661373 
L 199.968267 126.513288 
L 201.592591 131.161529 
L 203.216915 135.233857 
L 204.841239 138.651113 
L 206.465563 141.346871 
L 207.277725 142.407235 
L 208.089887 143.268729 
L 208.902049 143.927162 
L 209.714211 144.37933 
L 210.526374 144.623033 
L 211.338536 144.657085 
L 212.150698 144.481321 
L 212.96286 144.096596 
L 213.775022 143.504781 
L 214.587184 142.708756 
L 215.399346 141.712395 
L 217.02367 139.139004 
L 218.647994 135.834631 
L 219.460156 133.927876 
L 219.460156 133.927876 
" style="fill:none;stroke:#d62728;stroke-linecap:square;stroke-width:1.5;"/>
   </g>
   <g id="line2d_24">
    <path clip-path="url(#p1cfbdb8577)" d="M 44.845313 79.755824 
L 46.469637 78.33365 
L 48.093961 77.200271 
L 49.718285 76.369794 
L 51.342609 75.852557 
L 52.966933 75.654999 
L 54.591257 75.779579 
L 56.215581 76.224746 
L 57.839906 76.984958 
L 59.46423 78.050753 
L 61.088554 79.408864 
L 62.712878 81.042385 
L 64.337202 82.930982 
L 66.773688 86.189924 
L 69.210174 89.878059 
L 72.458823 95.283529 
L 83.01693 113.523471 
L 85.453416 117.178392 
L 87.889902 120.395717 
L 89.514226 122.252469 
L 91.13855 123.85132 
L 92.762874 125.172368 
L 94.387198 126.199168 
L 96.011523 126.91894 
L 97.635847 127.322724 
L 99.260171 127.405493 
L 100.884495 127.166217 
L 102.508819 126.607875 
L 104.133143 125.737416 
L 105.757467 124.565677 
L 107.381791 123.107242 
L 109.006116 121.380267 
L 110.63044 119.406247 
L 113.066926 116.036529 
L 115.503412 112.261156 
L 118.75206 106.780096 
L 128.498005 89.913246 
L 130.934491 86.221666 
L 133.370977 82.958392 
L 134.995302 81.066472 
L 136.619626 79.429329 
L 138.24395 78.067341 
L 139.868274 76.997462 
L 141.492598 76.23301 
L 143.116922 75.783501 
L 144.741246 75.65453 
L 146.36557 75.847703 
L 147.989895 76.360615 
L 149.614219 77.186882 
L 151.238543 78.316217 
L 152.862867 79.734564 
L 154.487191 81.424267 
L 156.111515 83.364292 
L 158.548001 86.69008 
L 160.984488 90.431072 
L 164.233136 95.882763 
L 173.979081 112.782967 
L 176.415567 116.51026 
L 178.852053 119.818646 
L 180.476377 121.745249 
L 182.100701 123.420265 
L 183.725025 124.822844 
L 185.34935 125.935527 
L 186.973674 126.744462 
L 188.597998 127.239581 
L 190.222322 127.414721 
L 191.846646 127.2677 
L 193.47097 126.80035 
L 195.095294 126.018488 
L 196.719618 124.931846 
L 198.343943 123.553951 
L 199.968267 121.901954 
L 201.592591 119.99642 
L 204.029077 116.715414 
L 206.465563 113.009762 
L 209.714211 107.588839 
L 219.460156 90.659613 
L 219.460156 90.659613 
" style="fill:none;stroke:#9467bd;stroke-linecap:square;stroke-width:1.5;"/>
   </g>
   <g id="patch_3">
    <path d="M 44.845313 239.56625 
L 44.845313 49.771875 
" style="fill:none;stroke:#000000;stroke-linecap:square;stroke-linejoin:miter;stroke-width:0.8;"/>
   </g>
   <g id="patch_4">
    <path d="M 219.460156 239.56625 
L 219.460156 49.771875 
" style="fill:none;stroke:#000000;stroke-linecap:square;stroke-linejoin:miter;stroke-width:0.8;"/>
   </g>
   <g id="patch_5">
    <path d="M 44.845313 239.56625 
L 219.460156 239.56625 
" style="fill:none;stroke:#000000;stroke-linecap:square;stroke-linejoin:miter;stroke-width:0.8;"/>
   </g>
   <g id="patch_6">
    <path d="M 44.845313 49.771875 
L 219.460156 49.771875 
" style="fill:none;stroke:#000000;stroke-linecap:square;stroke-linejoin:miter;stroke-width:0.8;"/>
   </g>
   <g id="text_19">
    <!-- optimized against mean -->
    <g transform="translate(59.552734 43.771875)scale(0.12 -0.12)">
     <defs>
      <path d="M 30.609375 48.390625 
Q 23.390625 48.390625 19.1875 42.75 
Q 14.984375 37.109375 14.984375 27.296875 
Q 14.984375 17.484375 19.15625 11.84375 
Q 23.34375 6.203125 30.609375 6.203125 
Q 37.796875 6.203125 41.984375 11.859375 
Q 46.1875 17.53125 46.1875 27.296875 
Q 46.1875 37.015625 41.984375 42.703125 
Q 37.796875 48.390625 30.609375 48.390625 
z
M 30.609375 56 
Q 42.328125 56 49.015625 48.375 
Q 55.71875 40.765625 55.71875 27.296875 
Q 55.71875 13.875 49.015625 6.21875 
Q 42.328125 -1.421875 30.609375 -1.421875 
Q 18.84375 -1.421875 12.171875 6.21875 
Q 5.515625 13.875 5.515625 27.296875 
Q 5.515625 40.765625 12.171875 48.375 
Q 18.84375 56 30.609375 56 
z
" id="DejaVuSans-111"/>
      <path d="M 18.109375 8.203125 
L 18.109375 -20.796875 
L 9.078125 -20.796875 
L 9.078125 54.6875 
L 18.109375 54.6875 
L 18.109375 46.390625 
Q 20.953125 51.265625 25.265625 53.625 
Q 29.59375 56 35.59375 56 
Q 45.5625 56 51.78125 48.09375 
Q 58.015625 40.1875 58.015625 27.296875 
Q 58.015625 14.40625 51.78125 6.484375 
Q 45.5625 -1.421875 35.59375 -1.421875 
Q 29.59375 -1.421875 25.265625 0.953125 
Q 20.953125 3.328125 18.109375 8.203125 
z
M 48.6875 27.296875 
Q 48.6875 37.203125 44.609375 42.84375 
Q 40.53125 48.484375 33.40625 48.484375 
Q 26.265625 48.484375 22.1875 42.84375 
Q 18.109375 37.203125 18.109375 27.296875 
Q 18.109375 17.390625 22.1875 11.75 
Q 26.265625 6.109375 33.40625 6.109375 
Q 40.53125 6.109375 44.609375 11.75 
Q 48.6875 17.390625 48.6875 27.296875 
z
" id="DejaVuSans-112"/>
      <path d="M 18.3125 70.21875 
L 18.3125 54.6875 
L 36.8125 54.6875 
L 36.8125 47.703125 
L 18.3125 47.703125 
L 18.3125 18.015625 
Q 18.3125 11.328125 20.140625 9.421875 
Q 21.96875 7.515625 27.59375 7.515625 
L 36.8125 7.515625 
L 36.8125 0 
L 27.59375 0 
Q 17.1875 0 13.234375 3.875 
Q 9.28125 7.765625 9.28125 18.015625 
L 9.28125 47.703125 
L 2.6875 47.703125 
L 2.6875 54.6875 
L 9.28125 54.6875 
L 9.28125 70.21875 
z
" id="DejaVuSans-116"/>
      <path d="M 9.421875 54.6875 
L 18.40625 54.6875 
L 18.40625 0 
L 9.421875 0 
z
M 9.421875 75.984375 
L 18.40625 75.984375 
L 18.40625 64.59375 
L 9.421875 64.59375 
z
" id="DejaVuSans-105"/>
      <path d="M 52 44.1875 
Q 55.375 50.25 60.0625 53.125 
Q 64.75 56 71.09375 56 
Q 79.640625 56 84.28125 50.015625 
Q 88.921875 44.046875 88.921875 33.015625 
L 88.921875 0 
L 79.890625 0 
L 79.890625 32.71875 
Q 79.890625 40.578125 77.09375 44.375 
Q 74.3125 48.1875 68.609375 48.1875 
Q 61.625 48.1875 57.5625 43.546875 
Q 53.515625 38.921875 53.515625 30.90625 
L 53.515625 0 
L 44.484375 0 
L 44.484375 32.71875 
Q 44.484375 40.625 41.703125 44.40625 
Q 38.921875 48.1875 33.109375 48.1875 
Q 26.21875 48.1875 22.15625 43.53125 
Q 18.109375 38.875 18.109375 30.90625 
L 18.109375 0 
L 9.078125 0 
L 9.078125 54.6875 
L 18.109375 54.6875 
L 18.109375 46.1875 
Q 21.1875 51.21875 25.484375 53.609375 
Q 29.78125 56 35.6875 56 
Q 41.65625 56 45.828125 52.96875 
Q 50 49.953125 52 44.1875 
z
" id="DejaVuSans-109"/>
      <path d="M 5.515625 54.6875 
L 48.1875 54.6875 
L 48.1875 46.484375 
L 14.40625 7.171875 
L 48.1875 7.171875 
L 48.1875 0 
L 4.296875 0 
L 4.296875 8.203125 
L 38.09375 47.515625 
L 5.515625 47.515625 
z
" id="DejaVuSans-122"/>
      <path d="M 56.203125 29.59375 
L 56.203125 25.203125 
L 14.890625 25.203125 
Q 15.484375 15.921875 20.484375 11.0625 
Q 25.484375 6.203125 34.421875 6.203125 
Q 39.59375 6.203125 44.453125 7.46875 
Q 49.3125 8.734375 54.109375 11.28125 
L 54.109375 2.78125 
Q 49.265625 0.734375 44.1875 -0.34375 
Q 39.109375 -1.421875 33.890625 -1.421875 
Q 20.796875 -1.421875 13.15625 6.1875 
Q 5.515625 13.8125 5.515625 26.8125 
Q 5.515625 40.234375 12.765625 48.109375 
Q 20.015625 56 32.328125 56 
Q 43.359375 56 49.78125 48.890625 
Q 56.203125 41.796875 56.203125 29.59375 
z
M 47.21875 32.234375 
Q 47.125 39.59375 43.09375 43.984375 
Q 39.0625 48.390625 32.421875 48.390625 
Q 24.90625 48.390625 20.390625 44.140625 
Q 15.875 39.890625 15.1875 32.171875 
z
" id="DejaVuSans-101"/>
      <path d="M 45.40625 46.390625 
L 45.40625 75.984375 
L 54.390625 75.984375 
L 54.390625 0 
L 45.40625 0 
L 45.40625 8.203125 
Q 42.578125 3.328125 38.25 0.953125 
Q 33.9375 -1.421875 27.875 -1.421875 
Q 17.96875 -1.421875 11.734375 6.484375 
Q 5.515625 14.40625 5.515625 27.296875 
Q 5.515625 40.1875 11.734375 48.09375 
Q 17.96875 56 27.875 56 
Q 33.9375 56 38.25 53.625 
Q 42.578125 51.265625 45.40625 46.390625 
z
M 14.796875 27.296875 
Q 14.796875 17.390625 18.875 11.75 
Q 22.953125 6.109375 30.078125 6.109375 
Q 37.203125 6.109375 41.296875 11.75 
Q 45.40625 17.390625 45.40625 27.296875 
Q 45.40625 37.203125 41.296875 42.84375 
Q 37.203125 48.484375 30.078125 48.484375 
Q 22.953125 48.484375 18.875 42.84375 
Q 14.796875 37.203125 14.796875 27.296875 
z
" id="DejaVuSans-100"/>
      <path id="DejaVuSans-32"/>
      <path d="M 45.40625 27.984375 
Q 45.40625 37.75 41.375 43.109375 
Q 37.359375 48.484375 30.078125 48.484375 
Q 22.859375 48.484375 18.828125 43.109375 
Q 14.796875 37.75 14.796875 27.984375 
Q 14.796875 18.265625 18.828125 12.890625 
Q 22.859375 7.515625 30.078125 7.515625 
Q 37.359375 7.515625 41.375 12.890625 
Q 45.40625 18.265625 45.40625 27.984375 
z
M 54.390625 6.78125 
Q 54.390625 -7.171875 48.1875 -13.984375 
Q 42 -20.796875 29.203125 -20.796875 
Q 24.46875 -20.796875 20.265625 -20.09375 
Q 16.0625 -19.390625 12.109375 -17.921875 
L 12.109375 -9.1875 
Q 16.0625 -11.328125 19.921875 -12.34375 
Q 23.78125 -13.375 27.78125 -13.375 
Q 36.625 -13.375 41.015625 -8.765625 
Q 45.40625 -4.15625 45.40625 5.171875 
L 45.40625 9.625 
Q 42.625 4.78125 38.28125 2.390625 
Q 33.9375 0 27.875 0 
Q 17.828125 0 11.671875 7.65625 
Q 5.515625 15.328125 5.515625 27.984375 
Q 5.515625 40.671875 11.671875 48.328125 
Q 17.828125 56 27.875 56 
Q 33.9375 56 38.28125 53.609375 
Q 42.625 51.21875 45.40625 46.390625 
L 45.40625 54.6875 
L 54.390625 54.6875 
z
" id="DejaVuSans-103"/>
      <path d="M 44.28125 53.078125 
L 44.28125 44.578125 
Q 40.484375 46.53125 36.375 47.5 
Q 32.28125 48.484375 27.875 48.484375 
Q 21.1875 48.484375 17.84375 46.4375 
Q 14.5 44.390625 14.5 40.28125 
Q 14.5 37.15625 16.890625 35.375 
Q 19.28125 33.59375 26.515625 31.984375 
L 29.59375 31.296875 
Q 39.15625 29.25 43.1875 25.515625 
Q 47.21875 21.78125 47.21875 15.09375 
Q 47.21875 7.46875 41.1875 3.015625 
Q 35.15625 -1.421875 24.609375 -1.421875 
Q 20.21875 -1.421875 15.453125 -0.5625 
Q 10.6875 0.296875 5.421875 2 
L 5.421875 11.28125 
Q 10.40625 8.6875 15.234375 7.390625 
Q 20.0625 6.109375 24.8125 6.109375 
Q 31.15625 6.109375 34.5625 8.28125 
Q 37.984375 10.453125 37.984375 14.40625 
Q 37.984375 18.0625 35.515625 20.015625 
Q 33.0625 21.96875 24.703125 23.78125 
L 21.578125 24.515625 
Q 13.234375 26.265625 9.515625 29.90625 
Q 5.8125 33.546875 5.8125 39.890625 
Q 5.8125 47.609375 11.28125 51.796875 
Q 16.75 56 26.8125 56 
Q 31.78125 56 36.171875 55.265625 
Q 40.578125 54.546875 44.28125 53.078125 
z
" id="DejaVuSans-115"/>
     </defs>
     <use xlink:href="#DejaVuSans-111"/>
     <use x="61.181641" xlink:href="#DejaVuSans-112"/>
     <use x="124.658203" xlink:href="#DejaVuSans-116"/>
     <use x="163.867188" xlink:href="#DejaVuSans-105"/>
     <use x="191.650391" xlink:href="#DejaVuSans-109"/>
     <use x="289.0625" xlink:href="#DejaVuSans-105"/>
     <use x="316.845703" xlink:href="#DejaVuSans-122"/>
     <use x="369.335938" xlink:href="#DejaVuSans-101"/>
     <use x="430.859375" xlink:href="#DejaVuSans-100"/>
     <use x="494.335938" xlink:href="#DejaVuSans-32"/>
     <use x="526.123047" xlink:href="#DejaVuSans-97"/>
     <use x="587.402344" xlink:href="#DejaVuSans-103"/>
     <use x="650.878906" xlink:href="#DejaVuSans-97"/>
     <use x="712.158203" xlink:href="#DejaVuSans-105"/>
     <use x="739.941406" xlink:href="#DejaVuSans-110"/>
     <use x="803.320312" xlink:href="#DejaVuSans-115"/>
     <use x="855.419922" xlink:href="#DejaVuSans-116"/>
     <use x="894.628906" xlink:href="#DejaVuSans-32"/>
     <use x="926.416016" xlink:href="#DejaVuSans-109"/>
     <use x="1023.828125" xlink:href="#DejaVuSans-101"/>
     <use x="1085.351562" xlink:href="#DejaVuSans-97"/>
     <use x="1146.630859" xlink:href="#DejaVuSans-110"/>
    </g>
   </g>
   <g id="legend_1">
    <g id="patch_7">
     <path d="M 124.033594 234.56625 
L 212.460156 234.56625 
Q 214.460156 234.56625 214.460156 232.56625 
L 214.460156 160.175625 
Q 214.460156 158.175625 212.460156 158.175625 
L 124.033594 158.175625 
Q 122.033594 158.175625 122.033594 160.175625 
L 122.033594 232.56625 
Q 122.033594 234.56625 124.033594 234.56625 
z
" style="fill:#ffffff;opacity:0.8;stroke:#cccccc;stroke-linejoin:miter;"/>
    </g>
    <g id="line2d_25">
     <path d="M 126.033594 166.274062 
L 146.033594 166.274062 
" style="fill:none;stroke:#1f77b4;stroke-linecap:square;stroke-width:1.5;"/>
    </g>
    <g id="line2d_26"/>
    <g id="text_20">
     <!-- storage -->
     <g transform="translate(154.033594 169.774062)scale(0.1 -0.1)">
      <defs>
       <path d="M 41.109375 46.296875 
Q 39.59375 47.171875 37.8125 47.578125 
Q 36.03125 48 33.890625 48 
Q 26.265625 48 22.1875 43.046875 
Q 18.109375 38.09375 18.109375 28.8125 
L 18.109375 0 
L 9.078125 0 
L 9.078125 54.6875 
L 18.109375 54.6875 
L 18.109375 46.1875 
Q 20.953125 51.171875 25.484375 53.578125 
Q 30.03125 56 36.53125 56 
Q 37.453125 56 38.578125 55.875 
Q 39.703125 55.765625 41.0625 55.515625 
z
" id="DejaVuSans-114"/>
      </defs>
      <use xlink:href="#DejaVuSans-115"/>
      <use x="52.099609" xlink:href="#DejaVuSans-116"/>
      <use x="91.308594" xlink:href="#DejaVuSans-111"/>
      <use x="152.490234" xlink:href="#DejaVuSans-114"/>
      <use x="193.603516" xlink:href="#DejaVuSans-97"/>
      <use x="254.882812" xlink:href="#DejaVuSans-103"/>
      <use x="318.359375" xlink:href="#DejaVuSans-101"/>
     </g>
    </g>
    <g id="line2d_27">
     <path d="M 126.033594 180.952187 
L 146.033594 180.952187 
" style="fill:none;stroke:#ff7f0e;stroke-linecap:square;stroke-width:1.5;"/>
    </g>
    <g id="line2d_28"/>
    <g id="text_21">
     <!-- mean price -->
     <g transform="translate(154.033594 184.452187)scale(0.1 -0.1)">
      <defs>
       <path d="M 48.78125 52.59375 
L 48.78125 44.1875 
Q 44.96875 46.296875 41.140625 47.34375 
Q 37.3125 48.390625 33.40625 48.390625 
Q 24.65625 48.390625 19.8125 42.84375 
Q 14.984375 37.3125 14.984375 27.296875 
Q 14.984375 17.28125 19.8125 11.734375 
Q 24.65625 6.203125 33.40625 6.203125 
Q 37.3125 6.203125 41.140625 7.25 
Q 44.96875 8.296875 48.78125 10.40625 
L 48.78125 2.09375 
Q 45.015625 0.34375 40.984375 -0.53125 
Q 36.96875 -1.421875 32.421875 -1.421875 
Q 20.0625 -1.421875 12.78125 6.34375 
Q 5.515625 14.109375 5.515625 27.296875 
Q 5.515625 40.671875 12.859375 48.328125 
Q 20.21875 56 33.015625 56 
Q 37.15625 56 41.109375 55.140625 
Q 45.0625 54.296875 48.78125 52.59375 
z
" id="DejaVuSans-99"/>
      </defs>
      <use xlink:href="#DejaVuSans-109"/>
      <use x="97.412109" xlink:href="#DejaVuSans-101"/>
      <use x="158.935547" xlink:href="#DejaVuSans-97"/>
      <use x="220.214844" xlink:href="#DejaVuSans-110"/>
      <use x="283.59375" xlink:href="#DejaVuSans-32"/>
      <use x="315.380859" xlink:href="#DejaVuSans-112"/>
      <use x="378.857422" xlink:href="#DejaVuSans-114"/>
      <use x="419.970703" xlink:href="#DejaVuSans-105"/>
      <use x="447.753906" xlink:href="#DejaVuSans-99"/>
      <use x="502.734375" xlink:href="#DejaVuSans-101"/>
     </g>
    </g>
    <g id="line2d_29">
     <path d="M 126.033594 195.630313 
L 146.033594 195.630313 
" style="fill:none;stroke:#2ca02c;stroke-linecap:square;stroke-width:1.5;"/>
    </g>
    <g id="line2d_30"/>
    <g id="text_22">
     <!-- sample 0 -->
     <g transform="translate(154.033594 199.130313)scale(0.1 -0.1)">
      <defs>
       <path d="M 9.421875 75.984375 
L 18.40625 75.984375 
L 18.40625 0 
L 9.421875 0 
z
" id="DejaVuSans-108"/>
      </defs>
      <use xlink:href="#DejaVuSans-115"/>
      <use x="52.099609" xlink:href="#DejaVuSans-97"/>
      <use x="113.378906" xlink:href="#DejaVuSans-109"/>
      <use x="210.791016" xlink:href="#DejaVuSans-112"/>
      <use x="274.267578" xlink:href="#DejaVuSans-108"/>
      <use x="302.050781" xlink:href="#DejaVuSans-101"/>
      <use x="363.574219" xlink:href="#DejaVuSans-32"/>
      <use x="395.361328" xlink:href="#DejaVuSans-48"/>
     </g>
    </g>
    <g id="line2d_31">
     <path d="M 126.033594 210.308437 
L 146.033594 210.308437 
" style="fill:none;stroke:#d62728;stroke-linecap:square;stroke-width:1.5;"/>
    </g>
    <g id="line2d_32"/>
    <g id="text_23">
     <!-- sample 1 -->
     <g transform="translate(154.033594 213.808437)scale(0.1 -0.1)">
      <use xlink:href="#DejaVuSans-115"/>
      <use x="52.099609" xlink:href="#DejaVuSans-97"/>
      <use x="113.378906" xlink:href="#DejaVuSans-109"/>
      <use x="210.791016" xlink:href="#DejaVuSans-112"/>
      <use x="274.267578" xlink:href="#DejaVuSans-108"/>
      <use x="302.050781" xlink:href="#DejaVuSans-101"/>
      <use x="363.574219" xlink:href="#DejaVuSans-32"/>
      <use x="395.361328" xlink:href="#DejaVuSans-49"/>
     </g>
    </g>
    <g id="line2d_33">
     <path d="M 126.033594 224.986562 
L 146.033594 224.986562 
" style="fill:none;stroke:#9467bd;stroke-linecap:square;stroke-width:1.5;"/>
    </g>
    <g id="line2d_34"/>
    <g id="text_24">
     <!-- sample 2 -->
     <g transform="translate(154.033594 228.486562)scale(0.1 -0.1)">
      <use xlink:href="#DejaVuSans-115"/>
      <use x="52.099609" xlink:href="#DejaVuSans-97"/>
      <use x="113.378906" xlink:href="#DejaVuSans-109"/>
      <use x="210.791016" xlink:href="#DejaVuSans-112"/>
      <use x="274.267578" xlink:href="#DejaVuSans-108"/>
      <use x="302.050781" xlink:href="#DejaVuSans-101"/>
      <use x="363.574219" xlink:href="#DejaVuSans-32"/>
      <use x="395.361328" xlink:href="#DejaVuSans-50"/>
     </g>
    </g>
   </g>
  </g>
  <g id="axes_2">
   <g id="patch_8">
    <path d="M 242.985156 239.56625 
L 417.6 239.56625 
L 417.6 49.771875 
L 242.985156 49.771875 
z
" style="fill:#ffffff;"/>
   </g>
   <g id="matplotlib.axis_3">
    <g id="xtick_11">
     <g id="line2d_35">
      <g>
       <use style="stroke:#000000;stroke-width:0.8;" x="242.985156" xlink:href="#m139950d77f" y="239.56625"/>
      </g>
     </g>
     <g id="text_25">
      <!-- 01 -->
      <g transform="translate(236.622656 254.164687)scale(0.1 -0.1)">
       <use xlink:href="#DejaVuSans-48"/>
       <use x="63.623047" xlink:href="#DejaVuSans-49"/>
      </g>
      <!-- Jan -->
      <g transform="translate(235.277344 265.3625)scale(0.1 -0.1)">
       <use xlink:href="#DejaVuSans-74"/>
       <use x="29.492188" xlink:href="#DejaVuSans-97"/>
       <use x="90.771484" xlink:href="#DejaVuSans-110"/>
      </g>
      <!-- 2021 -->
      <g transform="translate(230.260156 276.560312)scale(0.1 -0.1)">
       <use xlink:href="#DejaVuSans-50"/>
       <use x="63.623047" xlink:href="#DejaVuSans-48"/>
       <use x="127.246094" xlink:href="#DejaVuSans-50"/>
       <use x="190.869141" xlink:href="#DejaVuSans-49"/>
      </g>
     </g>
    </g>
    <g id="xtick_12">
     <g id="line2d_36">
      <g>
       <use style="stroke:#000000;stroke-width:0.8;" x="417.6" xlink:href="#m139950d77f" y="239.56625"/>
      </g>
     </g>
    </g>
    <g id="xtick_13">
     <g id="line2d_37">
      <g>
       <use style="stroke:#000000;stroke-width:0.6;" x="262.477046" xlink:href="#mc84c8edf93" y="239.56625"/>
      </g>
     </g>
     <g id="text_26">
      <!-- 02 -->
      <g transform="translate(256.114546 252.564687)scale(0.1 -0.1)">
       <use xlink:href="#DejaVuSans-48"/>
       <use x="63.623047" xlink:href="#DejaVuSans-50"/>
      </g>
     </g>
    </g>
    <g id="xtick_14">
     <g id="line2d_38">
      <g>
       <use style="stroke:#000000;stroke-width:0.6;" x="281.968935" xlink:href="#mc84c8edf93" y="239.56625"/>
      </g>
     </g>
     <g id="text_27">
      <!-- 03 -->
      <g transform="translate(275.606435 252.564687)scale(0.1 -0.1)">
       <use xlink:href="#DejaVuSans-48"/>
       <use x="63.623047" xlink:href="#DejaVuSans-51"/>
      </g>
     </g>
    </g>
    <g id="xtick_15">
     <g id="line2d_39">
      <g>
       <use style="stroke:#000000;stroke-width:0.6;" x="301.460825" xlink:href="#mc84c8edf93" y="239.56625"/>
      </g>
     </g>
     <g id="text_28">
      <!-- 04 -->
      <g transform="translate(295.098325 252.564687)scale(0.1 -0.1)">
       <use xlink:href="#DejaVuSans-48"/>
       <use x="63.623047" xlink:href="#DejaVuSans-52"/>
      </g>
     </g>
    </g>
    <g id="xtick_16">
     <g id="line2d_40">
      <g>
       <use style="stroke:#000000;stroke-width:0.6;" x="320.952714" xlink:href="#mc84c8edf93" y="239.56625"/>
      </g>
     </g>
     <g id="text_29">
      <!-- 05 -->
      <g transform="translate(314.590214 252.564687)scale(0.1 -0.1)">
       <use xlink:href="#DejaVuSans-48"/>
       <use x="63.623047" xlink:href="#DejaVuSans-53"/>
      </g>
     </g>
    </g>
    <g id="xtick_17">
     <g id="line2d_41">
      <g>
       <use style="stroke:#000000;stroke-width:0.6;" x="340.444604" xlink:href="#mc84c8edf93" y="239.56625"/>
      </g>
     </g>
     <g id="text_30">
      <!-- 06 -->
      <g transform="translate(334.082104 252.564687)scale(0.1 -0.1)">
       <use xlink:href="#DejaVuSans-48"/>
       <use x="63.623047" xlink:href="#DejaVuSans-54"/>
      </g>
     </g>
    </g>
    <g id="xtick_18">
     <g id="line2d_42">
      <g>
       <use style="stroke:#000000;stroke-width:0.6;" x="359.936493" xlink:href="#mc84c8edf93" y="239.56625"/>
      </g>
     </g>
     <g id="text_31">
      <!-- 07 -->
      <g transform="translate(353.573993 252.564687)scale(0.1 -0.1)">
       <use xlink:href="#DejaVuSans-48"/>
       <use x="63.623047" xlink:href="#DejaVuSans-55"/>
      </g>
     </g>
    </g>
    <g id="xtick_19">
     <g id="line2d_43">
      <g>
       <use style="stroke:#000000;stroke-width:0.6;" x="379.428383" xlink:href="#mc84c8edf93" y="239.56625"/>
      </g>
     </g>
     <g id="text_32">
      <!-- 08 -->
      <g transform="translate(373.065883 252.564687)scale(0.1 -0.1)">
       <use xlink:href="#DejaVuSans-48"/>
       <use x="63.623047" xlink:href="#DejaVuSans-56"/>
      </g>
     </g>
    </g>
    <g id="xtick_20">
     <g id="line2d_44">
      <g>
       <use style="stroke:#000000;stroke-width:0.6;" x="398.920273" xlink:href="#mc84c8edf93" y="239.56625"/>
      </g>
     </g>
     <g id="text_33">
      <!-- 09 -->
      <g transform="translate(392.557773 252.564687)scale(0.1 -0.1)">
       <use xlink:href="#DejaVuSans-48"/>
       <use x="63.623047" xlink:href="#DejaVuSans-57"/>
      </g>
     </g>
    </g>
   </g>
   <g id="matplotlib.axis_4">
    <g id="ytick_10">
     <g id="line2d_45">
      <g>
       <use style="stroke:#000000;stroke-width:0.8;" x="242.985156" xlink:href="#mfcf5ad3663" y="230.939233"/>
      </g>
     </g>
    </g>
    <g id="ytick_11">
     <g id="line2d_46">
      <g>
       <use style="stroke:#000000;stroke-width:0.8;" x="242.985156" xlink:href="#mfcf5ad3663" y="209.37169"/>
      </g>
     </g>
    </g>
    <g id="ytick_12">
     <g id="line2d_47">
      <g>
       <use style="stroke:#000000;stroke-width:0.8;" x="242.985156" xlink:href="#mfcf5ad3663" y="187.804148"/>
      </g>
     </g>
    </g>
    <g id="ytick_13">
     <g id="line2d_48">
      <g>
       <use style="stroke:#000000;stroke-width:0.8;" x="242.985156" xlink:href="#mfcf5ad3663" y="166.236605"/>
      </g>
     </g>
    </g>
    <g id="ytick_14">
     <g id="line2d_49">
      <g>
       <use style="stroke:#000000;stroke-width:0.8;" x="242.985156" xlink:href="#mfcf5ad3663" y="144.669062"/>
      </g>
     </g>
    </g>
    <g id="ytick_15">
     <g id="line2d_50">
      <g>
       <use style="stroke:#000000;stroke-width:0.8;" x="242.985156" xlink:href="#mfcf5ad3663" y="123.10152"/>
      </g>
     </g>
    </g>
    <g id="ytick_16">
     <g id="line2d_51">
      <g>
       <use style="stroke:#000000;stroke-width:0.8;" x="242.985156" xlink:href="#mfcf5ad3663" y="101.533977"/>
      </g>
     </g>
    </g>
    <g id="ytick_17">
     <g id="line2d_52">
      <g>
       <use style="stroke:#000000;stroke-width:0.8;" x="242.985156" xlink:href="#mfcf5ad3663" y="79.966435"/>
      </g>
     </g>
    </g>
    <g id="ytick_18">
     <g id="line2d_53">
      <g>
       <use style="stroke:#000000;stroke-width:0.8;" x="242.985156" xlink:href="#mfcf5ad3663" y="58.398892"/>
      </g>
     </g>
    </g>
   </g>
   <g id="line2d_54">
    <path clip-path="url(#p3584c9d831)" d="M 242.985156 101.533977 
L 243.797318 144.669062 
L 271.410828 144.669063 
L 272.222991 230.939233 
L 290.902718 230.939233 
L 291.71488 144.669063 
L 309.582445 144.669062 
L 310.394608 87.652261 
L 311.20677 58.398892 
L 329.074335 58.398892 
L 329.886497 115.415694 
L 330.698659 144.669062 
L 346.9419 144.669063 
L 347.754062 230.939233 
L 351.002711 230.939233 
L 351.814873 144.669063 
L 370.4946 144.669062 
L 371.306762 58.398892 
L 374.555411 58.398892 
L 375.367573 144.669062 
L 407.041893 144.669063 
L 407.854055 215.083818 
L 408.666217 144.669063 
L 416.787838 144.669062 
L 417.6 117.389392 
L 417.6 117.389392 
" style="fill:none;stroke:#1f77b4;stroke-linecap:square;stroke-width:1.5;"/>
   </g>
   <g id="line2d_55">
    <path clip-path="url(#p3584c9d831)" d="M 242.985156 92.245518 
L 245.421642 92.182093 
L 247.858129 92.402469 
L 250.294615 92.889919 
L 252.731101 93.61974 
L 255.167587 94.560421 
L 258.416235 96.078204 
L 262.477046 98.259988 
L 272.222991 103.644959 
L 275.471639 105.162108 
L 278.720287 106.420266 
L 281.156773 107.16603 
L 283.593259 107.728618 
L 286.029746 108.102573 
L 288.466232 108.288386 
L 290.902718 108.292 
L 294.151366 108.032572 
L 297.400015 107.50503 
L 300.648663 106.754693 
L 304.709473 105.580897 
L 310.394608 103.67966 
L 320.140552 100.382324 
L 325.013525 98.965676 
L 329.074335 97.981031 
L 333.135145 97.204471 
L 337.195956 96.655505 
L 341.256766 96.348971 
L 345.317576 96.297215 
L 349.378387 96.510508 
L 353.439197 96.995492 
L 357.500007 97.751884 
L 361.560818 98.768006 
L 365.621628 100.016049 
L 370.4946 101.750816 
L 383.489193 106.582318 
L 386.737842 107.531679 
L 389.98649 108.254649 
L 392.422976 108.614475 
L 394.859462 108.795441 
L 397.295948 108.781727 
L 399.732435 108.562585 
L 402.168921 108.133135 
L 404.605407 107.494978 
L 407.041893 106.656602 
L 410.290541 105.255207 
L 413.53919 103.582306 
L 417.6 101.227096 
L 417.6 101.227096 
" style="fill:none;stroke:#ff7f0e;stroke-linecap:square;stroke-width:1.5;"/>
   </g>
   <g id="line2d_56">
    <path clip-path="url(#p3584c9d831)" d="M 242.985156 101.533977 
L 247.045967 89.738937 
L 249.482453 83.258194 
L 251.106777 79.364709 
L 252.731101 75.902159 
L 254.355425 72.937852 
L 255.979749 70.529407 
L 257.604073 68.723643 
L 258.416235 68.058212 
L 259.228398 67.555659 
L 260.04056 67.218428 
L 260.852722 67.048159 
L 261.664884 67.045683 
L 262.477046 67.21101 
L 263.289208 67.543336 
L 264.10137 68.041044 
L 264.913532 68.701713 
L 266.537856 70.498298 
L 268.16218 72.898166 
L 269.786504 75.85467 
L 271.410828 79.310339 
L 273.035153 83.197999 
L 275.471639 89.67223 
L 278.720287 99.057559 
L 283.593259 113.26226 
L 286.029746 119.749488 
L 287.65407 123.648781 
L 289.278394 127.118197 
L 290.902718 130.090297 
L 292.527042 132.507306 
L 294.151366 134.322244 
L 294.963528 134.992433 
L 295.77569 135.499829 
L 296.587852 135.841964 
L 297.400015 136.017172 
L 298.212177 136.024602 
L 299.024339 135.864217 
L 299.836501 135.536797 
L 300.648663 135.043936 
L 301.460825 134.388032 
L 303.085149 132.600635 
L 304.709473 130.209352 
L 306.333797 127.260665 
L 307.958121 123.811892 
L 309.582445 119.930072 
L 312.018932 113.462383 
L 315.26758 104.081217 
L 320.140552 89.872502 
L 322.577039 83.378815 
L 324.201363 79.473731 
L 325.825687 75.997464 
L 327.450011 73.017585 
L 329.074335 70.59202 
L 330.698659 68.767918 
L 331.510821 68.092973 
L 332.322983 67.580736 
L 333.135145 67.233699 
L 333.947307 67.053551 
L 334.759469 67.041168 
L 335.571632 67.196611 
L 336.383794 67.519122 
L 337.195956 68.007134 
L 338.008118 68.658272 
L 339.632442 70.436473 
L 341.256766 72.81916 
L 342.88109 75.760018 
L 344.505414 79.20188 
L 346.129738 83.077843 
L 348.566225 89.538965 
L 351.814873 98.915927 
L 356.687845 113.128595 
L 359.124331 119.628713 
L 360.748656 123.539572 
L 362.37298 127.022677 
L 363.997304 130.010321 
L 365.621628 132.444431 
L 367.245952 134.277691 
L 368.058114 134.957389 
L 368.870276 135.474465 
L 369.682438 135.826402 
L 370.4946 136.011489 
L 371.306762 136.028825 
L 372.118924 135.878326 
L 372.931086 135.560723 
L 373.743249 135.077562 
L 374.555411 134.431195 
L 376.179735 132.662197 
L 377.804059 130.288115 
L 379.428383 127.355099 
L 381.052707 123.920162 
L 382.677031 120.050072 
L 385.113517 113.595546 
L 388.362166 104.222827 
L 393.235138 90.006265 
L 395.671624 83.499744 
L 397.295948 79.583127 
L 398.920273 76.0932 
L 400.544597 73.097802 
L 402.168921 70.655157 
L 403.793245 68.812748 
L 404.605407 68.1283 
L 405.417569 67.606388 
L 406.229731 67.249551 
L 407.041893 67.059526 
L 407.854055 67.037237 
L 408.666217 67.182793 
L 409.478379 67.495485 
L 410.290541 67.973792 
L 411.102703 68.615387 
L 411.914866 69.417148 
L 413.53919 71.484805 
L 415.163514 74.13657 
L 416.787838 77.320896 
L 417.6 79.0938 
L 417.6 79.0938 
" style="fill:none;stroke:#2ca02c;stroke-linecap:square;stroke-width:1.5;"/>
   </g>
   <g id="line2d_57">
    <path clip-path="url(#p3584c9d831)" d="M 242.985156 95.446754 
L 249.482453 118.986649 
L 251.918939 126.801895 
L 253.543263 131.418569 
L 255.167587 135.454334 
L 256.791911 138.830742 
L 258.416235 141.482159 
L 259.228398 142.51931 
L 260.04056 143.357047 
L 260.852722 143.991292 
L 261.664884 144.418961 
L 262.477046 144.637971 
L 263.289208 144.647258 
L 264.10137 144.446777 
L 264.913532 144.037502 
L 265.725694 143.421426 
L 266.537856 142.601545 
L 267.350018 141.581849 
L 268.974342 138.963805 
L 270.598666 135.618185 
L 272.222991 131.610022 
L 273.847315 127.017228 
L 276.283801 119.229832 
L 279.532449 107.709062 
L 286.029746 84.162514 
L 288.466232 76.338052 
L 290.090556 71.713456 
L 291.71488 67.668525 
L 293.339204 64.281884 
L 294.963528 61.619364 
L 295.77569 60.576403 
L 296.587852 59.732722 
L 297.400015 59.092425 
L 298.212177 58.658629 
L 299.024339 58.433444 
L 299.836501 58.417966 
L 300.648663 58.612269 
L 301.460825 59.015409 
L 302.272987 59.625424 
L 303.085149 60.439345 
L 303.897311 61.453214 
L 305.521635 64.060111 
L 307.145959 67.395441 
L 308.770283 71.394369 
L 310.394608 75.979164 
L 312.831094 83.757211 
L 316.079742 95.271058 
L 322.577039 118.824158 
L 325.013525 126.657804 
L 326.637849 131.290301 
L 328.262173 135.344382 
L 329.886497 138.741242 
L 331.510821 141.414853 
L 332.322983 142.463619 
L 333.135145 143.313242 
L 333.947307 143.959587 
L 334.759469 144.399508 
L 335.571632 144.630867 
L 336.383794 144.652537 
L 337.195956 144.464413 
L 338.008118 144.067409 
L 338.82028 143.463459 
L 339.632442 142.655499 
L 340.444604 141.647462 
L 342.068928 139.051722 
L 343.693252 135.726698 
L 345.317576 131.737021 
L 346.9419 127.160244 
L 349.378387 119.391579 
L 352.627035 107.884705 
L 359.124331 84.325153 
L 361.560818 76.482356 
L 363.185142 71.841977 
L 364.809466 67.778764 
L 366.43379 64.371698 
L 368.058114 61.687008 
L 368.870276 60.632441 
L 369.682438 59.776881 
L 370.4946 59.12449 
L 371.306762 58.678444 
L 372.118924 58.440913 
L 372.931086 58.413052 
L 373.743249 58.594997 
L 374.555411 58.985862 
L 375.367573 59.583746 
L 376.179735 60.38574 
L 376.991897 61.387941 
L 378.616221 63.972512 
L 380.240545 67.287218 
L 381.864869 71.267626 
L 383.489193 75.836365 
L 385.92568 83.595615 
L 389.174328 95.095469 
L 395.671624 118.661373 
L 398.10811 126.513288 
L 399.732435 131.161529 
L 401.356759 135.233857 
L 402.981083 138.651113 
L 404.605407 141.346871 
L 405.417569 142.407235 
L 406.229731 143.268729 
L 407.041893 143.927162 
L 407.854055 144.37933 
L 408.666217 144.623033 
L 409.478379 144.657085 
L 410.290541 144.481321 
L 411.102703 144.096596 
L 411.914866 143.504781 
L 412.727028 142.708756 
L 413.53919 141.712395 
L 415.163514 139.139004 
L 416.787838 135.834631 
L 417.6 133.927876 
L 417.6 133.927876 
" style="fill:none;stroke:#d62728;stroke-linecap:square;stroke-width:1.5;"/>
   </g>
   <g id="line2d_58">
    <path clip-path="url(#p3584c9d831)" d="M 242.985156 79.755824 
L 244.60948 78.33365 
L 246.233805 77.200271 
L 247.858129 76.369794 
L 249.482453 75.852557 
L 251.106777 75.654999 
L 252.731101 75.779579 
L 254.355425 76.224746 
L 255.979749 76.984958 
L 257.604073 78.050753 
L 259.228398 79.408864 
L 260.852722 81.042385 
L 262.477046 82.930982 
L 264.913532 86.189924 
L 267.350018 89.878059 
L 270.598666 95.283529 
L 281.156773 113.523471 
L 283.593259 117.178392 
L 286.029746 120.395717 
L 287.65407 122.252469 
L 289.278394 123.85132 
L 290.902718 125.172368 
L 292.527042 126.199168 
L 294.151366 126.91894 
L 295.77569 127.322724 
L 297.400015 127.405493 
L 299.024339 127.166217 
L 300.648663 126.607875 
L 302.272987 125.737416 
L 303.897311 124.565677 
L 305.521635 123.107242 
L 307.145959 121.380267 
L 308.770283 119.406247 
L 311.20677 116.036529 
L 313.643256 112.261156 
L 316.891904 106.780096 
L 326.637849 89.913246 
L 329.074335 86.221666 
L 331.510821 82.958392 
L 333.135145 81.066472 
L 334.759469 79.429329 
L 336.383794 78.067341 
L 338.008118 76.997462 
L 339.632442 76.23301 
L 341.256766 75.783501 
L 342.88109 75.65453 
L 344.505414 75.847703 
L 346.129738 76.360615 
L 347.754062 77.186882 
L 349.378387 78.316217 
L 351.002711 79.734564 
L 352.627035 81.424267 
L 354.251359 83.364292 
L 356.687845 86.69008 
L 359.124331 90.431072 
L 362.37298 95.882763 
L 372.118924 112.782967 
L 374.555411 116.51026 
L 376.991897 119.818646 
L 378.616221 121.745249 
L 380.240545 123.420265 
L 381.864869 124.822844 
L 383.489193 125.935527 
L 385.113517 126.744462 
L 386.737842 127.239581 
L 388.362166 127.414721 
L 389.98649 127.2677 
L 391.610814 126.80035 
L 393.235138 126.018488 
L 394.859462 124.931846 
L 396.483786 123.553951 
L 398.10811 121.901954 
L 399.732435 119.99642 
L 402.168921 116.715414 
L 404.605407 113.009762 
L 407.854055 107.588839 
L 417.6 90.659613 
L 417.6 90.659613 
" style="fill:none;stroke:#9467bd;stroke-linecap:square;stroke-width:1.5;"/>
   </g>
   <g id="patch_9">
    <path d="M 242.985156 239.56625 
L 242.985156 49.771875 
" style="fill:none;stroke:#000000;stroke-linecap:square;stroke-linejoin:miter;stroke-width:0.8;"/>
   </g>
   <g id="patch_10">
    <path d="M 417.6 239.56625 
L 417.6 49.771875 
" style="fill:none;stroke:#000000;stroke-linecap:square;stroke-linejoin:miter;stroke-width:0.8;"/>
   </g>
   <g id="patch_11">
    <path d="M 242.985156 239.56625 
L 417.6 239.56625 
" style="fill:none;stroke:#000000;stroke-linecap:square;stroke-linejoin:miter;stroke-width:0.8;"/>
   </g>
   <g id="patch_12">
    <path d="M 242.985156 49.771875 
L 417.6 49.771875 
" style="fill:none;stroke:#000000;stroke-linecap:square;stroke-linejoin:miter;stroke-width:0.8;"/>
   </g>
   <g id="text_34">
    <!-- robust optimization -->
    <g transform="translate(271.964141 43.771875)scale(0.12 -0.12)">
     <defs>
      <path d="M 48.6875 27.296875 
Q 48.6875 37.203125 44.609375 42.84375 
Q 40.53125 48.484375 33.40625 48.484375 
Q 26.265625 48.484375 22.1875 42.84375 
Q 18.109375 37.203125 18.109375 27.296875 
Q 18.109375 17.390625 22.1875 11.75 
Q 26.265625 6.109375 33.40625 6.109375 
Q 40.53125 6.109375 44.609375 11.75 
Q 48.6875 17.390625 48.6875 27.296875 
z
M 18.109375 46.390625 
Q 20.953125 51.265625 25.265625 53.625 
Q 29.59375 56 35.59375 56 
Q 45.5625 56 51.78125 48.09375 
Q 58.015625 40.1875 58.015625 27.296875 
Q 58.015625 14.40625 51.78125 6.484375 
Q 45.5625 -1.421875 35.59375 -1.421875 
Q 29.59375 -1.421875 25.265625 0.953125 
Q 20.953125 3.328125 18.109375 8.203125 
L 18.109375 0 
L 9.078125 0 
L 9.078125 75.984375 
L 18.109375 75.984375 
z
" id="DejaVuSans-98"/>
      <path d="M 8.5 21.578125 
L 8.5 54.6875 
L 17.484375 54.6875 
L 17.484375 21.921875 
Q 17.484375 14.15625 20.5 10.265625 
Q 23.53125 6.390625 29.59375 6.390625 
Q 36.859375 6.390625 41.078125 11.03125 
Q 45.3125 15.671875 45.3125 23.6875 
L 45.3125 54.6875 
L 54.296875 54.6875 
L 54.296875 0 
L 45.3125 0 
L 45.3125 8.40625 
Q 42.046875 3.421875 37.71875 1 
Q 33.40625 -1.421875 27.6875 -1.421875 
Q 18.265625 -1.421875 13.375 4.4375 
Q 8.5 10.296875 8.5 21.578125 
z
M 31.109375 56 
z
" id="DejaVuSans-117"/>
     </defs>
     <use xlink:href="#DejaVuSans-114"/>
     <use x="38.863281" xlink:href="#DejaVuSans-111"/>
     <use x="100.044922" xlink:href="#DejaVuSans-98"/>
     <use x="163.521484" xlink:href="#DejaVuSans-117"/>
     <use x="226.900391" xlink:href="#DejaVuSans-115"/>
     <use x="279" xlink:href="#DejaVuSans-116"/>
     <use x="318.208984" xlink:href="#DejaVuSans-32"/>
     <use x="349.996094" xlink:href="#DejaVuSans-111"/>
     <use x="411.177734" xlink:href="#DejaVuSans-112"/>
     <use x="474.654297" xlink:href="#DejaVuSans-116"/>
     <use x="513.863281" xlink:href="#DejaVuSans-105"/>
     <use x="541.646484" xlink:href="#DejaVuSans-109"/>
     <use x="639.058594" xlink:href="#DejaVuSans-105"/>
     <use x="666.841797" xlink:href="#DejaVuSans-122"/>
     <use x="719.332031" xlink:href="#DejaVuSans-97"/>
     <use x="780.611328" xlink:href="#DejaVuSans-116"/>
     <use x="819.820312" xlink:href="#DejaVuSans-105"/>
     <use x="847.603516" xlink:href="#DejaVuSans-111"/>
     <use x="908.785156" xlink:href="#DejaVuSans-110"/>
    </g>
   </g>
  </g>
  <g id="text_35">
   <!-- Asset dispatch and prices -->
   <g transform="translate(135.390938 16.318125)scale(0.12 -0.12)">
    <defs>
     <path d="M 34.1875 63.1875 
L 20.796875 26.90625 
L 47.609375 26.90625 
z
M 28.609375 72.90625 
L 39.796875 72.90625 
L 67.578125 0 
L 57.328125 0 
L 50.6875 18.703125 
L 17.828125 18.703125 
L 11.1875 0 
L 0.78125 0 
z
" id="DejaVuSans-65"/>
     <path d="M 54.890625 33.015625 
L 54.890625 0 
L 45.90625 0 
L 45.90625 32.71875 
Q 45.90625 40.484375 42.875 44.328125 
Q 39.84375 48.1875 33.796875 48.1875 
Q 26.515625 48.1875 22.3125 43.546875 
Q 18.109375 38.921875 18.109375 30.90625 
L 18.109375 0 
L 9.078125 0 
L 9.078125 75.984375 
L 18.109375 75.984375 
L 18.109375 46.1875 
Q 21.34375 51.125 25.703125 53.5625 
Q 30.078125 56 35.796875 56 
Q 45.21875 56 50.046875 50.171875 
Q 54.890625 44.34375 54.890625 33.015625 
z
" id="DejaVuSans-104"/>
    </defs>
    <use xlink:href="#DejaVuSans-65"/>
    <use x="68.408203" xlink:href="#DejaVuSans-115"/>
    <use x="120.507812" xlink:href="#DejaVuSans-115"/>
    <use x="172.607422" xlink:href="#DejaVuSans-101"/>
    <use x="234.130859" xlink:href="#DejaVuSans-116"/>
    <use x="273.339844" xlink:href="#DejaVuSans-32"/>
    <use x="305.126953" xlink:href="#DejaVuSans-100"/>
    <use x="368.603516" xlink:href="#DejaVuSans-105"/>
    <use x="396.386719" xlink:href="#DejaVuSans-115"/>
    <use x="448.486328" xlink:href="#DejaVuSans-112"/>
    <use x="511.962891" xlink:href="#DejaVuSans-97"/>
    <use x="573.242188" xlink:href="#DejaVuSans-116"/>
    <use x="612.451172" xlink:href="#DejaVuSans-99"/>
    <use x="667.431641" xlink:href="#DejaVuSans-104"/>
    <use x="730.810547" xlink:href="#DejaVuSans-32"/>
    <use x="762.597656" xlink:href="#DejaVuSans-97"/>
    <use x="823.876953" xlink:href="#DejaVuSans-110"/>
    <use x="887.255859" xlink:href="#DejaVuSans-100"/>
    <use x="950.732422" xlink:href="#DejaVuSans-32"/>
    <use x="982.519531" xlink:href="#DejaVuSans-112"/>
    <use x="1045.996094" xlink:href="#DejaVuSans-114"/>
    <use x="1087.109375" xlink:href="#DejaVuSans-105"/>
    <use x="1114.892578" xlink:href="#DejaVuSans-99"/>
    <use x="1169.873047" xlink:href="#DejaVuSans-101"/>
    <use x="1231.396484" xlink:href="#DejaVuSans-115"/>
   </g>
  </g>
 </g>
 <defs>
  <clipPath id="p1cfbdb8577">
   <rect height="189.794375" width="174.614844" x="44.845313" y="49.771875"/>
  </clipPath>
  <clipPath id="p3584c9d831">
   <rect height="189.794375" width="174.614844" x="242.985156" y="49.771875"/>
  </clipPath>
 </defs>
</svg>
